<svg xmlns="http://www.w3.org/2000/svg" width="543.83" height="215.024" viewBox="0 0 543.83 215.024">
  <g>
    <polygon points="0 0 0 215.024 543.83 214.819 543.83 0 0 0" fill="#f2f0ec"/>
    <g>
      <path d="M23.761,176.411h4.967v1.522H25.5v1.989h3.132v1.508H25.5v3.653H23.761Z" fill="#2f2e2c"/>
      <path d="M30.183,176.411H35.15v1.522H31.925v1.989h3.133v1.508H31.925v2.132H35.15v1.521H30.183Z" fill="#2f2e2c"/>
      <path d="M36.709,176.411H40.3a2.107,2.107,0,0,1,2.288,2.21,1.894,1.894,0,0,1-1.391,1.989,2.051,2.051,0,0,1,1.534,2.133,2.149,2.149,0,0,1-2.314,2.34h-3.7Zm3.172,3.524a.893.893,0,0,0,.923-1.014.9.9,0,0,0-.923-1.027h-1.43v2.041Zm.065,3.666a.957.957,0,0,0,1-1.092.987.987,0,0,0-1-1.092H38.451V183.6Z" fill="#2f2e2c"/>
    </g>
    <g>
      <path d="M68.278,179.129l-1.95,5.954h-.715l-1.924-5.954v5.954H61.96v-8.672H64.3l1.678,5.2,1.69-5.2h2.327v8.672H68.278Z" fill="#2f2e2c"/>
      <path d="M76.038,183.536H73.2l-.4,1.547H70.994l2.574-8.672h2.106l2.575,8.672H76.442Zm-2.483-1.521h2.132l-1.066-4.056Z" fill="#2f2e2c"/>
      <path d="M81.941,181.937h-.936v3.146H79.262v-8.672H82.5a2.567,2.567,0,0,1,2.638,2.743,2.4,2.4,0,0,1-1.508,2.484l1.574,3.445H83.266Zm.3-4H81.005v2.5h1.234a1.124,1.124,0,0,0,1.119-1.248A1.11,1.11,0,0,0,82.239,177.933Z" fill="#2f2e2c"/>
    </g>
    <g>
      <path d="M108.712,183.536h-2.834l-.4,1.547h-1.807l2.574-8.672h2.106l2.574,8.672h-1.807Zm-2.483-1.521h2.131l-1.065-4.056Z" fill="#2f2e2c"/>
      <path d="M111.935,176.411h3.2a2.764,2.764,0,0,1,0,5.526h-1.456v3.146h-1.742Zm2.99,1.522h-1.248v2.5h1.248a1.257,1.257,0,0,0,0-2.5Z" fill="#2f2e2c"/>
      <path d="M121.816,181.937h-.936v3.146h-1.743v-8.672h3.238a2.567,2.567,0,0,1,2.638,2.743,2.4,2.4,0,0,1-1.508,2.484l1.574,3.445h-1.938Zm.3-4H120.88v2.5h1.234a1.124,1.124,0,0,0,1.119-1.248A1.11,1.11,0,0,0,122.114,177.933Z" fill="#2f2e2c"/>
    </g>
    <g>
      <path d="M150.628,179.129l-1.95,5.954h-.715l-1.924-5.954v5.954H144.31v-8.672h2.34l1.677,5.2,1.69-5.2h2.327v8.672h-1.716Z" fill="#2f2e2c"/>
      <path d="M158.388,183.536h-2.834l-.4,1.547h-1.807l2.574-8.672h2.107l2.574,8.672h-1.807Zm-2.483-1.521h2.132l-1.066-4.056Z" fill="#2f2e2c"/>
      <path d="M162.86,181.508l-2.677-5.1h1.924l1.625,3.485,1.625-3.485h1.924l-2.678,5.1v3.575H162.86Z" fill="#2f2e2c"/>
    </g>
    <g>
      <path d="M225.684,183.211a1.47,1.47,0,0,0,1.079.48,1.057,1.057,0,0,0,1.132-1.17v-6.11h1.741v6.162a2.439,2.439,0,0,1-2.7,2.666,2.674,2.674,0,0,1-1.872-.663Z" fill="#2f2e2c"/>
      <path d="M231.43,176.411h1.755v5.694c0,1.028.494,1.6,1.417,1.6s1.418-.572,1.418-1.6v-5.694h1.755v5.682a3.173,3.173,0,0,1-6.345,0Z" fill="#2f2e2c"/>
      <path d="M239.581,176.411h1.742v7.138h2.912v1.534h-4.654Z" fill="#2f2e2c"/>
    </g>
    <g>
      <path d="M185.952,183.211a1.47,1.47,0,0,0,1.079.48,1.057,1.057,0,0,0,1.132-1.17v-6.11H189.9v6.162a2.439,2.439,0,0,1-2.7,2.666,2.674,2.674,0,0,1-1.872-.663Z" fill="#2f2e2c"/>
      <path d="M191.7,176.411h1.755v5.694c0,1.028.494,1.6,1.417,1.6s1.418-.572,1.418-1.6v-5.694h1.755v5.682a3.173,3.173,0,0,1-6.345,0Z" fill="#2f2e2c"/>
      <path d="M201.578,179.558v5.525h-1.729v-8.672h1.768l2.847,5.305v-5.305h1.743v8.672h-1.664Z" fill="#2f2e2c"/>
    </g>
    <g>
      <path d="M267.64,183.536h-2.834l-.4,1.547H262.6l2.574-8.672h2.106l2.574,8.672h-1.807Zm-2.483-1.521h2.132l-1.066-4.056Z" fill="#2f2e2c"/>
      <path d="M270.617,176.411h1.755v5.694c0,1.028.494,1.6,1.416,1.6s1.418-.572,1.418-1.6v-5.694h1.755v5.682a3.172,3.172,0,0,1-6.344,0Z" fill="#2f2e2c"/>
      <path d="M282.082,176.269a3.03,3.03,0,0,1,2.887,1.975l-1.417.651a1.611,1.611,0,0,0-1.47-1.08c-1.1,0-1.872,1.08-1.872,2.939s.768,2.937,1.872,2.937a1.832,1.832,0,0,0,1.326-.519v-1.326h-1.637v-1.508h3.276v3.522a3.718,3.718,0,0,1-2.965,1.379c-2.2,0-3.666-1.8-3.666-4.485S279.886,176.269,282.082,176.269Z" fill="#2f2e2c"/>
    </g>
    <g>
      <path d="M304.693,182.781a2.837,2.837,0,0,0,2.081.924c.78,0,1.2-.43,1.2-.962,0-.663-.624-.949-1.417-1.287-1.093-.43-2.457-.949-2.457-2.665a2.6,2.6,0,0,1,2.859-2.522,3.748,3.748,0,0,1,2.626.961l-.832,1.3a2.646,2.646,0,0,0-1.833-.727c-.649,0-1.04.364-1.04.884,0,.584.6.858,1.378,1.182,1.118.443,2.483,1.015,2.483,2.731,0,1.521-1.04,2.639-2.937,2.639a4.009,4.009,0,0,1-2.965-1.118Z" fill="#2f2e2c"/>
      <path d="M311.141,176.411h4.967v1.522h-3.225v1.989h3.133v1.508h-3.133v2.132h3.225v1.521h-4.967Z" fill="#2f2e2c"/>
      <path d="M317.667,176.411h3.2a2.764,2.764,0,0,1,0,5.526h-1.456v3.146h-1.742Zm2.99,1.522h-1.248v2.5h1.248a1.257,1.257,0,0,0,0-2.5Z" fill="#2f2e2c"/>
    </g>
    <g>
      <path d="M345.868,176.269c2.276,0,3.627,1.911,3.627,4.485s-1.351,4.485-3.627,4.485c-2.261,0-3.613-1.9-3.613-4.485S343.607,176.269,345.868,176.269Zm0,1.546c-1.182,0-1.82,1.261-1.82,2.939,0,1.65.638,2.937,1.82,2.937s1.847-1.287,1.847-2.937C347.715,179.076,347.065,177.815,345.868,177.815Z" fill="#2f2e2c"/>
      <path d="M350.613,180.754c0-2.626,1.417-4.485,3.64-4.485a3.062,3.062,0,0,1,2.926,2.08l-1.444.636a1.6,1.6,0,0,0-1.482-1.17c-1.144,0-1.846,1.236-1.846,2.939s.7,2.937,1.846,2.937a1.635,1.635,0,0,0,1.5-1.26l1.443.624a3.073,3.073,0,0,1-2.939,2.184C352.03,185.239,350.613,183.38,350.613,180.754Z" fill="#2f2e2c"/>
      <path d="M359.935,177.945H358v-1.534h5.6v1.534h-1.924v7.138h-1.742Z" fill="#2f2e2c"/>
    </g>
    <g>
      <path d="M384.378,179.558v5.525H382.65v-8.672h1.767l2.848,5.305v-5.305h1.742v8.672h-1.664Z" fill="#2f2e2c"/>
      <path d="M394.064,176.269c2.274,0,3.627,1.911,3.627,4.485s-1.353,4.485-3.627,4.485-3.615-1.9-3.615-4.485S391.8,176.269,394.064,176.269Zm0,1.546c-1.184,0-1.821,1.261-1.821,2.939,0,1.65.637,2.937,1.821,2.937s1.845-1.287,1.845-2.937C395.909,179.076,395.259,177.815,394.064,177.815Z" fill="#2f2e2c"/>
      <path d="M398.2,176.411h1.885l1.742,6.617,1.729-6.617h1.9l-2.574,8.672h-2.105Z" fill="#2f2e2c"/>
    </g>
    <g>
      <path d="M424.2,176.411H427c2.392,0,3.771,1.794,3.771,4.343s-1.366,4.329-3.771,4.329H424.2ZM427,183.549c1.287,0,1.989-1.145,1.989-2.8,0-1.717-.676-2.809-1.989-2.809h-1.053v5.6Z" fill="#2f2e2c"/>
      <path d="M432.234,176.411H437.2v1.522h-3.224v1.989h3.132v1.508h-3.132v2.132H437.2v1.521h-4.967Z" fill="#2f2e2c"/>
      <path d="M438.409,180.754c0-2.626,1.417-4.485,3.641-4.485a3.062,3.062,0,0,1,2.925,2.08l-1.444.636a1.6,1.6,0,0,0-1.481-1.17c-1.145,0-1.847,1.236-1.847,2.939s.7,2.937,1.847,2.937a1.634,1.634,0,0,0,1.5-1.26l1.442.624a3.07,3.07,0,0,1-2.937,2.184C439.826,185.239,438.409,183.38,438.409,180.754Z" fill="#2f2e2c"/>
    </g>
    <g>
      <path d="M463.972,183.211a1.468,1.468,0,0,0,1.079.48,1.057,1.057,0,0,0,1.131-1.17v-6.11h1.742v6.162a2.439,2.439,0,0,1-2.7,2.666,2.671,2.671,0,0,1-1.872-.663Z" fill="#2f2e2c"/>
      <path d="M473.722,183.536h-2.834l-.4,1.547h-1.806l2.573-8.672h2.107l2.574,8.672h-1.807Zm-2.484-1.521h2.132l-1.065-4.056Z" fill="#2f2e2c"/>
      <path d="M478.675,179.558v5.525h-1.73v-8.672h1.769l2.847,5.305v-5.305H483.3v8.672h-1.664Z" fill="#2f2e2c"/>
    </g>
    <g>
      <path d="M502.832,176.411H507.8v1.522h-3.225v1.989h3.133v1.508h-3.133v3.653h-1.742Z" fill="#0b79bf"/>
      <path d="M509.254,176.411h4.967v1.522H511v1.989h3.133v1.508H511v2.132h3.225v1.521h-4.967Z" fill="#0b79bf"/>
      <path d="M515.78,176.411h3.588a2.107,2.107,0,0,1,2.288,2.21,1.893,1.893,0,0,1-1.391,1.989,2.05,2.05,0,0,1,1.534,2.133,2.149,2.149,0,0,1-2.314,2.34H515.78Zm3.172,3.524a.893.893,0,0,0,.923-1.014.9.9,0,0,0-.923-1.027h-1.429v2.041Zm.065,3.666a.957.957,0,0,0,1-1.092.987.987,0,0,0-1-1.092h-1.494V183.6Z" fill="#0b79bf"/>
    </g>
    <g>
      <path d="M23.617,61.4,22.2,62.866l-1.079-1.135,2.746-2.759h1.639v9.343H23.617Z" fill="#2f2e2c"/>
      <path d="M27.241,66.8c3.418-3.32,4.133-4.063,4.133-5.127A1.168,1.168,0,0,0,30.127,60.5a2.4,2.4,0,0,0-1.989,1.051l-1.121-1.177a3.8,3.8,0,0,1,3.138-1.54,2.835,2.835,0,0,1,3.124,2.828c0,1.416-.953,2.62-3.306,5h3.348v1.652h-6.08Z" fill="#2f2e2c"/>
      <path d="M35.978,66.3a1.1,1.1,0,0,1,1.079,1.094,1.088,1.088,0,0,1-1.079,1.078,1.1,1.1,0,0,1-1.093-1.078A1.114,1.114,0,0,1,35.978,66.3Z" fill="#2f2e2c"/>
      <path d="M39.436,65.808a2.575,2.575,0,0,0,2,1.023c.981,0,1.429-.519,1.429-1.247,0-.882-.6-1.2-1.513-1.2-.308,0-.728.014-.869.027V62.74c.141.015.6.015.827.015.855,0,1.429-.365,1.429-1.108,0-.784-.56-1.162-1.373-1.162a2.39,2.39,0,0,0-1.863.939l-1.064-1.079a3.657,3.657,0,0,1,3.081-1.512c1.849,0,3.068.882,3.068,2.535A2.206,2.206,0,0,1,42.826,63.5a2.254,2.254,0,0,1,1.905,2.241c0,1.624-1.247,2.745-3.208,2.745a3.8,3.8,0,0,1-3.207-1.512Z" fill="#2f2e2c"/>
    </g>
    <g>
      <path d="M67.916,122.578h-3.81V121.01l3.277-5.785h2.41v5.7h.938v1.652h-.938v1.989H67.916ZM65.8,120.926h2.116v-3.8Z" fill="#2f2e2c"/>
      <path d="M73.08,122.551a1.1,1.1,0,0,1,1.079,1.093,1.088,1.088,0,0,1-1.079,1.078,1.1,1.1,0,0,1-1.093-1.078A1.113,1.113,0,0,1,73.08,122.551Z" fill="#2f2e2c"/>
      <path d="M76.8,122.341a1.735,1.735,0,0,0,1.471.727c1.177,0,1.863-1.3,1.863-2.8V120.1a2.346,2.346,0,0,1-1.989,1.175c-1.4,0-2.62-1.036-2.62-3.025a3.01,3.01,0,0,1,3.068-3.18c2.466,0,3.432,2.228,3.432,4.833,0,2.787-1.331,4.819-3.74,4.819a3.159,3.159,0,0,1-2.381-1.009Zm1.891-5.617a1.326,1.326,0,0,0-1.26,1.456c0,1.107.644,1.513,1.3,1.513a1.7,1.7,0,0,0,1.387-.953C80.068,117.858,79.76,116.724,78.695,116.724Z" fill="#2f2e2c"/>
    </g>
    <g>
      <path d="M103.383,142.407c3.418-3.319,4.133-4.062,4.133-5.127a1.167,1.167,0,0,0-1.247-1.176,2.4,2.4,0,0,0-1.989,1.05l-1.121-1.176a3.808,3.808,0,0,1,3.138-1.54,2.835,2.835,0,0,1,3.124,2.829c0,1.415-.953,2.619-3.306,5h3.348v1.652h-6.08Z" fill="#2f2e2c"/>
      <path d="M112.12,141.9A1.1,1.1,0,0,1,113.2,143a1.088,1.088,0,0,1-1.079,1.078A1.1,1.1,0,0,1,111.027,143,1.113,1.113,0,0,1,112.12,141.9Z" fill="#2f2e2c"/>
      <path d="M115.844,141.427a2.361,2.361,0,0,0,1.947,1.009,1.394,1.394,0,0,0,1.415-1.486c0-.924-.49-1.484-1.331-1.484a1.858,1.858,0,0,0-1.54.77l-1.359-.35v-5.309h5.6v1.639h-3.74v2.409a2.309,2.309,0,0,1,1.723-.756c1.415,0,2.549,1.093,2.549,3.026a3.048,3.048,0,0,1-3.264,3.193,3.641,3.641,0,0,1-3.137-1.471Z" fill="#2f2e2c"/>
    </g>
    <g>
      <path d="M147,146.116l-1.415,1.471-1.078-1.135,2.745-2.759h1.639v9.343H147Z" fill="#2f2e2c"/>
      <path d="M151.773,151.019a1.1,1.1,0,0,1,1.078,1.092,1.088,1.088,0,0,1-1.078,1.079,1.1,1.1,0,0,1-1.093-1.079A1.112,1.112,0,0,1,151.773,151.019Z" fill="#2f2e2c"/>
      <path d="M154.446,151.523c3.418-3.32,4.132-4.062,4.132-5.127a1.167,1.167,0,0,0-1.246-1.176,2.4,2.4,0,0,0-1.99,1.051l-1.12-1.177a3.8,3.8,0,0,1,3.137-1.541,2.836,2.836,0,0,1,3.125,2.83c0,1.414-.953,2.619-3.307,5h3.349v1.653h-6.08Z" fill="#2f2e2c"/>
    </g>
    <g>
      <path d="M226.3,147.116l-1.415,1.471-1.078-1.135,2.745-2.759h1.639v9.343H226.3Z" fill="#2f2e2c"/>
      <path d="M231.071,152.019a1.1,1.1,0,0,1,1.079,1.092,1.089,1.089,0,0,1-1.079,1.079,1.1,1.1,0,0,1-1.092-1.079A1.112,1.112,0,0,1,231.071,152.019Z" fill="#2f2e2c"/>
      <path d="M234.529,151.528a2.573,2.573,0,0,0,2,1.024c.981,0,1.429-.519,1.429-1.247,0-.883-.6-1.205-1.513-1.205-.308,0-.728.014-.868.028v-1.667c.14.015.6.015.826.015.855,0,1.429-.365,1.429-1.108,0-.784-.56-1.162-1.372-1.162a2.39,2.39,0,0,0-1.864.939l-1.064-1.08a3.658,3.658,0,0,1,3.081-1.512c1.849,0,3.068.883,3.068,2.536a2.207,2.207,0,0,1-1.765,2.129,2.252,2.252,0,0,1,1.905,2.241c0,1.625-1.247,2.745-3.208,2.745a3.8,3.8,0,0,1-3.207-1.513Z" fill="#2f2e2c"/>
    </g>
    <g>
      <path d="M185.928,148.116l-1.415,1.471-1.078-1.135,2.745-2.759h1.639v9.343h-1.891Z" fill="#2f2e2c"/>
      <path d="M190.7,153.019a1.1,1.1,0,0,1,1.078,1.092,1.088,1.088,0,0,1-1.078,1.079,1.1,1.1,0,0,1-1.093-1.079A1.112,1.112,0,0,1,190.7,153.019Z" fill="#2f2e2c"/>
      <path d="M196.513,145.553c2.325,0,3.305,2.157,3.305,4.819,0,2.647-.966,4.832-3.305,4.832-2.311,0-3.306-2.185-3.306-4.832C193.207,147.71,194.2,145.553,196.513,145.553Zm0,1.667c-1.079,0-1.387,1.344-1.387,3.152,0,1.793.308,3.165,1.387,3.165s1.4-1.372,1.4-3.165C197.914,148.564,197.606,147.22,196.513,147.22Z" fill="#2f2e2c"/>
    </g>
    <g>
      <path d="M266.552,146.116l-1.415,1.471-1.078-1.135,2.745-2.759h1.639v9.343h-1.891Z" fill="#2f2e2c"/>
      <path d="M271.326,151.019a1.1,1.1,0,0,1,1.078,1.092,1.088,1.088,0,0,1-1.078,1.079,1.1,1.1,0,0,1-1.093-1.079A1.112,1.112,0,0,1,271.326,151.019Z" fill="#2f2e2c"/>
      <path d="M274.783,150.528a2.574,2.574,0,0,0,2,1.024c.981,0,1.429-.519,1.429-1.247,0-.883-.6-1.205-1.514-1.205-.307,0-.727.014-.868.028v-1.667c.141.015.6.015.826.015.855,0,1.429-.365,1.429-1.108,0-.784-.56-1.162-1.372-1.162a2.387,2.387,0,0,0-1.863.939l-1.065-1.08a3.658,3.658,0,0,1,3.082-1.512c1.849,0,3.068.883,3.068,2.536a2.208,2.208,0,0,1-1.765,2.129,2.252,2.252,0,0,1,1.9,2.241c0,1.625-1.246,2.745-3.207,2.745a3.8,3.8,0,0,1-3.208-1.513Z" fill="#2f2e2c"/>
    </g>
    <g>
      <path d="M303.081,140.407c3.418-3.319,4.133-4.062,4.133-5.127a1.167,1.167,0,0,0-1.247-1.176,2.4,2.4,0,0,0-1.989,1.05l-1.12-1.176a3.8,3.8,0,0,1,3.137-1.54,2.835,2.835,0,0,1,3.124,2.829c0,1.415-.953,2.619-3.306,5h3.348v1.652h-6.08Z" fill="#2f2e2c"/>
      <path d="M311.818,139.9A1.1,1.1,0,0,1,312.9,141a1.088,1.088,0,0,1-1.079,1.078A1.1,1.1,0,0,1,310.726,141,1.112,1.112,0,0,1,311.818,139.9Z" fill="#2f2e2c"/>
      <path d="M318.064,132.438a3.168,3.168,0,0,1,2.395,1.007l-.911,1.373a1.688,1.688,0,0,0-1.456-.728c-1.163,0-1.863,1.316-1.863,2.815v.155a2.306,2.306,0,0,1,1.989-1.177c1.4,0,2.619,1.037,2.619,3.025a3.009,3.009,0,0,1-3.067,3.18c-2.48,0-3.447-2.227-3.447-4.818C314.323,134.468,315.654,132.438,318.064,132.438Zm-.435,5.028a1.725,1.725,0,0,0-1.4.967c.07.868.392,2,1.442,2a1.327,1.327,0,0,0,1.261-1.457C318.932,137.872,318.3,137.466,317.629,137.466Z" fill="#2f2e2c"/>
    </g>
    <g>
      <path d="M344.468,97.1a2.358,2.358,0,0,1-1.653-2.228c0-1.709,1.555-2.436,3.1-2.436,1.513,0,3.1.727,3.1,2.436a2.371,2.371,0,0,1-1.667,2.228,2.718,2.718,0,0,1,1.793,2.422c0,1.667-1.372,2.564-3.222,2.564s-3.235-.9-3.235-2.549A2.722,2.722,0,0,1,344.468,97.1Zm1.442.756a1.619,1.619,0,0,0-1.33,1.429,1.174,1.174,0,0,0,1.33,1.162,1.188,1.188,0,0,0,1.331-1.162A1.633,1.633,0,0,0,345.91,97.858Zm0-3.782a1.084,1.084,0,0,0-1.218,1.107c0,.812.854,1.176,1.218,1.26.351-.084,1.2-.448,1.2-1.26A1.08,1.08,0,0,0,345.91,94.076Z" fill="#2f2e2c"/>
      <path d="M351.621,99.9A1.1,1.1,0,0,1,352.7,101a1.088,1.088,0,0,1-1.079,1.078A1.1,1.1,0,0,1,350.528,101,1.113,1.113,0,0,1,351.621,99.9Z" fill="#2f2e2c"/>
      <path d="M357.433,92.438c2.325,0,3.305,2.156,3.305,4.818,0,2.647-.966,4.832-3.305,4.832-2.312,0-3.306-2.185-3.306-4.832C354.127,94.594,355.121,92.438,357.433,92.438Zm0,1.666c-1.079,0-1.387,1.344-1.387,3.152,0,1.793.308,3.165,1.387,3.165s1.4-1.372,1.4-3.165C358.833,95.448,358.526,94.1,357.433,94.1Z" fill="#2f2e2c"/>
    </g>
    <g>
      <path d="M383.623,68l-1.415,1.472-1.079-1.135,2.746-2.76h1.639V74.92h-1.891Z" fill="#2f2e2c"/>
      <path d="M389.236,68l-1.415,1.472-1.078-1.135,2.745-2.76h1.64V74.92h-1.892Z" fill="#2f2e2c"/>
      <path d="M394.01,72.9A1.1,1.1,0,0,1,395.089,74a1.088,1.088,0,0,1-1.079,1.078A1.1,1.1,0,0,1,392.917,74,1.113,1.113,0,0,1,394.01,72.9Z" fill="#2f2e2c"/>
      <path d="M399.472,67.23h-3.866V65.577h6v1.3l-2.9,8.04H396.67Z" fill="#2f2e2c"/>
    </g>
    <g>
      <path d="M422.437,48l-1.415,1.472-1.079-1.135,2.746-2.76h1.638V54.92h-1.89Z" fill="#2f2e2c"/>
      <path d="M429.535,52.931h-3.809V51.362L429,45.577h2.409v5.7h.939v1.653h-.939V54.92h-1.877Zm-2.115-1.653h2.115v-3.8Z" fill="#2f2e2c"/>
      <path d="M434.7,52.9A1.1,1.1,0,0,1,435.778,54a1.088,1.088,0,0,1-1.078,1.078A1.1,1.1,0,0,1,433.607,54,1.112,1.112,0,0,1,434.7,52.9Z" fill="#2f2e2c"/>
      <path d="M438.424,52.427a2.36,2.36,0,0,0,1.946,1.009,1.4,1.4,0,0,0,1.416-1.486c0-.924-.49-1.484-1.332-1.484a1.861,1.861,0,0,0-1.54.77l-1.358-.35V45.577h5.6v1.639h-3.739v2.409a2.307,2.307,0,0,1,1.723-.756c1.414,0,2.549,1.093,2.549,3.026a3.048,3.048,0,0,1-3.264,3.193,3.643,3.643,0,0,1-3.138-1.471Z" fill="#2f2e2c"/>
    </g>
    <g>
      <path d="M460.762,34l-1.415,1.472-1.079-1.135,2.746-2.76h1.638V40.92h-1.89Z" fill="#2f2e2c"/>
      <path d="M467.958,31.438a3.17,3.17,0,0,1,2.4,1.007l-.911,1.373a1.689,1.689,0,0,0-1.457-.728c-1.163,0-1.863,1.316-1.863,2.815v.155a2.308,2.308,0,0,1,1.989-1.177c1.4,0,2.62,1.037,2.62,3.025a3.01,3.01,0,0,1-3.068,3.18c-2.479,0-3.446-2.227-3.446-4.818C464.218,33.468,465.549,31.438,467.958,31.438Zm-.434,5.028a1.727,1.727,0,0,0-1.4.967c.07.868.393,2,1.443,2a1.327,1.327,0,0,0,1.26-1.457C468.826,36.872,468.2,36.466,467.524,36.466Z" fill="#2f2e2c"/>
      <path d="M473.179,38.9A1.1,1.1,0,0,1,474.258,40a1.088,1.088,0,0,1-1.079,1.078A1.1,1.1,0,0,1,472.086,40,1.113,1.113,0,0,1,473.179,38.9Z" fill="#2f2e2c"/>
      <path d="M475.852,39.407c3.418-3.319,4.132-4.062,4.132-5.127a1.166,1.166,0,0,0-1.247-1.176,2.4,2.4,0,0,0-1.989,1.05l-1.12-1.176a3.805,3.805,0,0,1,3.138-1.54,2.835,2.835,0,0,1,3.124,2.829c0,1.415-.953,2.619-3.307,5h3.349V40.92h-6.08Z" fill="#2f2e2c"/>
    </g>
    <g>
      <path d="M502.6,72l-1.415,1.472-1.079-1.135,2.746-2.76h1.638V78.92H502.6Z" fill="#0b79bf"/>
      <path d="M508.214,72,506.8,73.472l-1.078-1.135,2.745-2.76h1.64V78.92h-1.892Z" fill="#0b79bf"/>
      <path d="M512.987,76.9A1.1,1.1,0,0,1,514.067,78a1.089,1.089,0,0,1-1.08,1.078A1.1,1.1,0,0,1,511.9,78,1.113,1.113,0,0,1,512.987,76.9Z" fill="#0b79bf"/>
      <path d="M518.8,69.438c2.325,0,3.306,2.156,3.306,4.818,0,2.647-.967,4.832-3.306,4.832-2.312,0-3.306-2.185-3.306-4.832C515.493,71.594,516.487,69.438,518.8,69.438Zm0,1.666c-1.079,0-1.387,1.344-1.387,3.152,0,1.793.308,3.165,1.387,3.165s1.4-1.372,1.4-3.165C520.2,72.448,519.892,71.1,518.8,71.1Z" fill="#0b79bf"/>
    </g>
    <g>
      <path d="M22.247,13.058H20.286V11.124h6.132v1.934H24.469v7.215H22.247Z" fill="#0b79bf"/>
      <path d="M26.347,16.954c0-1.852,1.084-3.471,3.142-3.471a3.168,3.168,0,0,1,3.155,3.471,3.179,3.179,0,0,1-3.155,3.484C27.431,20.438,26.347,18.806,26.347,16.954Zm4.253,0c0-.961-.343-1.715-1.111-1.715s-1.1.754-1.1,1.715.343,1.729,1.1,1.729S30.6,17.928,30.6,16.954Z" fill="#0b79bf"/>
      <path d="M34.233,18.559V15.376H33.4V13.647h.837v-1.81h1.988v1.81h1.071v1.729H36.221v2.688c0,.385.151.619.453.619a.687.687,0,0,0,.453-.152l.357,1.536a2.221,2.221,0,0,1-1.372.371A1.653,1.653,0,0,1,34.233,18.559Z" fill="#0b79bf"/>
      <path d="M41.967,19.629a2.225,2.225,0,0,1-1.742.809,2.057,2.057,0,0,1-2.071-2.2,1.964,1.964,0,0,1,2.071-2.112,2.185,2.185,0,0,1,1.742.754v-.768A1.022,1.022,0,0,0,40.8,15.088a2.528,2.528,0,0,0-1.632.686l-.7-1.331a4.13,4.13,0,0,1,2.717-.96c1.508,0,2.757.645,2.757,2.428v4.362H41.967Zm0-1.688a1.086,1.086,0,0,0-.96-.521.858.858,0,1,0,0,1.715,1.085,1.085,0,0,0,.96-.522Z" fill="#0b79bf"/>
      <path d="M45.545,11.124h1.989v9.149H45.545Z" fill="#0b79bf"/>
      <path d="M54.542,15.006v5.267H52.333V11.124H54.6l2.634,5.007V11.124h2.2v9.149h-2.1Z" fill="#0b79bf"/>
      <path d="M64.566,19.629a2.226,2.226,0,0,1-1.742.809,2.057,2.057,0,0,1-2.071-2.2,1.964,1.964,0,0,1,2.071-2.112,2.186,2.186,0,0,1,1.742.754v-.768A1.022,1.022,0,0,0,63.4,15.088a2.524,2.524,0,0,0-1.632.686l-.7-1.331a4.127,4.127,0,0,1,2.716-.96c1.509,0,2.758.645,2.758,2.428v4.362H64.566Zm0-1.688a1.088,1.088,0,0,0-.96-.521.858.858,0,1,0,0,1.715,1.086,1.086,0,0,0,.96-.522Z" fill="#0b79bf"/>
      <path d="M68.474,18.559V15.376h-.837V13.647h.837v-1.81h1.989v1.81h1.07v1.729h-1.07v2.688c0,.385.15.619.452.619a.685.685,0,0,0,.453-.152l.357,1.536a2.217,2.217,0,0,1-1.372.371A1.653,1.653,0,0,1,68.474,18.559Z" fill="#0b79bf"/>
      <path d="M76.538,19.478a2.471,2.471,0,0,1-1.962.96,1.627,1.627,0,0,1-1.824-1.8V13.647h1.989v4.2c0,.6.274.837.768.837A1.229,1.229,0,0,0,76.538,18V13.647h1.975v6.626H76.538Z" fill="#0b79bf"/>
      <path d="M80.129,13.647h1.989V14.5a2.311,2.311,0,0,1,1.77-1.015V15.4a1.814,1.814,0,0,0-.425-.054,1.754,1.754,0,0,0-1.345.658v4.266H80.129Z" fill="#0b79bf"/>
      <path d="M88.468,19.629a2.228,2.228,0,0,1-1.742.809,2.057,2.057,0,0,1-2.072-2.2,1.964,1.964,0,0,1,2.072-2.112,2.186,2.186,0,0,1,1.742.754v-.768A1.022,1.022,0,0,0,87.3,15.088a2.524,2.524,0,0,0-1.632.686l-.7-1.331a4.127,4.127,0,0,1,2.716-.96c1.509,0,2.757.645,2.757,2.428v4.362H88.468Zm0-1.688a1.088,1.088,0,0,0-.96-.521.858.858,0,1,0,0,1.715,1.086,1.086,0,0,0,.96-.522Z" fill="#0b79bf"/>
      <path d="M92.046,11.124h1.989v9.149H92.046Z" fill="#0b79bf"/>
      <path d="M102.483,10.973a3.325,3.325,0,0,1,3.2,2.236l-1.811.823a1.521,1.521,0,0,0-1.385-1.1c-1.029,0-1.77.946-1.77,2.77s.741,2.772,1.77,2.772a1.74,1.74,0,0,0,1.234-.44V17.009h-1.509V15.115h3.58v3.8a4.213,4.213,0,0,1-3.3,1.523c-2.429,0-4.034-1.879-4.034-4.733S100.054,10.973,102.483,10.973Z" fill="#0b79bf"/>
      <path d="M110.71,19.629a2.226,2.226,0,0,1-1.742.809,2.057,2.057,0,0,1-2.071-2.2,1.964,1.964,0,0,1,2.071-2.112,2.186,2.186,0,0,1,1.742.754v-.768a1.022,1.022,0,0,0-1.166-1.029,2.524,2.524,0,0,0-1.632.686l-.7-1.331a4.127,4.127,0,0,1,2.716-.96c1.509,0,2.758.645,2.758,2.428v4.362H110.71Zm0-1.688a1.088,1.088,0,0,0-.96-.521.858.858,0,1,0,0,1.715,1.086,1.086,0,0,0,.96-.522Z" fill="#0b79bf"/>
      <path d="M114.59,18.134a3.18,3.18,0,0,0,1.879.781c.549,0,.823-.2.823-.534s-.412-.481-.988-.632c-.946-.261-2.277-.59-2.277-2.181,0-1.111.892-2.085,2.579-2.085a3.968,3.968,0,0,1,2.442.837l-.768,1.33a2.494,2.494,0,0,0-1.66-.658c-.425,0-.727.179-.727.467s.357.438.933.59c.974.26,2.359.617,2.359,2.249,0,1.249-1.042,2.14-2.675,2.14a3.93,3.93,0,0,1-2.716-.947Z" fill="#0b79bf"/>
      <path d="M123.586,11.124h2.235v5.912c0,.919.439,1.454,1.317,1.454s1.3-.535,1.3-1.454V11.124h2.235v5.9a3.548,3.548,0,0,1-7.091,0Z" fill="#0b79bf"/>
      <path d="M132.65,18.134a3.18,3.18,0,0,0,1.879.781c.549,0,.823-.2.823-.534s-.411-.481-.988-.632c-.946-.261-2.276-.59-2.276-2.181,0-1.111.891-2.085,2.578-2.085a3.968,3.968,0,0,1,2.442.837l-.768,1.33a2.494,2.494,0,0,0-1.66-.658c-.425,0-.727.179-.727.467s.357.438.933.59c.973.26,2.359.617,2.359,2.249,0,1.249-1.042,2.14-2.675,2.14a3.93,3.93,0,0,1-2.716-.947Z" fill="#0b79bf"/>
      <path d="M141.208,13.483c1.865,0,2.963,1.441,2.963,3.567V17.6H140.1a1.355,1.355,0,0,0,1.454,1.275,1.974,1.974,0,0,0,1.358-.576l.878,1.193a3.52,3.52,0,0,1-2.469.947,3.161,3.161,0,0,1-3.21-3.484A3.169,3.169,0,0,1,141.208,13.483Zm-1.125,2.785h2.195c-.028-.536-.274-1.221-1.1-1.221C140.385,15.047,140.124,15.732,140.083,16.268Z" fill="#0b79bf"/>
      <path d="M148.389,17.548a9.529,9.529,0,0,1,1.368-4.957l.64.37a11.072,11.072,0,0,0-.954,4.587,10.982,10.982,0,0,0,.954,4.576l-.64.381A9.532,9.532,0,0,1,148.389,17.548Z" fill="#0b79bf"/>
      <path d="M156.869,14.531l-1.9,5.742h-.426l-1.884-5.742v5.742H151.6v-7.48h1.47l1.693,5.159,1.716-5.159h1.446v7.48h-1.054Z" fill="#0b79bf"/>
      <path d="M161.65,14.722a1.91,1.91,0,0,1,1.6.729l-.5.651a1.19,1.19,0,0,0-1.009-.528c-.908,0-1.4.9-1.4,1.986s.494,2,1.4,2a1.217,1.217,0,0,0,1.009-.528l.5.651a1.881,1.881,0,0,1-1.6.729c-1.413,0-2.31-1.222-2.31-2.848S160.237,14.722,161.65,14.722Z" fill="#0b79bf"/>
      <path d="M164.669,15.7h-.706v-.841h.706v-.583a1.4,1.4,0,0,1,1.391-1.592,1.626,1.626,0,0,1,.762.168l-.213.74a.728.728,0,0,0-.347-.09c-.393,0-.628.281-.628.774v.583h.908V15.7h-.908v4.576h-.965Z" fill="#0b79bf"/>
      <path d="M169.931,17.145h2.333v.83h-2.333Z" fill="#0b79bf"/>
      <path d="M176.36,19.13V15.7h-.718v-.841h.718v-1.48h.953v1.48h.908V15.7h-.908v3.241c0,.382.134.618.426.618a.62.62,0,0,0,.46-.191l.247.718a1.244,1.244,0,0,1-.92.325C176.73,20.408,176.36,19.971,176.36,19.13Z" fill="#0b79bf"/>
      <path d="M182.44,16.482c0-.672-.314-.908-.819-.908a1.47,1.47,0,0,0-1.189.808v3.891h-.964v-7.48h.964v2.815a2.036,2.036,0,0,1,1.582-.886c.942,0,1.39.482,1.39,1.458v4.093h-.964Z" fill="#0b79bf"/>
      <path d="M184.764,17.56c0-1.526.785-2.838,2.276-2.838s2.277,1.312,2.277,2.838-.785,2.848-2.277,2.848S184.764,19.085,184.764,17.56Zm3.555,0c0-1.033-.393-1.986-1.279-1.986s-1.267.953-1.267,1.986.393,2,1.267,2S188.319,18.6,188.319,17.56Z" fill="#0b79bf"/>
      <path d="M193.649,19.545a1.99,1.99,0,0,1-1.582.863c-.942,0-1.391-.482-1.391-1.458V14.856h.965v3.791c0,.673.314.909.819.909a1.462,1.462,0,0,0,1.189-.785V14.856h.953v5.417h-.953Z" fill="#0b79bf"/>
      <path d="M196.264,18.961a1.992,1.992,0,0,0,1.447.673c.594,0,.964-.291.964-.751,0-.516-.5-.74-1.077-.965-.751-.28-1.614-.606-1.614-1.693a1.584,1.584,0,0,1,1.794-1.5,2.343,2.343,0,0,1,1.716.7l-.426.662a1.616,1.616,0,0,0-1.279-.583c-.538,0-.9.28-.9.673,0,.46.482.661,1.031.886.763.28,1.672.628,1.672,1.772a1.654,1.654,0,0,1-1.873,1.581,2.461,2.461,0,0,1-1.907-.762Z" fill="#0b79bf"/>
      <path d="M203.69,19.713a1.745,1.745,0,0,1-1.424.7,1.666,1.666,0,0,1-1.649-1.8,1.637,1.637,0,0,1,1.649-1.773,1.7,1.7,0,0,1,1.424.673V16.64a.986.986,0,0,0-1.077-1.1,1.84,1.84,0,0,0-1.357.639l-.392-.673a2.6,2.6,0,0,1,1.907-.785,1.659,1.659,0,0,1,1.884,1.805v3.746h-.965Zm0-1.548a1.236,1.236,0,0,0-1.088-.65,1.012,1.012,0,0,0-1.009,1.11,1.012,1.012,0,0,0,1.009,1.11,1.236,1.236,0,0,0,1.088-.65Z" fill="#0b79bf"/>
      <path d="M209.255,16.505c0-.684-.314-.931-.819-.931a1.454,1.454,0,0,0-1.189.808v3.891h-.964V14.856h.964v.752a2.015,2.015,0,0,1,1.571-.886c.941,0,1.39.516,1.39,1.469v4.082h-.953Z" fill="#0b79bf"/>
      <path d="M214.954,19.533a1.7,1.7,0,0,1-1.413.875c-1.211,0-1.962-1.11-1.962-2.838,0-1.693.74-2.848,1.962-2.848a1.646,1.646,0,0,1,1.413.886V12.793h.954v7.48h-.954Zm0-3.14a1.383,1.383,0,0,0-1.143-.819c-.83,0-1.234.886-1.234,2s.4,1.986,1.234,1.986a1.369,1.369,0,0,0,1.143-.808Z" fill="#0b79bf"/>
      <path d="M222.225,14.722a1.91,1.91,0,0,1,1.6.729l-.5.651a1.19,1.19,0,0,0-1.009-.528c-.908,0-1.4.9-1.4,1.986s.494,2,1.4,2a1.217,1.217,0,0,0,1.009-.528l.5.651a1.881,1.881,0,0,1-1.6.729c-1.413,0-2.31-1.222-2.31-2.848S220.812,14.722,222.225,14.722Z" fill="#0b79bf"/>
      <path d="M228,19.545a1.986,1.986,0,0,1-1.581.863c-.942,0-1.391-.482-1.391-1.458V14.856H226v3.791c0,.673.315.909.819.909A1.461,1.461,0,0,0,228,18.771V14.856h.953v5.417H228Z" fill="#0b79bf"/>
      <path d="M230.6,12.793h.964v2.815a1.619,1.619,0,0,1,1.4-.886c1.223,0,1.963,1.155,1.963,2.848,0,1.728-.74,2.838-1.963,2.838a1.674,1.674,0,0,1-1.4-.875v.74H230.6Zm2.1,6.763c.841,0,1.234-.875,1.234-1.986s-.393-2-1.234-2a1.376,1.376,0,0,0-1.133.83v2.344A1.37,1.37,0,0,0,232.693,19.556Z" fill="#0b79bf"/>
      <path d="M236.15,13.331a.634.634,0,0,1,.628-.628.627.627,0,0,1,.628.628.617.617,0,0,1-.628.617A.625.625,0,0,1,236.15,13.331Zm.146,1.525h.964v5.417H236.3Z" fill="#0b79bf"/>
      <path d="M240.928,14.722a1.909,1.909,0,0,1,1.6.729l-.505.651a1.19,1.19,0,0,0-1.009-.528c-.908,0-1.4.9-1.4,1.986s.494,2,1.4,2a1.217,1.217,0,0,0,1.009-.528l.505.651a1.88,1.88,0,0,1-1.6.729c-1.413,0-2.31-1.222-2.31-2.848S239.515,14.722,240.928,14.722Z" fill="#0b79bf"/>
      <path d="M246.584,15.7h-.707v-.841h.707v-.583a1.4,1.4,0,0,1,1.391-1.592,1.628,1.628,0,0,1,.762.168l-.213.74a.729.729,0,0,0-.348-.09c-.392,0-.628.281-.628.774v.583h.909V15.7h-.909v4.576h-.964Z" fill="#0b79bf"/>
      <path d="M251.565,14.722c1.446,0,2.2,1.267,2.2,2.871v.28h-3.477c.045.987.561,1.738,1.492,1.738a1.649,1.649,0,0,0,1.245-.628l.493.583a2.391,2.391,0,0,1-1.828.842c-1.469,0-2.389-1.178-2.389-2.848C249.3,15.989,250.151,14.722,251.565,14.722Zm-1.29,2.467h2.546c-.011-.751-.348-1.67-1.267-1.67C250.656,15.519,250.309,16.46,250.275,17.189Z" fill="#0b79bf"/>
      <path d="M257.085,14.722c1.446,0,2.2,1.267,2.2,2.871v.28h-3.477c.045.987.561,1.738,1.492,1.738a1.649,1.649,0,0,0,1.245-.628l.493.583a2.391,2.391,0,0,1-1.828.842c-1.469,0-2.389-1.178-2.389-2.848C254.819,15.989,255.672,14.722,257.085,14.722Zm-1.29,2.467h2.546c-.011-.751-.348-1.67-1.267-1.67C256.176,15.519,255.829,16.46,255.8,17.189Z" fill="#0b79bf"/>
      <path d="M260.8,19.13V15.7h-.717v-.841h.717v-1.48h.954v1.48h.908V15.7h-.908v3.241c0,.382.134.618.426.618a.617.617,0,0,0,.459-.191l.247.718a1.244,1.244,0,0,1-.92.325C261.169,20.408,260.8,19.971,260.8,19.13Z" fill="#0b79bf"/>
      <path d="M263.414,12.961l.628-.37a9.528,9.528,0,0,1,0,9.914l-.628-.381a10.812,10.812,0,0,0,.965-4.576A10.9,10.9,0,0,0,263.414,12.961Z" fill="#0b79bf"/>
    </g>
    <g>
      <path d="M476.239,205.127h-1.845l-.225.936h-1.5l1.774-6h1.755l1.774,6h-1.5Zm-1.557-1.251h1.278l-.639-2.539Z" fill="#0b79bf"/>
      <path d="M478.128,203.065c0-1.836,1.018-3.1,2.62-3.1a2.2,2.2,0,0,1,2.152,1.575l-1.2.513a1.018,1.018,0,0,0-.954-.8c-.711,0-1.135.766-1.135,1.818s.424,1.819,1.135,1.819a1.037,1.037,0,0,0,.954-.864l1.206.513a2.236,2.236,0,0,1-2.16,1.639C479.146,206.172,478.128,204.894,478.128,203.065Z" fill="#0b79bf"/>
      <path d="M484.69,201.328H483.4v-1.269h4.025v1.269h-1.278v4.735H484.69Z" fill="#0b79bf"/>
      <path d="M488.272,200.059h1.466v3.879c0,.6.288.956.865.956s.855-.352.855-.956v-3.879h1.468v3.871a2.329,2.329,0,0,1-4.654,0Z" fill="#0b79bf"/>
      <path d="M496.9,205.127h-1.845l-.225.936h-1.5l1.774-6h1.756l1.773,6h-1.5Zm-1.557-1.251h1.278l-.639-2.539Z" fill="#0b79bf"/>
      <path d="M499.234,200.059h1.458v4.735h1.935v1.269h-3.393Z" fill="#0b79bf"/>
    </g>
    <rect x="20.011" y="74.334" width="26.186" height="94.139" fill="#32b44a"/>
    <rect x="60.135" y="130.52" width="26.186" height="37.953" fill="#32b44a"/>
    <rect x="99.487" y="147.98" width="26.186" height="20.494" fill="#32b44a"/>
    <rect x="139.189" y="158.227" width="26.186" height="10.247" fill="#32b44a"/>
    <rect x="179.313" y="160.36" width="26.186" height="8.113" fill="#32b44a"/>
    <rect x="219.014" y="158.227" width="26.186" height="10.247" fill="#32b44a"/>
    <rect x="259.148" y="158.227" width="26.186" height="10.247" fill="#32b44a"/>
    <rect x="298.849" y="146.98" width="26.186" height="21.494" fill="#32b44a"/>
    <rect x="338.973" y="107.079" width="26.186" height="61.395" fill="#32b44a"/>
    <rect x="379.097" y="79.544" width="26.186" height="88.93" fill="#32b44a"/>
    <rect x="418.377" y="59.823" width="26.186" height="108.651" fill="#32b44a"/>
    <rect x="458.078" y="45.63" width="26.186" height="122.844" fill="#32b44a"/>
    <rect x="498.202" y="84.661" width="26.186" height="83.812" fill="#0b79bf"/>
    <polygon points="507.478 206.064 517.732 206.064 512.605 197.8 507.478 206.064" fill="#0b79bf"/>
  </g>
</svg>
