<svg xmlns="http://www.w3.org/2000/svg" width="543.83" height="52.743" viewBox="0 0 543.83 52.743">
  <g>
    <path d="M201.169.205H0V38.374C0,46.31,7.156,52.743,15.984,52.743H201.169Z" fill="#f2f0ec"/>
    <path d="M203.734,52.743H527.847c8.827,0,15.983-6.433,15.983-14.369V0l-340.1.205Z" fill="#f2f0ec"/>
    <g>
      <path d="M69.087,17.8H66.831l-.275,1.145H64.719L66.886,11.6h2.146L71.2,18.94H69.361Zm-1.9-1.529h1.563l-.782-3.1Z" fill="#0b79bf"/>
      <path d="M71.88,20.964V13.626h1.6v.627a1.509,1.509,0,0,1,1.309-.758c1.2,0,1.991,1.011,1.991,2.783,0,1.749-.792,2.794-1.991,2.794a1.5,1.5,0,0,1-1.309-.759v2.651ZM74.246,14.9a.915.915,0,0,0-.77.483v1.782a.952.952,0,0,0,.77.5c.583,0,.9-.561.9-1.386S74.829,14.9,74.246,14.9Z" fill="#0b79bf"/>
      <path d="M77.787,13.626h1.595v.682A1.856,1.856,0,0,1,80.8,13.5v1.54a1.371,1.371,0,0,0-.34-.044,1.408,1.408,0,0,0-1.079.527V18.94H77.787Z" fill="#0b79bf"/>
      <path d="M81.582,12.031a.919.919,0,1,1,.924.925A.922.922,0,0,1,81.582,12.031Zm.121,1.595H83.3V18.94H81.7Z" fill="#0b79bf"/>
      <path d="M84.585,11.6h1.6V18.94h-1.6Z" fill="#0b79bf"/>
      <path d="M89.886,17.509c2.817-2.53,3.246-2.959,3.246-3.663a.8.8,0,0,0-.88-.781,1.979,1.979,0,0,0-1.562.781l-1.035-1.133A3.337,3.337,0,0,1,92.3,11.492a2.364,2.364,0,0,1,2.629,2.332c0,1.056-.649,1.926-2.464,3.565H94.98V18.94H89.886Z" fill="#0b79bf"/>
      <path d="M98.6,11.492c1.881,0,2.739,1.628,2.739,3.785s-.858,3.8-2.739,3.8-2.751-1.651-2.751-3.795S96.717,11.492,98.6,11.492Zm0,1.573c-.715,0-.947.8-.947,2.212s.232,2.222.947,2.222.935-.826.935-2.222S99.3,13.065,98.6,13.065Z" fill="#0b79bf"/>
      <path d="M105,16.552l-1.2,2.388h-2.036l2.124-3.752-2-3.586h2.036L105,13.846l1.067-2.244h2.046l-1.991,3.575,2.123,3.763h-2.035Z" fill="#0b79bf"/>
      <path d="M111.557,16.552l-1.2,2.388h-2.036l2.124-3.752-2-3.586h2.036l1.078,2.244,1.067-2.244h2.047l-1.992,3.575L114.8,18.94h-2.035Z" fill="#0b79bf"/>
      <path d="M119.818,14.715V18.94h-1.772V11.6h1.815l2.113,4.016V11.6h1.76V18.94h-1.683Z" fill="#0b79bf"/>
      <path d="M127.859,18.423a1.784,1.784,0,0,1-1.4.649,1.651,1.651,0,0,1-1.662-1.76,1.576,1.576,0,0,1,1.662-1.694,1.754,1.754,0,0,1,1.4.6v-.615c0-.495-.341-.825-.936-.825a2.024,2.024,0,0,0-1.309.55l-.561-1.068a3.307,3.307,0,0,1,2.179-.769c1.21,0,2.211.516,2.211,1.947v3.5h-1.584Zm0-1.353a.869.869,0,0,0-.77-.418.688.688,0,1,0,0,1.375.873.873,0,0,0,.77-.418Z" fill="#0b79bf"/>
      <path d="M130.993,17.565V15.012h-.671V13.626h.671V12.174h1.6v1.452h.858v1.386h-.858v2.156c0,.309.121.5.363.5a.544.544,0,0,0,.363-.122l.286,1.233a1.779,1.779,0,0,1-1.1.3A1.327,1.327,0,0,1,130.993,17.565Z" fill="#0b79bf"/>
      <path d="M137.462,18.3a1.982,1.982,0,0,1-1.574.77,1.306,1.306,0,0,1-1.463-1.442v-4h1.6v3.367c0,.484.219.671.615.671a.985.985,0,0,0,.826-.55V13.626h1.584V18.94h-1.584Z" fill="#0b79bf"/>
      <path d="M140.343,13.626h1.6v.682a1.855,1.855,0,0,1,1.419-.813v1.54a1.38,1.38,0,0,0-.341-.044,1.4,1.4,0,0,0-1.078.527V18.94h-1.6Z" fill="#0b79bf"/>
      <path d="M147.031,18.423a1.784,1.784,0,0,1-1.4.649,1.65,1.65,0,0,1-1.661-1.76,1.575,1.575,0,0,1,1.661-1.694,1.753,1.753,0,0,1,1.4.6v-.615a.819.819,0,0,0-.935-.825,2.022,2.022,0,0,0-1.309.55l-.561-1.068A3.3,3.3,0,0,1,146.4,13.5c1.21,0,2.211.516,2.211,1.947v3.5h-1.584Zm0-1.353a.869.869,0,0,0-.77-.418.688.688,0,1,0,0,1.375.873.873,0,0,0,.77-.418Z" fill="#0b79bf"/>
      <path d="M149.9,11.6h1.6V18.94h-1.6Z" fill="#0b79bf"/>
      <path d="M158.273,11.481a2.666,2.666,0,0,1,2.563,1.793l-1.452.66a1.22,1.22,0,0,0-1.111-.88c-.825,0-1.419.759-1.419,2.223s.594,2.222,1.419,2.222a1.4,1.4,0,0,0,.99-.352v-.825h-1.21V14.8h2.871v3.048a3.382,3.382,0,0,1-2.651,1.221c-1.948,0-3.235-1.507-3.235-3.795S156.325,11.481,158.273,11.481Z" fill="#0b79bf"/>
      <path d="M164.873,18.423a1.784,1.784,0,0,1-1.4.649,1.65,1.65,0,0,1-1.661-1.76,1.575,1.575,0,0,1,1.661-1.694,1.753,1.753,0,0,1,1.4.6v-.615a.819.819,0,0,0-.935-.825,2.022,2.022,0,0,0-1.309.55l-.561-1.068a3.3,3.3,0,0,1,2.178-.769c1.21,0,2.211.516,2.211,1.947v3.5h-1.584Zm0-1.353a.869.869,0,0,0-.77-.418.688.688,0,1,0,0,1.375.873.873,0,0,0,.77-.418Z" fill="#0b79bf"/>
      <path d="M167.985,17.224a2.56,2.56,0,0,0,1.508.627c.44,0,.66-.165.66-.43s-.33-.384-.792-.5c-.759-.209-1.827-.473-1.827-1.749,0-.892.716-1.672,2.069-1.672a3.177,3.177,0,0,1,1.958.671l-.616,1.066a2,2,0,0,0-1.331-.527c-.341,0-.583.142-.583.374s.286.351.748.472c.781.209,1.892.495,1.892,1.805,0,1-.836,1.716-2.145,1.716a3.153,3.153,0,0,1-2.179-.759Z" fill="#0b79bf"/>
      <path d="M175.2,11.6H177v4.741c0,.738.352,1.166,1.056,1.166s1.045-.428,1.045-1.166V11.6h1.793v4.731a2.846,2.846,0,0,1-5.688,0Z" fill="#0b79bf"/>
      <path d="M182.472,17.224a2.554,2.554,0,0,0,1.507.627c.44,0,.66-.165.66-.43s-.33-.384-.792-.5c-.759-.209-1.826-.473-1.826-1.749,0-.892.715-1.672,2.068-1.672a3.183,3.183,0,0,1,1.959.671l-.617,1.066a2,2,0,0,0-1.331-.527c-.341,0-.583.142-.583.374s.286.351.748.472c.781.209,1.892.495,1.892,1.805,0,1-.836,1.716-2.145,1.716a3.152,3.152,0,0,1-2.178-.759Z" fill="#0b79bf"/>
      <path d="M189.336,13.5c1.5,0,2.377,1.154,2.377,2.86v.439h-3.268a1.088,1.088,0,0,0,1.166,1.024,1.58,1.58,0,0,0,1.089-.462l.7.957a2.822,2.822,0,0,1-1.98.759,2.535,2.535,0,0,1-2.574-2.794A2.542,2.542,0,0,1,189.336,13.5Zm-.9,2.232h1.76c-.021-.429-.22-.978-.88-.978C188.676,14.749,188.467,15.3,188.434,15.727Z" fill="#0b79bf"/>
    </g>
    <g>
      <path d="M271.85,15.277c0-2.245,1.243-3.8,3.2-3.8a2.682,2.682,0,0,1,2.629,1.925l-1.463.628a1.245,1.245,0,0,0-1.166-.98c-.869,0-1.387.935-1.387,2.223s.518,2.222,1.387,2.222a1.268,1.268,0,0,0,1.166-1.056l1.474.627a2.734,2.734,0,0,1-2.64,2C273.093,19.072,271.85,17.509,271.85,15.277Z" fill="#0b79bf"/>
      <path d="M278.329,16.278a2.537,2.537,0,1,1,5.05,0,2.538,2.538,0,1,1-5.05,0Zm3.41,0c0-.771-.274-1.375-.89-1.375s-.881.6-.881,1.375.275,1.386.881,1.386S281.739,17.059,281.739,16.278Z" fill="#0b79bf"/>
      <path d="M284.632,17.224a2.554,2.554,0,0,0,1.507.627c.44,0,.66-.165.66-.43s-.33-.384-.792-.5c-.759-.209-1.826-.473-1.826-1.749,0-.892.715-1.672,2.068-1.672a3.177,3.177,0,0,1,1.958.671l-.616,1.066a2,2,0,0,0-1.331-.527c-.341,0-.583.142-.583.374s.286.351.748.472c.781.209,1.893.495,1.893,1.805,0,1-.836,1.716-2.146,1.716a3.154,3.154,0,0,1-2.179-.759Z" fill="#0b79bf"/>
      <path d="M289.549,17.565V15.012h-.671V13.626h.671V12.174h1.6v1.452H292v1.386h-.858v2.156c0,.309.121.5.363.5a.544.544,0,0,0,.363-.122l.286,1.233a1.779,1.779,0,0,1-1.1.3A1.326,1.326,0,0,1,289.549,17.565Z" fill="#0b79bf"/>
      <path d="M295.488,20.964V13.626h1.6v.627a1.509,1.509,0,0,1,1.309-.758c1.2,0,1.991,1.011,1.991,2.783,0,1.749-.792,2.794-1.991,2.794a1.5,1.5,0,0,1-1.309-.759v2.651Zm2.366-6.061a.914.914,0,0,0-.77.483v1.782a.95.95,0,0,0,.77.5c.583,0,.9-.561.9-1.386S298.437,14.9,297.854,14.9Z" fill="#0b79bf"/>
      <path d="M303.607,13.5c1.5,0,2.377,1.154,2.377,2.86v.439h-3.268a1.088,1.088,0,0,0,1.166,1.024,1.58,1.58,0,0,0,1.089-.462l.7.957a2.822,2.822,0,0,1-1.98.759,2.535,2.535,0,0,1-2.575-2.794A2.542,2.542,0,0,1,303.607,13.5Zm-.9,2.232h1.76c-.022-.429-.22-.978-.88-.978C302.946,14.749,302.737,15.3,302.705,15.727Z" fill="#0b79bf"/>
      <path d="M306.95,13.626h1.6v.682a1.853,1.853,0,0,1,1.419-.813v1.54a1.38,1.38,0,0,0-.341-.044,1.406,1.406,0,0,0-1.078.527V18.94h-1.6Z" fill="#0b79bf"/>
      <path d="M316.41,18.313a1.566,1.566,0,0,1-1.32.759c-1.188,0-1.991-1.012-1.991-2.794,0-1.717.792-2.783,1.991-2.783a1.54,1.54,0,0,1,1.32.758V11.6H318V18.94H316.41Zm0-2.927a.972.972,0,0,0-.781-.483c-.583,0-.9.56-.9,1.375s.318,1.386.9,1.386a.985.985,0,0,0,.781-.5Z" fill="#0b79bf"/>
      <path d="M322.053,18.423a1.783,1.783,0,0,1-1.4.649A1.65,1.65,0,0,1,319,17.312a1.575,1.575,0,0,1,1.661-1.694,1.753,1.753,0,0,1,1.4.6v-.615a.819.819,0,0,0-.935-.825,2.022,2.022,0,0,0-1.309.55l-.561-1.068a3.3,3.3,0,0,1,2.178-.769c1.211,0,2.212.516,2.212,1.947v3.5h-1.585Zm0-1.353a.868.868,0,0,0-.77-.418.688.688,0,1,0,0,1.375.872.872,0,0,0,.77-.418Z" fill="#0b79bf"/>
      <path d="M325.463,19.688c.275,0,.473-.088.55-.308l.121-.341-1.8-5.413h1.683l.935,3.4.957-3.4h1.683l-2.057,6.106a1.773,1.773,0,0,1-1.947,1.364,2.847,2.847,0,0,1-.693-.088l.22-1.4A.711.711,0,0,0,325.463,19.688Z" fill="#0b79bf"/>
      <path d="M331.2,13.549a.985.985,0,1,1-.99.979A1,1,0,0,1,331.2,13.549Zm0,3.554a.979.979,0,1,1-.99.979A1,1,0,0,1,331.2,17.1Z" fill="#0b79bf"/>
    </g>
    <g>
      <path d="M407.523,14.243l-1.5,4.7h-.759l-1.475-4.7v4.7h-1.749V11.6h2.365l1.243,4.016,1.254-4.016h2.344V18.94h-1.727Z" fill="#0b79bf"/>
      <path d="M412.846,13.5a2.238,2.238,0,0,1,1.782.725l-.769,1.089a1.027,1.027,0,0,0-.826-.406c-.649,0-1.09.55-1.09,1.375s.441,1.386,1.09,1.386a1.011,1.011,0,0,0,.826-.418l.769,1.1a2.242,2.242,0,0,1-1.782.726,2.55,2.55,0,0,1-2.53-2.794A2.54,2.54,0,0,1,412.846,13.5Z" fill="#0b79bf"/>
      <path d="M415.793,15.012h-.682V13.626h.682v-.319a1.638,1.638,0,0,1,1.706-1.815,2.247,2.247,0,0,1,.957.187l-.264,1.177a.631.631,0,0,0-.319-.088c-.3,0-.484.2-.484.562v.3h.858v1.386h-.858V18.94h-1.6Z" fill="#0b79bf"/>
      <path d="M421.624,20.964V13.626h1.595v.627a1.51,1.51,0,0,1,1.309-.758c1.2,0,1.992,1.011,1.992,2.783,0,1.749-.792,2.794-1.992,2.794a1.5,1.5,0,0,1-1.309-.759v2.651Zm2.365-6.061a.915.915,0,0,0-.77.483v1.782a.952.952,0,0,0,.77.5c.583,0,.9-.561.9-1.386S424.572,14.9,423.989,14.9Z" fill="#0b79bf"/>
      <path d="M429.741,13.5c1.5,0,2.377,1.154,2.377,2.86v.439h-3.267a1.087,1.087,0,0,0,1.166,1.024,1.582,1.582,0,0,0,1.089-.462l.7.957a2.823,2.823,0,0,1-1.981.759,2.535,2.535,0,0,1-2.574-2.794A2.542,2.542,0,0,1,429.741,13.5Zm-.9,2.232H430.6c-.023-.429-.22-.978-.88-.978C429.081,14.749,428.872,15.3,428.839,15.727Z" fill="#0b79bf"/>
      <path d="M433.086,13.626h1.595v.682a1.855,1.855,0,0,1,1.42-.813v1.54a1.363,1.363,0,0,0-1.42.483V18.94h-1.595Z" fill="#0b79bf"/>
      <path d="M442.546,18.313a1.566,1.566,0,0,1-1.32.759c-1.188,0-1.991-1.012-1.991-2.794,0-1.717.792-2.783,1.991-2.783a1.54,1.54,0,0,1,1.32.758V11.6h1.584V18.94h-1.584Zm0-2.927a.972.972,0,0,0-.781-.483c-.583,0-.9.56-.9,1.375s.32,1.386.9,1.386a.985.985,0,0,0,.781-.5Z" fill="#0b79bf"/>
      <path d="M448.189,18.423a1.788,1.788,0,0,1-1.4.649,1.65,1.65,0,0,1-1.661-1.76,1.575,1.575,0,0,1,1.661-1.694,1.756,1.756,0,0,1,1.4.6v-.615a.82.82,0,0,0-.936-.825,2.022,2.022,0,0,0-1.309.55l-.561-1.068a3.307,3.307,0,0,1,2.179-.769c1.21,0,2.211.516,2.211,1.947v3.5h-1.584Zm0-1.353a.871.871,0,0,0-.771-.418.688.688,0,1,0,0,1.375.875.875,0,0,0,.771-.418Z" fill="#0b79bf"/>
      <path d="M451.6,19.688a.512.512,0,0,0,.55-.308l.121-.341-1.805-5.413h1.684l.935,3.4.957-3.4h1.683l-2.057,6.106A1.773,1.773,0,0,1,451.72,21.1a2.841,2.841,0,0,1-.693-.088l.219-1.4A.715.715,0,0,0,451.6,19.688Z" fill="#0b79bf"/>
      <path d="M457.34,13.549a.985.985,0,1,1-.99.979A1,1,0,0,1,457.34,13.549Zm0,3.554a.979.979,0,1,1-.99.979A1,1,0,0,1,457.34,17.1Z" fill="#0b79bf"/>
    </g>
    <g>
      <path d="M68.145,30.424l-1.7,1.735-1.564-1.632,3.638-3.621H70.9V38.244H68.145Z" fill="#0b79bf"/>
      <path d="M75.506,30.424l-1.7,1.735-1.564-1.632,3.638-3.621h2.379V38.244H75.506Z" fill="#0b79bf"/>
      <path d="M81.761,35.405a1.513,1.513,0,1,1-1.529,1.512A1.54,1.54,0,0,1,81.761,35.405Z" fill="#0b79bf"/>
      <path d="M89.037,26.736c2.906,0,4.233,2.515,4.233,5.847,0,3.315-1.327,5.865-4.233,5.865s-4.25-2.55-4.25-5.865C84.787,29.251,86.13,26.736,89.037,26.736Zm0,2.431c-1.105,0-1.462,1.241-1.462,3.416,0,2.159.357,3.434,1.462,3.434,1.088,0,1.445-1.275,1.445-3.434C90.482,30.408,90.125,29.167,89.037,29.167Z" fill="#0b79bf"/>
      <path d="M107.3,30.986l-2.312,7.258H103.81l-2.278-7.258v7.258h-2.7V26.906h3.655l1.921,6.2,1.937-6.2h3.621V38.244H107.3Z" fill="#0b79bf"/>
      <path d="M115.523,29.83a3.456,3.456,0,0,1,2.753,1.122l-1.19,1.682a1.589,1.589,0,0,0-1.275-.629c-1,0-1.682.85-1.682,2.125s.679,2.142,1.682,2.142a1.553,1.553,0,0,0,1.275-.647l1.19,1.7a3.462,3.462,0,0,1-2.753,1.122c-2.312,0-3.91-1.768-3.91-4.318S113.211,29.83,115.523,29.83Z" fill="#0b79bf"/>
      <path d="M120.078,32.175h-1.053V30.034h1.053v-.493a2.53,2.53,0,0,1,2.635-2.8,3.458,3.458,0,0,1,1.479.289l-.408,1.818a.974.974,0,0,0-.493-.135c-.459,0-.748.305-.748.867v.459h1.326v2.141h-1.326v6.069h-2.465Z" fill="#0b79bf"/>
    </g>
    <g>
      <path d="M277,38.363v1.581h-1.785v-1.53a5.357,5.357,0,0,1-3.366-1.445l1.309-2.108a3.807,3.807,0,0,0,2.754,1.207c.816,0,1.309-.425,1.309-.986,0-.68-.663-1-1.614-1.36-1.462-.527-3.418-1.156-3.418-3.553a3.409,3.409,0,0,1,3.026-3.365V25.189H277V26.77a5.3,5.3,0,0,1,2.805,1.24l-1.258,2.04a3.634,3.634,0,0,0-2.4-.934c-.783,0-1.157.39-1.157.9,0,.612.646.918,1.632,1.276,1.444.526,3.383,1.24,3.383,3.535A3.421,3.421,0,0,1,277,38.363Z" fill="#0b79bf"/>
      <path d="M281.418,36.034c4.352-3.909,5.015-4.573,5.015-5.66a1.234,1.234,0,0,0-1.361-1.207,3.054,3.054,0,0,0-2.413,1.207l-1.6-1.751a5.15,5.15,0,0,1,4.08-1.887c2.4,0,4.062,1.428,4.062,3.6,0,1.632-1,2.975-3.807,5.508h3.892v2.4h-7.87Z" fill="#0b79bf"/>
      <path d="M292.451,35.405a1.513,1.513,0,1,1-1.53,1.512A1.539,1.539,0,0,1,292.451,35.405Z" fill="#0b79bf"/>
      <path d="M300.372,26.736a4.366,4.366,0,0,1,3.027,1.139l-1.276,2a2.129,2.129,0,0,0-1.717-.764c-1.223,0-2.141,1.24-2.141,2.889v.12a2.75,2.75,0,0,1,2.362-1.327c1.718,0,3.264,1.292,3.264,3.706a3.785,3.785,0,0,1-3.944,3.944c-3.144,0-4.47-2.635-4.47-5.848C295.477,29.031,297.347,26.736,300.372,26.736Zm-.662,6.357a1.86,1.86,0,0,0-1.462.884c.068.969.442,2.091,1.564,2.091a1.495,1.495,0,0,0-.1-2.975Z" fill="#0b79bf"/>
      <path d="M306.476,34.929a3.358,3.358,0,0,0,2.448,1.139c1.088,0,1.563-.544,1.563-1.224,0-.816-.594-1.156-1.666-1.156-.39,0-.952.018-1.138.034V31.308c.186.018.8.018,1.07.018.986,0,1.581-.358,1.581-1.072,0-.748-.611-1.138-1.529-1.138a3.057,3.057,0,0,0-2.261,1.053l-1.5-1.581a4.783,4.783,0,0,1,3.994-1.852c2.448,0,3.978,1.1,3.978,3.094a2.666,2.666,0,0,1-2.193,2.566,2.728,2.728,0,0,1,2.363,2.7c0,1.988-1.649,3.349-4.148,3.349a5.142,5.142,0,0,1-4.147-1.8Z" fill="#0b79bf"/>
    </g>
    <g>
      <path d="M406.137,26.736c2.906,0,4.232,2.515,4.232,5.847,0,3.315-1.326,5.865-4.232,5.865s-4.25-2.55-4.25-5.865C401.887,29.251,403.23,26.736,406.137,26.736Zm0,2.431c-1.106,0-1.462,1.241-1.462,3.416,0,2.159.356,3.434,1.462,3.434,1.088,0,1.444-1.275,1.444-3.434C407.581,30.408,407.225,29.167,406.137,29.167Z" fill="#0b79bf"/>
      <path d="M413.09,35.405a1.513,1.513,0,1,1-1.53,1.512A1.539,1.539,0,0,1,413.09,35.405Z" fill="#0b79bf"/>
      <path d="M417.543,34.929a3.361,3.361,0,0,0,2.448,1.139c1.088,0,1.564-.544,1.564-1.224,0-.816-.6-1.156-1.666-1.156-.391,0-.951.018-1.139.034V31.308c.188.018.8.018,1.071.018.986,0,1.581-.358,1.581-1.072,0-.748-.612-1.138-1.53-1.138a3.06,3.06,0,0,0-2.261,1.053l-1.5-1.581a4.785,4.785,0,0,1,4-1.852c2.448,0,3.978,1.1,3.978,3.094A2.666,2.666,0,0,1,421.9,32.4a2.728,2.728,0,0,1,2.363,2.7c0,1.988-1.649,3.349-4.148,3.349a5.143,5.143,0,0,1-4.148-1.8Z" fill="#0b79bf"/>
      <path d="M427.234,34.963a3.147,3.147,0,0,0,2.362,1.1,1.436,1.436,0,0,0,1.547-1.479A1.333,1.333,0,0,0,429.7,33.11a2.158,2.158,0,0,0-1.768.884l-1.972-.476V26.906h7.31v2.362h-4.607V31.7a2.855,2.855,0,0,1,2.108-.9c1.751,0,3.178,1.361,3.178,3.689,0,2.363-1.631,3.961-4.266,3.961a4.947,4.947,0,0,1-4.045-1.735Z" fill="#0b79bf"/>
      <path d="M436.839,34.963a3.148,3.148,0,0,0,2.362,1.1,1.436,1.436,0,0,0,1.547-1.479A1.333,1.333,0,0,0,439.3,33.11a2.159,2.159,0,0,0-1.769.884l-1.971-.476V26.906h7.309v2.362h-4.606V31.7a2.853,2.853,0,0,1,2.107-.9c1.751,0,3.179,1.361,3.179,3.689,0,2.363-1.632,3.961-4.267,3.961a4.947,4.947,0,0,1-4.045-1.735Z" fill="#0b79bf"/>
    </g>
    <path d="M381.017,17.071c-.714,1.159-6.172,11.169-6.172,15.371,0,3.419,2.144,5.24,4.3,6.515-.687-.89-2.419-2.887-2.419-5.219,0-5.355,4.954-11.453,4.954-11.453-.006-.028-1.32,7.292,1.806,10.486,1.758,1.8.186,5.314-.488,6.186,1.9-1.332,4.219-2.6,4.192-6.515S381.526,18.118,381.017,17.071Z" fill="#0b79bf"/>
    <g>
      <polygon points="42.765 29.22 34.363 21.898 25.963 29.22 25.963 38.351 32.661 38.351 32.774 33.469 36.237 33.469 36.123 38.351 42.765 38.351 42.765 29.22" fill="#0b79bf"/>
      <polygon points="45.748 27.521 34.363 17.677 22.98 27.521 24.177 28.906 34.363 20.097 44.55 28.906 45.748 27.521 45.748 27.521" fill="#0b79bf"/>
    </g>
    <g>
      <path d="M261.6,21.5a1.624,1.624,0,0,1,.064.449V35.8a1.645,1.645,0,0,1-1.644,1.644H245.22a1.615,1.615,0,0,1-.22-.014,1.644,1.644,0,0,0,1.581,1.194h14.794a1.645,1.645,0,0,0,1.644-1.644V23.124A1.643,1.643,0,0,0,261.6,21.5Z" fill="#0b79bf"/>
      <g>
        <path d="M254.005,21.746h.411c.454,0,.822-.5.822-1.125V18.529c0-.622-.368-1.127-.822-1.127h-.411c-.453,0-.822.5-.822,1.127v2.092C253.183,21.242,253.552,21.746,254.005,21.746Z" fill="#0b79bf"/>
        <path d="M248.6,21.746h.411c.454,0,.822-.5.822-1.125V18.529c0-.622-.368-1.127-.822-1.127H248.6c-.453,0-.822.5-.822,1.127v2.092C247.778,21.242,248.146,21.746,248.6,21.746Z" fill="#0b79bf"/>
        <path d="M258.943,19.575H256.3V21.1a1.645,1.645,0,0,1-1.645,1.645h-.822a1.644,1.644,0,0,1-1.643-1.645V19.575H250.9V21.1a1.645,1.645,0,0,1-1.645,1.645h-.822a1.644,1.644,0,0,1-1.644-1.645V19.575h-2.64a1.643,1.643,0,0,0-1.643,1.643V35.075a1.645,1.645,0,0,0,1.643,1.645h14.795a1.645,1.645,0,0,0,1.644-1.645V21.218A1.643,1.643,0,0,0,258.943,19.575Zm.362,15.6H243.786V24.269h15.519V35.176Z" fill="#0b79bf"/>
        <path d="M248.471,32.3a.908.908,0,0,1-.648-.239,1.591,1.591,0,0,1-.377-.862l-2.056.273a3.183,3.183,0,0,0,.579,1.149,2.375,2.375,0,0,0,.959.7,4.352,4.352,0,0,0,1.595.237,3.713,3.713,0,0,0,1.672-.321,2.245,2.245,0,0,0,.974-.914,2.454,2.454,0,0,0,.339-1.241,1.8,1.8,0,0,0-.2-.886,1.608,1.608,0,0,0-.574-.6,2.312,2.312,0,0,0-.656-.248,2.227,2.227,0,0,0,.793-.682,1.519,1.519,0,0,0,.263-.869,1.7,1.7,0,0,0-.646-1.36,3.265,3.265,0,0,0-2.1-.541,3.31,3.31,0,0,0-1.953.5,2.442,2.442,0,0,0-.932,1.425l1.945.349a1.338,1.338,0,0,1,.308-.771.813.813,0,0,1,.591-.221.751.751,0,0,1,.556.2.732.732,0,0,1,.2.541.813.813,0,0,1-.27.611.939.939,0,0,1-.674.258,1.941,1.941,0,0,1-.268-.025l-.106,1.47a2.6,2.6,0,0,1,.667-.121.939.939,0,0,1,.72.283,1.121,1.121,0,0,1,.265.8,1.162,1.162,0,0,1-.275.809A.9.9,0,0,1,248.471,32.3Z" fill="#0b79bf"/>
        <path d="M254.933,28.491v4.937h2.081V25.893h-1.7a3.324,3.324,0,0,1-.909,1.173,5.011,5.011,0,0,1-1.631.813v1.688a7.631,7.631,0,0,0,1.185-.454A6.387,6.387,0,0,0,254.933,28.491Z" fill="#0b79bf"/>
      </g>
    </g>
  </g>
</svg>
