<svg xmlns="http://www.w3.org/2000/svg" width="383.638" height="213.887" viewBox="0 0 383.638 213.887">
  <g>
    <path d="M0,0H383.638a0,0,0,0,1,0,0V213.887a0,0,0,0,1,0,0H20a20,20,0,0,1-20-20V0A0,0,0,0,1,0,0Z" fill="#f2f0ec"/>
    <g>
      <path d="M20.7,12.383H18.734V10.449h6.132v1.934H22.918V19.6H20.7Z" fill="#0b79bf"/>
      <path d="M24.8,16.28c0-1.853,1.084-3.471,3.141-3.471a3.168,3.168,0,0,1,3.155,3.471,3.179,3.179,0,0,1-3.155,3.484C25.88,19.764,24.8,18.131,24.8,16.28Zm4.252,0c0-.961-.343-1.715-1.111-1.715s-1.1.754-1.1,1.715.342,1.728,1.1,1.728S29.048,17.253,29.048,16.28Z" fill="#0b79bf"/>
      <path d="M32.681,17.884V14.7h-.837V12.973h.837V11.162H34.67v1.811h1.07V14.7H34.67V17.39c0,.385.151.618.452.618a.685.685,0,0,0,.453-.151l.357,1.536a2.217,2.217,0,0,1-1.372.371A1.654,1.654,0,0,1,32.681,17.884Z" fill="#0b79bf"/>
      <path d="M40.416,18.954a2.225,2.225,0,0,1-1.742.81,2.058,2.058,0,0,1-2.072-2.2,1.965,1.965,0,0,1,2.072-2.113,2.189,2.189,0,0,1,1.742.754v-.767a1.023,1.023,0,0,0-1.166-1.03,2.525,2.525,0,0,0-1.633.687l-.7-1.331a4.12,4.12,0,0,1,2.716-.96c1.509,0,2.757.644,2.757,2.428V19.6H40.416Zm0-1.687a1.086,1.086,0,0,0-.96-.522.858.858,0,1,0,0,1.715,1.088,1.088,0,0,0,.96-.521Z" fill="#0b79bf"/>
      <path d="M43.993,10.449h1.99V19.6h-1.99Z" fill="#0b79bf"/>
      <path d="M52.99,14.331V19.6H50.781v-9.15h2.264l2.633,5.007V10.449h2.2V19.6h-2.1Z" fill="#0b79bf"/>
      <path d="M63.014,18.954a2.222,2.222,0,0,1-1.742.81,2.058,2.058,0,0,1-2.071-2.2,1.964,1.964,0,0,1,2.071-2.113,2.188,2.188,0,0,1,1.742.754v-.767a1.022,1.022,0,0,0-1.166-1.03,2.525,2.525,0,0,0-1.632.687l-.7-1.331a4.125,4.125,0,0,1,2.717-.96c1.508,0,2.757.644,2.757,2.428V19.6H63.014Zm0-1.687a1.086,1.086,0,0,0-.96-.522.858.858,0,1,0,0,1.715,1.088,1.088,0,0,0,.96-.521Z" fill="#0b79bf"/>
      <path d="M66.922,17.884V14.7h-.837V12.973h.837V11.162h1.989v1.811h1.07V14.7h-1.07V17.39c0,.385.151.618.453.618a.689.689,0,0,0,.453-.151l.356,1.536a2.217,2.217,0,0,1-1.372.371A1.655,1.655,0,0,1,66.922,17.884Z" fill="#0b79bf"/>
      <path d="M74.986,18.8a2.471,2.471,0,0,1-1.961.961,1.629,1.629,0,0,1-1.825-1.8V12.973h1.989v4.2c0,.6.275.837.768.837a1.228,1.228,0,0,0,1.029-.686V12.973h1.976V19.6H74.986Z" fill="#0b79bf"/>
      <path d="M78.577,12.973h1.99v.85a2.309,2.309,0,0,1,1.769-1.014v1.92a1.695,1.695,0,0,0-1.769.6V19.6h-1.99Z" fill="#0b79bf"/>
      <path d="M86.916,18.954a2.224,2.224,0,0,1-1.742.81,2.058,2.058,0,0,1-2.071-2.2,1.964,1.964,0,0,1,2.071-2.113,2.189,2.189,0,0,1,1.742.754v-.767a1.022,1.022,0,0,0-1.166-1.03,2.522,2.522,0,0,0-1.632.687l-.7-1.331a4.124,4.124,0,0,1,2.716-.96c1.509,0,2.758.644,2.758,2.428V19.6H86.916Zm0-1.687a1.086,1.086,0,0,0-.96-.522.858.858,0,1,0,0,1.715,1.088,1.088,0,0,0,.96-.521Z" fill="#0b79bf"/>
      <path d="M90.494,10.449h1.989V19.6H90.494Z" fill="#0b79bf"/>
      <path d="M100.931,10.3a3.324,3.324,0,0,1,3.2,2.236l-1.811.824a1.521,1.521,0,0,0-1.385-1.1c-1.029,0-1.77.946-1.77,2.771s.741,2.771,1.77,2.771a1.744,1.744,0,0,0,1.234-.439V16.334h-1.509V14.441h3.581v3.8a4.215,4.215,0,0,1-3.306,1.524c-2.428,0-4.033-1.88-4.033-4.733S98.5,10.3,100.931,10.3Z" fill="#0b79bf"/>
      <path d="M109.158,18.954a2.222,2.222,0,0,1-1.742.81,2.058,2.058,0,0,1-2.071-2.2,1.964,1.964,0,0,1,2.071-2.113,2.188,2.188,0,0,1,1.742.754v-.767a1.022,1.022,0,0,0-1.166-1.03,2.525,2.525,0,0,0-1.632.687l-.7-1.331a4.125,4.125,0,0,1,2.717-.96c1.508,0,2.757.644,2.757,2.428V19.6h-1.976Zm0-1.687a1.085,1.085,0,0,0-.96-.522.858.858,0,1,0,0,1.715,1.086,1.086,0,0,0,.96-.521Z" fill="#0b79bf"/>
      <path d="M113.038,17.459a3.176,3.176,0,0,0,1.879.781c.549,0,.823-.2.823-.534s-.411-.48-.987-.632c-.947-.26-2.277-.589-2.277-2.18,0-1.112.891-2.085,2.578-2.085a3.968,3.968,0,0,1,2.442.837l-.768,1.33a2.494,2.494,0,0,0-1.66-.658c-.425,0-.727.178-.727.466s.357.439.933.59c.974.26,2.36.617,2.36,2.249,0,1.249-1.043,2.141-2.675,2.141a3.935,3.935,0,0,1-2.717-.947Z" fill="#0b79bf"/>
      <path d="M122.034,10.449h2.236v5.913c0,.919.439,1.454,1.317,1.454s1.3-.535,1.3-1.454V10.449h2.236v5.9a3.548,3.548,0,0,1-7.092,0Z" fill="#0b79bf"/>
      <path d="M131.1,17.459a3.176,3.176,0,0,0,1.879.781c.549,0,.824-.2.824-.534s-.412-.48-.988-.632c-.947-.26-2.277-.589-2.277-2.18,0-1.112.891-2.085,2.578-2.085a3.966,3.966,0,0,1,2.442.837l-.768,1.33a2.494,2.494,0,0,0-1.66-.658c-.425,0-.727.178-.727.466s.357.439.933.59c.974.26,2.36.617,2.36,2.249,0,1.249-1.043,2.141-2.675,2.141a3.935,3.935,0,0,1-2.717-.947Z" fill="#0b79bf"/>
      <path d="M139.656,12.809c1.866,0,2.963,1.44,2.963,3.566v.549h-4.074A1.356,1.356,0,0,0,140,18.2a1.97,1.97,0,0,0,1.358-.576l.878,1.194a3.52,3.52,0,0,1-2.469.947,3.161,3.161,0,0,1-3.21-3.484A3.17,3.17,0,0,1,139.656,12.809Zm-1.125,2.784h2.195c-.028-.535-.274-1.221-1.1-1.221C138.833,14.372,138.572,15.058,138.531,15.593Z" fill="#0b79bf"/>
      <path d="M146.838,16.873a9.534,9.534,0,0,1,1.368-4.957l.639.37a11.088,11.088,0,0,0-.953,4.587,11,11,0,0,0,.953,4.576l-.639.381A9.529,9.529,0,0,1,146.838,16.873Z" fill="#0b79bf"/>
      <path d="M155.318,13.857l-1.9,5.742H153l-1.884-5.742V19.6h-1.065V12.118h1.469l1.693,5.16,1.716-5.16h1.447V19.6h-1.054Z" fill="#0b79bf"/>
      <path d="M160.1,14.047a1.909,1.909,0,0,1,1.6.73l-.5.65a1.191,1.191,0,0,0-1.009-.527c-.908,0-1.4.9-1.4,1.985s.494,2,1.4,2a1.219,1.219,0,0,0,1.009-.527l.5.65a1.878,1.878,0,0,1-1.6.73c-1.413,0-2.31-1.223-2.31-2.849S158.685,14.047,160.1,14.047Z" fill="#0b79bf"/>
      <path d="M163.117,15.023h-.706v-.841h.706V13.6a1.4,1.4,0,0,1,1.392-1.593,1.641,1.641,0,0,1,.762.168l-.213.74a.741.741,0,0,0-.348-.09c-.392,0-.628.282-.628.775v.583h.908v.841h-.908V19.6h-.965Z" fill="#0b79bf"/>
      <path d="M168.38,16.47h2.333v.83H168.38Z" fill="#0b79bf"/>
      <path d="M174.808,18.455V15.023h-.717v-.841h.717V12.7h.953v1.481h.909v.841h-.909v3.241c0,.382.135.617.427.617a.62.62,0,0,0,.459-.19l.247.717a1.24,1.24,0,0,1-.92.326C175.178,19.734,174.808,19.3,174.808,18.455Z" fill="#0b79bf"/>
      <path d="M180.888,15.808c0-.673-.314-.908-.818-.908a1.467,1.467,0,0,0-1.189.807V19.6h-.965V12.118h.965v2.816a2.037,2.037,0,0,1,1.581-.887c.942,0,1.391.483,1.391,1.458V19.6h-.965Z" fill="#0b79bf"/>
      <path d="M183.212,16.885c0-1.525.785-2.838,2.277-2.838s2.276,1.313,2.276,2.838-.785,2.849-2.276,2.849S183.212,18.41,183.212,16.885Zm3.555,0c0-1.032-.392-1.985-1.278-1.985s-1.268.953-1.268,1.985.393,2,1.268,2S186.767,17.928,186.767,16.885Z" fill="#0b79bf"/>
      <path d="M192.1,18.87a1.989,1.989,0,0,1-1.582.864c-.942,0-1.39-.483-1.39-1.458V14.182h.964v3.791c0,.673.315.908.819.908A1.461,1.461,0,0,0,192.1,18.1V14.182h.953V19.6H192.1Z" fill="#0b79bf"/>
      <path d="M194.712,18.286a1.992,1.992,0,0,0,1.447.673c.594,0,.964-.291.964-.751,0-.515-.5-.74-1.076-.965-.752-.28-1.615-.6-1.615-1.693a1.584,1.584,0,0,1,1.794-1.5,2.343,2.343,0,0,1,1.716.7l-.426.663a1.612,1.612,0,0,0-1.278-.583c-.539,0-.9.28-.9.672,0,.46.482.662,1.032.886.762.28,1.671.628,1.671,1.773a1.654,1.654,0,0,1-1.873,1.581,2.459,2.459,0,0,1-1.907-.763Z" fill="#0b79bf"/>
      <path d="M202.138,19.038a1.746,1.746,0,0,1-1.424.7,1.666,1.666,0,0,1-1.648-1.806,1.636,1.636,0,0,1,1.648-1.772,1.7,1.7,0,0,1,1.424.672v-.863a.987.987,0,0,0-1.076-1.1,1.842,1.842,0,0,0-1.357.639l-.393-.673a2.6,2.6,0,0,1,1.907-.785,1.659,1.659,0,0,1,1.884,1.806V19.6h-.965Zm0-1.548a1.236,1.236,0,0,0-1.087-.65,1.013,1.013,0,0,0-1.01,1.11,1.013,1.013,0,0,0,1.01,1.111,1.237,1.237,0,0,0,1.087-.651Z" fill="#0b79bf"/>
      <path d="M207.7,15.83c0-.683-.314-.93-.819-.93a1.45,1.45,0,0,0-1.188.807V19.6h-.965V14.182h.965v.752a2.014,2.014,0,0,1,1.57-.887c.942,0,1.39.517,1.39,1.47V19.6H207.7Z" fill="#0b79bf"/>
      <path d="M213.4,18.859a1.707,1.707,0,0,1-1.414.875c-1.21,0-1.962-1.111-1.962-2.838,0-1.694.74-2.849,1.962-2.849a1.65,1.65,0,0,1,1.414.887V12.118h.953V19.6H213.4Zm0-3.141a1.383,1.383,0,0,0-1.144-.818c-.83,0-1.234.885-1.234,2s.4,1.985,1.234,1.985a1.371,1.371,0,0,0,1.144-.808Z" fill="#0b79bf"/>
      <path d="M220.674,14.047a1.912,1.912,0,0,1,1.6.73l-.5.65a1.194,1.194,0,0,0-1.01-.527c-.908,0-1.4.9-1.4,1.985s.493,2,1.4,2a1.222,1.222,0,0,0,1.01-.527l.5.65a1.881,1.881,0,0,1-1.6.73c-1.414,0-2.31-1.223-2.31-2.849S219.26,14.047,220.674,14.047Z" fill="#0b79bf"/>
      <path d="M226.451,18.87a1.987,1.987,0,0,1-1.581.864c-.942,0-1.391-.483-1.391-1.458V14.182h.965v3.791c0,.673.314.908.818.908a1.46,1.46,0,0,0,1.189-.785V14.182h.954V19.6h-.954Z" fill="#0b79bf"/>
      <path d="M229.044,12.118h.965v2.816a1.618,1.618,0,0,1,1.4-.887c1.223,0,1.963,1.155,1.963,2.849,0,1.727-.74,2.838-1.963,2.838a1.671,1.671,0,0,1-1.4-.875v.74h-.965Zm2.1,6.763c.842,0,1.234-.875,1.234-1.985s-.392-2-1.234-2a1.373,1.373,0,0,0-1.132.83v2.343A1.369,1.369,0,0,0,231.141,18.881Z" fill="#0b79bf"/>
      <path d="M234.6,12.656a.634.634,0,0,1,.628-.627.626.626,0,0,1,.628.627.618.618,0,0,1-.628.618A.626.626,0,0,1,234.6,12.656Zm.146,1.526h.964V19.6h-.964Z" fill="#0b79bf"/>
      <path d="M239.377,14.047a1.912,1.912,0,0,1,1.6.73l-.5.65a1.193,1.193,0,0,0-1.009-.527c-.909,0-1.4.9-1.4,1.985s.493,2,1.4,2a1.22,1.22,0,0,0,1.009-.527l.5.65a1.881,1.881,0,0,1-1.6.73c-1.413,0-2.31-1.223-2.31-2.849S237.964,14.047,239.377,14.047Z" fill="#0b79bf"/>
      <path d="M245.032,15.023h-.707v-.841h.707V13.6a1.4,1.4,0,0,1,1.391-1.593,1.638,1.638,0,0,1,.762.168l-.213.74a.74.74,0,0,0-.347-.09c-.393,0-.628.282-.628.775v.583h.908v.841H246V19.6h-.965Z" fill="#0b79bf"/>
      <path d="M250.013,14.047c1.447,0,2.2,1.268,2.2,2.871v.28h-3.476c.045.988.56,1.739,1.491,1.739a1.649,1.649,0,0,0,1.245-.628l.494.583a2.4,2.4,0,0,1-1.829.842c-1.469,0-2.388-1.178-2.388-2.849C247.748,15.315,248.6,14.047,250.013,14.047Zm-1.29,2.468h2.546c-.011-.752-.347-1.671-1.267-1.671C249.105,14.844,248.757,15.785,248.723,16.515Z" fill="#0b79bf"/>
      <path d="M255.533,14.047c1.447,0,2.2,1.268,2.2,2.871v.28h-3.476c.045.988.561,1.739,1.491,1.739a1.649,1.649,0,0,0,1.245-.628l.494.583a2.4,2.4,0,0,1-1.829.842c-1.469,0-2.388-1.178-2.388-2.849C253.268,15.315,254.12,14.047,255.533,14.047Zm-1.29,2.468h2.546c-.011-.752-.347-1.671-1.267-1.671C254.625,14.844,254.277,15.785,254.243,16.515Z" fill="#0b79bf"/>
      <path d="M259.248,18.455V15.023h-.718v-.841h.718V12.7h.953v1.481h.908v.841H260.2v3.241c0,.382.134.617.426.617a.623.623,0,0,0,.46-.19l.247.717a1.242,1.242,0,0,1-.92.326C259.617,19.734,259.248,19.3,259.248,18.455Z" fill="#0b79bf"/>
      <path d="M261.862,12.286l.628-.37a9.528,9.528,0,0,1,0,9.914l-.628-.381a10.812,10.812,0,0,0,.965-4.576A10.9,10.9,0,0,0,261.862,12.286Z" fill="#0b79bf"/>
    </g>
    <g>
      <path d="M324.412,202.483h-1.846l-.225.936h-1.5l1.773-6.005h1.755l1.774,6.005h-1.5Zm-1.558-1.251h1.279l-.64-2.539Z" fill="#0b79bf"/>
      <path d="M326.3,200.421c0-1.836,1.016-3.1,2.62-3.1a2.195,2.195,0,0,1,2.151,1.575l-1.2.513a1.02,1.02,0,0,0-.954-.8c-.711,0-1.135.765-1.135,1.818s.424,1.818,1.135,1.818a1.037,1.037,0,0,0,.954-.864l1.206.514a2.24,2.24,0,0,1-2.16,1.639C327.317,203.528,326.3,202.249,326.3,200.421Z" fill="#0b79bf"/>
      <path d="M332.862,198.684h-1.287v-1.27H335.6v1.27h-1.277v4.735h-1.459Z" fill="#0b79bf"/>
      <path d="M336.444,197.414h1.467v3.88c0,.6.288.955.864.955s.856-.351.856-.955v-3.88H341.1v3.871a2.329,2.329,0,0,1-4.654,0Z" fill="#0b79bf"/>
      <path d="M345.076,202.483H343.23l-.225.936h-1.5l1.773-6.005h1.755l1.774,6.005h-1.5Zm-1.558-1.251H344.8l-.64-2.539Z" fill="#0b79bf"/>
      <path d="M347.405,197.414h1.459v4.736H350.8v1.269h-3.4Z" fill="#0b79bf"/>
    </g>
    <polygon points="355.65 203.419 365.904 203.419 360.777 195.156 355.65 203.419" fill="#0b79bf"/>
    <g>
      <path d="M21.034,183.973a1.025,1.025,0,0,0,.751.335.736.736,0,0,0,.788-.815V179.24h1.212v4.29a1.7,1.7,0,0,1-1.882,1.854,1.866,1.866,0,0,1-1.3-.461Z" fill="#2f2e2c"/>
      <path d="M27.252,184.841a1.433,1.433,0,0,1-1.149.543,1.354,1.354,0,0,1-1.348-1.447,1.308,1.308,0,0,1,1.348-1.412,1.389,1.389,0,0,1,1.149.515v-.579a.717.717,0,0,0-.8-.76,1.535,1.535,0,0,0-1.077.471l-.407-.742a2.479,2.479,0,0,1,1.683-.633c.95,0,1.7.425,1.7,1.547v2.932h-1.1Zm0-1.167a.842.842,0,0,0-.733-.425.7.7,0,0,0,0,1.4.819.819,0,0,0,.733-.417Z" fill="#2f2e2c"/>
      <path d="M31.968,182.4c0-.462-.209-.643-.571-.643a.988.988,0,0,0-.8.543v2.977H29.515v-4.37H30.6v.569a1.621,1.621,0,0,1,1.285-.678,1.062,1.062,0,0,1,1.167,1.194v3.285H31.968Z" fill="#2f2e2c"/>
    </g>
    <g>
      <path d="M47.665,179.24h3.457V180.3H48.878v1.385h2.181v1.049H48.878v2.543H47.665Z" fill="#2f2e2c"/>
      <path d="M53.82,180.8c1.2,0,1.882.977,1.882,2.334v.308H52.96a1.039,1.039,0,0,0,1.059,1.067,1.321,1.321,0,0,0,.95-.425l.5.652a2.134,2.134,0,0,1-1.566.651,2.316,2.316,0,0,1-.081-4.587Zm-.86,1.9h1.692c-.018-.453-.217-1.023-.851-1.023C53.2,181.674,52.978,182.244,52.96,182.7Z" fill="#2f2e2c"/>
      <path d="M56.617,179.24H57.7v2.217a1.266,1.266,0,0,1,1.1-.66c.987,0,1.62.9,1.62,2.3,0,1.43-.642,2.289-1.62,2.289a1.315,1.315,0,0,1-1.1-.66v.552H56.617Zm1.846,5.185c.551,0,.841-.57.841-1.33s-.29-1.339-.841-1.339a.934.934,0,0,0-.761.525v1.628A.926.926,0,0,0,58.463,184.425Z" fill="#2f2e2c"/>
    </g>
    <g>
      <path d="M81.654,181.131,80.3,185.276h-.5l-1.339-4.145v4.145h-1.2V179.24h1.629l1.167,3.62,1.177-3.62h1.619v6.036H81.654Z" fill="#2f2e2c"/>
      <path d="M86.315,184.841a1.432,1.432,0,0,1-1.149.543,1.354,1.354,0,0,1-1.348-1.447,1.308,1.308,0,0,1,1.348-1.412,1.388,1.388,0,0,1,1.149.515v-.579a.717.717,0,0,0-.8-.76,1.535,1.535,0,0,0-1.077.471l-.407-.742a2.48,2.48,0,0,1,1.683-.633c.95,0,1.7.425,1.7,1.547v2.932H86.315Zm0-1.167a.841.841,0,0,0-.733-.425.7.7,0,0,0,0,1.4.818.818,0,0,0,.733-.417Z" fill="#2f2e2c"/>
      <path d="M88.579,180.906h1.086v.6a1.489,1.489,0,0,1,1.195-.7v1.058a1.126,1.126,0,0,0-.263-.027,1.212,1.212,0,0,0-.932.525v2.914H88.579Z" fill="#2f2e2c"/>
    </g>
    <g>
      <path d="M107.959,184.2h-1.972l-.281,1.078h-1.258l1.792-6.036h1.466l1.791,6.036H108.24Zm-1.728-1.058h1.484l-.742-2.823Z" fill="#2f2e2c"/>
      <path d="M110.159,186.941v-6.035h1.086v.551a1.3,1.3,0,0,1,1.1-.66c.986,0,1.619.859,1.619,2.289s-.633,2.3-1.619,2.3a1.275,1.275,0,0,1-1.1-.66v2.217ZM112,181.756a.912.912,0,0,0-.751.507v1.646a.942.942,0,0,0,.751.516c.561,0,.85-.57.85-1.339S112.557,181.756,112,181.756Z" fill="#2f2e2c"/>
      <path d="M114.911,180.906H116v.6a1.489,1.489,0,0,1,1.195-.7v1.058a1.126,1.126,0,0,0-.263-.027,1.212,1.212,0,0,0-.932.525v2.914h-1.086Z" fill="#2f2e2c"/>
    </g>
    <g>
      <path d="M161.657,183.973a1.023,1.023,0,0,0,.751.335.737.737,0,0,0,.788-.815V179.24h1.212v4.29a1.7,1.7,0,0,1-1.882,1.854,1.864,1.864,0,0,1-1.3-.461Z" fill="#2f2e2c"/>
      <path d="M168.065,184.724a1.6,1.6,0,0,1-1.285.66,1.044,1.044,0,0,1-1.167-1.176v-3.3H166.7v2.885c0,.462.217.634.579.634a.962.962,0,0,0,.788-.534v-2.985h1.085v4.37h-1.085Z" fill="#2f2e2c"/>
      <path d="M172.771,182.4c0-.462-.208-.643-.57-.643a.986.986,0,0,0-.8.543v2.977h-1.086v-4.37h1.086v.569a1.621,1.621,0,0,1,1.285-.678,1.062,1.062,0,0,1,1.167,1.194v3.285h-1.086Z" fill="#2f2e2c"/>
    </g>
    <g>
      <path d="M138.428,181.131l-1.357,4.145h-.5l-1.339-4.145v4.145h-1.2V179.24h1.629l1.168,3.62L138,179.24h1.62v6.036h-1.195Z" fill="#2f2e2c"/>
      <path d="M143.09,184.841a1.435,1.435,0,0,1-1.149.543,1.354,1.354,0,0,1-1.348-1.447,1.308,1.308,0,0,1,1.348-1.412,1.389,1.389,0,0,1,1.149.515v-.579a.717.717,0,0,0-.806-.76,1.533,1.533,0,0,0-1.076.471l-.407-.742a2.479,2.479,0,0,1,1.683-.633c.95,0,1.7.425,1.7,1.547v2.932H143.09Zm0-1.167a.844.844,0,0,0-.733-.425.7.7,0,0,0,0,1.4.82.82,0,0,0,.733-.417Z" fill="#2f2e2c"/>
      <path d="M145.7,186.09a.449.449,0,0,0,.48-.316l.145-.417-1.475-4.451h1.158l.878,3.057.887-3.057h1.158l-1.71,5.112a1.333,1.333,0,0,1-1.439,1.031,2.466,2.466,0,0,1-.525-.063l.163-.959A.747.747,0,0,0,145.7,186.09Z" fill="#2f2e2c"/>
    </g>
    <g>
      <path d="M187.872,183.973a1.023,1.023,0,0,0,.751.335.736.736,0,0,0,.787-.815V179.24h1.213v4.29a1.7,1.7,0,0,1-1.883,1.854,1.863,1.863,0,0,1-1.3-.461Z" fill="#2f2e2c"/>
      <path d="M194.28,184.724a1.6,1.6,0,0,1-1.286.66,1.045,1.045,0,0,1-1.167-1.176v-3.3h1.086v2.885c0,.462.217.634.579.634a.962.962,0,0,0,.788-.534v-2.985h1.085v4.37H194.28Z" fill="#2f2e2c"/>
      <path d="M196.534,179.24h1.085v6.036h-1.085Z" fill="#2f2e2c"/>
    </g>
    <g>
      <path d="M219.417,184.2h-1.973l-.28,1.078h-1.258l1.791-6.036h1.466l1.792,6.036H219.7Zm-1.728-1.058h1.484l-.743-2.823Z" fill="#2f2e2c"/>
      <path d="M224.006,184.724a1.594,1.594,0,0,1-1.285.66,1.045,1.045,0,0,1-1.167-1.176v-3.3h1.085v2.885c0,.462.218.634.579.634a.96.96,0,0,0,.788-.534v-2.985h1.086v4.37h-1.086Z" fill="#2f2e2c"/>
      <path d="M226.65,185.656a1.455,1.455,0,0,0,1.121.479.917.917,0,0,0,.978-1.031v-.534a1.314,1.314,0,0,1-1.1.669c-.977,0-1.611-.787-1.611-2.216,0-1.4.634-2.226,1.611-2.226a1.256,1.256,0,0,1,1.1.66v-.551h1.086v4.143a1.806,1.806,0,0,1-2.009,2,2.253,2.253,0,0,1-1.611-.56Zm2.1-3.384a.9.9,0,0,0-.751-.516c-.552,0-.842.507-.842,1.267s.29,1.258.842,1.258a.908.908,0,0,0,.751-.507Z" fill="#2f2e2c"/>
    </g>
    <g>
      <path d="M243.27,183.674a1.974,1.974,0,0,0,1.448.643c.542,0,.832-.3.832-.67,0-.461-.434-.66-.986-.9-.76-.3-1.71-.66-1.71-1.855a1.807,1.807,0,0,1,1.99-1.755,2.607,2.607,0,0,1,1.828.67l-.579.9a1.844,1.844,0,0,0-1.276-.507c-.452,0-.724.254-.724.615,0,.408.416.6.959.824.779.308,1.729.706,1.729,1.9a1.815,1.815,0,0,1-2.045,1.837,2.791,2.791,0,0,1-2.063-.778Z" fill="#2f2e2c"/>
      <path d="M249.442,180.8c1.2,0,1.882.977,1.882,2.334v.308h-2.741a1.039,1.039,0,0,0,1.058,1.067,1.322,1.322,0,0,0,.951-.425l.5.652a2.13,2.13,0,0,1-1.565.651,2.316,2.316,0,0,1-.082-4.587Zm-.859,1.9h1.692c-.018-.453-.218-1.023-.851-1.023C248.818,181.674,248.6,182.244,248.583,182.7Z" fill="#2f2e2c"/>
      <path d="M252.239,186.941v-6.035h1.086v.551a1.3,1.3,0,0,1,1.1-.66c.986,0,1.62.859,1.62,2.289s-.634,2.3-1.62,2.3a1.275,1.275,0,0,1-1.1-.66v2.217Zm1.837-5.185a.912.912,0,0,0-.751.507v1.646a.942.942,0,0,0,.751.516c.561,0,.85-.57.85-1.339S254.637,181.756,254.076,181.756Z" fill="#2f2e2c"/>
    </g>
    <g>
      <path d="M273.213,179.141c1.584,0,2.524,1.33,2.524,3.122s-.94,3.121-2.524,3.121-2.516-1.321-2.516-3.121S271.638,179.141,273.213,179.141Zm0,1.077c-.824,0-1.267.877-1.267,2.045,0,1.148.443,2.045,1.267,2.045s1.285-.9,1.285-2.045C274.5,181.1,274.046,180.218,273.213,180.218Z" fill="#2f2e2c"/>
      <path d="M278.49,180.8a1.743,1.743,0,0,1,1.394.588l-.543.751a.917.917,0,0,0-.734-.38c-.624,0-1,.569-1,1.33s.371,1.339,1,1.339a.917.917,0,0,0,.734-.38l.543.751a1.743,1.743,0,0,1-1.394.588,2.315,2.315,0,0,1,0-4.587Z" fill="#2f2e2c"/>
      <path d="M280.907,184.226v-2.37h-.57v-.95h.57v-1.195h1.086v1.195h.724v.95h-.724v2.117c0,.28.108.452.316.452a.431.431,0,0,0,.325-.127l.227.833a1.256,1.256,0,0,1-.842.253C281.259,185.384,280.907,185,280.907,184.226Z" fill="#2f2e2c"/>
    </g>
    <g>
      <path d="M301.075,181.43v3.846h-1.2V179.24h1.23l1.982,3.692V179.24H304.3v6.036h-1.159Z" fill="#2f2e2c"/>
      <path d="M305.275,183.086a2,2,0,1,1,1.973,2.3A2.05,2.05,0,0,1,305.275,183.086Zm2.832,0c0-.715-.263-1.33-.859-1.33-.579,0-.842.615-.842,1.33s.263,1.339.842,1.339C307.844,184.425,308.107,183.81,308.107,183.086Z" fill="#2f2e2c"/>
      <path d="M309.665,180.906h1.158l.878,3.067.887-3.067h1.158l-1.456,4.37h-1.168Z" fill="#2f2e2c"/>
    </g>
    <g>
      <path d="M327.6,179.24h1.946c1.665,0,2.624,1.249,2.624,3.023s-.95,3.013-2.624,3.013H327.6Zm1.946,4.968c.9,0,1.383-.8,1.383-1.945,0-1.195-.469-1.955-1.383-1.955h-.734v3.9Z" fill="#2f2e2c"/>
      <path d="M334.875,180.8c1.2,0,1.882.977,1.882,2.334v.308h-2.742a1.04,1.04,0,0,0,1.059,1.067,1.318,1.318,0,0,0,.95-.425l.5.652a2.127,2.127,0,0,1-1.565.651,2.316,2.316,0,0,1-.081-4.587Zm-.86,1.9h1.693c-.019-.453-.218-1.023-.851-1.023C334.251,181.674,334.033,182.244,334.015,182.7Z" fill="#2f2e2c"/>
      <path d="M339.445,180.8a1.739,1.739,0,0,1,1.394.588l-.543.751a.914.914,0,0,0-.733-.38c-.624,0-1,.569-1,1.33s.371,1.339,1,1.339a.914.914,0,0,0,.733-.38l.543.751a1.739,1.739,0,0,1-1.394.588,2.315,2.315,0,0,1,0-4.587Z" fill="#2f2e2c"/>
    </g>
    <g>
      <path d="M354.582,183.973a1.022,1.022,0,0,0,.751.335.736.736,0,0,0,.787-.815V179.24h1.212v4.29a1.7,1.7,0,0,1-1.882,1.854,1.864,1.864,0,0,1-1.3-.461Z" fill="#0b79bf"/>
      <path d="M360.8,184.841a1.435,1.435,0,0,1-1.15.543,1.354,1.354,0,0,1-1.348-1.447,1.308,1.308,0,0,1,1.348-1.412,1.393,1.393,0,0,1,1.15.515v-.579a.718.718,0,0,0-.806-.76,1.531,1.531,0,0,0-1.076.471l-.408-.742a2.479,2.479,0,0,1,1.683-.633c.95,0,1.7.425,1.7,1.547v2.932H360.8Zm0-1.167a.845.845,0,0,0-.734-.425.7.7,0,0,0,0,1.4.822.822,0,0,0,.734-.417Z" fill="#0b79bf"/>
      <path d="M365.514,182.4c0-.462-.208-.643-.569-.643a.989.989,0,0,0-.8.543v2.977h-1.086v-4.37h1.086v.569a1.623,1.623,0,0,1,1.285-.678,1.061,1.061,0,0,1,1.167,1.194v3.285h-1.086Z" fill="#0b79bf"/>
    </g>
    <g>
      <path d="M18.966,102.97c2.379-2.312,2.876-2.828,2.876-3.569a.812.812,0,0,0-.868-.819,1.671,1.671,0,0,0-1.384.732l-.78-.82a2.648,2.648,0,0,1,2.184-1.072,1.973,1.973,0,0,1,2.174,1.969c0,.985-.663,1.823-2.3,3.481H23.2v1.151H18.966Z" fill="#2f2e2c"/>
      <path d="M26.736,97.422a2.208,2.208,0,0,1,1.667.7l-.634.956a1.175,1.175,0,0,0-1.014-.506c-.809,0-1.3.916-1.3,1.959v.107a1.607,1.607,0,0,1,1.385-.818,1.869,1.869,0,0,1,1.823,2.105,2.1,2.1,0,0,1-2.136,2.214c-1.725,0-2.4-1.551-2.4-3.355C24.132,98.835,25.058,97.422,26.736,97.422Zm-.3,3.5a1.2,1.2,0,0,0-.975.673c.049.6.273,1.394,1.005,1.394a.924.924,0,0,0,.877-1.014C27.34,101.205,26.9,100.922,26.433,100.922Z" fill="#2f2e2c"/>
      <path d="M30.37,102.618a.767.767,0,0,1,.751.761.758.758,0,0,1-.751.751.766.766,0,0,1-.76-.751A.775.775,0,0,1,30.37,102.618Z" fill="#2f2e2c"/>
      <path d="M32.963,102.287a1.643,1.643,0,0,0,1.356.7.97.97,0,0,0,.984-1.034c0-.643-.341-1.033-.926-1.033a1.3,1.3,0,0,0-1.073.536l-.945-.244V97.519h3.9V98.66h-2.6v1.677a1.608,1.608,0,0,1,1.2-.526c.985,0,1.775.761,1.775,2.1a2.122,2.122,0,0,1-2.272,2.224,2.534,2.534,0,0,1-2.184-1.025Z" fill="#2f2e2c"/>
    </g>
    <g>
      <path d="M47.94,74.279a1.794,1.794,0,0,0,1.394.711c.682,0,.994-.361.994-.868,0-.614-.419-.839-1.052-.839-.215,0-.508.01-.605.02v-1.16c.1.01.419.01.575.01.595,0,.995-.253.995-.771,0-.546-.39-.809-.956-.809a1.661,1.661,0,0,0-1.3.654l-.742-.751a2.548,2.548,0,0,1,2.145-1.053c1.287,0,2.136.614,2.136,1.765A1.535,1.535,0,0,1,50.3,72.669a1.57,1.57,0,0,1,1.326,1.561,1.969,1.969,0,0,1-2.233,1.911,2.643,2.643,0,0,1-2.233-1.054Z" fill="#2f2e2c"/>
      <path d="M55.066,70.671H52.374V69.52h4.174v.907l-2.019,5.6H53.115Z" fill="#2f2e2c"/>
      <path d="M57.356,74.619a.767.767,0,0,1,.751.761.759.759,0,0,1-.751.751.767.767,0,0,1-.761-.751A.775.775,0,0,1,57.356,74.619Z" fill="#2f2e2c"/>
      <path d="M59.763,74.279a1.794,1.794,0,0,0,1.394.711c.683,0,1-.361,1-.868,0-.614-.419-.839-1.053-.839-.215,0-.507.01-.6.02v-1.16c.1.01.419.01.576.01.594,0,.994-.253.994-.771,0-.546-.39-.809-.955-.809a1.661,1.661,0,0,0-1.3.654l-.741-.751a2.547,2.547,0,0,1,2.145-1.053c1.287,0,2.135.614,2.135,1.765a1.535,1.535,0,0,1-1.229,1.481,1.57,1.57,0,0,1,1.326,1.561,1.968,1.968,0,0,1-2.232,1.911,2.641,2.641,0,0,1-2.233-1.054Z" fill="#2f2e2c"/>
    </g>
    <g>
      <path d="M77.925,55.638H75.272V54.546l2.282-4.027h1.677v3.969h.653v1.15h-.653v1.385H77.925Zm-1.473-1.15h1.473V51.845Z" fill="#2f2e2c"/>
      <path d="M80.721,55.97C83.1,53.658,83.6,53.142,83.6,52.4a.811.811,0,0,0-.867-.819,1.672,1.672,0,0,0-1.385.732l-.78-.82a2.649,2.649,0,0,1,2.184-1.072,1.974,1.974,0,0,1,2.175,1.969c0,.985-.664,1.823-2.3,3.481h2.33v1.151H80.721Z" fill="#2f2e2c"/>
      <path d="M86.8,55.618a.767.767,0,0,1,.751.761.758.758,0,0,1-.751.751.766.766,0,0,1-.76-.751A.775.775,0,0,1,86.8,55.618Z" fill="#2f2e2c"/>
      <path d="M89.085,52.206,88.1,53.23l-.751-.79,1.911-1.921H90.4v6.5H89.085Z" fill="#2f2e2c"/>
    </g>
    <g>
      <path d="M101.489,110.97c2.379-2.312,2.876-2.828,2.876-3.569a.812.812,0,0,0-.868-.819,1.671,1.671,0,0,0-1.384.732l-.78-.82a2.648,2.648,0,0,1,2.184-1.072,1.973,1.973,0,0,1,2.174,1.969c0,.985-.663,1.823-2.3,3.481h2.33v1.151h-4.231Z" fill="#2f2e2c"/>
      <path d="M106.772,110.97c2.379-2.312,2.876-2.828,2.876-3.569a.812.812,0,0,0-.868-.819,1.671,1.671,0,0,0-1.384.732l-.78-.82a2.648,2.648,0,0,1,2.184-1.072,1.973,1.973,0,0,1,2.174,1.969c0,.985-.663,1.823-2.3,3.481H111v1.151h-4.232Z" fill="#2f2e2c"/>
      <path d="M112.854,110.618a.767.767,0,0,1,.751.761.758.758,0,0,1-.751.751.767.767,0,0,1-.761-.751A.776.776,0,0,1,112.854,110.618Z" fill="#2f2e2c"/>
      <path d="M114.716,110.97c2.379-2.312,2.876-2.828,2.876-3.569a.812.812,0,0,0-.868-.819,1.671,1.671,0,0,0-1.384.732l-.78-.82a2.648,2.648,0,0,1,2.184-1.072,1.973,1.973,0,0,1,2.174,1.969c0,.985-.663,1.823-2.3,3.481h2.33v1.151h-4.231Z" fill="#2f2e2c"/>
    </g>
    <g>
      <path d="M160.821,148.668a1.638,1.638,0,0,1-1.151-1.55c0-1.189,1.082-1.7,2.155-1.7,1.053,0,2.155.507,2.155,1.7a1.648,1.648,0,0,1-1.16,1.55,1.9,1.9,0,0,1,1.248,1.688c0,1.16-.956,1.784-2.243,1.784s-2.253-.624-2.253-1.775A1.9,1.9,0,0,1,160.821,148.668Zm1,.528a1.124,1.124,0,0,0-.926.994.818.818,0,0,0,.926.809.827.827,0,0,0,.926-.809A1.134,1.134,0,0,0,161.825,149.2Zm0-2.633a.754.754,0,0,0-.848.77c0,.566.595.819.848.877.244-.058.838-.311.838-.877A.751.751,0,0,0,161.825,146.563Z" fill="#2f2e2c"/>
      <path d="M165.8,150.618a.767.767,0,0,1,.751.761.758.758,0,0,1-.751.751.766.766,0,0,1-.76-.751A.775.775,0,0,1,165.8,150.618Z" fill="#2f2e2c"/>
      <path d="M167.663,150.97c2.379-2.312,2.876-2.828,2.876-3.569a.812.812,0,0,0-.868-.819,1.669,1.669,0,0,0-1.384.732l-.78-.82a2.646,2.646,0,0,1,2.184-1.072,1.973,1.973,0,0,1,2.174,1.969c0,.985-.663,1.823-2.3,3.481h2.33v1.151h-4.231Z" fill="#2f2e2c"/>
    </g>
    <g>
      <path d="M131.977,124.206l-.985,1.024-.75-.79,1.911-1.921h1.141v6.5h-1.317Z" fill="#2f2e2c"/>
      <path d="M136.988,122.422a2.206,2.206,0,0,1,1.667.7l-.634.956a1.172,1.172,0,0,0-1.013-.506c-.81,0-1.3.916-1.3,1.959v.107a1.605,1.605,0,0,1,1.384-.818,1.869,1.869,0,0,1,1.823,2.105,2.1,2.1,0,0,1-2.135,2.214c-1.726,0-2.4-1.551-2.4-3.355C134.384,123.835,135.311,122.422,136.988,122.422Zm-.3,3.5a1.2,1.2,0,0,0-.975.673c.048.6.273,1.394,1,1.394a.924.924,0,0,0,.878-1.014C137.593,126.205,137.154,125.922,136.686,125.922Z" fill="#2f2e2c"/>
      <path d="M140.623,127.618a.767.767,0,0,1,.751.761.759.759,0,0,1-.751.751.767.767,0,0,1-.761-.751A.775.775,0,0,1,140.623,127.618Z" fill="#2f2e2c"/>
      <path d="M144.971,122.422a2.206,2.206,0,0,1,1.667.7l-.634.956a1.174,1.174,0,0,0-1.014-.506c-.809,0-1.3.916-1.3,1.959v.107a1.605,1.605,0,0,1,1.384-.818,1.869,1.869,0,0,1,1.823,2.105,2.1,2.1,0,0,1-2.135,2.214c-1.726,0-2.4-1.551-2.4-3.355C142.367,123.835,143.294,122.422,144.971,122.422Zm-.3,3.5a1.2,1.2,0,0,0-.975.673c.048.6.273,1.394,1,1.394a.924.924,0,0,0,.877-1.014C145.575,126.205,145.136,125.922,144.669,125.922Z" fill="#2f2e2c"/>
    </g>
    <g>
      <path d="M188.726,162.97c2.379-2.312,2.876-2.828,2.876-3.569a.812.812,0,0,0-.867-.819,1.671,1.671,0,0,0-1.385.732l-.78-.82a2.648,2.648,0,0,1,2.184-1.072,1.973,1.973,0,0,1,2.174,1.969c0,.985-.663,1.823-2.3,3.481h2.33v1.151h-4.232Z" fill="#2f2e2c"/>
      <path d="M194.809,162.618a.767.767,0,0,1,.751.761.756.756,0,0,1-1.511,0A.774.774,0,0,1,194.809,162.618Z" fill="#2f2e2c"/>
      <path d="M198.611,158.67H195.92v-1.151h4.173v.907l-2.019,5.6h-1.413Z" fill="#2f2e2c"/>
    </g>
    <g>
      <path d="M218.343,167.618a.767.767,0,0,1,.751.761.758.758,0,0,1-.751.751.766.766,0,0,1-.76-.751A.775.775,0,0,1,218.343,167.618Z" fill="#2f2e2c"/>
      <path d="M221.326,165.668a1.639,1.639,0,0,1-1.15-1.55c0-1.189,1.082-1.7,2.155-1.7,1.053,0,2.155.507,2.155,1.7a1.647,1.647,0,0,1-1.161,1.55,1.894,1.894,0,0,1,1.248,1.688c0,1.16-.955,1.784-2.242,1.784s-2.253-.624-2.253-1.775A1.9,1.9,0,0,1,221.326,165.668Zm1,.528a1.124,1.124,0,0,0-.926.994.817.817,0,0,0,.926.809.827.827,0,0,0,.926-.809A1.134,1.134,0,0,0,222.331,166.2Zm0-2.633a.754.754,0,0,0-.848.77c0,.566.594.819.848.877.243-.058.838-.311.838-.877A.751.751,0,0,0,222.331,163.563Z" fill="#2f2e2c"/>
    </g>
    <g>
      <path d="M247.037,166.618a.767.767,0,0,1,.751.761.758.758,0,0,1-.751.751.766.766,0,0,1-.76-.751A.775.775,0,0,1,247.037,166.618Z" fill="#2f2e2c"/>
      <path d="M249.63,166.472a1.206,1.206,0,0,0,1.024.508c.819,0,1.3-.907,1.3-1.95v-.118a1.632,1.632,0,0,1-1.385.82,1.87,1.87,0,0,1-1.823-2.107,2.094,2.094,0,0,1,2.135-2.213c1.716,0,2.389,1.55,2.389,3.364,0,1.94-.926,3.354-2.6,3.354a2.2,2.2,0,0,1-1.658-.7Zm1.317-3.909a.923.923,0,0,0-.878,1.013c0,.771.448,1.053.907,1.053a1.182,1.182,0,0,0,.965-.663C251.9,163.352,251.688,162.563,250.947,162.563Z" fill="#2f2e2c"/>
    </g>
    <g>
      <path d="M273.619,159.206l-.985,1.024-.75-.79,1.911-1.921h1.14v6.5h-1.316Z" fill="#2f2e2c"/>
      <path d="M276.943,162.618a.767.767,0,0,1,.751.761.759.759,0,0,1-.751.751.767.767,0,0,1-.761-.751A.775.775,0,0,1,276.943,162.618Z" fill="#2f2e2c"/>
      <path d="M280.745,158.67h-2.692v-1.151h4.174v.907l-2.018,5.6H278.8Z" fill="#2f2e2c"/>
    </g>
    <g>
      <path d="M299.99,152.287a1.643,1.643,0,0,0,1.355.7.97.97,0,0,0,.985-1.034c0-.643-.341-1.033-.926-1.033a1.3,1.3,0,0,0-1.072.536l-.947-.244v-3.695h3.9v1.141h-2.6v1.677a1.606,1.606,0,0,1,1.2-.526c.985,0,1.774.761,1.774,2.1a2.122,2.122,0,0,1-2.272,2.224,2.538,2.538,0,0,1-2.184-1.025Z" fill="#2f2e2c"/>
      <path d="M305.4,152.618a.767.767,0,0,1,.751.761.759.759,0,0,1-.751.751.767.767,0,0,1-.761-.751A.776.776,0,0,1,305.4,152.618Z" fill="#2f2e2c"/>
      <path d="M309.2,148.67h-2.691v-1.151h4.173v.907l-2.018,5.6h-1.414Z" fill="#2f2e2c"/>
    </g>
    <g>
      <path d="M324.929,112.97c2.38-2.312,2.877-2.828,2.877-3.569a.812.812,0,0,0-.868-.819,1.674,1.674,0,0,0-1.385.732l-.779-.82a2.648,2.648,0,0,1,2.184-1.072,1.974,1.974,0,0,1,2.175,1.969c0,.985-.664,1.823-2.3,3.481h2.331v1.151h-4.233Z" fill="#2f2e2c"/>
      <path d="M330.213,112.97c2.38-2.312,2.877-2.828,2.877-3.569a.813.813,0,0,0-.869-.819,1.671,1.671,0,0,0-1.384.732l-.78-.82a2.648,2.648,0,0,1,2.184-1.072,1.974,1.974,0,0,1,2.175,1.969c0,.985-.663,1.823-2.3,3.481h2.331v1.151h-4.232Z" fill="#2f2e2c"/>
      <path d="M336.3,112.618a.767.767,0,0,1,.751.761.759.759,0,0,1-.751.751.767.767,0,0,1-.761-.751A.775.775,0,0,1,336.3,112.618Z" fill="#2f2e2c"/>
      <path d="M338.576,109.206l-.984,1.024-.751-.79,1.911-1.921h1.14v6.5h-1.316Z" fill="#2f2e2c"/>
    </g>
    <g>
      <path d="M353.072,99.97c2.38-2.312,2.877-2.828,2.877-3.569a.813.813,0,0,0-.868-.819,1.674,1.674,0,0,0-1.385.732l-.779-.82a2.646,2.646,0,0,1,2.183-1.072,1.974,1.974,0,0,1,2.175,1.969c0,.985-.663,1.823-2.3,3.481H357.3v1.151h-4.232Z" fill="#0b79bf"/>
      <path d="M359.477,97.668a1.638,1.638,0,0,1-1.151-1.55c0-1.189,1.083-1.7,2.155-1.7,1.053,0,2.154.507,2.154,1.7a1.646,1.646,0,0,1-1.16,1.55,1.894,1.894,0,0,1,1.248,1.688c0,1.16-.955,1.784-2.242,1.784s-2.252-.624-2.252-1.775A1.9,1.9,0,0,1,359.477,97.668Zm1,.528a1.125,1.125,0,0,0-.927.994.819.819,0,0,0,.927.809.827.827,0,0,0,.926-.809A1.134,1.134,0,0,0,360.481,98.2Zm0-2.633a.755.755,0,0,0-.848.77c0,.566.594.819.848.877.244-.058.839-.311.839-.877A.752.752,0,0,0,360.481,95.563Z" fill="#0b79bf"/>
      <path d="M364.458,99.618a.767.767,0,0,1,.751.761.759.759,0,0,1-.751.751.767.767,0,0,1-.761-.751A.776.776,0,0,1,364.458,99.618Z" fill="#0b79bf"/>
      <path d="M366.738,96.206l-.984,1.024L365,96.44l1.911-1.921h1.14v6.5h-1.316Z" fill="#0b79bf"/>
    </g>
    <rect x="18.46" y="106.944" width="18.232" height="66.769" fill="#32b44a"/>
    <rect x="46.396" y="79.886" width="18.232" height="93.827" fill="#32b44a"/>
    <rect x="73.794" y="60.424" width="18.232" height="113.288" fill="#32b44a"/>
    <rect x="101.436" y="115.339" width="18.232" height="58.374" fill="#32b44a"/>
    <rect x="129.371" y="132.26" width="18.232" height="41.453" fill="#32b44a"/>
    <rect x="157.013" y="155.481" width="18.232" height="18.232" fill="#32b44a"/>
    <rect x="184.956" y="167.654" width="18.232" height="6.059" fill="#32b44a"/>
    <rect x="212.597" y="172.213" width="18.232" height="1.5" fill="#32b44a"/>
    <rect x="240.533" y="170.9" width="18.232" height="2.813" fill="#32b44a"/>
    <rect x="268.469" y="167.654" width="18.232" height="6.059" fill="#32b44a"/>
    <rect x="295.817" y="157.675" width="18.232" height="16.038" fill="#32b44a"/>
    <rect x="323.47" y="116.877" width="18.232" height="56.836" fill="#32b44a"/>
    <rect x="351.395" y="104.815" width="18.232" height="68.898" fill="#0b79bf"/>
    <g>
      <path d="M25.107,198.007l-1.739,5.264h-.3l-1.719-5.264v5.264h-.781v-6.514H21.65l1.572,4.775,1.582-4.775h1.064v6.514h-.761Z" fill="#2f2e2c"/>
      <path d="M28.915,198.437a1.61,1.61,0,0,1,1.347.625l-.38.478a1.06,1.06,0,0,0-.909-.478c-.839,0-1.279.84-1.279,1.845s.44,1.856,1.279,1.856a1.086,1.086,0,0,0,.909-.479l.38.479a1.586,1.586,0,0,1-1.347.625c-1.211,0-1.953-1.084-1.953-2.481S27.7,198.437,28.915,198.437Z" fill="#2f2e2c"/>
      <path d="M31.326,199.169H30.7v-.615h.625v-.576a1.159,1.159,0,0,1,1.153-1.319,1.316,1.316,0,0,1,.605.137l-.166.547a.668.668,0,0,0-.312-.078c-.371,0-.576.254-.576.713v.576h.8v.615h-.8v4.1h-.7Z" fill="#2f2e2c"/>
      <path d="M35.379,198.818H39.1v.5H35.379Zm0,1.894H39.1v.488H35.379Z" fill="#2f2e2c"/>
      <path d="M43.1,197.782,42.1,198.857l-.468-.489,1.562-1.611h.684v6.514H43.1Z" fill="#2f2e2c"/>
      <path d="M47.439,202.323v-3.154h-.625v-.615h.625v-1.289h.7v1.289h.8v.615h-.8V202.2c0,.361.107.566.381.566a.527.527,0,0,0,.41-.186l.215.528a1.015,1.015,0,0,1-.762.283C47.741,203.388,47.439,203.027,47.439,202.323Z" fill="#2f2e2c"/>
      <path d="M52.428,199.9c0-.625-.293-.84-.761-.84a1.378,1.378,0,0,0-1.1.752v3.457H49.87v-6.514h.693v2.471a1.771,1.771,0,0,1,1.377-.791c.8,0,1.182.4,1.182,1.26v3.574h-.694Z" fill="#2f2e2c"/>
      <path d="M54.176,200.907c0-1.328.664-2.47,1.914-2.47,1.27,0,1.924,1.142,1.924,2.47s-.654,2.481-1.924,2.481C54.84,203.388,54.176,202.236,54.176,200.907Zm3.1,0c0-.947-.361-1.845-1.191-1.845-.81,0-1.182.9-1.182,1.845s.372,1.856,1.182,1.856C56.92,202.763,57.281,201.864,57.281,200.907Z" fill="#2f2e2c"/>
      <path d="M61.617,202.616a1.715,1.715,0,0,1-1.367.772c-.8,0-1.181-.4-1.181-1.26v-3.574h.693v3.369c0,.625.293.84.752.84a1.329,1.329,0,0,0,1.1-.732v-3.477h.7v4.717h-.7Z" fill="#2f2e2c"/>
      <path d="M63.58,202.226a1.625,1.625,0,0,0,1.23.6c.547,0,.908-.293.908-.743,0-.507-.468-.713-.986-.927-.644-.254-1.367-.538-1.367-1.446a1.337,1.337,0,0,1,1.5-1.269,1.888,1.888,0,0,1,1.435.6l-.332.479A1.355,1.355,0,0,0,64.879,199c-.518,0-.84.283-.84.664,0,.449.439.645.937.85.655.264,1.416.556,1.416,1.523a1.393,1.393,0,0,1-1.572,1.348,2,2,0,0,1-1.592-.664Z" fill="#2f2e2c"/>
      <path d="M69.81,202.763a1.475,1.475,0,0,1-1.24.625,1.449,1.449,0,0,1-1.426-1.572,1.426,1.426,0,0,1,1.426-1.553,1.47,1.47,0,0,1,1.24.6v-.82a.9.9,0,0,0-.967-1.006,1.5,1.5,0,0,0-1.182.576l-.312-.5a2.161,2.161,0,0,1,1.6-.683,1.389,1.389,0,0,1,1.563,1.533v3.3h-.7Zm0-1.377a1.134,1.134,0,0,0-1.016-.6,1.056,1.056,0,0,0,0,2.1,1.142,1.142,0,0,0,1.016-.6Z" fill="#2f2e2c"/>
      <path d="M74.341,199.911c0-.625-.283-.849-.752-.849a1.375,1.375,0,0,0-1.1.752v3.457h-.694v-4.717h.694v.674a1.749,1.749,0,0,1,1.367-.791c.8,0,1.191.429,1.191,1.279v3.555h-.7Z" fill="#2f2e2c"/>
      <path d="M79.028,202.6a1.473,1.473,0,0,1-1.24.791c-1.055,0-1.69-.986-1.69-2.471,0-1.465.625-2.48,1.69-2.48a1.421,1.421,0,0,1,1.24.8v-2.481h.7v6.514h-.7Zm0-2.764a1.261,1.261,0,0,0-1.064-.771c-.772,0-1.133.83-1.133,1.855s.361,1.846,1.133,1.846A1.252,1.252,0,0,0,79.028,202Z" fill="#2f2e2c"/>
      <path d="M84.838,198.437a1.612,1.612,0,0,1,1.348.625l-.381.478a1.06,1.06,0,0,0-.908-.478c-.84,0-1.28.84-1.28,1.845s.44,1.856,1.28,1.856a1.085,1.085,0,0,0,.908-.479l.381.479a1.588,1.588,0,0,1-1.348.625c-1.211,0-1.953-1.084-1.953-2.481S83.627,198.437,84.838,198.437Z" fill="#2f2e2c"/>
      <path d="M89.633,202.616a1.718,1.718,0,0,1-1.368.772c-.8,0-1.181-.4-1.181-1.26v-3.574h.693v3.369c0,.625.293.84.752.84a1.332,1.332,0,0,0,1.1-.732v-3.477h.7v4.717h-.7Z" fill="#2f2e2c"/>
      <path d="M91.625,196.757h.693v2.481a1.432,1.432,0,0,1,1.24-.8c1.065,0,1.69,1.015,1.69,2.48,0,1.485-.625,2.471-1.69,2.471a1.474,1.474,0,0,1-1.24-.791v.674h-.693Zm1.758,6.006c.771,0,1.132-.83,1.132-1.846s-.361-1.855-1.132-1.855a1.3,1.3,0,0,0-1.065.781V202A1.278,1.278,0,0,0,93.383,202.763Z" fill="#2f2e2c"/>
      <path d="M96.175,197.284a.486.486,0,0,1,.479-.478.479.479,0,0,1,0,.957A.486.486,0,0,1,96.175,197.284Zm.137,1.27h.693v4.717h-.693Z" fill="#2f2e2c"/>
      <path d="M100.012,198.437a1.61,1.61,0,0,1,1.348.625l-.381.478a1.06,1.06,0,0,0-.908-.478c-.84,0-1.279.84-1.279,1.845s.439,1.856,1.279,1.856a1.085,1.085,0,0,0,.908-.479l.381.479a1.587,1.587,0,0,1-1.348.625c-1.211,0-1.953-1.084-1.953-2.481S98.8,198.437,100.012,198.437Z" fill="#2f2e2c"/>
      <path d="M104.524,199.169H103.9v-.615h.625v-.576a1.159,1.159,0,0,1,1.152-1.319,1.313,1.313,0,0,1,.605.137l-.166.547a.668.668,0,0,0-.312-.078c-.371,0-.576.254-.576.713v.576h.8v.615h-.8v4.1h-.7Z" fill="#2f2e2c"/>
      <path d="M108.518,198.437c1.24,0,1.865,1.113,1.865,2.49v.215h-3.057c.03.947.518,1.66,1.358,1.66a1.455,1.455,0,0,0,1.123-.576l.371.41a1.962,1.962,0,0,1-1.553.752c-1.26,0-2.021-1.035-2.021-2.481C106.6,199.54,107.326,198.437,108.518,198.437Zm-1.192,2.187h2.364c-.01-.722-.323-1.6-1.182-1.6C107.678,199.023,107.346,199.931,107.326,200.624Z" fill="#2f2e2c"/>
      <path d="M113.088,198.437c1.24,0,1.865,1.113,1.865,2.49v.215H111.9c.03.947.518,1.66,1.358,1.66a1.455,1.455,0,0,0,1.123-.576l.371.41a1.962,1.962,0,0,1-1.553.752c-1.26,0-2.021-1.035-2.021-2.481C111.174,199.54,111.9,198.437,113.088,198.437Zm-1.192,2.187h2.363c-.009-.722-.322-1.6-1.181-1.6C112.248,199.023,111.916,199.931,111.9,200.624Z" fill="#2f2e2c"/>
      <path d="M117.843,200.907c0-1.328.664-2.47,1.914-2.47,1.27,0,1.924,1.142,1.924,2.47s-.654,2.481-1.924,2.481C118.507,203.388,117.843,202.236,117.843,200.907Zm3.1,0c0-.947-.361-1.845-1.191-1.845-.81,0-1.182.9-1.182,1.845s.372,1.856,1.182,1.856C120.587,202.763,120.948,201.864,120.948,200.907Z" fill="#2f2e2c"/>
      <path d="M122.9,199.169h-.625v-.615h.625v-.576a1.159,1.159,0,0,1,1.152-1.319,1.318,1.318,0,0,1,.606.137l-.166.547a.672.672,0,0,0-.313-.078c-.371,0-.576.254-.576.713v.576h.8v.615h-.8v4.1h-.7Z" fill="#2f2e2c"/>
      <path d="M129.864,199.911c0-.625-.284-.849-.752-.849a1.378,1.378,0,0,0-1.1.752v3.457h-.693v-4.717h.693v.674a1.751,1.751,0,0,1,1.367-.791c.8,0,1.192.429,1.192,1.279v3.555h-.7Z" fill="#2f2e2c"/>
      <path d="M134.278,202.763a1.476,1.476,0,0,1-1.241.625,1.449,1.449,0,0,1-1.425-1.572,1.426,1.426,0,0,1,1.425-1.553,1.47,1.47,0,0,1,1.241.6v-.82a.9.9,0,0,0-.967-1.006,1.5,1.5,0,0,0-1.182.576l-.312-.5a2.16,2.16,0,0,1,1.6-.683,1.389,1.389,0,0,1,1.563,1.533v3.3h-.7Zm0-1.377a1.134,1.134,0,0,0-1.016-.6,1.056,1.056,0,0,0,0,2.1,1.142,1.142,0,0,0,1.016-.6Z" fill="#2f2e2c"/>
      <path d="M136.4,202.323v-3.154h-.625v-.615h.625v-1.289h.7v1.289h.8v.615h-.8V202.2c0,.361.108.566.381.566a.525.525,0,0,0,.41-.186l.215.528a1.014,1.014,0,0,1-.762.283C136.7,203.388,136.4,203.027,136.4,202.323Z" fill="#2f2e2c"/>
      <path d="M141.376,202.616a1.715,1.715,0,0,1-1.367.772c-.8,0-1.182-.4-1.182-1.26v-3.574h.694v3.369c0,.625.293.84.752.84a1.33,1.33,0,0,0,1.1-.732v-3.477h.7v4.717h-.7Z" fill="#2f2e2c"/>
      <path d="M143.368,198.554h.694v.752a1.581,1.581,0,0,1,1.338-.85v.723a.945.945,0,0,0-.235-.029,1.415,1.415,0,0,0-1.1.771v3.35h-.694Z" fill="#2f2e2c"/>
      <path d="M148.632,202.763a1.476,1.476,0,0,1-1.241.625,1.449,1.449,0,0,1-1.425-1.572,1.426,1.426,0,0,1,1.425-1.553,1.47,1.47,0,0,1,1.241.6v-.82a.9.9,0,0,0-.967-1.006,1.5,1.5,0,0,0-1.182.576l-.312-.5a2.16,2.16,0,0,1,1.6-.683,1.389,1.389,0,0,1,1.563,1.533v3.3h-.7Zm0-1.377a1.134,1.134,0,0,0-1.016-.6,1.056,1.056,0,0,0,0,2.1,1.142,1.142,0,0,0,1.016-.6Z" fill="#2f2e2c"/>
      <path d="M150.614,196.757h.693v6.514h-.693Z" fill="#2f2e2c"/>
      <path d="M154.978,204.042a1.538,1.538,0,0,0,1.231.547,1.126,1.126,0,0,0,1.181-1.279v-.791a1.494,1.494,0,0,1-1.24.81c-1.055,0-1.689-.957-1.689-2.441,0-1.465.625-2.451,1.689-2.451a1.431,1.431,0,0,1,1.24.8v-.684h.7v4.707a1.7,1.7,0,0,1-1.865,1.924,2.03,2.03,0,0,1-1.572-.6Zm2.412-4.209a1.26,1.26,0,0,0-1.064-.771c-.772,0-1.133.81-1.133,1.826s.361,1.816,1.133,1.816a1.271,1.271,0,0,0,1.064-.781Z" fill="#2f2e2c"/>
      <path d="M161.795,202.763a1.476,1.476,0,0,1-1.241.625,1.449,1.449,0,0,1-1.425-1.572,1.426,1.426,0,0,1,1.425-1.553,1.47,1.47,0,0,1,1.241.6v-.82a.9.9,0,0,0-.967-1.006,1.5,1.5,0,0,0-1.182.576l-.312-.5a2.161,2.161,0,0,1,1.6-.683,1.389,1.389,0,0,1,1.563,1.533v3.3h-.7Zm0-1.377a1.134,1.134,0,0,0-1.016-.6,1.056,1.056,0,0,0,0,2.1,1.142,1.142,0,0,0,1.016-.6Z" fill="#2f2e2c"/>
      <path d="M163.747,202.226a1.629,1.629,0,0,0,1.231.6c.547,0,.908-.293.908-.743,0-.507-.469-.713-.986-.927-.645-.254-1.368-.538-1.368-1.446a1.337,1.337,0,0,1,1.5-1.269,1.89,1.89,0,0,1,1.436.6l-.332.479a1.358,1.358,0,0,0-1.094-.518c-.517,0-.84.283-.84.664,0,.449.44.645.938.85.654.264,1.416.556,1.416,1.523a1.393,1.393,0,0,1-1.572,1.348,2,2,0,0,1-1.592-.664Z" fill="#2f2e2c"/>
      <path d="M171.374,198.437a1.61,1.61,0,0,1,1.347.625l-.38.478a1.06,1.06,0,0,0-.909-.478c-.839,0-1.279.84-1.279,1.845s.44,1.856,1.279,1.856a1.086,1.086,0,0,0,.909-.479l.38.479a1.586,1.586,0,0,1-1.347.625c-1.211,0-1.953-1.084-1.953-2.481S170.163,198.437,171.374,198.437Z" fill="#2f2e2c"/>
      <path d="M176.042,202.763a1.476,1.476,0,0,1-1.241.625,1.449,1.449,0,0,1-1.425-1.572,1.426,1.426,0,0,1,1.425-1.553,1.47,1.47,0,0,1,1.241.6v-.82a.9.9,0,0,0-.967-1.006,1.5,1.5,0,0,0-1.182.576l-.312-.5a2.161,2.161,0,0,1,1.6-.683,1.389,1.389,0,0,1,1.563,1.533v3.3h-.7Zm0-1.377a1.134,1.134,0,0,0-1.016-.6,1.056,1.056,0,0,0,0,2.1,1.142,1.142,0,0,0,1.016-.6Z" fill="#2f2e2c"/>
      <path d="M180.572,199.911c0-.625-.283-.849-.752-.849a1.375,1.375,0,0,0-1.1.752v3.457h-.694v-4.717h.694v.674a1.749,1.749,0,0,1,1.367-.791c.8,0,1.191.429,1.191,1.279v3.555h-.7Z" fill="#2f2e2c"/>
      <path d="M187.222,199.9c0-.625-.293-.84-.761-.84a1.378,1.378,0,0,0-1.1.752v3.457h-.693v-6.514h.693v2.471a1.771,1.771,0,0,1,1.377-.791c.8,0,1.182.4,1.182,1.26v3.574h-.694Z" fill="#2f2e2c"/>
      <path d="M190.884,198.437c1.24,0,1.865,1.113,1.865,2.49v.215h-3.057c.029.947.518,1.66,1.358,1.66a1.455,1.455,0,0,0,1.123-.576l.371.41a1.962,1.962,0,0,1-1.553.752c-1.26,0-2.022-1.035-2.022-2.481C188.969,199.54,189.692,198.437,190.884,198.437Zm-1.192,2.187h2.363c-.009-.722-.322-1.6-1.181-1.6C190.044,199.023,189.712,199.931,189.692,200.624Z" fill="#2f2e2c"/>
      <path d="M196.2,202.763a1.475,1.475,0,0,1-1.24.625,1.449,1.449,0,0,1-1.426-1.572,1.426,1.426,0,0,1,1.426-1.553,1.47,1.47,0,0,1,1.24.6v-.82a.9.9,0,0,0-.967-1.006,1.5,1.5,0,0,0-1.181.576l-.313-.5a2.162,2.162,0,0,1,1.6-.683,1.388,1.388,0,0,1,1.562,1.533v3.3h-.7Zm0-1.377a1.133,1.133,0,0,0-1.016-.6,1.056,1.056,0,0,0,0,2.1,1.141,1.141,0,0,0,1.016-.6Z" fill="#2f2e2c"/>
      <path d="M198.315,202.323v-3.154h-.625v-.615h.625v-1.289h.7v1.289h.8v.615h-.8V202.2c0,.361.108.566.381.566a.525.525,0,0,0,.41-.186l.215.528a1.014,1.014,0,0,1-.762.283C198.618,203.388,198.315,203.027,198.315,202.323Z" fill="#2f2e2c"/>
      <path d="M205.267,202.763a1.473,1.473,0,0,1-1.24.625,1.449,1.449,0,0,1-1.426-1.572,1.427,1.427,0,0,1,1.426-1.553,1.468,1.468,0,0,1,1.24.6v-.82a.9.9,0,0,0-.966-1.006,1.5,1.5,0,0,0-1.182.576l-.313-.5a2.163,2.163,0,0,1,1.6-.683,1.388,1.388,0,0,1,1.562,1.533v3.3h-.7Zm0-1.377a1.132,1.132,0,0,0-1.015-.6,1.056,1.056,0,0,0,0,2.1,1.141,1.141,0,0,0,1.015-.6Z" fill="#2f2e2c"/>
      <path d="M209.8,199.911c0-.625-.284-.849-.752-.849a1.378,1.378,0,0,0-1.1.752v3.457h-.693v-4.717h.693v.674a1.752,1.752,0,0,1,1.367-.791c.8,0,1.192.429,1.192,1.279v3.555h-.7Z" fill="#2f2e2c"/>
      <path d="M216.311,202.763a1.473,1.473,0,0,1-1.24.625,1.449,1.449,0,0,1-1.426-1.572,1.427,1.427,0,0,1,1.426-1.553,1.468,1.468,0,0,1,1.24.6v-.82a.9.9,0,0,0-.967-1.006,1.5,1.5,0,0,0-1.181.576l-.313-.5a2.163,2.163,0,0,1,1.6-.683,1.388,1.388,0,0,1,1.562,1.533v3.3h-.7Zm0-1.377a1.132,1.132,0,0,0-1.015-.6,1.056,1.056,0,0,0,0,2.1,1.141,1.141,0,0,0,1.015-.6Z" fill="#2f2e2c"/>
      <path d="M217.708,198.554h.761l1.172,3.887,1.182-3.887h.752l-1.553,4.717h-.771Z" fill="#2f2e2c"/>
      <path d="M223.957,198.437c1.24,0,1.865,1.113,1.865,2.49v.215h-3.057c.03.947.518,1.66,1.358,1.66a1.455,1.455,0,0,0,1.123-.576l.371.41a1.962,1.962,0,0,1-1.553.752c-1.26,0-2.021-1.035-2.021-2.481C222.043,199.54,222.765,198.437,223.957,198.437Zm-1.192,2.187h2.364c-.01-.722-.323-1.6-1.182-1.6C223.117,199.023,222.785,199.931,222.765,200.624Z" fill="#2f2e2c"/>
      <path d="M226.847,198.554h.694v.752a1.581,1.581,0,0,1,1.338-.85v.723a.945.945,0,0,0-.235-.029,1.415,1.415,0,0,0-1.1.771v3.35h-.694Z" fill="#2f2e2c"/>
      <path d="M232.111,202.763a1.475,1.475,0,0,1-1.24.625,1.449,1.449,0,0,1-1.426-1.572,1.426,1.426,0,0,1,1.426-1.553,1.47,1.47,0,0,1,1.24.6v-.82a.9.9,0,0,0-.967-1.006,1.5,1.5,0,0,0-1.181.576l-.313-.5a2.162,2.162,0,0,1,1.6-.683,1.388,1.388,0,0,1,1.562,1.533v3.3h-.7Zm0-1.377a1.133,1.133,0,0,0-1.016-.6,1.056,1.056,0,0,0,0,2.1,1.141,1.141,0,0,0,1.016-.6Z" fill="#2f2e2c"/>
      <path d="M234.376,204.042a1.536,1.536,0,0,0,1.23.547,1.126,1.126,0,0,0,1.182-1.279v-.791a1.5,1.5,0,0,1-1.24.81c-1.055,0-1.69-.957-1.69-2.441,0-1.465.625-2.451,1.69-2.451a1.432,1.432,0,0,1,1.24.8v-.684h.7v4.707a1.7,1.7,0,0,1-1.865,1.924,2.034,2.034,0,0,1-1.573-.6Zm2.412-4.209a1.262,1.262,0,0,0-1.065-.771c-.771,0-1.132.81-1.132,1.826s.361,1.816,1.132,1.816a1.272,1.272,0,0,0,1.065-.781Z" fill="#2f2e2c"/>
      <path d="M240.45,198.437c1.24,0,1.865,1.113,1.865,2.49v.215h-3.056c.029.947.517,1.66,1.357,1.66a1.455,1.455,0,0,0,1.123-.576l.371.41a1.962,1.962,0,0,1-1.553.752c-1.259,0-2.021-1.035-2.021-2.481C238.536,199.54,239.259,198.437,240.45,198.437Zm-1.191,2.187h2.363c-.01-.722-.322-1.6-1.182-1.6C239.61,199.023,239.278,199.931,239.259,200.624Z" fill="#2f2e2c"/>
      <path d="M248,199.9c0-.625-.293-.84-.762-.84a1.375,1.375,0,0,0-1.1.752v3.457h-.694v-6.514h.694v2.471a1.768,1.768,0,0,1,1.376-.791c.8,0,1.182.4,1.182,1.26v3.574H248Z" fill="#2f2e2c"/>
      <path d="M249.746,200.907c0-1.328.664-2.47,1.914-2.47,1.269,0,1.924,1.142,1.924,2.47s-.655,2.481-1.924,2.481C250.41,203.388,249.746,202.236,249.746,200.907Zm3.1,0c0-.947-.361-1.845-1.191-1.845-.811,0-1.182.9-1.182,1.845s.371,1.856,1.182,1.856C252.49,202.763,252.851,201.864,252.851,200.907Z" fill="#2f2e2c"/>
      <path d="M259.4,199.853c0-.508-.2-.791-.654-.791a1.293,1.293,0,0,0-1.026.752v3.457h-.7v-3.418c0-.508-.205-.791-.664-.791a1.321,1.321,0,0,0-1.025.752v3.457h-.694v-4.717h.694v.674a1.628,1.628,0,0,1,1.289-.791.993.993,0,0,1,1.064.84,1.624,1.624,0,0,1,1.328-.84c.694,0,1.094.381,1.094,1.23v3.6h-.7Z" fill="#2f2e2c"/>
      <path d="M263.075,198.437c1.24,0,1.865,1.113,1.865,2.49v.215h-3.056c.029.947.517,1.66,1.357,1.66a1.455,1.455,0,0,0,1.123-.576l.371.41a1.962,1.962,0,0,1-1.553.752c-1.259,0-2.021-1.035-2.021-2.481C261.161,199.54,261.884,198.437,263.075,198.437Zm-1.191,2.187h2.363c-.01-.722-.322-1.6-1.182-1.6C262.235,199.023,261.9,199.931,261.884,200.624Z" fill="#2f2e2c"/>
      <path d="M268.23,199.169h-.625v-.615h.625v-.576a1.159,1.159,0,0,1,1.153-1.319,1.316,1.316,0,0,1,.605.137l-.166.547a.672.672,0,0,0-.313-.078c-.371,0-.576.254-.576.713v.576h.8v.615h-.8v4.1h-.7Z" fill="#2f2e2c"/>
      <path d="M270.31,200.907c0-1.328.664-2.47,1.914-2.47,1.27,0,1.924,1.142,1.924,2.47s-.654,2.481-1.924,2.481C270.974,203.388,270.31,202.236,270.31,200.907Zm3.106,0c0-.947-.362-1.845-1.192-1.845-.81,0-1.181.9-1.181,1.845s.371,1.856,1.181,1.856C273.054,202.763,273.416,201.864,273.416,200.907Z" fill="#2f2e2c"/>
      <path d="M275.2,198.554h.693v.752a1.584,1.584,0,0,1,1.338-.85v.723a.937.937,0,0,0-.234-.029,1.417,1.417,0,0,0-1.1.771v3.35H275.2Z" fill="#2f2e2c"/>
      <path d="M282.3,201.6h-2.578v-.674l2.354-4.17h1v4.16h.713v.684h-.713v1.67H282.3Zm-1.865-.684H282.3V197.6Z" fill="#2f2e2c"/>
      <path d="M289.45,202.6a1.474,1.474,0,0,1-1.24.791c-1.055,0-1.69-.986-1.69-2.471,0-1.465.625-2.48,1.69-2.48a1.421,1.421,0,0,1,1.24.8v-2.481h.7v6.514h-.7Zm0-2.764a1.262,1.262,0,0,0-1.065-.771c-.771,0-1.132.83-1.132,1.855s.361,1.846,1.132,1.846A1.252,1.252,0,0,0,289.45,202Z" fill="#2f2e2c"/>
      <path d="M293.863,202.763a1.475,1.475,0,0,1-1.24.625,1.449,1.449,0,0,1-1.426-1.572,1.426,1.426,0,0,1,1.426-1.553,1.47,1.47,0,0,1,1.24.6v-.82a.9.9,0,0,0-.967-1.006,1.5,1.5,0,0,0-1.181.576l-.313-.5a2.162,2.162,0,0,1,1.6-.683,1.388,1.388,0,0,1,1.562,1.533v3.3h-.7Zm0-1.377a1.133,1.133,0,0,0-1.016-.6,1.056,1.056,0,0,0,0,2.1,1.141,1.141,0,0,0,1.016-.6Z" fill="#2f2e2c"/>
      <path d="M296.021,204.56c.274,0,.43-.108.557-.469l.254-.723-1.573-4.814h.762l1.172,3.867,1.182-3.867h.752l-1.885,5.713a1.135,1.135,0,0,1-1.172.918,1.665,1.665,0,0,1-.469-.069l.108-.625A.752.752,0,0,0,296.021,204.56Z" fill="#2f2e2c"/>
      <path d="M299.8,202.226a1.625,1.625,0,0,0,1.23.6c.547,0,.908-.293.908-.743,0-.507-.469-.713-.986-.927-.645-.254-1.367-.538-1.367-1.446a1.337,1.337,0,0,1,1.5-1.269,1.888,1.888,0,0,1,1.435.6l-.332.479A1.357,1.357,0,0,0,301.1,199c-.517,0-.84.283-.84.664,0,.449.44.645.938.85.654.264,1.416.556,1.416,1.523a1.393,1.393,0,0,1-1.572,1.348,2,2,0,0,1-1.592-.664Z" fill="#2f2e2c"/>
      <path d="M304.077,202.323a.537.537,0,0,1,.527.518.531.531,0,0,1-.527.527.523.523,0,0,1-.518-.527A.529.529,0,0,1,304.077,202.323Z" fill="#2f2e2c"/>
    </g>
  </g>
</svg>
