<svg xmlns="http://www.w3.org/2000/svg" width="543.83" height="52.56" viewBox="0 0 543.83 52.56">
  <g>
    <path d="M.023.132H543.807s.023,30.122.023,38.058h0A14.369,14.369,0,0,1,529.46,52.56H14.37A14.37,14.37,0,0,1,0,38.191H0C0,30.254.023.132.023.132Z" fill="#f2f0ec"/>
    <line x1="213.22" x2="213.22" y2="52.472" fill="none" stroke="#fff" stroke-miterlimit="10" stroke-width="3"/>
    <g>
      <path d="M70.378,18.254H68.122L67.847,19.4H66.01l2.167-7.337h2.146L72.49,19.4H70.653Zm-1.9-1.529h1.563l-.781-3.1Z" fill="#0b79bf"/>
      <path d="M73.171,21.423V14.085h1.6v.627a1.51,1.51,0,0,1,1.309-.759c1.2,0,1.991,1.012,1.991,2.783,0,1.749-.792,2.794-1.991,2.794a1.5,1.5,0,0,1-1.309-.759v2.652Zm2.366-6.062a.916.916,0,0,0-.77.484v1.782a.953.953,0,0,0,.77.5c.583,0,.9-.56.9-1.386S76.12,15.361,75.537,15.361Z" fill="#0b79bf"/>
      <path d="M79.078,14.085h1.6v.682a1.851,1.851,0,0,1,1.418-.814v1.54a1.42,1.42,0,0,0-.34-.044,1.4,1.4,0,0,0-1.078.528V19.4h-1.6Z" fill="#0b79bf"/>
      <path d="M82.873,12.489a.919.919,0,1,1,.924.925A.922.922,0,0,1,82.873,12.489Zm.121,1.6h1.6V19.4h-1.6Z" fill="#0b79bf"/>
      <path d="M85.876,12.061h1.595V19.4H85.876Z" fill="#0b79bf"/>
      <path d="M91.177,17.968c2.817-2.531,3.246-2.959,3.246-3.663a.8.8,0,0,0-.88-.782,1.98,1.98,0,0,0-1.562.782l-1.035-1.133a3.335,3.335,0,0,1,2.641-1.222,2.364,2.364,0,0,1,2.629,2.332c0,1.057-.649,1.926-2.464,3.566h2.519V19.4H91.177Z" fill="#0b79bf"/>
      <path d="M99.89,11.95c1.881,0,2.739,1.628,2.739,3.785s-.858,3.8-2.739,3.8-2.751-1.65-2.751-3.8S98.008,11.95,99.89,11.95Zm0,1.573c-.715,0-.946.8-.946,2.212s.231,2.222.946,2.222.935-.825.935-2.222S100.594,13.523,99.89,13.523Z" fill="#0b79bf"/>
      <path d="M106.292,17.011l-1.2,2.387h-2.036l2.124-3.752-2-3.585h2.036l1.078,2.244,1.067-2.244h2.046l-1.991,3.575,2.123,3.762H107.5Z" fill="#0b79bf"/>
      <path d="M112.848,17.011l-1.2,2.387h-2.036l2.124-3.752-2-3.585h2.035l1.078,2.244,1.067-2.244h2.047l-1.992,3.575,2.123,3.762h-2.035Z" fill="#0b79bf"/>
      <path d="M121.109,15.174V19.4h-1.772V12.061h1.816l2.112,4.015V12.061h1.76V19.4h-1.683Z" fill="#0b79bf"/>
      <path d="M129.15,18.882a1.786,1.786,0,0,1-1.4.648,1.65,1.65,0,0,1-1.662-1.76,1.576,1.576,0,0,1,1.662-1.694,1.755,1.755,0,0,1,1.4.605v-.616a.819.819,0,0,0-.935-.825,2.024,2.024,0,0,0-1.31.55l-.561-1.067a3.31,3.31,0,0,1,2.179-.77c1.21,0,2.211.517,2.211,1.947v3.5H129.15Zm0-1.354a.871.871,0,0,0-.77-.418.688.688,0,1,0,0,1.375.871.871,0,0,0,.77-.418Z" fill="#0b79bf"/>
      <path d="M132.284,18.023V15.471h-.671V14.085h.671V12.633h1.6v1.452h.858v1.386h-.858v2.156c0,.309.121.5.363.5a.549.549,0,0,0,.363-.121l.286,1.232a1.779,1.779,0,0,1-1.1.3A1.327,1.327,0,0,1,132.284,18.023Z" fill="#0b79bf"/>
      <path d="M138.753,18.761a1.984,1.984,0,0,1-1.574.769,1.305,1.305,0,0,1-1.463-1.441v-4h1.6v3.366c0,.485.219.671.615.671a.983.983,0,0,0,.826-.55V14.085h1.584V19.4h-1.584Z" fill="#0b79bf"/>
      <path d="M141.634,14.085h1.6v.682a1.853,1.853,0,0,1,1.419-.814v1.54a1.429,1.429,0,0,0-.341-.044,1.4,1.4,0,0,0-1.078.528V19.4h-1.6Z" fill="#0b79bf"/>
      <path d="M148.322,18.882a1.786,1.786,0,0,1-1.4.648,1.649,1.649,0,0,1-1.661-1.76,1.575,1.575,0,0,1,1.661-1.694,1.753,1.753,0,0,1,1.4.605v-.616a.819.819,0,0,0-.935-.825,2.022,2.022,0,0,0-1.309.55l-.561-1.067a3.306,3.306,0,0,1,2.178-.77c1.21,0,2.211.517,2.211,1.947v3.5h-1.584Zm0-1.354a.871.871,0,0,0-.77-.418.688.688,0,1,0,0,1.375.871.871,0,0,0,.77-.418Z" fill="#0b79bf"/>
      <path d="M151.193,12.061h1.595V19.4h-1.595Z" fill="#0b79bf"/>
      <path d="M159.564,11.939a2.667,2.667,0,0,1,2.563,1.793l-1.452.661a1.219,1.219,0,0,0-1.111-.88c-.825,0-1.419.758-1.419,2.222s.594,2.222,1.419,2.222a1.4,1.4,0,0,0,.99-.352V16.78h-1.21V15.262h2.871V18.31a3.381,3.381,0,0,1-2.651,1.22c-1.948,0-3.235-1.507-3.235-3.8S157.616,11.939,159.564,11.939Z" fill="#0b79bf"/>
      <path d="M166.164,18.882a1.786,1.786,0,0,1-1.4.648,1.649,1.649,0,0,1-1.661-1.76,1.575,1.575,0,0,1,1.661-1.694,1.753,1.753,0,0,1,1.4.605v-.616a.819.819,0,0,0-.935-.825,2.022,2.022,0,0,0-1.309.55l-.561-1.067a3.306,3.306,0,0,1,2.178-.77c1.21,0,2.211.517,2.211,1.947v3.5h-1.584Zm0-1.354a.871.871,0,0,0-.77-.418.688.688,0,1,0,0,1.375.871.871,0,0,0,.77-.418Z" fill="#0b79bf"/>
      <path d="M169.277,17.683a2.554,2.554,0,0,0,1.507.627c.44,0,.66-.165.66-.43s-.33-.385-.792-.506c-.759-.209-1.827-.473-1.827-1.749,0-.892.716-1.672,2.069-1.672a3.184,3.184,0,0,1,1.958.671l-.616,1.066a2,2,0,0,0-1.331-.527c-.341,0-.583.143-.583.374s.286.352.748.473c.781.209,1.892.495,1.892,1.8,0,1-.836,1.716-2.145,1.716a3.152,3.152,0,0,1-2.179-.759Z" fill="#0b79bf"/>
      <path d="M176.492,12.061h1.794V16.8c0,.737.352,1.166,1.056,1.166s1.045-.429,1.045-1.166V12.061h1.793v4.73a2.846,2.846,0,0,1-5.688,0Z" fill="#0b79bf"/>
      <path d="M183.763,17.683a2.554,2.554,0,0,0,1.507.627c.44,0,.66-.165.66-.43s-.33-.385-.792-.506c-.759-.209-1.826-.473-1.826-1.749,0-.892.715-1.672,2.068-1.672a3.189,3.189,0,0,1,1.959.671l-.617,1.066a2,2,0,0,0-1.331-.527c-.341,0-.583.143-.583.374s.286.352.748.473c.781.209,1.892.495,1.892,1.8,0,1-.836,1.716-2.145,1.716a3.147,3.147,0,0,1-2.178-.759Z" fill="#0b79bf"/>
      <path d="M190.627,13.953c1.5,0,2.377,1.154,2.377,2.86v.44h-3.268a1.088,1.088,0,0,0,1.167,1.023,1.576,1.576,0,0,0,1.088-.462l.7.957a2.826,2.826,0,0,1-1.98.759,2.535,2.535,0,0,1-2.575-2.794A2.542,2.542,0,0,1,190.627,13.953Zm-.9,2.233h1.761c-.022-.429-.221-.979-.881-.979C189.967,15.207,189.758,15.757,189.725,16.186Z" fill="#0b79bf"/>
    </g>
    <g>
      <path d="M273.141,15.735c0-2.245,1.243-3.8,3.2-3.8a2.684,2.684,0,0,1,2.629,1.925l-1.463.628a1.245,1.245,0,0,0-1.166-.979c-.869,0-1.387.934-1.387,2.222s.518,2.222,1.387,2.222a1.268,1.268,0,0,0,1.166-1.056l1.474.627a2.733,2.733,0,0,1-2.64,2C274.384,19.53,273.141,17.968,273.141,15.735Z" fill="#0b79bf"/>
      <path d="M279.62,16.736a2.537,2.537,0,1,1,5.05,0,2.538,2.538,0,1,1-5.05,0Zm3.41,0c0-.77-.274-1.375-.89-1.375s-.881.6-.881,1.375.275,1.386.881,1.386S283.03,17.518,283.03,16.736Z" fill="#0b79bf"/>
      <path d="M285.923,17.683a2.554,2.554,0,0,0,1.507.627c.44,0,.66-.165.66-.43s-.33-.385-.792-.506c-.759-.209-1.826-.473-1.826-1.749,0-.892.715-1.672,2.068-1.672a3.184,3.184,0,0,1,1.958.671l-.616,1.066a2,2,0,0,0-1.331-.527c-.341,0-.583.143-.583.374s.286.352.748.473c.781.209,1.893.495,1.893,1.8,0,1-.836,1.716-2.146,1.716a3.152,3.152,0,0,1-2.179-.759Z" fill="#0b79bf"/>
      <path d="M290.84,18.023V15.471h-.671V14.085h.671V12.633h1.6v1.452h.858v1.386h-.858v2.156c0,.309.121.5.363.5a.549.549,0,0,0,.363-.121l.286,1.232a1.779,1.779,0,0,1-1.1.3A1.326,1.326,0,0,1,290.84,18.023Z" fill="#0b79bf"/>
      <path d="M296.779,21.423V14.085h1.6v.627a1.51,1.51,0,0,1,1.309-.759c1.2,0,1.991,1.012,1.991,2.783,0,1.749-.792,2.794-1.991,2.794a1.5,1.5,0,0,1-1.309-.759v2.652Zm2.366-6.062a.916.916,0,0,0-.77.484v1.782a.953.953,0,0,0,.77.5c.583,0,.9-.56.9-1.386S299.728,15.361,299.145,15.361Z" fill="#0b79bf"/>
      <path d="M304.9,13.953c1.5,0,2.377,1.154,2.377,2.86v.44h-3.268a1.088,1.088,0,0,0,1.166,1.023,1.576,1.576,0,0,0,1.089-.462l.7.957a2.822,2.822,0,0,1-1.979.759,2.535,2.535,0,0,1-2.576-2.794A2.542,2.542,0,0,1,304.9,13.953Zm-.9,2.233h1.76c-.021-.429-.22-.979-.88-.979C304.237,15.207,304.029,15.757,304,16.186Z" fill="#0b79bf"/>
      <path d="M308.241,14.085h1.6v.682a1.853,1.853,0,0,1,1.419-.814v1.54a1.429,1.429,0,0,0-.341-.044,1.4,1.4,0,0,0-1.078.528V19.4h-1.6Z" fill="#0b79bf"/>
      <path d="M317.7,18.771a1.565,1.565,0,0,1-1.32.759c-1.187,0-1.991-1.011-1.991-2.794,0-1.716.792-2.783,1.991-2.783a1.541,1.541,0,0,1,1.32.759V12.061h1.585V19.4H317.7Zm0-2.926a.973.973,0,0,0-.781-.484c-.583,0-.9.561-.9,1.375s.318,1.386.9,1.386a.986.986,0,0,0,.781-.5Z" fill="#0b79bf"/>
      <path d="M323.344,18.882a1.783,1.783,0,0,1-1.4.648,1.65,1.65,0,0,1-1.661-1.76,1.576,1.576,0,0,1,1.661-1.694,1.752,1.752,0,0,1,1.4.605v-.616a.819.819,0,0,0-.935-.825,2.022,2.022,0,0,0-1.309.55l-.561-1.067a3.306,3.306,0,0,1,2.178-.77c1.211,0,2.212.517,2.212,1.947v3.5h-1.585Zm0-1.354a.87.87,0,0,0-.77-.418.688.688,0,1,0,0,1.375.87.87,0,0,0,.77-.418Z" fill="#0b79bf"/>
      <path d="M326.754,20.146c.275,0,.473-.087.55-.307l.121-.342-1.8-5.412H327.3l.935,3.4.957-3.4h1.683l-2.057,6.105a1.774,1.774,0,0,1-1.947,1.365,2.9,2.9,0,0,1-.693-.088l.221-1.4A.7.7,0,0,0,326.754,20.146Z" fill="#0b79bf"/>
      <path d="M332.5,14.008a.985.985,0,1,1-.99.978A1,1,0,0,1,332.5,14.008Zm0,3.554a.979.979,0,1,1-.99.978A1,1,0,0,1,332.5,17.562Z" fill="#0b79bf"/>
    </g>
    <g>
      <path d="M408.814,14.7l-1.5,4.7h-.759l-1.475-4.7v4.7h-1.749V12.061H405.7l1.244,4.015,1.253-4.015h2.344V19.4h-1.727Z" fill="#0b79bf"/>
      <path d="M414.137,13.953a2.234,2.234,0,0,1,1.782.726l-.769,1.089a1.028,1.028,0,0,0-.826-.407c-.649,0-1.089.55-1.089,1.375s.44,1.386,1.089,1.386a1.008,1.008,0,0,0,.826-.418l.769,1.1a2.24,2.24,0,0,1-1.782.725,2.549,2.549,0,0,1-2.53-2.794A2.54,2.54,0,0,1,414.137,13.953Z" fill="#0b79bf"/>
      <path d="M417.084,15.471H416.4V14.085h.681v-.319a1.639,1.639,0,0,1,1.706-1.816,2.247,2.247,0,0,1,.957.188l-.264,1.176a.64.64,0,0,0-.319-.087c-.3,0-.484.2-.484.561v.3h.858v1.386h-.858V19.4h-1.6Z" fill="#0b79bf"/>
      <path d="M422.915,21.423V14.085h1.595v.627a1.512,1.512,0,0,1,1.31-.759c1.2,0,1.991,1.012,1.991,2.783,0,1.749-.792,2.794-1.991,2.794a1.5,1.5,0,0,1-1.31-.759v2.652Zm2.365-6.062a.916.916,0,0,0-.77.484v1.782a.953.953,0,0,0,.77.5c.583,0,.9-.56.9-1.386S425.863,15.361,425.28,15.361Z" fill="#0b79bf"/>
      <path d="M431.032,13.953c1.5,0,2.377,1.154,2.377,2.86v.44h-3.267a1.087,1.087,0,0,0,1.166,1.023,1.578,1.578,0,0,0,1.089-.462l.7.957a2.823,2.823,0,0,1-1.981.759,2.534,2.534,0,0,1-2.574-2.794A2.542,2.542,0,0,1,431.032,13.953Zm-.9,2.233h1.761c-.023-.429-.22-.979-.88-.979C430.372,15.207,430.163,15.757,430.13,16.186Z" fill="#0b79bf"/>
      <path d="M434.377,14.085h1.595v.682a1.853,1.853,0,0,1,1.42-.814v1.54a1.446,1.446,0,0,0-.342-.044,1.406,1.406,0,0,0-1.078.528V19.4h-1.595Z" fill="#0b79bf"/>
      <path d="M443.837,18.771a1.566,1.566,0,0,1-1.32.759c-1.188,0-1.991-1.011-1.991-2.794,0-1.716.792-2.783,1.991-2.783a1.541,1.541,0,0,1,1.32.759V12.061h1.584V19.4h-1.584Zm0-2.926a.973.973,0,0,0-.781-.484c-.583,0-.9.561-.9,1.375s.319,1.386.9,1.386a.986.986,0,0,0,.781-.5Z" fill="#0b79bf"/>
      <path d="M449.48,18.882a1.789,1.789,0,0,1-1.4.648,1.649,1.649,0,0,1-1.661-1.76,1.575,1.575,0,0,1,1.661-1.694,1.757,1.757,0,0,1,1.4.605v-.616a.82.82,0,0,0-.936-.825,2.017,2.017,0,0,0-1.308.55l-.562-1.067a3.309,3.309,0,0,1,2.179-.77c1.21,0,2.211.517,2.211,1.947v3.5H449.48Zm0-1.354a.873.873,0,0,0-.771-.418.688.688,0,1,0,0,1.375.873.873,0,0,0,.771-.418Z" fill="#0b79bf"/>
      <path d="M452.89,20.146a.512.512,0,0,0,.55-.307l.121-.342-1.805-5.412h1.684l.935,3.4.957-3.4h1.683l-2.057,6.105a1.774,1.774,0,0,1-1.947,1.365,2.89,2.89,0,0,1-.693-.088l.219-1.4A.715.715,0,0,0,452.89,20.146Z" fill="#0b79bf"/>
      <path d="M458.631,14.008a.985.985,0,1,1-.99.978A1,1,0,0,1,458.631,14.008Zm0,3.554a.979.979,0,1,1-.99.978A1,1,0,0,1,458.631,17.562Z" fill="#0b79bf"/>
    </g>
    <g>
      <path d="M69.436,30.883l-1.7,1.734-1.564-1.632,3.638-3.621h2.38V38.7H69.436Z" fill="#0b79bf"/>
      <path d="M76.8,30.883l-1.7,1.734-1.564-1.632,3.638-3.621H79.55V38.7H76.8Z" fill="#0b79bf"/>
      <path d="M83.052,35.863a1.513,1.513,0,1,1-1.529,1.513A1.54,1.54,0,0,1,83.052,35.863Z" fill="#0b79bf"/>
      <path d="M90.328,27.194c2.907,0,4.233,2.516,4.233,5.848,0,3.314-1.326,5.864-4.233,5.864s-4.25-2.55-4.25-5.864C86.078,29.71,87.421,27.194,90.328,27.194Zm0,2.431c-1.105,0-1.462,1.241-1.462,3.417,0,2.158.357,3.434,1.462,3.434,1.088,0,1.445-1.276,1.445-3.434C91.773,30.866,91.416,29.625,90.328,29.625Z" fill="#0b79bf"/>
      <path d="M108.586,31.444,106.274,38.7H105.1l-2.278-7.258V38.7h-2.7V27.364h3.655l1.921,6.2,1.937-6.2h3.621V38.7h-2.668Z" fill="#0b79bf"/>
      <path d="M116.814,30.288a3.459,3.459,0,0,1,2.753,1.122l-1.19,1.683a1.586,1.586,0,0,0-1.275-.629c-1,0-1.682.849-1.682,2.125s.679,2.141,1.682,2.141a1.555,1.555,0,0,0,1.275-.646l1.19,1.7a3.459,3.459,0,0,1-2.753,1.122c-2.312,0-3.91-1.767-3.91-4.317S114.5,30.288,116.814,30.288Z" fill="#0b79bf"/>
      <path d="M121.369,32.634h-1.053V30.492h1.053V30a2.53,2.53,0,0,1,2.635-2.8,3.473,3.473,0,0,1,1.479.289l-.408,1.819a.975.975,0,0,0-.493-.136c-.459,0-.748.306-.748.867v.459h1.326v2.142h-1.326V38.7h-2.465Z" fill="#0b79bf"/>
    </g>
    <g>
      <path d="M278.289,38.821V40.4H276.5v-1.53a5.356,5.356,0,0,1-3.366-1.444l1.309-2.109a3.809,3.809,0,0,0,2.754,1.207c.816,0,1.309-.424,1.309-.986,0-.68-.663-1-1.614-1.359-1.462-.528-3.418-1.157-3.418-3.553a3.409,3.409,0,0,1,3.026-3.365V25.647h1.785v1.581a5.31,5.31,0,0,1,2.805,1.241l-1.258,2.04a3.631,3.631,0,0,0-2.4-.935c-.783,0-1.157.391-1.157.9,0,.612.646.918,1.632,1.275,1.445.526,3.383,1.24,3.383,3.535A3.421,3.421,0,0,1,278.289,38.821Z" fill="#0b79bf"/>
      <path d="M282.709,36.492c4.352-3.909,5.015-4.572,5.015-5.66a1.234,1.234,0,0,0-1.361-1.207,3.057,3.057,0,0,0-2.413,1.207l-1.6-1.751a5.153,5.153,0,0,1,4.08-1.887c2.4,0,4.062,1.428,4.062,3.6,0,1.632-1,2.974-3.807,5.508h3.892v2.4h-7.87Z" fill="#0b79bf"/>
      <path d="M293.742,35.863a1.513,1.513,0,1,1-1.53,1.513A1.54,1.54,0,0,1,293.742,35.863Z" fill="#0b79bf"/>
      <path d="M301.663,27.194a4.371,4.371,0,0,1,3.027,1.139l-1.276,2.006a2.126,2.126,0,0,0-1.717-.765c-1.223,0-2.141,1.24-2.141,2.89v.119a2.749,2.749,0,0,1,2.362-1.326c1.718,0,3.264,1.292,3.264,3.706a3.784,3.784,0,0,1-3.944,3.943c-3.144,0-4.47-2.635-4.47-5.847C296.768,29.489,298.638,27.194,301.663,27.194ZM301,33.552a1.858,1.858,0,0,0-1.462.884c.068.968.442,2.09,1.564,2.09a1.494,1.494,0,0,0-.1-2.974Z" fill="#0b79bf"/>
      <path d="M307.767,35.388a3.357,3.357,0,0,0,2.448,1.138c1.088,0,1.564-.544,1.564-1.223,0-.817-.595-1.157-1.667-1.157-.39,0-.952.018-1.138.035V31.767c.186.017.8.017,1.07.017.986,0,1.581-.357,1.581-1.071,0-.748-.611-1.139-1.529-1.139a3.058,3.058,0,0,0-2.261,1.054l-1.5-1.581a4.781,4.781,0,0,1,3.994-1.853c2.448,0,3.978,1.105,3.978,3.094a2.664,2.664,0,0,1-2.193,2.566,2.729,2.729,0,0,1,2.363,2.7c0,1.988-1.649,3.348-4.148,3.348a5.142,5.142,0,0,1-4.147-1.8Z" fill="#0b79bf"/>
    </g>
    <g>
      <path d="M407.428,27.194c2.906,0,4.232,2.516,4.232,5.848,0,3.314-1.326,5.864-4.232,5.864s-4.25-2.55-4.25-5.864C403.178,29.71,404.521,27.194,407.428,27.194Zm0,2.431c-1.106,0-1.462,1.241-1.462,3.417,0,2.158.356,3.434,1.462,3.434,1.088,0,1.444-1.276,1.444-3.434C408.872,30.866,408.516,29.625,407.428,29.625Z" fill="#0b79bf"/>
      <path d="M414.381,35.863a1.513,1.513,0,1,1-1.53,1.513A1.54,1.54,0,0,1,414.381,35.863Z" fill="#0b79bf"/>
      <path d="M418.834,35.388a3.36,3.36,0,0,0,2.448,1.138c1.088,0,1.564-.544,1.564-1.223,0-.817-.6-1.157-1.666-1.157-.391,0-.951.018-1.139.035V31.767c.188.017.8.017,1.071.017.986,0,1.581-.357,1.581-1.071,0-.748-.612-1.139-1.53-1.139a3.057,3.057,0,0,0-2.26,1.054l-1.5-1.581a4.784,4.784,0,0,1,4-1.853c2.447,0,3.977,1.105,3.977,3.094a2.665,2.665,0,0,1-2.193,2.566,2.729,2.729,0,0,1,2.363,2.7c0,1.988-1.649,3.348-4.147,3.348a5.144,5.144,0,0,1-4.149-1.8Z" fill="#0b79bf"/>
      <path d="M428.525,35.422a3.151,3.151,0,0,0,2.362,1.1,1.436,1.436,0,0,0,1.547-1.478,1.333,1.333,0,0,0-1.445-1.48,2.158,2.158,0,0,0-1.768.884l-1.972-.475V27.364h7.31v2.363h-4.607v2.431a2.86,2.86,0,0,1,2.108-.9c1.751,0,3.178,1.36,3.178,3.688,0,2.364-1.631,3.961-4.266,3.961a4.946,4.946,0,0,1-4.045-1.734Z" fill="#0b79bf"/>
      <path d="M438.13,35.422a3.151,3.151,0,0,0,2.362,1.1,1.436,1.436,0,0,0,1.547-1.478,1.333,1.333,0,0,0-1.444-1.48,2.16,2.16,0,0,0-1.769.884l-1.971-.475V27.364h7.309v2.363h-4.606v2.431a2.856,2.856,0,0,1,2.107-.9c1.751,0,3.179,1.36,3.179,3.688,0,2.364-1.632,3.961-4.267,3.961a4.946,4.946,0,0,1-4.045-1.734Z" fill="#0b79bf"/>
    </g>
    <path d="M382.308,17.529c-.714,1.159-6.172,11.17-6.172,15.371,0,3.419,2.144,5.24,4.3,6.516-.687-.89-2.419-2.888-2.419-5.22,0-5.354,4.954-11.453,4.954-11.453-.006-.028-1.32,7.293,1.806,10.487,1.758,1.8.186,5.314-.488,6.186,1.9-1.333,4.219-2.6,4.192-6.516S382.817,18.577,382.308,17.529Z" fill="#0b79bf"/>
    <g>
      <polygon points="44.056 29.679 35.654 22.356 27.254 29.679 27.254 38.81 33.952 38.81 34.065 33.928 37.528 33.928 37.414 38.81 44.056 38.81 44.056 29.679" fill="#0b79bf"/>
      <polygon points="47.039 27.979 35.654 18.136 24.271 27.979 25.468 29.364 35.654 20.556 45.841 29.364 47.039 27.979 47.039 27.979" fill="#0b79bf"/>
    </g>
    <g>
      <path d="M262.886,21.954a1.631,1.631,0,0,1,.064.45V36.261a1.645,1.645,0,0,1-1.644,1.644H246.511a1.615,1.615,0,0,1-.22-.015,1.643,1.643,0,0,0,1.581,1.194h14.794a1.645,1.645,0,0,0,1.644-1.644V23.582A1.644,1.644,0,0,0,262.886,21.954Z" fill="#0b79bf"/>
      <g>
        <path d="M255.3,22.205h.411c.454,0,.822-.5.822-1.126V18.987c0-.622-.368-1.126-.822-1.126H255.3c-.453,0-.822.5-.822,1.126v2.092C254.474,21.7,254.843,22.205,255.3,22.205Z" fill="#0b79bf"/>
        <path d="M249.89,22.205h.411c.454,0,.822-.5.822-1.126V18.987c0-.622-.368-1.126-.822-1.126h-.411c-.453,0-.821.5-.821,1.126v2.092C249.069,21.7,249.437,22.205,249.89,22.205Z" fill="#0b79bf"/>
        <path d="M260.234,20.033H257.6v1.526A1.645,1.645,0,0,1,255.95,23.2h-.821a1.644,1.644,0,0,1-1.644-1.644V20.033h-1.3v1.526a1.645,1.645,0,0,1-1.645,1.644h-.822a1.644,1.644,0,0,1-1.644-1.644V20.033h-2.64a1.644,1.644,0,0,0-1.643,1.644V35.534a1.644,1.644,0,0,0,1.643,1.644h14.795a1.645,1.645,0,0,0,1.644-1.644V21.677A1.644,1.644,0,0,0,260.234,20.033Zm.362,15.6H245.077V24.728H260.6V35.635Z" fill="#0b79bf"/>
        <path d="M249.763,32.759a.91.91,0,0,1-.649-.24,1.587,1.587,0,0,1-.377-.861l-2.056.273a3.187,3.187,0,0,0,.579,1.148,2.375,2.375,0,0,0,.959.7,4.35,4.35,0,0,0,1.595.238,3.734,3.734,0,0,0,1.673-.321,2.25,2.25,0,0,0,.973-.915,2.448,2.448,0,0,0,.339-1.24,1.8,1.8,0,0,0-.2-.886,1.6,1.6,0,0,0-.574-.6,2.315,2.315,0,0,0-.656-.247,2.229,2.229,0,0,0,.793-.683,1.515,1.515,0,0,0,.263-.868,1.7,1.7,0,0,0-.646-1.361,3.265,3.265,0,0,0-2.1-.541,3.31,3.31,0,0,0-1.953.495,2.444,2.444,0,0,0-.932,1.426l1.945.349a1.335,1.335,0,0,1,.308-.771.813.813,0,0,1,.591-.221.751.751,0,0,1,.556.2.732.732,0,0,1,.2.541.819.819,0,0,1-.269.611.946.946,0,0,1-.675.258,1.941,1.941,0,0,1-.268-.025l-.106,1.47a2.554,2.554,0,0,1,.667-.121.941.941,0,0,1,.72.282,1.123,1.123,0,0,1,.265.8,1.163,1.163,0,0,1-.275.809A.894.894,0,0,1,249.763,32.759Z" fill="#0b79bf"/>
        <path d="M256.224,28.949v4.937h2.081V26.351h-1.7a3.315,3.315,0,0,1-.909,1.173,4.991,4.991,0,0,1-1.631.813v1.689a7.624,7.624,0,0,0,1.185-.455A6.311,6.311,0,0,0,256.224,28.949Z" fill="#0b79bf"/>
      </g>
    </g>
  </g>
</svg>
