<svg xmlns="http://www.w3.org/2000/svg" width="156.869" height="213.887" viewBox="0 0 156.869 213.887">
  <g>
    <rect width="156.869" height="88.318" fill="#f2f0ec"/>
    <g>
      <path d="M22.268,28.729a1.3,1.3,0,0,0,.836.33.789.789,0,0,0,.847-.859V23.162h1.771v5.094a2.179,2.179,0,0,1-2.442,2.376,2.478,2.478,0,0,1-1.606-.506Z" fill="#0b79bf"/>
      <path d="M29.836,29.984a1.785,1.785,0,0,1-1.4.648,1.649,1.649,0,0,1-1.661-1.76,1.575,1.575,0,0,1,1.661-1.694,1.756,1.756,0,0,1,1.4.6v-.615a.819.819,0,0,0-.935-.825,2.022,2.022,0,0,0-1.309.55l-.561-1.068a3.31,3.31,0,0,1,2.178-.769c1.211,0,2.212.517,2.212,1.947v3.5H29.836Zm0-1.354a.871.871,0,0,0-.77-.418.688.688,0,1,0,0,1.375.871.871,0,0,0,.77-.418Z" fill="#0b79bf"/>
      <path d="M35.743,27.145c0-.485-.23-.682-.616-.682a.975.975,0,0,0-.824.561V30.5h-1.6V25.187h1.6v.66a1.935,1.935,0,0,1,1.561-.792,1.329,1.329,0,0,1,1.475,1.463V30.5h-1.6Z" fill="#0b79bf"/>
      <path d="M41.661,29.863a1.98,1.98,0,0,1-1.573.769,1.305,1.305,0,0,1-1.463-1.441v-4h1.6v3.366c0,.484.219.671.615.671a.982.982,0,0,0,.825-.55V25.187h1.585V30.5H41.661Z" fill="#0b79bf"/>
      <path d="M47.315,29.984a1.786,1.786,0,0,1-1.4.648,1.649,1.649,0,0,1-1.661-1.76,1.575,1.575,0,0,1,1.661-1.694,1.756,1.756,0,0,1,1.4.6v-.615a.819.819,0,0,0-.935-.825,2.022,2.022,0,0,0-1.309.55l-.561-1.068a3.31,3.31,0,0,1,2.178-.769c1.21,0,2.211.517,2.211,1.947v3.5H47.315Zm0-1.354a.871.871,0,0,0-.77-.418.688.688,0,1,0,0,1.375.871.871,0,0,0,.77-.418Z" fill="#0b79bf"/>
      <path d="M50.186,25.187h1.595v.681a1.856,1.856,0,0,1,1.419-.813V26.6a1.429,1.429,0,0,0-.341-.044,1.407,1.407,0,0,0-1.078.527V30.5H50.186Z" fill="#0b79bf"/>
      <path d="M54.64,31.248c.276,0,.473-.088.55-.307l.121-.342-1.8-5.412H55.19l.936,3.4.957-3.4h1.683l-2.057,6.105a1.772,1.772,0,0,1-1.947,1.364,2.905,2.905,0,0,1-.694-.087l.221-1.4A.707.707,0,0,0,54.64,31.248Z" fill="#0b79bf"/>
      <path d="M63.793,26.276V30.5H62.021V23.162h1.816l2.112,4.016V23.162h1.76V30.5H66.026Z" fill="#0b79bf"/>
      <path d="M71.834,29.984a1.789,1.789,0,0,1-1.4.648,1.649,1.649,0,0,1-1.661-1.76,1.575,1.575,0,0,1,1.661-1.694,1.759,1.759,0,0,1,1.4.6v-.615c0-.5-.341-.825-.936-.825a2.019,2.019,0,0,0-1.308.55l-.562-1.068a3.315,3.315,0,0,1,2.179-.769c1.21,0,2.211.517,2.211,1.947v3.5H71.834Zm0-1.354a.871.871,0,0,0-.771-.418.688.688,0,1,0,0,1.375.871.871,0,0,0,.771-.418Z" fill="#0b79bf"/>
      <path d="M74.968,29.125V26.573H74.3V25.187h.671V23.735h1.595v1.452h.859v1.386h-.859v2.156c0,.308.121.5.364.5a.548.548,0,0,0,.362-.121l.286,1.232a1.777,1.777,0,0,1-1.1.3A1.326,1.326,0,0,1,74.968,29.125Z" fill="#0b79bf"/>
      <path d="M81.436,29.863a1.983,1.983,0,0,1-1.573.769A1.305,1.305,0,0,1,78.4,29.191v-4H80v3.366c0,.484.22.671.616.671a.984.984,0,0,0,.825-.55V25.187H83.02V30.5H81.436Z" fill="#0b79bf"/>
      <path d="M84.318,25.187h1.595v.681a1.856,1.856,0,0,1,1.419-.813V26.6a1.429,1.429,0,0,0-.341-.044,1.407,1.407,0,0,0-1.078.527V30.5H84.318Z" fill="#0b79bf"/>
      <path d="M91.006,29.984a1.785,1.785,0,0,1-1.4.648,1.649,1.649,0,0,1-1.661-1.76,1.575,1.575,0,0,1,1.661-1.694,1.756,1.756,0,0,1,1.4.6v-.615a.819.819,0,0,0-.935-.825,2.022,2.022,0,0,0-1.309.55L88.2,25.824a3.31,3.31,0,0,1,2.178-.769c1.211,0,2.212.517,2.212,1.947v3.5H91.006Zm0-1.354a.871.871,0,0,0-.77-.418.688.688,0,1,0,0,1.375.871.871,0,0,0,.77-.418Z" fill="#0b79bf"/>
      <path d="M93.877,23.162h1.595V30.5H93.877Z" fill="#0b79bf"/>
      <path d="M102.248,23.041a2.665,2.665,0,0,1,2.563,1.793l-1.452.66a1.22,1.22,0,0,0-1.111-.88c-.825,0-1.419.759-1.419,2.223s.594,2.222,1.419,2.222a1.4,1.4,0,0,0,.99-.352v-.825h-1.21V26.364H104.9v3.047a3.382,3.382,0,0,1-2.651,1.221c-1.947,0-3.234-1.507-3.234-3.8S100.3,23.041,102.248,23.041Z" fill="#0b79bf"/>
      <path d="M108.847,29.984a1.783,1.783,0,0,1-1.4.648,1.649,1.649,0,0,1-1.661-1.76,1.575,1.575,0,0,1,1.661-1.694,1.752,1.752,0,0,1,1.4.6v-.615a.818.818,0,0,0-.934-.825,2.024,2.024,0,0,0-1.31.55l-.56-1.068a3.308,3.308,0,0,1,2.178-.769c1.21,0,2.211.517,2.211,1.947v3.5h-1.585Zm0-1.354a.868.868,0,0,0-.769-.418.688.688,0,1,0,0,1.375.868.868,0,0,0,.769-.418Z" fill="#0b79bf"/>
      <path d="M111.96,28.784a2.548,2.548,0,0,0,1.508.627c.439,0,.66-.165.66-.429s-.33-.385-.792-.506c-.76-.209-1.827-.473-1.827-1.749,0-.892.715-1.672,2.068-1.672a3.183,3.183,0,0,1,1.959.671l-.616,1.066a2.006,2.006,0,0,0-1.331-.527c-.342,0-.583.142-.583.374s.285.351.748.473c.781.209,1.891.5,1.891,1.8,0,1-.836,1.716-2.144,1.716a3.153,3.153,0,0,1-2.179-.759Z" fill="#0b79bf"/>
      <path d="M119.176,23.162h1.794V27.9c0,.737.351,1.166,1.055,1.166s1.045-.429,1.045-1.166V23.162h1.794v4.731a2.846,2.846,0,0,1-5.688,0Z" fill="#0b79bf"/>
      <path d="M126.447,28.784a2.548,2.548,0,0,0,1.507.627c.44,0,.66-.165.66-.429s-.33-.385-.792-.506C127.063,28.267,126,28,126,26.727c0-.892.715-1.672,2.068-1.672a3.177,3.177,0,0,1,1.958.671l-.616,1.066a2,2,0,0,0-1.331-.527c-.341,0-.583.142-.583.374s.286.351.748.473c.781.209,1.893.5,1.893,1.8,0,1-.836,1.716-2.146,1.716a3.156,3.156,0,0,1-2.179-.759Z" fill="#0b79bf"/>
      <path d="M133.311,25.055c1.5,0,2.376,1.154,2.376,2.86v.44H132.42a1.088,1.088,0,0,0,1.167,1.023,1.582,1.582,0,0,0,1.089-.462l.7.957a2.825,2.825,0,0,1-1.981.759,2.535,2.535,0,0,1-2.574-2.794A2.542,2.542,0,0,1,133.311,25.055Zm-.9,2.232h1.761c-.023-.428-.221-.978-.881-.978C132.651,26.309,132.442,26.859,132.409,27.287Z" fill="#0b79bf"/>
    </g>
    <g>
      <path d="M65.784,55.684c4.352-3.909,5.015-4.572,5.015-5.66a1.233,1.233,0,0,0-1.36-1.207,3.058,3.058,0,0,0-2.414,1.207l-1.6-1.751a5.146,5.146,0,0,1,4.079-1.887c2.4,0,4.063,1.428,4.063,3.6,0,1.632-1,2.975-3.807,5.508h3.892v2.4H65.784Z" fill="#0b79bf"/>
      <path d="M76.817,55.055a1.513,1.513,0,1,1-1.53,1.513A1.539,1.539,0,0,1,76.817,55.055Z" fill="#0b79bf"/>
      <path d="M81.969,52.046A2.792,2.792,0,0,1,80,49.377c0-2.124,2.057-2.991,4.028-2.991,1.955,0,4.029.867,4.029,2.991a2.808,2.808,0,0,1-1.989,2.669,3.243,3.243,0,0,1,2.142,2.89c0,2.091-1.8,3.162-4.182,3.162-2.4,0-4.181-1.054-4.181-3.145A3.228,3.228,0,0,1,81.969,52.046Zm2.056,1.088c-.476.068-1.428.562-1.428,1.445,0,.765.612,1.173,1.428,1.173.8,0,1.428-.408,1.428-1.173C85.453,53.7,84.484,53.2,84.025,53.134Zm0-4.4c-.8,0-1.275.424-1.275,1.122,0,.764.85,1.173,1.275,1.258.425-.085,1.275-.494,1.275-1.258C85.3,49.156,84.807,48.732,84.025,48.732Z" fill="#0b79bf"/>
      <path d="M92.338,50.074l-1.7,1.735-1.565-1.632,3.638-3.621h2.38V57.894H92.338Z" fill="#0b79bf"/>
      <path d="M106.666,51.753l-2.027,6.141h-.456l-2.014-6.141v6.141h-1.14v-8H102.6l1.811,5.517,1.835-5.517h1.548v8h-1.128Z" fill="#0b79bf"/>
      <path d="M111.78,51.957a2.041,2.041,0,0,1,1.715.78l-.54.7a1.276,1.276,0,0,0-1.079-.564c-.972,0-1.5.96-1.5,2.123s.527,2.135,1.5,2.135a1.3,1.3,0,0,0,1.079-.563l.54.7a2.01,2.01,0,0,1-1.715.779c-1.512,0-2.471-1.306-2.471-3.046S110.268,51.957,111.78,51.957Z" fill="#0b79bf"/>
      <path d="M115.01,53h-.756v-.9h.756v-.623a1.5,1.5,0,0,1,1.486-1.7,1.742,1.742,0,0,1,.816.179l-.228.791a.787.787,0,0,0-.372-.095c-.419,0-.671.3-.671.828V52.1h.971V53h-.971v4.894H115.01Z" fill="#0b79bf"/>
    </g>
    <path d="M0,91.562H156.869a0,0,0,0,1,0,0V193.887a20,20,0,0,1-20,20H0a0,0,0,0,1,0,0V91.562A0,0,0,0,1,0,91.562Z" fill="#f2f0ec"/>
    <g>
      <path d="M62.327,113.214c0-2.245,1.243-3.8,3.2-3.8a2.684,2.684,0,0,1,2.629,1.925l-1.463.628a1.245,1.245,0,0,0-1.166-.98c-.869,0-1.387.935-1.387,2.223s.518,2.222,1.387,2.222a1.268,1.268,0,0,0,1.166-1.056l1.474.627a2.734,2.734,0,0,1-2.64,2C63.57,117.009,62.327,115.447,62.327,113.214Z" fill="#0b79bf"/>
      <path d="M68.806,114.215a2.538,2.538,0,1,1,2.52,2.794A2.533,2.533,0,0,1,68.806,114.215Zm3.411,0c0-.77-.275-1.375-.891-1.375s-.881.6-.881,1.375.276,1.386.881,1.386S72.217,115,72.217,114.215Z" fill="#0b79bf"/>
      <path d="M75.109,115.161a2.548,2.548,0,0,0,1.507.627c.44,0,.66-.165.66-.429s-.33-.385-.792-.506c-.759-.209-1.826-.473-1.826-1.749,0-.892.715-1.672,2.068-1.672a3.175,3.175,0,0,1,1.958.671l-.616,1.066a2,2,0,0,0-1.331-.527c-.341,0-.583.142-.583.374s.286.351.748.473c.781.209,1.893.495,1.893,1.8,0,1-.836,1.716-2.146,1.716a3.152,3.152,0,0,1-2.178-.759Z" fill="#0b79bf"/>
      <path d="M80.026,115.5v-2.553h-.671v-1.385h.671v-1.452h1.595v1.452h.858v1.385h-.858v2.157c0,.308.121.5.363.5a.547.547,0,0,0,.363-.121l.287,1.232a1.782,1.782,0,0,1-1.1.3A1.327,1.327,0,0,1,80.026,115.5Z" fill="#0b79bf"/>
      <path d="M85.966,118.9v-7.338h1.6v.627a1.508,1.508,0,0,1,1.309-.759c1.2,0,1.991,1.012,1.991,2.783,0,1.749-.792,2.794-1.991,2.794a1.5,1.5,0,0,1-1.309-.759V118.9Zm2.365-6.062a.917.917,0,0,0-.77.483v1.783a.953.953,0,0,0,.77.5c.583,0,.9-.561.9-1.386S88.914,112.84,88.331,112.84Z" fill="#0b79bf"/>
      <path d="M94.084,111.432c1.5,0,2.377,1.154,2.377,2.86v.44H93.193a1.088,1.088,0,0,0,1.166,1.023,1.579,1.579,0,0,0,1.089-.462l.7.957a2.82,2.82,0,0,1-1.979.759,2.8,2.8,0,0,1-.089-5.577Zm-.9,2.232h1.76c-.021-.428-.22-.978-.88-.978C93.424,112.686,93.215,113.236,93.182,113.664Z" fill="#0b79bf"/>
      <path d="M97.428,111.564h1.595v.681a1.855,1.855,0,0,1,1.419-.813v1.54a1.38,1.38,0,0,0-.341-.044,1.407,1.407,0,0,0-1.078.527v3.422H97.428Z" fill="#0b79bf"/>
      <path d="M106.888,116.25a1.567,1.567,0,0,1-1.321.759c-1.187,0-1.991-1.012-1.991-2.794,0-1.717.792-2.783,1.991-2.783a1.54,1.54,0,0,1,1.321.759v-2.652h1.584v7.338h-1.584Zm0-2.927a.975.975,0,0,0-.782-.483c-.583,0-.9.561-.9,1.375s.318,1.386.9,1.386a.989.989,0,0,0,.782-.5Z" fill="#0b79bf"/>
      <path d="M112.53,116.361a1.783,1.783,0,0,1-1.4.648,1.65,1.65,0,0,1-1.662-1.76,1.576,1.576,0,0,1,1.662-1.694,1.754,1.754,0,0,1,1.4.6v-.615a.819.819,0,0,0-.934-.825,2.022,2.022,0,0,0-1.31.55l-.561-1.068a3.31,3.31,0,0,1,2.178-.769c1.211,0,2.212.516,2.212,1.947v3.5H112.53Zm0-1.354a.869.869,0,0,0-.769-.418.688.688,0,1,0,0,1.375.869.869,0,0,0,.769-.418Z" fill="#0b79bf"/>
      <path d="M115.94,117.625c.276,0,.473-.088.55-.307l.121-.342-1.8-5.412h1.683l.936,3.4.957-3.4h1.682l-2.056,6.105a1.773,1.773,0,0,1-1.948,1.364,2.9,2.9,0,0,1-.693-.087l.221-1.4A.707.707,0,0,0,115.94,117.625Z" fill="#0b79bf"/>
      <path d="M121.681,111.487a.984.984,0,1,1-.99.978A1,1,0,0,1,121.681,111.487Zm0,3.553a.979.979,0,1,1-.99.979A1,1,0,0,1,121.681,115.04Z" fill="#0b79bf"/>
    </g>
    <g>
      <path d="M68.168,158.425l-1.5,4.7h-.759l-1.475-4.7v4.7H62.689v-7.338h2.366L66.3,159.8l1.254-4.016H69.9v7.338H68.168Z" fill="#0b79bf"/>
      <path d="M73.491,157.677a2.234,2.234,0,0,1,1.782.726l-.769,1.088a1.03,1.03,0,0,0-.825-.406c-.65,0-1.09.55-1.09,1.375s.44,1.386,1.09,1.386a1.008,1.008,0,0,0,.825-.418l.769,1.1a2.24,2.24,0,0,1-1.782.725,2.8,2.8,0,0,1,0-5.577Z" fill="#0b79bf"/>
      <path d="M76.438,159.2h-.681v-1.386h.681v-.32a1.638,1.638,0,0,1,1.706-1.815,2.232,2.232,0,0,1,.957.188l-.264,1.176a.641.641,0,0,0-.319-.088c-.3,0-.484.2-.484.562v.3h.858V159.2h-.858v3.927h-1.6Z" fill="#0b79bf"/>
      <path d="M82.269,165.147v-7.338h1.595v.627a1.511,1.511,0,0,1,1.31-.759c1.2,0,1.991,1.012,1.991,2.783,0,1.749-.792,2.794-1.991,2.794a1.5,1.5,0,0,1-1.31-.759v2.652Zm2.366-6.062a.917.917,0,0,0-.771.484v1.782a.953.953,0,0,0,.771.5c.583,0,.9-.561.9-1.386S85.218,159.085,84.635,159.085Z" fill="#0b79bf"/>
      <path d="M90.387,157.677c1.5,0,2.377,1.154,2.377,2.86v.44H89.5A1.088,1.088,0,0,0,90.662,162a1.582,1.582,0,0,0,1.089-.462l.7.957a2.823,2.823,0,0,1-1.981.759,2.8,2.8,0,0,1-.087-5.577Zm-.9,2.232h1.761c-.023-.428-.22-.978-.88-.978C89.726,158.931,89.517,159.481,89.484,159.909Z" fill="#0b79bf"/>
      <path d="M93.731,157.809h1.595v.681a1.856,1.856,0,0,1,1.42-.813v1.54a1.446,1.446,0,0,0-.342-.044,1.409,1.409,0,0,0-1.078.527v3.422H93.731Z" fill="#0b79bf"/>
      <path d="M103.191,162.5a1.566,1.566,0,0,1-1.32.759c-1.188,0-1.991-1.012-1.991-2.794,0-1.717.792-2.783,1.991-2.783a1.539,1.539,0,0,1,1.32.759v-2.652h1.584v7.338h-1.584Zm0-2.926a.971.971,0,0,0-.781-.484c-.583,0-.9.561-.9,1.375s.319,1.386.9,1.386a.986.986,0,0,0,.781-.5Z" fill="#0b79bf"/>
      <path d="M108.834,162.606a1.789,1.789,0,0,1-1.4.648,1.649,1.649,0,0,1-1.661-1.76,1.575,1.575,0,0,1,1.661-1.694,1.757,1.757,0,0,1,1.4.6v-.616a.82.82,0,0,0-.936-.825,2.017,2.017,0,0,0-1.308.55l-.562-1.067a3.309,3.309,0,0,1,2.179-.77c1.21,0,2.211.517,2.211,1.947v3.5h-1.584Zm0-1.354a.871.871,0,0,0-.771-.418.688.688,0,1,0,0,1.375.871.871,0,0,0,.771-.418Z" fill="#0b79bf"/>
      <path d="M112.244,163.87a.512.512,0,0,0,.55-.307l.121-.342-1.805-5.412h1.684l.935,3.4.957-3.4h1.683l-2.057,6.1a1.774,1.774,0,0,1-1.947,1.365,2.89,2.89,0,0,1-.693-.088l.219-1.4A.715.715,0,0,0,112.244,163.87Z" fill="#0b79bf"/>
      <path d="M117.985,157.732a.984.984,0,1,1-.99.978A1,1,0,0,1,117.985,157.732Zm0,3.553a.979.979,0,1,1-.99.979A1,1,0,0,1,117.985,161.285Z" fill="#0b79bf"/>
    </g>
    <g>
      <path d="M67.475,136.3v1.581H65.69v-1.53a5.354,5.354,0,0,1-3.365-1.445l1.309-2.108a3.807,3.807,0,0,0,2.754,1.207c.815,0,1.308-.425,1.308-.986,0-.68-.663-1-1.614-1.36-1.462-.527-3.417-1.156-3.417-3.552a3.409,3.409,0,0,1,3.025-3.366v-1.615h1.785v1.581a5.3,5.3,0,0,1,2.805,1.241l-1.258,2.04a3.631,3.631,0,0,0-2.4-.935c-.782,0-1.156.391-1.156.9,0,.613.645.918,1.631,1.276,1.445.526,3.383,1.24,3.383,3.535A3.421,3.421,0,0,1,67.475,136.3Z" fill="#0b79bf"/>
      <path d="M73.765,130.333a2.793,2.793,0,0,1-1.971-2.669c0-2.124,2.056-2.991,4.028-2.991,1.955,0,4.028.867,4.028,2.991a2.807,2.807,0,0,1-1.988,2.669A3.243,3.243,0,0,1,80,133.223c0,2.091-1.8,3.162-4.182,3.162-2.4,0-4.182-1.054-4.182-3.145A3.23,3.23,0,0,1,73.765,130.333Zm2.057,1.088c-.476.068-1.428.562-1.428,1.445,0,.765.612,1.173,1.428,1.173.8,0,1.428-.408,1.428-1.173C77.25,131.983,76.281,131.489,75.822,131.421Zm0-4.4c-.8,0-1.275.425-1.275,1.122,0,.765.85,1.173,1.275,1.258.425-.085,1.275-.493,1.275-1.258C77.1,127.444,76.6,127.019,75.822,127.019Z" fill="#0b79bf"/>
      <path d="M83.03,133.342a1.513,1.513,0,1,1-1.529,1.513A1.539,1.539,0,0,1,83.03,133.342Z" fill="#0b79bf"/>
      <path d="M87.484,132.866a3.359,3.359,0,0,0,2.448,1.139c1.088,0,1.564-.544,1.564-1.224,0-.816-.595-1.156-1.666-1.156-.391,0-.952.018-1.139.034v-2.414c.187.018.8.018,1.071.018.986,0,1.581-.357,1.581-1.071,0-.748-.612-1.139-1.53-1.139a3.056,3.056,0,0,0-2.26,1.054l-1.5-1.581a4.783,4.783,0,0,1,4-1.853c2.448,0,3.977,1.105,3.977,3.094a2.664,2.664,0,0,1-2.192,2.566,2.728,2.728,0,0,1,2.362,2.7c0,1.989-1.648,3.349-4.147,3.349a5.143,5.143,0,0,1-4.148-1.8Z" fill="#0b79bf"/>
      <path d="M100.047,134.005H95.372v-2.261l3.91-6.9H102.8v6.766h1.1v2.4h-1.1v2.176h-2.754Zm-2.21-2.4h2.21v-4.03Z" fill="#0b79bf"/>
    </g>
    <g>
      <path d="M66.782,170.918c2.906,0,4.232,2.516,4.232,5.848,0,3.314-1.326,5.864-4.232,5.864s-4.25-2.55-4.25-5.864C62.532,173.434,63.875,170.918,66.782,170.918Zm0,2.431c-1.1,0-1.462,1.241-1.462,3.417,0,2.158.357,3.433,1.462,3.433,1.088,0,1.444-1.275,1.444-3.433C68.226,174.59,67.87,173.349,66.782,173.349Z" fill="#0b79bf"/>
      <path d="M73.735,179.587a1.513,1.513,0,1,1-1.53,1.513A1.539,1.539,0,0,1,73.735,179.587Z" fill="#0b79bf"/>
      <path d="M78.461,179.468a2.172,2.172,0,0,0,1.717.766c1.223,0,2.158-1.191,2.158-2.873v-.136a2.775,2.775,0,0,1-2.363,1.325c-1.733,0-3.28-1.291-3.28-3.705a3.793,3.793,0,0,1,3.944-3.943c3.144,0,4.47,2.634,4.47,5.846,0,3.571-1.87,5.865-4.895,5.865a4.4,4.4,0,0,1-3.027-1.139Zm2.328-6.187a1.338,1.338,0,0,0-1.309,1.445,1.357,1.357,0,0,0,1.394,1.53,1.816,1.816,0,0,0,1.462-.885C82.268,174.4,81.929,173.281,80.789,173.281Z" fill="#0b79bf"/>
      <path d="M91.227,170.918a4.368,4.368,0,0,1,3.026,1.139l-1.275,2.006a2.125,2.125,0,0,0-1.716-.765c-1.224,0-2.142,1.24-2.142,2.89v.119a2.748,2.748,0,0,1,2.362-1.326c1.717,0,3.264,1.292,3.264,3.706A3.784,3.784,0,0,1,90.8,182.63c-3.145,0-4.471-2.635-4.471-5.848C86.332,173.213,88.2,170.918,91.227,170.918Zm-.663,6.358a1.862,1.862,0,0,0-1.462.883c.069.969.443,2.091,1.565,2.091a1.494,1.494,0,0,0-.1-2.974Z" fill="#0b79bf"/>
      <path d="M97.6,179.468a2.175,2.175,0,0,0,1.717.766c1.224,0,2.158-1.191,2.158-2.873v-.136a2.772,2.772,0,0,1-2.362,1.325c-1.733,0-3.28-1.291-3.28-3.705a3.792,3.792,0,0,1,3.943-3.943c3.145,0,4.471,2.634,4.471,5.846,0,3.571-1.87,5.865-4.9,5.865a4.395,4.395,0,0,1-3.026-1.139Zm2.328-6.187a1.338,1.338,0,0,0-1.308,1.445,1.357,1.357,0,0,0,1.393,1.53,1.814,1.814,0,0,0,1.462-.885C101.411,174.4,101.071,173.281,99.931,173.281Z" fill="#0b79bf"/>
    </g>
    <g>
      <path d="M47.484,119.433a1.662,1.662,0,0,1,.064.449v13.857a1.645,1.645,0,0,1-1.645,1.644H31.109a1.6,1.6,0,0,1-.22-.014,1.643,1.643,0,0,0,1.581,1.194H47.264a1.645,1.645,0,0,0,1.644-1.644V121.061A1.644,1.644,0,0,0,47.484,119.433Z" fill="#0b79bf"/>
      <g>
        <path d="M39.894,119.683h.411c.454,0,.821-.5.821-1.125v-2.092c0-.622-.367-1.127-.821-1.127h-.411c-.454,0-.822.5-.822,1.127v2.092C39.072,119.179,39.44,119.683,39.894,119.683Z" fill="#0b79bf"/>
        <path d="M34.488,119.683H34.9c.454,0,.822-.5.822-1.125v-2.092c0-.622-.368-1.127-.822-1.127h-.411c-.454,0-.822.5-.822,1.127v2.092C33.667,119.179,34.035,119.683,34.488,119.683Z" fill="#0b79bf"/>
        <path d="M44.832,117.512h-2.64v1.526a1.644,1.644,0,0,1-1.644,1.644h-.822a1.644,1.644,0,0,1-1.643-1.644v-1.526h-1.3v1.526a1.644,1.644,0,0,1-1.645,1.644h-.821a1.644,1.644,0,0,1-1.644-1.644v-1.526h-2.64a1.644,1.644,0,0,0-1.644,1.643v13.857a1.645,1.645,0,0,0,1.644,1.645h14.8a1.645,1.645,0,0,0,1.644-1.645V119.155A1.644,1.644,0,0,0,44.832,117.512Zm.362,15.6H29.675V122.207H45.194v10.906Z" fill="#0b79bf"/>
        <path d="M34.36,130.237a.911.911,0,0,1-.649-.239,1.6,1.6,0,0,1-.376-.862l-2.056.273a3.166,3.166,0,0,0,.578,1.149,2.385,2.385,0,0,0,.96.695,4.349,4.349,0,0,0,1.595.237,3.716,3.716,0,0,0,1.672-.321,2.25,2.25,0,0,0,.974-.914,2.453,2.453,0,0,0,.339-1.24,1.8,1.8,0,0,0-.2-.887,1.608,1.608,0,0,0-.574-.6,2.285,2.285,0,0,0-.656-.247,2.239,2.239,0,0,0,.793-.683,1.519,1.519,0,0,0,.263-.869,1.7,1.7,0,0,0-.647-1.36,3.263,3.263,0,0,0-2.1-.541,3.306,3.306,0,0,0-1.952.5,2.445,2.445,0,0,0-.932,1.425l1.945.349a1.338,1.338,0,0,1,.308-.771.813.813,0,0,1,.591-.22.751.751,0,0,1,.556.2.735.735,0,0,1,.2.541.813.813,0,0,1-.27.611.943.943,0,0,1-.675.259,1.962,1.962,0,0,1-.267-.026l-.107,1.47a2.6,2.6,0,0,1,.667-.121.936.936,0,0,1,.72.283,1.118,1.118,0,0,1,.266.8,1.162,1.162,0,0,1-.275.809A.9.9,0,0,1,34.36,130.237Z" fill="#0b79bf"/>
        <path d="M40.822,126.428v4.937H42.9V123.83H41.2A3.327,3.327,0,0,1,40.291,125a4.991,4.991,0,0,1-1.631.813V127.5a7.631,7.631,0,0,0,1.185-.454A6.435,6.435,0,0,0,40.822,126.428Z" fill="#0b79bf"/>
      </g>
    </g>
    <g>
      <path d="M48.012,41.051a.712.712,0,0,0-.153-.783c-.356-.275-.707-.311-.868-.1l-3.369,4.349,1.068.826Z" fill="#0b79bf"/>
      <path d="M38.692,49.105a5.67,5.67,0,0,0-.619,4.593s-1.191-.116-.535,1.056l2.015,1.561,2.014,1.561c1.3.343.89-.781.89-.781a5.679,5.679,0,0,0,4.293-1.747l1.186-1.532L39.87,47.584Z" fill="#0b79bf"/>
      <path d="M50.491,50.824l-.046-.036-.011,0L42.047,44.3c-.192-.085-.667-.2-1.145.417l-.528.682s-.8.849.029,1.492h0l8.213,6.345c.752.419,1.3-.448,1.3-.448l.529-.682C51.06,51.312,50.491,50.824,50.491,50.824Z" fill="#0b79bf"/>
      <path d="M53.014,44.262a.709.709,0,0,0-.8.048L48.9,48.592l1.068.825,3.362-4.34C53.492,44.869,53.369,44.538,53.014,44.262Z" fill="#0b79bf"/>
      <path d="M37.194,55.587a4.507,4.507,0,0,1-.62,2.4l-.38-.294a.525.525,0,0,0-.643.83l.535.414q-.123.222-.263.46l-.516-.4a.478.478,0,0,0-.586.755l.6.463c-.091.143-.187.291-.288.441l-.463-.359a.459.459,0,0,0-.562.726l.506.393q-.2.288-.424.595l-.251-.2a.712.712,0,0,0-.872,1.126l.27.209-.149.194-.045.059.046.035h0A20.967,20.967,0,0,0,30.3,69.163a17.308,17.308,0,0,0,1.549,1.186,18.964,18.964,0,0,1,2.672-5.8h0l.048.038s.069-.1.186-.259l.261.2a.712.712,0,0,0,.872-1.126l-.259-.2c.145-.178.3-.365.469-.561l.484.375a.459.459,0,0,0,.563-.726l-.435-.337c.117-.128.234-.256.358-.386l.573.444a.478.478,0,1,0,.585-.755l-.475-.369c.127-.123.254-.245.385-.365l.493.382a.525.525,0,1,0,.643-.83l-.318-.247a10.694,10.694,0,0,1,2.027-1.318Z" fill="#0b79bf"/>
    </g>
    <path d="M39.072,157.675c-.8,1.29-6.873,12.437-6.873,17.115,0,3.807,2.388,5.835,4.788,7.256-.765-.992-2.694-3.216-2.694-5.812,0-5.963,5.516-12.753,5.516-12.753-.007-.032-1.47,8.12,2.011,11.676,1.958,2,.207,5.917-.544,6.889,2.113-1.484,4.7-2.9,4.668-7.256S39.639,158.841,39.072,157.675Z" fill="#0b79bf"/>
  </g>
</svg>
