<svg xmlns="http://www.w3.org/2000/svg" viewBox="0 0 612 793.559">
  <g>
    <rect width="612" height="793.559" fill="none"/>
    <rect width="612" height="793.559" fill="none"/>
    <rect x="32.28" y="226.65" width="543.83" height="213.887" fill="#f2f0ec"/>
    <g>
      <path d="M57.333,403.131H62.3v1.521H59.075v1.989h3.133v1.508H59.075V411.8H57.333Z" fill="#2f2e2c"/>
      <path d="M63.754,403.131h4.967v1.521H65.5v1.989h3.132v1.508H65.5v2.132h3.224V411.8H63.754Z" fill="#2f2e2c"/>
      <path d="M70.28,403.131h3.588a2.107,2.107,0,0,1,2.288,2.21,1.894,1.894,0,0,1-1.391,1.989,2.05,2.05,0,0,1,1.534,2.133,2.149,2.149,0,0,1-2.314,2.34h-3.7Zm3.172,3.523a.893.893,0,0,0,.923-1.014.9.9,0,0,0-.923-1.027h-1.43v2.041Zm.065,3.666a.957.957,0,0,0,1-1.092.987.987,0,0,0-1-1.091H72.022v2.183Z" fill="#2f2e2c"/>
    </g>
    <g>
      <path d="M101.849,405.848,99.9,411.8h-.715l-1.924-5.955V411.8H95.531v-8.672h2.34l1.677,5.2,1.69-5.2h2.327V411.8h-1.716Z" fill="#2f2e2c"/>
      <path d="M109.609,410.256h-2.834l-.4,1.547h-1.808l2.574-8.672h2.107l2.574,8.672h-1.807Zm-2.483-1.522h2.132l-1.066-4.055Z" fill="#2f2e2c"/>
      <path d="M115.512,408.656h-.936V411.8h-1.743v-8.672h3.238a2.566,2.566,0,0,1,2.638,2.743,2.4,2.4,0,0,1-1.507,2.483l1.573,3.446h-1.938Zm.3-4h-1.235v2.5h1.235a1.124,1.124,0,0,0,1.118-1.248A1.11,1.11,0,0,0,115.811,404.652Z" fill="#2f2e2c"/>
    </g>
    <g>
      <path d="M142.283,410.256h-2.834l-.4,1.547h-1.807l2.574-8.672h2.106l2.574,8.672h-1.807Zm-2.483-1.522h2.132l-1.066-4.055Z" fill="#2f2e2c"/>
      <path d="M145.506,403.131h3.2a2.764,2.764,0,0,1,0,5.525h-1.456V411.8h-1.743Zm2.991,1.521h-1.248v2.5H148.5a1.257,1.257,0,0,0,0-2.5Z" fill="#2f2e2c"/>
      <path d="M155.387,408.656h-.936V411.8h-1.743v-8.672h3.238a2.566,2.566,0,0,1,2.638,2.743,2.4,2.4,0,0,1-1.507,2.483l1.573,3.446h-1.938Zm.3-4h-1.235v2.5h1.235A1.124,1.124,0,0,0,156.8,405.9,1.11,1.11,0,0,0,155.686,404.652Z" fill="#2f2e2c"/>
    </g>
    <g>
      <path d="M184.2,405.848l-1.95,5.955h-.715l-1.924-5.955V411.8h-1.729v-8.672h2.34l1.677,5.2,1.69-5.2h2.327V411.8H184.2Z" fill="#2f2e2c"/>
      <path d="M191.959,410.256h-2.834l-.4,1.547h-1.807l2.573-8.672H191.6l2.574,8.672h-1.807Zm-2.482-1.522h2.131l-1.066-4.055Z" fill="#2f2e2c"/>
      <path d="M196.432,408.227l-2.678-5.1h1.924l1.625,3.484,1.625-3.484h1.924l-2.678,5.1V411.8h-1.742Z" fill="#2f2e2c"/>
    </g>
    <g>
      <path d="M259.255,409.93a1.469,1.469,0,0,0,1.079.481,1.057,1.057,0,0,0,1.132-1.17v-6.11h1.742v6.162a2.439,2.439,0,0,1-2.705,2.666,2.679,2.679,0,0,1-1.872-.663Z" fill="#2f2e2c"/>
      <path d="M265,403.131h1.755v5.694c0,1.027.494,1.6,1.417,1.6s1.418-.573,1.418-1.6v-5.694h1.755v5.681a3.173,3.173,0,0,1-6.345,0Z" fill="#2f2e2c"/>
      <path d="M273.152,403.131H274.9v7.137h2.912V411.8h-4.655Z" fill="#2f2e2c"/>
    </g>
    <g>
      <path d="M219.523,409.93a1.469,1.469,0,0,0,1.08.481,1.057,1.057,0,0,0,1.131-1.17v-6.11h1.742v6.162a2.439,2.439,0,0,1-2.705,2.666,2.68,2.68,0,0,1-1.872-.663Z" fill="#2f2e2c"/>
      <path d="M225.27,403.131h1.754v5.694c0,1.027.5,1.6,1.417,1.6s1.418-.573,1.418-1.6v-5.694h1.755v5.681a3.172,3.172,0,0,1-6.344,0Z" fill="#2f2e2c"/>
      <path d="M235.149,406.277V411.8H233.42v-8.672h1.768l2.848,5.3v-5.3h1.742V411.8h-1.664Z" fill="#2f2e2c"/>
    </g>
    <g>
      <path d="M301.211,410.256h-2.834l-.4,1.547h-1.807l2.574-8.672h2.106l2.574,8.672h-1.807Zm-2.483-1.522h2.132l-1.066-4.055Z" fill="#2f2e2c"/>
      <path d="M304.188,403.131h1.755v5.694c0,1.027.494,1.6,1.416,1.6s1.418-.573,1.418-1.6v-5.694h1.755v5.681a3.172,3.172,0,0,1-6.344,0Z" fill="#2f2e2c"/>
      <path d="M315.653,402.988a3.03,3.03,0,0,1,2.887,1.976l-1.417.65a1.61,1.61,0,0,0-1.47-1.079c-1.1,0-1.872,1.079-1.872,2.938s.768,2.938,1.872,2.938a1.828,1.828,0,0,0,1.326-.52v-1.326h-1.637v-1.508h3.276v3.523a3.72,3.72,0,0,1-2.965,1.379c-2.2,0-3.666-1.8-3.666-4.486S313.457,402.988,315.653,402.988Z" fill="#2f2e2c"/>
    </g>
    <g>
      <path d="M338.265,409.5a2.833,2.833,0,0,0,2.08.924c.78,0,1.2-.43,1.2-.962,0-.663-.624-.95-1.417-1.287-1.093-.43-2.457-.95-2.457-2.665a2.6,2.6,0,0,1,2.859-2.523,3.748,3.748,0,0,1,2.626.962l-.832,1.3a2.647,2.647,0,0,0-1.833-.728c-.649,0-1.04.365-1.04.884,0,.585.6.858,1.378,1.183,1.118.442,2.484,1.014,2.484,2.73,0,1.522-1.04,2.64-2.938,2.64a4.015,4.015,0,0,1-2.965-1.118Z" fill="#2f2e2c"/>
      <path d="M344.712,403.131h4.967v1.521h-3.225v1.989h3.133v1.508h-3.133v2.132h3.225V411.8h-4.967Z" fill="#2f2e2c"/>
      <path d="M351.238,403.131h3.2a2.764,2.764,0,0,1,0,5.525H352.98V411.8h-1.742Zm2.991,1.521H352.98v2.5h1.249a1.257,1.257,0,0,0,0-2.5Z" fill="#2f2e2c"/>
    </g>
    <g>
      <path d="M379.439,402.988c2.276,0,3.627,1.911,3.627,4.485s-1.351,4.486-3.627,4.486-3.613-1.9-3.613-4.486S377.178,402.988,379.439,402.988Zm0,1.547c-1.182,0-1.82,1.261-1.82,2.938,0,1.651.638,2.938,1.82,2.938s1.847-1.287,1.847-2.938C381.286,405.8,380.636,404.535,379.439,404.535Z" fill="#2f2e2c"/>
      <path d="M384.185,407.473c0-2.626,1.417-4.485,3.639-4.485a3.06,3.06,0,0,1,2.926,2.08l-1.443.637a1.6,1.6,0,0,0-1.483-1.17c-1.143,0-1.845,1.235-1.845,2.938s.7,2.938,1.845,2.938a1.636,1.636,0,0,0,1.5-1.261l1.443.624a3.073,3.073,0,0,1-2.939,2.185C385.6,411.959,384.185,410.1,384.185,407.473Z" fill="#2f2e2c"/>
      <path d="M393.506,404.665h-1.938v-1.534h5.6v1.534h-1.924V411.8h-1.742Z" fill="#2f2e2c"/>
    </g>
    <g>
      <path d="M417.949,406.277V411.8h-1.728v-8.672h1.767l2.848,5.3v-5.3h1.742V411.8h-1.664Z" fill="#2f2e2c"/>
      <path d="M427.635,402.988c2.274,0,3.627,1.911,3.627,4.485s-1.353,4.486-3.627,4.486-3.614-1.9-3.614-4.486S425.372,402.988,427.635,402.988Zm0,1.547c-1.184,0-1.821,1.261-1.821,2.938,0,1.651.637,2.938,1.821,2.938s1.845-1.287,1.845-2.938C429.48,405.8,428.83,404.535,427.635,404.535Z" fill="#2f2e2c"/>
      <path d="M431.769,403.131h1.884l1.743,6.617,1.728-6.617h1.9l-2.574,8.672h-2.1Z" fill="#2f2e2c"/>
    </g>
    <g>
      <path d="M457.772,403.131h2.8c2.392,0,3.771,1.794,3.771,4.342s-1.365,4.33-3.771,4.33h-2.8Zm2.8,7.137c1.287,0,1.99-1.144,1.99-2.795,0-1.716-.677-2.808-1.99-2.808h-1.052v5.6Z" fill="#2f2e2c"/>
      <path d="M465.806,403.131h4.966v1.521h-3.224v1.989h3.133v1.508h-3.133v2.132h3.224V411.8h-4.966Z" fill="#2f2e2c"/>
      <path d="M471.98,407.473c0-2.626,1.417-4.485,3.641-4.485a3.06,3.06,0,0,1,2.925,2.08l-1.443.637a1.6,1.6,0,0,0-1.482-1.17c-1.144,0-1.847,1.235-1.847,2.938s.7,2.938,1.847,2.938a1.635,1.635,0,0,0,1.5-1.261l1.443.624a3.073,3.073,0,0,1-2.938,2.185C473.4,411.959,471.98,410.1,471.98,407.473Z" fill="#2f2e2c"/>
    </g>
    <g>
      <path d="M497.543,409.93a1.465,1.465,0,0,0,1.079.481,1.057,1.057,0,0,0,1.131-1.17v-6.11H501.5v6.162a2.439,2.439,0,0,1-2.7,2.666,2.677,2.677,0,0,1-1.872-.663Z" fill="#2f2e2c"/>
      <path d="M507.293,410.256h-2.834l-.4,1.547h-1.807l2.573-8.672h2.107L509.5,411.8H507.7Zm-2.483-1.522h2.131l-1.065-4.055Z" fill="#2f2e2c"/>
      <path d="M512.246,406.277V411.8h-1.729v-8.672h1.768l2.847,5.3v-5.3h1.742V411.8H515.21Z" fill="#2f2e2c"/>
    </g>
    <g>
      <path d="M536.4,403.131h4.967v1.521h-3.224v1.989h3.132v1.508h-3.132V411.8H536.4Z" fill="#0b79bf"/>
      <path d="M542.825,403.131h4.967v1.521h-3.225v1.989H547.7v1.508h-3.133v2.132h3.225V411.8h-4.967Z" fill="#0b79bf"/>
      <path d="M549.352,403.131h3.587a2.108,2.108,0,0,1,2.289,2.21,1.9,1.9,0,0,1-1.392,1.989,2.049,2.049,0,0,1,1.534,2.133,2.149,2.149,0,0,1-2.313,2.34h-3.705Zm3.171,3.523a.893.893,0,0,0,.923-1.014.9.9,0,0,0-.923-1.027h-1.429v2.041Zm.065,3.666a.957.957,0,0,0,1-1.092.987.987,0,0,0-1-1.091h-1.494v2.183Z" fill="#0b79bf"/>
    </g>
    <g>
      <path d="M57.188,288.115l-1.415,1.471-1.079-1.135,2.746-2.76h1.639v9.344H57.188Z" fill="#2f2e2c"/>
      <path d="M60.812,293.522c3.418-3.319,4.133-4.062,4.133-5.127a1.167,1.167,0,0,0-1.247-1.176,2.4,2.4,0,0,0-1.989,1.05l-1.121-1.176a3.805,3.805,0,0,1,3.138-1.54,2.834,2.834,0,0,1,3.124,2.828c0,1.416-.953,2.62-3.306,5h3.348v1.652h-6.08Z" fill="#2f2e2c"/>
      <path d="M69.549,293.017a1.1,1.1,0,0,1,1.079,1.094,1.088,1.088,0,0,1-1.079,1.078,1.1,1.1,0,0,1-1.092-1.078A1.113,1.113,0,0,1,69.549,293.017Z" fill="#2f2e2c"/>
      <path d="M73.007,292.527a2.576,2.576,0,0,0,2,1.024c.981,0,1.429-.519,1.429-1.247,0-.882-.6-1.2-1.513-1.2-.308,0-.728.014-.868.028V289.46c.14.014.6.014.826.014.855,0,1.429-.365,1.429-1.107,0-.784-.56-1.162-1.373-1.162a2.392,2.392,0,0,0-1.863.938l-1.064-1.079a3.66,3.66,0,0,1,3.081-1.511c1.849,0,3.068.881,3.068,2.535a2.207,2.207,0,0,1-1.765,2.129,2.252,2.252,0,0,1,1.905,2.241c0,1.624-1.247,2.745-3.208,2.745a3.8,3.8,0,0,1-3.207-1.513Z" fill="#2f2e2c"/>
    </g>
    <g>
      <path d="M101.487,349.3h-3.81v-1.569l3.278-5.785h2.409v5.7h.938V349.3h-.938v1.989h-1.877Zm-2.115-1.653h2.115v-3.8Z" fill="#2f2e2c"/>
      <path d="M106.651,349.27a1.1,1.1,0,0,1,1.079,1.093,1.088,1.088,0,0,1-1.079,1.078,1.1,1.1,0,0,1-1.092-1.078A1.112,1.112,0,0,1,106.651,349.27Z" fill="#2f2e2c"/>
      <path d="M110.375,349.06a1.733,1.733,0,0,0,1.471.728c1.177,0,1.863-1.3,1.863-2.8v-.168A2.345,2.345,0,0,1,111.72,348c-1.4,0-2.619-1.036-2.619-3.025a3.009,3.009,0,0,1,3.067-3.18c2.466,0,3.432,2.227,3.432,4.833,0,2.787-1.33,4.818-3.74,4.818a3.155,3.155,0,0,1-2.381-1.009Zm1.892-5.617a1.327,1.327,0,0,0-1.261,1.456c0,1.108.644,1.514,1.3,1.514a1.7,1.7,0,0,0,1.386-.953C113.639,344.578,113.331,343.443,112.267,343.443Z" fill="#2f2e2c"/>
    </g>
    <g>
      <path d="M136.955,369.127c3.418-3.32,4.132-4.063,4.132-5.127a1.167,1.167,0,0,0-1.247-1.177,2.4,2.4,0,0,0-1.989,1.051L136.73,362.7a3.808,3.808,0,0,1,3.138-1.54,2.835,2.835,0,0,1,3.124,2.829c0,1.415-.952,2.619-3.306,5h3.348v1.652h-6.079Z" fill="#2f2e2c"/>
      <path d="M145.691,368.623a1.1,1.1,0,0,1,1.079,1.093,1.088,1.088,0,0,1-1.079,1.078,1.1,1.1,0,0,1-1.092-1.078A1.112,1.112,0,0,1,145.691,368.623Z" fill="#2f2e2c"/>
      <path d="M149.416,368.146a2.357,2.357,0,0,0,1.946,1.009,1.393,1.393,0,0,0,1.415-1.485c0-.924-.49-1.485-1.331-1.485a1.859,1.859,0,0,0-1.54.771l-1.359-.351V361.3h5.6v1.638h-3.74v2.41a2.309,2.309,0,0,1,1.723-.756c1.415,0,2.549,1.092,2.549,3.025a3.047,3.047,0,0,1-3.264,3.193,3.644,3.644,0,0,1-3.137-1.47Z" fill="#2f2e2c"/>
    </g>
    <g>
      <path d="M180.57,372.836l-1.415,1.47-1.078-1.134,2.745-2.759h1.639v9.343H180.57Z" fill="#2f2e2c"/>
      <path d="M185.344,377.738a1.1,1.1,0,0,1,1.078,1.093,1.088,1.088,0,0,1-1.078,1.079,1.1,1.1,0,0,1-1.093-1.079A1.113,1.113,0,0,1,185.344,377.738Z" fill="#2f2e2c"/>
      <path d="M188.017,378.243c3.418-3.32,4.132-4.063,4.132-5.127a1.167,1.167,0,0,0-1.246-1.177,2.4,2.4,0,0,0-1.989,1.051l-1.121-1.177a3.806,3.806,0,0,1,3.138-1.541,2.836,2.836,0,0,1,3.124,2.83c0,1.414-.953,2.62-3.306,5H194.1v1.654h-6.08Z" fill="#2f2e2c"/>
    </g>
    <g>
      <path d="M259.869,373.836l-1.415,1.47-1.078-1.134,2.745-2.759h1.639v9.343h-1.891Z" fill="#2f2e2c"/>
      <path d="M264.643,378.738a1.1,1.1,0,0,1,1.078,1.093,1.088,1.088,0,0,1-1.078,1.079,1.1,1.1,0,0,1-1.093-1.079A1.113,1.113,0,0,1,264.643,378.738Z" fill="#2f2e2c"/>
      <path d="M268.1,378.248a2.573,2.573,0,0,0,2,1.023c.98,0,1.428-.518,1.428-1.247,0-.883-.6-1.2-1.512-1.2-.309,0-.729.015-.869.028V375.18c.14.015.6.015.827.015.854,0,1.428-.364,1.428-1.107,0-.784-.56-1.162-1.372-1.162a2.389,2.389,0,0,0-1.864.938l-1.064-1.079a3.659,3.659,0,0,1,3.082-1.513c1.849,0,3.067.883,3.067,2.536a2.206,2.206,0,0,1-1.765,2.129,2.254,2.254,0,0,1,1.906,2.242c0,1.625-1.248,2.745-3.208,2.745a3.8,3.8,0,0,1-3.208-1.513Z" fill="#2f2e2c"/>
    </g>
    <g>
      <path d="M219.5,374.836l-1.416,1.47-1.078-1.134,2.745-2.759h1.64v9.343H219.5Z" fill="#2f2e2c"/>
      <path d="M224.273,379.738a1.1,1.1,0,0,1,1.079,1.093,1.089,1.089,0,0,1-1.079,1.079,1.1,1.1,0,0,1-1.093-1.079A1.114,1.114,0,0,1,224.273,379.738Z" fill="#2f2e2c"/>
      <path d="M230.084,372.272c2.325,0,3.306,2.158,3.306,4.82,0,2.646-.967,4.832-3.306,4.832-2.311,0-3.306-2.186-3.306-4.832C226.778,374.43,227.773,372.272,230.084,372.272Zm0,1.667c-1.079,0-1.387,1.345-1.387,3.153s.308,3.165,1.387,3.165,1.4-1.372,1.4-3.165S231.177,373.939,230.084,373.939Z" fill="#2f2e2c"/>
    </g>
    <g>
      <path d="M300.124,372.836l-1.416,1.47-1.078-1.134,2.745-2.759h1.64v9.343h-1.891Z" fill="#2f2e2c"/>
      <path d="M304.9,377.738a1.1,1.1,0,0,1,1.079,1.093,1.089,1.089,0,0,1-1.079,1.079,1.1,1.1,0,0,1-1.093-1.079A1.114,1.114,0,0,1,304.9,377.738Z" fill="#2f2e2c"/>
      <path d="M308.354,377.248a2.576,2.576,0,0,0,2,1.023c.981,0,1.429-.518,1.429-1.247,0-.883-.6-1.2-1.514-1.2-.307,0-.727.015-.868.028V374.18c.141.015.6.015.826.015.855,0,1.429-.364,1.429-1.107,0-.784-.559-1.162-1.372-1.162a2.388,2.388,0,0,0-1.863.938l-1.065-1.079a3.661,3.661,0,0,1,3.082-1.513c1.849,0,3.068.883,3.068,2.536a2.207,2.207,0,0,1-1.765,2.129,2.254,2.254,0,0,1,1.9,2.242c0,1.625-1.246,2.745-3.207,2.745a3.8,3.8,0,0,1-3.208-1.513Z" fill="#2f2e2c"/>
    </g>
    <g>
      <path d="M336.652,367.127c3.418-3.32,4.133-4.063,4.133-5.127a1.168,1.168,0,0,0-1.247-1.177,2.406,2.406,0,0,0-1.989,1.051l-1.12-1.177a3.8,3.8,0,0,1,3.137-1.54,2.835,2.835,0,0,1,3.124,2.829c0,1.415-.953,2.619-3.306,5h3.348v1.652h-6.08Z" fill="#2f2e2c"/>
      <path d="M345.39,366.623a1.1,1.1,0,0,1,1.078,1.093,1.088,1.088,0,0,1-1.078,1.078,1.1,1.1,0,0,1-1.093-1.078A1.112,1.112,0,0,1,345.39,366.623Z" fill="#2f2e2c"/>
      <path d="M351.635,359.157a3.169,3.169,0,0,1,2.395,1.008l-.911,1.373a1.686,1.686,0,0,0-1.456-.729c-1.163,0-1.863,1.317-1.863,2.816v.154a2.308,2.308,0,0,1,1.989-1.177c1.4,0,2.619,1.037,2.619,3.026a3.008,3.008,0,0,1-3.067,3.179c-2.48,0-3.446-2.226-3.446-4.818C347.9,361.187,349.226,359.157,351.635,359.157Zm-.435,5.028a1.729,1.729,0,0,0-1.4.967c.07.868.392,2,1.442,2A1.327,1.327,0,0,0,352.5,365.7C352.5,364.592,351.873,364.185,351.2,364.185Z" fill="#2f2e2c"/>
    </g>
    <g>
      <path d="M378.039,323.821a2.356,2.356,0,0,1-1.653-2.227c0-1.709,1.555-2.437,3.095-2.437,1.513,0,3.1.728,3.1,2.437a2.368,2.368,0,0,1-1.667,2.227,2.719,2.719,0,0,1,1.793,2.423c0,1.667-1.372,2.563-3.222,2.563s-3.235-.9-3.235-2.548A2.724,2.724,0,0,1,378.039,323.821Zm1.442.757a1.618,1.618,0,0,0-1.33,1.429,1.175,1.175,0,0,0,1.33,1.162,1.188,1.188,0,0,0,1.331-1.162A1.631,1.631,0,0,0,379.481,324.578Zm0-3.782a1.084,1.084,0,0,0-1.218,1.106c0,.813.854,1.177,1.218,1.261.351-.084,1.206-.448,1.206-1.261A1.081,1.081,0,0,0,379.481,320.8Z" fill="#2f2e2c"/>
      <path d="M385.192,326.623a1.1,1.1,0,0,1,1.079,1.093,1.088,1.088,0,0,1-1.079,1.078,1.1,1.1,0,0,1-1.092-1.078A1.112,1.112,0,0,1,385.192,326.623Z" fill="#2f2e2c"/>
      <path d="M391,319.157c2.325,0,3.306,2.156,3.306,4.818s-.967,4.832-3.306,4.832c-2.312,0-3.306-2.184-3.306-4.832S388.692,319.157,391,319.157Zm0,1.666c-1.079,0-1.387,1.345-1.387,3.152s.308,3.165,1.387,3.165,1.4-1.372,1.4-3.165S392.1,320.823,391,320.823Z" fill="#2f2e2c"/>
    </g>
    <g>
      <path d="M417.194,294.72l-1.415,1.471-1.079-1.135,2.746-2.759h1.639v9.342h-1.891Z" fill="#2f2e2c"/>
      <path d="M422.808,294.72l-1.415,1.471-1.079-1.135,2.746-2.759H424.7v9.342h-1.891Z" fill="#2f2e2c"/>
      <path d="M427.581,299.623a1.1,1.1,0,0,1,1.079,1.093,1.088,1.088,0,0,1-1.079,1.078,1.1,1.1,0,0,1-1.093-1.078A1.113,1.113,0,0,1,427.581,299.623Z" fill="#2f2e2c"/>
      <path d="M433.043,293.95h-3.866V292.3h6v1.3l-2.9,8.04h-2.031Z" fill="#2f2e2c"/>
    </g>
    <g>
      <path d="M456.008,274.72l-1.415,1.471-1.079-1.135,2.746-2.759H457.9v9.342h-1.89Z" fill="#2f2e2c"/>
      <path d="M463.106,279.65H459.3v-1.568l3.277-5.785h2.409V278h.939v1.652h-.939v1.989h-1.877ZM460.991,278h2.115v-3.8Z" fill="#2f2e2c"/>
      <path d="M468.271,279.623a1.1,1.1,0,0,1,1.079,1.093,1.088,1.088,0,0,1-1.079,1.078,1.1,1.1,0,0,1-1.093-1.078A1.113,1.113,0,0,1,468.271,279.623Z" fill="#2f2e2c"/>
      <path d="M472,279.146a2.358,2.358,0,0,0,1.946,1.009,1.394,1.394,0,0,0,1.416-1.485c0-.924-.49-1.485-1.332-1.485a1.862,1.862,0,0,0-1.54.771l-1.358-.351V272.3h5.6v1.638H472.99v2.41a2.307,2.307,0,0,1,1.723-.756c1.414,0,2.549,1.092,2.549,3.025A3.048,3.048,0,0,1,474,281.807a3.646,3.646,0,0,1-3.138-1.47Z" fill="#2f2e2c"/>
    </g>
    <g>
      <path d="M494.333,260.72l-1.415,1.471-1.079-1.135,2.746-2.759h1.639v9.342h-1.891Z" fill="#2f2e2c"/>
      <path d="M501.529,258.157a3.171,3.171,0,0,1,2.4,1.008l-.911,1.373a1.687,1.687,0,0,0-1.456-.729c-1.163,0-1.864,1.317-1.864,2.816v.154a2.311,2.311,0,0,1,1.99-1.177c1.4,0,2.619,1.037,2.619,3.026a3.009,3.009,0,0,1-3.068,3.179c-2.479,0-3.446-2.226-3.446-4.818C497.789,260.187,499.12,258.157,501.529,258.157Zm-.434,5.028a1.73,1.73,0,0,0-1.4.967c.071.868.393,2,1.443,2a1.327,1.327,0,0,0,1.26-1.457C502.4,263.592,501.768,263.185,501.1,263.185Z" fill="#2f2e2c"/>
      <path d="M506.75,265.623a1.1,1.1,0,0,1,1.079,1.093,1.088,1.088,0,0,1-1.079,1.078,1.1,1.1,0,0,1-1.093-1.078A1.113,1.113,0,0,1,506.75,265.623Z" fill="#2f2e2c"/>
      <path d="M509.423,266.127c3.418-3.32,4.133-4.063,4.133-5.127a1.168,1.168,0,0,0-1.247-1.177,2.407,2.407,0,0,0-1.99,1.051L509.2,259.7a3.805,3.805,0,0,1,3.138-1.54,2.835,2.835,0,0,1,3.124,2.829c0,1.415-.953,2.619-3.307,5H515.5v1.652h-6.08Z" fill="#2f2e2c"/>
    </g>
    <g>
      <path d="M536.172,298.72l-1.415,1.471-1.079-1.135,2.746-2.759h1.638v9.342h-1.89Z" fill="#0b79bf"/>
      <path d="M541.785,298.72l-1.415,1.471-1.078-1.135,2.745-2.759h1.64v9.342h-1.892Z" fill="#0b79bf"/>
      <path d="M546.559,303.623a1.1,1.1,0,0,1,1.079,1.093,1.089,1.089,0,0,1-1.079,1.078,1.1,1.1,0,0,1-1.093-1.078A1.113,1.113,0,0,1,546.559,303.623Z" fill="#0b79bf"/>
      <path d="M552.37,296.157c2.325,0,3.306,2.156,3.306,4.818s-.967,4.832-3.306,4.832c-2.311,0-3.306-2.184-3.306-4.832S550.059,296.157,552.37,296.157Zm0,1.666c-1.079,0-1.387,1.345-1.387,3.152s.308,3.165,1.387,3.165,1.4-1.372,1.4-3.165S553.463,297.823,552.37,297.823Z" fill="#0b79bf"/>
    </g>
    <g>
      <path d="M55.818,239.777H53.857v-1.933h6.132v1.933H58.041v7.216H55.818Z" fill="#0b79bf"/>
      <path d="M59.918,243.674c0-1.853,1.084-3.471,3.142-3.471a3.494,3.494,0,0,1,0,6.955C61,247.158,59.918,245.525,59.918,243.674Zm4.253,0c0-.961-.343-1.715-1.111-1.715s-1.1.754-1.1,1.715.343,1.728,1.1,1.728S64.171,244.647,64.171,243.674Z" fill="#0b79bf"/>
      <path d="M67.8,245.278V242.1h-.837v-1.729H67.8v-1.811h1.988v1.811h1.071V242.1H69.792v2.688c0,.385.151.618.453.618a.685.685,0,0,0,.453-.151l.357,1.536a2.217,2.217,0,0,1-1.372.371A1.654,1.654,0,0,1,67.8,245.278Z" fill="#0b79bf"/>
      <path d="M75.539,246.348a2.226,2.226,0,0,1-1.743.81,2.058,2.058,0,0,1-2.071-2.195A1.964,1.964,0,0,1,73.8,242.85a2.191,2.191,0,0,1,1.743.754v-.767a1.023,1.023,0,0,0-1.166-1.03,2.53,2.53,0,0,0-1.633.687l-.7-1.331a4.12,4.12,0,0,1,2.716-.96c1.509,0,2.757.644,2.757,2.428v4.362H75.539Zm0-1.687a1.087,1.087,0,0,0-.96-.522.858.858,0,1,0,0,1.715,1.087,1.087,0,0,0,.96-.521Z" fill="#0b79bf"/>
      <path d="M79.116,237.844h1.989v9.149H79.116Z" fill="#0b79bf"/>
      <path d="M88.113,241.725v5.268H85.9v-9.149h2.263L90.8,242.85v-5.006H93v9.149H90.9Z" fill="#0b79bf"/>
      <path d="M98.137,246.348a2.224,2.224,0,0,1-1.742.81,2.058,2.058,0,0,1-2.071-2.195A1.964,1.964,0,0,1,96.4,242.85a2.189,2.189,0,0,1,1.742.754v-.767a1.023,1.023,0,0,0-1.166-1.03,2.528,2.528,0,0,0-1.632.687l-.7-1.331a4.124,4.124,0,0,1,2.716-.96c1.509,0,2.758.644,2.758,2.428v4.362H98.137Zm0-1.687a1.086,1.086,0,0,0-.96-.522.858.858,0,1,0,0,1.715,1.085,1.085,0,0,0,.96-.521Z" fill="#0b79bf"/>
      <path d="M102.045,245.278V242.1h-.837v-1.729h.837v-1.811h1.989v1.811h1.07V242.1h-1.07v2.688c0,.385.151.618.452.618a.685.685,0,0,0,.453-.151l.357,1.536a2.217,2.217,0,0,1-1.372.371A1.654,1.654,0,0,1,102.045,245.278Z" fill="#0b79bf"/>
      <path d="M110.109,246.2a2.469,2.469,0,0,1-1.962.961,1.629,1.629,0,0,1-1.824-1.8v-4.993h1.989v4.2c0,.6.274.837.768.837a1.228,1.228,0,0,0,1.029-.686v-4.349h1.975v6.626h-1.975Z" fill="#0b79bf"/>
      <path d="M113.7,240.367h1.989v.851a2.311,2.311,0,0,1,1.77-1.015v1.92a1.809,1.809,0,0,0-.425-.055,1.757,1.757,0,0,0-1.345.658v4.267H113.7Z" fill="#0b79bf"/>
      <path d="M122.039,246.348a2.224,2.224,0,0,1-1.742.81,2.057,2.057,0,0,1-2.071-2.195,1.964,1.964,0,0,1,2.071-2.113,2.189,2.189,0,0,1,1.742.754v-.767a1.023,1.023,0,0,0-1.166-1.03,2.526,2.526,0,0,0-1.632.687l-.7-1.331a4.122,4.122,0,0,1,2.716-.96c1.509,0,2.758.644,2.758,2.428v4.362h-1.976Zm0-1.687a1.086,1.086,0,0,0-.96-.522.858.858,0,1,0,0,1.715,1.085,1.085,0,0,0,.96-.521Z" fill="#0b79bf"/>
      <path d="M125.617,237.844h1.989v9.149h-1.989Z" fill="#0b79bf"/>
      <path d="M136.054,237.692a3.325,3.325,0,0,1,3.2,2.237l-1.811.823a1.521,1.521,0,0,0-1.385-1.1c-1.029,0-1.77.946-1.77,2.771s.741,2.771,1.77,2.771a1.744,1.744,0,0,0,1.234-.439v-1.029h-1.509v-1.893h3.58v3.8a4.215,4.215,0,0,1-3.305,1.523c-2.429,0-4.033-1.88-4.033-4.733S133.625,237.692,136.054,237.692Z" fill="#0b79bf"/>
      <path d="M144.281,246.348a2.224,2.224,0,0,1-1.742.81,2.058,2.058,0,0,1-2.071-2.195,1.964,1.964,0,0,1,2.071-2.113,2.189,2.189,0,0,1,1.742.754v-.767a1.023,1.023,0,0,0-1.166-1.03,2.528,2.528,0,0,0-1.632.687l-.7-1.331a4.125,4.125,0,0,1,2.717-.96c1.508,0,2.757.644,2.757,2.428v4.362h-1.976Zm0-1.687a1.086,1.086,0,0,0-.96-.522.858.858,0,1,0,0,1.715,1.085,1.085,0,0,0,.96-.521Z" fill="#0b79bf"/>
      <path d="M148.161,244.853a3.177,3.177,0,0,0,1.879.782c.549,0,.823-.2.823-.535s-.411-.48-.988-.631c-.946-.261-2.276-.59-2.276-2.181,0-1.111.891-2.085,2.578-2.085a3.968,3.968,0,0,1,2.442.837l-.768,1.33a2.494,2.494,0,0,0-1.66-.658c-.425,0-.727.178-.727.467s.357.438.933.589c.974.26,2.359.618,2.359,2.249,0,1.249-1.042,2.141-2.674,2.141a3.935,3.935,0,0,1-2.717-.947Z" fill="#0b79bf"/>
      <path d="M157.157,237.844h2.236v5.912c0,.919.439,1.454,1.316,1.454s1.3-.535,1.3-1.454v-5.912h2.236v5.9a3.548,3.548,0,0,1-7.092,0Z" fill="#0b79bf"/>
      <path d="M166.221,244.853a3.177,3.177,0,0,0,1.879.782c.549,0,.823-.2.823-.535s-.411-.48-.987-.631c-.947-.261-2.277-.59-2.277-2.181,0-1.111.891-2.085,2.578-2.085a3.968,3.968,0,0,1,2.442.837l-.768,1.33a2.494,2.494,0,0,0-1.66-.658c-.425,0-.727.178-.727.467s.357.438.933.589c.974.26,2.359.618,2.359,2.249,0,1.249-1.042,2.141-2.674,2.141a3.935,3.935,0,0,1-2.717-.947Z" fill="#0b79bf"/>
      <path d="M174.779,240.2c1.866,0,2.963,1.44,2.963,3.566v.549h-4.074a1.356,1.356,0,0,0,1.454,1.276,1.971,1.971,0,0,0,1.358-.577l.878,1.194a3.52,3.52,0,0,1-2.469.947,3.494,3.494,0,0,1-.11-6.955Zm-1.125,2.784h2.195c-.028-.535-.274-1.221-1.1-1.221C173.956,241.766,173.7,242.452,173.654,242.987Z" fill="#0b79bf"/>
      <path d="M181.96,244.267a9.535,9.535,0,0,1,1.369-4.957l.639.37a11.492,11.492,0,0,0,0,9.164l-.639.38A9.53,9.53,0,0,1,181.96,244.267Z" fill="#0b79bf"/>
      <path d="M190.44,241.251l-1.9,5.742h-.426l-1.884-5.742v5.742h-1.066v-7.48h1.47l1.693,5.159,1.716-5.159H191.5v7.48H190.44Z" fill="#0b79bf"/>
      <path d="M195.221,241.441a1.91,1.91,0,0,1,1.6.73l-.5.65a1.191,1.191,0,0,0-1.009-.527c-.908,0-1.4.9-1.4,1.985s.494,2,1.4,2a1.219,1.219,0,0,0,1.009-.527l.5.65a1.879,1.879,0,0,1-1.6.73c-1.413,0-2.31-1.223-2.31-2.849S193.808,241.441,195.221,241.441Z" fill="#0b79bf"/>
      <path d="M198.24,242.417h-.706v-.841h.706v-.583a1.4,1.4,0,0,1,1.391-1.593,1.642,1.642,0,0,1,.763.168l-.213.74a.74.74,0,0,0-.348-.089c-.393,0-.628.281-.628.774v.583h.908v.841h-.908v4.576h-.965Z" fill="#0b79bf"/>
      <path d="M203.5,243.864h2.333v.83H203.5Z" fill="#0b79bf"/>
      <path d="M209.931,245.849v-3.432h-.718v-.841h.718V240.1h.953v1.48h.908v.841h-.908v3.241c0,.382.135.617.427.617a.622.622,0,0,0,.459-.19l.247.718a1.244,1.244,0,0,1-.92.325C210.3,247.128,209.931,246.69,209.931,245.849Z" fill="#0b79bf"/>
      <path d="M216.011,243.2c0-.673-.314-.908-.819-.908A1.47,1.47,0,0,0,214,243.1v3.892h-.964v-7.48H214v2.815a2.039,2.039,0,0,1,1.582-.887c.942,0,1.391.483,1.391,1.458v4.094h-.965Z" fill="#0b79bf"/>
      <path d="M218.335,244.279c0-1.525.785-2.838,2.276-2.838s2.277,1.313,2.277,2.838-.785,2.849-2.277,2.849S218.335,245.805,218.335,244.279Zm3.555,0c0-1.032-.392-1.985-1.279-1.985s-1.267.953-1.267,1.985.393,2,1.267,2S221.89,245.322,221.89,244.279Z" fill="#0b79bf"/>
      <path d="M227.22,246.264a1.989,1.989,0,0,1-1.582.864c-.942,0-1.39-.483-1.39-1.458v-4.094h.964v3.791c0,.673.314.908.819.908a1.461,1.461,0,0,0,1.189-.785v-3.914h.953v5.417h-.953Z" fill="#0b79bf"/>
      <path d="M229.835,245.68a1.988,1.988,0,0,0,1.447.673c.594,0,.964-.291.964-.751,0-.515-.5-.74-1.077-.964-.751-.281-1.614-.606-1.614-1.694a1.584,1.584,0,0,1,1.794-1.5,2.344,2.344,0,0,1,1.716.7l-.426.662a1.614,1.614,0,0,0-1.279-.583c-.538,0-.9.28-.9.672,0,.46.482.662,1.032.886.762.281,1.671.628,1.671,1.773a1.654,1.654,0,0,1-1.873,1.581,2.459,2.459,0,0,1-1.907-.763Z" fill="#0b79bf"/>
      <path d="M237.261,246.432a1.746,1.746,0,0,1-1.424.7,1.666,1.666,0,0,1-1.649-1.806,1.637,1.637,0,0,1,1.649-1.772,1.7,1.7,0,0,1,1.424.672v-.863a.986.986,0,0,0-1.076-1.1,1.839,1.839,0,0,0-1.357.638l-.393-.673a2.6,2.6,0,0,1,1.907-.785,1.659,1.659,0,0,1,1.884,1.806v3.746h-.965Zm0-1.547a1.237,1.237,0,0,0-1.088-.651,1.116,1.116,0,0,0,0,2.221,1.236,1.236,0,0,0,1.088-.65Z" fill="#0b79bf"/>
      <path d="M242.826,243.224c0-.683-.314-.93-.819-.93a1.453,1.453,0,0,0-1.189.807v3.892h-.964v-5.417h.964v.752a2.017,2.017,0,0,1,1.571-.887c.942,0,1.39.517,1.39,1.47v4.082h-.953Z" fill="#0b79bf"/>
      <path d="M248.525,246.253a1.7,1.7,0,0,1-1.413.875c-1.211,0-1.962-1.111-1.962-2.838,0-1.693.74-2.849,1.962-2.849a1.648,1.648,0,0,1,1.413.887v-2.815h.954v7.48h-.954Zm0-3.141a1.383,1.383,0,0,0-1.143-.818c-.83,0-1.234.886-1.234,2s.4,1.985,1.234,1.985a1.369,1.369,0,0,0,1.143-.807Z" fill="#0b79bf"/>
      <path d="M255.8,241.441a1.909,1.909,0,0,1,1.6.73l-.5.65a1.194,1.194,0,0,0-1.01-.527c-.908,0-1.4.9-1.4,1.985s.494,2,1.4,2a1.222,1.222,0,0,0,1.01-.527l.5.65a1.878,1.878,0,0,1-1.6.73c-1.413,0-2.31-1.223-2.31-2.849S254.383,241.441,255.8,241.441Z" fill="#0b79bf"/>
      <path d="M261.574,246.264a1.987,1.987,0,0,1-1.581.864c-.942,0-1.391-.483-1.391-1.458v-4.094h.964v3.791c0,.673.315.908.819.908a1.461,1.461,0,0,0,1.189-.785v-3.914h.953v5.417h-.953Z" fill="#0b79bf"/>
      <path d="M264.167,239.513h.964v2.815a1.621,1.621,0,0,1,1.4-.887c1.223,0,1.963,1.156,1.963,2.849,0,1.727-.74,2.838-1.963,2.838a1.674,1.674,0,0,1-1.4-.875v.74h-.964Zm2.1,6.762c.841,0,1.234-.875,1.234-1.985s-.393-2-1.234-2a1.376,1.376,0,0,0-1.133.83v2.344A1.371,1.371,0,0,0,266.264,246.275Z" fill="#0b79bf"/>
      <path d="M269.721,240.051a.634.634,0,0,1,.628-.628.627.627,0,0,1,.628.628.618.618,0,0,1-.628.617A.625.625,0,0,1,269.721,240.051Zm.146,1.525h.964v5.417h-.964Z" fill="#0b79bf"/>
      <path d="M274.5,241.441a1.912,1.912,0,0,1,1.6.73l-.5.65a1.194,1.194,0,0,0-1.01-.527c-.908,0-1.4.9-1.4,1.985s.493,2,1.4,2a1.222,1.222,0,0,0,1.01-.527l.5.65a1.881,1.881,0,0,1-1.6.73c-1.414,0-2.311-1.223-2.311-2.849S273.086,241.441,274.5,241.441Z" fill="#0b79bf"/>
      <path d="M280.155,242.417h-.707v-.841h.707v-.583a1.4,1.4,0,0,1,1.391-1.593,1.641,1.641,0,0,1,.762.168l-.213.74a.739.739,0,0,0-.347-.089c-.393,0-.628.281-.628.774v.583h.908v.841h-.908v4.576h-.965Z" fill="#0b79bf"/>
      <path d="M285.136,241.441c1.447,0,2.2,1.268,2.2,2.871v.281h-3.477c.045.987.561,1.738,1.492,1.738a1.649,1.649,0,0,0,1.245-.628l.493.583a2.394,2.394,0,0,1-1.828.842c-1.469,0-2.388-1.178-2.388-2.849C282.871,242.709,283.723,241.441,285.136,241.441Zm-1.29,2.468h2.546c-.011-.752-.348-1.671-1.267-1.671C284.228,242.238,283.88,243.18,283.846,243.909Z" fill="#0b79bf"/>
      <path d="M290.656,241.441c1.447,0,2.2,1.268,2.2,2.871v.281h-3.477c.045.987.561,1.738,1.492,1.738a1.649,1.649,0,0,0,1.245-.628l.493.583a2.394,2.394,0,0,1-1.828.842c-1.469,0-2.388-1.178-2.388-2.849C288.391,242.709,289.243,241.441,290.656,241.441Zm-1.29,2.468h2.546c-.011-.752-.348-1.671-1.267-1.671C289.748,242.238,289.4,243.18,289.366,243.909Z" fill="#0b79bf"/>
      <path d="M294.371,245.849v-3.432h-.718v-.841h.718V240.1h.953v1.48h.908v.841h-.908v3.241c0,.382.134.617.426.617a.62.62,0,0,0,.459-.19l.248.718a1.246,1.246,0,0,1-.92.325C294.74,247.128,294.371,246.69,294.371,245.849Z" fill="#0b79bf"/>
      <path d="M296.985,239.68l.628-.37a9.528,9.528,0,0,1,0,9.914l-.628-.38a11.361,11.361,0,0,0,0-9.164Z" fill="#0b79bf"/>
    </g>
    <g>
      <path d="M509.811,431.847h-1.846l-.225.936h-1.5l1.774-6h1.756l1.773,6h-1.5Zm-1.558-1.251h1.278l-.638-2.54Z" fill="#0b79bf"/>
      <path d="M511.7,429.785c0-1.836,1.018-3.105,2.62-3.105a2.195,2.195,0,0,1,2.152,1.575l-1.2.512a1.018,1.018,0,0,0-.954-.8c-.711,0-1.134.765-1.134,1.818s.423,1.818,1.134,1.818a1.036,1.036,0,0,0,.954-.864l1.206.514a2.235,2.235,0,0,1-2.16,1.638C512.717,432.891,511.7,431.613,511.7,429.785Z" fill="#0b79bf"/>
      <path d="M518.261,428.048h-1.287v-1.27H521v1.27H519.72v4.735h-1.459Z" fill="#0b79bf"/>
      <path d="M521.843,426.778h1.467v3.88c0,.6.288.955.864.955s.855-.351.855-.955v-3.88H526.5v3.871a2.329,2.329,0,0,1-4.654,0Z" fill="#0b79bf"/>
      <path d="M530.475,431.847h-1.846l-.225.936h-1.5l1.774-6h1.756l1.773,6h-1.5Zm-1.558-1.251H530.2l-.638-2.54Z" fill="#0b79bf"/>
      <path d="M532.8,426.778h1.458v4.735H536.2v1.27H532.8Z" fill="#0b79bf"/>
    </g>
    <rect x="53.583" y="301.054" width="26.186" height="94.139" fill="#32b44a"/>
    <rect x="93.707" y="357.24" width="26.186" height="37.953" fill="#32b44a"/>
    <rect x="133.058" y="374.699" width="26.186" height="20.494" fill="#32b44a"/>
    <rect x="172.76" y="384.946" width="26.186" height="10.247" fill="#32b44a"/>
    <rect x="212.884" y="387.08" width="26.186" height="8.113" fill="#32b44a"/>
    <rect x="252.585" y="384.946" width="26.186" height="10.247" fill="#32b44a"/>
    <rect x="292.719" y="384.946" width="26.186" height="10.247" fill="#32b44a"/>
    <rect x="332.421" y="373.699" width="26.186" height="21.494" fill="#32b44a"/>
    <rect x="372.545" y="333.798" width="26.186" height="61.395" fill="#32b44a"/>
    <rect x="412.669" y="306.263" width="26.186" height="88.93" fill="#32b44a"/>
    <rect x="451.948" y="286.542" width="26.186" height="108.651" fill="#32b44a"/>
    <rect x="491.65" y="272.349" width="26.186" height="122.844" fill="#32b44a"/>
    <rect x="531.774" y="311.381" width="26.186" height="83.812" fill="#0b79bf"/>
    <polygon points="541.049 432.783 551.303 432.783 546.176 424.52 541.049 432.783" fill="#0b79bf"/>
  </g>
</svg>
