<svg xmlns="http://www.w3.org/2000/svg" width="543.83" height="43.938" viewBox="0 0 543.83 43.938">
  <g>
    <rect width="155.538" height="43.925" fill="#f2f0ec"/>
    <polyline points="543.83 43.938 543.83 0 543.497 0 158.355 0 158.355 43.925 543.277 43.925" fill="#f2f0ec"/>
    <g>
      <path d="M15.4,10.039a1.178,1.178,0,0,0,.759.3.716.716,0,0,0,.77-.779V4.982h1.609V9.609a1.981,1.981,0,0,1-2.219,2.161,2.258,2.258,0,0,1-1.459-.461Z" fill="#0b79bf"/>
      <path d="M22.514,11.068a1.8,1.8,0,0,1-1.429.7,1.187,1.187,0,0,1-1.329-1.311V6.822h1.449V9.881c0,.439.2.609.56.609a.9.9,0,0,0,.749-.5V6.822h1.439v4.826H22.514Z" fill="#0b79bf"/>
      <path d="M27.894,8.6c0-.442-.21-.622-.559-.622a.891.891,0,0,0-.75.51v3.158H25.136V6.822h1.449v.6A1.761,1.761,0,0,1,28,6.7a1.208,1.208,0,0,1,1.339,1.33v3.617H27.894Z" fill="#0b79bf"/>
      <path d="M32.525,6.7c1.358,0,2.158,1.051,2.158,2.6v.4H31.715a.988.988,0,0,0,1.059.93,1.437,1.437,0,0,0,.99-.42l.639.871a2.566,2.566,0,0,1-1.8.69,2.3,2.3,0,0,1-2.338-2.54A2.309,2.309,0,0,1,32.525,6.7Zm-.82,2.029h1.6c-.02-.39-.2-.888-.8-.888C31.925,7.842,31.735,8.34,31.705,8.73Z" fill="#0b79bf"/>
      <path d="M37.766,10.35c2.558-2.3,2.948-2.69,2.948-3.329a.725.725,0,0,0-.8-.709,1.8,1.8,0,0,0-1.42.709l-.939-1.029a3.026,3.026,0,0,1,2.4-1.109A2.149,2.149,0,0,1,42.343,7c0,.959-.589,1.748-2.239,3.238h2.289v1.408H37.766Z" fill="#0b79bf"/>
      <path d="M45.684,4.883c1.709,0,2.489,1.478,2.489,3.437s-.78,3.45-2.489,3.45-2.5-1.5-2.5-3.45S43.975,4.883,45.684,4.883Zm0,1.429c-.65,0-.859.729-.859,2.008s.209,2.02.859,2.02.85-.75.85-2.02S46.324,6.312,45.684,6.312Z" fill="#0b79bf"/>
      <path d="M51.5,9.48l-1.09,2.168H48.566L50.494,8.24,48.675,4.982h1.85L51.5,7.021l.969-2.039h1.859L52.523,8.23l1.929,3.418H52.6Z" fill="#0b79bf"/>
      <path d="M57.464,9.48l-1.09,2.168H54.526L56.454,8.24,54.635,4.982h1.849l.98,2.039.969-2.039h1.859L58.483,8.23l1.929,3.418H58.563Z" fill="#0b79bf"/>
      <path d="M63.365,4.982h4.018V6.371h-2.4v1.2h2.329V8.961H64.984v1.3h2.4v1.388H63.365Z" fill="#0b79bf"/>
      <path d="M68.435,4.982h1.449v6.666H68.435Z" fill="#0b79bf"/>
      <path d="M73.064,6.7c1.359,0,2.159,1.051,2.159,2.6v.4H72.255a.987.987,0,0,0,1.059.93,1.434,1.434,0,0,0,.989-.42l.64.871a2.568,2.568,0,0,1-1.8.69,2.3,2.3,0,0,1-2.339-2.54A2.309,2.309,0,0,1,73.064,6.7Zm-.82,2.029h1.6c-.02-.39-.2-.888-.8-.888C72.464,7.842,72.275,8.34,72.244,8.73Z" fill="#0b79bf"/>
      <path d="M78.154,6.7a2.033,2.033,0,0,1,1.619.66l-.7.991a.93.93,0,0,0-.749-.372c-.59,0-.99.5-.99,1.25s.4,1.26.99,1.26a.911.911,0,0,0,.749-.381l.7,1a2.033,2.033,0,0,1-1.619.661,2.318,2.318,0,0,1-2.3-2.54A2.308,2.308,0,0,1,78.154,6.7Z" fill="#0b79bf"/>
      <path d="M80.825,10.4V8.08h-.61V6.822h.61V5.5h1.449v1.32h.779V8.08h-.779v1.959c0,.281.11.451.33.451a.5.5,0,0,0,.33-.111l.259,1.119a1.612,1.612,0,0,1-1,.272A1.205,1.205,0,0,1,80.825,10.4Z" fill="#0b79bf"/>
      <path d="M83.944,6.822h1.45v.619a1.682,1.682,0,0,1,1.289-.74V8.1a1.2,1.2,0,0,0-.31-.041,1.274,1.274,0,0,0-.979.48v3.107h-1.45Z" fill="#0b79bf"/>
      <path d="M87.4,5.373a.835.835,0,1,1,1.669,0,.835.835,0,1,1-1.669,0Zm.11,1.449h1.449v4.826H87.505Z" fill="#0b79bf"/>
      <path d="M92.173,6.7a2.037,2.037,0,0,1,1.62.66l-.7.991a.932.932,0,0,0-.75-.372c-.589,0-.989.5-.989,1.25s.4,1.26.989,1.26a.913.913,0,0,0,.75-.381l.7,1a2.037,2.037,0,0,1-1.62.661,2.317,2.317,0,0,1-2.3-2.54A2.307,2.307,0,0,1,92.173,6.7Z" fill="#0b79bf"/>
      <path d="M96.934,4.982h1.629V9.291c0,.668.32,1.059.96,1.059s.949-.391.949-1.059V4.982H102.1v4.3a2.585,2.585,0,0,1-5.167,0Z" fill="#0b79bf"/>
      <path d="M103.544,10.09a2.32,2.32,0,0,0,1.369.57c.4,0,.6-.15.6-.39s-.3-.35-.72-.459c-.689-.192-1.659-.43-1.659-1.59,0-.809.65-1.52,1.879-1.52a2.889,2.889,0,0,1,1.779.61l-.559.97a1.818,1.818,0,0,0-1.21-.48c-.309,0-.53.131-.53.34s.261.32.68.429c.71.19,1.719.45,1.719,1.639,0,.91-.76,1.561-1.949,1.561a2.874,2.874,0,0,1-1.979-.69Z" fill="#0b79bf"/>
      <path d="M109.783,6.7c1.359,0,2.159,1.051,2.159,2.6v.4h-2.968a.988.988,0,0,0,1.059.93,1.437,1.437,0,0,0,.99-.42l.639.871a2.566,2.566,0,0,1-1.8.69,2.3,2.3,0,0,1-2.338-2.54A2.309,2.309,0,0,1,109.783,6.7Zm-.819,2.029h1.6c-.02-.39-.2-.888-.8-.888C109.184,7.842,108.994,8.34,108.964,8.73Z" fill="#0b79bf"/>
    </g>
    <g>
      <path d="M15.276,39.166a.941.941,0,0,0,.607.239.573.573,0,0,0,.616-.623V35.12h1.287v3.7a1.583,1.583,0,0,1-1.775,1.727,1.806,1.806,0,0,1-1.167-.367Z" fill="#0b79bf"/>
      <path d="M20.971,39.989a1.438,1.438,0,0,1-1.144.56A.949.949,0,0,1,18.764,39.5V36.591h1.159v2.447c0,.352.16.487.448.487a.715.715,0,0,0,.6-.4V36.591h1.151v3.862H20.971Z" fill="#0b79bf"/>
      <path d="M25.275,38.015c0-.352-.168-.5-.449-.5a.713.713,0,0,0-.6.408v2.526H23.068V36.591h1.159v.48a1.411,1.411,0,0,1,1.135-.576.967.967,0,0,1,1.072,1.064v2.894H25.275Z" fill="#0b79bf"/>
      <path d="M28.979,36.495c1.087,0,1.727.84,1.727,2.079v.32H28.331a.791.791,0,0,0,.848.744,1.145,1.145,0,0,0,.791-.336l.512.7a2.05,2.05,0,0,1-1.439.552,2.037,2.037,0,0,1-.064-4.054Zm-.656,1.623H29.6c-.016-.311-.16-.711-.64-.711C28.5,37.407,28.347,37.807,28.323,38.118Z" fill="#0b79bf"/>
      <path d="M33.172,39.414c2.046-1.84,2.358-2.151,2.358-2.663a.579.579,0,0,0-.639-.567,1.441,1.441,0,0,0-1.136.567L33,35.928a2.422,2.422,0,0,1,1.918-.888,1.719,1.719,0,0,1,1.912,1.7c0,.768-.472,1.4-1.791,2.591h1.831v1.127h-3.7Z" fill="#0b79bf"/>
      <path d="M39.506,35.04c1.368,0,1.991,1.184,1.991,2.751s-.623,2.758-1.991,2.758-2-1.2-2-2.758S38.139,35.04,39.506,35.04Zm0,1.144c-.519,0-.687.584-.687,1.607s.168,1.614.687,1.614.68-.6.68-1.614S40.018,36.184,39.506,36.184Z" fill="#0b79bf"/>
      <path d="M44.163,38.718l-.872,1.735H41.812l1.543-2.726L41.9,35.12h1.479l.784,1.631.775-1.631h1.487l-1.447,2.6,1.543,2.734H45.042Z" fill="#0b79bf"/>
      <path d="M48.931,38.718l-.872,1.735H46.58l1.543-2.726L46.668,35.12h1.479l.784,1.631.775-1.631h1.487l-1.447,2.6,1.543,2.734H49.81Z" fill="#0b79bf"/>
      <path d="M53.651,35.12h1.3v3.446c0,.536.256.848.767.848s.76-.312.76-.848V35.12h1.3v3.439a2.068,2.068,0,0,1-4.134,0Z" fill="#0b79bf"/>
      <path d="M58.939,39.206a1.852,1.852,0,0,0,1.1.455c.32,0,.479-.119.479-.311s-.239-.28-.575-.368c-.552-.152-1.328-.344-1.328-1.271,0-.649.52-1.216,1.5-1.216a2.315,2.315,0,0,1,1.424.488l-.448.776a1.447,1.447,0,0,0-.967-.384c-.248,0-.424.1-.424.271s.208.256.543.344c.568.153,1.376.361,1.376,1.312,0,.727-.608,1.247-1.559,1.247A2.288,2.288,0,0,1,58.476,40Z" fill="#0b79bf"/>
      <path d="M63.93,36.495c1.088,0,1.727.84,1.727,2.079v.32H63.283a.791.791,0,0,0,.847.744,1.149,1.149,0,0,0,.792-.336l.512.7a2.053,2.053,0,0,1-1.44.552,2.037,2.037,0,0,1-.064-4.054Zm-.655,1.623h1.279c-.016-.311-.16-.711-.639-.711C63.451,37.407,63.3,37.807,63.275,38.118Z" fill="#0b79bf"/>
      <path d="M69.379,36.775l-.8.816-.736-.768,1.711-1.7h1.12v5.333h-1.3Z" fill="#0b79bf"/>
      <path d="M71.715,41.181a1.456,1.456,0,0,0,.656-.743.847.847,0,0,1-.177.023.61.61,0,0,1-.591-.648.7.7,0,0,1,.7-.7.8.8,0,0,1,.784.888,1.928,1.928,0,0,1-.879,1.566Z" fill="#0b79bf"/>
      <path d="M74.547,39.062a1.02,1.02,0,0,0,.807.36c.576,0,1.015-.56,1.015-1.352v-.063a1.3,1.3,0,0,1-1.111.623,1.572,1.572,0,0,1-1.543-1.743,1.785,1.785,0,0,1,1.855-1.855c1.479,0,2.1,1.239,2.1,2.75,0,1.68-.88,2.759-2.3,2.759a2.068,2.068,0,0,1-1.423-.535Zm1.095-2.911a.63.63,0,0,0-.616.68.639.639,0,0,0,.656.72.854.854,0,0,0,.687-.416C76.338,36.68,76.177,36.151,75.642,36.151Z" fill="#0b79bf"/>
      <path d="M80.386,36.247H78.195V35.12h3.646v.9L80.21,40.453H78.818Z" fill="#0b79bf"/>
      <path d="M83.338,37.7a1.315,1.315,0,0,1-.927-1.256c0-1,.967-1.407,1.895-1.407s1.894.408,1.894,1.407a1.322,1.322,0,0,1-.935,1.256,1.525,1.525,0,0,1,1.008,1.359c0,.983-.848,1.487-1.967,1.487s-1.967-.495-1.967-1.479A1.518,1.518,0,0,1,83.338,37.7Zm.968.512c-.224.031-.672.264-.672.679,0,.36.288.551.672.551s.671-.191.671-.551C84.977,38.479,84.522,38.246,84.306,38.215Zm0-2.071c-.376,0-.6.2-.6.527,0,.36.4.552.6.592.2-.04.6-.232.6-.592A.525.525,0,0,0,84.306,36.144Z" fill="#0b79bf"/>
      <path d="M90.346,39.054l-.336.5v.9H88.851V35.12H90.01v3.046l.959-1.575h1.336l-1.159,1.735,1.223,2.127H91.018Z" fill="#0b79bf"/>
      <path d="M95.513,37.23l-.591,3.223H93.586L92.355,35.12h1.383l.592,3.4.7-3.4h.991l.687,3.4.592-3.4h1.383l-1.231,5.333H96.113Z" fill="#0b79bf"/>
      <path d="M101.457,38c0-.352-.168-.479-.456-.479a.725.725,0,0,0-.6.408v2.526H99.25V35.12H100.4v1.951a1.428,1.428,0,0,1,1.144-.576.949.949,0,0,1,1.064,1.048v2.91h-1.152Z" fill="#0b79bf"/>
    </g>
    <g>
      <path d="M15.357,26.131c3.586-3.221,4.131-3.768,4.131-4.664a1.016,1.016,0,0,0-1.12-.994,2.517,2.517,0,0,0-1.989.994l-1.317-1.444a4.249,4.249,0,0,1,3.362-1.554c1.975,0,3.348,1.177,3.348,2.97,0,1.344-.827,2.452-3.138,4.54h3.208v1.974H15.357Z" fill="#0b79bf"/>
      <path d="M23.378,29.227a2.545,2.545,0,0,0,1.149-1.3,1.284,1.284,0,0,1-.308.043,1.069,1.069,0,0,1-1.037-1.135A1.229,1.229,0,0,1,24.4,25.613a1.41,1.41,0,0,1,1.373,1.555,3.379,3.379,0,0,1-1.541,2.746Z" fill="#0b79bf"/>
      <path d="M27.8,21.51l-1.4,1.428-1.289-1.344,3-2.985h1.961v9.344H27.8Z" fill="#0b79bf"/>
      <path d="M33.865,21.51l-1.4,1.428-1.289-1.344,3-2.985h1.961v9.344h-2.27Z" fill="#0b79bf"/>
      <path d="M38.919,25.25a2.594,2.594,0,0,0,1.946.91,1.184,1.184,0,0,0,1.275-1.219,1.1,1.1,0,0,0-1.19-1.218,1.778,1.778,0,0,0-1.457.728l-1.625-.392v-5.45h6.023v1.948H40.1v2a2.351,2.351,0,0,1,1.737-.745c1.443,0,2.619,1.122,2.619,3.041a3.182,3.182,0,0,1-3.515,3.264,4.072,4.072,0,0,1-3.334-1.43Z" fill="#0b79bf"/>
      <path d="M51.561,25.5l-.588.881v1.57H48.942V18.609h2.031v5.338l1.68-2.759h2.34l-2.031,3.039,2.143,3.726H52.737Z" fill="#0b79bf"/>
      <path d="M60.606,22.307l-1.037,5.646H57.231l-2.158-9.344H57.5l1.036,5.953,1.219-5.953h1.737l1.2,5.953,1.037-5.953h2.423L64,27.953H61.657Z" fill="#0b79bf"/>
      <path d="M71.007,23.652c0-.617-.293-.84-.8-.84a1.267,1.267,0,0,0-1.05.713v4.428H67.142V18.609h2.017v3.418a2.5,2.5,0,0,1,2-1.007,1.662,1.662,0,0,1,1.863,1.834v5.1H71.007Z" fill="#0b79bf"/>
    </g>
    <g>
      <path d="M191.825,8.32c0-2.039,1.129-3.447,2.908-3.447a2.439,2.439,0,0,1,2.389,1.748l-1.329.57a1.13,1.13,0,0,0-1.06-.888c-.79,0-1.259.849-1.259,2.017s.469,2.02,1.259,2.02a1.153,1.153,0,0,0,1.06-.959l1.339.568a2.485,2.485,0,0,1-2.4,1.821C192.954,11.77,191.825,10.35,191.825,8.32Z" fill="#0b79bf"/>
      <path d="M197.715,9.23a2.3,2.3,0,1,1,4.587,0,2.305,2.305,0,1,1-4.587,0Zm3.1,0c0-.7-.25-1.25-.809-1.25s-.8.551-.8,1.25.25,1.26.8,1.26S200.813,9.939,200.813,9.23Z" fill="#0b79bf"/>
      <path d="M203.444,10.09a2.323,2.323,0,0,0,1.37.57c.4,0,.6-.15.6-.39s-.3-.35-.72-.459c-.689-.192-1.658-.43-1.658-1.59,0-.809.649-1.52,1.879-1.52a2.893,2.893,0,0,1,1.779.61l-.56.97a1.818,1.818,0,0,0-1.21-.48c-.309,0-.529.131-.529.34s.26.32.679.429c.71.19,1.72.45,1.72,1.639,0,.91-.76,1.561-1.95,1.561a2.871,2.871,0,0,1-1.978-.69Z" fill="#0b79bf"/>
      <path d="M207.914,10.4V8.08h-.61V6.822h.61V5.5h1.449v1.32h.78V8.08h-.78v1.959c0,.281.11.451.33.451a.5.5,0,0,0,.33-.111l.26,1.119a1.616,1.616,0,0,1-1,.272A1.206,1.206,0,0,1,207.914,10.4Z" fill="#0b79bf"/>
      <path d="M213.314,13.488V6.822h1.449v.569a1.376,1.376,0,0,1,1.189-.69c1.09,0,1.809.92,1.809,2.529,0,1.59-.719,2.54-1.809,2.54a1.368,1.368,0,0,1-1.189-.69v2.408Zm2.149-5.508a.833.833,0,0,0-.7.44v1.619a.867.867,0,0,0,.7.451c.529,0,.819-.51.819-1.26S215.992,7.98,215.463,7.98Z" fill="#0b79bf"/>
      <path d="M220.693,6.7c1.359,0,2.159,1.051,2.159,2.6v.4h-2.969a.989.989,0,0,0,1.06.93,1.434,1.434,0,0,0,.989-.42l.64.871a2.569,2.569,0,0,1-1.8.69,2.3,2.3,0,0,1-2.339-2.54A2.309,2.309,0,0,1,220.693,6.7Zm-.82,2.029h1.6c-.02-.39-.2-.888-.8-.888C220.093,7.842,219.9,8.34,219.873,8.73Z" fill="#0b79bf"/>
      <path d="M223.734,6.822h1.449v.619a1.682,1.682,0,0,1,1.289-.74V8.1a1.2,1.2,0,0,0-.31-.041,1.274,1.274,0,0,0-.979.48v3.107h-1.449Z" fill="#0b79bf"/>
      <path d="M232.332,11.08a1.424,1.424,0,0,1-1.2.69c-1.08,0-1.809-.92-1.809-2.54,0-1.558.72-2.529,1.809-2.529a1.4,1.4,0,0,1,1.2.69V4.982h1.439v6.666h-1.439Zm0-2.66a.885.885,0,0,0-.709-.44c-.53,0-.82.51-.82,1.25s.29,1.26.82,1.26a.9.9,0,0,0,.709-.451Z" fill="#0b79bf"/>
      <path d="M237.463,11.18a1.627,1.627,0,0,1-1.27.59,1.5,1.5,0,0,1-1.509-1.6,1.43,1.43,0,0,1,1.509-1.539,1.593,1.593,0,0,1,1.27.549V8.621a.745.745,0,0,0-.85-.75,1.842,1.842,0,0,0-1.19.5l-.509-.971a3.011,3.011,0,0,1,1.979-.7c1.1,0,2.008.471,2.008,1.77v3.177h-1.438Zm0-1.231a.792.792,0,0,0-.7-.379.625.625,0,1,0,0,1.25.794.794,0,0,0,.7-.381Z" fill="#0b79bf"/>
      <path d="M240.563,12.328c.25,0,.43-.08.5-.279l.11-.311-1.639-4.916h1.529l.85,3.088.869-3.088h1.529l-1.868,5.547a1.612,1.612,0,0,1-1.77,1.238,2.532,2.532,0,0,1-.629-.08l.2-1.269A.645.645,0,0,0,240.563,12.328Z" fill="#0b79bf"/>
      <path d="M245.783,6.752a.895.895,0,1,1-.9.889A.9.9,0,0,1,245.783,6.752Zm0,3.228a.89.89,0,1,1-.9.889A.9.9,0,0,1,245.783,9.98Z" fill="#0b79bf"/>
    </g>
    <g>
      <path d="M196.044,28.051v1.3h-1.471V28.092A4.412,4.412,0,0,1,191.8,26.9l1.079-1.736a3.138,3.138,0,0,0,2.269.994c.672,0,1.079-.351,1.079-.812,0-.561-.547-.827-1.331-1.121-1.2-.434-2.815-.954-2.815-2.928a2.811,2.811,0,0,1,2.493-2.774V17.2h1.471v1.3a4.373,4.373,0,0,1,2.311,1.022L197.318,21.2a2.987,2.987,0,0,0-1.975-.771c-.644,0-.952.322-.952.744,0,.5.532.756,1.344,1.049,1.191.435,2.788,1.023,2.788,2.914A2.819,2.819,0,0,1,196.044,28.051Z" fill="#0b79bf"/>
      <path d="M201.88,21.51l-1.4,1.428-1.289-1.344,3-2.985h1.961v9.344h-2.27Z" fill="#0b79bf"/>
      <path d="M209.035,18.469c2.4,0,3.488,2.074,3.488,4.82,0,2.731-1.092,4.832-3.488,4.832s-3.5-2.1-3.5-4.832C205.533,20.543,206.64,18.469,209.035,18.469Zm0,2c-.91,0-1.2,1.023-1.2,2.816,0,1.777.294,2.828,1.2,2.828s1.191-1.051,1.191-2.828C210.226,21.5,209.932,20.473,209.035,20.473Z" fill="#0b79bf"/>
      <path d="M214.76,25.613a1.247,1.247,0,1,1-1.26,1.246A1.268,1.268,0,0,1,214.76,25.613Z" fill="#0b79bf"/>
      <path d="M221.285,18.469a3.6,3.6,0,0,1,2.494.939l-1.051,1.653a1.752,1.752,0,0,0-1.414-.631c-1.009,0-1.766,1.023-1.766,2.382v.1a2.268,2.268,0,0,1,1.947-1.094,2.754,2.754,0,0,1,2.69,3.055,3.119,3.119,0,0,1-3.25,3.25c-2.591,0-3.684-2.172-3.684-4.818C217.251,20.361,218.792,18.469,221.285,18.469Zm-.546,5.24a1.534,1.534,0,0,0-1.205.729c.056.8.365,1.722,1.289,1.722a1.231,1.231,0,0,0-.084-2.451Z" fill="#0b79bf"/>
      <path d="M228.873,20.584h-3.838V18.609h6.387v1.569l-2.857,7.775h-2.437Z" fill="#0b79bf"/>
    </g>
    <g>
      <path d="M289.487,9.9l-.419.629v1.119h-1.45V4.982h1.45V8.791l1.2-1.969h1.67l-1.45,2.168,1.529,2.658h-1.689Z" fill="#0b79bf"/>
      <path d="M295.946,7.621l-.74,4.027h-1.669L292,4.982h1.73l.739,4.248.87-4.248h1.239l.86,4.248.739-4.248H299.9l-1.539,6.666H296.7Z" fill="#0b79bf"/>
      <path d="M303.377,8.58c0-.439-.21-.6-.569-.6a.9.9,0,0,0-.75.51v3.158h-1.44V4.982h1.44v2.44a1.783,1.783,0,0,1,1.429-.721,1.187,1.187,0,0,1,1.33,1.311v3.636h-1.44Z" fill="#0b79bf"/>
      <path d="M308.277,13.488V6.822h1.45v.569a1.374,1.374,0,0,1,1.189-.69c1.09,0,1.81.92,1.81,2.529,0,1.59-.72,2.54-1.81,2.54a1.367,1.367,0,0,1-1.189-.69v2.408Zm2.15-5.508a.833.833,0,0,0-.7.44v1.619a.867.867,0,0,0,.7.451c.529,0,.819-.51.819-1.26S310.956,7.98,310.427,7.98Z" fill="#0b79bf"/>
      <path d="M315.656,6.7c1.36,0,2.16,1.051,2.16,2.6v.4h-2.969a.989.989,0,0,0,1.059.93,1.435,1.435,0,0,0,.99-.42l.639.871a2.566,2.566,0,0,1-1.8.69A2.3,2.3,0,0,1,313.4,9.23,2.309,2.309,0,0,1,315.656,6.7Zm-.819,2.029h1.6c-.021-.39-.2-.888-.8-.888C315.057,7.842,314.867,8.34,314.837,8.73Z" fill="#0b79bf"/>
      <path d="M318.7,6.822h1.45v.619a1.682,1.682,0,0,1,1.289-.74V8.1a1.194,1.194,0,0,0-.31-.041,1.272,1.272,0,0,0-.979.48v3.107H318.7Z" fill="#0b79bf"/>
      <path d="M327.3,11.08a1.425,1.425,0,0,1-1.2.69c-1.08,0-1.81-.92-1.81-2.54,0-1.558.72-2.529,1.81-2.529a1.4,1.4,0,0,1,1.2.69V4.982h1.439v6.666H327.3Zm0-2.66a.885.885,0,0,0-.71-.44c-.529,0-.819.51-.819,1.25s.29,1.26.819,1.26a.9.9,0,0,0,.71-.451Z" fill="#0b79bf"/>
      <path d="M332.426,11.18a1.623,1.623,0,0,1-1.269.59,1.5,1.5,0,0,1-1.509-1.6,1.431,1.431,0,0,1,1.509-1.539,1.592,1.592,0,0,1,1.269.549V8.621c0-.451-.31-.75-.85-.75a1.838,1.838,0,0,0-1.188.5l-.51-.971a3.011,3.011,0,0,1,1.979-.7c1.1,0,2.008.471,2.008,1.77v3.177h-1.439Zm0-1.231a.79.79,0,0,0-.7-.379.625.625,0,1,0,0,1.25.792.792,0,0,0,.7-.381Z" fill="#0b79bf"/>
      <path d="M335.527,12.328c.25,0,.43-.08.5-.279l.111-.311L334.5,6.822h1.528l.85,3.088.87-3.088h1.53l-1.87,5.547a1.611,1.611,0,0,1-1.769,1.238,2.538,2.538,0,0,1-.629-.08l.2-1.269A.645.645,0,0,0,335.527,12.328Z" fill="#0b79bf"/>
      <path d="M340.747,6.752a.895.895,0,1,1-.9.889A.9.9,0,0,1,340.747,6.752Zm0,3.228a.89.89,0,1,1-.9.889A.9.9,0,0,1,340.747,9.98Z" fill="#0b79bf"/>
    </g>
    <g>
      <path d="M291.23,20.584h-3.838V18.609h6.387v1.569l-2.857,7.775h-2.438Z" fill="#0b79bf"/>
      <path d="M297.054,21.51l-1.4,1.428-1.288-1.344,3-2.985h1.961v9.344h-2.268Z" fill="#0b79bf"/>
    </g>
    <g>
      <path d="M382.572,4.982h2.679a2.057,2.057,0,0,1,2.169,2.2,2.037,2.037,0,0,1-2.169,2.168h-1.059v2.3h-1.62Zm2.48,1.389h-.86v1.59h.86a.72.72,0,0,0,.729-.789A.724.724,0,0,0,385.052,6.371Z" fill="#0b79bf"/>
      <path d="M388.292,6.822h1.449v.619a1.684,1.684,0,0,1,1.289-.74V8.1a1.186,1.186,0,0,0-.309-.041,1.276,1.276,0,0,0-.98.48v3.107h-1.449Z" fill="#0b79bf"/>
      <path d="M391.743,5.373a.835.835,0,1,1,.839.838A.837.837,0,0,1,391.743,5.373Zm.11,1.449H393.3v4.826h-1.449Z" fill="#0b79bf"/>
      <path d="M394.223,9.23a2.3,2.3,0,1,1,4.588,0,2.306,2.306,0,1,1-4.588,0Zm3.1,0c0-.7-.25-1.25-.809-1.25s-.8.551-.8,1.25.25,1.26.8,1.26S397.321,9.939,397.321,9.23Z" fill="#0b79bf"/>
      <path d="M399.733,6.822h1.449v.619a1.682,1.682,0,0,1,1.289-.74V8.1a1.194,1.194,0,0,0-.31-.041,1.274,1.274,0,0,0-.979.48v3.107h-1.449Z" fill="#0b79bf"/>
      <path d="M407.062,7.051l-1,1.019-.92-.959,2.138-2.129h1.4v6.666h-1.619Z" fill="#0b79bf"/>
      <path d="M409.822,10.35c2.559-2.3,2.95-2.69,2.95-3.329a.725.725,0,0,0-.8-.709,1.8,1.8,0,0,0-1.42.709l-.94-1.029a3.031,3.031,0,0,1,2.4-1.109A2.149,2.149,0,0,1,414.4,7c0,.959-.59,1.748-2.24,3.238h2.289v1.408h-4.628Z" fill="#0b79bf"/>
      <path d="M423.039,8.531c0-.349-.139-.551-.479-.551a.889.889,0,0,0-.72.51v3.158H420.4V8.531c0-.33-.13-.551-.49-.551a.888.888,0,0,0-.71.51v3.158h-1.449V6.822H419.2v.6a1.754,1.754,0,0,1,1.38-.721,1.113,1.113,0,0,1,1.2.83,1.757,1.757,0,0,1,1.439-.83,1.149,1.149,0,0,1,1.269,1.289v3.658h-1.449Z" fill="#0b79bf"/>
      <path d="M425.411,9.23a2.3,2.3,0,1,1,4.588,0,2.306,2.306,0,1,1-4.588,0Zm3.1,0c0-.7-.25-1.25-.81-1.25s-.8.551-.8,1.25.25,1.26.8,1.26S428.51,9.939,428.51,9.23Z" fill="#0b79bf"/>
      <path d="M433.681,8.6c0-.442-.21-.622-.56-.622a.892.892,0,0,0-.75.51v3.158h-1.449V6.822h1.449v.6a1.763,1.763,0,0,1,1.42-.721,1.209,1.209,0,0,1,1.339,1.33v3.617h-1.449Z" fill="#0b79bf"/>
      <path d="M436.542,10.4V8.08h-.609V6.822h.609V5.5h1.449v1.32h.78V8.08h-.78v1.959c0,.281.11.451.33.451a.5.5,0,0,0,.33-.111l.259,1.119a1.61,1.61,0,0,1-1,.272A1.206,1.206,0,0,1,436.542,10.4Z" fill="#0b79bf"/>
      <path d="M442.43,8.58c0-.439-.21-.6-.57-.6a.907.907,0,0,0-.75.51v3.158h-1.439V4.982h1.439v2.44a1.786,1.786,0,0,1,1.43-.721,1.186,1.186,0,0,1,1.329,1.311v3.636H442.43Z" fill="#0b79bf"/>
      <path d="M445.271,10.09a2.323,2.323,0,0,0,1.37.57c.4,0,.6-.15.6-.39s-.3-.35-.719-.459c-.69-.192-1.66-.43-1.66-1.59,0-.809.65-1.52,1.879-1.52a2.894,2.894,0,0,1,1.78.61l-.561.97a1.813,1.813,0,0,0-1.209-.48c-.309,0-.529.131-.529.34s.26.32.68.429c.708.19,1.718.45,1.718,1.639,0,.91-.76,1.561-1.949,1.561a2.869,2.869,0,0,1-1.978-.69Z" fill="#0b79bf"/>
      <path d="M453.79,6.7c1.36,0,2.159,1.051,2.159,2.6v.4h-2.968a.988.988,0,0,0,1.059.93,1.433,1.433,0,0,0,.989-.42l.64.871a2.566,2.566,0,0,1-1.8.69,2.3,2.3,0,0,1-2.339-2.54A2.31,2.31,0,0,1,453.79,6.7Zm-.819,2.029h1.6c-.02-.39-.2-.888-.8-.888C453.191,7.842,453,8.34,452.971,8.73Z" fill="#0b79bf"/>
      <path d="M456.831,4.982h1.449v6.666h-1.449Z" fill="#0b79bf"/>
      <path d="M461.46,6.7c1.359,0,2.159,1.051,2.159,2.6v.4h-2.968a.988.988,0,0,0,1.059.93,1.433,1.433,0,0,0,.989-.42l.64.871a2.566,2.566,0,0,1-1.8.69A2.3,2.3,0,0,1,459.2,9.23,2.31,2.31,0,0,1,461.46,6.7Zm-.819,2.029h1.6c-.02-.39-.2-.888-.8-.888C460.86,7.842,460.671,8.34,460.641,8.73Z" fill="#0b79bf"/>
      <path d="M466.55,6.7a2.034,2.034,0,0,1,1.619.66l-.7.991a.934.934,0,0,0-.75-.372c-.59,0-.989.5-.989,1.25s.4,1.26.989,1.26a.914.914,0,0,0,.75-.381l.7,1a2.034,2.034,0,0,1-1.619.661,2.318,2.318,0,0,1-2.3-2.54A2.308,2.308,0,0,1,466.55,6.7Z" fill="#0b79bf"/>
      <path d="M469.221,10.4V8.08h-.61V6.822h.61V5.5h1.449v1.32h.779V8.08h-.779v1.959c0,.281.109.451.33.451a.494.494,0,0,0,.329-.111l.26,1.119a1.612,1.612,0,0,1-1,.272A1.205,1.205,0,0,1,469.221,10.4Z" fill="#0b79bf"/>
      <path d="M472.341,6.822h1.449v.619a1.684,1.684,0,0,1,1.289-.74V8.1a1.186,1.186,0,0,0-.309-.041,1.274,1.274,0,0,0-.98.48v3.107h-1.449Z" fill="#0b79bf"/>
      <path d="M475.791,5.373a.835.835,0,1,1,.839.838A.837.837,0,0,1,475.791,5.373Zm.11,1.449h1.449v4.826H475.9Z" fill="#0b79bf"/>
      <path d="M480.569,6.7a2.035,2.035,0,0,1,1.62.66l-.7.991a.931.931,0,0,0-.75-.372c-.589,0-.989.5-.989,1.25s.4,1.26.989,1.26a.912.912,0,0,0,.75-.381l.7,1a2.035,2.035,0,0,1-1.62.661,2.317,2.317,0,0,1-2.3-2.54A2.307,2.307,0,0,1,480.569,6.7Z" fill="#0b79bf"/>
      <path d="M488.039,11.068a1.8,1.8,0,0,1-1.43.7,1.188,1.188,0,0,1-1.329-1.311V6.822h1.45V9.881c0,.439.2.609.559.609a.892.892,0,0,0,.75-.5V6.822h1.44v4.826h-1.44Z" fill="#0b79bf"/>
      <path d="M490.88,10.09a2.323,2.323,0,0,0,1.37.57c.4,0,.6-.15.6-.39s-.3-.35-.72-.459c-.689-.192-1.659-.43-1.659-1.59,0-.809.649-1.52,1.879-1.52a2.893,2.893,0,0,1,1.779.61l-.561.97a1.813,1.813,0,0,0-1.209-.48c-.309,0-.529.131-.529.34s.26.32.68.429c.709.19,1.719.45,1.719,1.639,0,.91-.76,1.561-1.95,1.561a2.869,2.869,0,0,1-1.978-.69Z" fill="#0b79bf"/>
      <path d="M497.119,6.7c1.36,0,2.159,1.051,2.159,2.6v.4H496.31a.988.988,0,0,0,1.059.93,1.437,1.437,0,0,0,.99-.42l.639.871a2.566,2.566,0,0,1-1.8.69,2.3,2.3,0,0,1-2.339-2.54A2.31,2.31,0,0,1,497.119,6.7ZM496.3,8.73h1.6c-.021-.39-.2-.888-.8-.888C496.52,7.842,496.33,8.34,496.3,8.73Z" fill="#0b79bf"/>
      <path d="M501,6.752a.895.895,0,1,1-.9.889A.9.9,0,0,1,501,6.752Zm0,3.228a.89.89,0,1,1-.9.889A.9.9,0,0,1,501,9.98Z" fill="#0b79bf"/>
    </g>
    <g>
      <path d="M382.605,26.131c3.586-3.221,4.131-3.768,4.131-4.664a1.015,1.015,0,0,0-1.12-.994,2.518,2.518,0,0,0-1.989.994l-1.316-1.444a4.247,4.247,0,0,1,3.361-1.554c1.976,0,3.348,1.177,3.348,2.97,0,1.344-.827,2.452-3.138,4.54h3.208v1.974h-6.485Z" fill="#0b79bf"/>
      <path d="M393.932,20.584h-3.838V18.609h6.388v1.569l-2.858,7.775h-2.437Z" fill="#0b79bf"/>
      <path d="M396.618,29.227a2.54,2.54,0,0,0,1.149-1.3,1.284,1.284,0,0,1-.308.043,1.069,1.069,0,0,1-1.037-1.135,1.23,1.23,0,0,1,1.219-1.219,1.41,1.41,0,0,1,1.373,1.555,3.379,3.379,0,0,1-1.541,2.746Z" fill="#0b79bf"/>
      <path d="M400.385,26.131c3.586-3.221,4.132-3.768,4.132-4.664a1.016,1.016,0,0,0-1.12-.994,2.519,2.519,0,0,0-1.99.994l-1.316-1.444a4.247,4.247,0,0,1,3.361-1.554c1.975,0,3.348,1.177,3.348,2.97,0,1.344-.826,2.452-3.138,4.54h3.208v1.974h-6.485Z" fill="#0b79bf"/>
      <path d="M408.183,26.131c3.586-3.221,4.132-3.768,4.132-4.664a1.016,1.016,0,0,0-1.121-.994,2.518,2.518,0,0,0-1.989.994l-1.316-1.444a4.247,4.247,0,0,1,3.361-1.554c1.976,0,3.348,1.177,3.348,2.97,0,1.344-.826,2.452-3.138,4.54h3.208v1.974h-6.485Z" fill="#0b79bf"/>
      <path d="M416.946,25.221a2.772,2.772,0,0,0,2.018.939c.9,0,1.289-.449,1.289-1.01,0-.671-.49-.951-1.373-.951-.322,0-.784.014-.938.028V22.238c.154.014.658.014.882.014.812,0,1.3-.295,1.3-.883,0-.617-.5-.939-1.26-.939A2.521,2.521,0,0,0,417,21.3L415.771,20a3.935,3.935,0,0,1,3.291-1.527c2.017,0,3.278.912,3.278,2.551a2.2,2.2,0,0,1-1.808,2.115,2.246,2.246,0,0,1,1.948,2.226c0,1.639-1.359,2.76-3.418,2.76a4.238,4.238,0,0,1-3.418-1.484Z" fill="#0b79bf"/>
    </g>
  </g>
</svg>
