<svg xmlns="http://www.w3.org/2000/svg" width="543.923" height="49.803" viewBox="0 0 543.923 49.803">
  <g>
    <rect y="2.369" width="543.923" height="43.976" fill="#f2f0ec"/>
    <g>
      <path d="M46.4,11.483a1.177,1.177,0,0,0,.76.3.717.717,0,0,0,.769-.78V6.426h1.609v4.627a1.979,1.979,0,0,1-2.218,2.158,2.247,2.247,0,0,1-1.459-.459Z" fill="#0b79bf"/>
      <path d="M53.275,12.622a1.624,1.624,0,0,1-1.269.589,1.5,1.5,0,0,1-1.51-1.6,1.432,1.432,0,0,1,1.51-1.539,1.592,1.592,0,0,1,1.269.551v-.561a.745.745,0,0,0-.85-.75,1.853,1.853,0,0,0-1.189.5l-.51-.969a3,3,0,0,1,1.979-.7c1.1,0,2.009.469,2.009,1.768v3.179H53.275Zm0-1.229a.793.793,0,0,0-.7-.381.625.625,0,1,0,0,1.25.791.791,0,0,0,.7-.379Z" fill="#0b79bf"/>
      <path d="M58.645,10.043c0-.439-.21-.619-.56-.619a.891.891,0,0,0-.75.51v3.158H55.886V8.264h1.449v.6a1.764,1.764,0,0,1,1.42-.719,1.207,1.207,0,0,1,1.339,1.328v3.619H58.645Z" fill="#0b79bf"/>
      <path d="M63.466,11.793c2.559-2.3,2.948-2.689,2.948-3.33a.725.725,0,0,0-.8-.709,1.8,1.8,0,0,0-1.419.709l-.94-1.029a3.034,3.034,0,0,1,2.4-1.109,2.148,2.148,0,0,1,2.389,2.119c0,.961-.589,1.75-2.239,3.238h2.289v1.41H63.466Z" fill="#0b79bf"/>
      <path d="M71.384,6.325c1.709,0,2.489,1.48,2.489,3.439s-.78,3.447-2.489,3.447-2.5-1.5-2.5-3.447S69.675,6.325,71.384,6.325Zm0,1.429c-.649,0-.859.731-.859,2.01s.21,2.018.859,2.018.85-.748.85-2.018S72.024,7.754,71.384,7.754Z" fill="#0b79bf"/>
      <path d="M77.205,10.922l-1.09,2.17H74.266l1.929-3.408L74.376,6.426h1.849l.98,2.037.969-2.037h1.859L78.224,9.674l1.929,3.418H78.3Z" fill="#0b79bf"/>
      <path d="M83.165,10.922l-1.09,2.17H80.226l1.929-3.408L80.336,6.426h1.849l.98,2.037.969-2.037h1.859L84.184,9.674l1.929,3.418H84.264Z" fill="#0b79bf"/>
      <path d="M89.066,6.426h4.017V7.815h-2.4v1.2h2.328V10.4H90.685v1.3h2.4v1.39H89.066Z" fill="#0b79bf"/>
      <path d="M94.135,6.426h1.45v6.666h-1.45Z" fill="#0b79bf"/>
      <path d="M98.765,8.145c1.359,0,2.159,1.049,2.159,2.6v.4H97.955a.988.988,0,0,0,1.059.93,1.437,1.437,0,0,0,.99-.42l.64.869a2.569,2.569,0,0,1-1.8.689,2.3,2.3,0,0,1-2.338-2.539A2.308,2.308,0,0,1,98.765,8.145Zm-.82,2.029h1.6c-.02-.39-.2-.89-.8-.89C98.165,9.284,97.975,9.784,97.945,10.174Z" fill="#0b79bf"/>
      <path d="M103.855,8.145a2.04,2.04,0,0,1,1.619.658l-.7.99a.932.932,0,0,0-.749-.369c-.59,0-.99.5-.99,1.248s.4,1.26.99,1.26a.913.913,0,0,0,.749-.379l.7,1a2.034,2.034,0,0,1-1.619.66,2.316,2.316,0,0,1-2.3-2.539A2.307,2.307,0,0,1,103.855,8.145Z" fill="#0b79bf"/>
      <path d="M106.526,11.842V9.524h-.61V8.264h.61V6.946h1.449V8.264h.779v1.26h-.779v1.959c0,.279.11.449.329.449a.5.5,0,0,0,.33-.109l.26,1.119a1.617,1.617,0,0,1-1,.269A1.2,1.2,0,0,1,106.526,11.842Z" fill="#0b79bf"/>
      <path d="M109.645,8.264h1.449v.619a1.688,1.688,0,0,1,1.29-.738v1.4a1.358,1.358,0,0,0-.31-.039,1.281,1.281,0,0,0-.98.479v3.109h-1.449Z" fill="#0b79bf"/>
      <path d="M113.1,6.815a.835.835,0,1,1,1.669,0,.835.835,0,1,1-1.669,0Zm.11,1.449h1.449v4.828h-1.449Z" fill="#0b79bf"/>
      <path d="M117.874,8.145a2.039,2.039,0,0,1,1.619.658l-.7.99a.932.932,0,0,0-.75-.369c-.59,0-.99.5-.99,1.248s.4,1.26.99,1.26a.914.914,0,0,0,.75-.379l.7,1a2.033,2.033,0,0,1-1.619.66,2.317,2.317,0,0,1-2.3-2.539A2.307,2.307,0,0,1,117.874,8.145Z" fill="#0b79bf"/>
      <path d="M122.635,6.426h1.629v4.307c0,.67.32,1.06.959,1.06s.95-.39.95-1.06V6.426H127.8v4.3a2.585,2.585,0,0,1-5.167,0Z" fill="#0b79bf"/>
      <path d="M129.245,11.532a2.307,2.307,0,0,0,1.369.57c.4,0,.6-.15.6-.389s-.3-.351-.72-.461c-.69-.189-1.659-.429-1.659-1.587,0-.811.65-1.52,1.879-1.52a2.9,2.9,0,0,1,1.779.609l-.56.969a1.812,1.812,0,0,0-1.209-.478c-.31,0-.53.129-.53.34s.26.318.68.429c.71.19,1.719.449,1.719,1.639,0,.91-.76,1.558-1.949,1.558a2.864,2.864,0,0,1-1.979-.689Z" fill="#0b79bf"/>
      <path d="M135.484,8.145c1.358,0,2.158,1.049,2.158,2.6v.4h-2.968a.988.988,0,0,0,1.059.93,1.437,1.437,0,0,0,.99-.42l.64.869a2.569,2.569,0,0,1-1.8.689,2.3,2.3,0,0,1-2.338-2.539A2.308,2.308,0,0,1,135.484,8.145Zm-.82,2.029h1.6c-.02-.39-.2-.89-.8-.89C134.884,9.284,134.694,9.784,134.664,10.174Z" fill="#0b79bf"/>
    </g>
    <g>
      <path d="M46.276,40.609a.941.941,0,0,0,.608.239.573.573,0,0,0,.616-.623V36.563h1.287v3.7a1.583,1.583,0,0,1-1.775,1.727,1.809,1.809,0,0,1-1.168-.367Z" fill="#0b79bf"/>
      <path d="M51.971,41.432a1.44,1.44,0,0,1-1.143.56.949.949,0,0,1-1.064-1.047V38.034h1.16v2.447c0,.352.16.487.447.487a.715.715,0,0,0,.6-.4V38.034h1.152V41.9H51.971Z" fill="#0b79bf"/>
      <path d="M56.275,39.458c0-.352-.168-.5-.448-.5a.713.713,0,0,0-.6.409V41.9H54.068V38.034h1.159v.48a1.412,1.412,0,0,1,1.136-.576A.966.966,0,0,1,57.434,39V41.9H56.275Z" fill="#0b79bf"/>
      <path d="M59.979,37.938c1.088,0,1.727.84,1.727,2.079v.319H59.332a.791.791,0,0,0,.847.745,1.149,1.149,0,0,0,.792-.336l.512.7a2.053,2.053,0,0,1-1.44.552,2.037,2.037,0,0,1-.064-4.054Zm-.655,1.623H60.6c-.016-.311-.16-.711-.639-.711C59.5,38.85,59.348,39.25,59.324,39.561Z" fill="#0b79bf"/>
      <path d="M64.172,40.857c2.047-1.84,2.359-2.151,2.359-2.663a.58.58,0,0,0-.64-.567,1.44,1.44,0,0,0-1.135.567L64,37.371a2.424,2.424,0,0,1,1.919-.888,1.719,1.719,0,0,1,1.911,1.7c0,.768-.471,1.4-1.791,2.591h1.831V41.9h-3.7Z" fill="#0b79bf"/>
      <path d="M70.507,36.483c1.367,0,1.991,1.184,1.991,2.751s-.624,2.758-1.991,2.758-2-1.2-2-2.758S69.14,36.483,70.507,36.483Zm0,1.144c-.519,0-.687.583-.687,1.607s.168,1.614.687,1.614.68-.6.68-1.614S71.019,37.627,70.507,37.627Z" fill="#0b79bf"/>
      <path d="M75.163,40.161,74.292,41.9h-1.48l1.544-2.727L72.9,36.563h1.48l.783,1.631.776-1.631h1.487l-1.447,2.6L77.522,41.9H76.043Z" fill="#0b79bf"/>
      <path d="M79.931,40.161,79.06,41.9H77.58l1.544-2.727-1.455-2.606h1.479l.783,1.631.776-1.631h1.487l-1.447,2.6L82.29,41.9H80.811Z" fill="#0b79bf"/>
      <path d="M84.652,36.563h1.3v3.446c0,.535.256.848.768.848s.76-.313.76-.848V36.563h1.3V40a2.068,2.068,0,0,1-4.134,0Z" fill="#0b79bf"/>
      <path d="M89.94,40.649a1.855,1.855,0,0,0,1.095.455c.32,0,.48-.119.48-.311s-.24-.28-.576-.368c-.552-.152-1.327-.344-1.327-1.271,0-.649.52-1.216,1.5-1.216a2.31,2.31,0,0,1,1.423.488l-.447.776a1.449,1.449,0,0,0-.968-.384c-.248,0-.424.1-.424.271s.208.256.544.344c.568.152,1.375.36,1.375,1.312,0,.727-.608,1.247-1.559,1.247a2.291,2.291,0,0,1-1.583-.552Z" fill="#0b79bf"/>
      <path d="M94.931,37.938c1.087,0,1.727.84,1.727,2.079v.319H94.283a.791.791,0,0,0,.848.745,1.151,1.151,0,0,0,.792-.336l.511.7A2.05,2.05,0,0,1,95,41.992a2.037,2.037,0,0,1-.064-4.054Zm-.655,1.623h1.279c-.016-.311-.16-.711-.64-.711C94.451,38.85,94.3,39.25,94.276,39.561Z" fill="#0b79bf"/>
      <path d="M99.8,40.353a1.482,1.482,0,0,0,1.112.52.676.676,0,0,0,.727-.7.627.627,0,0,0-.679-.7,1.018,1.018,0,0,0-.832.416l-.927-.224v-3.11h3.438v1.111h-2.167v1.144a1.345,1.345,0,0,1,.992-.424,1.549,1.549,0,0,1,1.5,1.735,1.817,1.817,0,0,1-2.007,1.863,2.323,2.323,0,0,1-1.9-.816Z" fill="#0b79bf"/>
      <path d="M104.9,38.218l-.8.816-.736-.768,1.711-1.7h1.12V41.9h-1.3Z" fill="#0b79bf"/>
      <path d="M108.987,36.483c1.367,0,1.99,1.184,1.99,2.751s-.623,2.758-1.99,2.758-2-1.2-2-2.758S107.619,36.483,108.987,36.483Zm0,1.144c-.52,0-.688.583-.688,1.607s.168,1.614.688,1.614.679-.6.679-1.614S109.5,37.627,108.987,37.627Z" fill="#0b79bf"/>
      <path d="M115.05,40.5l-.335.5v.9h-1.16V36.563h1.16v3.046l.959-1.575h1.335l-1.159,1.735,1.223,2.127h-1.351Z" fill="#0b79bf"/>
      <path d="M120.217,38.673l-.591,3.223h-1.335l-1.232-5.333h1.384l.591,3.4.7-3.4h.991l.688,3.4.592-3.4h1.383L122.153,41.9h-1.335Z" fill="#0b79bf"/>
      <path d="M126.162,39.441c0-.352-.168-.48-.456-.48a.723.723,0,0,0-.6.409V41.9h-1.151V36.563h1.151v1.951a1.428,1.428,0,0,1,1.144-.576.949.949,0,0,1,1.063,1.048V41.9h-1.151Z" fill="#0b79bf"/>
    </g>
    <g>
      <path d="M49.915,27.6H46.063V25.739l3.221-5.686h2.9v5.574h.91V27.6h-.91V29.4H49.915Zm-1.821-1.975h1.821v-3.32Z" fill="#0b79bf"/>
      <path d="M55.177,26.665A2.773,2.773,0,0,0,57.2,27.6c.9,0,1.288-.447,1.288-1.008,0-.672-.49-.953-1.372-.953-.323,0-.785.014-.939.029V23.68c.154.014.658.014.882.014.813,0,1.3-.293,1.3-.883,0-.615-.5-.937-1.261-.937a2.517,2.517,0,0,0-1.862.869L54,21.44a3.939,3.939,0,0,1,3.292-1.527c2.017,0,3.278.91,3.278,2.548a2.2,2.2,0,0,1-1.808,2.116A2.248,2.248,0,0,1,60.711,26.8c0,1.641-1.359,2.76-3.418,2.76a4.241,4.241,0,0,1-3.418-1.484Z" fill="#0b79bf"/>
      <path d="M63.508,24.577a2.3,2.3,0,0,1-1.625-2.2c0-1.75,1.7-2.464,3.319-2.464s3.32.714,3.32,2.464a2.315,2.315,0,0,1-1.638,2.2,2.672,2.672,0,0,1,1.764,2.381c0,1.722-1.484,2.605-3.446,2.605s-3.445-.867-3.445-2.59A2.661,2.661,0,0,1,63.508,24.577Zm1.694.9c-.392.057-1.176.463-1.176,1.192,0,.628.5.966,1.176.966s1.177-.338,1.177-.966C66.379,25.936,65.581,25.53,65.2,25.473Zm0-3.627c-.658,0-1.05.35-1.05.924,0,.631.7.967,1.05,1.037.35-.07,1.051-.406,1.051-1.037C66.253,22.2,65.847,21.846,65.2,21.846Z" fill="#0b79bf"/>
      <path d="M75.772,26.944l-.588.883V29.4H73.153V20.053h2.031v5.336l1.68-2.76H79.2L77.173,25.67,79.316,29.4H76.948Z" fill="#0b79bf"/>
      <path d="M84.817,23.751,83.78,29.4H81.441l-2.157-9.342h2.423l1.037,5.953,1.218-5.953H85.7l1.2,5.953,1.037-5.953h2.423L88.207,29.4h-2.34Z" fill="#0b79bf"/>
      <path d="M95.218,25.094c0-.615-.294-.84-.8-.84a1.269,1.269,0,0,0-1.051.715V29.4H91.352V20.053h2.017v3.418a2.5,2.5,0,0,1,2-1.01A1.663,1.663,0,0,1,97.235,24.3v5.1H95.218Z" fill="#0b79bf"/>
    </g>
    <g>
      <path d="M203.825,15.764c0-2.039,1.13-3.449,2.909-3.449a2.437,2.437,0,0,1,2.388,1.75l-1.329.568a1.13,1.13,0,0,0-1.059-.888c-.79,0-1.26.849-1.26,2.019s.47,2.018,1.26,2.018a1.153,1.153,0,0,0,1.059-.959l1.34.57a2.487,2.487,0,0,1-2.4,1.818C204.955,19.211,203.825,17.793,203.825,15.764Z" fill="#0b79bf"/>
      <path d="M209.716,16.672a2.3,2.3,0,1,1,4.587,0,2.305,2.305,0,1,1-4.587,0Zm3.1,0c0-.7-.25-1.248-.81-1.248s-.8.549-.8,1.248.249,1.26.8,1.26S212.814,17.383,212.814,16.672Z" fill="#0b79bf"/>
      <path d="M215.445,17.532a2.307,2.307,0,0,0,1.369.57c.4,0,.6-.15.6-.389s-.3-.351-.72-.461c-.689-.189-1.659-.429-1.659-1.587,0-.811.65-1.52,1.879-1.52a2.9,2.9,0,0,1,1.779.609l-.559.969a1.817,1.817,0,0,0-1.21-.478c-.31,0-.53.129-.53.34s.26.318.68.429c.71.19,1.719.449,1.719,1.639,0,.91-.76,1.558-1.949,1.558a2.864,2.864,0,0,1-1.979-.689Z" fill="#0b79bf"/>
      <path d="M219.915,17.842V15.524h-.61v-1.26h.61V12.946h1.449v1.318h.779v1.26h-.779v1.959c0,.279.11.449.33.449a.5.5,0,0,0,.33-.109l.259,1.119a1.614,1.614,0,0,1-1,.269A1.2,1.2,0,0,1,219.915,17.842Z" fill="#0b79bf"/>
      <path d="M225.314,20.93V14.264h1.449v.571a1.373,1.373,0,0,1,1.19-.69c1.089,0,1.809.92,1.809,2.527,0,1.59-.72,2.539-1.809,2.539a1.364,1.364,0,0,1-1.19-.689V20.93Zm2.149-5.506a.834.834,0,0,0-.7.44v1.619a.866.866,0,0,0,.7.449c.53,0,.82-.51.82-1.26S227.993,15.424,227.463,15.424Z" fill="#0b79bf"/>
      <path d="M232.694,14.145c1.358,0,2.158,1.049,2.158,2.6v.4h-2.968a.988.988,0,0,0,1.059.93,1.437,1.437,0,0,0,.99-.42l.639.869a2.565,2.565,0,0,1-1.8.689,2.3,2.3,0,0,1-2.338-2.539A2.308,2.308,0,0,1,232.694,14.145Zm-.82,2.029h1.6c-.02-.39-.2-.89-.8-.89C232.094,15.284,231.9,15.784,231.874,16.174Z" fill="#0b79bf"/>
      <path d="M235.734,14.264h1.449v.619a1.688,1.688,0,0,1,1.29-.738v1.4a1.358,1.358,0,0,0-.31-.039,1.281,1.281,0,0,0-.98.479v3.109h-1.449Z" fill="#0b79bf"/>
      <path d="M244.333,18.522a1.42,1.42,0,0,1-1.2.689c-1.08,0-1.81-.919-1.81-2.539,0-1.558.72-2.527,1.81-2.527a1.4,1.4,0,0,1,1.2.69V12.426h1.439v6.666h-1.439Zm0-2.658a.885.885,0,0,0-.71-.44c-.53,0-.82.51-.82,1.248s.29,1.26.82,1.26a.9.9,0,0,0,.71-.449Z" fill="#0b79bf"/>
      <path d="M249.463,18.622a1.624,1.624,0,0,1-1.269.589,1.5,1.5,0,0,1-1.51-1.6,1.432,1.432,0,0,1,1.51-1.539,1.592,1.592,0,0,1,1.269.551v-.561a.745.745,0,0,0-.85-.75,1.853,1.853,0,0,0-1.189.5l-.51-.969a3,3,0,0,1,1.979-.7c1.1,0,2.009.469,2.009,1.768v3.179h-1.439Zm0-1.229a.793.793,0,0,0-.7-.381.625.625,0,1,0,0,1.25.791.791,0,0,0,.7-.379Z" fill="#0b79bf"/>
      <path d="M252.564,19.772c.25,0,.43-.08.5-.281l.11-.309-1.64-4.918h1.53l.849,3.088.87-3.088h1.529l-1.869,5.547a1.611,1.611,0,0,1-1.769,1.24,2.638,2.638,0,0,1-.63-.08l.2-1.269A.668.668,0,0,0,252.564,19.772Z" fill="#0b79bf"/>
      <path d="M257.783,14.194a.895.895,0,1,1-.9.891A.905.905,0,0,1,257.783,14.194Zm0,3.228a.89.89,0,1,1-.9.891A.906.906,0,0,1,257.783,17.422Z" fill="#0b79bf"/>
    </g>
    <g>
      <path d="M208.044,35.493v1.3h-1.471V35.536a4.413,4.413,0,0,1-2.773-1.192l1.078-1.736a3.14,3.14,0,0,0,2.269.994c.673,0,1.079-.35,1.079-.812,0-.561-.547-.827-1.331-1.12-1.2-.435-2.815-.953-2.815-2.927a2.809,2.809,0,0,1,2.493-2.774V24.637h1.471v1.3a4.382,4.382,0,0,1,2.311,1.023l-1.036,1.68a3,3,0,0,0-1.976-.769c-.644,0-.952.322-.952.742,0,.5.532.756,1.345,1.051,1.19.433,2.787,1.023,2.787,2.914A2.817,2.817,0,0,1,208.044,35.493Z" fill="#0b79bf"/>
      <path d="M212.648,32.665a2.771,2.771,0,0,0,2.017.937c.9,0,1.289-.447,1.289-1.008,0-.672-.49-.953-1.373-.953-.322,0-.784.014-.938.029V29.68c.154.014.658.014.882.014.813,0,1.3-.293,1.3-.883,0-.615-.5-.937-1.261-.937a2.519,2.519,0,0,0-1.863.869l-1.233-1.3a3.941,3.941,0,0,1,3.292-1.527c2.017,0,3.278.91,3.278,2.548a2.2,2.2,0,0,1-1.807,2.116,2.248,2.248,0,0,1,1.947,2.226c0,1.641-1.359,2.76-3.418,2.76a4.244,4.244,0,0,1-3.418-1.484Z" fill="#0b79bf"/>
      <path d="M220.726,33.057a1.246,1.246,0,1,1-1.26,1.246A1.267,1.267,0,0,1,220.726,33.057Z" fill="#0b79bf"/>
      <path d="M224.087,28.952l-1.4,1.429L221.4,29.036l3-2.983h1.961V35.4h-2.269Z" fill="#0b79bf"/>
      <path d="M231.479,28.028h-3.838V26.053h6.388v1.569L231.171,35.4h-2.437Z" fill="#0b79bf"/>
    </g>
    <g>
      <path d="M306.488,17.342l-.42.631v1.119h-1.45V12.426h1.45v3.807l1.2-1.969h1.67l-1.449,2.17,1.528,2.658h-1.689Z" fill="#0b79bf"/>
      <path d="M312.946,15.065l-.74,4.027h-1.669L309,12.426h1.73l.739,4.246.87-4.246h1.239l.86,4.246.739-4.246H316.9l-1.539,6.666H313.7Z" fill="#0b79bf"/>
      <path d="M320.377,16.024c0-.439-.21-.6-.569-.6a.9.9,0,0,0-.75.51v3.158h-1.44V12.426h1.44v2.438a1.785,1.785,0,0,1,1.43-.719,1.186,1.186,0,0,1,1.329,1.309v3.638h-1.44Z" fill="#0b79bf"/>
      <path d="M325.278,20.93V14.264h1.449v.571a1.371,1.371,0,0,1,1.189-.69c1.09,0,1.81.92,1.81,2.527,0,1.59-.72,2.539-1.81,2.539a1.363,1.363,0,0,1-1.189-.689V20.93Zm2.149-5.506a.833.833,0,0,0-.7.44v1.619a.865.865,0,0,0,.7.449c.529,0,.819-.51.819-1.26S327.956,15.424,327.427,15.424Z" fill="#0b79bf"/>
      <path d="M332.656,14.145c1.36,0,2.16,1.049,2.16,2.6v.4h-2.969a.99.99,0,0,0,1.059.93,1.435,1.435,0,0,0,.99-.42l.639.869a2.564,2.564,0,0,1-1.8.689,2.3,2.3,0,0,1-2.339-2.539A2.309,2.309,0,0,1,332.656,14.145Zm-.819,2.029h1.6c-.021-.39-.2-.89-.8-.89C332.057,15.284,331.867,15.784,331.837,16.174Z" fill="#0b79bf"/>
      <path d="M335.7,14.264h1.45v.619a1.686,1.686,0,0,1,1.289-.738v1.4a1.351,1.351,0,0,0-.31-.039,1.279,1.279,0,0,0-.979.479v3.109H335.7Z" fill="#0b79bf"/>
      <path d="M344.3,18.522a1.418,1.418,0,0,1-1.2.689c-1.08,0-1.81-.919-1.81-2.539,0-1.558.72-2.527,1.81-2.527a1.4,1.4,0,0,1,1.2.69V12.426h1.44v6.666H344.3Zm0-2.658a.885.885,0,0,0-.71-.44c-.529,0-.819.51-.819,1.248s.29,1.26.819,1.26a.9.9,0,0,0,.71-.449Z" fill="#0b79bf"/>
      <path d="M349.426,18.622a1.622,1.622,0,0,1-1.269.589,1.5,1.5,0,0,1-1.509-1.6,1.432,1.432,0,0,1,1.509-1.539,1.594,1.594,0,0,1,1.269.551v-.561a.745.745,0,0,0-.85-.75,1.848,1.848,0,0,0-1.188.5l-.51-.969a3,3,0,0,1,1.979-.7c1.1,0,2.008.469,2.008,1.768v3.179h-1.439Zm0-1.229a.792.792,0,0,0-.7-.381.625.625,0,1,0,0,1.25.79.79,0,0,0,.7-.379Z" fill="#0b79bf"/>
      <path d="M352.528,19.772c.25,0,.429-.08.5-.281l.11-.309L351.5,14.264h1.529l.849,3.088.87-3.088h1.53l-1.87,5.547a1.611,1.611,0,0,1-1.769,1.24,2.636,2.636,0,0,1-.629-.08l.2-1.269A.669.669,0,0,0,352.528,19.772Z" fill="#0b79bf"/>
      <path d="M357.747,14.194a.895.895,0,1,1-.9.891A.905.905,0,0,1,357.747,14.194Zm0,3.228a.89.89,0,1,1-.9.891A.906.906,0,0,1,357.747,17.422Z" fill="#0b79bf"/>
    </g>
    <g>
      <path d="M306.9,28.952l-1.4,1.429-1.288-1.345,3-2.983h1.961V35.4H306.9Z" fill="#0b79bf"/>
      <path d="M311.951,32.692a2.6,2.6,0,0,0,1.948.91,1.184,1.184,0,0,0,1.274-1.219,1.1,1.1,0,0,0-1.19-1.218,1.778,1.778,0,0,0-1.457.728L310.9,31.5V26.053h6.023V28h-3.8v2a2.359,2.359,0,0,1,1.736-.742c1.444,0,2.621,1.121,2.621,3.039a3.183,3.183,0,0,1-3.517,3.264,4.075,4.075,0,0,1-3.333-1.428Z" fill="#0b79bf"/>
    </g>
    <g>
      <path d="M415.572,12.426h2.679a2.056,2.056,0,0,1,2.169,2.2,2.039,2.039,0,0,1-2.169,2.169h-1.059v2.3h-1.62Zm2.48,1.389h-.86v1.59h.86a.8.8,0,0,0,0-1.59Z" fill="#0b79bf"/>
      <path d="M421.292,14.264h1.449v.619a1.688,1.688,0,0,1,1.289-.738v1.4a1.341,1.341,0,0,0-.309-.039,1.281,1.281,0,0,0-.98.479v3.109h-1.449Z" fill="#0b79bf"/>
      <path d="M424.743,12.815a.835.835,0,1,1,1.669,0,.835.835,0,1,1-1.669,0Zm.11,1.449H426.3v4.828h-1.449Z" fill="#0b79bf"/>
      <path d="M427.223,16.672a2.3,2.3,0,1,1,4.588,0,2.306,2.306,0,1,1-4.588,0Zm3.1,0c0-.7-.25-1.248-.809-1.248s-.8.549-.8,1.248.25,1.26.8,1.26S430.321,17.383,430.321,16.672Z" fill="#0b79bf"/>
      <path d="M432.733,14.264h1.449v.619a1.686,1.686,0,0,1,1.289-.738v1.4a1.351,1.351,0,0,0-.31-.039,1.279,1.279,0,0,0-.979.479v3.109h-1.449Z" fill="#0b79bf"/>
      <path d="M440.062,14.5l-1,1.019-.92-.959,2.138-2.129h1.4v6.666h-1.619Z" fill="#0b79bf"/>
      <path d="M442.822,17.793c2.559-2.3,2.95-2.689,2.95-3.33a.726.726,0,0,0-.8-.709,1.8,1.8,0,0,0-1.42.709l-.939-1.029a3.034,3.034,0,0,1,2.4-1.109,2.149,2.149,0,0,1,2.389,2.119c0,.961-.59,1.75-2.24,3.238h2.289v1.41h-4.628Z" fill="#0b79bf"/>
      <path d="M456.039,15.973c0-.349-.139-.549-.479-.549a.885.885,0,0,0-.72.51v3.158H453.4V15.973c0-.33-.13-.549-.49-.549a.884.884,0,0,0-.71.51v3.158h-1.449V14.264H452.2v.6a1.759,1.759,0,0,1,1.38-.719,1.114,1.114,0,0,1,1.2.828,1.76,1.76,0,0,1,1.439-.828,1.149,1.149,0,0,1,1.269,1.289v3.658h-1.449Z" fill="#0b79bf"/>
      <path d="M458.411,16.672a2.3,2.3,0,1,1,4.588,0,2.306,2.306,0,1,1-4.588,0Zm3.1,0c0-.7-.25-1.248-.81-1.248s-.8.549-.8,1.248.25,1.26.8,1.26S461.51,17.383,461.51,16.672Z" fill="#0b79bf"/>
      <path d="M466.681,16.043c0-.439-.21-.619-.56-.619a.892.892,0,0,0-.75.51v3.158h-1.449V14.264h1.449v.6a1.767,1.767,0,0,1,1.42-.719,1.207,1.207,0,0,1,1.339,1.328v3.619h-1.449Z" fill="#0b79bf"/>
      <path d="M469.542,17.842V15.524h-.609v-1.26h.609V12.946h1.449v1.318h.78v1.26h-.78v1.959c0,.279.11.449.33.449a.5.5,0,0,0,.33-.109l.259,1.119a1.612,1.612,0,0,1-1,.269A1.2,1.2,0,0,1,469.542,17.842Z" fill="#0b79bf"/>
      <path d="M475.43,16.024c0-.439-.21-.6-.569-.6a.9.9,0,0,0-.75.51v3.158h-1.44V12.426h1.44v2.438a1.784,1.784,0,0,1,1.429-.719,1.185,1.185,0,0,1,1.329,1.309v3.638H475.43Z" fill="#0b79bf"/>
      <path d="M478.271,17.532a2.31,2.31,0,0,0,1.37.57c.4,0,.6-.15.6-.389s-.3-.351-.719-.461c-.69-.189-1.659-.429-1.659-1.587,0-.811.649-1.52,1.878-1.52a2.9,2.9,0,0,1,1.78.609l-.561.969a1.812,1.812,0,0,0-1.209-.478c-.309,0-.529.129-.529.34s.26.318.68.429c.709.19,1.718.449,1.718,1.639,0,.91-.759,1.558-1.949,1.558a2.859,2.859,0,0,1-1.978-.689Z" fill="#0b79bf"/>
      <path d="M486.79,14.145c1.36,0,2.159,1.049,2.159,2.6v.4h-2.968a.988.988,0,0,0,1.059.93,1.433,1.433,0,0,0,.989-.42l.64.869a2.565,2.565,0,0,1-1.8.689,2.3,2.3,0,0,1-2.339-2.539A2.309,2.309,0,0,1,486.79,14.145Zm-.819,2.029h1.6c-.021-.39-.2-.89-.8-.89C486.191,15.284,486,15.784,485.971,16.174Z" fill="#0b79bf"/>
      <path d="M489.831,12.426h1.449v6.666h-1.449Z" fill="#0b79bf"/>
      <path d="M494.46,14.145c1.36,0,2.159,1.049,2.159,2.6v.4h-2.968a.988.988,0,0,0,1.059.93,1.433,1.433,0,0,0,.989-.42l.64.869a2.565,2.565,0,0,1-1.8.689,2.3,2.3,0,0,1-2.339-2.539A2.309,2.309,0,0,1,494.46,14.145Zm-.819,2.029h1.6c-.02-.39-.2-.89-.8-.89C493.861,15.284,493.671,15.784,493.641,16.174Z" fill="#0b79bf"/>
      <path d="M499.55,14.145a2.039,2.039,0,0,1,1.619.658l-.7.99a.934.934,0,0,0-.75-.369c-.59,0-.989.5-.989,1.248s.4,1.26.989,1.26a.915.915,0,0,0,.75-.379l.7,1a2.033,2.033,0,0,1-1.619.66,2.317,2.317,0,0,1-2.3-2.539A2.307,2.307,0,0,1,499.55,14.145Z" fill="#0b79bf"/>
      <path d="M502.221,17.842V15.524h-.609v-1.26h.609V12.946h1.449v1.318h.779v1.26h-.779v1.959c0,.279.109.449.33.449a.494.494,0,0,0,.329-.109l.26,1.119a1.614,1.614,0,0,1-1,.269A1.2,1.2,0,0,1,502.221,17.842Z" fill="#0b79bf"/>
      <path d="M505.341,14.264h1.449v.619a1.688,1.688,0,0,1,1.289-.738v1.4a1.341,1.341,0,0,0-.309-.039,1.279,1.279,0,0,0-.98.479v3.109h-1.449Z" fill="#0b79bf"/>
      <path d="M508.791,12.815a.835.835,0,1,1,1.669,0,.835.835,0,1,1-1.669,0Zm.11,1.449h1.449v4.828H508.9Z" fill="#0b79bf"/>
      <path d="M513.57,14.145a2.04,2.04,0,0,1,1.619.658l-.7.99a.931.931,0,0,0-.75-.369c-.589,0-.989.5-.989,1.248s.4,1.26.989,1.26a.912.912,0,0,0,.75-.379l.7,1a2.034,2.034,0,0,1-1.619.66,2.316,2.316,0,0,1-2.3-2.539A2.307,2.307,0,0,1,513.57,14.145Z" fill="#0b79bf"/>
      <path d="M521.039,18.512a1.8,1.8,0,0,1-1.429.7,1.186,1.186,0,0,1-1.33-1.308V14.264h1.45v3.059c0,.439.2.609.559.609a.892.892,0,0,0,.75-.5V14.264h1.44v4.828h-1.44Z" fill="#0b79bf"/>
      <path d="M523.88,17.532a2.31,2.31,0,0,0,1.37.57c.4,0,.6-.15.6-.389s-.3-.351-.72-.461c-.689-.189-1.659-.429-1.659-1.587,0-.811.649-1.52,1.879-1.52a2.9,2.9,0,0,1,1.779.609l-.56.969a1.814,1.814,0,0,0-1.209-.478c-.31,0-.53.129-.53.34s.26.318.68.429c.709.19,1.719.449,1.719,1.639,0,.91-.76,1.558-1.95,1.558a2.859,2.859,0,0,1-1.978-.689Z" fill="#0b79bf"/>
      <path d="M530.119,14.145c1.36,0,2.16,1.049,2.16,2.6v.4H529.31a.989.989,0,0,0,1.059.93,1.435,1.435,0,0,0,.99-.42l.639.869a2.565,2.565,0,0,1-1.8.689,2.3,2.3,0,0,1-2.338-2.539A2.309,2.309,0,0,1,530.119,14.145Zm-.819,2.029h1.6c-.021-.39-.2-.89-.8-.89C529.52,15.284,529.33,15.784,529.3,16.174Z" fill="#0b79bf"/>
      <path d="M534,14.194a.895.895,0,1,1-.9.891A.905.905,0,0,1,534,14.194Zm0,3.228a.89.89,0,1,1-.9.891A.906.906,0,0,1,534,17.422Z" fill="#0b79bf"/>
    </g>
    <g>
      <path d="M416.794,32.692a2.6,2.6,0,0,0,1.947.91,1.184,1.184,0,0,0,1.275-1.219,1.1,1.1,0,0,0-1.191-1.218,1.781,1.781,0,0,0-1.457.728l-1.625-.392V26.053h6.024V28h-3.8v2a2.357,2.357,0,0,1,1.736-.742c1.444,0,2.62,1.121,2.62,3.039a3.182,3.182,0,0,1-3.516,3.264,4.075,4.075,0,0,1-3.333-1.428Z" fill="#0b79bf"/>
      <path d="M423.738,36.67a2.544,2.544,0,0,0,1.148-1.3,1.42,1.42,0,0,1-.308.041,1.068,1.068,0,0,1-1.037-1.133,1.228,1.228,0,0,1,1.219-1.219,1.409,1.409,0,0,1,1.373,1.555,3.378,3.378,0,0,1-1.541,2.744Z" fill="#0b79bf"/>
      <path d="M428.163,28.952l-1.4,1.429-1.288-1.345,3-2.983h1.961V35.4h-2.269Z" fill="#0b79bf"/>
      <path d="M434.225,28.952l-1.4,1.429-1.288-1.345,3-2.983h1.961V35.4h-2.268Z" fill="#0b79bf"/>
      <path d="M439.278,32.692a2.6,2.6,0,0,0,1.947.91,1.183,1.183,0,0,0,1.274-1.219,1.1,1.1,0,0,0-1.19-1.218,1.778,1.778,0,0,0-1.457.728l-1.625-.392V26.053h6.023V28h-3.8v2a2.36,2.36,0,0,1,1.737-.742c1.443,0,2.62,1.121,2.62,3.039a3.183,3.183,0,0,1-3.517,3.264,4.075,4.075,0,0,1-3.333-1.428Z" fill="#0b79bf"/>
      <path d="M451.92,32.944l-.589.883V35.4H449.3V26.053h2.03v5.336l1.682-2.76h2.339l-2.031,3.041,2.143,3.725H453.1Z" fill="#0b79bf"/>
      <path d="M460.965,29.751,459.929,35.4h-2.34l-2.157-9.342h2.424l1.036,5.953,1.219-5.953h1.737l1.2,5.953,1.037-5.953h2.423L464.355,35.4h-2.339Z" fill="#0b79bf"/>
      <path d="M471.367,31.094c0-.615-.3-.84-.8-.84a1.269,1.269,0,0,0-1.051.715V35.4H467.5V26.053h2.017v3.418a2.5,2.5,0,0,1,2-1.01,1.663,1.663,0,0,1,1.862,1.836v5.1h-2.017Z" fill="#0b79bf"/>
    </g>
    <line x1="157.197" x2="157.197" y2="49.803" fill="none" stroke="#fff" stroke-miterlimit="10" stroke-width="3"/>
    <g>
      <path d="M189.908,15.141a1.823,1.823,0,0,1,.072.505V31.221a1.849,1.849,0,0,1-1.848,1.848H171.5a1.867,1.867,0,0,1-.248-.016,1.848,1.848,0,0,0,1.778,1.342h16.628a1.848,1.848,0,0,0,1.848-1.848V16.971A1.848,1.848,0,0,0,189.908,15.141Z" fill="#0b79bf"/>
      <g>
        <path d="M181.377,15.422h.462c.51,0,.923-.566.923-1.265V11.806c0-.7-.413-1.266-.923-1.266h-.462c-.51,0-.924.566-.924,1.266v2.351C180.453,14.856,180.867,15.422,181.377,15.422Z" fill="#0b79bf"/>
        <path d="M175.3,15.422h.462c.51,0,.923-.566.923-1.265V11.806c0-.7-.413-1.266-.923-1.266H175.3c-.51,0-.924.566-.924,1.266v2.351C174.378,14.856,174.792,15.422,175.3,15.422Z" fill="#0b79bf"/>
        <path d="M186.928,12.981h-2.967V14.7a1.848,1.848,0,0,1-1.849,1.848h-.923a1.848,1.848,0,0,1-1.848-1.848V12.981h-1.456V14.7a1.847,1.847,0,0,1-1.849,1.848h-.923a1.847,1.847,0,0,1-1.848-1.848V12.981H170.3a1.847,1.847,0,0,0-1.847,1.848V30.4a1.848,1.848,0,0,0,1.847,1.849h16.63a1.849,1.849,0,0,0,1.847-1.849V14.829A1.847,1.847,0,0,0,186.928,12.981Zm.406,17.537H169.891V18.258h17.443v12.26Z" fill="#0b79bf"/>
        <path d="M175.157,27.285a1.019,1.019,0,0,1-.729-.27,1.785,1.785,0,0,1-.423-.968l-2.311.307a3.562,3.562,0,0,0,.65,1.291,2.676,2.676,0,0,0,1.078.781,4.887,4.887,0,0,0,1.793.267,4.174,4.174,0,0,0,1.88-.361A2.528,2.528,0,0,0,178.19,27.3a2.762,2.762,0,0,0,.381-1.393,2.027,2.027,0,0,0-.23-1,1.794,1.794,0,0,0-.645-.673,2.547,2.547,0,0,0-.737-.278,2.524,2.524,0,0,0,.891-.768,1.7,1.7,0,0,0,.3-.976,1.912,1.912,0,0,0-.727-1.529,3.666,3.666,0,0,0-2.357-.608,3.712,3.712,0,0,0-2.194.556,2.749,2.749,0,0,0-1.048,1.6l2.186.393a1.5,1.5,0,0,1,.346-.867.915.915,0,0,1,.664-.248.841.841,0,0,1,.625.228.822.822,0,0,1,.227.608.913.913,0,0,1-.3.687,1.058,1.058,0,0,1-.758.29,2.189,2.189,0,0,1-.3-.028l-.12,1.652a2.886,2.886,0,0,1,.75-.136,1.052,1.052,0,0,1,.809.317,1.26,1.26,0,0,1,.3.9,1.3,1.3,0,0,1-.309.909A1.009,1.009,0,0,1,175.157,27.285Z" fill="#0b79bf"/>
        <path d="M182.42,23v5.549h2.339V20.083h-1.914a3.72,3.72,0,0,1-1.022,1.318,5.613,5.613,0,0,1-1.833.914v1.9a8.535,8.535,0,0,0,1.332-.511A7.115,7.115,0,0,0,182.42,23Z" fill="#0b79bf"/>
      </g>
    </g>
    <path d="M292.763,19.755a.994.994,0,0,1-.617,1,3.646,3.646,0,0,0-1.966,1.658,2.867,2.867,0,0,0-.339,1.089,1,1,0,0,1-1,.972h-.019a1,1,0,0,1-.98-1.017,4.594,4.594,0,0,1,.483-1.806,5.075,5.075,0,0,1,.652-1.018Zm.462-2.8a1,1,0,0,0-1.2-.748l-10.81,2.506a1.1,1.1,0,0,0-.147,2.044,3.6,3.6,0,0,1,2.021,1.767,2.69,2.69,0,0,1,.284.975,1,1,0,0,0,1,.977h.018a1,1,0,0,0,.98-1.016,4.594,4.594,0,0,0-.483-1.806,5.184,5.184,0,0,0-1.087-1.489l8.678-2.011a1,1,0,0,0,.747-1.2m-12.756-.369a1,1,0,0,0,.971.773.983.983,0,0,0,.227-.026l10.811-2.5a1,1,0,0,0-.452-1.946l-10.81,2.506a1,1,0,0,0-.747,1.2m.578-3.459a1,1,0,0,0,.972.773,1.1,1.1,0,0,0,.226-.026L288.7,12.38a1,1,0,0,0-.451-1.947l-6.455,1.5a1,1,0,0,0-.748,1.2m10.838,12.477v2.279a2.847,2.847,0,0,1-1.839,2.663v1.9a1.8,1.8,0,0,1-.273.9l-.371.557a1.134,1.134,0,0,1-.891.477h-3.549a1.13,1.13,0,0,1-.891-.477l-.371-.555a1.814,1.814,0,0,1-.274-.9l0-1.9a2.848,2.848,0,0,1-1.845-2.665V25.605Zm-8.78,1.12a.286.286,0,0,0-.571,0v1.518a.286.286,0,0,0,.571,0Zm4.87,5.86a.263.263,0,0,0-.263-.262h-3.287a.263.263,0,0,0,0,.525h3.287a.263.263,0,0,0,.263-.263m1.322-1.461a.262.262,0,0,0-.263-.262h-4.609a.262.262,0,1,0,0,.524h4.609a.262.262,0,0,0,.263-.262m-3.765,3.687c-.13,0,.5.886,1.225.886s1.357-.886,1.227-.886Z" fill="#0b79bf"/>
    <g>
      <path d="M395.139,9.266a.712.712,0,0,0-.153-.783c-.356-.276-.707-.312-.868-.1l-3.37,4.349,1.069.825Z" fill="#0b79bf"/>
      <path d="M385.819,17.319a5.672,5.672,0,0,0-.619,4.594s-1.191-.117-.535,1.056l2.015,1.561,2.014,1.56c1.3.343.89-.78.89-.78a5.677,5.677,0,0,0,4.293-1.748l1.186-1.532L387,15.8Z" fill="#0b79bf"/>
      <path d="M397.618,19.039,397.572,19l-.011,0-8.387-6.48c-.192-.085-.667-.2-1.145.417l-.529.682s-.8.85.03,1.493h0l8.213,6.344c.752.42,1.3-.447,1.3-.447l.529-.682C398.187,19.526,397.618,19.039,397.618,19.039Z" fill="#0b79bf"/>
      <path d="M400.141,12.477a.707.707,0,0,0-.8.048l-3.318,4.281,1.068.825,3.362-4.34C400.619,13.084,400.5,12.753,400.141,12.477Z" fill="#0b79bf"/>
      <path d="M384.321,23.8a4.51,4.51,0,0,1-.62,2.4l-.38-.3a.525.525,0,0,0-.643.83l.535.415c-.082.147-.17.3-.263.46l-.516-.4a.478.478,0,0,0-.586.755l.6.463q-.137.215-.288.441l-.463-.36a.459.459,0,0,0-.562.726l.506.393c-.135.193-.276.391-.424.6l-.251-.2a.712.712,0,0,0-.872,1.126l.269.209-.148.194-.045.058.046.036h0a20.987,20.987,0,0,0-2.788,5.724,17.508,17.508,0,0,0,1.549,1.187,18.974,18.974,0,0,1,2.671-5.8h0l.048.037s.069-.1.186-.259l.261.2a.712.712,0,0,0,.872-1.125l-.259-.2c.145-.178.3-.364.469-.561l.484.376a.459.459,0,0,0,.563-.726l-.435-.337c.117-.129.234-.256.358-.386l.573.444a.478.478,0,1,0,.585-.755l-.475-.369c.127-.123.254-.245.385-.365l.493.382a.525.525,0,1,0,.643-.83l-.319-.247a10.732,10.732,0,0,1,2.028-1.318Z" fill="#0b79bf"/>
    </g>
    <g>
      <path d="M25.576,33.991A11.374,11.374,0,1,1,36.95,22.617,11.387,11.387,0,0,1,25.576,33.991Zm0-20.871a9.5,9.5,0,1,0,9.5,9.5A9.508,9.508,0,0,0,25.576,13.12Z" fill="#0b79bf"/>
      <path d="M32.348,19.95l.246-.371a12.194,12.194,0,0,0-9.736-1.813,12.858,12.858,0,0,0-4.27,1.83l.631.873.662.993,1.018-.678-.413-.62a12.377,12.377,0,0,1,1.433-.612l.224.742,1.171-.353-.223-.738.152-.037a11.4,11.4,0,0,1,1.737-.261V19.7H26.2v-.808a10.259,10.259,0,0,1,1.941.275l-.234.778,1.17.353.234-.774a11.4,11.4,0,0,1,1.426.64l-.415.624,1.017.678.45-.675h0l.177-.268.379-.569Z" fill="#0b79bf"/>
      <path d="M28.041,25.248a2.951,2.951,0,1,1-4.931,0H17.32a8.656,8.656,0,0,0,16.511,0Z" fill="#0b79bf"/>
      <path d="M26.689,24.805l-.864-3.739a.256.256,0,0,0-.5,0l-.863,3.739a2.37,2.37,0,1,0,2.226,0Z" fill="#0b79bf"/>
    </g>
  </g>
</svg>
