<svg xmlns="http://www.w3.org/2000/svg" width="131.556" height="58.451" viewBox="0 0 131.556 58.451">
  <g>
    <g>
      <path d="M3.446,7.922H2.1v3.74H.98V2.319H3.838A2.536,2.536,0,0,1,6.4,5.107,2.42,2.42,0,0,1,4.538,7.754L6.5,11.662H5.239ZM3.712,3.3H2.1v3.64h1.61c.967,0,1.541-.755,1.541-1.82S4.679,3.3,3.712,3.3Z" transform="translate(0 -2.18)" fill="#0b79bf"/>
      <path d="M12.084,10.934a2.116,2.116,0,0,1-1.779.9A2.077,2.077,0,0,1,8.26,9.576a2.046,2.046,0,0,1,2.045-2.228,2.107,2.107,0,0,1,1.779.869V7.04A1.284,1.284,0,0,0,10.7,5.6,2.153,2.153,0,0,0,9,6.424l-.448-.715a3.1,3.1,0,0,1,2.3-.98,1.992,1.992,0,0,1,2.241,2.2v4.734H12.084Zm0-1.975a1.625,1.625,0,0,0-1.457-.868,1.361,1.361,0,0,0-1.345,1.5A1.373,1.373,0,0,0,10.627,11.1a1.637,1.637,0,0,0,1.457-.854Z" transform="translate(0 -2.18)" fill="#0b79bf"/>
      <path d="M15.891,10.3V5.779h-.9V4.9h.9V3.048H16.9V4.9h1.149v.883H16.9v4.342c0,.52.155.813.547.813a.756.756,0,0,0,.588-.266l.309.756a1.455,1.455,0,0,1-1.093.406C16.324,11.83,15.891,11.312,15.891,10.3Z" transform="translate(0 -2.18)" fill="#0b79bf"/>
      <path d="M22.556,4.729c1.778,0,2.674,1.6,2.674,3.572v.308H20.847c.042,1.359.742,2.381,1.947,2.381a2.085,2.085,0,0,0,1.61-.826l.533.588A2.816,2.816,0,0,1,22.71,11.83c-1.808,0-2.9-1.484-2.9-3.557C19.81,6.312,20.847,4.729,22.556,4.729ZM20.847,7.867h3.389c-.013-1.037-.462-2.3-1.7-2.3C21.351,5.569,20.875,6.872,20.847,7.867Z" transform="translate(0 -2.18)" fill="#0b79bf"/>
      <path d="M31.3,2.319h1.121v9.343H31.3Z" transform="translate(0 -2.18)" fill="#0b79bf"/>
      <path d="M38.753,6.844c0-.9-.406-1.219-1.078-1.219A1.978,1.978,0,0,0,36.092,6.7v4.958H35.1V4.9h.994v.967a2.51,2.51,0,0,1,1.961-1.134c1.148,0,1.709.617,1.709,1.835v5.1H38.753Z" transform="translate(0 -2.18)" fill="#0b79bf"/>
      <path d="M42.616,5.779h-.9V4.9h.9V4.07a1.661,1.661,0,0,1,1.653-1.89,1.9,1.9,0,0,1,.868.195L44.9,3.16a.965.965,0,0,0-.448-.112c-.533,0-.827.364-.827,1.022V4.9h1.148v.883H43.624v5.883H42.616Z" transform="translate(0 -2.18)" fill="#0b79bf"/>
      <path d="M46.367,8.273c0-1.906.953-3.544,2.746-3.544,1.821,0,2.76,1.638,2.76,3.544s-.939,3.557-2.76,3.557C47.32,11.83,46.367,10.178,46.367,8.273Zm4.455,0c0-1.359-.518-2.648-1.709-2.648-1.163,0-1.7,1.289-1.7,2.648s.532,2.661,1.7,2.661C50.3,10.934,50.822,9.646,50.822,8.273Z" transform="translate(0 -2.18)" fill="#0b79bf"/>
      <path d="M54.151,4.9h.995v1.08a2.27,2.27,0,0,1,1.918-1.219V5.793a1.422,1.422,0,0,0-.335-.041,2.029,2.029,0,0,0-1.583,1.105v4.805h-.995Z" transform="translate(0 -2.18)" fill="#0b79bf"/>
      <path d="M65.83,6.76c0-.729-.294-1.135-.938-1.135A1.857,1.857,0,0,0,63.421,6.7v4.958H62.413V6.76c0-.729-.295-1.135-.953-1.135A1.9,1.9,0,0,0,59.989,6.7v4.958H59V4.9h.994v.967a2.342,2.342,0,0,1,1.849-1.134,1.424,1.424,0,0,1,1.527,1.205,2.327,2.327,0,0,1,1.906-1.2c.994,0,1.568.546,1.568,1.765v5.168H65.83Z" transform="translate(0 -2.18)" fill="#0b79bf"/>
      <path d="M72.927,10.934a2.116,2.116,0,0,1-1.78.9A2.077,2.077,0,0,1,69.1,9.576a2.046,2.046,0,0,1,2.044-2.228,2.108,2.108,0,0,1,1.78.869V7.04A1.284,1.284,0,0,0,71.54,5.6a2.151,2.151,0,0,0-1.7.826L69.4,5.709a3.1,3.1,0,0,1,2.3-.98,1.992,1.992,0,0,1,2.242,2.2v4.734H72.927Zm0-1.975a1.625,1.625,0,0,0-1.457-.868,1.361,1.361,0,0,0-1.345,1.5A1.373,1.373,0,0,0,71.47,11.1a1.637,1.637,0,0,0,1.457-.854Z" transform="translate(0 -2.18)" fill="#0b79bf"/>
      <path d="M76.732,10.3V5.779h-.9V4.9h.9V3.048h1.009V4.9H78.89v.883H77.741v4.342c0,.52.155.813.547.813a.756.756,0,0,0,.588-.266l.309.756a1.458,1.458,0,0,1-1.093.406C77.167,11.83,76.732,11.312,76.732,10.3Z" transform="translate(0 -2.18)" fill="#0b79bf"/>
      <path d="M80.793,3.076a.7.7,0,0,1,.686-.686.686.686,0,1,1,0,1.372A.7.7,0,0,1,80.793,3.076Zm.2,1.82h.994v6.766h-.994Z" transform="translate(0 -2.18)" fill="#0b79bf"/>
      <path d="M84.264,8.273c0-1.906.953-3.544,2.746-3.544,1.82,0,2.76,1.638,2.76,3.544s-.94,3.557-2.76,3.557C85.217,11.83,84.264,10.178,84.264,8.273Zm4.455,0c0-1.359-.519-2.648-1.709-2.648-1.163,0-1.7,1.289-1.7,2.648s.533,2.661,1.7,2.661C88.2,10.934,88.719,9.646,88.719,8.273Z" transform="translate(0 -2.18)" fill="#0b79bf"/>
      <path d="M95.7,6.844c0-.9-.406-1.219-1.078-1.219A1.979,1.979,0,0,0,93.043,6.7v4.958h-.994V4.9h.994v.967A2.512,2.512,0,0,1,95,4.729c1.148,0,1.709.617,1.709,1.835v5.1H95.7Z" transform="translate(0 -2.18)" fill="#0b79bf"/>
    </g>
    <line y1="15.366" x2="131.556" y2="15.366" fill="none" stroke="#328aca" stroke-miterlimit="10"/>
    <g>
      <path d="M.6,24.518H3.79v.755H1.458v1.811h2.27v.756H1.458v1.926H3.79v.756H.6Z" transform="translate(0 -2.18)"/>
      <path d="M5.293,24.518h.773v6H5.293Z" transform="translate(0 -2.18)"/>
      <path d="M9.324,26.066c1.162,0,1.765,1.018,1.765,2.3V28.6H8.3c.035.793.449,1.395,1.2,1.395a1.325,1.325,0,0,0,1-.5l.4.468a1.922,1.922,0,0,1-1.468.676c-1.18,0-1.918-.945-1.918-2.287C7.506,27.084,8.19,26.066,9.324,26.066ZM8.289,28.047h2.044c-.009-.6-.279-1.342-1.018-1.342C8.6,26.705,8.316,27.461,8.289,28.047Z" transform="translate(0 -2.18)"/>
      <path d="M14.139,26.066a1.535,1.535,0,0,1,1.288.585l-.406.523a.958.958,0,0,0-.81-.424c-.73,0-1.125.721-1.125,1.594s.395,1.6,1.125,1.6a.98.98,0,0,0,.81-.423l.406.522a1.512,1.512,0,0,1-1.288.586c-1.134,0-1.855-.982-1.855-2.287S13.005,26.066,14.139,26.066Z" transform="translate(0 -2.18)"/>
      <path d="M21.42,24.418a2.008,2.008,0,0,1,1.846,1.207l-.694.342a1.274,1.274,0,0,0-1.152-.783c-.9,0-1.512.927-1.512,2.34s.612,2.35,1.512,2.35a1.443,1.443,0,0,0,1.071-.468v-1.26H21.142V27.39H23.3v2.34a2.343,2.343,0,0,1-1.882.91c-1.431,0-2.386-1.261-2.386-3.116S19.989,24.418,21.42,24.418Z" transform="translate(0 -2.18)"/>
      <path d="M26.469,26.066c1.162,0,1.764,1.018,1.764,2.3V28.6h-2.79c.036.793.45,1.395,1.2,1.395a1.327,1.327,0,0,0,1-.5l.4.468a1.92,1.92,0,0,1-1.468.676c-1.179,0-1.918-.945-1.918-2.287C24.65,27.084,25.335,26.066,26.469,26.066Zm-1.035,1.981h2.044c-.009-.6-.28-1.342-1.018-1.342C25.74,26.705,25.461,27.461,25.434,28.047Z" transform="translate(0 -2.18)"/>
      <path d="M32.032,27.5c0-.55-.253-.748-.657-.748a1.169,1.169,0,0,0-.955.648v3.124h-.774V26.174h.774v.6a1.617,1.617,0,0,1,1.261-.711c.756,0,1.116.414,1.116,1.18v3.276h-.765Z" transform="translate(0 -2.18)"/>
      <path d="M37.043,29.208a1.888,1.888,0,0,0,1.414.657.9.9,0,0,0,1.026-.89c0-.6-.54-.866-1.143-1.145-.73-.332-1.567-.692-1.567-1.781a1.66,1.66,0,0,1,1.8-1.631,2.277,2.277,0,0,1,1.656.64l-.432.648a1.666,1.666,0,0,0-1.251-.522.822.822,0,0,0-.9.819c0,.513.514.747,1.081,1.018.756.35,1.621.756,1.621,1.9a1.685,1.685,0,0,1-1.882,1.711,2.437,2.437,0,0,1-1.863-.757Z" transform="translate(0 -2.18)"/>
      <path d="M43.371,26.066c1.161,0,1.764,1.018,1.764,2.3V28.6h-2.79c.035.793.45,1.395,1.2,1.395a1.325,1.325,0,0,0,1-.5l.4.468a1.922,1.922,0,0,1-1.468.676c-1.18,0-1.918-.945-1.918-2.287C41.552,27.084,42.236,26.066,43.371,26.066Zm-1.036,1.981h2.044c-.009-.6-.279-1.342-1.018-1.342C42.642,26.705,42.362,27.461,42.335,28.047Z" transform="translate(0 -2.18)"/>
      <path d="M48.186,26.066a1.536,1.536,0,0,1,1.288.585l-.406.523a.958.958,0,0,0-.81-.424c-.73,0-1.125.721-1.125,1.594s.395,1.6,1.125,1.6a.98.98,0,0,0,.81-.423l.406.522a1.513,1.513,0,0,1-1.288.586c-1.134,0-1.855-.982-1.855-2.287S47.052,26.066,48.186,26.066Z" transform="translate(0 -2.18)"/>
      <path d="M54.954,28.191h-.8v2.331H53.3v-6h1.953a1.676,1.676,0,0,1,1.7,1.828,1.577,1.577,0,0,1-1.161,1.7l1.216,2.475h-.964Zm.18-2.918h-.982v2.162h.982a1.092,1.092,0,0,0,0-2.162Z" transform="translate(0 -2.18)"/>
      <path d="M60.588,30.072a1.405,1.405,0,0,1-1.144.559,1.337,1.337,0,0,1-1.323-1.449,1.314,1.314,0,0,1,1.323-1.423,1.364,1.364,0,0,1,1.144.54v-.694a.792.792,0,0,0-.864-.882,1.476,1.476,0,0,0-1.089.513l-.316-.54a2.093,2.093,0,0,1,1.531-.63,1.331,1.331,0,0,1,1.512,1.45v3.006h-.774Zm0-1.242a.994.994,0,0,0-.873-.522.895.895,0,0,0,0,1.782.994.994,0,0,0,.873-.522Z" transform="translate(0 -2.18)"/>
      <path d="M63.17,29.6V26.85h-.576v-.676h.576V24.986h.766v1.188h.729v.676h-.729v2.6c0,.307.107.5.341.5a.5.5,0,0,0,.369-.153l.2.576a1,1,0,0,1-.739.262C63.467,30.631,63.17,30.279,63.17,29.6Z" transform="translate(0 -2.18)"/>
      <path d="M67.617,26.066c1.161,0,1.764,1.018,1.764,2.3V28.6h-2.79c.035.793.45,1.395,1.2,1.395a1.325,1.325,0,0,0,1-.5l.4.468a1.922,1.922,0,0,1-1.468.676c-1.18,0-1.918-.945-1.918-2.287C65.8,27.084,66.482,26.066,67.617,26.066Zm-1.036,1.981h2.044c-.009-.6-.279-1.342-1.018-1.342C66.888,26.705,66.608,27.461,66.581,28.047Z" transform="translate(0 -2.18)"/>
      <path d="M75.474,24.418a2.007,2.007,0,0,1,1.845,1.207l-.693.342a1.275,1.275,0,0,0-1.152-.783c-.9,0-1.512.927-1.512,2.34s.612,2.35,1.512,2.35a1.443,1.443,0,0,0,1.071-.468v-1.26h-1.35V27.39h2.16v2.34a2.341,2.341,0,0,1-1.881.91c-1.431,0-2.386-1.261-2.386-3.116S74.043,24.418,75.474,24.418Z" transform="translate(0 -2.18)"/>
      <path d="M79.036,29.208a1.89,1.89,0,0,0,1.414.657.9.9,0,0,0,1.027-.89c0-.6-.54-.866-1.144-1.145-.729-.332-1.566-.692-1.566-1.781a1.659,1.659,0,0,1,1.8-1.631,2.281,2.281,0,0,1,1.657.64l-.433.648a1.666,1.666,0,0,0-1.251-.522.822.822,0,0,0-.9.819c0,.513.513.747,1.08,1.018.757.35,1.621.756,1.621,1.9a1.685,1.685,0,0,1-1.882,1.711,2.44,2.44,0,0,1-1.863-.757Z" transform="translate(0 -2.18)"/>
      <path d="M86.273,24.518h.855v6h-.855Z" transform="translate(0 -2.18)"/>
      <path d="M91.215,27.5c0-.55-.253-.748-.657-.748a1.166,1.166,0,0,0-.955.648v3.124h-.774V26.174H89.6v.6a1.617,1.617,0,0,1,1.26-.711c.756,0,1.116.414,1.116,1.18v3.276h-.764Z" transform="translate(0 -2.18)"/>
      <path d="M96.137,29.928a1.37,1.37,0,0,1-1.134.7c-.973,0-1.576-.892-1.576-2.277,0-1.361.594-2.288,1.576-2.288a1.324,1.324,0,0,1,1.134.711V24.518H96.9v6h-.765Zm0-2.52a1.111,1.111,0,0,0-.918-.658c-.666,0-.99.711-.99,1.6s.324,1.592.99,1.592a1.1,1.1,0,0,0,.918-.648Z" transform="translate(0 -2.18)"/>
      <path d="M2.26,38.191h-.8v2.331H.6v-6H2.557a1.676,1.676,0,0,1,1.7,1.828,1.577,1.577,0,0,1-1.161,1.7l1.215,2.475H3.349Zm.179-2.918H1.458v2.162h.981a1.092,1.092,0,0,0,0-2.162Z" transform="translate(0 -2.18)"/>
      <path d="M7.894,40.072a1.407,1.407,0,0,1-1.144.559,1.337,1.337,0,0,1-1.323-1.449A1.314,1.314,0,0,1,6.75,37.759a1.365,1.365,0,0,1,1.144.54V37.6a.792.792,0,0,0-.865-.882,1.477,1.477,0,0,0-1.089.513l-.315-.54a2.091,2.091,0,0,1,1.53-.63,1.332,1.332,0,0,1,1.513,1.45v3.006H7.894Zm0-1.242a.994.994,0,0,0-.873-.522.895.895,0,0,0,0,1.782.994.994,0,0,0,.873-.522Z" transform="translate(0 -2.18)"/>
      <path d="M10.476,39.6V36.85H9.9v-.676h.577V34.986h.765v1.188h.73v.676h-.73v2.6c0,.307.109.495.342.495a.5.5,0,0,0,.369-.153l.2.576a.994.994,0,0,1-.738.262C10.773,40.631,10.476,40.279,10.476,39.6Z" transform="translate(0 -2.18)"/>
      <path d="M14.922,36.066c1.162,0,1.765,1.018,1.765,2.3V38.6H13.9c.036.793.45,1.4,1.2,1.4a1.327,1.327,0,0,0,1-.5l.4.468a1.92,1.92,0,0,1-1.468.676c-1.179,0-1.917-.945-1.917-2.287C13.1,37.084,13.788,36.066,14.922,36.066Zm-1.035,1.981h2.044c-.009-.6-.28-1.342-1.018-1.342C14.193,36.705,13.914,37.461,13.887,38.047Z" transform="translate(0 -2.18)"/>
      <path d="M18.6,36.111a.54.54,0,1,1-.55.54A.548.548,0,0,1,18.6,36.111Zm0,3.421a.54.54,0,1,1-.55.54A.548.548,0,0,1,18.6,39.532Z" transform="translate(0 -2.18)"/>
      <path d="M24.211,35.634l-.928.981-.5-.531,1.531-1.566h.747v6h-.846Z" transform="translate(0 -2.18)"/>
      <path d="M27.757,35.634l-.928.981-.5-.531,1.53-1.566H28.6v6h-.846Z" transform="translate(0 -2.18)"/>
      <path d="M31.3,35.634l-.928.981-.5-.531,1.53-1.566h.747v6H31.3Z" transform="translate(0 -2.18)"/>
      <path d="M35.641,34.428c1.421,0,1.944,1.494,1.944,3.1s-.513,3.107-1.944,3.107-1.954-1.5-1.954-3.107S34.209,34.428,35.641,34.428Zm0,.765c-.865,0-1.08,1.153-1.08,2.331s.215,2.341,1.08,2.341,1.071-1.17,1.071-2.341S36.5,35.193,35.641,35.193Z" transform="translate(0 -2.18)"/>
      <path d="M2.772,44.418a2.008,2.008,0,0,1,1.846,1.207l-.693.342a1.277,1.277,0,0,0-1.153-.783c-.9,0-1.511.927-1.511,2.34s.612,2.35,1.511,2.35a1.443,1.443,0,0,0,1.072-.468v-1.26H2.494V47.39h2.16v2.34a2.343,2.343,0,0,1-1.882.91c-1.43,0-2.385-1.261-2.385-3.116S1.342,44.418,2.772,44.418Z" transform="translate(0 -2.18)"/>
      <path d="M8.461,50.072a1.405,1.405,0,0,1-1.144.559,1.337,1.337,0,0,1-1.323-1.449,1.314,1.314,0,0,1,1.323-1.423,1.364,1.364,0,0,1,1.144.54v-.694a.792.792,0,0,0-.864-.882,1.476,1.476,0,0,0-1.089.513l-.316-.54a2.093,2.093,0,0,1,1.531-.63,1.331,1.331,0,0,1,1.512,1.45v3.006H8.461Zm0-1.242a.994.994,0,0,0-.873-.522.895.895,0,0,0,0,1.782.994.994,0,0,0,.873-.522Z" transform="translate(0 -2.18)"/>
      <path d="M10.908,49.469a1.6,1.6,0,0,0,1.161.541c.478,0,.775-.235.775-.6,0-.414-.406-.594-.865-.774-.6-.226-1.295-.486-1.295-1.36a1.271,1.271,0,0,1,1.44-1.206,1.877,1.877,0,0,1,1.377.559l-.342.53a1.3,1.3,0,0,0-1.026-.467c-.433,0-.721.224-.721.54,0,.369.388.531.828.71.613.226,1.342.5,1.342,1.423a1.327,1.327,0,0,1-1.5,1.27,1.973,1.973,0,0,1-1.53-.612Z" transform="translate(0 -2.18)"/>
      <path d="M19.656,44.418A2.008,2.008,0,0,1,21.5,45.625l-.693.342a1.276,1.276,0,0,0-1.153-.783c-.9,0-1.511.927-1.511,2.34s.611,2.35,1.511,2.35a1.443,1.443,0,0,0,1.072-.468v-1.26h-1.35V47.39h2.16v2.34a2.343,2.343,0,0,1-1.882.91c-1.43,0-2.385-1.261-2.385-3.116S18.226,44.418,19.656,44.418Z" transform="translate(0 -2.18)"/>
      <path d="M24.705,46.066c1.162,0,1.765,1.018,1.765,2.3V48.6H23.68c.035.793.449,1.4,1.2,1.4a1.325,1.325,0,0,0,1-.5l.4.468a1.918,1.918,0,0,1-1.467.676c-1.18,0-1.918-.945-1.918-2.287C22.887,47.084,23.571,46.066,24.705,46.066ZM23.67,48.047h2.044c-.009-.6-.279-1.342-1.018-1.342C23.977,46.705,23.7,47.461,23.67,48.047Z" transform="translate(0 -2.18)"/>
      <path d="M30.268,47.5c0-.55-.253-.748-.658-.748a1.167,1.167,0,0,0-.955.648v3.124h-.773V46.174h.773v.6a1.618,1.618,0,0,1,1.261-.711c.756,0,1.116.414,1.116,1.18v3.276h-.764Z" transform="translate(0 -2.18)"/>
      <path d="M35.279,49.208a1.89,1.89,0,0,0,1.414.657.9.9,0,0,0,1.027-.89c0-.6-.54-.866-1.144-1.145-.729-.332-1.566-.692-1.566-1.781a1.659,1.659,0,0,1,1.8-1.631,2.279,2.279,0,0,1,1.656.64l-.433.648a1.666,1.666,0,0,0-1.251-.522.822.822,0,0,0-.9.819c0,.513.513.747,1.08,1.018.757.35,1.621.756,1.621,1.9A1.685,1.685,0,0,1,36.7,50.631a2.44,2.44,0,0,1-1.863-.757Z" transform="translate(0 -2.18)"/>
      <path d="M41.607,46.066c1.162,0,1.764,1.018,1.764,2.3V48.6h-2.79c.035.793.45,1.4,1.2,1.4a1.323,1.323,0,0,0,1-.5l.4.468a1.92,1.92,0,0,1-1.468.676c-1.18,0-1.918-.945-1.918-2.287C39.788,47.084,40.473,46.066,41.607,46.066Zm-1.036,1.981h2.044c-.009-.6-.279-1.342-1.017-1.342C40.878,46.705,40.6,47.461,40.571,48.047Z" transform="translate(0 -2.18)"/>
      <path d="M44.784,46.174h.774v.666a1.461,1.461,0,0,1,1.215-.765v.783a.907.907,0,0,0-.225-.026,1.252,1.252,0,0,0-.99.656v3.034h-.774Z" transform="translate(0 -2.18)"/>
      <path d="M47.492,46.174h.828l1.018,3.43,1.035-3.43h.819l-1.431,4.348h-.837Z" transform="translate(0 -2.18)"/>
      <path d="M56.493,48.191h-.8v2.331h-.854v-6H56.79a1.676,1.676,0,0,1,1.7,1.828,1.577,1.577,0,0,1-1.161,1.7l1.216,2.475h-.964Zm.18-2.918h-.982v2.162h.982a1.092,1.092,0,0,0,0-2.162Z" transform="translate(0 -2.18)"/>
      <path d="M62.127,50.072a1.405,1.405,0,0,1-1.144.559,1.337,1.337,0,0,1-1.323-1.449,1.314,1.314,0,0,1,1.323-1.423,1.364,1.364,0,0,1,1.144.54v-.694a.792.792,0,0,0-.864-.882,1.476,1.476,0,0,0-1.089.513l-.316-.54a2.093,2.093,0,0,1,1.531-.63,1.331,1.331,0,0,1,1.512,1.45v3.006h-.774Zm0-1.242a.994.994,0,0,0-.873-.522.895.895,0,0,0,0,1.782.994.994,0,0,0,.873-.522Z" transform="translate(0 -2.18)"/>
      <path d="M64.709,49.6V46.85h-.576v-.676h.576V44.986h.766v1.188H66.2v.676h-.729v2.6c0,.307.107.495.341.495a.5.5,0,0,0,.37-.153l.2.576a1,1,0,0,1-.738.262C65.006,50.631,64.709,50.279,64.709,49.6Z" transform="translate(0 -2.18)"/>
      <path d="M69.156,46.066c1.161,0,1.764,1.018,1.764,2.3V48.6H68.13c.035.793.45,1.4,1.2,1.4a1.325,1.325,0,0,0,1-.5l.4.468a1.92,1.92,0,0,1-1.468.676c-1.18,0-1.918-.945-1.918-2.287C67.337,47.084,68.021,46.066,69.156,46.066ZM68.12,48.047h2.044c-.009-.6-.279-1.342-1.018-1.342C68.427,46.705,68.147,47.461,68.12,48.047Z" transform="translate(0 -2.18)"/>
      <path d="M77.013,44.418a2.007,2.007,0,0,1,1.845,1.207l-.693.342a1.275,1.275,0,0,0-1.152-.783c-.9,0-1.512.927-1.512,2.34s.612,2.35,1.512,2.35a1.443,1.443,0,0,0,1.071-.468v-1.26h-1.35V47.39H78.9v2.34a2.343,2.343,0,0,1-1.882.91c-1.431,0-2.386-1.261-2.386-3.116S75.582,44.418,77.013,44.418Z" transform="translate(0 -2.18)"/>
      <path d="M80.575,49.208a1.89,1.89,0,0,0,1.414.657.9.9,0,0,0,1.027-.89c0-.6-.54-.866-1.144-1.145-.729-.332-1.566-.692-1.566-1.781a1.659,1.659,0,0,1,1.8-1.631,2.281,2.281,0,0,1,1.657.64l-.433.648a1.666,1.666,0,0,0-1.251-.522.822.822,0,0,0-.9.819c0,.513.513.747,1.08,1.018.757.35,1.621.756,1.621,1.9A1.685,1.685,0,0,1,82,50.631a2.44,2.44,0,0,1-1.863-.757Z" transform="translate(0 -2.18)"/>
      <path d="M85.013,48.011h1.872v.666H85.013Z" transform="translate(0 -2.18)"/>
      <path d="M89.243,45.634l-.928.981-.5-.531,1.53-1.566h.747v6h-.846Z" transform="translate(0 -2.18)"/>
      <path d="M93.977,48.011h1.872v.666H93.977Z" transform="translate(0 -2.18)"/>
      <path d="M97.262,44.518h.854v6h-.854Z" transform="translate(0 -2.18)"/>
      <path d="M102.2,47.5c0-.55-.253-.748-.657-.748a1.167,1.167,0,0,0-.955.648v3.124h-.774V46.174h.774v.6a1.617,1.617,0,0,1,1.261-.711c.755,0,1.116.414,1.116,1.18v3.276H102.2Z" transform="translate(0 -2.18)"/>
      <path d="M107.126,49.928a1.369,1.369,0,0,1-1.134.7c-.972,0-1.576-.892-1.576-2.277,0-1.361.595-2.288,1.576-2.288a1.324,1.324,0,0,1,1.134.711V44.518h.766v6h-.766Zm0-2.52a1.111,1.111,0,0,0-.918-.658c-.666,0-.99.711-.99,1.6s.324,1.592.99,1.592a1.1,1.1,0,0,0,.918-.648Z" transform="translate(0 -2.18)"/>
      <path d="M2.26,58.191h-.8v2.331H.6v-6H2.557a1.676,1.676,0,0,1,1.7,1.828,1.577,1.577,0,0,1-1.161,1.7l1.215,2.475H3.349Zm.179-2.918H1.458v2.162h.981a1.092,1.092,0,0,0,0-2.162Z" transform="translate(0 -2.18)"/>
      <path d="M7.894,60.072a1.407,1.407,0,0,1-1.144.559,1.337,1.337,0,0,1-1.323-1.449A1.314,1.314,0,0,1,6.75,57.759a1.365,1.365,0,0,1,1.144.54v-.694a.792.792,0,0,0-.865-.882,1.477,1.477,0,0,0-1.089.513l-.315-.54a2.091,2.091,0,0,1,1.53-.63,1.332,1.332,0,0,1,1.513,1.45v3.006H7.894Zm0-1.242a.994.994,0,0,0-.873-.522.895.895,0,0,0,0,1.782.994.994,0,0,0,.873-.522Z" transform="translate(0 -2.18)"/>
      <path d="M10.476,59.6V56.85H9.9v-.676h.577V54.986h.765v1.188h.73v.676h-.73v2.6c0,.307.109.495.342.495a.5.5,0,0,0,.369-.153l.2.576a.994.994,0,0,1-.738.262C10.773,60.631,10.476,60.279,10.476,59.6Z" transform="translate(0 -2.18)"/>
      <path d="M14.922,56.066c1.162,0,1.765,1.018,1.765,2.3V58.6H13.9c.036.793.45,1.4,1.2,1.4a1.327,1.327,0,0,0,1-.5l.4.468a1.92,1.92,0,0,1-1.468.676c-1.179,0-1.917-.945-1.917-2.287C13.1,57.084,13.788,56.066,14.922,56.066Zm-1.035,1.981h2.044c-.009-.6-.28-1.342-1.018-1.342C14.193,56.705,13.914,57.461,13.887,58.047Z" transform="translate(0 -2.18)"/>
      <path d="M18.6,56.111a.54.54,0,1,1-.55.54A.548.548,0,0,1,18.6,56.111Zm0,3.421a.54.54,0,1,1-.55.54A.548.548,0,0,1,18.6,59.532Z" transform="translate(0 -2.18)"/>
      <path d="M23.112,59.829c2.034-2.224,2.647-2.881,2.647-3.709a.886.886,0,0,0-.918-.927,1.452,1.452,0,0,0-1.27.729l-.54-.522a2.11,2.11,0,0,1,1.819-.972,1.659,1.659,0,0,1,1.782,1.692c0,.972-.72,1.837-2.278,3.646h2.3v.756H23.112Z" transform="translate(0 -2.18)"/>
      <path d="M30.2,54.428a1.736,1.736,0,0,1,1.441.72l-.451.622a1.058,1.058,0,0,0-.981-.577c-.891,0-1.278,1.134-1.278,2.223v.153a1.544,1.544,0,0,1,1.314-.846c.883,0,1.6.648,1.6,1.927a1.826,1.826,0,0,1-1.791,1.981c-1.486,0-1.991-1.486-1.991-3.107C28.07,55.868,28.728,54.428,30.2,54.428Zm-.2,3.033a1.32,1.32,0,0,0-1.062.829c.045.648.27,1.575,1.072,1.575.666,0,.963-.621.963-1.188C30.979,57.8,30.537,57.461,30.006,57.461Z" transform="translate(0 -2.18)"/>
      <path d="M33.524,59.118a1.516,1.516,0,0,0,1.288.747.945.945,0,0,0,1.035-1.045c0-.746-.5-.99-1.1-.99-.189,0-.414,0-.5.01v-.775c.081.009.324.009.476.009.6,0,1.036-.3,1.036-.918a.89.89,0,0,0-.981-.963,1.481,1.481,0,0,0-1.216.675l-.512-.486a2.067,2.067,0,0,1,1.782-.954,1.569,1.569,0,0,1,1.782,1.6,1.413,1.413,0,0,1-1.089,1.386,1.474,1.474,0,0,1,1.17,1.477,1.69,1.69,0,0,1-1.863,1.738,2.128,2.128,0,0,1-1.863-.99Z" transform="translate(0 -2.18)"/>
    </g>
  </g>
</svg>
