<svg xmlns="http://www.w3.org/2000/svg" width="543.923" height="219.335" viewBox="0 0 543.923 219.335">
  <g>
    <path d="M15,0H528.923a15,15,0,0,1,15,15V29.379a0,0,0,0,1,0,0H0a0,0,0,0,1,0,0V15A15,15,0,0,1,15,0Z" fill="#f2f0ec"/>
    <rect y="33.179" width="543.923" height="186.156" fill="#f2f0ec"/>
    <g>
      <path d="M14.892,19.885a1.814,1.814,0,0,0,1.328.592,1.3,1.3,0,0,0,1.393-1.441V11.513h2.145V19.1a3,3,0,0,1-3.33,3.281,3.3,3.3,0,0,1-2.305-.816Z" fill="#0b79bf"/>
      <path d="M25.885,21.421a2.536,2.536,0,0,1-2.033.96,2.4,2.4,0,0,1-2.385-2.561,2.313,2.313,0,0,1,2.385-2.5,2.454,2.454,0,0,1,2.033.912V17.211a1.269,1.269,0,0,0-1.424-1.345,2.708,2.708,0,0,0-1.9.833l-.72-1.312a4.385,4.385,0,0,1,2.977-1.121c1.68,0,3.009.753,3.009,2.737v5.186H25.885Zm0-2.065a1.492,1.492,0,0,0-1.3-.752,1.164,1.164,0,0,0-1.2,1.249,1.151,1.151,0,0,0,1.2,1.232,1.446,1.446,0,0,0,1.3-.736Z" fill="#0b79bf"/>
      <path d="M34.221,17.1c0-.817-.368-1.137-1.008-1.137a1.749,1.749,0,0,0-1.409.96v5.266h-1.92V14.458H31.8v1.009a2.869,2.869,0,0,1,2.273-1.2,1.879,1.879,0,0,1,2.065,2.113v5.81H34.221Z" fill="#0b79bf"/>
      <path d="M42.557,21.213a2.821,2.821,0,0,1-2.273,1.168,1.849,1.849,0,0,1-2.065-2.08V14.458H40.14v5.106c0,.817.385,1.121,1.025,1.121a1.7,1.7,0,0,0,1.392-.945V14.458h1.921v7.731H42.557Z" fill="#0b79bf"/>
      <path d="M50.541,21.421a2.536,2.536,0,0,1-2.033.96,2.4,2.4,0,0,1-2.385-2.561,2.313,2.313,0,0,1,2.385-2.5,2.456,2.456,0,0,1,2.033.912V17.211a1.269,1.269,0,0,0-1.425-1.345,2.708,2.708,0,0,0-1.9.833l-.721-1.312a4.387,4.387,0,0,1,2.977-1.121c1.681,0,3.01.753,3.01,2.737v5.186H50.541Zm0-2.065a1.493,1.493,0,0,0-1.3-.752,1.164,1.164,0,0,0-1.2,1.249,1.151,1.151,0,0,0,1.2,1.232,1.446,1.446,0,0,0,1.3-.736Z" fill="#0b79bf"/>
      <path d="M54.539,14.458H56.46V15.53a2.63,2.63,0,0,1,2.113-1.248v1.872a2.024,2.024,0,0,0-.464-.048,2.14,2.14,0,0,0-1.649.929v5.154H54.539Z" fill="#0b79bf"/>
      <path d="M60.6,23.63a.791.791,0,0,0,.848-.561l.257-.736L59.1,14.458h2.049l1.553,5.41,1.569-5.41h2.049L63.292,23.5a2.355,2.355,0,0,1-2.545,1.824,4.4,4.4,0,0,1-.928-.111l.288-1.7A1.319,1.319,0,0,0,60.6,23.63Z" fill="#0b79bf"/>
      <path d="M71.243,11.513h6.115v1.873h-3.97v2.449h3.857v1.856H73.388v2.625h3.97v1.873H71.243Z" fill="#0b79bf"/>
      <path d="M83.532,17.1c0-.817-.368-1.137-1.008-1.137a1.751,1.751,0,0,0-1.409.96v5.266h-1.92V14.458h1.92v1.009a2.869,2.869,0,0,1,2.273-1.2,1.879,1.879,0,0,1,2.065,2.113v5.81H83.532Z" fill="#0b79bf"/>
      <path d="M90.588,14.266c2.129,0,3.329,1.729,3.329,4.13v.543h-4.85a1.84,1.84,0,0,0,1.873,1.89,2.336,2.336,0,0,0,1.681-.753l.88,1.153a3.77,3.77,0,0,1-2.769,1.152c-2.177,0-3.6-1.632-3.6-4.066C87.131,16.075,88.443,14.266,90.588,14.266Zm-1.521,3.361H92.06c-.031-.8-.384-1.809-1.5-1.809C89.484,15.818,89.1,16.827,89.067,17.627Z" fill="#0b79bf"/>
      <path d="M95.53,14.458h1.921V15.53a2.633,2.633,0,0,1,2.113-1.248v1.872a2.024,2.024,0,0,0-.464-.048,2.142,2.142,0,0,0-1.649.929v5.154H95.53Z" fill="#0b79bf"/>
      <path d="M101.675,22.861a2.578,2.578,0,0,0,1.985.849,1.621,1.621,0,0,0,1.728-1.825V20.94a2.321,2.321,0,0,1-1.952,1.185c-1.729,0-2.849-1.393-2.849-3.922,0-2.48,1.12-3.937,2.849-3.937a2.218,2.218,0,0,1,1.952,1.169v-.977h1.921v7.331c0,2.817-1.841,3.537-3.553,3.537a3.983,3.983,0,0,1-2.85-.992Zm3.713-5.986a1.588,1.588,0,0,0-1.328-.912c-.976,0-1.489.9-1.489,2.24s.513,2.226,1.489,2.226a1.6,1.6,0,0,0,1.328-.9Z" fill="#0b79bf"/>
      <path d="M110,23.63a.791.791,0,0,0,.848-.561l.256-.736-2.609-7.875h2.049l1.553,5.41,1.568-5.41h2.049L112.684,23.5a2.356,2.356,0,0,1-2.545,1.824,4.4,4.4,0,0,1-.928-.111l.288-1.7A1.319,1.319,0,0,0,110,23.63Z" fill="#0b79bf"/>
      <path d="M120.634,11.513h4.418a2.594,2.594,0,0,1,2.817,2.721,2.334,2.334,0,0,1-1.713,2.449,2.523,2.523,0,0,1,1.889,2.625,2.646,2.646,0,0,1-2.849,2.881h-4.562Zm3.906,4.338a1.1,1.1,0,0,0,1.136-1.248,1.112,1.112,0,0,0-1.136-1.265h-1.761v2.513Zm.08,4.513a1.177,1.177,0,0,0,1.232-1.344,1.214,1.214,0,0,0-1.232-1.344h-1.841v2.688Z" fill="#0b79bf"/>
      <path d="M129.61,12.169a1.153,1.153,0,1,1,2.3,0,1.153,1.153,0,0,1-2.3,0Zm.192,2.289h1.921v7.731H129.8Z" fill="#0b79bf"/>
      <path d="M133.786,11.513h1.921V22.189h-1.921Z" fill="#0b79bf"/>
      <path d="M137.77,11.513h1.921V22.189H137.77Z" fill="#0b79bf"/>
    </g>
    <g>
      <path d="M16.247,41.42H14.286V39.486h6.132V41.42H18.469v7.215H16.247Z" fill="#0b79bf"/>
      <path d="M20.347,45.316c0-1.853,1.084-3.47,3.142-3.47a3.167,3.167,0,0,1,3.155,3.47A3.18,3.18,0,0,1,23.489,48.8C21.431,48.8,20.347,47.168,20.347,45.316Zm4.253,0c0-.961-.343-1.714-1.111-1.714s-1.1.753-1.1,1.714.343,1.729,1.1,1.729S24.6,46.289,24.6,45.316Z" fill="#0b79bf"/>
      <path d="M28.233,46.92V43.738H27.4V42.01h.837V40.2h1.988V42.01h1.071v1.728H30.221v2.688c0,.385.151.619.453.619a.687.687,0,0,0,.453-.152l.357,1.537a2.223,2.223,0,0,1-1.372.371A1.655,1.655,0,0,1,28.233,46.92Z" fill="#0b79bf"/>
      <path d="M35.967,47.99a2.223,2.223,0,0,1-1.742.811,2.059,2.059,0,0,1-2.071-2.2,1.964,1.964,0,0,1,2.071-2.113,2.191,2.191,0,0,1,1.742.754v-.767a1.022,1.022,0,0,0-1.166-1.03,2.526,2.526,0,0,0-1.632.688l-.7-1.332a4.123,4.123,0,0,1,2.717-.959c1.509,0,2.757.644,2.757,2.427v4.362H35.967Zm0-1.687a1.087,1.087,0,0,0-.959-.522.858.858,0,1,0,0,1.715,1.084,1.084,0,0,0,.959-.521Z" fill="#0b79bf"/>
      <path d="M39.545,39.486h1.989v9.149H39.545Z" fill="#0b79bf"/>
      <path d="M46.333,39.486h5.515v1.907H48.555v1.646h3.2v1.906h-3.2v1.784h3.293v1.906H46.333Z" fill="#0b79bf"/>
      <path d="M53.285,39.486h1.99v9.149h-1.99Z" fill="#0b79bf"/>
      <path d="M59.635,41.846c1.866,0,2.964,1.439,2.964,3.566v.549H58.525a1.355,1.355,0,0,0,1.454,1.275,1.974,1.974,0,0,0,1.358-.576l.878,1.194a3.527,3.527,0,0,1-2.47.947,3.162,3.162,0,0,1-3.21-3.485A3.169,3.169,0,0,1,59.635,41.846Zm-1.124,2.783h2.2c-.028-.535-.275-1.221-1.1-1.221C58.813,43.408,58.552,44.094,58.511,44.629Z" fill="#0b79bf"/>
      <path d="M66.616,41.846a2.79,2.79,0,0,1,2.222.9l-.96,1.359a1.279,1.279,0,0,0-1.029-.507c-.809,0-1.358.685-1.358,1.714s.549,1.729,1.358,1.729a1.257,1.257,0,0,0,1.029-.522l.96,1.372a2.791,2.791,0,0,1-2.222.906,3.18,3.18,0,0,1-3.155-3.485A3.167,3.167,0,0,1,66.616,41.846Z" fill="#0b79bf"/>
      <path d="M70.276,46.92V43.738h-.837V42.01h.837V40.2h1.989V42.01h1.07v1.728h-1.07v2.688c0,.385.151.619.452.619a.69.69,0,0,0,.454-.152l.356,1.537a2.223,2.223,0,0,1-1.372.371A1.655,1.655,0,0,1,70.276,46.92Z" fill="#0b79bf"/>
      <path d="M74.555,42.01h1.989v.849a2.308,2.308,0,0,1,1.769-1.013v1.92a1.695,1.695,0,0,0-1.769.6v4.266H74.555Z" fill="#0b79bf"/>
      <path d="M79.285,40.022a1.146,1.146,0,1,1,1.152,1.152A1.15,1.15,0,0,1,79.285,40.022Zm.151,1.988h1.989v6.625H79.436Z" fill="#0b79bf"/>
      <path d="M85.842,41.846a2.792,2.792,0,0,1,2.222.9L87.1,44.109a1.278,1.278,0,0,0-1.029-.507c-.809,0-1.357.685-1.357,1.714s.548,1.729,1.357,1.729a1.255,1.255,0,0,0,1.029-.522l.961,1.372a2.792,2.792,0,0,1-2.222.906,3.181,3.181,0,0,1-3.156-3.485A3.167,3.167,0,0,1,85.842,41.846Z" fill="#0b79bf"/>
      <path d="M92.367,39.486H94.6V45.4c0,.918.439,1.454,1.317,1.454s1.3-.536,1.3-1.454V39.486h2.236v5.9a3.548,3.548,0,0,1-7.092,0Z" fill="#0b79bf"/>
      <path d="M101.432,46.5a3.18,3.18,0,0,0,1.879.781c.549,0,.823-.2.823-.535s-.412-.48-.988-.631c-.946-.261-2.277-.589-2.277-2.181,0-1.112.892-2.084,2.579-2.084a3.97,3.97,0,0,1,2.442.836l-.768,1.33a2.5,2.5,0,0,0-1.66-.658c-.425,0-.727.179-.727.466,0,.3.357.44.933.59.974.26,2.359.617,2.359,2.25,0,1.248-1.042,2.141-2.675,2.141a3.933,3.933,0,0,1-2.716-.947Z" fill="#0b79bf"/>
      <path d="M109.989,41.846c1.866,0,2.964,1.439,2.964,3.566v.549h-4.074a1.355,1.355,0,0,0,1.454,1.275,1.974,1.974,0,0,0,1.358-.576l.878,1.194a3.527,3.527,0,0,1-2.47.947,3.162,3.162,0,0,1-3.21-3.485A3.169,3.169,0,0,1,109.989,41.846Zm-1.124,2.783h2.2c-.028-.535-.275-1.221-1.1-1.221C109.167,43.408,108.906,44.094,108.865,44.629Z" fill="#0b79bf"/>
      <path d="M117.172,45.91a9.532,9.532,0,0,1,1.368-4.957l.639.369a11.492,11.492,0,0,0,0,9.164l-.639.381A9.532,9.532,0,0,1,117.172,45.91Z" fill="#0b79bf"/>
      <path d="M122.04,45.439l-.594.885v2.311H120.38V41.154h1.066V44.9l2.467-3.746h1.256L122.7,44.7l2.67,3.936h-1.279Z" fill="#0b79bf"/>
      <path d="M129.815,42.994l-1.144,5.641h-1.122l-1.682-7.481h1.143L128.166,47l1.211-5.844h.875L131.474,47l1.144-5.844h1.144l-1.671,7.481h-1.133Z" fill="#0b79bf"/>
      <path d="M137.814,44.844c0-.672-.314-.908-.819-.908a1.468,1.468,0,0,0-1.189.808v3.891h-.964V41.154h.964v2.817a2.039,2.039,0,0,1,1.582-.887c.942,0,1.391.482,1.391,1.457v4.094h-.965Z" fill="#0b79bf"/>
      <path d="M142.685,45.506h2.333v.83h-2.333Z" fill="#0b79bf"/>
      <path d="M150.593,46.279l-.706.932v1.424h-.964V41.154h.964v4.868l2.075-2.8h1.132l-1.838,2.433,1.85,2.983h-1.133Z" fill="#0b79bf"/>
      <path d="M154.028,41.693a.636.636,0,0,1,.628-.629.628.628,0,0,1,.628.629.618.618,0,0,1-.628.618A.626.626,0,0,1,154.028,41.693Zm.146,1.526h.964v5.416h-.964Z" fill="#0b79bf"/>
      <path d="M156.765,41.154h.965v7.481h-.965Z" fill="#0b79bf"/>
      <path d="M159.088,45.922c0-1.525.785-2.838,2.276-2.838s2.277,1.313,2.277,2.838-.785,2.848-2.277,2.848S159.088,47.447,159.088,45.922Zm3.555,0c0-1.033-.392-1.986-1.279-1.986s-1.267.953-1.267,1.986.393,2,1.267,2S162.643,46.965,162.643,45.922Z" fill="#0b79bf"/>
      <path d="M167.961,44.475l-1.1,4.16h-1l-1.447-5.416h1l1,4.138,1.088-4.138h.9l1.1,4.138,1.009-4.138h1.009l-1.458,5.416h-1Z" fill="#0b79bf"/>
      <path d="M175.344,48.074a1.745,1.745,0,0,1-1.424.7,1.667,1.667,0,0,1-1.649-1.8,1.638,1.638,0,0,1,1.649-1.774,1.7,1.7,0,0,1,1.424.674V45a.988.988,0,0,0-1.077-1.1,1.844,1.844,0,0,0-1.357.639l-.392-.672a2.594,2.594,0,0,1,1.907-.785,1.659,1.659,0,0,1,1.884,1.8v3.746h-.965Zm0-1.547a1.234,1.234,0,0,0-1.088-.65,1.116,1.116,0,0,0,0,2.221,1.239,1.239,0,0,0,1.088-.651Z" fill="#0b79bf"/>
      <path d="M178.128,47.492V44.059h-.718v-.84h.718V41.738h.953v1.481h.908v.84h-.908V47.3c0,.381.134.617.426.617a.621.621,0,0,0,.46-.191l.247.718a1.246,1.246,0,0,1-.92.325C178.5,48.77,178.128,48.332,178.128,47.492Z" fill="#0b79bf"/>
      <path d="M181.426,47.492V44.059h-.717v-.84h.717V41.738h.954v1.481h.908v.84h-.908V47.3c0,.381.134.617.426.617a.617.617,0,0,0,.459-.191l.247.718a1.244,1.244,0,0,1-.92.325C181.8,48.77,181.426,48.332,181.426,47.492Z" fill="#0b79bf"/>
      <path d="M184.175,45.506h2.333v.83h-2.333Z" fill="#0b79bf"/>
      <path d="M190.749,44.844c0-.672-.314-.908-.819-.908a1.468,1.468,0,0,0-1.189.808v3.891h-.964V41.154h.964v2.817a2.037,2.037,0,0,1,1.581-.887c.942,0,1.391.482,1.391,1.457v4.094h-.964Z" fill="#0b79bf"/>
      <path d="M193.072,45.922c0-1.525.786-2.838,2.277-2.838s2.277,1.313,2.277,2.838-.785,2.848-2.277,2.848S193.072,47.447,193.072,45.922Zm3.556,0c0-1.033-.393-1.986-1.279-1.986s-1.267.953-1.267,1.986.392,2,1.267,2S196.628,46.965,196.628,45.922Z" fill="#0b79bf"/>
      <path d="M201.957,47.906a1.987,1.987,0,0,1-1.581.864c-.942,0-1.391-.483-1.391-1.457V43.219h.964V47.01c0,.672.315.908.819.908a1.463,1.463,0,0,0,1.189-.785V43.219h.953v5.416h-.953Z" fill="#0b79bf"/>
      <path d="M204.55,43.219h.964v.83a1.818,1.818,0,0,1,1.515-.953v.974a1.209,1.209,0,0,0-.281-.033,1.565,1.565,0,0,0-1.234.818v3.78h-.964Z" fill="#0b79bf"/>
      <path d="M207.647,41.322l.628-.369a9.528,9.528,0,0,1,0,9.914l-.628-.381a11.361,11.361,0,0,0,0-9.164Z" fill="#0b79bf"/>
    </g>
    <g>
      <path d="M227.806,19.4a2.468,2.468,0,0,0,1.782.781c.528,0,.848-.276.848-.639,0-.439-.43-.648-1.046-.88-.945-.341-2.211-.748-2.211-2.3a2.313,2.313,0,0,1,2.574-2.233,3.5,3.5,0,0,1,2.355.836l-.826,1.32a2.308,2.308,0,0,0-1.55-.605c-.5,0-.738.253-.738.583,0,.4.418.595,1.045.825.947.341,2.2.8,2.2,2.288a2.321,2.321,0,0,1-2.628,2.344,3.633,3.633,0,0,1-2.652-.957Z" fill="#0b79bf"/>
      <path d="M235.44,16.139c1.5,0,2.377,1.155,2.377,2.86v.44h-3.268a1.088,1.088,0,0,0,1.166,1.024A1.585,1.585,0,0,0,236.8,20l.7.957a2.822,2.822,0,0,1-1.98.759,2.536,2.536,0,0,1-2.575-2.795A2.542,2.542,0,0,1,235.44,16.139Zm-.9,2.233H236.3c-.022-.429-.22-.978-.88-.978C234.779,17.394,234.571,17.943,234.537,18.372Z" fill="#0b79bf"/>
      <path d="M238.784,16.271h1.595v.682a1.855,1.855,0,0,1,1.42-.814v1.54a1.446,1.446,0,0,0-.342-.044,1.406,1.406,0,0,0-1.078.528v3.422h-1.595Z" fill="#0b79bf"/>
      <path d="M242.105,16.271h1.683l.936,3.411.957-3.411h1.682l-1.782,5.314h-1.694Z" fill="#0b79bf"/>
      <path d="M247.936,14.676a.919.919,0,1,1,.924.924A.922.922,0,0,1,247.936,14.676Zm.121,1.6h1.595v5.314h-1.595Z" fill="#0b79bf"/>
      <path d="M253.194,16.139a2.239,2.239,0,0,1,1.782.726l-.77,1.089a1.026,1.026,0,0,0-.825-.407c-.649,0-1.09.551-1.09,1.375s.441,1.387,1.09,1.387a1.009,1.009,0,0,0,.825-.418l.77,1.1a2.236,2.236,0,0,1-1.782.727,2.551,2.551,0,0,1-2.531-2.795A2.54,2.54,0,0,1,253.194,16.139Z" fill="#0b79bf"/>
      <path d="M258.077,16.139c1.5,0,2.377,1.155,2.377,2.86v.44h-3.267a1.087,1.087,0,0,0,1.166,1.024A1.587,1.587,0,0,0,259.442,20l.7.957a2.823,2.823,0,0,1-1.981.759,2.536,2.536,0,0,1-2.574-2.795A2.542,2.542,0,0,1,258.077,16.139Zm-.9,2.233h1.761c-.023-.429-.22-.978-.88-.978C257.417,17.394,257.208,17.943,257.175,18.372Z" fill="#0b79bf"/>
      <path d="M266.965,20.958a1.566,1.566,0,0,1-1.32.759c-1.189,0-1.991-1.012-1.991-2.795,0-1.716.792-2.783,1.991-2.783a1.541,1.541,0,0,1,1.32.759V14.247h1.584v7.338h-1.584Zm0-2.927a.973.973,0,0,0-.781-.484c-.583,0-.9.561-.9,1.375s.32,1.387.9,1.387a.986.986,0,0,0,.781-.5Z" fill="#0b79bf"/>
      <path d="M272.609,21.067a1.785,1.785,0,0,1-1.4.65,1.651,1.651,0,0,1-1.661-1.761,1.575,1.575,0,0,1,1.661-1.693,1.756,1.756,0,0,1,1.4.6v-.616a.82.82,0,0,0-.936-.825,2.023,2.023,0,0,0-1.309.551l-.561-1.068a3.309,3.309,0,0,1,2.179-.77c1.21,0,2.211.517,2.211,1.947v3.5h-1.584Zm0-1.352a.871.871,0,0,0-.771-.418.688.688,0,1,0,0,1.375.875.875,0,0,0,.771-.418Z" fill="#0b79bf"/>
      <path d="M275.742,20.21V17.657h-.671V16.271h.671V14.818h1.6v1.453h.858v1.386h-.858v2.157c0,.307.121.5.362.5a.55.55,0,0,0,.364-.121l.286,1.232a1.779,1.779,0,0,1-1.1.3A1.327,1.327,0,0,1,275.742,20.21Z" fill="#0b79bf"/>
      <path d="M281.386,16.139c1.5,0,2.377,1.155,2.377,2.86v.44H280.5a1.088,1.088,0,0,0,1.166,1.024A1.585,1.585,0,0,0,282.75,20l.7.957a2.821,2.821,0,0,1-1.98.759,2.536,2.536,0,0,1-2.574-2.795A2.542,2.542,0,0,1,281.386,16.139Zm-.9,2.233h1.76c-.022-.429-.219-.978-.88-.978C280.726,17.394,280.517,17.943,280.484,18.372Z" fill="#0b79bf"/>
      <path d="M284.972,19.868a2.539,2.539,0,0,0,1.507.627c.44,0,.66-.165.66-.429s-.33-.384-.792-.5c-.76-.209-1.826-.474-1.826-1.749,0-.892.715-1.673,2.068-1.673a3.184,3.184,0,0,1,1.958.671l-.616,1.067a2,2,0,0,0-1.331-.528c-.341,0-.583.143-.583.375s.286.351.748.472c.781.209,1.892.495,1.892,1.8,0,1-.836,1.716-2.145,1.716a3.154,3.154,0,0,1-2.179-.759Z" fill="#0b79bf"/>
      <path d="M290.549,16.194a.985.985,0,1,1-.99.979A1,1,0,0,1,290.549,16.194Zm0,3.553a.98.98,0,1,1-.99.98A1,1,0,0,1,290.549,19.747Z" fill="#0b79bf"/>
      <path d="M297.038,17.36v4.225h-1.771V14.247h1.815l2.113,4.016V14.247h1.759v7.338h-1.682Z" fill="#0b79bf"/>
      <path d="M302.032,18.922a2.537,2.537,0,1,1,5.05,0,2.538,2.538,0,1,1-5.05,0Zm3.411,0c0-.77-.275-1.375-.891-1.375s-.88.605-.88,1.375.274,1.387.88,1.387S305.443,19.7,305.443,18.922Z" fill="#0b79bf"/>
      <path d="M307.5,16.271h1.684l.935,3.411.957-3.411h1.683l-1.782,5.314h-1.7Z" fill="#0b79bf"/>
      <path d="M315.661,16.139c1.5,0,2.377,1.155,2.377,2.86v.44h-3.267a1.087,1.087,0,0,0,1.166,1.024A1.589,1.589,0,0,0,317.026,20l.7.957a2.823,2.823,0,0,1-1.981.759,2.536,2.536,0,0,1-2.574-2.795A2.542,2.542,0,0,1,315.661,16.139Zm-.9,2.233h1.761c-.023-.429-.22-.978-.88-.978C315,17.394,314.792,17.943,314.759,18.372Z" fill="#0b79bf"/>
      <path d="M324.824,18.152c0-.384-.153-.605-.527-.605a.977.977,0,0,0-.793.561v3.477H321.92V18.152c0-.363-.142-.605-.539-.605a.974.974,0,0,0-.781.561v3.477h-1.6V16.271h1.6v.66a1.932,1.932,0,0,1,1.518-.792,1.226,1.226,0,0,1,1.321.913,1.932,1.932,0,0,1,1.584-.913,1.265,1.265,0,0,1,1.4,1.42v4.026h-1.6Z" fill="#0b79bf"/>
      <path d="M327.706,14.247H329.3V16.9a1.512,1.512,0,0,1,1.31-.759c1.2,0,2,1.067,2,2.783,0,1.783-.814,2.795-2,2.795a1.562,1.562,0,0,1-1.31-.759v.627h-1.595Zm2.376,6.062c.572,0,.9-.562.9-1.387s-.331-1.375-.9-1.375a.955.955,0,0,0-.781.5v1.772A.933.933,0,0,0,330.082,20.309Z" fill="#0b79bf"/>
      <path d="M335.823,16.139c1.5,0,2.377,1.155,2.377,2.86v.44h-3.267a1.088,1.088,0,0,0,1.166,1.024A1.587,1.587,0,0,0,337.188,20l.7.957a2.823,2.823,0,0,1-1.981.759,2.536,2.536,0,0,1-2.574-2.795A2.542,2.542,0,0,1,335.823,16.139Zm-.9,2.233h1.761c-.023-.429-.22-.978-.88-.978C335.163,17.394,334.954,17.943,334.921,18.372Z" fill="#0b79bf"/>
      <path d="M339.168,16.271h1.595v.682a1.853,1.853,0,0,1,1.42-.814v1.54a1.446,1.446,0,0,0-.342-.044,1.406,1.406,0,0,0-1.078.528v3.422h-1.595Z" fill="#0b79bf"/>
      <path d="M346.263,19.439a2.175,2.175,0,0,0,1.584.738c.7,0,1.013-.353,1.013-.792,0-.529-.386-.748-1.079-.748-.252,0-.616.01-.737.021V17.1c.121.011.517.011.694.011.637,0,1.022-.231,1.022-.693,0-.484-.4-.737-.99-.737a1.98,1.98,0,0,0-1.463.682l-.968-1.023a3.093,3.093,0,0,1,2.585-1.2c1.584,0,2.574.715,2.574,2a1.725,1.725,0,0,1-1.419,1.661,1.766,1.766,0,0,1,1.53,1.75c0,1.287-1.068,2.167-2.685,2.167a3.33,3.33,0,0,1-2.685-1.166Z" fill="#0b79bf"/>
      <path d="M354.183,14.137c1.881,0,2.739,1.628,2.739,3.784s-.858,3.8-2.739,3.8-2.75-1.651-2.75-3.8S352.3,14.137,354.183,14.137Zm0,1.573c-.715,0-.946.8-.946,2.211s.231,2.223.946,2.223.935-.826.935-2.223S354.887,15.71,354.183,15.71Z" fill="#0b79bf"/>
      <path d="M357.846,22.586a2.007,2.007,0,0,0,.9-1.023,1.12,1.12,0,0,1-.242.033.839.839,0,0,1-.814-.891.966.966,0,0,1,.957-.958,1.108,1.108,0,0,1,1.078,1.222,2.654,2.654,0,0,1-1.21,2.156Z" fill="#0b79bf"/>
      <path d="M363.313,20.154c2.816-2.53,3.245-2.959,3.245-3.663a.8.8,0,0,0-.88-.781,1.981,1.981,0,0,0-1.563.781l-1.034-1.134a3.338,3.338,0,0,1,2.641-1.22,2.364,2.364,0,0,1,2.629,2.332c0,1.056-.649,1.926-2.464,3.564h2.519v1.552h-5.093Z" fill="#0b79bf"/>
      <path d="M372.025,14.137c1.88,0,2.739,1.628,2.739,3.784s-.859,3.8-2.739,3.8-2.75-1.651-2.75-3.8S370.144,14.137,372.025,14.137Zm0,1.573c-.715,0-.947.8-.947,2.211s.232,2.223.947,2.223.935-.826.935-2.223S372.729,15.71,372.025,15.71Z" fill="#0b79bf"/>
      <path d="M378.426,19.2l-1.2,2.388h-2.035l2.123-3.752-2-3.586h2.035l1.078,2.244,1.067-2.244h2.046l-1.991,3.575,2.124,3.763h-2.036Z" fill="#0b79bf"/>
      <path d="M384.982,19.2l-1.2,2.388h-2.035l2.123-3.752-2-3.586H383.9l1.078,2.244,1.067-2.244H388.1L386.1,17.822l2.124,3.763h-2.036Z" fill="#0b79bf"/>
      <path d="M391.219,18.251h2.332v1.343h-2.332Z" fill="#0b79bf"/>
      <path d="M397.2,14.247h2.575c2.09,0,3.311,1.5,3.311,3.674s-1.21,3.664-3.311,3.664H397.2Zm2.575,5.786c.946,0,1.5-.836,1.5-2.112,0-1.353-.517-2.123-1.5-2.123h-.792v4.235Z" fill="#0b79bf"/>
      <path d="M406.332,16.139c1.5,0,2.377,1.155,2.377,2.86v.44h-3.267a1.087,1.087,0,0,0,1.166,1.024A1.584,1.584,0,0,0,407.7,20l.7.957a2.825,2.825,0,0,1-1.981.759,2.536,2.536,0,0,1-2.574-2.795A2.542,2.542,0,0,1,406.332,16.139Zm-.9,2.233h1.761c-.023-.429-.22-.978-.88-.978C405.672,17.394,405.463,17.943,405.43,18.372Z" fill="#0b79bf"/>
      <path d="M411.932,16.139a2.239,2.239,0,0,1,1.782.726l-.769,1.089a1.028,1.028,0,0,0-.826-.407c-.649,0-1.09.551-1.09,1.375s.441,1.387,1.09,1.387a1.011,1.011,0,0,0,.826-.418l.769,1.1a2.236,2.236,0,0,1-1.782.727,2.55,2.55,0,0,1-2.53-2.795A2.54,2.54,0,0,1,411.932,16.139Z" fill="#0b79bf"/>
      <path d="M416.816,16.139c1.5,0,2.377,1.155,2.377,2.86v.44h-3.268a1.088,1.088,0,0,0,1.166,1.024A1.587,1.587,0,0,0,418.18,20l.7.957a2.822,2.822,0,0,1-1.98.759,2.536,2.536,0,0,1-2.575-2.795A2.542,2.542,0,0,1,416.816,16.139Zm-.9,2.233h1.761c-.022-.429-.22-.978-.88-.978C416.155,17.394,415.946,17.943,415.913,18.372Z" fill="#0b79bf"/>
      <path d="M425.979,18.152c0-.384-.154-.605-.528-.605a.979.979,0,0,0-.793.561v3.477h-1.584V18.152c0-.363-.142-.605-.539-.605a.974.974,0,0,0-.781.561v3.477h-1.6V16.271h1.6v.66a1.933,1.933,0,0,1,1.519-.792,1.226,1.226,0,0,1,1.32.913,1.933,1.933,0,0,1,1.584-.913,1.265,1.265,0,0,1,1.4,1.42v4.026h-1.6Z" fill="#0b79bf"/>
      <path d="M428.861,14.247h1.594V16.9a1.513,1.513,0,0,1,1.31-.759c1.2,0,2,1.067,2,2.783,0,1.783-.814,2.795-2,2.795a1.562,1.562,0,0,1-1.31-.759v.627h-1.594Zm2.376,6.062c.572,0,.9-.562.9-1.387s-.33-1.375-.9-1.375a.958.958,0,0,0-.782.5v1.772A.936.936,0,0,0,431.237,20.309Z" fill="#0b79bf"/>
      <path d="M436.978,16.139c1.5,0,2.377,1.155,2.377,2.86v.44h-3.268a1.088,1.088,0,0,0,1.166,1.024A1.585,1.585,0,0,0,438.342,20l.7.957a2.822,2.822,0,0,1-1.98.759,2.536,2.536,0,0,1-2.575-2.795A2.542,2.542,0,0,1,436.978,16.139Zm-.9,2.233h1.761c-.022-.429-.22-.978-.88-.978C436.318,17.394,436.109,17.943,436.075,18.372Z" fill="#0b79bf"/>
      <path d="M440.322,16.271h1.595v.682a1.856,1.856,0,0,1,1.42-.814v1.54a1.446,1.446,0,0,0-.342-.044,1.408,1.408,0,0,0-1.078.528v3.422h-1.595Z" fill="#0b79bf"/>
      <path d="M446.657,20.154c2.817-2.53,3.246-2.959,3.246-3.663a.8.8,0,0,0-.88-.781,1.981,1.981,0,0,0-1.563.781l-1.034-1.134a3.338,3.338,0,0,1,2.641-1.22,2.365,2.365,0,0,1,2.629,2.332c0,1.056-.649,1.926-2.464,3.564h2.519v1.552h-5.094Z" fill="#0b79bf"/>
      <path d="M453.994,17.8a1.809,1.809,0,0,1-1.276-1.727c0-1.376,1.331-1.936,2.607-1.936s2.608.56,2.608,1.936a1.818,1.818,0,0,1-1.287,1.727,2.1,2.1,0,0,1,1.385,1.871c0,1.352-1.166,2.046-2.706,2.046s-2.706-.683-2.706-2.035A2.091,2.091,0,0,1,453.994,17.8Zm1.331.7c-.307.044-.923.363-.923.935,0,.5.4.759.923.759s.924-.263.924-.759C456.249,18.867,455.622,18.548,455.325,18.5Zm0-2.849c-.517,0-.825.275-.825.726,0,.5.55.759.825.814.276-.055.826-.319.826-.814C456.151,15.93,455.831,15.655,455.325,15.655Z" fill="#0b79bf"/>
      <path d="M459.154,22.586a2.007,2.007,0,0,0,.9-1.023,1.13,1.13,0,0,1-.242.033.84.84,0,0,1-.815-.891.966.966,0,0,1,.957-.958,1.107,1.107,0,0,1,1.078,1.222,2.651,2.651,0,0,1-1.21,2.156Z" fill="#0b79bf"/>
      <path d="M464.62,20.154c2.817-2.53,3.245-2.959,3.245-3.663a.8.8,0,0,0-.879-.781,1.981,1.981,0,0,0-1.563.781l-1.034-1.134a3.338,3.338,0,0,1,2.64-1.22,2.364,2.364,0,0,1,2.629,2.332c0,1.056-.648,1.926-2.463,3.564h2.519v1.552H464.62Z" fill="#0b79bf"/>
      <path d="M473.332,14.137c1.881,0,2.739,1.628,2.739,3.784s-.858,3.8-2.739,3.8-2.75-1.651-2.75-3.8S471.451,14.137,473.332,14.137Zm0,1.573c-.715,0-.946.8-.946,2.211s.231,2.223.946,2.223.936-.826.936-2.223S474.036,15.71,473.332,15.71Z" fill="#0b79bf"/>
      <path d="M479.735,19.2l-1.2,2.388H476.5l2.123-3.752-2-3.586h2.035l1.079,2.244,1.067-2.244h2.046l-1.991,3.575,2.124,3.763h-2.036Z" fill="#0b79bf"/>
      <path d="M486.29,19.2l-1.2,2.388h-2.035l2.123-3.752-2-3.586h2.035l1.078,2.244,1.068-2.244H489.4l-1.992,3.575,2.124,3.763H487.5Z" fill="#0b79bf"/>
      <path d="M492.669,18.911a8.279,8.279,0,0,1,1.552-4.862l1.078.648a9.661,9.661,0,0,0-.913,4.214,9.609,9.609,0,0,0,.913,4.2l-1.078.66A8.283,8.283,0,0,1,492.669,18.911Z" fill="#0b79bf"/>
      <path d="M496.948,19.439a2.176,2.176,0,0,0,1.584.738c.705,0,1.013-.353,1.013-.792,0-.529-.386-.748-1.078-.748-.253,0-.616.01-.737.021V17.1c.121.011.516.011.693.011.638,0,1.023-.231,1.023-.693,0-.484-.4-.737-.991-.737a1.98,1.98,0,0,0-1.463.682l-.967-1.023a3.093,3.093,0,0,1,2.585-1.2c1.584,0,2.574.715,2.574,2a1.725,1.725,0,0,1-1.419,1.661,1.766,1.766,0,0,1,1.529,1.75c0,1.287-1.067,2.167-2.684,2.167a3.329,3.329,0,0,1-2.685-1.166Z" fill="#0b79bf"/>
      <path d="M504.868,14.137c1.881,0,2.74,1.628,2.74,3.784s-.859,3.8-2.74,3.8-2.75-1.651-2.75-3.8S502.988,14.137,504.868,14.137Zm0,1.573c-.714,0-.946.8-.946,2.211s.232,2.223.946,2.223.936-.826.936-2.223S505.572,15.71,504.868,15.71Z" fill="#0b79bf"/>
      <path d="M514.186,20.958a1.566,1.566,0,0,1-1.321.759c-1.188,0-1.991-1.012-1.991-2.795,0-1.716.792-2.783,1.991-2.783a1.541,1.541,0,0,1,1.321.759V14.247h1.584v7.338h-1.584Zm0-2.927a.974.974,0,0,0-.782-.484c-.583,0-.9.561-.9,1.375s.319,1.387.9,1.387a.987.987,0,0,0,.782-.5Z" fill="#0b79bf"/>
      <path d="M519.829,21.067a1.782,1.782,0,0,1-1.4.65,1.651,1.651,0,0,1-1.661-1.761,1.575,1.575,0,0,1,1.661-1.693,1.753,1.753,0,0,1,1.4.6v-.616a.819.819,0,0,0-.935-.825,2.021,2.021,0,0,0-1.309.551l-.561-1.068a3.3,3.3,0,0,1,2.178-.77c1.21,0,2.211.517,2.211,1.947v3.5h-1.584Zm0-1.352a.869.869,0,0,0-.77-.418.688.688,0,1,0,0,1.375.873.873,0,0,0,.77-.418Z" fill="#0b79bf"/>
      <path d="M523.238,22.333c.275,0,.473-.088.55-.309l.121-.34-1.8-5.413h1.683l.936,3.4.957-3.4h1.682l-2.056,6.106a1.773,1.773,0,0,1-1.947,1.364,2.855,2.855,0,0,1-.694-.088l.22-1.4A.722.722,0,0,0,523.238,22.333Z" fill="#0b79bf"/>
      <path d="M528.3,19.868a2.542,2.542,0,0,0,1.507.627c.44,0,.66-.165.66-.429s-.33-.384-.792-.5c-.76-.209-1.826-.474-1.826-1.749,0-.892.715-1.673,2.068-1.673a3.184,3.184,0,0,1,1.958.671l-.616,1.067a2,2,0,0,0-1.331-.528c-.341,0-.583.143-.583.375s.286.351.748.472c.781.209,1.893.495,1.893,1.8,0,1-.837,1.716-2.146,1.716a3.156,3.156,0,0,1-2.179-.759Z" fill="#0b79bf"/>
      <path d="M532.632,14.7l1.089-.648a8.393,8.393,0,0,1,0,9.725l-1.089-.66a9.462,9.462,0,0,0,.924-4.2A9.513,9.513,0,0,0,532.632,14.7Z" fill="#0b79bf"/>
    </g>
    <g>
      <g>
        <path d="M494.506,166.142H492.66l-.224.936h-1.5l1.773-6h1.756l1.774,6h-1.5Zm-1.558-1.251h1.279l-.639-2.539Z" fill="#0b79bf"/>
        <path d="M496.4,164.08c0-1.836,1.017-3.105,2.62-3.105a2.195,2.195,0,0,1,2.151,1.575l-1.2.513a1.019,1.019,0,0,0-.954-.8c-.711,0-1.135.765-1.135,1.818s.424,1.818,1.135,1.818a1.036,1.036,0,0,0,.954-.864l1.206.514a2.236,2.236,0,0,1-2.16,1.639C497.412,167.187,496.4,165.908,496.4,164.08Z" fill="#0b79bf"/>
        <path d="M502.956,162.343h-1.287v-1.27h4.025v1.27h-1.279v4.735h-1.459Z" fill="#0b79bf"/>
        <path d="M506.538,161.073h1.467v3.88c0,.6.288.955.864.955s.856-.351.856-.955v-3.88h1.468v3.871a2.329,2.329,0,0,1-4.655,0Z" fill="#0b79bf"/>
        <path d="M515.17,166.142h-1.846l-.224.936h-1.5l1.773-6h1.756l1.774,6h-1.5Zm-1.557-1.251h1.278l-.639-2.539Z" fill="#0b79bf"/>
        <path d="M517.5,161.073h1.458v4.736h1.936v1.269H517.5Z" fill="#0b79bf"/>
      </g>
      <polygon points="487.464 169.199 487.464 158.944 479.2 164.071 487.464 169.199" fill="#0b79bf"/>
    </g>
    <line y1="31.209" x2="543.83" y2="31.209" fill="none" stroke="#fff" stroke-miterlimit="10" stroke-width="3"/>
    <g>
      <path d="M37.455,188.893h4.582v1.4H39.063v1.835h2.89v1.391h-2.89v3.37H37.455Z" fill="#2f2e2c"/>
      <path d="M45.614,190.955c1.6,0,2.5,1.295,2.5,3.095v.407H44.474a1.378,1.378,0,0,0,1.4,1.415,1.751,1.751,0,0,0,1.259-.563l.66.863a2.825,2.825,0,0,1-2.075.864c-1.631,0-2.7-1.223-2.7-3.047C43.023,192.311,44.007,190.955,45.614,190.955Zm-1.14,2.519h2.243c-.024-.6-.288-1.356-1.127-1.356C44.786,192.118,44.5,192.874,44.474,193.474Z" fill="#2f2e2c"/>
      <path d="M49.323,188.893h1.439v2.938a1.675,1.675,0,0,1,1.464-.876c1.307,0,2.146,1.188,2.146,3.046,0,1.9-.851,3.035-2.146,3.035a1.743,1.743,0,0,1-1.464-.876v.732H49.323Zm2.447,6.872c.731,0,1.115-.756,1.115-1.764s-.384-1.774-1.115-1.774a1.237,1.237,0,0,0-1.008.695v2.159A1.224,1.224,0,0,0,51.77,195.765Z" fill="#2f2e2c"/>
    </g>
    <g>
      <path d="M81.739,191.4l-1.8,5.494h-.66L77.505,191.4v5.494H75.91v-8h2.159l1.547,4.8,1.559-4.8h2.147v8H81.739Z" fill="#2f2e2c"/>
      <path d="M87.92,196.316a1.9,1.9,0,0,1-1.523.72,1.8,1.8,0,0,1-1.787-1.919,1.733,1.733,0,0,1,1.787-1.871,1.838,1.838,0,0,1,1.523.684v-.768a.951.951,0,0,0-1.067-1.008,2.03,2.03,0,0,0-1.428.624l-.539-.983a3.282,3.282,0,0,1,2.23-.84c1.26,0,2.255.564,2.255,2.051v3.886H87.92Zm0-1.547a1.119,1.119,0,0,0-.972-.564.873.873,0,0,0-.9.936.863.863,0,0,0,.9.923,1.085,1.085,0,0,0,.972-.551Z" fill="#2f2e2c"/>
      <path d="M90.922,191.1h1.439v.8a1.973,1.973,0,0,1,1.583-.935v1.4a1.532,1.532,0,0,0-.348-.036,1.606,1.606,0,0,0-1.235.7v3.862H90.922Z" fill="#2f2e2c"/>
    </g>
    <g>
      <path d="M117.7,195.465h-2.614l-.372,1.427H113.05l2.374-8h1.943l2.375,8h-1.667Zm-2.291-1.4h1.967l-.983-3.743Z" fill="#2f2e2c"/>
      <path d="M120.621,199.1v-8h1.439v.732a1.728,1.728,0,0,1,1.463-.876c1.308,0,2.147,1.14,2.147,3.034s-.839,3.047-2.147,3.047a1.691,1.691,0,0,1-1.463-.876V199.1Zm2.435-6.872a1.21,1.21,0,0,0-1,.671v2.183a1.251,1.251,0,0,0,1,.684c.743,0,1.127-.756,1.127-1.776S123.8,192.227,123.056,192.227Z" fill="#2f2e2c"/>
      <path d="M126.921,191.1h1.439v.8a1.973,1.973,0,0,1,1.583-.935v1.4a1.532,1.532,0,0,0-.348-.036,1.606,1.606,0,0,0-1.235.7v3.862h-1.439Z" fill="#2f2e2c"/>
    </g>
    <g>
      <path d="M154.828,191.4l-1.8,5.494h-.66l-1.775-5.494v5.494H149v-8h2.159l1.547,4.8,1.559-4.8h2.147v8h-1.583Z" fill="#2f2e2c"/>
      <path d="M161.009,196.316a1.9,1.9,0,0,1-1.522.72,1.8,1.8,0,0,1-1.788-1.919,1.734,1.734,0,0,1,1.788-1.871,1.838,1.838,0,0,1,1.522.684v-.768a.95.95,0,0,0-1.067-1.008,2.026,2.026,0,0,0-1.427.624l-.54-.983a3.284,3.284,0,0,1,2.231-.84c1.259,0,2.255.564,2.255,2.051v3.886h-1.452Zm0-1.547a1.116,1.116,0,0,0-.971-.564.873.873,0,0,0-.9.936.863.863,0,0,0,.9.923,1.083,1.083,0,0,0,.971-.551Z" fill="#2f2e2c"/>
      <path d="M164.467,197.972a.594.594,0,0,0,.636-.42L165.3,197l-1.955-5.9h1.535l1.163,4.053,1.176-4.053h1.535l-2.267,6.776a1.767,1.767,0,0,1-1.907,1.367,3.188,3.188,0,0,1-.7-.084l.216-1.27A.989.989,0,0,0,164.467,197.972Z" fill="#2f2e2c"/>
    </g>
    <g>
      <path d="M228.892,195.165a1.357,1.357,0,0,0,1,.443.974.974,0,0,0,1.043-1.079v-5.636h1.607v5.684a2.249,2.249,0,0,1-2.494,2.459,2.464,2.464,0,0,1-1.727-.612Z" fill="#2f2e2c"/>
      <path d="M237.386,196.16a2.113,2.113,0,0,1-1.7.876,1.386,1.386,0,0,1-1.547-1.559V191.1h1.439v3.826c0,.611.288.84.768.84a1.271,1.271,0,0,0,1.043-.708V191.1h1.439v5.793h-1.439Z" fill="#2f2e2c"/>
      <path d="M240.376,188.893h1.439v8h-1.439Z" fill="#2f2e2c"/>
    </g>
    <g>
      <path d="M188.338,195.165a1.354,1.354,0,0,0,1,.443.975.975,0,0,0,1.044-1.079v-5.636h1.607v5.684a2.25,2.25,0,0,1-2.5,2.459,2.464,2.464,0,0,1-1.727-.612Z" fill="#2f2e2c"/>
      <path d="M196.832,196.16a2.115,2.115,0,0,1-1.7.876,1.386,1.386,0,0,1-1.548-1.559V191.1h1.44v3.826c0,.611.287.84.767.84a1.272,1.272,0,0,0,1.044-.708V191.1h1.439v5.793h-1.439Z" fill="#2f2e2c"/>
      <path d="M203.071,193.078c0-.612-.275-.851-.755-.851a1.313,1.313,0,0,0-1.056.719v3.946h-1.439V191.1h1.439v.756a2.149,2.149,0,0,1,1.7-.9,1.407,1.407,0,0,1,1.546,1.583v4.354h-1.439Z" fill="#2f2e2c"/>
    </g>
    <g>
      <path d="M267.361,195.465h-2.615l-.372,1.427h-1.667l2.375-8h1.943l2.375,8h-1.667Zm-2.291-1.4h1.967l-.984-3.743Z" fill="#2f2e2c"/>
      <path d="M273.445,196.16a2.115,2.115,0,0,1-1.7.876,1.386,1.386,0,0,1-1.547-1.559V191.1h1.439v3.826c0,.611.288.84.768.84a1.272,1.272,0,0,0,1.043-.708V191.1h1.439v5.793h-1.439Z" fill="#2f2e2c"/>
      <path d="M276.95,197.4a1.937,1.937,0,0,0,1.487.635,1.215,1.215,0,0,0,1.3-1.367v-.708a1.741,1.741,0,0,1-1.464.888c-1.3,0-2.135-1.043-2.135-2.939,0-1.858.84-2.95,2.135-2.95a1.662,1.662,0,0,1,1.464.876V191.1h1.439v5.493a2.393,2.393,0,0,1-2.663,2.65,2.981,2.981,0,0,1-2.134-.743Zm2.783-4.486a1.19,1.19,0,0,0-1-.683c-.731,0-1.115.671-1.115,1.678s.384,1.667,1.115,1.667a1.2,1.2,0,0,0,1-.671Z" fill="#2f2e2c"/>
    </g>
    <g>
      <path d="M301.039,194.769a2.617,2.617,0,0,0,1.919.851c.72,0,1.1-.4,1.1-.887,0-.612-.575-.876-1.307-1.187-1.008-.4-2.267-.876-2.267-2.459a2.394,2.394,0,0,1,2.638-2.326,3.461,3.461,0,0,1,2.423.886l-.768,1.2a2.446,2.446,0,0,0-1.691-.671c-.6,0-.959.336-.959.815,0,.54.552.791,1.272,1.091,1.031.408,2.29.936,2.29,2.52a2.406,2.406,0,0,1-2.71,2.434A3.7,3.7,0,0,1,300.248,196Z" fill="#2f2e2c"/>
      <path d="M309.223,190.955c1.595,0,2.494,1.295,2.494,3.095v.407h-3.634a1.378,1.378,0,0,0,1.4,1.415,1.747,1.747,0,0,0,1.258-.563l.66.863a2.822,2.822,0,0,1-2.075.864c-1.631,0-2.7-1.223-2.7-3.047C306.632,192.311,307.615,190.955,309.223,190.955Zm-1.14,2.519h2.243c-.024-.6-.288-1.356-1.128-1.356C308.4,192.118,308.108,192.874,308.083,193.474Z" fill="#2f2e2c"/>
      <path d="M312.931,199.1v-8h1.439v.732a1.729,1.729,0,0,1,1.464-.876c1.307,0,2.147,1.14,2.147,3.034s-.84,3.047-2.147,3.047a1.692,1.692,0,0,1-1.464-.876V199.1Zm2.435-6.872a1.213,1.213,0,0,0-1,.671v2.183a1.254,1.254,0,0,0,1,.684c.744,0,1.127-.756,1.127-1.776S316.11,192.227,315.366,192.227Z" fill="#2f2e2c"/>
    </g>
    <g>
      <path d="M341.537,188.761c2.1,0,3.346,1.762,3.346,4.137s-1.247,4.138-3.346,4.138-3.334-1.751-3.334-4.138S339.45,188.761,341.537,188.761Zm0,1.427c-1.091,0-1.678,1.163-1.678,2.71,0,1.523.587,2.71,1.678,2.71s1.7-1.187,1.7-2.71C343.24,191.351,342.641,190.188,341.537,190.188Z" fill="#2f2e2c"/>
      <path d="M348.533,190.955a2.31,2.31,0,0,1,1.847.779l-.72,1a1.207,1.207,0,0,0-.97-.5c-.828,0-1.32.755-1.32,1.762s.492,1.776,1.32,1.776a1.208,1.208,0,0,0,.97-.5l.72,1a2.307,2.307,0,0,1-1.847.78c-1.594,0-2.65-1.271-2.65-3.047A2.731,2.731,0,0,1,348.533,190.955Z" fill="#2f2e2c"/>
      <path d="M351.738,195.5v-3.143h-.754V191.1h.754v-1.583h1.44V191.1h.96v1.259h-.96v2.807c0,.371.143.6.42.6a.576.576,0,0,0,.431-.168l.3,1.1a1.666,1.666,0,0,1-1.115.336C352.206,197.036,351.738,196.521,351.738,195.5Z" fill="#2f2e2c"/>
    </g>
    <g>
      <path d="M376.809,191.8v5.1h-1.6v-8h1.632l2.626,4.892v-4.892h1.607v8h-1.535Z" fill="#2f2e2c"/>
      <path d="M382.377,193.989c0-1.619.912-3.034,2.615-3.034,1.727,0,2.626,1.415,2.626,3.034s-.9,3.047-2.626,3.047C383.289,197.036,382.377,195.62,382.377,193.989Zm3.754,0c0-.947-.348-1.762-1.139-1.762-.767,0-1.115.815-1.115,1.762s.348,1.776,1.115,1.776C385.783,195.765,386.131,194.949,386.131,193.989Z" fill="#2f2e2c"/>
      <path d="M388.2,191.1h1.536l1.163,4.066,1.175-4.066h1.536l-1.931,5.793h-1.548Z" fill="#2f2e2c"/>
    </g>
    <g>
      <path d="M412.436,188.893h2.579c2.207,0,3.477,1.654,3.477,4s-1.258,3.994-3.477,3.994h-2.579Zm2.579,6.584c1.187,0,1.835-1.056,1.835-2.579,0-1.584-.624-2.59-1.835-2.59h-.972v5.169Z" fill="#2f2e2c"/>
      <path d="M422.083,190.955c1.595,0,2.494,1.295,2.494,3.095v.407h-3.633a1.377,1.377,0,0,0,1.4,1.415,1.751,1.751,0,0,0,1.259-.563l.66.863a2.825,2.825,0,0,1-2.075.864c-1.631,0-2.7-1.223-2.7-3.047C419.492,192.311,420.476,190.955,422.083,190.955Zm-1.139,2.519h2.243c-.025-.6-.288-1.356-1.128-1.356C421.255,192.118,420.967,192.874,420.944,193.474Z" fill="#2f2e2c"/>
      <path d="M428.143,190.955a2.307,2.307,0,0,1,1.846.779l-.719,1a1.211,1.211,0,0,0-.972-.5c-.827,0-1.319.755-1.319,1.762s.492,1.776,1.319,1.776a1.212,1.212,0,0,0,.972-.5l.719,1a2.3,2.3,0,0,1-1.846.78c-1.6,0-2.652-1.271-2.652-3.047A2.731,2.731,0,0,1,428.143,190.955Z" fill="#2f2e2c"/>
    </g>
    <g>
      <path d="M450.916,195.165a1.357,1.357,0,0,0,1,.443.974.974,0,0,0,1.043-1.079v-5.636h1.608v5.684a2.25,2.25,0,0,1-2.5,2.459,2.466,2.466,0,0,1-1.727-.612Z" fill="#2f2e2c"/>
      <path d="M459.158,196.316a1.9,1.9,0,0,1-1.522.72,1.794,1.794,0,0,1-1.787-1.919,1.733,1.733,0,0,1,1.787-1.871,1.835,1.835,0,0,1,1.522.684v-.768a.95.95,0,0,0-1.067-1.008,2.028,2.028,0,0,0-1.427.624l-.54-.983a3.286,3.286,0,0,1,2.231-.84c1.259,0,2.255.564,2.255,2.051v3.886h-1.452Zm0-1.547a1.116,1.116,0,0,0-.971-.564.873.873,0,0,0-.9.936.863.863,0,0,0,.9.923,1.083,1.083,0,0,0,.971-.551Z" fill="#2f2e2c"/>
      <path d="M465.41,193.078c0-.612-.275-.851-.756-.851a1.31,1.31,0,0,0-1.054.719v3.946h-1.44V191.1h1.44v.756a2.145,2.145,0,0,1,1.7-.9,1.408,1.408,0,0,1,1.547,1.583v4.354h-1.44Z" fill="#2f2e2c"/>
    </g>
    <g>
      <path d="M14.436,57.87a1.8,1.8,0,0,1,1.367.576l-.519.784a.965.965,0,0,0-.832-.416c-.663,0-1.063.751-1.063,1.607v.088a1.318,1.318,0,0,1,1.135-.672,1.533,1.533,0,0,1,1.495,1.727,1.717,1.717,0,0,1-1.751,1.815c-1.415,0-1.967-1.272-1.967-2.75C12.3,59.029,13.061,57.87,14.436,57.87Zm-.247,2.87a.985.985,0,0,0-.8.552c.04.5.224,1.144.824,1.144a.758.758,0,0,0,.719-.831C14.932,60.973,14.572,60.74,14.189,60.74Z" fill="#2f2e2c"/>
      <path d="M18.788,58.894H16.582V57.95H20v.743l-1.655,4.59h-1.16Z" fill="#2f2e2c"/>
      <path d="M22.692,58.894H20.486V57.95h3.421v.743l-1.654,4.59h-1.16Z" fill="#2f2e2c"/>
    </g>
    <g>
      <path d="M14.684,101.355H12.509v-.9l1.872-3.3h1.375v3.254h.536v.944h-.536v1.135H14.684Zm-1.207-.944h1.207V98.244Z" fill="#2f2e2c"/>
      <path d="M17.581,101.067a1.348,1.348,0,0,0,1.112.576.8.8,0,0,0,.807-.848c0-.527-.28-.848-.76-.848a1.062,1.062,0,0,0-.879.441l-.776-.2V97.157h3.2v.936H18.149v1.375a1.315,1.315,0,0,1,.983-.432c.808,0,1.456.624,1.456,1.728a1.74,1.74,0,0,1-1.864,1.822,2.082,2.082,0,0,1-1.791-.839Z" fill="#2f2e2c"/>
      <path d="M22.5,98.54l-.807.84-.616-.648,1.567-1.575h.935v5.333H22.5Z" fill="#2f2e2c"/>
    </g>
    <rect x="47.311" y="104.447" width="13.093" height="79.836" fill="#32b44a"/>
    <rect x="34.1" y="98.713" width="13.093" height="85.571" fill="#979797"/>
    <g>
      <g>
        <path d="M211.684,210.968c1.95-1.9,2.358-2.32,2.358-2.927a.666.666,0,0,0-.712-.672,1.369,1.369,0,0,0-1.134.6l-.64-.672a2.172,2.172,0,0,1,1.791-.879,1.617,1.617,0,0,1,1.782,1.615c0,.808-.543,1.5-1.887,2.855h1.912v.943h-3.47Z" fill="#2f2e2c"/>
        <path d="M217.811,206.418c1.327,0,1.886,1.231,1.886,2.75s-.551,2.759-1.886,2.759-1.888-1.247-1.888-2.759S216.491,206.418,217.811,206.418Zm0,.951c-.616,0-.792.768-.792,1.8s.176,1.808.792,1.808.8-.785.8-1.808S218.434,207.369,217.811,207.369Z" fill="#2f2e2c"/>
        <path d="M222.338,209.936l-.991,1.895h-1.232l1.559-2.726L220.2,206.5h1.232l.9,1.783.9-1.783h1.24l-1.471,2.6,1.559,2.734h-1.232Z" fill="#2f2e2c"/>
        <path d="M226.93,209.936l-.991,1.895h-1.232l1.559-2.726L224.8,206.5h1.232l.9,1.783.9-1.783h1.239l-1.47,2.6,1.558,2.734h-1.231Z" fill="#2f2e2c"/>
      </g>
      <rect x="193.1" y="204.163" width="13.093" height="9.669" fill="#979797"/>
    </g>
    <g>
      <g>
        <path d="M265.754,210.968c1.95-1.9,2.358-2.32,2.358-2.927a.666.666,0,0,0-.711-.672,1.373,1.373,0,0,0-1.136.6l-.639-.672a2.172,2.172,0,0,1,1.791-.879,1.617,1.617,0,0,1,1.782,1.615c0,.808-.543,1.5-1.886,2.855h1.91v.943h-3.469Z" fill="#2f2e2c"/>
        <path d="M271.881,206.418c1.327,0,1.886,1.231,1.886,2.75s-.551,2.759-1.886,2.759c-1.32,0-1.888-1.247-1.888-2.759S270.561,206.418,271.881,206.418Zm0,.951c-.616,0-.792.768-.792,1.8s.176,1.808.792,1.808.8-.785.8-1.808S272.5,207.369,271.881,207.369Z" fill="#2f2e2c"/>
        <path d="M276.408,209.936l-.991,1.895h-1.232l1.559-2.726-1.471-2.607h1.232l.9,1.783.9-1.783h1.239l-1.471,2.6,1.559,2.734h-1.232Z" fill="#2f2e2c"/>
        <path d="M281,209.936l-.991,1.895h-1.232l1.559-2.726-1.471-2.607H280.1l.9,1.783.9-1.783h1.239l-1.471,2.6,1.559,2.734H282Z" fill="#2f2e2c"/>
      </g>
      <rect x="247.17" y="204.163" width="13.093" height="9.669" fill="#32b44a"/>
    </g>
    <g>
      <g>
        <path d="M319.823,210.968c1.951-1.9,2.359-2.32,2.359-2.927a.666.666,0,0,0-.712-.672,1.37,1.37,0,0,0-1.135.6l-.639-.672a2.17,2.17,0,0,1,1.791-.879,1.617,1.617,0,0,1,1.782,1.615c0,.808-.543,1.5-1.887,2.855h1.911v.943h-3.47Z" fill="#2f2e2c"/>
        <path d="M325.95,206.418c1.328,0,1.887,1.231,1.887,2.75s-.552,2.759-1.887,2.759c-1.319,0-1.887-1.247-1.887-2.759S324.631,206.418,325.95,206.418Zm0,.951c-.616,0-.792.768-.792,1.8s.176,1.808.792,1.808.8-.785.8-1.808S326.573,207.369,325.95,207.369Z" fill="#2f2e2c"/>
        <path d="M330.478,209.936l-.991,1.895h-1.232l1.559-2.726-1.471-2.607h1.231l.9,1.783.9-1.783h1.239l-1.47,2.6,1.558,2.734h-1.231Z" fill="#2f2e2c"/>
        <path d="M335.07,209.936l-.992,1.895h-1.231l1.558-2.726-1.47-2.607h1.231l.9,1.783.9-1.783h1.239l-1.471,2.6,1.559,2.734h-1.231Z" fill="#2f2e2c"/>
      </g>
      <rect x="301.239" y="204.163" width="13.093" height="9.669" fill="#0b79bf"/>
    </g>
    <rect x="84.37" y="86.977" width="13.093" height="97.306" fill="#32b44a"/>
    <rect x="71.159" y="89.921" width="13.093" height="94.363" fill="#979797"/>
    <rect x="121.053" y="112.675" width="13.093" height="71.609" fill="#32b44a"/>
    <rect x="107.841" y="108.22" width="13.093" height="76.064" fill="#979797"/>
    <rect x="158.761" y="116.465" width="13.093" height="67.819" fill="#32b44a"/>
    <rect x="145.55" y="142.105" width="13.093" height="42.178" fill="#979797"/>
    <rect x="196.246" y="126.276" width="13.093" height="58.008" fill="#32b44a"/>
    <rect x="183.034" y="141.498" width="13.093" height="42.785" fill="#979797"/>
    <rect x="235.605" y="116.465" width="13.093" height="67.819" fill="#32b44a"/>
    <rect x="222.394" y="136.276" width="13.093" height="48.008" fill="#979797"/>
    <rect x="271.927" y="95.618" width="13.093" height="88.666" fill="#32b44a"/>
    <rect x="258.716" y="116.465" width="13.093" height="67.819" fill="#979797"/>
    <rect x="308.719" y="60.762" width="13.093" height="123.522" fill="#32b44a"/>
    <rect x="295.507" y="89.921" width="13.093" height="94.363" fill="#979797"/>
    <rect x="345.744" y="111.076" width="13.093" height="73.208" fill="#32b44a"/>
    <rect x="332.533" y="128.474" width="13.093" height="55.81" fill="#979797"/>
    <rect x="382.887" y="130.648" width="13.093" height="53.636" fill="#32b44a"/>
    <rect x="369.676" y="116.465" width="13.093" height="67.819" fill="#979797"/>
    <rect x="420.088" y="105.353" width="13.093" height="78.931" fill="#32b44a"/>
    <rect x="406.877" y="102.804" width="13.093" height="81.48" fill="#979797"/>
    <rect x="459.256" y="104.447" width="13.093" height="79.836" fill="#0b79bf"/>
    <rect x="446.044" y="87.989" width="13.093" height="96.295" fill="#32b44a"/>
    <line x1="26.546" y1="183.683" x2="517.078" y2="183.683" fill="none" stroke="#231f20" stroke-miterlimit="10"/>
    <line x1="26.546" y1="60.762" x2="517.078" y2="60.762" fill="none" stroke="#231f20" stroke-miterlimit="10"/>
    <line x1="26.546" y1="100.528" x2="517.078" y2="100.528" fill="none" stroke="#231f20" stroke-miterlimit="10"/>
    <line x1="26.546" y1="142.105" x2="517.078" y2="142.105" fill="none" stroke="#231f20" stroke-miterlimit="10"/>
    <g>
      <path d="M11.533,143.834c1.951-1.9,2.359-2.319,2.359-2.927a.667.667,0,0,0-.712-.672,1.372,1.372,0,0,0-1.135.6l-.64-.671a2.171,2.171,0,0,1,1.791-.88,1.618,1.618,0,0,1,1.783,1.615c0,.808-.543,1.5-1.887,2.855H15v.943h-3.47Z" fill="#2f2e2c"/>
      <path d="M15.869,143.834c1.951-1.9,2.359-2.319,2.359-2.927a.667.667,0,0,0-.712-.672,1.372,1.372,0,0,0-1.135.6l-.64-.671a2.171,2.171,0,0,1,1.791-.88,1.618,1.618,0,0,1,1.783,1.615c0,.808-.543,1.5-1.887,2.855h1.911v.943h-3.47Z" fill="#2f2e2c"/>
      <path d="M22.244,139.284a1.8,1.8,0,0,1,1.367.576l-.519.784a.965.965,0,0,0-.832-.416c-.664,0-1.064.752-1.064,1.607v.088a1.318,1.318,0,0,1,1.136-.672,1.533,1.533,0,0,1,1.5,1.728,1.718,1.718,0,0,1-1.751,1.814c-1.415,0-1.967-1.271-1.967-2.75C20.109,140.443,20.869,139.284,22.244,139.284ZM22,142.154a.988.988,0,0,0-.8.552c.041.5.224,1.144.824,1.144a.757.757,0,0,0,.719-.831C22.739,142.387,22.38,142.154,22,142.154Z" fill="#2f2e2c"/>
    </g>
    <path d="M21.485,180.862c1.327,0,1.886,1.232,1.886,2.751s-.551,2.758-1.886,2.758c-1.32,0-1.888-1.247-1.888-2.758S20.165,180.862,21.485,180.862Zm0,.952c-.616,0-.792.767-.792,1.8s.176,1.807.792,1.807.8-.783.8-1.807S22.108,181.814,21.485,181.814Z" fill="#2f2e2c"/>
    <g>
      <path d="M521.692,184.765l-.409.567v.943h-.959v-5.333h.959v3.222l1.176-1.751h1.119l-1.223,1.735,1.263,2.127h-1.127Z" fill="#2f2e2c"/>
      <path d="M526.723,182.726l-.68,3.549h-1.119l-1.216-5.333h1.152l.687,3.71.76-3.71h.84l.767,3.71.68-3.71h1.151l-1.216,5.333H527.41Z" fill="#2f2e2c"/>
      <path d="M532.571,183.717c0-.4-.192-.552-.512-.552a.862.862,0,0,0-.7.48v2.63H530.4v-5.333h.967v1.975a1.407,1.407,0,0,1,1.127-.6.926.926,0,0,1,1.04,1.04v2.918h-.959Z" fill="#2f2e2c"/>
    </g>
  </g>
</svg>
