<svg xmlns="http://www.w3.org/2000/svg" width="544.157" height="235.933" viewBox="0 0 544.157 235.933">
  <g>
    <path d="M155.789,156.087H0v31.2a14.37,14.37,0,0,0,14.37,14.37H155.789Z" fill="#f2f0ec"/>
    <line x1="543.83" y1="153.185" x2="543.83" fill="#f2f0ec"/>
    <path d="M158.6,156.087V201.66H529.46a14.37,14.37,0,0,0,14.37-14.37V156.083" fill="#f2f0ec"/>
    <polyline points="543.277 0 0 0 0 153.18 544.157 153.18" fill="#f2f0ec"/>
    <g>
      <path d="M16.247,8.6H14.286V6.667h6.132V8.6H18.469v7.216H16.247Z" fill="#0b79bf"/>
      <path d="M20.347,12.5c0-1.853,1.084-3.471,3.142-3.471A3.168,3.168,0,0,1,26.644,12.5a3.179,3.179,0,0,1-3.155,3.484C21.431,15.982,20.347,14.349,20.347,12.5Zm4.253,0c0-.961-.343-1.715-1.111-1.715s-1.1.754-1.1,1.715.343,1.728,1.1,1.728S24.6,13.471,24.6,12.5Z" fill="#0b79bf"/>
      <path d="M28.233,14.1V10.919H27.4V9.191h.837V7.38h1.988V9.191h1.071v1.728H30.221v2.689c0,.385.151.618.453.618a.687.687,0,0,0,.453-.151l.357,1.536a2.221,2.221,0,0,1-1.372.371A1.654,1.654,0,0,1,28.233,14.1Z" fill="#0b79bf"/>
      <path d="M35.967,15.172a2.222,2.222,0,0,1-1.742.81,2.058,2.058,0,0,1-2.071-2.195,1.964,1.964,0,0,1,2.071-2.113,2.188,2.188,0,0,1,1.742.754v-.767a1.022,1.022,0,0,0-1.166-1.03,2.525,2.525,0,0,0-1.632.687l-.7-1.331a4.125,4.125,0,0,1,2.717-.96c1.508,0,2.757.644,2.757,2.428v4.362H35.967Zm0-1.687a1.085,1.085,0,0,0-.96-.522.858.858,0,1,0,0,1.715,1.084,1.084,0,0,0,.96-.521Z" fill="#0b79bf"/>
      <path d="M39.545,6.667h1.989v9.15H39.545Z" fill="#0b79bf"/>
      <path d="M48.542,10.549v5.268H46.333V6.667H48.6l2.634,5.007V6.667h2.2v9.15h-2.1Z" fill="#0b79bf"/>
      <path d="M58.566,15.172a2.224,2.224,0,0,1-1.742.81,2.057,2.057,0,0,1-2.071-2.195,1.964,1.964,0,0,1,2.071-2.113,2.189,2.189,0,0,1,1.742.754v-.767a1.022,1.022,0,0,0-1.166-1.03,2.52,2.52,0,0,0-1.632.687l-.7-1.331a4.122,4.122,0,0,1,2.716-.96c1.509,0,2.758.644,2.758,2.428v4.362H58.566Zm0-1.687a1.086,1.086,0,0,0-.96-.522.858.858,0,1,0,0,1.715,1.085,1.085,0,0,0,.96-.521Z" fill="#0b79bf"/>
      <path d="M62.474,14.1V10.919h-.837V9.191h.837V7.38h1.989V9.191h1.07v1.728h-1.07v2.689c0,.385.15.618.452.618a.685.685,0,0,0,.453-.151l.357,1.536a2.217,2.217,0,0,1-1.372.371A1.654,1.654,0,0,1,62.474,14.1Z" fill="#0b79bf"/>
      <path d="M70.538,15.021a2.472,2.472,0,0,1-1.962.961,1.628,1.628,0,0,1-1.824-1.8V9.191h1.989v4.2c0,.6.274.837.768.837a1.23,1.23,0,0,0,1.029-.686V9.191h1.975v6.626H70.538Z" fill="#0b79bf"/>
      <path d="M74.129,9.191h1.989v.851a2.311,2.311,0,0,1,1.77-1.015v1.92a1.7,1.7,0,0,0-1.77.6v4.267H74.129Z" fill="#0b79bf"/>
      <path d="M82.468,15.172a2.225,2.225,0,0,1-1.742.81,2.058,2.058,0,0,1-2.072-2.195,1.965,1.965,0,0,1,2.072-2.113,2.189,2.189,0,0,1,1.742.754v-.767a1.022,1.022,0,0,0-1.166-1.03,2.52,2.52,0,0,0-1.632.687l-.7-1.331a4.122,4.122,0,0,1,2.716-.96c1.509,0,2.757.644,2.757,2.428v4.362H82.468Zm0-1.687a1.086,1.086,0,0,0-.96-.522.858.858,0,1,0,0,1.715,1.085,1.085,0,0,0,.96-.521Z" fill="#0b79bf"/>
      <path d="M86.046,6.667h1.989v9.15H86.046Z" fill="#0b79bf"/>
      <path d="M96.483,6.516a3.325,3.325,0,0,1,3.2,2.236l-1.811.824a1.521,1.521,0,0,0-1.385-1.1c-1.029,0-1.77.946-1.77,2.771s.741,2.771,1.77,2.771a1.744,1.744,0,0,0,1.234-.439V12.552H96.208V10.659h3.58v3.8a4.214,4.214,0,0,1-3.3,1.524c-2.429,0-4.034-1.88-4.034-4.733S94.054,6.516,96.483,6.516Z" fill="#0b79bf"/>
      <path d="M104.71,15.172a2.224,2.224,0,0,1-1.742.81,2.057,2.057,0,0,1-2.071-2.195,1.964,1.964,0,0,1,2.071-2.113,2.189,2.189,0,0,1,1.742.754v-.767a1.022,1.022,0,0,0-1.166-1.03,2.52,2.52,0,0,0-1.632.687l-.7-1.331a4.122,4.122,0,0,1,2.716-.96c1.509,0,2.758.644,2.758,2.428v4.362H104.71Zm0-1.687a1.086,1.086,0,0,0-.96-.522.858.858,0,1,0,0,1.715,1.085,1.085,0,0,0,.96-.521Z" fill="#0b79bf"/>
      <path d="M108.59,13.677a3.174,3.174,0,0,0,1.879.781c.549,0,.823-.205.823-.534s-.412-.48-.988-.632c-.946-.26-2.277-.589-2.277-2.18,0-1.112.892-2.085,2.579-2.085a3.968,3.968,0,0,1,2.442.837l-.768,1.33a2.494,2.494,0,0,0-1.66-.658c-.425,0-.727.178-.727.466s.357.439.933.59c.974.26,2.359.617,2.359,2.249,0,1.249-1.042,2.141-2.675,2.141a3.934,3.934,0,0,1-2.716-.947Z" fill="#0b79bf"/>
      <path d="M117.586,6.667h2.235V12.58c0,.919.439,1.454,1.317,1.454s1.3-.535,1.3-1.454V6.667h2.235v5.9a3.548,3.548,0,0,1-7.091,0Z" fill="#0b79bf"/>
      <path d="M126.65,13.677a3.174,3.174,0,0,0,1.879.781c.549,0,.823-.205.823-.534s-.411-.48-.988-.632c-.946-.26-2.276-.589-2.276-2.18,0-1.112.891-2.085,2.578-2.085a3.968,3.968,0,0,1,2.442.837l-.768,1.33a2.494,2.494,0,0,0-1.66-.658c-.425,0-.727.178-.727.466s.357.439.933.59c.973.26,2.359.617,2.359,2.249,0,1.249-1.042,2.141-2.675,2.141a3.934,3.934,0,0,1-2.716-.947Z" fill="#0b79bf"/>
      <path d="M135.208,9.027c1.865,0,2.963,1.44,2.963,3.566v.549H134.1a1.355,1.355,0,0,0,1.454,1.275,1.97,1.97,0,0,0,1.358-.576l.878,1.194a3.52,3.52,0,0,1-2.469.947,3.161,3.161,0,0,1-3.21-3.484A3.169,3.169,0,0,1,135.208,9.027Zm-1.125,2.784h2.195c-.028-.535-.274-1.221-1.1-1.221C134.385,10.59,134.124,11.276,134.083,11.811Z" fill="#0b79bf"/>
      <path d="M142.389,13.091a9.534,9.534,0,0,1,1.368-4.957l.64.37a11.072,11.072,0,0,0-.954,4.587,10.982,10.982,0,0,0,.954,4.576l-.64.381A9.529,9.529,0,0,1,142.389,13.091Z" fill="#0b79bf"/>
      <path d="M150.869,10.075l-1.9,5.742h-.426l-1.884-5.742v5.742H145.6V8.336h1.47l1.693,5.16,1.716-5.16h1.446v7.481h-1.054Z" fill="#0b79bf"/>
      <path d="M155.65,10.265a1.91,1.91,0,0,1,1.6.73l-.5.65a1.191,1.191,0,0,0-1.009-.527c-.908,0-1.4.9-1.4,1.985s.494,2,1.4,2a1.219,1.219,0,0,0,1.009-.527l.5.65a1.879,1.879,0,0,1-1.6.73c-1.413,0-2.31-1.223-2.31-2.849S154.237,10.265,155.65,10.265Z" fill="#0b79bf"/>
      <path d="M158.669,11.241h-.706V10.4h.706V9.817a1.4,1.4,0,0,1,1.391-1.593,1.638,1.638,0,0,1,.762.168l-.213.74a.74.74,0,0,0-.347-.09c-.393,0-.628.282-.628.775V10.4h.908v.841h-.908v4.576h-.965Z" fill="#0b79bf"/>
      <path d="M163.931,12.688h2.333v.83h-2.333Z" fill="#0b79bf"/>
      <path d="M170.36,14.673V11.241h-.718V10.4h.718V8.919h.953V10.4h.908v.841h-.908v3.241c0,.382.134.617.426.617a.623.623,0,0,0,.46-.19l.247.717a1.24,1.24,0,0,1-.92.326C170.73,15.952,170.36,15.514,170.36,14.673Z" fill="#0b79bf"/>
      <path d="M176.44,12.026c0-.673-.314-.908-.819-.908a1.469,1.469,0,0,0-1.189.807v3.892h-.964V8.336h.964v2.816a2.037,2.037,0,0,1,1.582-.887c.942,0,1.39.483,1.39,1.458v4.094h-.964Z" fill="#0b79bf"/>
      <path d="M178.764,13.1c0-1.525.785-2.838,2.276-2.838s2.277,1.313,2.277,2.838-.785,2.849-2.277,2.849S178.764,14.628,178.764,13.1Zm3.555,0c0-1.032-.393-1.985-1.279-1.985s-1.267.953-1.267,1.985.393,2,1.267,2S182.319,14.146,182.319,13.1Z" fill="#0b79bf"/>
      <path d="M187.649,15.088a1.991,1.991,0,0,1-1.582.864c-.942,0-1.391-.483-1.391-1.458V10.4h.965v3.791c0,.673.314.908.819.908a1.462,1.462,0,0,0,1.189-.785V10.4h.953v5.417h-.953Z" fill="#0b79bf"/>
      <path d="M190.264,14.5a1.988,1.988,0,0,0,1.447.673c.594,0,.964-.291.964-.751,0-.515-.5-.74-1.077-.965-.751-.28-1.614-.605-1.614-1.693a1.584,1.584,0,0,1,1.794-1.5,2.343,2.343,0,0,1,1.716.7l-.426.663a1.616,1.616,0,0,0-1.279-.583c-.538,0-.9.28-.9.672,0,.46.482.662,1.031.886.763.28,1.672.628,1.672,1.773a1.654,1.654,0,0,1-1.873,1.581,2.458,2.458,0,0,1-1.907-.763Z" fill="#0b79bf"/>
      <path d="M197.69,15.256a1.746,1.746,0,0,1-1.424.7,1.666,1.666,0,0,1-1.649-1.806,1.636,1.636,0,0,1,1.649-1.772,1.7,1.7,0,0,1,1.424.672v-.863a.987.987,0,0,0-1.077-1.1,1.844,1.844,0,0,0-1.357.639l-.392-.673a2.6,2.6,0,0,1,1.907-.785,1.659,1.659,0,0,1,1.884,1.806v3.746h-.965Zm0-1.548a1.236,1.236,0,0,0-1.088-.65,1.012,1.012,0,0,0-1.009,1.11,1.012,1.012,0,0,0,1.009,1.111,1.237,1.237,0,0,0,1.088-.651Z" fill="#0b79bf"/>
      <path d="M203.255,12.048c0-.683-.314-.93-.819-.93a1.453,1.453,0,0,0-1.189.807v3.892h-.964V10.4h.964v.752a2.016,2.016,0,0,1,1.571-.887c.941,0,1.39.517,1.39,1.47v4.082h-.953Z" fill="#0b79bf"/>
      <path d="M208.954,15.077a1.7,1.7,0,0,1-1.413.875c-1.211,0-1.962-1.111-1.962-2.838,0-1.694.74-2.849,1.962-2.849a1.648,1.648,0,0,1,1.413.887V8.336h.954v7.481h-.954Zm0-3.141a1.384,1.384,0,0,0-1.143-.818c-.83,0-1.234.885-1.234,2s.4,1.985,1.234,1.985a1.37,1.37,0,0,0,1.143-.807Z" fill="#0b79bf"/>
      <path d="M216.225,10.265a1.91,1.91,0,0,1,1.6.73l-.5.65a1.191,1.191,0,0,0-1.009-.527c-.908,0-1.4.9-1.4,1.985s.494,2,1.4,2a1.219,1.219,0,0,0,1.009-.527l.5.65a1.879,1.879,0,0,1-1.6.73c-1.413,0-2.31-1.223-2.31-2.849S214.812,10.265,216.225,10.265Z" fill="#0b79bf"/>
      <path d="M222,15.088a1.987,1.987,0,0,1-1.581.864c-.942,0-1.391-.483-1.391-1.458V10.4H220v3.791c0,.673.315.908.819.908A1.461,1.461,0,0,0,222,14.314V10.4h.953v5.417H222Z" fill="#0b79bf"/>
      <path d="M224.6,8.336h.964v2.816a1.62,1.62,0,0,1,1.4-.887c1.223,0,1.963,1.155,1.963,2.849,0,1.727-.74,2.838-1.963,2.838a1.674,1.674,0,0,1-1.4-.875v.74H224.6Zm2.1,6.763c.841,0,1.234-.875,1.234-1.985s-.393-2-1.234-2a1.376,1.376,0,0,0-1.133.83v2.344A1.371,1.371,0,0,0,226.693,15.1Z" fill="#0b79bf"/>
      <path d="M230.15,8.875a.634.634,0,0,1,.628-.628.627.627,0,0,1,.628.628.618.618,0,0,1-.628.617A.625.625,0,0,1,230.15,8.875ZM230.3,10.4h.964v5.417H230.3Z" fill="#0b79bf"/>
      <path d="M234.928,10.265a1.909,1.909,0,0,1,1.6.73l-.505.65a1.191,1.191,0,0,0-1.009-.527c-.908,0-1.4.9-1.4,1.985s.494,2,1.4,2a1.219,1.219,0,0,0,1.009-.527l.505.65a1.878,1.878,0,0,1-1.6.73c-1.413,0-2.31-1.223-2.31-2.849S233.515,10.265,234.928,10.265Z" fill="#0b79bf"/>
      <path d="M240.584,11.241h-.707V10.4h.707V9.817a1.4,1.4,0,0,1,1.391-1.593,1.641,1.641,0,0,1,.762.168l-.213.74a.741.741,0,0,0-.348-.09c-.392,0-.628.282-.628.775V10.4h.909v.841h-.909v4.576h-.964Z" fill="#0b79bf"/>
      <path d="M245.565,10.265c1.446,0,2.2,1.268,2.2,2.871v.281h-3.477c.045.987.561,1.738,1.492,1.738a1.652,1.652,0,0,0,1.245-.628l.493.583a2.394,2.394,0,0,1-1.828.842c-1.469,0-2.389-1.178-2.389-2.849C243.3,11.533,244.151,10.265,245.565,10.265Zm-1.29,2.468h2.546c-.011-.752-.348-1.671-1.267-1.671C244.656,11.062,244.309,12,244.275,12.733Z" fill="#0b79bf"/>
      <path d="M251.085,10.265c1.446,0,2.2,1.268,2.2,2.871v.281h-3.477c.045.987.561,1.738,1.492,1.738a1.652,1.652,0,0,0,1.245-.628l.493.583a2.394,2.394,0,0,1-1.828.842c-1.469,0-2.389-1.178-2.389-2.849C248.819,11.533,249.672,10.265,251.085,10.265Zm-1.29,2.468h2.546c-.011-.752-.348-1.671-1.267-1.671C250.176,11.062,249.829,12,249.8,12.733Z" fill="#0b79bf"/>
      <path d="M254.8,14.673V11.241h-.717V10.4h.717V8.919h.954V10.4h.908v.841h-.908v3.241c0,.382.134.617.426.617a.62.62,0,0,0,.459-.19l.247.717a1.24,1.24,0,0,1-.92.326C255.169,15.952,254.8,15.514,254.8,14.673Z" fill="#0b79bf"/>
      <path d="M257.414,8.5l.628-.37a9.528,9.528,0,0,1,0,9.914l-.628-.381a10.812,10.812,0,0,0,.965-4.576A10.9,10.9,0,0,0,257.414,8.5Z" fill="#0b79bf"/>
    </g>
    <g>
      <g>
        <path d="M53.979,206.807h2.742v.559h-2.1v1.767h2.047v.56H54.618v2.446h-.639Z" fill="#231f20"/>
        <path d="M57.619,210.205c0-1.087.544-2.023,1.568-2.023,1.039,0,1.575.936,1.575,2.023s-.536,2.03-1.575,2.03C58.163,212.235,57.619,211.292,57.619,210.205Zm2.542,0c0-.776-.3-1.511-.974-1.511-.664,0-.968.735-.968,1.511s.3,1.518.968,1.518C59.866,211.723,60.161,210.989,60.161,210.205Z" fill="#231f20"/>
        <path d="M61.882,206.807h.568v5.332h-.568Z" fill="#231f20"/>
        <path d="M65.969,211.588a1.208,1.208,0,0,1-1.016.647c-.863,0-1.383-.807-1.383-2.022,0-1.2.512-2.031,1.383-2.031a1.166,1.166,0,0,1,1.016.655v-2.03h.576v5.332h-.576Zm0-2.263a1.032,1.032,0,0,0-.871-.631c-.632,0-.928.68-.928,1.519s.3,1.51.928,1.51a1.024,1.024,0,0,0,.871-.623Z" fill="#231f20"/>
        <path d="M67.787,212.915a1.221,1.221,0,0,0,.512-.743c-.017,0-.072.008-.105.008a.375.375,0,0,1-.376-.392.416.416,0,0,1,.416-.424c.256,0,.48.217.48.6a1.5,1.5,0,0,1-.64,1.184Z" fill="#231f20"/>
        <path d="M74.121,211.588a1.2,1.2,0,0,1-1.015.647c-.864,0-1.383-.807-1.383-2.022,0-1.2.511-2.031,1.383-2.031a1.164,1.164,0,0,1,1.015.655v-2.03H74.7v5.332h-.576Zm0-2.263a1.031,1.031,0,0,0-.871-.631c-.632,0-.928.68-.928,1.519s.3,1.51.928,1.51a1.023,1.023,0,0,0,.871-.623Z" fill="#231f20"/>
        <path d="M77.386,208.182c1.015,0,1.526.911,1.526,2.039v.176h-2.5c.024.775.424,1.359,1.112,1.359a1.189,1.189,0,0,0,.919-.472l.3.336a1.606,1.606,0,0,1-1.271.615c-1.031,0-1.656-.847-1.656-2.03C75.818,209.085,76.41,208.182,77.386,208.182Zm-.976,1.791h1.935c-.008-.592-.264-1.311-.968-1.311C76.7,208.662,76.426,209.405,76.41,209.973Z" fill="#231f20"/>
        <path d="M80.122,211.364v-2.582H79.61v-.5h.512v-1.056H80.7v1.056h.656v.5H80.7v2.478c0,.3.088.463.312.463a.43.43,0,0,0,.336-.151l.176.432a.836.836,0,0,1-.624.231C80.37,212.235,80.122,211.94,80.122,211.364Z" fill="#231f20"/>
        <path d="M84.354,211.723a1.206,1.206,0,0,1-1.016.512,1.185,1.185,0,0,1-1.167-1.287,1.168,1.168,0,0,1,1.167-1.272,1.208,1.208,0,0,1,1.016.5V209.5a.733.733,0,0,0-.792-.822,1.226,1.226,0,0,0-.967.471l-.256-.407a1.765,1.765,0,0,1,1.311-.56,1.136,1.136,0,0,1,1.279,1.255v2.7h-.575Zm0-1.127a.928.928,0,0,0-.832-.5.866.866,0,0,0,0,1.72.936.936,0,0,0,.832-.487Z" fill="#231f20"/>
        <path d="M87.641,208.182a1.315,1.315,0,0,1,1.1.512l-.311.391a.869.869,0,0,0-.744-.391c-.688,0-1.047.687-1.047,1.511s.359,1.518,1.047,1.518a.89.89,0,0,0,.744-.39l.311.39a1.294,1.294,0,0,1-1.1.512c-.991,0-1.6-.887-1.6-2.03S86.65,208.182,87.641,208.182Z" fill="#231f20"/>
        <path d="M91.833,209.381c0-.511-.24-.687-.624-.687a1.126,1.126,0,0,0-.9.615v2.83h-.569v-5.332h.569v2.023a1.446,1.446,0,0,1,1.127-.648c.656,0,.968.328.968,1.031v2.926h-.568Z" fill="#231f20"/>
        <path d="M97.673,211.723a1.206,1.206,0,0,1-1.016.512,1.185,1.185,0,0,1-1.167-1.287,1.169,1.169,0,0,1,1.167-1.272,1.207,1.207,0,0,1,1.016.5V209.5a.733.733,0,0,0-.792-.822,1.227,1.227,0,0,0-.967.471l-.256-.407a1.768,1.768,0,0,1,1.311-.56,1.136,1.136,0,0,1,1.279,1.255v2.7h-.575Zm0-1.127a.928.928,0,0,0-.832-.5.866.866,0,0,0,0,1.72.936.936,0,0,0,.832-.487Z" fill="#231f20"/>
        <path d="M101.641,209.389c0-.512-.232-.7-.615-.7a1.127,1.127,0,0,0-.9.615v2.83h-.568v-3.861h.568v.552a1.432,1.432,0,0,1,1.119-.648c.656,0,.976.352.976,1.047v2.91h-.576Z" fill="#231f20"/>
        <path d="M105.736,211.588a1.2,1.2,0,0,1-1.015.647c-.863,0-1.383-.807-1.383-2.022,0-1.2.512-2.031,1.383-2.031a1.164,1.164,0,0,1,1.015.655v-2.03h.577v5.332h-.577Zm0-2.263a1.03,1.03,0,0,0-.871-.631c-.631,0-.927.68-.927,1.519s.3,1.51.927,1.51a1.021,1.021,0,0,0,.871-.623Z" fill="#231f20"/>
        <path d="M113.5,209.341c0-.416-.168-.647-.536-.647a1.057,1.057,0,0,0-.839.615v2.83h-.576v-2.8c0-.416-.168-.647-.544-.647a1.082,1.082,0,0,0-.839.615v2.83H109.6v-3.861h.568v.552a1.334,1.334,0,0,1,1.055-.648.812.812,0,0,1,.872.688,1.326,1.326,0,0,1,1.087-.688c.568,0,.895.312.895,1.008v2.949H113.5Z" fill="#231f20"/>
        <path d="M117.377,211.723a1.206,1.206,0,0,1-1.016.512,1.185,1.185,0,0,1-1.167-1.287,1.169,1.169,0,0,1,1.167-1.272,1.207,1.207,0,0,1,1.016.5V209.5a.733.733,0,0,0-.792-.822,1.227,1.227,0,0,0-.967.471l-.256-.407a1.768,1.768,0,0,1,1.311-.56,1.136,1.136,0,0,1,1.279,1.255v2.7h-.575Zm0-1.127a.928.928,0,0,0-.832-.5.866.866,0,0,0,0,1.72.936.936,0,0,0,.832-.487Z" fill="#231f20"/>
        <path d="M119.146,207.239a.4.4,0,0,1,.391-.393.392.392,0,1,1-.391.393Zm.111,1.039h.568v3.861h-.568Z" fill="#231f20"/>
        <path d="M121.137,206.807h.568v5.332h-.568Z" fill="#231f20"/>
        <path d="M125.106,211.364v-2.582h-.512v-.5h.512v-1.056h.575v1.056h.656v.5h-.656v2.478c0,.3.089.463.312.463a.428.428,0,0,0,.336-.151l.176.432a.834.834,0,0,1-.624.231C125.354,212.235,125.106,211.94,125.106,211.364Z" fill="#231f20"/>
        <path d="M129.448,209.381c0-.511-.24-.687-.624-.687a1.126,1.126,0,0,0-.9.615v2.83h-.568v-5.332h.568v2.023a1.447,1.447,0,0,1,1.127-.648c.656,0,.968.328.968,1.031v2.926h-.568Z" fill="#231f20"/>
        <path d="M131.218,207.239a.4.4,0,0,1,.391-.393.392.392,0,1,1-.391.393Zm.111,1.039h.569v3.861h-.569Z" fill="#231f20"/>
        <path d="M133.186,211.284a1.329,1.329,0,0,0,1.007.488c.448,0,.744-.24.744-.607,0-.416-.384-.584-.808-.76-.527-.208-1.119-.44-1.119-1.184a1.094,1.094,0,0,1,1.231-1.039,1.54,1.54,0,0,1,1.175.5l-.271.391a1.114,1.114,0,0,0-.9-.424c-.424,0-.687.232-.687.545,0,.367.359.527.767.695.535.215,1.159.455,1.159,1.247a1.14,1.14,0,0,1-1.287,1.1,1.641,1.641,0,0,1-1.3-.543Z" fill="#231f20"/>
        <path d="M138.536,213.611v-5.333h.569v.552a1.2,1.2,0,0,1,1.015-.648c.871,0,1.383.807,1.383,2.023s-.512,2.03-1.383,2.03a1.171,1.171,0,0,1-1.015-.654v2.03Zm1.44-4.917a1.042,1.042,0,0,0-.871.623v1.767a1.06,1.06,0,0,0,.871.639c.632,0,.927-.679.927-1.518S140.608,208.694,139.976,208.694Z" fill="#231f20"/>
        <path d="M142.433,210.205c0-1.087.544-2.023,1.567-2.023,1.039,0,1.575.936,1.575,2.023s-.536,2.03-1.575,2.03C142.977,212.235,142.433,211.292,142.433,210.205Zm2.543,0c0-.776-.3-1.511-.976-1.511-.664,0-.968.735-.968,1.511s.3,1.518.968,1.518C144.68,211.723,144.976,210.989,144.976,210.205Z" fill="#231f20"/>
        <path d="M146.7,208.278h.569v.615a1.3,1.3,0,0,1,1.094-.695v.592a.775.775,0,0,0-.191-.024,1.156,1.156,0,0,0-.9.631v2.742H146.7Z" fill="#231f20"/>
        <path d="M149.393,211.364v-2.582h-.512v-.5h.512v-1.056h.575v1.056h.656v.5h-.656v2.478c0,.3.089.463.312.463a.428.428,0,0,0,.336-.151l.176.432a.834.834,0,0,1-.624.231C149.641,212.235,149.393,211.94,149.393,211.364Z" fill="#231f20"/>
        <path d="M151.528,207.239a.4.4,0,0,1,.392-.393.392.392,0,1,1,0,.783A.4.4,0,0,1,151.528,207.239Zm.112,1.039h.568v3.861h-.568Z" fill="#231f20"/>
        <path d="M153.328,210.205c0-1.087.544-2.023,1.568-2.023,1.039,0,1.575.936,1.575,2.023s-.536,2.03-1.575,2.03C153.872,212.235,153.328,211.292,153.328,210.205Zm2.542,0c0-.776-.3-1.511-.974-1.511-.664,0-.968.735-.968,1.511s.3,1.518.968,1.518C155.575,211.723,155.87,210.989,155.87,210.205Z" fill="#231f20"/>
        <path d="M159.679,209.389c0-.512-.232-.7-.615-.7a1.127,1.127,0,0,0-.9.615v2.83h-.568v-3.861h.568v.552a1.434,1.434,0,0,1,1.119-.648c.656,0,.976.352.976,1.047v2.91h-.576Z" fill="#231f20"/>
        <path d="M165.568,209.038l-.833,3.1h-.583l-1.032-3.861h.6l.752,3.086.815-3.086h.544l.823,3.086.76-3.086h.6l-1.031,3.861h-.592Z" fill="#231f20"/>
        <path d="M168.792,207.239a.4.4,0,0,1,.392-.393.392.392,0,0,1,0,.783A.4.4,0,0,1,168.792,207.239Zm.111,1.039h.569v3.861H168.9Z" fill="#231f20"/>
        <path d="M170.9,211.364v-2.582h-.512v-.5h.512v-1.056h.576v1.056h.655v.5h-.655v2.478c0,.3.088.463.311.463a.428.428,0,0,0,.336-.151l.176.432a.834.834,0,0,1-.624.231C171.144,212.235,170.9,211.94,170.9,211.364Z" fill="#231f20"/>
        <path d="M175.239,209.381c0-.511-.24-.687-.624-.687a1.126,1.126,0,0,0-.9.615v2.83h-.568v-5.332h.568v2.023a1.447,1.447,0,0,1,1.127-.648c.656,0,.968.328.968,1.031v2.926h-.568Z" fill="#231f20"/>
        <path d="M179.24,213.2c.224,0,.352-.089.455-.385l.208-.592-1.287-3.941h.624l.959,3.166.968-3.166h.615l-1.543,4.678a.931.931,0,0,1-.959.752,1.41,1.41,0,0,1-.383-.057l.087-.512A.62.62,0,0,0,179.24,213.2Z" fill="#231f20"/>
        <path d="M182.424,210.205c0-1.087.544-2.023,1.567-2.023,1.039,0,1.576.936,1.576,2.023s-.537,2.03-1.576,2.03C182.968,212.235,182.424,211.292,182.424,210.205Zm2.542,0c0-.776-.3-1.511-.975-1.511-.664,0-.967.735-.967,1.511s.3,1.518.967,1.518C184.671,211.723,184.966,210.989,184.966,210.205Z" fill="#231f20"/>
        <path d="M188.775,211.6a1.406,1.406,0,0,1-1.12.631c-.655,0-.967-.327-.967-1.031v-2.926h.568v2.758c0,.511.239.687.615.687a1.088,1.088,0,0,0,.9-.6v-2.846h.576v3.861h-.576Z" fill="#231f20"/>
        <path d="M190.663,208.278h.569v.615a1.3,1.3,0,0,1,1.094-.695v.592a.781.781,0,0,0-.191-.024,1.155,1.155,0,0,0-.9.631v2.742h-.569Z" fill="#231f20"/>
        <path d="M196.63,208.182a1.318,1.318,0,0,1,1.1.512l-.312.391a.867.867,0,0,0-.743-.391c-.689,0-1.048.687-1.048,1.511s.359,1.518,1.048,1.518a.888.888,0,0,0,.743-.39l.312.39a1.3,1.3,0,0,1-1.1.512c-.991,0-1.6-.887-1.6-2.03S195.639,208.182,196.63,208.182Z" fill="#231f20"/>
        <path d="M200.823,209.381c0-.511-.24-.687-.624-.687a1.126,1.126,0,0,0-.9.615v2.83h-.568v-5.332h.568v2.023a1.447,1.447,0,0,1,1.127-.648c.656,0,.968.328.968,1.031v2.926h-.568Z" fill="#231f20"/>
        <path d="M204.079,208.182c1.015,0,1.527.911,1.527,2.039v.176h-2.5c.023.775.423,1.359,1.111,1.359a1.188,1.188,0,0,0,.919-.472l.305.336a1.608,1.608,0,0,1-1.272.615c-1.031,0-1.655-.847-1.655-2.03C202.512,209.085,203.1,208.182,204.079,208.182Zm-.975,1.791h1.934c-.008-.592-.263-1.311-.968-1.311C203.392,208.662,203.119,209.405,203.1,209.973Z" fill="#231f20"/>
        <path d="M208.11,208.182a1.315,1.315,0,0,1,1.1.512l-.312.391a.867.867,0,0,0-.743-.391c-.688,0-1.048.687-1.048,1.511s.36,1.518,1.048,1.518a.888.888,0,0,0,.743-.39l.312.39a1.3,1.3,0,0,1-1.1.512c-.991,0-1.6-.887-1.6-2.03S207.119,208.182,208.11,208.182Z" fill="#231f20"/>
        <path d="M211.318,210.4l-.542.7v1.047h-.569v-5.332h.569v3.566l1.606-2.095h.68l-1.351,1.734,1.351,2.127h-.68Z" fill="#231f20"/>
        <path d="M219.845,209.341c0-.416-.168-.647-.536-.647a1.057,1.057,0,0,0-.839.615v2.83h-.576v-2.8c0-.416-.168-.647-.544-.647a1.082,1.082,0,0,0-.839.615v2.83h-.568v-3.861h.568v.552a1.334,1.334,0,0,1,1.055-.648.813.813,0,0,1,.872.688,1.328,1.328,0,0,1,1.087-.688c.568,0,.895.312.895,1.008v2.949h-.575Z" fill="#231f20"/>
        <path d="M223.718,211.723a1.206,1.206,0,0,1-1.016.512,1.185,1.185,0,0,1-1.167-1.287,1.168,1.168,0,0,1,1.167-1.272,1.207,1.207,0,0,1,1.016.5V209.5a.733.733,0,0,0-.792-.822,1.227,1.227,0,0,0-.967.471l-.256-.407a1.765,1.765,0,0,1,1.311-.56,1.136,1.136,0,0,1,1.279,1.255v2.7h-.575Zm0-1.127a.928.928,0,0,0-.832-.5.866.866,0,0,0,0,1.72.936.936,0,0,0,.832-.487Z" fill="#231f20"/>
        <path d="M227.806,211.588a1.208,1.208,0,0,1-1.016.647c-.863,0-1.383-.807-1.383-2.022,0-1.2.512-2.031,1.383-2.031a1.165,1.165,0,0,1,1.016.655v-2.03h.576v5.332h-.576Zm0-2.263a1.032,1.032,0,0,0-.871-.631c-.632,0-.928.68-.928,1.519s.3,1.51.928,1.51a1.024,1.024,0,0,0,.871-.623Z" fill="#231f20"/>
        <path d="M231.07,208.182c1.015,0,1.527.911,1.527,2.039v.176h-2.5c.023.775.424,1.359,1.111,1.359a1.188,1.188,0,0,0,.919-.472l.3.336a1.6,1.6,0,0,1-1.271.615c-1.032,0-1.655-.847-1.655-2.03C229.5,209.085,230.1,208.182,231.07,208.182Zm-.975,1.791h1.934c-.007-.592-.263-1.311-.967-1.311C230.382,208.662,230.11,209.405,230.1,209.973Z" fill="#231f20"/>
        <path d="M235.67,213.611v-5.333h.568v.552a1.206,1.206,0,0,1,1.015-.648c.872,0,1.384.807,1.384,2.023s-.512,2.03-1.384,2.03a1.172,1.172,0,0,1-1.015-.654v2.03Zm1.439-4.917a1.044,1.044,0,0,0-.871.623v1.767a1.062,1.062,0,0,0,.871.639c.632,0,.928-.679.928-1.518S237.741,208.694,237.109,208.694Z" fill="#231f20"/>
        <path d="M241.741,211.723a1.206,1.206,0,0,1-1.015.512,1.185,1.185,0,0,1-1.167-1.287,1.168,1.168,0,0,1,1.167-1.272,1.206,1.206,0,0,1,1.015.5V209.5a.733.733,0,0,0-.792-.822,1.224,1.224,0,0,0-.966.471l-.256-.407a1.765,1.765,0,0,1,1.31-.56,1.137,1.137,0,0,1,1.28,1.255v2.7h-.576Zm0-1.127a.927.927,0,0,0-.832-.5.866.866,0,0,0,0,1.72.935.935,0,0,0,.832-.487Z" fill="#231f20"/>
        <path d="M243.767,213.2c.223,0,.351-.089.455-.385l.208-.592-1.287-3.941h.624l.959,3.166.967-3.166h.616l-1.543,4.678a.932.932,0,0,1-.959.752,1.423,1.423,0,0,1-.384-.057l.088-.512A.614.614,0,0,0,243.767,213.2Z" fill="#231f20"/>
        <path d="M249.126,211.723a1.206,1.206,0,0,1-1.016.512,1.185,1.185,0,0,1-1.167-1.287,1.169,1.169,0,0,1,1.167-1.272,1.207,1.207,0,0,1,1.016.5V209.5a.733.733,0,0,0-.792-.822,1.227,1.227,0,0,0-.967.471l-.256-.407a1.768,1.768,0,0,1,1.311-.56,1.136,1.136,0,0,1,1.279,1.255v2.7h-.575Zm0-1.127a.928.928,0,0,0-.832-.5.866.866,0,0,0,0,1.72.936.936,0,0,0,.832-.487Z" fill="#231f20"/>
        <path d="M251.006,206.807h.568v2.03a1.173,1.173,0,0,1,1.015-.655c.872,0,1.384.831,1.384,2.031,0,1.215-.512,2.022-1.384,2.022a1.207,1.207,0,0,1-1.015-.647v.551h-.568Zm1.439,4.916c.632,0,.928-.679.928-1.51s-.3-1.519-.928-1.519a1.064,1.064,0,0,0-.871.639V211.1A1.044,1.044,0,0,0,252.445,211.723Z" fill="#231f20"/>
        <path d="M255.1,206.807h.568v5.332H255.1Z" fill="#231f20"/>
        <path d="M258.358,208.182c1.014,0,1.526.911,1.526,2.039v.176h-2.5c.023.775.424,1.359,1.111,1.359a1.188,1.188,0,0,0,.919-.472l.3.336a1.6,1.6,0,0,1-1.271.615c-1.032,0-1.655-.847-1.655-2.03C256.79,209.085,257.382,208.182,258.358,208.182Zm-.976,1.791h1.935c-.008-.592-.264-1.311-.968-1.311C257.669,208.662,257.4,209.405,257.382,209.973Z" fill="#231f20"/>
        <path d="M263.07,211.364v-2.582h-.511v-.5h.511v-1.056h.576v1.056h.656v.5h-.656v2.478c0,.3.088.463.312.463a.428.428,0,0,0,.336-.151l.176.432a.834.834,0,0,1-.624.231C263.318,212.235,263.07,211.94,263.07,211.364Z" fill="#231f20"/>
        <path d="M265.126,210.205c0-1.087.544-2.023,1.567-2.023,1.04,0,1.576.936,1.576,2.023s-.536,2.03-1.576,2.03C265.67,212.235,265.126,211.292,265.126,210.205Zm2.543,0c0-.776-.3-1.511-.976-1.511-.664,0-.967.735-.967,1.511s.3,1.518.967,1.518C267.373,211.723,267.669,210.989,267.669,210.205Z" fill="#231f20"/>
        <path d="M271.214,209.477c0-1.6.8-2.758,2.055-2.758a1.71,1.71,0,0,1,1.575,1.039l-.527.248a1.163,1.163,0,0,0-1.048-.72c-.848,0-1.4.927-1.4,2.191s.552,2.191,1.4,2.191a1.161,1.161,0,0,0,1.055-.792l.535.248a1.721,1.721,0,0,1-1.59,1.111C272.014,212.235,271.214,211.069,271.214,209.477Z" fill="#231f20"/>
        <path d="M275.694,210.205c0-1.087.544-2.023,1.568-2.023s1.575.936,1.575,2.023-.536,2.03-1.575,2.03S275.694,211.292,275.694,210.205Zm2.543,0c0-.776-.3-1.511-.975-1.511-.664,0-.968.735-.968,1.511s.3,1.518.968,1.518C277.942,211.723,278.237,210.989,278.237,210.205Z" fill="#231f20"/>
        <path d="M282.044,209.389c0-.512-.231-.7-.615-.7a1.124,1.124,0,0,0-.9.615v2.83h-.569v-3.861h.569v.552a1.431,1.431,0,0,1,1.119-.648c.655,0,.975.352.975,1.047v2.91h-.576Z" fill="#231f20"/>
        <path d="M283.91,211.284a1.332,1.332,0,0,0,1.007.488c.448,0,.744-.24.744-.607,0-.416-.384-.584-.807-.76-.528-.208-1.12-.44-1.12-1.184a1.1,1.1,0,0,1,1.232-1.039,1.541,1.541,0,0,1,1.175.5l-.272.391a1.111,1.111,0,0,0-.9-.424c-.424,0-.688.232-.688.545,0,.367.36.527.768.695.535.215,1.159.455,1.159,1.247a1.14,1.14,0,0,1-1.287,1.1,1.645,1.645,0,0,1-1.3-.543Z" fill="#231f20"/>
        <path d="M289.372,211.6a1.4,1.4,0,0,1-1.119.631c-.655,0-.968-.327-.968-1.031v-2.926h.569v2.758c0,.511.239.687.615.687a1.086,1.086,0,0,0,.9-.6v-2.846h.576v3.861h-.576Z" fill="#231f20"/>
        <path d="M295.164,209.341c0-.416-.168-.647-.536-.647a1.058,1.058,0,0,0-.839.615v2.83h-.576v-2.8c0-.416-.168-.647-.544-.647a1.082,1.082,0,0,0-.839.615v2.83h-.568v-3.861h.568v.552a1.334,1.334,0,0,1,1.055-.648.812.812,0,0,1,.872.688,1.326,1.326,0,0,1,1.087-.688c.568,0,.895.312.895,1.008v2.949h-.575Z" fill="#231f20"/>
        <path d="M298.429,208.182c1.014,0,1.526.911,1.526,2.039v.176h-2.5c.024.775.424,1.359,1.112,1.359a1.189,1.189,0,0,0,.919-.472l.3.336a1.606,1.606,0,0,1-1.271.615c-1.032,0-1.656-.847-1.656-2.03C296.861,209.085,297.453,208.182,298.429,208.182Zm-.976,1.791h1.935c-.008-.592-.264-1.311-.968-1.311C297.741,208.662,297.469,209.405,297.453,209.973Z" fill="#231f20"/>
        <path d="M301.053,208.278h.568v.615a1.3,1.3,0,0,1,1.1-.695v.592a.787.787,0,0,0-.191-.024,1.156,1.156,0,0,0-.9.631v2.742h-.568Z" fill="#231f20"/>
        <path d="M303.613,211.284a1.332,1.332,0,0,0,1.007.488c.448,0,.744-.24.744-.607,0-.416-.383-.584-.807-.76-.528-.208-1.119-.44-1.119-1.184a1.094,1.094,0,0,1,1.231-1.039,1.541,1.541,0,0,1,1.175.5l-.272.391a1.111,1.111,0,0,0-.895-.424c-.424,0-.688.232-.688.545,0,.367.36.527.768.695.535.215,1.159.455,1.159,1.247a1.14,1.14,0,0,1-1.287,1.1,1.645,1.645,0,0,1-1.3-.543Z" fill="#231f20"/>
        <path d="M309,206.807h2.742v.559h-2.1v1.767h2.047v.56h-2.047v1.879h2.1v.567H309Z" fill="#231f20"/>
        <path d="M315,209.389c0-.512-.231-.7-.615-.7a1.124,1.124,0,0,0-.9.615v2.83h-.569v-3.861h.569v.552a1.431,1.431,0,0,1,1.119-.648c.655,0,.975.352.975,1.047v2.91H315Z" fill="#231f20"/>
        <path d="M318.261,208.182c1.015,0,1.526.911,1.526,2.039v.176h-2.5c.024.775.424,1.359,1.112,1.359a1.189,1.189,0,0,0,.919-.472l.3.336a1.606,1.606,0,0,1-1.271.615c-1.031,0-1.656-.847-1.656-2.03C316.693,209.085,317.285,208.182,318.261,208.182Zm-.976,1.791h1.935c-.008-.592-.264-1.311-.968-1.311C317.573,208.662,317.3,209.405,317.285,209.973Z" fill="#231f20"/>
        <path d="M320.885,208.278h.568v.615a1.3,1.3,0,0,1,1.1-.695v.592a.787.787,0,0,0-.191-.024,1.156,1.156,0,0,0-.9.631v2.742h-.568Z" fill="#231f20"/>
        <path d="M323.7,212.772a1.261,1.261,0,0,0,1.007.447.922.922,0,0,0,.968-1.047v-.648a1.222,1.222,0,0,1-1.016.664c-.863,0-1.383-.783-1.383-2,0-1.2.512-2.006,1.383-2.006a1.174,1.174,0,0,1,1.016.655v-.559h.576v3.853a1.4,1.4,0,0,1-1.527,1.577,1.664,1.664,0,0,1-1.287-.489Zm1.975-3.447a1.032,1.032,0,0,0-.871-.631c-.632,0-.928.664-.928,1.494s.3,1.488.928,1.488a1.042,1.042,0,0,0,.871-.64Z" fill="#231f20"/>
        <path d="M327.7,213.2c.224,0,.352-.089.455-.385l.208-.592-1.287-3.941h.624l.959,3.166.968-3.166h.615l-1.543,4.678a.931.931,0,0,1-.959.752,1.41,1.41,0,0,1-.383-.057l.087-.512A.62.62,0,0,0,327.7,213.2Z" fill="#231f20"/>
        <path d="M331.061,211.364a.439.439,0,0,1,.432.424.434.434,0,0,1-.432.431.428.428,0,0,1-.424-.431A.432.432,0,0,1,331.061,211.364Z" fill="#231f20"/>
        <path d="M334.765,206.807h1.623a1.6,1.6,0,0,1,0,3.2H335.4v2.135h-.639Zm1.559.559h-.92v2.08h.92c.552,0,.879-.433.879-1.04S336.876,207.366,336.324,207.366Z" fill="#231f20"/>
        <path d="M338.885,206.807h.568v5.332h-.568Z" fill="#231f20"/>
        <path d="M342.141,208.182c1.014,0,1.526.911,1.526,2.039v.176h-2.5c.024.775.424,1.359,1.111,1.359a1.188,1.188,0,0,0,.919-.472l.3.336a1.6,1.6,0,0,1-1.27.615c-1.033,0-1.656-.847-1.656-2.03C340.573,209.085,341.165,208.182,342.141,208.182Zm-.976,1.791H343.1c-.008-.592-.264-1.311-.968-1.311C341.452,208.662,341.181,209.405,341.165,209.973Z" fill="#231f20"/>
        <path d="M346.748,211.723a1.206,1.206,0,0,1-1.015.512,1.185,1.185,0,0,1-1.167-1.287,1.168,1.168,0,0,1,1.167-1.272,1.206,1.206,0,0,1,1.015.5V209.5a.733.733,0,0,0-.792-.822,1.227,1.227,0,0,0-.967.471l-.255-.407a1.765,1.765,0,0,1,1.31-.56,1.136,1.136,0,0,1,1.279,1.255v2.7h-.575Zm0-1.127a.928.928,0,0,0-.832-.5.866.866,0,0,0,0,1.72.936.936,0,0,0,.832-.487Z" fill="#231f20"/>
        <path d="M348.605,211.284a1.329,1.329,0,0,0,1.006.488c.449,0,.745-.24.745-.607,0-.416-.384-.584-.808-.76-.527-.208-1.119-.44-1.119-1.184a1.094,1.094,0,0,1,1.231-1.039,1.54,1.54,0,0,1,1.175.5l-.271.391a1.114,1.114,0,0,0-.9-.424c-.424,0-.687.232-.687.545,0,.367.359.527.767.695.535.215,1.159.455,1.159,1.247a1.14,1.14,0,0,1-1.287,1.1,1.641,1.641,0,0,1-1.3-.543Z" fill="#231f20"/>
        <path d="M353.357,208.182c1.014,0,1.526.911,1.526,2.039v.176h-2.5c.023.775.424,1.359,1.111,1.359a1.188,1.188,0,0,0,.919-.472l.305.336a1.608,1.608,0,0,1-1.272.615c-1.031,0-1.655-.847-1.655-2.03C351.789,209.085,352.381,208.182,353.357,208.182Zm-.976,1.791h1.935c-.008-.592-.264-1.311-.968-1.311C352.669,208.662,352.4,209.405,352.381,209.973Z" fill="#231f20"/>
        <path d="M359.98,209.038l-.832,3.1h-.583l-1.033-3.861h.6l.752,3.086.815-3.086h.544l.824,3.086.759-3.086h.6l-1.031,3.861H360.8Z" fill="#231f20"/>
        <path d="M363.316,208.278h.568v.615a1.3,1.3,0,0,1,1.095-.695v.592a.789.789,0,0,0-.192-.024,1.156,1.156,0,0,0-.9.631v2.742h-.568Z" fill="#231f20"/>
        <path d="M365.788,207.239a.4.4,0,0,1,.392-.393.392.392,0,0,1,0,.783A.4.4,0,0,1,365.788,207.239Zm.112,1.039h.568v3.861H365.9Z" fill="#231f20"/>
        <path d="M367.892,211.364v-2.582h-.512v-.5h.512v-1.056h.576v1.056h.655v.5h-.655v2.478c0,.3.088.463.311.463a.428.428,0,0,0,.336-.151l.176.432a.834.834,0,0,1-.624.231C368.14,212.235,367.892,211.94,367.892,211.364Z" fill="#231f20"/>
        <path d="M371.516,208.182c1.014,0,1.526.911,1.526,2.039v.176h-2.5c.024.775.424,1.359,1.111,1.359a1.188,1.188,0,0,0,.919-.472l.3.336a1.6,1.6,0,0,1-1.27.615c-1.033,0-1.656-.847-1.656-2.03C369.948,209.085,370.54,208.182,371.516,208.182Zm-.976,1.791h1.935c-.008-.592-.264-1.311-.968-1.311C370.827,208.662,370.556,209.405,370.54,209.973Z" fill="#231f20"/>
        <path d="M376.26,213.2c.224,0,.351-.089.455-.385l.208-.592-1.287-3.941h.624l.959,3.166.968-3.166h.615l-1.543,4.678a.931.931,0,0,1-.959.752,1.423,1.423,0,0,1-.384-.057l.088-.512A.614.614,0,0,0,376.26,213.2Z" fill="#231f20"/>
        <path d="M379.444,210.205c0-1.087.544-2.023,1.568-2.023s1.575.936,1.575,2.023-.536,2.03-1.575,2.03S379.444,211.292,379.444,210.205Zm2.543,0c0-.776-.3-1.511-.975-1.511-.664,0-.968.735-.968,1.511s.3,1.518.968,1.518C381.692,211.723,381.987,210.989,381.987,210.205Z" fill="#231f20"/>
        <path d="M385.794,211.6a1.4,1.4,0,0,1-1.119.631c-.655,0-.968-.327-.968-1.031v-2.926h.569v2.758c0,.511.239.687.615.687a1.086,1.086,0,0,0,.9-.6v-2.846h.576v3.861h-.576Z" fill="#231f20"/>
        <path d="M387.684,208.278h.568v.615a1.3,1.3,0,0,1,1.095-.695v.592a.789.789,0,0,0-.192-.024,1.156,1.156,0,0,0-.9.631v2.742h-.568Z" fill="#231f20"/>
        <path d="M394.227,211.723a1.206,1.206,0,0,1-1.016.512,1.185,1.185,0,0,1-1.167-1.287,1.168,1.168,0,0,1,1.167-1.272,1.208,1.208,0,0,1,1.016.5V209.5a.733.733,0,0,0-.792-.822,1.226,1.226,0,0,0-.967.471l-.256-.407a1.765,1.765,0,0,1,1.311-.56,1.136,1.136,0,0,1,1.279,1.255v2.7h-.575Zm0-1.127a.928.928,0,0,0-.832-.5.866.866,0,0,0,0,1.72.936.936,0,0,0,.832-.487Z" fill="#231f20"/>
        <path d="M397.514,208.182a1.315,1.315,0,0,1,1.1.512l-.311.391a.868.868,0,0,0-.744-.391c-.688,0-1.047.687-1.047,1.511s.359,1.518,1.047,1.518a.889.889,0,0,0,.744-.39l.311.39a1.294,1.294,0,0,1-1.1.512c-.991,0-1.6-.887-1.6-2.03S396.523,208.182,397.514,208.182Z" fill="#231f20"/>
        <path d="M401.019,208.182a1.315,1.315,0,0,1,1.1.512l-.311.391a.869.869,0,0,0-.743-.391c-.689,0-1.048.687-1.048,1.511s.359,1.518,1.048,1.518a.89.89,0,0,0,.743-.39l.311.39a1.294,1.294,0,0,1-1.1.512c-.992,0-1.6-.887-1.6-2.03S400.027,208.182,401.019,208.182Z" fill="#231f20"/>
        <path d="M402.924,210.205c0-1.087.544-2.023,1.567-2.023,1.039,0,1.576.936,1.576,2.023s-.537,2.03-1.576,2.03C403.468,212.235,402.924,211.292,402.924,210.205Zm2.542,0c0-.776-.3-1.511-.975-1.511-.664,0-.967.735-.967,1.511s.3,1.518.967,1.518C405.171,211.723,405.466,210.989,405.466,210.205Z" fill="#231f20"/>
        <path d="M409.274,211.6a1.406,1.406,0,0,1-1.12.631c-.655,0-.967-.327-.967-1.031v-2.926h.568v2.758c0,.511.239.687.615.687a1.088,1.088,0,0,0,.9-.6v-2.846h.576v3.861h-.576Z" fill="#231f20"/>
        <path d="M413.25,209.389c0-.512-.231-.7-.615-.7a1.124,1.124,0,0,0-.9.615v2.83h-.569v-3.861h.569v.552a1.431,1.431,0,0,1,1.119-.648c.655,0,.975.352.975,1.047v2.91h-.576Z" fill="#231f20"/>
        <path d="M415.251,211.364v-2.582h-.512v-.5h.512v-1.056h.576v1.056h.656v.5h-.656v2.478c0,.3.088.463.312.463a.431.431,0,0,0,.336-.151l.176.432a.837.837,0,0,1-.625.231C415.5,212.235,415.251,211.94,415.251,211.364Z" fill="#231f20"/>
        <path d="M421.562,209.389c0-.512-.232-.7-.616-.7a1.126,1.126,0,0,0-.9.615v2.83h-.568v-3.861h.568v.552a1.432,1.432,0,0,1,1.119-.648c.656,0,.976.352.976,1.047v2.91h-.576Z" fill="#231f20"/>
        <path d="M425.537,211.6a1.4,1.4,0,0,1-1.119.631c-.655,0-.968-.327-.968-1.031v-2.926h.569v2.758c0,.511.239.687.615.687a1.086,1.086,0,0,0,.9-.6v-2.846h.576v3.861h-.576Z" fill="#231f20"/>
        <path d="M431.329,209.341c0-.416-.168-.647-.536-.647a1.058,1.058,0,0,0-.839.615v2.83h-.576v-2.8c0-.416-.168-.647-.544-.647a1.082,1.082,0,0,0-.839.615v2.83h-.568v-3.861H428v.552a1.334,1.334,0,0,1,1.055-.648.812.812,0,0,1,.872.688,1.328,1.328,0,0,1,1.087-.688c.568,0,.895.312.895,1.008v2.949h-.575Z" fill="#231f20"/>
        <path d="M433.219,206.807h.568v2.03a1.172,1.172,0,0,1,1.015-.655c.872,0,1.384.831,1.384,2.031,0,1.215-.512,2.022-1.384,2.022a1.207,1.207,0,0,1-1.015-.647v.551h-.568Zm1.439,4.916c.632,0,.928-.679.928-1.51s-.3-1.519-.928-1.519a1.064,1.064,0,0,0-.871.639V211.1A1.044,1.044,0,0,0,434.658,211.723Z" fill="#231f20"/>
        <path d="M438.691,208.182c1.014,0,1.526.911,1.526,2.039v.176h-2.5c.023.775.424,1.359,1.111,1.359a1.188,1.188,0,0,0,.919-.472l.305.336a1.608,1.608,0,0,1-1.272.615c-1.031,0-1.655-.847-1.655-2.03C437.123,209.085,437.715,208.182,438.691,208.182Zm-.976,1.791h1.935c-.008-.592-.264-1.311-.968-1.311C438,208.662,437.731,209.405,437.715,209.973Z" fill="#231f20"/>
        <path d="M441.315,208.278h.568v.615a1.3,1.3,0,0,1,1.1-.695v.592a.789.789,0,0,0-.192-.024,1.156,1.156,0,0,0-.9.631v2.742h-.568Z" fill="#231f20"/>
        <path d="M445.683,210.205c0-1.087.544-2.023,1.567-2.023,1.039,0,1.575.936,1.575,2.023s-.536,2.03-1.575,2.03C446.227,212.235,445.683,211.292,445.683,210.205Zm2.543,0c0-.776-.3-1.511-.976-1.511-.664,0-.968.735-.968,1.511s.3,1.518.968,1.518C447.93,211.723,448.226,210.989,448.226,210.205Z" fill="#231f20"/>
        <path d="M452.033,209.389c0-.512-.231-.7-.615-.7a1.126,1.126,0,0,0-.9.615v2.83h-.569v-3.861h.569v.552a1.431,1.431,0,0,1,1.119-.648c.655,0,.975.352.975,1.047v2.91h-.576Z" fill="#231f20"/>
        <path d="M456.042,213.2c.224,0,.352-.089.455-.385l.208-.592-1.287-3.941h.624l.959,3.166.968-3.166h.615l-1.543,4.678a.931.931,0,0,1-.959.752,1.423,1.423,0,0,1-.384-.057l.088-.512A.62.62,0,0,0,456.042,213.2Z" fill="#231f20"/>
        <path d="M459.227,210.205c0-1.087.544-2.023,1.567-2.023,1.039,0,1.575.936,1.575,2.023s-.536,2.03-1.575,2.03C459.771,212.235,459.227,211.292,459.227,210.205Zm2.542,0c0-.776-.3-1.511-.975-1.511-.664,0-.968.735-.968,1.511s.3,1.518.968,1.518C461.474,211.723,461.769,210.989,461.769,210.205Z" fill="#231f20"/>
        <path d="M465.576,211.6a1.4,1.4,0,0,1-1.119.631c-.655,0-.968-.327-.968-1.031v-2.926h.569v2.758c0,.511.239.687.615.687a1.086,1.086,0,0,0,.9-.6v-2.846h.576v3.861h-.576Z" fill="#231f20"/>
        <path d="M467.466,208.278h.568v.615a1.3,1.3,0,0,1,1.1-.695v.592a.781.781,0,0,0-.191-.024,1.156,1.156,0,0,0-.9.631v2.742h-.568Z" fill="#231f20"/>
        <path d="M473.433,208.182a1.315,1.315,0,0,1,1.1.512l-.311.391a.869.869,0,0,0-.743-.391c-.689,0-1.048.687-1.048,1.511s.359,1.518,1.048,1.518a.89.89,0,0,0,.743-.39l.311.39a1.294,1.294,0,0,1-1.1.512c-.991,0-1.6-.887-1.6-2.03S472.442,208.182,473.433,208.182Z" fill="#231f20"/>
        <path d="M477.624,209.381c0-.511-.239-.687-.623-.687a1.126,1.126,0,0,0-.9.615v2.83h-.569v-5.332h.569v2.023a1.446,1.446,0,0,1,1.127-.648c.655,0,.968.328.968,1.031v2.926h-.569Z" fill="#231f20"/>
        <path d="M480.882,208.182c1.015,0,1.526.911,1.526,2.039v.176h-2.5c.024.775.424,1.359,1.112,1.359a1.189,1.189,0,0,0,.919-.472l.3.336a1.606,1.606,0,0,1-1.271.615c-1.031,0-1.655-.847-1.655-2.03C479.315,209.085,479.906,208.182,480.882,208.182Zm-.976,1.791h1.935c-.008-.592-.264-1.311-.968-1.311C480.194,208.662,479.922,209.405,479.906,209.973Z" fill="#231f20"/>
        <path d="M484.912,208.182a1.318,1.318,0,0,1,1.1.512l-.312.391a.868.868,0,0,0-.744-.391c-.687,0-1.047.687-1.047,1.511s.36,1.518,1.047,1.518a.889.889,0,0,0,.744-.39l.312.39a1.3,1.3,0,0,1-1.1.512c-.991,0-1.6-.887-1.6-2.03S483.921,208.182,484.912,208.182Z" fill="#231f20"/>
        <path d="M488.121,210.4l-.543.7v1.047h-.568v-5.332h.568v3.566l1.607-2.095h.679l-1.35,1.734,1.35,2.127h-.679Z" fill="#231f20"/>
        <path d="M491.153,211.364a.439.439,0,0,1,.432.424.434.434,0,0,1-.432.431.427.427,0,0,1-.423-.431A.432.432,0,0,1,491.153,211.364Z" fill="#231f20"/>
      </g>
      <g>
        <path d="M172.572,222.217l-2.313-3.548h1.458l1.495,2.414,1.477-2.414h1.458l-2.3,3.548v2.457h-1.279Z" fill="#0b79bf"/>
        <path d="M175.461,222.5a2.3,2.3,0,1,1,2.3,2.286A2.2,2.2,0,0,1,175.461,222.5Zm3.412,0a1.121,1.121,0,1,0-1.116,1.269A1.148,1.148,0,0,0,178.873,222.5Z" fill="#0b79bf"/>
        <path d="M184.021,224.125a2.037,2.037,0,0,1-1.531.657,1.245,1.245,0,0,1-1.4-1.367v-3.088h1.144v2.636a.7.7,0,0,0,.8.8,1.282,1.282,0,0,0,.991-.495v-2.943h1.143v4.347h-1.143Z" fill="#0b79bf"/>
        <path d="M190.986,220.217a2.024,2.024,0,0,1,1.72.784l-.747.7a1.053,1.053,0,0,0-.919-.469,1.268,1.268,0,0,0,0,2.53,1.1,1.1,0,0,0,.919-.468l.747.694a2.006,2.006,0,0,1-1.72.791,2.283,2.283,0,1,1,0-4.565Z" fill="#0b79bf"/>
        <path d="M196.242,224.224a1.8,1.8,0,0,1-1.377.558,1.448,1.448,0,0,1-1.512-1.44,1.377,1.377,0,0,1,1.512-1.386,1.752,1.752,0,0,1,1.377.531v-.6c0-.441-.378-.728-.954-.728a1.828,1.828,0,0,0-1.269.512l-.432-.764a2.848,2.848,0,0,1,1.9-.686c.991,0,1.9.4,1.9,1.649v2.808h-1.144Zm0-1.134a1.142,1.142,0,0,0-.918-.379c-.45,0-.819.235-.819.659,0,.4.369.638.819.638a1.139,1.139,0,0,0,.918-.379Z" fill="#0b79bf"/>
        <path d="M201.634,222.045a.706.706,0,0,0-.8-.81,1.234,1.234,0,0,0-.99.514v2.925H198.7v-4.347h1.144v.566a1.988,1.988,0,0,1,1.521-.676,1.265,1.265,0,0,1,1.413,1.387v3.07h-1.143Z" fill="#0b79bf"/>
        <path d="M206.574,226.331v-6h1.144v.548a1.679,1.679,0,0,1,1.341-.658c1.116,0,1.926.829,1.926,2.279s-.81,2.286-1.926,2.286a1.657,1.657,0,0,1-1.341-.666v2.215Zm2.124-5.1a1.277,1.277,0,0,0-.98.5v1.539a1.305,1.305,0,0,0,.98.495,1.278,1.278,0,0,0,0-2.53Z" fill="#0b79bf"/>
        <path d="M214.629,224.224a1.8,1.8,0,0,1-1.377.558,1.449,1.449,0,0,1-1.513-1.44,1.377,1.377,0,0,1,1.513-1.386,1.753,1.753,0,0,1,1.377.531v-.6c0-.441-.378-.728-.954-.728a1.832,1.832,0,0,0-1.27.512l-.431-.764a2.848,2.848,0,0,1,1.9-.686c.99,0,1.9.4,1.9,1.649v2.808h-1.144Zm0-1.134a1.142,1.142,0,0,0-.918-.379c-.45,0-.819.235-.819.659,0,.4.369.638.819.638a1.139,1.139,0,0,0,.918-.379Z" fill="#0b79bf"/>
        <path d="M217.464,225.421a.579.579,0,0,0,.6-.315l.162-.369-1.765-4.41h1.224l1.134,3.024,1.135-3.024h1.234l-2.044,5.058a1.582,1.582,0,0,1-1.648,1.054,3.041,3.041,0,0,1-.567-.064l.171-1.025A.987.987,0,0,0,217.464,225.421Z" fill="#0b79bf"/>
        <path d="M224.744,225.421a.579.579,0,0,0,.6-.315l.162-.369-1.765-4.41h1.224l1.135,3.024,1.134-3.024h1.234l-2.044,5.058a1.581,1.581,0,0,1-1.648,1.054,3.06,3.06,0,0,1-.567-.064l.171-1.025A.991.991,0,0,0,224.744,225.421Z" fill="#0b79bf"/>
        <path d="M228.884,222.5a2.3,2.3,0,1,1,2.3,2.286A2.2,2.2,0,0,1,228.884,222.5Zm3.412,0a1.122,1.122,0,1,0-1.116,1.269A1.148,1.148,0,0,0,232.3,222.5Z" fill="#0b79bf"/>
        <path d="M237.443,224.125a2.033,2.033,0,0,1-1.53.657,1.245,1.245,0,0,1-1.4-1.367v-3.088h1.143v2.636a.7.7,0,0,0,.8.8,1.278,1.278,0,0,0,.99-.495v-2.943h1.144v4.347h-1.144Z" fill="#0b79bf"/>
        <path d="M239.9,220.327h1.143v.593a1.863,1.863,0,0,1,1.386-.693v1.116a1.4,1.4,0,0,0-1.386.459v2.872H239.9Z" fill="#0b79bf"/>
        <path d="M245.8,218.669h1.143v2.215a1.677,1.677,0,0,1,1.341-.667c1.108,0,1.927.866,1.927,2.287,0,1.45-.828,2.278-1.927,2.278a1.687,1.687,0,0,1-1.341-.666v.558H245.8Zm2.124,5.1a1.276,1.276,0,0,0,0-2.53,1.264,1.264,0,0,0-.981.5v1.54A1.272,1.272,0,0,0,247.928,223.765Z" fill="#0b79bf"/>
        <path d="M251.141,219a.684.684,0,1,1,.684.685A.689.689,0,0,1,251.141,219Zm.117,1.325H252.4v4.347h-1.143Z" fill="#0b79bf"/>
        <path d="M253.715,218.669h1.144v6h-1.144Z" fill="#0b79bf"/>
        <path d="M256.172,218.669h1.144v6h-1.144Z" fill="#0b79bf"/>
        <path d="M261.112,218.669h1.144v2.215a1.675,1.675,0,0,1,1.341-.667c1.107,0,1.927.866,1.927,2.287,0,1.45-.829,2.278-1.927,2.278a1.686,1.686,0,0,1-1.341-.666v.558h-1.144Zm2.124,5.1a1.276,1.276,0,0,0,0-2.53,1.261,1.261,0,0,0-.98.5v1.54A1.269,1.269,0,0,0,263.236,223.765Z" fill="#0b79bf"/>
        <path d="M266.944,225.421a.578.578,0,0,0,.6-.315l.162-.369-1.765-4.41h1.224l1.135,3.024,1.135-3.024h1.233l-2.044,5.058a1.58,1.58,0,0,1-1.647,1.054,3.061,3.061,0,0,1-.568-.064l.171-1.025A.991.991,0,0,0,266.944,225.421Z" fill="#0b79bf"/>
        <path d="M279.24,221.928c0-.4-.18-.693-.648-.693a1.154,1.154,0,0,0-.9.5v2.935h-1.153v-2.746c0-.4-.18-.693-.648-.693a1.165,1.165,0,0,0-.9.514v2.925h-1.143v-4.347h1.143v.566a1.9,1.9,0,0,1,1.422-.676,1.149,1.149,0,0,1,1.206.793,1.849,1.849,0,0,1,1.495-.793,1.162,1.162,0,0,1,1.279,1.315v3.142H279.24Z" fill="#0b79bf"/>
        <path d="M284.306,224.224a1.8,1.8,0,0,1-1.377.558,1.448,1.448,0,0,1-1.513-1.44,1.377,1.377,0,0,1,1.513-1.386,1.753,1.753,0,0,1,1.377.531v-.6c0-.441-.378-.728-.954-.728a1.83,1.83,0,0,0-1.27.512l-.431-.764a2.847,2.847,0,0,1,1.9-.686c.99,0,1.9.4,1.9,1.649v2.808h-1.143Zm0-1.134a1.144,1.144,0,0,0-.918-.379c-.45,0-.82.235-.82.659,0,.4.37.638.82.638a1.141,1.141,0,0,0,.918-.379Z" fill="#0b79bf"/>
        <path d="M286.646,219a.684.684,0,1,1,.684.685A.689.689,0,0,1,286.646,219Zm.117,1.325h1.143v4.347h-1.143Z" fill="#0b79bf"/>
        <path d="M289.22,218.669h1.143v6H289.22Z" fill="#0b79bf"/>
        <path d="M291.622,225.5a1.506,1.506,0,0,0,.694-.836.735.735,0,0,1-.171.026.619.619,0,0,1-.613-.656.719.719,0,0,1,.7-.721.837.837,0,0,1,.811.918,2.1,2.1,0,0,1-.927,1.675Z" fill="#0b79bf"/>
        <path d="M296.645,218.669h1.143v2.215a1.675,1.675,0,0,1,1.341-.667c1.107,0,1.927.866,1.927,2.287,0,1.45-.828,2.278-1.927,2.278a1.687,1.687,0,0,1-1.341-.666v.558h-1.143Zm2.124,5.1a1.276,1.276,0,0,0,0-2.53,1.264,1.264,0,0,0-.981.5v1.54A1.272,1.272,0,0,0,298.769,223.765Z" fill="#0b79bf"/>
        <path d="M302.477,225.421a.577.577,0,0,0,.6-.315l.162-.369-1.764-4.41H302.7l1.135,3.024,1.135-3.024H306.2l-2.044,5.058a1.58,1.58,0,0,1-1.647,1.054,3.061,3.061,0,0,1-.568-.064l.171-1.025A.992.992,0,0,0,302.477,225.421Z" fill="#0b79bf"/>
        <path d="M309.379,226.331v-6h1.144v.548a1.678,1.678,0,0,1,1.34-.658c1.117,0,1.927.829,1.927,2.279s-.81,2.286-1.927,2.286a1.656,1.656,0,0,1-1.34-.666v2.215Zm2.124-5.1a1.277,1.277,0,0,0-.98.5v1.539a1.305,1.305,0,0,0,.98.495,1.278,1.278,0,0,0,0-2.53Z" fill="#0b79bf"/>
        <path d="M317.768,222.028c0-.6-.315-.793-.81-.793a1.263,1.263,0,0,0-.99.514v2.925h-1.144v-6h1.144v2.224a2.009,2.009,0,0,1,1.53-.676,1.253,1.253,0,0,1,1.413,1.369v3.088h-1.143Z" fill="#0b79bf"/>
        <path d="M319.944,222.5a2.3,2.3,0,1,1,2.3,2.286A2.2,2.2,0,0,1,319.944,222.5Zm3.413,0a1.122,1.122,0,1,0-1.117,1.269A1.149,1.149,0,0,0,323.357,222.5Z" fill="#0b79bf"/>
        <path d="M328.5,222.045a.705.705,0,0,0-.8-.81,1.234,1.234,0,0,0-.99.514v2.925h-1.144v-4.347h1.144v.566a1.989,1.989,0,0,1,1.521-.676,1.265,1.265,0,0,1,1.414,1.387v3.07H328.5Z" fill="#0b79bf"/>
        <path d="M332.933,220.217a2.181,2.181,0,0,1,2.178,2.4v.252h-3.232a1.172,1.172,0,0,0,1.251,1.009,1.781,1.781,0,0,0,1.162-.433l.5.738a2.712,2.712,0,0,1-1.792.6,2.283,2.283,0,1,1-.071-4.565Zm-1.072,1.873H334a1.007,1.007,0,0,0-1.071-.963A1.046,1.046,0,0,0,331.861,222.09Z" fill="#0b79bf"/>
        <path d="M338.322,222.5a2.3,2.3,0,1,1,2.3,2.286A2.2,2.2,0,0,1,338.322,222.5Zm3.412,0a1.121,1.121,0,1,0-1.116,1.269A1.148,1.148,0,0,0,341.734,222.5Z" fill="#0b79bf"/>
        <path d="M343.947,220.327h1.144v.593a1.863,1.863,0,0,1,1.386-.693v1.116a1.4,1.4,0,0,0-1.386.459v2.872h-1.144Z" fill="#0b79bf"/>
        <path d="M349.572,222.5a2.3,2.3,0,1,1,2.3,2.286A2.2,2.2,0,0,1,349.572,222.5Zm3.412,0a1.121,1.121,0,1,0-1.116,1.269A1.148,1.148,0,0,0,352.984,222.5Z" fill="#0b79bf"/>
        <path d="M358.132,222.045a.705.705,0,0,0-.8-.81,1.234,1.234,0,0,0-.99.514v2.925H355.2v-4.347h1.144v.566a1.989,1.989,0,0,1,1.521-.676,1.265,1.265,0,0,1,1.414,1.387v3.07h-1.144Z" fill="#0b79bf"/>
        <path d="M360.588,218.669h1.144v6h-1.144Z" fill="#0b79bf"/>
        <path d="M362.928,219a.684.684,0,1,1,.684.685A.689.689,0,0,1,362.928,219Zm.117,1.325h1.144v4.347h-1.144Z" fill="#0b79bf"/>
        <path d="M368.437,222.045a.706.706,0,0,0-.8-.81,1.234,1.234,0,0,0-.99.514v2.925H365.5v-4.347h1.144v.566a1.988,1.988,0,0,1,1.521-.676,1.265,1.265,0,0,1,1.413,1.387v3.07h-1.143Z" fill="#0b79bf"/>
        <path d="M372.864,220.217a2.182,2.182,0,0,1,2.179,2.4v.252h-3.232a1.171,1.171,0,0,0,1.251,1.009,1.783,1.783,0,0,0,1.162-.433l.5.738a2.714,2.714,0,0,1-1.792.6,2.283,2.283,0,1,1-.072-4.565Zm-1.071,1.873h2.143a1.009,1.009,0,0,0-1.072-.963A1.045,1.045,0,0,0,371.793,222.09Z" fill="#0b79bf"/>
      </g>
      <g>
        <path d="M204.487,234.583a2.26,2.26,0,0,0,1.68.759c.951,0,1.255-.511,1.255-.92,0-.639-.647-.816-1.352-1.007-.855-.224-1.806-.463-1.806-1.511,0-.88.783-1.48,1.831-1.48a2.5,2.5,0,0,1,1.894.744l-.4.488a2.035,2.035,0,0,0-1.543-.64c-.64,0-1.1.344-1.1.848,0,.535.617.695,1.3.879.871.232,1.862.5,1.862,1.623,0,.775-.527,1.567-1.966,1.567a2.638,2.638,0,0,1-2.047-.847Z" fill="#0b79bf"/>
        <path d="M210.918,231.879a1.877,1.877,0,0,1,1.856,2.072v.151h-3.126a1.359,1.359,0,0,0,1.39,1.336,1.687,1.687,0,0,0,1.192-.488l.288.392a2.1,2.1,0,0,1-1.535.591,2.029,2.029,0,0,1-.065-4.054Zm-1.27,1.784h2.534a1.252,1.252,0,0,0-1.272-1.288A1.287,1.287,0,0,0,209.648,233.663Z" fill="#0b79bf"/>
        <path d="M215.582,231.879a1.877,1.877,0,0,1,1.856,2.072v.151h-3.126a1.359,1.359,0,0,0,1.39,1.336,1.687,1.687,0,0,0,1.192-.488l.288.392a2.1,2.1,0,0,1-1.535.591,2.029,2.029,0,0,1-.065-4.054Zm-1.27,1.784h2.534a1.252,1.252,0,0,0-1.272-1.288A1.287,1.287,0,0,0,214.312,233.663Z" fill="#0b79bf"/>
        <path d="M220.791,231.975h.6v.624a1.643,1.643,0,0,1,1.287-.7v.616a1.048,1.048,0,0,0-.239-.024,1.415,1.415,0,0,0-1.048.616v2.734h-.6Z" fill="#0b79bf"/>
        <path d="M225.27,231.879a1.876,1.876,0,0,1,1.855,2.072v.151H224a1.361,1.361,0,0,0,1.391,1.336,1.687,1.687,0,0,0,1.191-.488l.288.392a2.1,2.1,0,0,1-1.535.591,2.029,2.029,0,0,1-.064-4.054ZM224,233.663h2.534a1.25,1.25,0,0,0-1.271-1.288A1.288,1.288,0,0,0,224,233.663Z" fill="#0b79bf"/>
        <path d="M227.68,231.975h.647l1.287,3.166,1.28-3.166h.655l-1.606,3.862h-.657Z" fill="#0b79bf"/>
        <path d="M234.014,231.879a1.876,1.876,0,0,1,1.855,2.072v.151h-3.126a1.361,1.361,0,0,0,1.391,1.336,1.685,1.685,0,0,0,1.191-.488l.288.392a2.1,2.1,0,0,1-1.535.591,2.029,2.029,0,0,1-.064-4.054Zm-1.271,1.784h2.534a1.25,1.25,0,0,0-1.271-1.288A1.289,1.289,0,0,0,232.743,233.663Z" fill="#0b79bf"/>
        <path d="M237,231.975h.6v.624a1.643,1.643,0,0,1,1.287-.7v.616a1.048,1.048,0,0,0-.239-.024,1.415,1.415,0,0,0-1.048.616v2.734H237Z" fill="#0b79bf"/>
        <path d="M239.775,234.894a1.748,1.748,0,0,0,1.271.552c.592,0,.912-.264.912-.64,0-.424-.472-.559-.992-.688-.655-.152-1.4-.327-1.4-1.127,0-.6.519-1.112,1.438-1.112a1.952,1.952,0,0,1,1.432.561l-.281.415a1.5,1.5,0,0,0-1.151-.487c-.527,0-.855.239-.855.584,0,.375.44.5.943.615.672.152,1.447.344,1.447,1.2,0,.648-.519,1.167-1.518,1.167a2.055,2.055,0,0,1-1.56-.607Z" fill="#0b79bf"/>
        <path d="M245.358,231.879a1.876,1.876,0,0,1,1.855,2.072v.151h-3.126a1.361,1.361,0,0,0,1.391,1.336,1.687,1.687,0,0,0,1.191-.488l.288.392a2.1,2.1,0,0,1-1.535.591,2.029,2.029,0,0,1-.064-4.054Zm-1.271,1.784h2.534a1.251,1.251,0,0,0-1.271-1.288A1.288,1.288,0,0,0,244.087,233.663Z" fill="#0b79bf"/>
        <path d="M250.542,234.894a1.751,1.751,0,0,0,1.272.552c.591,0,.912-.264.912-.64,0-.424-.472-.559-.992-.688-.656-.152-1.4-.327-1.4-1.127,0-.6.52-1.112,1.439-1.112a1.948,1.948,0,0,1,1.431.561l-.28.415a1.5,1.5,0,0,0-1.151-.487c-.528,0-.856.239-.856.584,0,.375.441.5.943.615.672.152,1.448.344,1.448,1.2,0,.648-.52,1.167-1.519,1.167a2.051,2.051,0,0,1-1.559-.607Z" fill="#0b79bf"/>
        <path d="M254.343,230.92a.4.4,0,0,1,.808,0,.4.4,0,1,1-.808,0Zm.1,1.055h.6v3.862h-.6Z" fill="#0b79bf"/>
        <path d="M259.205,235.262a1.629,1.629,0,0,1-1.3.671c-1.007,0-1.718-.767-1.718-2.022,0-1.232.7-2.032,1.718-2.032a1.615,1.615,0,0,1,1.3.68V230.5h.6v5.333h-.6Zm0-2.222a1.449,1.449,0,0,0-1.159-.624c-.776,0-1.24.639-1.24,1.5s.464,1.486,1.24,1.486a1.437,1.437,0,0,0,1.159-.607Z" fill="#0b79bf"/>
        <path d="M262.846,231.879a1.876,1.876,0,0,1,1.855,2.072v.151h-3.126a1.361,1.361,0,0,0,1.391,1.336,1.685,1.685,0,0,0,1.191-.488l.288.392a2.1,2.1,0,0,1-1.535.591,2.029,2.029,0,0,1-.064-4.054Zm-1.271,1.784h2.534a1.25,1.25,0,0,0-1.271-1.288A1.289,1.289,0,0,0,261.575,233.663Z" fill="#0b79bf"/>
        <path d="M268.223,232.5h-.64v-.528h.64v-.295a1.161,1.161,0,0,1,1.7-1.12l-.152.448a.665.665,0,0,0-.344-.088c-.392,0-.608.272-.608.76v.295h.784v.528h-.784v3.334h-.6Z" fill="#0b79bf"/>
        <path d="M270.255,233.9a1.914,1.914,0,1,1,1.911,2.03A1.9,1.9,0,0,1,270.255,233.9Zm3.19,0a1.3,1.3,0,1,0-1.279,1.494A1.342,1.342,0,0,0,273.445,233.9Z" fill="#0b79bf"/>
        <path d="M275.214,231.975h.6v.624a1.642,1.642,0,0,1,1.287-.7v.616a1.058,1.058,0,0,0-.24-.024,1.413,1.413,0,0,0-1.047.616v2.734h-.6Z" fill="#0b79bf"/>
        <path d="M284.9,233.215c0-.488-.216-.8-.711-.8a1.352,1.352,0,0,0-1.024.59v2.831h-.6v-2.622c0-.488-.208-.8-.712-.8a1.351,1.351,0,0,0-1.016.6v2.822h-.6v-3.862h.6v.561a1.67,1.67,0,0,1,1.247-.657.993.993,0,0,1,1.04.72,1.627,1.627,0,0,1,1.3-.72c.7,0,1.079.393,1.079,1.168v2.79h-.6Z" fill="#0b79bf"/>
        <path d="M286.639,233.9a1.914,1.914,0,1,1,1.911,2.03A1.9,1.9,0,0,1,286.639,233.9Zm3.19,0a1.3,1.3,0,1,0-1.279,1.494A1.342,1.342,0,0,0,289.829,233.9Z" fill="#0b79bf"/>
        <path d="M291.6,231.975h.6v.624a1.645,1.645,0,0,1,1.287-.7v.616a1.042,1.042,0,0,0-.239-.024,1.417,1.417,0,0,0-1.048.616v2.734h-.6Z" fill="#0b79bf"/>
        <path d="M296.077,231.879a1.877,1.877,0,0,1,1.856,2.072v.151h-3.126a1.36,1.36,0,0,0,1.39,1.336,1.687,1.687,0,0,0,1.192-.488l.288.392a2.1,2.1,0,0,1-1.535.591,2.029,2.029,0,0,1-.065-4.054Zm-1.27,1.784h2.534a1.252,1.252,0,0,0-1.272-1.288A1.287,1.287,0,0,0,294.807,233.663Z" fill="#0b79bf"/>
        <path d="M301.183,230.92a.4.4,0,0,1,.807,0,.4.4,0,1,1-.807,0Zm.1,1.055h.6v3.862h-.6Z" fill="#0b79bf"/>
        <path d="M305.853,233.311c0-.68-.344-.9-.864-.9a1.492,1.492,0,0,0-1.143.6v2.822h-.6v-3.862h.6v.561a1.913,1.913,0,0,1,1.375-.657,1.1,1.1,0,0,1,1.231,1.248v2.71h-.6Z" fill="#0b79bf"/>
        <path d="M307.982,232.5h-.64v-.528h.64v-.295a1.161,1.161,0,0,1,1.7-1.12l-.153.448a.659.659,0,0,0-.343-.088c-.392,0-.608.272-.608.76v.295h.783v.528h-.783v3.334h-.6Z" fill="#0b79bf"/>
        <path d="M310.014,233.9a1.914,1.914,0,1,1,1.911,2.03A1.9,1.9,0,0,1,310.014,233.9Zm3.19,0a1.3,1.3,0,1,0-1.279,1.494A1.342,1.342,0,0,0,313.2,233.9Z" fill="#0b79bf"/>
        <path d="M314.974,231.975h.6v.624a1.645,1.645,0,0,1,1.287-.7v.616a1.042,1.042,0,0,0-.239-.024,1.417,1.417,0,0,0-1.048.616v2.734h-.6Z" fill="#0b79bf"/>
        <path d="M322.435,233.215c0-.488-.216-.8-.711-.8a1.354,1.354,0,0,0-1.024.59v2.831h-.6v-2.622c0-.488-.208-.8-.712-.8a1.351,1.351,0,0,0-1.016.6v2.822h-.6v-3.862h.6v.561a1.67,1.67,0,0,1,1.247-.657.993.993,0,0,1,1.04.72,1.629,1.629,0,0,1,1.295-.72c.7,0,1.079.393,1.079,1.168v2.79h-.6Z" fill="#0b79bf"/>
        <path d="M326.813,235.4a1.669,1.669,0,0,1-1.28.536,1.285,1.285,0,0,1-1.351-1.279,1.264,1.264,0,0,1,1.351-1.271,1.617,1.617,0,0,1,1.28.528v-.7c0-.519-.416-.816-.976-.816a1.535,1.535,0,0,0-1.184.536l-.279-.416a2.019,2.019,0,0,1,1.543-.64c.816,0,1.5.369,1.5,1.3v2.654h-.6Zm0-1.1a1.3,1.3,0,0,0-1.064-.479.849.849,0,1,0,0,1.686,1.3,1.3,0,0,0,1.064-.479Z" fill="#0b79bf"/>
        <path d="M328.894,235.03V232.5h-.64v-.528h.64V230.92h.6v1.055h.783v.528h-.783v2.4c0,.288.128.5.392.5a.578.578,0,0,0,.408-.159l.176.448a.981.981,0,0,1-.72.247A.79.79,0,0,1,328.894,235.03Z" fill="#0b79bf"/>
        <path d="M331.182,230.92a.4.4,0,0,1,.807,0,.4.4,0,1,1-.807,0Zm.1,1.055h.6v3.862h-.6Z" fill="#0b79bf"/>
        <path d="M333.022,233.9a1.914,1.914,0,1,1,1.911,2.03A1.9,1.9,0,0,1,333.022,233.9Zm3.19,0a1.3,1.3,0,1,0-1.279,1.494A1.342,1.342,0,0,0,336.212,233.9Z" fill="#0b79bf"/>
        <path d="M340.588,233.311c0-.68-.344-.9-.863-.9a1.494,1.494,0,0,0-1.144.6v2.822h-.6v-3.862h.6v.561a1.913,1.913,0,0,1,1.375-.657,1.1,1.1,0,0,1,1.232,1.248v2.71h-.6Z" fill="#0b79bf"/>
      </g>
    </g>
    <g>
      <path d="M15.4,165.137a1.177,1.177,0,0,0,.759.3.716.716,0,0,0,.77-.779v-4.577h1.609v4.627a1.98,1.98,0,0,1-2.219,2.159,2.252,2.252,0,0,1-1.459-.46Z" fill="#0b79bf"/>
      <path d="M22.514,166.167a1.8,1.8,0,0,1-1.429.7,1.186,1.186,0,0,1-1.329-1.31v-3.638h1.449v3.059c0,.439.2.609.56.609a.9.9,0,0,0,.749-.5v-3.168h1.439v4.828H22.514Z" fill="#0b79bf"/>
      <path d="M27.894,163.7c0-.441-.21-.62-.559-.62a.89.89,0,0,0-.75.509v3.159H25.136v-4.828h1.449v.6A1.763,1.763,0,0,1,28,161.8a1.207,1.207,0,0,1,1.339,1.329v3.619H27.894Z" fill="#0b79bf"/>
      <path d="M32.525,161.8c1.358,0,2.158,1.05,2.158,2.6v.4H31.715a.988.988,0,0,0,1.059.93,1.437,1.437,0,0,0,.99-.42l.639.87a2.566,2.566,0,0,1-1.8.69,2.546,2.546,0,0,1-.079-5.068Zm-.82,2.03h1.6c-.02-.391-.2-.89-.8-.89C31.925,162.939,31.735,163.438,31.705,163.829Z" fill="#0b79bf"/>
      <path d="M37.766,165.448c2.558-2.3,2.948-2.69,2.948-3.329a.725.725,0,0,0-.8-.709,1.8,1.8,0,0,0-1.42.709l-.939-1.03a3.029,3.029,0,0,1,2.4-1.109,2.149,2.149,0,0,1,2.389,2.119c0,.96-.589,1.749-2.239,3.238h2.289v1.41H37.766Z" fill="#0b79bf"/>
      <path d="M45.684,159.98c1.709,0,2.489,1.479,2.489,3.438s-.78,3.449-2.489,3.449-2.5-1.5-2.5-3.449S43.975,159.98,45.684,159.98Zm0,1.43c-.65,0-.859.729-.859,2.008s.209,2.019.859,2.019.85-.749.85-2.019S46.324,161.41,45.684,161.41Z" fill="#0b79bf"/>
      <path d="M51.5,164.578l-1.09,2.169H48.566l1.928-3.409-1.819-3.257h1.85l.979,2.038.969-2.038h1.859l-1.809,3.248,1.929,3.418H52.6Z" fill="#0b79bf"/>
      <path d="M57.464,164.578l-1.09,2.169H54.526l1.928-3.409-1.819-3.257h1.849l.98,2.038.969-2.038h1.859l-1.809,3.248,1.929,3.418H58.563Z" fill="#0b79bf"/>
      <path d="M63.365,160.081h4.018v1.388h-2.4v1.2h2.329v1.39H64.984v1.3h2.4v1.39H63.365Z" fill="#0b79bf"/>
      <path d="M68.435,160.081h1.449v6.666H68.435Z" fill="#0b79bf"/>
      <path d="M73.064,161.8c1.359,0,2.159,1.05,2.159,2.6v.4H72.255a.987.987,0,0,0,1.059.93,1.434,1.434,0,0,0,.989-.42l.64.87a2.568,2.568,0,0,1-1.8.69,2.546,2.546,0,0,1-.08-5.068Zm-.82,2.03h1.6c-.02-.391-.2-.89-.8-.89C72.464,162.939,72.275,163.438,72.244,163.829Z" fill="#0b79bf"/>
      <path d="M78.154,161.8a2.036,2.036,0,0,1,1.619.659l-.7.991a.928.928,0,0,0-.749-.37c-.59,0-.99.5-.99,1.249s.4,1.259.99,1.259a.912.912,0,0,0,.749-.379l.7,1a2.033,2.033,0,0,1-1.619.66,2.546,2.546,0,0,1,0-5.068Z" fill="#0b79bf"/>
      <path d="M80.825,165.5v-2.32h-.61v-1.259h.61V160.6h1.449v1.319h.779v1.259h-.779v1.959c0,.28.11.45.33.45a.494.494,0,0,0,.33-.11l.259,1.119a1.606,1.606,0,0,1-1,.271A1.2,1.2,0,0,1,80.825,165.5Z" fill="#0b79bf"/>
      <path d="M83.944,161.919h1.45v.62a1.682,1.682,0,0,1,1.289-.74v1.4a1.25,1.25,0,0,0-.31-.04,1.276,1.276,0,0,0-.979.479v3.109h-1.45Z" fill="#0b79bf"/>
      <path d="M87.4,160.47a.835.835,0,1,1,1.669,0,.835.835,0,1,1-1.669,0Zm.11,1.449h1.449v4.828H87.505Z" fill="#0b79bf"/>
      <path d="M92.173,161.8a2.04,2.04,0,0,1,1.62.659l-.7.991a.93.93,0,0,0-.75-.37c-.589,0-.989.5-.989,1.249s.4,1.259.989,1.259a.914.914,0,0,0,.75-.379l.7,1a2.037,2.037,0,0,1-1.62.66,2.546,2.546,0,0,1,0-5.068Z" fill="#0b79bf"/>
      <path d="M96.934,160.081h1.629v4.307c0,.669.32,1.06.96,1.06s.949-.391.949-1.06v-4.307H102.1v4.3a2.585,2.585,0,0,1-5.167,0Z" fill="#0b79bf"/>
      <path d="M103.544,165.187a2.313,2.313,0,0,0,1.369.57c.4,0,.6-.15.6-.389s-.3-.351-.72-.46c-.689-.191-1.659-.43-1.659-1.589,0-.81.65-1.52,1.879-1.52a2.889,2.889,0,0,1,1.779.61l-.559.969a1.817,1.817,0,0,0-1.21-.479c-.309,0-.53.13-.53.34s.261.319.68.429c.71.19,1.719.45,1.719,1.639,0,.91-.76,1.56-1.949,1.56a2.869,2.869,0,0,1-1.979-.69Z" fill="#0b79bf"/>
      <path d="M109.783,161.8c1.359,0,2.159,1.05,2.159,2.6v.4h-2.968a.988.988,0,0,0,1.059.93,1.437,1.437,0,0,0,.99-.42l.639.87a2.566,2.566,0,0,1-1.8.69,2.546,2.546,0,0,1-.08-5.068Zm-.819,2.03h1.6c-.02-.391-.2-.89-.8-.89C109.184,162.939,108.994,163.438,108.964,163.829Z" fill="#0b79bf"/>
    </g>
    <g>
      <path d="M15.276,192.263a.941.941,0,0,0,.607.239.573.573,0,0,0,.616-.623v-3.662h1.287v3.7a1.583,1.583,0,0,1-1.775,1.727,1.806,1.806,0,0,1-1.167-.367Z" fill="#0b79bf"/>
      <path d="M20.971,193.086a1.438,1.438,0,0,1-1.144.56.949.949,0,0,1-1.063-1.047v-2.911h1.159v2.447c0,.352.16.488.448.488a.716.716,0,0,0,.6-.4v-2.535h1.151v3.862H20.971Z" fill="#0b79bf"/>
      <path d="M25.275,191.112c0-.352-.168-.5-.449-.5a.713.713,0,0,0-.6.408v2.526H23.068v-3.862h1.159v.48a1.411,1.411,0,0,1,1.135-.576.967.967,0,0,1,1.072,1.064v2.894H25.275Z" fill="#0b79bf"/>
      <path d="M28.979,189.592c1.087,0,1.727.84,1.727,2.079v.32H28.331a.791.791,0,0,0,.848.744,1.145,1.145,0,0,0,.791-.336l.512.695a2.05,2.05,0,0,1-1.439.552,2.037,2.037,0,0,1-.064-4.054Zm-.656,1.623H29.6c-.016-.311-.16-.711-.64-.711C28.5,190.5,28.347,190.9,28.323,191.215Z" fill="#0b79bf"/>
      <path d="M33.172,192.511c2.046-1.84,2.358-2.151,2.358-2.663a.579.579,0,0,0-.639-.567,1.441,1.441,0,0,0-1.136.567L33,189.025a2.422,2.422,0,0,1,1.918-.888,1.719,1.719,0,0,1,1.912,1.7c0,.767-.472,1.4-1.791,2.59h1.831v1.127h-3.7Z" fill="#0b79bf"/>
      <path d="M39.506,188.137c1.368,0,1.991,1.184,1.991,2.751s-.623,2.758-1.991,2.758-2-1.2-2-2.758S38.139,188.137,39.506,188.137Zm0,1.144c-.519,0-.687.584-.687,1.607s.168,1.614.687,1.614.68-.6.68-1.614S40.018,189.281,39.506,189.281Z" fill="#0b79bf"/>
      <path d="M44.163,191.815l-.872,1.735H41.812l1.543-2.726L41.9,188.217h1.479l.784,1.631.775-1.631h1.487l-1.447,2.6,1.543,2.734H45.042Z" fill="#0b79bf"/>
      <path d="M48.931,191.815l-.872,1.735H46.58l1.543-2.726-1.455-2.607h1.479l.784,1.631.775-1.631h1.487l-1.447,2.6,1.543,2.734H49.81Z" fill="#0b79bf"/>
      <path d="M53.651,188.217h1.3v3.447c0,.535.256.847.767.847s.76-.312.76-.847v-3.447h1.3v3.439a2.068,2.068,0,0,1-4.134,0Z" fill="#0b79bf"/>
      <path d="M58.939,192.3a1.852,1.852,0,0,0,1.1.455c.32,0,.479-.119.479-.311s-.239-.28-.575-.367c-.552-.153-1.328-.345-1.328-1.272,0-.648.52-1.216,1.5-1.216a2.31,2.31,0,0,1,1.424.489l-.448.775a1.451,1.451,0,0,0-.967-.384c-.248,0-.424.1-.424.272s.208.256.543.343c.568.153,1.376.361,1.376,1.312,0,.727-.608,1.247-1.559,1.247a2.288,2.288,0,0,1-1.583-.552Z" fill="#0b79bf"/>
      <path d="M63.93,189.592c1.088,0,1.727.84,1.727,2.079v.32H63.283a.791.791,0,0,0,.847.744,1.149,1.149,0,0,0,.792-.336l.512.695a2.053,2.053,0,0,1-1.44.552,2.037,2.037,0,0,1-.064-4.054Zm-.655,1.623h1.279c-.016-.311-.16-.711-.639-.711C63.451,190.5,63.3,190.9,63.275,191.215Z" fill="#0b79bf"/>
      <path d="M69.379,189.873l-.8.815-.736-.768,1.711-1.7h1.12v5.333h-1.3Z" fill="#0b79bf"/>
      <path d="M77.5,190.136l-1.088,3.414h-.551l-1.072-3.414v3.414H73.515v-5.333h1.719l.9,2.918.912-2.918h1.7v5.333H77.5Z" fill="#0b79bf"/>
      <path d="M81.37,189.592a1.624,1.624,0,0,1,1.3.529l-.56.791a.747.747,0,0,0-.6-.3c-.471,0-.791.4-.791,1s.32,1.007.791,1.007a.732.732,0,0,0,.6-.3l.56.8a1.63,1.63,0,0,1-1.3.527,2.037,2.037,0,0,1,0-4.054Z" fill="#0b79bf"/>
      <path d="M83.514,190.7h-.495v-1.008h.495v-.231a1.191,1.191,0,0,1,1.24-1.32,1.627,1.627,0,0,1,.695.136l-.192.855a.454.454,0,0,0-.231-.063c-.216,0-.352.143-.352.407v.216H85.3V190.7h-.623v2.854h-1.16Z" fill="#0b79bf"/>
    </g>
    <g>
      <path d="M18.914,181.257H15.062v-1.863l3.222-5.686h2.9v5.575h.91v1.974h-.91v1.793h-2.27Zm-1.821-1.974h1.821v-3.321Z" fill="#0b79bf"/>
      <path d="M24.5,180.711a1.247,1.247,0,1,1-1.261,1.247A1.268,1.268,0,0,1,24.5,180.711Z" fill="#0b79bf"/>
      <path d="M28.167,180.319a2.767,2.767,0,0,0,2.017.938c.9,0,1.288-.448,1.288-1.008,0-.672-.49-.953-1.372-.953-.323,0-.785.014-.939.029v-1.99c.154.014.658.014.883.014.812,0,1.3-.294,1.3-.883,0-.616-.5-.938-1.26-.938a2.517,2.517,0,0,0-1.863.869l-1.233-1.3a3.939,3.939,0,0,1,3.292-1.527c2.017,0,3.278.911,3.278,2.55a2.2,2.2,0,0,1-1.807,2.115,2.247,2.247,0,0,1,1.946,2.226c0,1.64-1.358,2.76-3.417,2.76a4.238,4.238,0,0,1-3.418-1.484Z" fill="#0b79bf"/>
      <path d="M45.306,177.069l-1.9,5.981h-.967l-1.877-5.981v5.981H38.33v-9.342h3.011l1.583,5.112,1.6-5.112h2.984v9.342h-2.2Z" fill="#0b79bf"/>
      <path d="M52.079,176.117a2.847,2.847,0,0,1,2.269.925l-.98,1.386a1.306,1.306,0,0,0-1.05-.518c-.827,0-1.387.7-1.387,1.751s.56,1.764,1.387,1.764a1.281,1.281,0,0,0,1.05-.532l.98,1.4a2.847,2.847,0,0,1-2.269.925,3.567,3.567,0,0,1,0-7.1Z" fill="#0b79bf"/>
      <path d="M55.83,178.049h-.868v-1.764h.868v-.407A2.085,2.085,0,0,1,58,173.567a2.865,2.865,0,0,1,1.219.238l-.337,1.5a.8.8,0,0,0-.406-.112c-.378,0-.616.252-.616.715v.378h1.092v1.764H57.861v5H55.83Z" fill="#0b79bf"/>
    </g>
    <g>
      <path d="M191.825,163.418c0-2.039,1.129-3.448,2.908-3.448a2.439,2.439,0,0,1,2.389,1.749l-1.329.57a1.13,1.13,0,0,0-1.06-.889c-.79,0-1.259.85-1.259,2.018s.469,2.019,1.259,2.019a1.153,1.153,0,0,0,1.06-.959l1.339.569a2.485,2.485,0,0,1-2.4,1.82C192.954,166.867,191.825,165.448,191.825,163.418Z" fill="#0b79bf"/>
      <path d="M197.715,164.328A2.305,2.305,0,1,1,200,166.867,2.3,2.3,0,0,1,197.715,164.328Zm3.1,0c0-.7-.25-1.249-.809-1.249s-.8.549-.8,1.249.25,1.259.8,1.259S200.813,165.038,200.813,164.328Z" fill="#0b79bf"/>
      <path d="M203.444,165.187a2.316,2.316,0,0,0,1.37.57c.4,0,.6-.15.6-.389s-.3-.351-.72-.46c-.689-.191-1.658-.43-1.658-1.589,0-.81.649-1.52,1.879-1.52a2.893,2.893,0,0,1,1.779.61l-.56.969a1.817,1.817,0,0,0-1.21-.479c-.309,0-.529.13-.529.34s.26.319.679.429c.71.19,1.72.45,1.72,1.639,0,.91-.76,1.56-1.95,1.56a2.866,2.866,0,0,1-1.978-.69Z" fill="#0b79bf"/>
      <path d="M207.914,165.5v-2.32h-.61v-1.259h.61V160.6h1.449v1.319h.78v1.259h-.78v1.959c0,.28.11.45.33.45a.494.494,0,0,0,.33-.11l.26,1.119a1.61,1.61,0,0,1-1,.271A1.205,1.205,0,0,1,207.914,165.5Z" fill="#0b79bf"/>
      <path d="M213.314,168.585v-6.666h1.449v.57a1.373,1.373,0,0,1,1.189-.69c1.09,0,1.809.92,1.809,2.529,0,1.589-.719,2.539-1.809,2.539a1.364,1.364,0,0,1-1.189-.69v2.408Zm2.149-5.506a.834.834,0,0,0-.7.439v1.619a.866.866,0,0,0,.7.45c.529,0,.819-.509.819-1.259S215.992,163.079,215.463,163.079Z" fill="#0b79bf"/>
      <path d="M220.693,161.8c1.359,0,2.159,1.05,2.159,2.6v.4h-2.969a.989.989,0,0,0,1.06.93,1.434,1.434,0,0,0,.989-.42l.64.87a2.569,2.569,0,0,1-1.8.69,2.546,2.546,0,0,1-.08-5.068Zm-.82,2.03h1.6c-.02-.391-.2-.89-.8-.89C220.093,162.939,219.9,163.438,219.873,163.829Z" fill="#0b79bf"/>
      <path d="M223.734,161.919h1.449v.62a1.682,1.682,0,0,1,1.289-.74v1.4a1.25,1.25,0,0,0-.31-.04,1.276,1.276,0,0,0-.979.479v3.109h-1.449Z" fill="#0b79bf"/>
      <path d="M232.332,166.177a1.422,1.422,0,0,1-1.2.69c-1.08,0-1.809-.92-1.809-2.539,0-1.559.72-2.529,1.809-2.529a1.4,1.4,0,0,1,1.2.69v-2.408h1.439v6.666h-1.439Zm0-2.659a.884.884,0,0,0-.709-.439c-.53,0-.82.509-.82,1.249s.29,1.259.82,1.259a.9.9,0,0,0,.709-.45Z" fill="#0b79bf"/>
      <path d="M237.463,166.277a1.627,1.627,0,0,1-1.27.59,1.5,1.5,0,0,1-1.509-1.6,1.431,1.431,0,0,1,1.509-1.539,1.594,1.594,0,0,1,1.27.55v-.56a.745.745,0,0,0-.85-.75,1.848,1.848,0,0,0-1.19.5l-.509-.969a3.006,3.006,0,0,1,1.979-.7c1.1,0,2.008.47,2.008,1.769v3.179h-1.438Zm0-1.23a.793.793,0,0,0-.7-.38.625.625,0,1,0,0,1.25.792.792,0,0,0,.7-.379Z" fill="#0b79bf"/>
      <path d="M240.563,167.426c.25,0,.43-.08.5-.28l.11-.31-1.639-4.917h1.529l.85,3.088.869-3.088h1.529l-1.868,5.547a1.613,1.613,0,0,1-1.77,1.24,2.58,2.58,0,0,1-.629-.081l.2-1.269A.657.657,0,0,0,240.563,167.426Z" fill="#0b79bf"/>
      <path d="M245.783,161.849a.895.895,0,1,1-.9.89A.9.9,0,0,1,245.783,161.849Zm0,3.229a.89.89,0,1,1-.9.889A.9.9,0,0,1,245.783,165.078Z" fill="#0b79bf"/>
    </g>
    <g>
      <path d="M196.044,183.148v1.3h-1.471V183.19A4.412,4.412,0,0,1,191.8,182l1.079-1.737a3.138,3.138,0,0,0,2.269.994c.672,0,1.079-.35,1.079-.812,0-.561-.547-.826-1.331-1.12-1.2-.435-2.815-.953-2.815-2.928a2.808,2.808,0,0,1,2.493-2.773v-1.332h1.471v1.3a4.375,4.375,0,0,1,2.311,1.023l-1.037,1.68a2.991,2.991,0,0,0-1.975-.77c-.644,0-.952.322-.952.743,0,.5.532.756,1.344,1.05,1.191.434,2.788,1.023,2.788,2.914A2.817,2.817,0,0,1,196.044,183.148Z" fill="#0b79bf"/>
      <path d="M201.88,176.607l-1.4,1.429-1.289-1.345,3-2.983h1.961v9.342h-2.27Z" fill="#0b79bf"/>
      <path d="M207.032,180.711a1.247,1.247,0,1,1-1.26,1.247A1.268,1.268,0,0,1,207.032,180.711Z" fill="#0b79bf"/>
      <path d="M209.734,181.229c3.585-3.222,4.131-3.768,4.131-4.664a1.016,1.016,0,0,0-1.12-1,2.518,2.518,0,0,0-1.989,1l-1.317-1.443a4.244,4.244,0,0,1,3.362-1.555c1.975,0,3.348,1.177,3.348,2.97,0,1.344-.827,2.451-3.138,4.539h3.208v1.974h-6.485Z" fill="#0b79bf"/>
      <path d="M221.089,181.257h-3.852v-1.863l3.222-5.686h2.9v5.575h.91v1.974h-.91v1.793h-2.27Zm-1.821-1.974h1.821v-3.321Z" fill="#0b79bf"/>
    </g>
    <g>
      <path d="M292.646,162.479l-1.36,4.268H290.6l-1.339-4.268v4.268h-1.59v-6.666h2.15l1.128,3.647,1.14-3.647h2.129v6.666h-1.569Z" fill="#0b79bf"/>
      <path d="M297.487,161.8a2.038,2.038,0,0,1,1.62.659l-.7.991a.929.929,0,0,0-.75-.37c-.589,0-.989.5-.989,1.249s.4,1.259.989,1.259a.912.912,0,0,0,.75-.379l.7,1a2.035,2.035,0,0,1-1.62.66,2.546,2.546,0,0,1,0-5.068Z" fill="#0b79bf"/>
      <path d="M300.168,163.178h-.619v-1.259h.619v-.29a1.487,1.487,0,0,1,1.549-1.649,2.058,2.058,0,0,1,.87.17l-.24,1.069a.573.573,0,0,0-.29-.079c-.27,0-.44.18-.44.509v.27h.78v1.259h-.78v3.569h-1.449Z" fill="#0b79bf"/>
      <path d="M305.468,168.585v-6.666h1.449v.57a1.374,1.374,0,0,1,1.19-.69c1.089,0,1.809.92,1.809,2.529,0,1.589-.72,2.539-1.809,2.539a1.364,1.364,0,0,1-1.19-.69v2.408Zm2.149-5.506a.837.837,0,0,0-.7.439v1.619a.869.869,0,0,0,.7.45c.53,0,.82-.509.82-1.259S308.147,163.079,307.617,163.079Z" fill="#0b79bf"/>
      <path d="M312.847,161.8c1.359,0,2.159,1.05,2.159,2.6v.4h-2.969a.99.99,0,0,0,1.06.93,1.434,1.434,0,0,0,.989-.42l.64.87a2.569,2.569,0,0,1-1.8.69,2.546,2.546,0,0,1-.08-5.068Zm-.82,2.03h1.6c-.02-.391-.2-.89-.8-.89C312.247,162.939,312.058,163.438,312.027,163.829Z" fill="#0b79bf"/>
      <path d="M315.888,161.919h1.449v.62a1.684,1.684,0,0,1,1.289-.74v1.4a1.235,1.235,0,0,0-.309-.04,1.276,1.276,0,0,0-.98.479v3.109h-1.449Z" fill="#0b79bf"/>
      <path d="M324.486,166.177a1.422,1.422,0,0,1-1.2.69c-1.079,0-1.809-.92-1.809-2.539,0-1.559.719-2.529,1.809-2.529a1.4,1.4,0,0,1,1.2.69v-2.408h1.44v6.666h-1.44Zm0-2.659a.884.884,0,0,0-.71-.439c-.529,0-.819.509-.819,1.249s.29,1.259.819,1.259a.9.9,0,0,0,.71-.45Z" fill="#0b79bf"/>
      <path d="M329.616,166.277a1.621,1.621,0,0,1-1.268.59,1.5,1.5,0,0,1-1.51-1.6,1.432,1.432,0,0,1,1.51-1.539,1.591,1.591,0,0,1,1.268.55v-.56a.744.744,0,0,0-.849-.75,1.85,1.85,0,0,0-1.19.5l-.509-.969a3.008,3.008,0,0,1,1.979-.7c1.1,0,2.009.47,2.009,1.769v3.179h-1.44Zm0-1.23a.79.79,0,0,0-.7-.38.625.625,0,1,0,0,1.25.789.789,0,0,0,.7-.379Z" fill="#0b79bf"/>
      <path d="M332.718,167.426c.25,0,.43-.08.5-.28l.11-.31-1.638-4.917h1.528l.85,3.088.87-3.088h1.529l-1.869,5.547a1.612,1.612,0,0,1-1.77,1.24,2.587,2.587,0,0,1-.629-.081l.2-1.269A.657.657,0,0,0,332.718,167.426Z" fill="#0b79bf"/>
      <path d="M337.937,161.849a.895.895,0,1,1-.9.89A.9.9,0,0,1,337.937,161.849Zm0,3.229a.89.89,0,1,1-.9.889A.9.9,0,0,1,337.937,165.078Z" fill="#0b79bf"/>
    </g>
    <g>
      <path d="M290.992,173.567c2.395,0,3.488,2.073,3.488,4.819s-1.093,4.832-3.488,4.832-3.5-2.1-3.5-4.832S288.6,173.567,290.992,173.567Zm0,2c-.911,0-1.205,1.023-1.205,2.816s.294,2.829,1.205,2.829,1.191-1.05,1.191-2.829S291.889,175.57,290.992,175.57Z" fill="#0b79bf"/>
      <path d="M296.717,180.711a1.247,1.247,0,1,1-1.261,1.247A1.268,1.268,0,0,1,296.717,180.711Z" fill="#0b79bf"/>
      <path d="M300.077,176.607l-1.4,1.429-1.288-1.345,3-2.983h1.961v9.342h-2.269Z" fill="#0b79bf"/>
      <path d="M307.5,181.257h-3.851v-1.863l3.221-5.686h2.9v5.575h.91v1.974h-.91v1.793H307.5Zm-1.821-1.974H307.5v-3.321Z" fill="#0b79bf"/>
      <path d="M312.76,180.319a2.769,2.769,0,0,0,2.017.938c.9,0,1.29-.448,1.29-1.008,0-.672-.491-.953-1.374-.953-.322,0-.784.014-.938.029v-1.99c.154.014.658.014.883.014.811,0,1.3-.294,1.3-.883,0-.616-.5-.938-1.261-.938a2.517,2.517,0,0,0-1.863.869l-1.233-1.3a3.938,3.938,0,0,1,3.291-1.527c2.018,0,3.278.911,3.278,2.55a2.2,2.2,0,0,1-1.807,2.115,2.247,2.247,0,0,1,1.947,2.226c0,1.64-1.358,2.76-3.418,2.76a4.238,4.238,0,0,1-3.417-1.484Z" fill="#0b79bf"/>
    </g>
    <g>
      <path d="M382.572,160.081h2.679a2.184,2.184,0,0,1,0,4.367h-1.059v2.3h-1.62Zm2.48,1.388h-.86v1.59h.86a.8.8,0,0,0,0-1.59Z" fill="#0b79bf"/>
      <path d="M388.292,161.919h1.449v.62a1.684,1.684,0,0,1,1.289-.74v1.4a1.235,1.235,0,0,0-.309-.04,1.278,1.278,0,0,0-.98.479v3.109h-1.449Z" fill="#0b79bf"/>
      <path d="M391.743,160.47a.835.835,0,1,1,1.669,0,.835.835,0,1,1-1.669,0Zm.11,1.449H393.3v4.828h-1.449Z" fill="#0b79bf"/>
      <path d="M394.223,164.328a2.306,2.306,0,1,1,2.289,2.539A2.3,2.3,0,0,1,394.223,164.328Zm3.1,0c0-.7-.25-1.249-.809-1.249s-.8.549-.8,1.249.25,1.259.8,1.259S397.321,165.038,397.321,164.328Z" fill="#0b79bf"/>
      <path d="M399.733,161.919h1.449v.62a1.682,1.682,0,0,1,1.289-.74v1.4a1.244,1.244,0,0,0-.31-.04,1.276,1.276,0,0,0-.979.479v3.109h-1.449Z" fill="#0b79bf"/>
      <path d="M407.062,162.149l-1,1.019-.92-.959,2.138-2.128h1.4v6.666h-1.619Z" fill="#0b79bf"/>
      <path d="M409.822,165.448c2.559-2.3,2.95-2.69,2.95-3.329a.725.725,0,0,0-.8-.709,1.8,1.8,0,0,0-1.42.709l-.94-1.03a3.035,3.035,0,0,1,2.4-1.109A2.149,2.149,0,0,1,414.4,162.1c0,.96-.59,1.749-2.24,3.238h2.289v1.41h-4.628Z" fill="#0b79bf"/>
      <path d="M423.039,163.628c0-.349-.139-.549-.479-.549a.888.888,0,0,0-.72.509v3.159H420.4v-3.119c0-.33-.13-.549-.49-.549a.887.887,0,0,0-.71.509v3.159h-1.449v-4.828H419.2v.6a1.757,1.757,0,0,1,1.38-.72,1.114,1.114,0,0,1,1.2.829,1.759,1.759,0,0,1,1.439-.829,1.149,1.149,0,0,1,1.269,1.289v3.659h-1.449Z" fill="#0b79bf"/>
      <path d="M425.411,164.328a2.306,2.306,0,1,1,2.289,2.539A2.3,2.3,0,0,1,425.411,164.328Zm3.1,0c0-.7-.25-1.249-.81-1.249s-.8.549-.8,1.249.25,1.259.8,1.259S428.51,165.038,428.51,164.328Z" fill="#0b79bf"/>
      <path d="M433.681,163.7c0-.441-.21-.62-.56-.62a.891.891,0,0,0-.75.509v3.159h-1.449v-4.828h1.449v.6a1.765,1.765,0,0,1,1.42-.72,1.208,1.208,0,0,1,1.339,1.329v3.619h-1.449Z" fill="#0b79bf"/>
      <path d="M436.542,165.5v-2.32h-.609v-1.259h.609V160.6h1.449v1.319h.78v1.259h-.78v1.959c0,.28.11.45.33.45a.494.494,0,0,0,.33-.11l.259,1.119a1.6,1.6,0,0,1-1,.271A1.205,1.205,0,0,1,436.542,165.5Z" fill="#0b79bf"/>
      <path d="M442.43,163.678c0-.439-.21-.6-.57-.6a.906.906,0,0,0-.75.509v3.159h-1.439v-6.666h1.439v2.438a1.788,1.788,0,0,1,1.43-.72,1.186,1.186,0,0,1,1.329,1.31v3.638H442.43Z" fill="#0b79bf"/>
      <path d="M445.271,165.187a2.316,2.316,0,0,0,1.37.57c.4,0,.6-.15.6-.389s-.3-.351-.719-.46c-.69-.191-1.66-.43-1.66-1.589,0-.81.65-1.52,1.879-1.52a2.894,2.894,0,0,1,1.78.61l-.561.969a1.812,1.812,0,0,0-1.209-.479c-.309,0-.529.13-.529.34s.26.319.68.429c.708.19,1.718.45,1.718,1.639,0,.91-.76,1.56-1.949,1.56a2.865,2.865,0,0,1-1.978-.69Z" fill="#0b79bf"/>
      <path d="M452.281,167a1.693,1.693,0,0,0,1.24.5.946.946,0,0,0,1.009-1.05v-.49a1.4,1.4,0,0,1-1.189.7c-1.08,0-1.81-.82-1.81-2.429,0-1.569.72-2.429,1.81-2.429a1.373,1.373,0,0,1,1.189.69v-.57h1.439v4.5a2.113,2.113,0,0,1-2.378,2.289,2.675,2.675,0,0,1-1.859-.63Zm2.249-3.479a.854.854,0,0,0-.7-.439c-.529,0-.819.42-.819,1.149s.29,1.159.819,1.159a.843.843,0,0,0,.7-.449Z" fill="#0b79bf"/>
      <path d="M459.67,166.277a1.623,1.623,0,0,1-1.269.59,1.5,1.5,0,0,1-1.509-1.6,1.431,1.431,0,0,1,1.509-1.539,1.592,1.592,0,0,1,1.269.55v-.56a.745.745,0,0,0-.85-.75,1.843,1.843,0,0,0-1.188.5l-.51-.969a3.006,3.006,0,0,1,1.979-.7c1.1,0,2.008.47,2.008,1.769v3.179H459.67Zm0-1.23a.791.791,0,0,0-.7-.38.625.625,0,1,0,0,1.25.79.79,0,0,0,.7-.379Z" fill="#0b79bf"/>
      <path d="M462.5,165.187a2.316,2.316,0,0,0,1.37.57c.4,0,.6-.15.6-.389s-.3-.351-.72-.46c-.689-.191-1.659-.43-1.659-1.589,0-.81.649-1.52,1.879-1.52a2.893,2.893,0,0,1,1.779.61l-.56.969a1.815,1.815,0,0,0-1.209-.479c-.31,0-.53.13-.53.34s.26.319.68.429c.709.19,1.719.45,1.719,1.639,0,.91-.76,1.56-1.949,1.56a2.865,2.865,0,0,1-1.979-.69Z" fill="#0b79bf"/>
      <path d="M471.77,166.167a1.8,1.8,0,0,1-1.43.7,1.187,1.187,0,0,1-1.329-1.31v-3.638h1.449v3.059c0,.439.2.609.56.609a.9.9,0,0,0,.75-.5v-3.168h1.439v4.828H471.77Z" fill="#0b79bf"/>
      <path d="M474.61,165.187a2.322,2.322,0,0,0,1.371.57c.4,0,.6-.15.6-.389s-.3-.351-.72-.46c-.689-.191-1.659-.43-1.659-1.589,0-.81.65-1.52,1.879-1.52a2.891,2.891,0,0,1,1.779.61l-.56.969a1.812,1.812,0,0,0-1.209-.479c-.31,0-.529.13-.529.34s.259.319.679.429c.709.19,1.719.45,1.719,1.639,0,.91-.76,1.56-1.949,1.56a2.869,2.869,0,0,1-1.979-.69Z" fill="#0b79bf"/>
      <path d="M480.85,161.8c1.359,0,2.159,1.05,2.159,2.6v.4H480.04a.99.99,0,0,0,1.06.93,1.434,1.434,0,0,0,.989-.42l.64.87a2.569,2.569,0,0,1-1.8.69,2.546,2.546,0,0,1-.08-5.068Zm-.82,2.03h1.6c-.021-.391-.2-.89-.8-.89C480.25,162.939,480.061,163.438,480.03,163.829Z" fill="#0b79bf"/>
      <path d="M484.731,161.849a.895.895,0,1,1-.9.89A.9.9,0,0,1,484.731,161.849Zm0,3.229a.89.89,0,1,1-.9.889A.9.9,0,0,1,484.731,165.078Z" fill="#0b79bf"/>
    </g>
    <g>
      <path d="M384.8,176.607l-1.4,1.429-1.288-1.345,3-2.983h1.961v9.342H384.8Z" fill="#0b79bf"/>
      <path d="M390.207,178.232a2.3,2.3,0,0,1-1.625-2.2c0-1.751,1.694-2.466,3.319-2.466s3.321.715,3.321,2.466a2.317,2.317,0,0,1-1.64,2.2,2.671,2.671,0,0,1,1.766,2.381c0,1.722-1.486,2.6-3.447,2.6s-3.445-.868-3.445-2.591A2.66,2.66,0,0,1,390.207,178.232Zm1.694.9c-.391.056-1.176.462-1.176,1.191,0,.63.5.967,1.176.967s1.177-.337,1.177-.967C393.078,179.59,392.279,179.184,391.9,179.128Zm0-3.628c-.658,0-1.05.35-1.05.924,0,.631.7.967,1.05,1.037.351-.07,1.051-.406,1.051-1.037C392.952,175.85,392.546,175.5,391.9,175.5Z" fill="#0b79bf"/>
      <path d="M397.738,180.613a1.792,1.792,0,0,0,1.415.631c1.008,0,1.779-.981,1.779-2.368v-.112a2.285,2.285,0,0,1-1.947,1.093,2.754,2.754,0,0,1-2.7-3.054,3.127,3.127,0,0,1,3.25-3.25c2.592,0,3.684,2.171,3.684,4.819,0,2.941-1.54,4.833-4.034,4.833a3.621,3.621,0,0,1-2.493-.939Zm1.919-5.1a1.1,1.1,0,0,0-1.078,1.191,1.118,1.118,0,0,0,1.149,1.26,1.5,1.5,0,0,0,1.2-.728C400.876,176.439,400.6,175.514,399.657,175.514Z" fill="#0b79bf"/>
      <path d="M414.779,177.069l-1.9,5.981h-.967l-1.877-5.981v5.981H407.8v-9.342h3.012l1.583,5.112,1.6-5.112h2.984v9.342h-2.2Z" fill="#0b79bf"/>
      <path d="M421.553,176.117a2.847,2.847,0,0,1,2.269.925l-.98,1.386a1.31,1.31,0,0,0-1.051-.518c-.826,0-1.387.7-1.387,1.751s.561,1.764,1.387,1.764a1.284,1.284,0,0,0,1.051-.532l.98,1.4a2.847,2.847,0,0,1-2.269.925,3.567,3.567,0,0,1,0-7.1Z" fill="#0b79bf"/>
      <path d="M425.3,178.049h-.868v-1.764h.868v-.407a2.085,2.085,0,0,1,2.171-2.311,2.86,2.86,0,0,1,1.218.238l-.335,1.5a.809.809,0,0,0-.407-.112c-.378,0-.616.252-.616.715v.378h1.093v1.764h-1.093v5H425.3Z" fill="#0b79bf"/>
    </g>
    <g>
      <path d="M49.407,128.784a1.361,1.361,0,0,0,1,.444.975.975,0,0,0,1.043-1.079v-5.637h1.607V128.2a2.25,2.25,0,0,1-2.494,2.459,2.464,2.464,0,0,1-1.727-.612Z" fill="#2f2e2c"/>
      <path d="M57.9,129.78a2.115,2.115,0,0,1-1.7.875,1.386,1.386,0,0,1-1.547-1.559v-4.378H56.09v3.826c0,.612.288.839.768.839a1.27,1.27,0,0,0,1.043-.707v-3.958H59.34v5.793H57.9Z" fill="#2f2e2c"/>
      <path d="M60.891,122.512H62.33v8H60.891Z" fill="#2f2e2c"/>
    </g>
    <g>
      <path d="M87.643,129.084H85.029l-.372,1.427H82.99l2.374-8h1.943l2.375,8H88.015Zm-2.29-1.4h1.966l-.983-3.741Z" fill="#2f2e2c"/>
      <path d="M93.728,129.78a2.117,2.117,0,0,1-1.7.875,1.386,1.386,0,0,1-1.548-1.559v-4.378h1.44v3.826c0,.612.287.839.767.839a1.271,1.271,0,0,0,1.044-.707v-3.958h1.439v5.793H93.728Z" fill="#2f2e2c"/>
      <path d="M97.233,131.015a1.933,1.933,0,0,0,1.487.636,1.215,1.215,0,0,0,1.3-1.367v-.708a1.741,1.741,0,0,1-1.463.887c-1.3,0-2.135-1.043-2.135-2.938,0-1.858.84-2.95,2.135-2.95a1.66,1.66,0,0,1,1.463.875v-.732h1.44v5.493a2.393,2.393,0,0,1-2.663,2.651,2.981,2.981,0,0,1-2.135-.744Zm2.782-4.485a1.186,1.186,0,0,0-1-.684c-.732,0-1.116.672-1.116,1.679s.384,1.667,1.116,1.667a1.2,1.2,0,0,0,1-.672Z" fill="#2f2e2c"/>
    </g>
    <g>
      <path d="M123.111,128.388a2.616,2.616,0,0,0,1.919.852c.72,0,1.1-.4,1.1-.888,0-.611-.576-.875-1.307-1.187-1.008-.4-2.267-.875-2.267-2.458a2.4,2.4,0,0,1,2.638-2.328,3.464,3.464,0,0,1,2.423.888l-.767,1.2a2.446,2.446,0,0,0-1.692-.671c-.6,0-.959.336-.959.815,0,.541.552.792,1.271,1.092,1.031.408,2.291.935,2.291,2.519a2.406,2.406,0,0,1-2.711,2.434,3.7,3.7,0,0,1-2.734-1.031Z" fill="#2f2e2c"/>
      <path d="M131.295,124.575c1.595,0,2.494,1.3,2.494,3.093v.409h-3.634a1.378,1.378,0,0,0,1.4,1.415,1.752,1.752,0,0,0,1.26-.564l.659.864a2.821,2.821,0,0,1-2.075.863c-1.631,0-2.7-1.223-2.7-3.046C128.7,125.93,129.687,124.575,131.295,124.575Zm-1.14,2.518H132.4c-.024-.6-.288-1.355-1.127-1.355C130.467,125.738,130.179,126.494,130.155,127.093Z" fill="#2f2e2c"/>
      <path d="M135,132.718v-8h1.44v.732a1.726,1.726,0,0,1,1.463-.875c1.307,0,2.146,1.138,2.146,3.034s-.839,3.046-2.146,3.046a1.69,1.69,0,0,1-1.463-.875v2.938Zm2.435-6.872a1.2,1.2,0,0,0-.995.672V128.7a1.244,1.244,0,0,0,.995.683c.743,0,1.127-.755,1.127-1.774S138.181,125.846,137.438,125.846Z" fill="#2f2e2c"/>
    </g>
    <g>
      <path d="M164.132,122.379c2.1,0,3.346,1.764,3.346,4.139s-1.247,4.137-3.346,4.137-3.334-1.75-3.334-4.137S162.046,122.379,164.132,122.379Zm0,1.428c-1.091,0-1.679,1.163-1.679,2.711,0,1.523.588,2.71,1.679,2.71s1.7-1.187,1.7-2.71C165.835,124.97,165.235,123.807,164.132,123.807Z" fill="#2f2e2c"/>
      <path d="M171.129,124.575a2.306,2.306,0,0,1,1.846.779l-.72,1a1.209,1.209,0,0,0-.971-.5c-.827,0-1.319.756-1.319,1.763s.492,1.774,1.319,1.774a1.208,1.208,0,0,0,.971-.5l.72,1a2.3,2.3,0,0,1-1.846.78c-1.6,0-2.651-1.272-2.651-3.046A2.73,2.73,0,0,1,171.129,124.575Z" fill="#2f2e2c"/>
      <path d="M174.334,129.12v-3.143h-.756v-1.259h.756v-1.583h1.439v1.583h.96v1.259h-.96v2.807c0,.372.144.6.42.6a.573.573,0,0,0,.432-.168l.3,1.1a1.662,1.662,0,0,1-1.115.336C174.8,130.655,174.334,130.139,174.334,129.12Z" fill="#2f2e2c"/>
    </g>
    <g>
      <path d="M236.806,122.512h2.578c2.207,0,3.478,1.655,3.478,4.006s-1.259,3.993-3.478,3.993h-2.578Zm2.578,6.584c1.188,0,1.835-1.055,1.835-2.578,0-1.584-.623-2.592-1.835-2.592h-.971v5.17Z" fill="#2f2e2c"/>
      <path d="M246.453,124.575c1.595,0,2.494,1.3,2.494,3.093v.409h-3.634a1.378,1.378,0,0,0,1.4,1.415,1.752,1.752,0,0,0,1.26-.564l.659.864a2.82,2.82,0,0,1-2.074.863c-1.632,0-2.7-1.223-2.7-3.046C243.862,125.93,244.845,124.575,246.453,124.575Zm-1.14,2.518h2.243c-.024-.6-.288-1.355-1.127-1.355C245.625,125.738,245.337,126.494,245.313,127.093Z" fill="#2f2e2c"/>
      <path d="M252.512,124.575a2.307,2.307,0,0,1,1.847.779l-.719,1a1.212,1.212,0,0,0-.972-.5c-.828,0-1.319.756-1.319,1.763s.491,1.774,1.319,1.774a1.211,1.211,0,0,0,.972-.5l.719,1a2.3,2.3,0,0,1-1.847.78c-1.595,0-2.651-1.272-2.651-3.046A2.73,2.73,0,0,1,252.512,124.575Z" fill="#2f2e2c"/>
    </g>
    <g>
      <path d="M199.323,125.415v5.1h-1.595v-8h1.631l2.626,4.893v-4.893h1.607v8h-1.535Z" fill="#2f2e2c"/>
      <path d="M204.892,127.609c0-1.619.911-3.034,2.614-3.034,1.728,0,2.627,1.415,2.627,3.034s-.9,3.046-2.627,3.046C205.8,130.655,204.892,129.24,204.892,127.609Zm3.754,0c0-.948-.348-1.763-1.14-1.763-.767,0-1.115.815-1.115,1.763s.348,1.774,1.115,1.774C208.3,129.383,208.646,128.569,208.646,127.609Z" fill="#2f2e2c"/>
      <path d="M210.712,124.718h1.535l1.163,4.066,1.176-4.066h1.535l-1.931,5.793h-1.547Z" fill="#2f2e2c"/>
    </g>
    <g>
      <path d="M275.235,128.784a1.362,1.362,0,0,0,1,.444.975.975,0,0,0,1.043-1.079v-5.637h1.607V128.2a2.25,2.25,0,0,1-2.5,2.459,2.466,2.466,0,0,1-1.727-.612Z" fill="#2f2e2c"/>
      <path d="M283.478,129.936a1.9,1.9,0,0,1-1.523.719,1.8,1.8,0,0,1-1.787-1.918,1.732,1.732,0,0,1,1.787-1.871,1.838,1.838,0,0,1,1.523.683v-.767a.951.951,0,0,0-1.068-1.008,2.023,2.023,0,0,0-1.426.623l-.541-.982a3.286,3.286,0,0,1,2.231-.84c1.26,0,2.255.563,2.255,2.05v3.886h-1.451Zm0-1.548a1.12,1.12,0,0,0-.972-.563.872.872,0,0,0-.9.935.863.863,0,0,0,.9.924,1.083,1.083,0,0,0,.972-.553Z" fill="#2f2e2c"/>
      <path d="M289.73,126.7c0-.613-.276-.852-.756-.852a1.308,1.308,0,0,0-1.055.719v3.946H286.48v-5.793h1.439v.756a2.149,2.149,0,0,1,1.7-.9,1.407,1.407,0,0,1,1.547,1.583v4.353H289.73Z" fill="#2f2e2c"/>
    </g>
    <g>
      <path d="M312.55,122.512h4.581v1.4h-2.974v1.835h2.89v1.391h-2.89v3.37H312.55Z" fill="#2f2e2c"/>
      <path d="M320.708,124.575c1.6,0,2.495,1.3,2.495,3.093v.409h-3.635a1.38,1.38,0,0,0,1.4,1.415,1.754,1.754,0,0,0,1.26-.564l.659.864a2.822,2.822,0,0,1-2.074.863c-1.632,0-2.7-1.223-2.7-3.046C318.117,125.93,319.1,124.575,320.708,124.575Zm-1.14,2.518h2.244c-.025-.6-.288-1.355-1.127-1.355C319.881,125.738,319.593,126.494,319.568,127.093Z" fill="#2f2e2c"/>
      <path d="M324.417,122.512h1.44v2.938a1.675,1.675,0,0,1,1.463-.875c1.307,0,2.147,1.187,2.147,3.046,0,1.895-.852,3.034-2.147,3.034a1.742,1.742,0,0,1-1.463-.875v.731h-1.44Zm2.447,6.871c.732,0,1.116-.755,1.116-1.762s-.384-1.775-1.116-1.775a1.238,1.238,0,0,0-1.007.7V128.7A1.223,1.223,0,0,0,326.864,129.383Z" fill="#2f2e2c"/>
    </g>
    <g>
      <path d="M356.364,125.018l-1.8,5.493h-.66l-1.775-5.493v5.493h-1.6v-8h2.159l1.548,4.8,1.559-4.8h2.146v8h-1.582Z" fill="#2f2e2c"/>
      <path d="M362.545,129.936a1.9,1.9,0,0,1-1.522.719,1.8,1.8,0,0,1-1.788-1.918,1.733,1.733,0,0,1,1.788-1.871,1.836,1.836,0,0,1,1.522.683v-.767a.951.951,0,0,0-1.067-1.008,2.029,2.029,0,0,0-1.428.623l-.539-.982a3.28,3.28,0,0,1,2.23-.84c1.26,0,2.255.563,2.255,2.05v3.886h-1.451Zm0-1.548a1.119,1.119,0,0,0-.972-.563.872.872,0,0,0-.9.935.863.863,0,0,0,.9.924,1.082,1.082,0,0,0,.972-.553Z" fill="#2f2e2c"/>
      <path d="M365.546,124.718h1.439v.8a1.976,1.976,0,0,1,1.584-.936v1.4a1.418,1.418,0,0,0-.347-.036,1.609,1.609,0,0,0-1.237.7v3.862h-1.439Z" fill="#2f2e2c"/>
    </g>
    <g>
      <path d="M393.4,129.084h-2.614l-.372,1.427h-1.667l2.374-8h1.944l2.375,8h-1.667Zm-2.291-1.4h1.967l-.983-3.741Z" fill="#2f2e2c"/>
      <path d="M396.32,132.718v-8h1.44v.732a1.726,1.726,0,0,1,1.463-.875c1.307,0,2.146,1.138,2.146,3.034s-.839,3.046-2.146,3.046a1.69,1.69,0,0,1-1.463-.875v2.938Zm2.435-6.872a1.2,1.2,0,0,0-1,.672V128.7a1.244,1.244,0,0,0,1,.683c.743,0,1.127-.755,1.127-1.774S399.5,125.846,398.755,125.846Z" fill="#2f2e2c"/>
      <path d="M402.62,124.718h1.44v.8a1.971,1.971,0,0,1,1.583-.936v1.4a1.426,1.426,0,0,0-.348-.036,1.6,1.6,0,0,0-1.235.7v3.862h-1.44Z" fill="#2f2e2c"/>
    </g>
    <g>
      <path d="M432.359,125.018l-1.8,5.493h-.66l-1.775-5.493v5.493h-1.6v-8h2.16l1.546,4.8,1.56-4.8h2.147v8h-1.584Z" fill="#2f2e2c"/>
      <path d="M438.541,129.936a1.9,1.9,0,0,1-1.523.719,1.8,1.8,0,0,1-1.787-1.918,1.733,1.733,0,0,1,1.787-1.871,1.839,1.839,0,0,1,1.523.683v-.767a.951.951,0,0,0-1.067-1.008,2.029,2.029,0,0,0-1.428.623l-.539-.982a3.28,3.28,0,0,1,2.23-.84c1.259,0,2.255.563,2.255,2.05v3.886h-1.451Zm0-1.548a1.12,1.12,0,0,0-.972-.563.871.871,0,0,0-.9.935.862.862,0,0,0,.9.924,1.083,1.083,0,0,0,.972-.553Z" fill="#2f2e2c"/>
      <path d="M442,131.59a.592.592,0,0,0,.636-.42l.192-.55-1.955-5.9h1.535l1.163,4.054,1.176-4.054h1.535l-2.267,6.777a1.767,1.767,0,0,1-1.906,1.367,3.2,3.2,0,0,1-.7-.084l.216-1.272A.979.979,0,0,0,442,131.59Z" fill="#2f2e2c"/>
    </g>
    <g>
      <path d="M466.916,128.784a1.361,1.361,0,0,0,1,.444.975.975,0,0,0,1.043-1.079v-5.637h1.608V128.2a2.251,2.251,0,0,1-2.5,2.459,2.464,2.464,0,0,1-1.727-.612Z" fill="#2f2e2c"/>
      <path d="M475.41,129.78a2.114,2.114,0,0,1-1.7.875,1.386,1.386,0,0,1-1.547-1.559v-4.378h1.44v3.826c0,.612.287.839.767.839a1.27,1.27,0,0,0,1.043-.707v-3.958h1.44v5.793h-1.44Z" fill="#2f2e2c"/>
      <path d="M481.651,126.7c0-.613-.277-.852-.756-.852a1.311,1.311,0,0,0-1.056.719v3.946H478.4v-5.793h1.439v.756a2.15,2.15,0,0,1,1.7-.9,1.407,1.407,0,0,1,1.547,1.583v4.353h-1.438Z" fill="#2f2e2c"/>
    </g>
    <g>
      <g>
        <path d="M211.683,144.985c1.951-1.9,2.359-2.318,2.359-2.927a.666.666,0,0,0-.712-.671,1.37,1.37,0,0,0-1.135.6l-.64-.672a2.171,2.171,0,0,1,1.791-.88,1.618,1.618,0,0,1,1.783,1.615c0,.808-.543,1.495-1.887,2.855h1.911v.943h-3.47Z" fill="#2f2e2c"/>
        <path d="M217.81,140.435c1.327,0,1.887,1.232,1.887,2.751s-.552,2.758-1.887,2.758c-1.319,0-1.887-1.247-1.887-2.758S216.491,140.435,217.81,140.435Zm0,.952c-.616,0-.792.768-.792,1.8s.176,1.807.792,1.807.8-.784.8-1.807S218.434,141.387,217.81,141.387Z" fill="#2f2e2c"/>
        <path d="M222.338,143.954l-.992,1.894h-1.231l1.559-2.726-1.471-2.607h1.231l.9,1.783.9-1.783h1.24l-1.472,2.6,1.559,2.734h-1.231Z" fill="#2f2e2c"/>
        <path d="M226.929,143.954l-.991,1.894h-1.231l1.559-2.726-1.471-2.607h1.231l.9,1.783.9-1.783h1.239l-1.471,2.6,1.559,2.734h-1.231Z" fill="#2f2e2c"/>
      </g>
      <rect x="193.1" y="138.179" width="13.093" height="9.669" fill="#979797"/>
    </g>
    <g>
      <g>
        <path d="M265.753,144.985c1.951-1.9,2.358-2.318,2.358-2.927a.665.665,0,0,0-.711-.671,1.367,1.367,0,0,0-1.135.6l-.64-.672a2.171,2.171,0,0,1,1.791-.88,1.619,1.619,0,0,1,1.783,1.615c0,.808-.544,1.495-1.887,2.855h1.911v.943h-3.47Z" fill="#2f2e2c"/>
        <path d="M271.88,140.435c1.327,0,1.887,1.232,1.887,2.751s-.552,2.758-1.887,2.758c-1.319,0-1.887-1.247-1.887-2.758S270.561,140.435,271.88,140.435Zm0,.952c-.616,0-.792.768-.792,1.8s.176,1.807.792,1.807.8-.784.8-1.807S272.5,141.387,271.88,141.387Z" fill="#2f2e2c"/>
        <path d="M276.407,143.954l-.991,1.894h-1.231l1.559-2.726-1.471-2.607H275.5l.9,1.783.905-1.783h1.239l-1.472,2.6,1.56,2.734h-1.232Z" fill="#2f2e2c"/>
        <path d="M281,143.954l-.991,1.894h-1.232l1.56-2.726-1.472-2.607H280.1l.9,1.783.9-1.783h1.24l-1.472,2.6,1.56,2.734H282Z" fill="#2f2e2c"/>
      </g>
      <rect x="247.17" y="138.179" width="13.093" height="9.669" fill="#32b44a"/>
    </g>
    <g>
      <g>
        <path d="M319.823,144.985c1.951-1.9,2.359-2.318,2.359-2.927a.666.666,0,0,0-.712-.671,1.367,1.367,0,0,0-1.135.6l-.64-.672a2.171,2.171,0,0,1,1.791-.88,1.618,1.618,0,0,1,1.783,1.615c0,.808-.543,1.495-1.887,2.855h1.911v.943h-3.47Z" fill="#2f2e2c"/>
        <path d="M325.95,140.435c1.327,0,1.887,1.232,1.887,2.751s-.552,2.758-1.887,2.758c-1.319,0-1.887-1.247-1.887-2.758S324.631,140.435,325.95,140.435Zm0,.952c-.616,0-.792.768-.792,1.8s.176,1.807.792,1.807.8-.784.8-1.807S326.573,141.387,325.95,141.387Z" fill="#2f2e2c"/>
        <path d="M330.478,143.954l-.992,1.894h-1.231l1.559-2.726-1.471-2.607h1.231l.9,1.783.9-1.783h1.239l-1.47,2.6,1.558,2.734h-1.231Z" fill="#2f2e2c"/>
        <path d="M335.069,143.954l-.991,1.894h-1.231l1.558-2.726-1.47-2.607h1.231l.9,1.783.9-1.783h1.239l-1.471,2.6,1.559,2.734h-1.232Z" fill="#2f2e2c"/>
      </g>
      <rect x="301.239" y="138.179" width="13.093" height="9.669" fill="#0b79bf"/>
    </g>
    <g>
      <g>
        <path d="M504.506,105.646H502.66l-.224.937h-1.5l1.773-6h1.756l1.773,6h-1.5Zm-1.558-1.251h1.279l-.639-2.539Z" fill="#0b79bf"/>
        <path d="M506.4,103.584c0-1.835,1.017-3.105,2.62-3.105a2.195,2.195,0,0,1,2.151,1.575l-1.2.513a1.019,1.019,0,0,0-.954-.8c-.711,0-1.135.766-1.135,1.818s.424,1.819,1.135,1.819a1.037,1.037,0,0,0,.954-.864l1.206.513a2.236,2.236,0,0,1-2.16,1.639C507.412,106.691,506.4,105.413,506.4,103.584Z" fill="#0b79bf"/>
        <path d="M512.956,101.847h-1.287v-1.269h4.024v1.269h-1.278v4.736h-1.459Z" fill="#0b79bf"/>
        <path d="M516.538,100.578h1.467v3.88c0,.6.288.955.864.955s.856-.352.856-.955v-3.88h1.468v3.871a2.329,2.329,0,0,1-4.655,0Z" fill="#0b79bf"/>
        <path d="M525.17,105.646h-1.846l-.224.937h-1.5l1.773-6h1.756l1.774,6h-1.5Zm-1.558-1.251h1.279l-.639-2.539Z" fill="#0b79bf"/>
        <path d="M527.5,100.578h1.458v4.735h1.936v1.27H527.5Z" fill="#0b79bf"/>
      </g>
      <polygon points="497.464 108.702 497.464 98.448 489.2 103.575 497.464 108.702" fill="#0b79bf"/>
    </g>
    <g>
      <path d="M17.812,27.4H15.606v-.943h3.421V27.2l-1.654,4.59h-1.16Z" fill="#2f2e2c"/>
      <path d="M21.484,26.374c1.328,0,1.887,1.231,1.887,2.751s-.552,2.757-1.887,2.757c-1.319,0-1.887-1.247-1.887-2.757S20.165,26.374,21.484,26.374Zm0,.951c-.615,0-.791.767-.791,1.8s.176,1.806.791,1.806.8-.783.8-1.806S22.108,27.325,21.484,27.325Z" fill="#2f2e2c"/>
    </g>
    <g>
      <path d="M17.492,59.858H15.317v-.9l1.871-3.3h1.376v3.254H19.1v.943h-.535v1.136H17.492Zm-1.207-.943h1.207V56.748Z" fill="#2f2e2c"/>
      <path d="M21.828,55.581a1.8,1.8,0,0,1,1.367.576l-.52.783a.965.965,0,0,0-.831-.416c-.664,0-1.064.752-1.064,1.607v.088a1.318,1.318,0,0,1,1.136-.672,1.534,1.534,0,0,1,1.5,1.728,1.718,1.718,0,0,1-1.751,1.814c-1.415,0-1.967-1.271-1.967-2.75C19.693,56.74,20.453,55.581,21.828,55.581Zm-.248,2.87a.987.987,0,0,0-.8.551c.04.5.225,1.144.824,1.144a.758.758,0,0,0,.719-.831C22.323,58.683,21.964,58.451,21.58,58.451Z" fill="#2f2e2c"/>
    </g>
    <rect x="57.311" y="114.386" width="13.093" height="2.801" fill="#32b44a"/>
    <rect x="44.1" y="115.707" width="13.093" height="1.479" fill="#979797"/>
    <rect x="80.159" y="115.58" width="13.093" height="1.606" fill="#979797"/>
    <rect x="117.841" y="115.568" width="13.093" height="1.618" fill="#979797"/>
    <rect x="155.55" y="115.371" width="13.093" height="1.815" fill="#979797"/>
    <rect x="206.245" y="111.926" width="13.093" height="5.261" fill="#32b44a"/>
    <rect x="193.034" y="108.665" width="13.093" height="8.521" fill="#979797"/>
    <rect x="245.605" y="91.296" width="13.093" height="25.89" fill="#32b44a"/>
    <rect x="232.394" y="82.769" width="13.093" height="34.417" fill="#979797"/>
    <rect x="281.927" y="82.769" width="13.093" height="34.417" fill="#0b79bf"/>
    <rect x="268.716" y="76.627" width="13.093" height="40.559" fill="#32b44a"/>
    <rect x="318.719" y="51.876" width="13.093" height="65.31" fill="#0b79bf"/>
    <rect x="305.507" y="29.265" width="13.093" height="87.921" fill="#32b44a"/>
    <rect x="355.744" y="66.59" width="13.093" height="50.596" fill="#0b79bf"/>
    <rect x="342.533" y="39.215" width="13.093" height="77.971" fill="#32b44a"/>
    <rect x="392.887" y="88.609" width="13.093" height="28.577" fill="#0b79bf"/>
    <rect x="379.676" y="73.226" width="13.093" height="43.96" fill="#32b44a"/>
    <rect x="430.088" y="98.907" width="13.093" height="18.28" fill="#0b79bf"/>
    <rect x="416.877" y="95.206" width="13.093" height="21.98" fill="#32b44a"/>
    <rect x="469.256" y="108.665" width="13.093" height="8.521" fill="#0b79bf"/>
    <rect x="456.044" y="114.386" width="13.093" height="2.801" fill="#32b44a"/>
    <line x1="27.546" y1="117.186" x2="527.078" y2="117.186" fill="none" stroke="#231f20" stroke-miterlimit="10"/>
    <line x1="27.546" y1="29.265" x2="527.078" y2="29.265" fill="none" stroke="#231f20" stroke-miterlimit="10"/>
    <line x1="27.546" y1="59.032" x2="527.078" y2="59.032" fill="none" stroke="#231f20" stroke-miterlimit="10"/>
    <line x1="27.546" y1="88.609" x2="527.078" y2="88.609" fill="none" stroke="#231f20" stroke-miterlimit="10"/>
    <g>
      <path d="M15.549,90.337c1.951-1.9,2.359-2.319,2.359-2.926a.666.666,0,0,0-.712-.672,1.374,1.374,0,0,0-1.135.6l-.639-.671a2.168,2.168,0,0,1,1.791-.879A1.618,1.618,0,0,1,19,87.4c0,.807-.543,1.495-1.886,2.854h1.91V91.2h-3.47Z" fill="#2f2e2c"/>
      <path d="M20.333,89.769a1.466,1.466,0,0,0,1.143.584c.56,0,.816-.3.816-.712,0-.5-.344-.687-.864-.687-.175,0-.416.008-.5.016v-.952c.079.009.343.009.471.009.488,0,.816-.208.816-.632,0-.448-.32-.664-.784-.664a1.364,1.364,0,0,0-1.063.536l-.608-.616a2.089,2.089,0,0,1,1.759-.863c1.056,0,1.751.5,1.751,1.447a1.262,1.262,0,0,1-1.007,1.216,1.284,1.284,0,0,1,1.087,1.279A1.614,1.614,0,0,1,21.524,91.3a2.171,2.171,0,0,1-1.831-.863Z" fill="#2f2e2c"/>
    </g>
    <path d="M21.484,113.709c1.328,0,1.887,1.232,1.887,2.751s-.552,2.758-1.887,2.758c-1.319,0-1.887-1.247-1.887-2.758S20.165,113.709,21.484,113.709Zm0,.952c-.615,0-.791.767-.791,1.8s.176,1.807.791,1.807.8-.783.8-1.807S22.108,114.661,21.484,114.661Z" fill="#2f2e2c"/>
  </g>
</svg>
