<svg xmlns="http://www.w3.org/2000/svg" width="543.83" height="218.066" viewBox="0 0 543.83 218.066">
  <g>
    <path d="M543.83,14.37A14.37,14.37,0,0,0,529.46,0H14.37A14.37,14.37,0,0,0,0,14.37V29.86H543.83Z" fill="#f2f0ec"/>
    <polyline points="543.83 218.064 543.83 32.572 543.497 32.572 543.497 32.574 0 32.574 0 218.066 543.497 218.066" fill="#f2f0ec"/>
    <g>
      <path d="M14.892,19.885a1.81,1.81,0,0,0,1.328.592,1.3,1.3,0,0,0,1.393-1.44V11.514h2.144V19.1a3,3,0,0,1-3.329,3.281,3.3,3.3,0,0,1-2.305-.816Z" fill="#0b79bf"/>
      <path d="M26.221,21.213a2.819,2.819,0,0,1-2.273,1.169A1.849,1.849,0,0,1,21.883,20.3V14.459H23.8v5.105c0,.817.385,1.122,1.025,1.122a1.7,1.7,0,0,0,1.392-.946V14.459h1.921v7.73H26.221Z" fill="#0b79bf"/>
      <path d="M34.541,17.1c0-.817-.368-1.137-1.008-1.137a1.748,1.748,0,0,0-1.409.961v5.265H30.2v-7.73h1.921v1.008a2.869,2.869,0,0,1,2.273-1.2,1.879,1.879,0,0,1,2.065,2.112v5.81H34.541Z" fill="#0b79bf"/>
      <path d="M41.6,14.267c2.129,0,3.33,1.729,3.33,4.129v.544h-4.85a1.84,1.84,0,0,0,1.873,1.89,2.342,2.342,0,0,0,1.681-.753l.88,1.152a3.769,3.769,0,0,1-2.77,1.153c-2.176,0-3.6-1.632-3.6-4.066C38.139,16.076,39.452,14.267,41.6,14.267Zm-1.52,3.361h2.993c-.032-.8-.384-1.809-1.5-1.809C40.492,15.819,40.108,16.828,40.076,17.628Z" fill="#0b79bf"/>
      <path d="M50.315,11.514H56.43v1.873H52.46v2.449h3.858v1.855H52.46v2.626h3.97v1.872H50.315Z" fill="#0b79bf"/>
      <path d="M62.605,17.1c0-.817-.369-1.137-1.009-1.137a1.748,1.748,0,0,0-1.408.961v5.265H58.267v-7.73h1.921v1.008a2.869,2.869,0,0,1,2.273-1.2,1.879,1.879,0,0,1,2.065,2.112v5.81H62.605Z" fill="#0b79bf"/>
      <path d="M69.66,14.267c2.129,0,3.329,1.729,3.329,4.129v.544h-4.85a1.84,1.84,0,0,0,1.873,1.89,2.338,2.338,0,0,0,1.681-.753l.88,1.152A3.767,3.767,0,0,1,69.8,22.382c-2.177,0-3.6-1.632-3.6-4.066C66.2,16.076,67.515,14.267,69.66,14.267Zm-1.521,3.361h2.993c-.031-.8-.383-1.809-1.5-1.809C68.556,15.819,68.172,16.828,68.139,17.628Z" fill="#0b79bf"/>
      <path d="M74.6,14.459h1.921v1.072a2.63,2.63,0,0,1,2.112-1.248v1.872a1.97,1.97,0,0,0-.464-.048,2.14,2.14,0,0,0-1.648.928v5.154H74.6Z" fill="#0b79bf"/>
      <path d="M80.747,22.862a2.583,2.583,0,0,0,1.985.849,1.622,1.622,0,0,0,1.729-1.825v-.945a2.322,2.322,0,0,1-1.953,1.185c-1.729,0-2.849-1.393-2.849-3.922,0-2.481,1.12-3.937,2.849-3.937a2.22,2.22,0,0,1,1.953,1.169v-.977h1.92v7.33c0,2.818-1.84,3.538-3.553,3.538a3.985,3.985,0,0,1-2.849-.992Zm3.714-5.986a1.589,1.589,0,0,0-1.329-.913c-.976,0-1.488.9-1.488,2.241s.512,2.226,1.488,2.226a1.606,1.606,0,0,0,1.329-.9Z" fill="#0b79bf"/>
      <path d="M89.067,23.631a.791.791,0,0,0,.848-.561l.257-.736-2.61-7.875h2.049l1.553,5.41,1.569-5.41h2.048L91.756,23.5a2.357,2.357,0,0,1-2.545,1.825,4.334,4.334,0,0,1-.928-.112l.288-1.7A1.339,1.339,0,0,0,89.067,23.631Z" fill="#0b79bf"/>
      <path d="M99.707,11.514h4.418a2.594,2.594,0,0,1,2.817,2.72,2.336,2.336,0,0,1-1.713,2.45,2.521,2.521,0,0,1,1.889,2.625,2.646,2.646,0,0,1-2.849,2.88H99.707Zm3.905,4.338a1.1,1.1,0,0,0,1.137-1.248,1.114,1.114,0,0,0-1.137-1.266h-1.76v2.514Zm.081,4.513a1.177,1.177,0,0,0,1.232-1.344,1.215,1.215,0,0,0-1.232-1.345h-1.841v2.689Z" fill="#0b79bf"/>
      <path d="M108.682,12.17a1.153,1.153,0,1,1,2.3,0,1.153,1.153,0,0,1-2.3,0Zm.192,2.289H110.8v7.73h-1.921Z" fill="#0b79bf"/>
      <path d="M112.858,11.514h1.921V22.189h-1.921Z" fill="#0b79bf"/>
      <path d="M116.842,11.514h1.921V22.189h-1.921Z" fill="#0b79bf"/>
    </g>
    <g>
      <path d="M16.247,41.42H14.286V39.486h6.132V41.42H18.469v7.217H16.247Z" fill="#0b79bf"/>
      <path d="M20.347,45.316c0-1.851,1.084-3.47,3.142-3.47a3.168,3.168,0,0,1,3.155,3.47A3.18,3.18,0,0,1,23.489,48.8C21.431,48.8,20.347,47.168,20.347,45.316Zm4.253,0c0-.961-.343-1.714-1.111-1.714s-1.1.753-1.1,1.714.343,1.729,1.1,1.729S24.6,46.291,24.6,45.316Z" fill="#0b79bf"/>
      <path d="M28.233,46.922V43.738H27.4V42.01h.837V40.2h1.988V42.01h1.071v1.728H30.221v2.69c0,.384.151.617.453.617a.687.687,0,0,0,.453-.15l.357,1.535a2.214,2.214,0,0,1-1.372.371A1.653,1.653,0,0,1,28.233,46.922Z" fill="#0b79bf"/>
      <path d="M35.967,47.992a2.228,2.228,0,0,1-1.742.809,2.058,2.058,0,0,1-2.071-2.2,1.964,1.964,0,0,1,2.071-2.111,2.185,2.185,0,0,1,1.742.754V44.48A1.022,1.022,0,0,0,34.8,43.451a2.523,2.523,0,0,0-1.632.686l-.7-1.33a4.126,4.126,0,0,1,2.717-.961c1.508,0,2.757.644,2.757,2.427v4.364H35.967Zm0-1.687a1.083,1.083,0,0,0-.96-.522.858.858,0,1,0,0,1.715,1.089,1.089,0,0,0,.96-.521Z" fill="#0b79bf"/>
      <path d="M39.545,39.486h1.989v9.151H39.545Z" fill="#0b79bf"/>
      <path d="M46.333,39.486h5.515v1.907H48.555v1.646h3.2v1.906h-3.2v1.784h3.293v1.908H46.333Z" fill="#0b79bf"/>
      <path d="M53.285,39.486h1.99v9.151h-1.99Z" fill="#0b79bf"/>
      <path d="M59.635,41.846c1.866,0,2.964,1.441,2.964,3.566v.549H58.525a1.355,1.355,0,0,0,1.454,1.275,1.965,1.965,0,0,0,1.358-.576l.877,1.194a3.523,3.523,0,0,1-2.469.947,3.161,3.161,0,0,1-3.21-3.485A3.169,3.169,0,0,1,59.635,41.846Zm-1.124,2.785h2.2c-.028-.535-.275-1.221-1.1-1.221C58.813,43.41,58.552,44.1,58.511,44.631Z" fill="#0b79bf"/>
      <path d="M66.616,41.846a2.791,2.791,0,0,1,2.222.906l-.96,1.357a1.279,1.279,0,0,0-1.029-.507c-.809,0-1.358.685-1.358,1.714s.549,1.729,1.358,1.729a1.252,1.252,0,0,0,1.029-.522l.96,1.372a2.791,2.791,0,0,1-2.222.906,3.179,3.179,0,0,1-3.155-3.485A3.168,3.168,0,0,1,66.616,41.846Z" fill="#0b79bf"/>
      <path d="M70.276,46.922V43.738h-.837V42.01h.837V40.2h1.989V42.01h1.07v1.728h-1.07v2.69c0,.384.151.617.452.617a.69.69,0,0,0,.454-.15l.356,1.535a2.21,2.21,0,0,1-1.372.371A1.654,1.654,0,0,1,70.276,46.922Z" fill="#0b79bf"/>
      <path d="M74.555,42.01h1.989v.851a2.308,2.308,0,0,1,1.769-1.015v1.92a1.695,1.695,0,0,0-1.769.6v4.268H74.555Z" fill="#0b79bf"/>
      <path d="M79.285,40.021a1.146,1.146,0,1,1,1.152,1.153A1.151,1.151,0,0,1,79.285,40.021Zm.151,1.989h1.989v6.627H79.436Z" fill="#0b79bf"/>
      <path d="M85.841,41.846a2.793,2.793,0,0,1,2.223.906L87.1,44.109a1.278,1.278,0,0,0-1.029-.507c-.809,0-1.358.685-1.358,1.714s.549,1.729,1.358,1.729a1.25,1.25,0,0,0,1.029-.522l.961,1.372a2.793,2.793,0,0,1-2.223.906,3.18,3.18,0,0,1-3.155-3.485A3.168,3.168,0,0,1,85.841,41.846Z" fill="#0b79bf"/>
      <path d="M92.367,39.486H94.6V45.4c0,.92.439,1.456,1.317,1.456s1.3-.536,1.3-1.456V39.486h2.236v5.9a3.548,3.548,0,0,1-7.092,0Z" fill="#0b79bf"/>
      <path d="M101.432,46.5a3.168,3.168,0,0,0,1.879.781c.548,0,.823-.2.823-.533s-.412-.48-.988-.633c-.946-.259-2.277-.59-2.277-2.179,0-1.112.892-2.086,2.579-2.086a3.965,3.965,0,0,1,2.442.838l-.768,1.33a2.49,2.49,0,0,0-1.66-.659c-.425,0-.728.178-.728.467s.357.438.934.59c.974.26,2.359.617,2.359,2.248,0,1.25-1.043,2.141-2.675,2.141a3.933,3.933,0,0,1-2.716-.947Z" fill="#0b79bf"/>
      <path d="M109.989,41.846c1.866,0,2.964,1.441,2.964,3.566v.549h-4.074a1.355,1.355,0,0,0,1.454,1.275,1.965,1.965,0,0,0,1.358-.576l.877,1.194a3.523,3.523,0,0,1-2.469.947,3.161,3.161,0,0,1-3.21-3.485A3.169,3.169,0,0,1,109.989,41.846Zm-1.124,2.785h2.2c-.028-.535-.275-1.221-1.1-1.221C109.167,43.41,108.906,44.1,108.865,44.631Z" fill="#0b79bf"/>
      <path d="M117.172,45.91a9.534,9.534,0,0,1,1.368-4.957l.639.371a11.487,11.487,0,0,0,0,9.162l-.639.381A9.527,9.527,0,0,1,117.172,45.91Z" fill="#0b79bf"/>
      <path d="M122.04,45.439l-.6.887v2.311H120.38V41.156h1.065V44.9l2.468-3.746h1.256L122.7,44.7l2.67,3.938h-1.279Z" fill="#0b79bf"/>
      <path d="M129.815,42.994l-1.144,5.643h-1.122l-1.682-7.481h1.143L128.166,47l1.211-5.842h.875L131.474,47l1.144-5.842h1.144l-1.671,7.481h-1.133Z" fill="#0b79bf"/>
      <path d="M137.814,44.846c0-.674-.314-.908-.819-.908a1.47,1.47,0,0,0-1.189.806v3.893h-.964V41.156h.964v2.815a2.034,2.034,0,0,1,1.582-.887c.942,0,1.39.482,1.39,1.459v4.094h-.964Z" fill="#0b79bf"/>
      <path d="M142.685,45.508h2.333v.83h-2.333Z" fill="#0b79bf"/>
      <path d="M150.593,46.281l-.706.93v1.426h-.965V41.156h.965v4.867l2.075-2.8h1.132l-1.839,2.433,1.851,2.985h-1.133Z" fill="#0b79bf"/>
      <path d="M154.027,41.693a.634.634,0,0,1,.629-.627.626.626,0,0,1,.628.627.618.618,0,0,1-.628.618A.626.626,0,0,1,154.027,41.693Zm.146,1.526h.965v5.418h-.965Z" fill="#0b79bf"/>
      <path d="M156.765,41.156h.965v7.481h-.965Z" fill="#0b79bf"/>
      <path d="M159.088,45.922c0-1.526.785-2.838,2.276-2.838s2.277,1.312,2.277,2.838-.785,2.849-2.277,2.849S159.088,47.447,159.088,45.922Zm3.555,0c0-1.031-.392-1.984-1.279-1.984s-1.267.953-1.267,1.984.393,2,1.267,2S162.643,46.965,162.643,45.922Z" fill="#0b79bf"/>
      <path d="M167.961,44.475l-1.1,4.162h-1l-1.447-5.418h1l1,4.138,1.088-4.138h.9l1.1,4.138,1.009-4.138h1.009l-1.458,5.418h-1Z" fill="#0b79bf"/>
      <path d="M175.344,48.076a1.75,1.75,0,0,1-1.424.7,1.666,1.666,0,0,1-1.649-1.806,1.636,1.636,0,0,1,1.649-1.772,1.7,1.7,0,0,1,1.424.672V45a.986.986,0,0,0-1.077-1.1,1.84,1.84,0,0,0-1.357.639l-.392-.674a2.6,2.6,0,0,1,1.906-.785,1.66,1.66,0,0,1,1.885,1.807v3.746h-.965Zm0-1.549a1.239,1.239,0,0,0-1.088-.65,1.116,1.116,0,0,0,0,2.221,1.236,1.236,0,0,0,1.088-.651Z" fill="#0b79bf"/>
      <path d="M178.128,47.492V44.061h-.718v-.842h.718V41.738h.953v1.481h.908v.842h-.908V47.3c0,.383.134.617.426.617a.623.623,0,0,0,.459-.189l.248.716a1.238,1.238,0,0,1-.92.326C178.5,48.771,178.128,48.334,178.128,47.492Z" fill="#0b79bf"/>
      <path d="M181.426,47.492V44.061h-.717v-.842h.717V41.738h.954v1.481h.908v.842h-.908V47.3c0,.383.134.617.426.617a.623.623,0,0,0,.459-.189l.247.716a1.236,1.236,0,0,1-.92.326C181.8,48.771,181.426,48.334,181.426,47.492Z" fill="#0b79bf"/>
      <path d="M184.175,45.508h2.333v.83h-2.333Z" fill="#0b79bf"/>
      <path d="M190.749,44.846c0-.674-.314-.908-.819-.908a1.468,1.468,0,0,0-1.189.806v3.893h-.965V41.156h.965v2.815a2.034,2.034,0,0,1,1.581-.887c.942,0,1.391.482,1.391,1.459v4.094h-.964Z" fill="#0b79bf"/>
      <path d="M193.072,45.922c0-1.526.786-2.838,2.277-2.838s2.277,1.312,2.277,2.838-.786,2.849-2.277,2.849S193.072,47.447,193.072,45.922Zm3.556,0c0-1.031-.393-1.984-1.279-1.984s-1.267.953-1.267,1.984.392,2,1.267,2S196.628,46.965,196.628,45.922Z" fill="#0b79bf"/>
      <path d="M201.957,47.908a1.986,1.986,0,0,1-1.581.863c-.942,0-1.391-.482-1.391-1.459V43.219h.964V47.01c0,.674.315.908.819.908a1.459,1.459,0,0,0,1.189-.785V43.219h.953v5.418h-.953Z" fill="#0b79bf"/>
      <path d="M204.55,43.219h.964v.83a1.822,1.822,0,0,1,1.514-.953v.976a1.1,1.1,0,0,0-.28-.035,1.563,1.563,0,0,0-1.234.82v3.78h-.964Z" fill="#0b79bf"/>
      <path d="M207.647,41.324l.628-.371a9.528,9.528,0,0,1,0,9.914l-.628-.381a11.367,11.367,0,0,0,0-9.162Z" fill="#0b79bf"/>
    </g>
    <g>
      <path d="M261.806,19.4a2.463,2.463,0,0,0,1.782.782c.528,0,.848-.276.848-.639,0-.439-.43-.648-1.046-.88-.946-.341-2.211-.748-2.211-2.3a2.313,2.313,0,0,1,2.574-2.232,3.5,3.5,0,0,1,2.355.836l-.826,1.32a2.308,2.308,0,0,0-1.55-.605c-.5,0-.738.253-.738.583,0,.395.418.594,1.045.825.946.341,2.2.8,2.2,2.288a2.321,2.321,0,0,1-2.629,2.343,3.632,3.632,0,0,1-2.651-.957Z" fill="#0b79bf"/>
      <path d="M269.44,16.14c1.5,0,2.377,1.155,2.377,2.86v.439h-3.268a1.088,1.088,0,0,0,1.166,1.024A1.586,1.586,0,0,0,270.8,20l.7.957a2.822,2.822,0,0,1-1.981.758,2.535,2.535,0,0,1-2.574-2.794A2.542,2.542,0,0,1,269.44,16.14Zm-.9,2.233H270.3c-.022-.43-.22-.978-.88-.978C268.779,17.4,268.57,17.943,268.537,18.373Z" fill="#0b79bf"/>
      <path d="M272.784,16.271h1.6v.682a1.856,1.856,0,0,1,1.42-.813v1.54a1.446,1.446,0,0,0-.342-.044,1.406,1.406,0,0,0-1.078.528v3.422h-1.6Z" fill="#0b79bf"/>
      <path d="M276.105,16.271h1.683l.936,3.411.957-3.411h1.682l-1.782,5.315h-1.694Z" fill="#0b79bf"/>
      <path d="M281.936,14.676a.919.919,0,1,1,.923.925A.922.922,0,0,1,281.936,14.676Zm.121,1.6h1.594v5.315h-1.594Z" fill="#0b79bf"/>
      <path d="M287.193,16.14a2.242,2.242,0,0,1,1.783.725l-.77,1.09a1.024,1.024,0,0,0-.825-.407c-.649,0-1.09.55-1.09,1.375s.441,1.386,1.09,1.386a1.006,1.006,0,0,0,.825-.418l.77,1.1a2.239,2.239,0,0,1-1.783.726,2.55,2.55,0,0,1-2.53-2.794A2.54,2.54,0,0,1,287.193,16.14Z" fill="#0b79bf"/>
      <path d="M292.077,16.14c1.5,0,2.377,1.155,2.377,2.86v.439h-3.267a1.086,1.086,0,0,0,1.166,1.024A1.588,1.588,0,0,0,293.442,20l.7.957a2.822,2.822,0,0,1-1.981.758,2.535,2.535,0,0,1-2.574-2.794A2.542,2.542,0,0,1,292.077,16.14Zm-.9,2.233h1.761c-.023-.43-.22-.978-.88-.978C291.417,17.4,291.208,17.943,291.175,18.373Z" fill="#0b79bf"/>
      <path d="M300.965,20.959a1.565,1.565,0,0,1-1.32.758c-1.189,0-1.992-1.012-1.992-2.794,0-1.716.792-2.783,1.992-2.783a1.542,1.542,0,0,1,1.32.758v-2.65h1.584v7.338h-1.584Zm0-2.928a.975.975,0,0,0-.781-.483c-.583,0-.9.561-.9,1.375s.32,1.386.9,1.386a.986.986,0,0,0,.781-.5Z" fill="#0b79bf"/>
      <path d="M306.609,21.068a1.785,1.785,0,0,1-1.4.649,1.65,1.65,0,0,1-1.661-1.76,1.575,1.575,0,0,1,1.661-1.693,1.753,1.753,0,0,1,1.4.6v-.616a.82.82,0,0,0-.936-.825,2.027,2.027,0,0,0-1.309.55L303.8,16.91a3.3,3.3,0,0,1,2.179-.77c1.21,0,2.211.516,2.211,1.947v3.5h-1.584Zm0-1.353a.871.871,0,0,0-.771-.418.688.688,0,1,0,0,1.375.873.873,0,0,0,.771-.418Z" fill="#0b79bf"/>
      <path d="M309.742,20.211V17.658h-.671V16.271h.671V14.819h1.6v1.452h.857v1.387h-.857v2.156c0,.308.121.5.362.5a.55.55,0,0,0,.364-.121l.286,1.232a1.774,1.774,0,0,1-1.1.3A1.327,1.327,0,0,1,309.742,20.211Z" fill="#0b79bf"/>
      <path d="M315.386,16.14c1.5,0,2.377,1.155,2.377,2.86v.439H314.5a1.088,1.088,0,0,0,1.166,1.024A1.584,1.584,0,0,0,316.75,20l.7.957a2.82,2.82,0,0,1-1.98.758,2.535,2.535,0,0,1-2.574-2.794A2.542,2.542,0,0,1,315.386,16.14Zm-.9,2.233h1.76c-.022-.43-.219-.978-.88-.978C314.726,17.4,314.517,17.943,314.484,18.373Z" fill="#0b79bf"/>
      <path d="M318.972,19.869a2.545,2.545,0,0,0,1.507.627c.44,0,.66-.165.66-.429s-.33-.385-.792-.506c-.76-.209-1.826-.473-1.826-1.749,0-.891.714-1.672,2.068-1.672a3.177,3.177,0,0,1,1.958.671l-.616,1.067a2,2,0,0,0-1.331-.528c-.341,0-.583.142-.583.375s.286.351.748.472c.781.209,1.892.494,1.892,1.8,0,1-.837,1.715-2.145,1.715a3.154,3.154,0,0,1-2.179-.758Z" fill="#0b79bf"/>
      <path d="M324.549,16.2a.985.985,0,1,1-.99.979A1,1,0,0,1,324.549,16.2Zm0,3.553a.98.98,0,1,1-.99.98A1,1,0,0,1,324.549,19.748Z" fill="#0b79bf"/>
      <path d="M332.975,20.441h-2.256l-.275,1.145h-1.837l2.167-7.338h2.145l2.168,7.338h-1.838Zm-1.9-1.529h1.562l-.78-3.1Z" fill="#0b79bf"/>
      <path d="M335.769,23.609V16.271h1.594V16.9a1.514,1.514,0,0,1,1.31-.758c1.2,0,1.991,1.012,1.991,2.783,0,1.749-.792,2.794-1.991,2.794a1.5,1.5,0,0,1-1.31-.758v2.65Zm2.365-6.061a.918.918,0,0,0-.771.483v1.783a.956.956,0,0,0,.771.5c.583,0,.9-.561.9-1.386S338.717,17.548,338.134,17.548Z" fill="#0b79bf"/>
      <path d="M341.675,16.271h1.595v.682a1.855,1.855,0,0,1,1.42-.813v1.54a1.446,1.446,0,0,0-.342-.044,1.4,1.4,0,0,0-1.078.528v3.422h-1.595Z" fill="#0b79bf"/>
      <path d="M345.47,14.676a.919.919,0,1,1,.924.925A.922.922,0,0,1,345.47,14.676Zm.121,1.6h1.595v5.315h-1.595Z" fill="#0b79bf"/>
      <path d="M348.473,14.248h1.595v7.338h-1.595Z" fill="#0b79bf"/>
      <path d="M353.776,20.155c2.816-2.53,3.245-2.96,3.245-3.663a.8.8,0,0,0-.88-.781,1.981,1.981,0,0,0-1.563.781l-1.034-1.134a3.339,3.339,0,0,1,2.641-1.221,2.365,2.365,0,0,1,2.629,2.333c0,1.055-.649,1.925-2.464,3.564h2.519v1.552h-5.093Z" fill="#0b79bf"/>
      <path d="M361.112,17.8a1.811,1.811,0,0,1-1.276-1.727c0-1.376,1.331-1.937,2.607-1.937s2.608.561,2.608,1.937a1.819,1.819,0,0,1-1.287,1.727,2.1,2.1,0,0,1,1.386,1.871c0,1.352-1.166,2.045-2.707,2.045s-2.706-.682-2.706-2.035A2.09,2.09,0,0,1,361.112,17.8Zm1.331.7c-.307.044-.923.363-.923.934,0,.5.4.76.923.76s.924-.263.924-.76C363.367,18.868,362.74,18.549,362.443,18.505Zm0-2.849c-.516,0-.825.275-.825.726,0,.495.55.759.825.813.276-.054.826-.318.826-.813C363.269,15.931,362.949,15.656,362.443,15.656Z" fill="#0b79bf"/>
      <path d="M366.271,22.586a2,2,0,0,0,.9-1.023,1.058,1.058,0,0,1-.242.034.84.84,0,0,1-.815-.892.966.966,0,0,1,.957-.957,1.106,1.106,0,0,1,1.078,1.221,2.651,2.651,0,0,1-1.209,2.156Z" fill="#0b79bf"/>
      <path d="M371.737,20.155c2.817-2.53,3.246-2.96,3.246-3.663a.8.8,0,0,0-.88-.781,1.981,1.981,0,0,0-1.563.781l-1.034-1.134a3.339,3.339,0,0,1,2.641-1.221,2.365,2.365,0,0,1,2.629,2.333c0,1.055-.649,1.925-2.464,3.564h2.519v1.552h-5.094Z" fill="#0b79bf"/>
      <path d="M380.449,14.137c1.881,0,2.74,1.629,2.74,3.785s-.859,3.795-2.74,3.795-2.75-1.65-2.75-3.795S378.568,14.137,380.449,14.137Zm0,1.574c-.715,0-.946.8-.946,2.211s.231,2.223.946,2.223.936-.826.936-2.223S381.153,15.711,380.449,15.711Z" fill="#0b79bf"/>
      <path d="M386.852,19.2l-1.2,2.388h-2.035l2.123-3.752-2-3.586h2.036l1.078,2.244,1.067-2.244h2.046l-1.991,3.574,2.124,3.764h-2.036Z" fill="#0b79bf"/>
      <path d="M393.407,19.2l-1.2,2.388h-2.035l2.123-3.752-2-3.586h2.035l1.078,2.244,1.068-2.244h2.046l-1.992,3.574,2.124,3.764h-2.036Z" fill="#0b79bf"/>
      <path d="M399.644,18.252h2.332v1.342h-2.332Z" fill="#0b79bf"/>
      <path d="M411.107,16.888l-1.5,4.7h-.758l-1.475-4.7v4.7h-1.749V14.248h2.365l1.243,4.016,1.254-4.016h2.344v7.338h-1.727Z" fill="#0b79bf"/>
      <path d="M416.947,21.068a1.781,1.781,0,0,1-1.4.649,1.65,1.65,0,0,1-1.661-1.76,1.575,1.575,0,0,1,1.661-1.693,1.749,1.749,0,0,1,1.4.6v-.616a.819.819,0,0,0-.935-.825,2.029,2.029,0,0,0-1.31.55l-.56-1.067a3.3,3.3,0,0,1,2.178-.77c1.21,0,2.211.516,2.211,1.947v3.5h-1.584Zm0-1.353a.869.869,0,0,0-.77-.418.688.688,0,1,0,0,1.375.871.871,0,0,0,.77-.418Z" fill="#0b79bf"/>
      <path d="M420.357,22.334a.51.51,0,0,0,.549-.309l.121-.34-1.8-5.414h1.683l.936,3.4.957-3.4h1.683l-2.057,6.106a1.774,1.774,0,0,1-1.947,1.365,2.855,2.855,0,0,1-.694-.088l.22-1.4A.713.713,0,0,0,420.357,22.334Z" fill="#0b79bf"/>
      <path d="M427.6,20.155c2.816-2.53,3.245-2.96,3.245-3.663a.8.8,0,0,0-.88-.781,1.978,1.978,0,0,0-1.562.781l-1.035-1.134A3.341,3.341,0,0,1,430,14.137a2.365,2.365,0,0,1,2.629,2.333c0,1.055-.649,1.925-2.464,3.564h2.52v1.552H427.6Z" fill="#0b79bf"/>
      <path d="M436.494,15.8H433.48V14.248H438.5v1.231l-2.244,6.107h-1.915Z" fill="#0b79bf"/>
      <path d="M438.606,22.586a2,2,0,0,0,.9-1.023,1.058,1.058,0,0,1-.242.034.84.84,0,0,1-.815-.892.966.966,0,0,1,.957-.957,1.106,1.106,0,0,1,1.078,1.221,2.65,2.65,0,0,1-1.21,2.156Z" fill="#0b79bf"/>
      <path d="M444.072,20.155c2.817-2.53,3.246-2.96,3.246-3.663a.8.8,0,0,0-.88-.781,1.981,1.981,0,0,0-1.563.781l-1.034-1.134a3.339,3.339,0,0,1,2.641-1.221,2.365,2.365,0,0,1,2.628,2.333c0,1.055-.648,1.925-2.463,3.564h2.519v1.552h-5.094Z" fill="#0b79bf"/>
      <path d="M452.784,14.137c1.881,0,2.74,1.629,2.74,3.785s-.859,3.795-2.74,3.795-2.75-1.65-2.75-3.795S450.9,14.137,452.784,14.137Zm0,1.574c-.715,0-.946.8-.946,2.211s.231,2.223.946,2.223.936-.826.936-2.223S453.488,15.711,452.784,15.711Z" fill="#0b79bf"/>
      <path d="M459.186,19.2l-1.2,2.388h-2.035l2.123-3.752-2-3.586h2.036l1.078,2.244,1.067-2.244H462.3l-1.991,3.574,2.124,3.764H460.4Z" fill="#0b79bf"/>
      <path d="M465.742,19.2l-1.2,2.388h-2.035l2.123-3.752-2-3.586h2.035l1.078,2.244,1.068-2.244h2.046l-1.992,3.574,2.124,3.764h-2.036Z" fill="#0b79bf"/>
      <path d="M472.121,18.912a8.285,8.285,0,0,1,1.552-4.863l1.078.649a9.657,9.657,0,0,0-.913,4.214,9.609,9.609,0,0,0,.913,4.2l-1.078.66A8.285,8.285,0,0,1,472.121,18.912Z" fill="#0b79bf"/>
      <path d="M476.4,19.439a2.17,2.17,0,0,0,1.583.739c.705,0,1.013-.353,1.013-.793,0-.528-.386-.748-1.078-.748-.254,0-.616.011-.737.022V17.1c.121.01.516.01.693.01.638,0,1.023-.23,1.023-.693,0-.483-.4-.736-.991-.736a1.982,1.982,0,0,0-1.463.681l-.967-1.023a3.1,3.1,0,0,1,2.585-1.2c1.584,0,2.574.716,2.574,2a1.727,1.727,0,0,1-1.419,1.661,1.766,1.766,0,0,1,1.529,1.75c0,1.287-1.067,2.166-2.684,2.166a3.329,3.329,0,0,1-2.685-1.166Z" fill="#0b79bf"/>
      <path d="M484.32,14.137c1.881,0,2.74,1.629,2.74,3.785s-.859,3.795-2.74,3.795-2.75-1.65-2.75-3.795S482.44,14.137,484.32,14.137Zm0,1.574c-.714,0-.946.8-.946,2.211s.232,2.223.946,2.223.936-.826.936-2.223S485.025,15.711,484.32,15.711Z" fill="#0b79bf"/>
      <path d="M493.638,20.959a1.565,1.565,0,0,1-1.32.758c-1.188,0-1.992-1.012-1.992-2.794,0-1.716.792-2.783,1.992-2.783a1.542,1.542,0,0,1,1.32.758v-2.65h1.584v7.338h-1.584Zm0-2.928a.975.975,0,0,0-.781-.483c-.583,0-.9.561-.9,1.375s.32,1.386.9,1.386a.986.986,0,0,0,.781-.5Z" fill="#0b79bf"/>
      <path d="M499.28,21.068a1.781,1.781,0,0,1-1.4.649,1.65,1.65,0,0,1-1.661-1.76,1.575,1.575,0,0,1,1.661-1.693,1.749,1.749,0,0,1,1.4.6v-.616a.819.819,0,0,0-.935-.825,2.025,2.025,0,0,0-1.309.55l-.561-1.067a3.3,3.3,0,0,1,2.178-.77c1.21,0,2.211.516,2.211,1.947v3.5H499.28Zm0-1.353a.869.869,0,0,0-.77-.418.688.688,0,1,0,0,1.375.871.871,0,0,0,.77-.418Z" fill="#0b79bf"/>
      <path d="M502.691,22.334a.51.51,0,0,0,.549-.309l.121-.34-1.8-5.414h1.683l.936,3.4.957-3.4h1.683l-2.057,6.106a1.774,1.774,0,0,1-1.947,1.365,2.855,2.855,0,0,1-.694-.088l.22-1.4A.713.713,0,0,0,502.691,22.334Z" fill="#0b79bf"/>
      <path d="M507.75,19.869a2.545,2.545,0,0,0,1.507.627c.44,0,.66-.165.66-.429s-.33-.385-.792-.506c-.76-.209-1.826-.473-1.826-1.749,0-.891.715-1.672,2.068-1.672a3.177,3.177,0,0,1,1.958.671l-.616,1.067a2,2,0,0,0-1.331-.528c-.341,0-.583.142-.583.375s.286.351.748.472c.781.209,1.893.494,1.893,1.8,0,1-.837,1.715-2.146,1.715a3.156,3.156,0,0,1-2.179-.758Z" fill="#0b79bf"/>
      <path d="M512.083,14.7l1.089-.649a8.395,8.395,0,0,1,0,9.726l-1.089-.66a9.462,9.462,0,0,0,.924-4.2A9.51,9.51,0,0,0,512.083,14.7Z" fill="#0b79bf"/>
    </g>
    <g>
      <g>
        <path d="M504.506,166.143H502.66l-.224.935h-1.5l1.773-6h1.756l1.773,6h-1.5Zm-1.558-1.252h1.279l-.639-2.539Z" fill="#0b79bf"/>
        <path d="M506.4,164.08c0-1.836,1.017-3.105,2.62-3.105a2.194,2.194,0,0,1,2.151,1.576l-1.2.511a1.02,1.02,0,0,0-.954-.8c-.711,0-1.135.765-1.135,1.818s.424,1.818,1.135,1.818a1.036,1.036,0,0,0,.954-.863l1.206.514a2.237,2.237,0,0,1-2.16,1.639C507.412,167.188,506.4,165.908,506.4,164.08Z" fill="#0b79bf"/>
        <path d="M512.956,162.344h-1.287v-1.27h4.024v1.27h-1.278v4.734h-1.459Z" fill="#0b79bf"/>
        <path d="M516.538,161.074h1.467v3.879c0,.6.288.955.864.955s.856-.351.856-.955v-3.879h1.468v3.871a2.329,2.329,0,0,1-4.655,0Z" fill="#0b79bf"/>
        <path d="M525.17,166.143h-1.846l-.224.935h-1.5l1.773-6h1.756l1.774,6h-1.5Zm-1.558-1.252h1.279l-.639-2.539Z" fill="#0b79bf"/>
        <path d="M527.5,161.074h1.458v4.735h1.936v1.269H527.5Z" fill="#0b79bf"/>
      </g>
      <polygon points="497.464 169.198 497.464 158.944 489.2 164.071 497.464 169.198" fill="#0b79bf"/>
    </g>
    <g>
      <path d="M49.407,195.166a1.357,1.357,0,0,0,1,.443.975.975,0,0,0,1.043-1.08v-5.636h1.607v5.685a2.249,2.249,0,0,1-2.494,2.459,2.464,2.464,0,0,1-1.727-.612Z" fill="#2f2e2c"/>
      <path d="M57.9,196.161a2.113,2.113,0,0,1-1.7.876,1.386,1.386,0,0,1-1.547-1.559V191.1H56.09v3.826c0,.611.288.84.768.84a1.271,1.271,0,0,0,1.043-.708V191.1H59.34v5.793H57.9Z" fill="#2f2e2c"/>
      <path d="M60.891,188.893H62.33v8H60.891Z" fill="#2f2e2c"/>
    </g>
    <g>
      <path d="M87.643,195.465H85.029l-.372,1.428H82.99l2.374-8h1.943l2.375,8H88.015Zm-2.29-1.4h1.966l-.983-3.742Z" fill="#2f2e2c"/>
      <path d="M93.728,196.161a2.115,2.115,0,0,1-1.7.876,1.386,1.386,0,0,1-1.548-1.559V191.1h1.44v3.826c0,.611.287.84.767.84a1.272,1.272,0,0,0,1.044-.708V191.1h1.439v5.793H93.728Z" fill="#2f2e2c"/>
      <path d="M97.233,197.4a1.932,1.932,0,0,0,1.487.635,1.214,1.214,0,0,0,1.3-1.367v-.707a1.74,1.74,0,0,1-1.463.888c-1.3,0-2.135-1.044-2.135-2.939,0-1.859.84-2.95,2.135-2.95a1.659,1.659,0,0,1,1.463.876V191.1h1.44v5.493a2.394,2.394,0,0,1-2.663,2.65,2.989,2.989,0,0,1-2.135-.743Zm2.782-4.486a1.189,1.189,0,0,0-1-.683c-.732,0-1.116.671-1.116,1.679s.384,1.667,1.116,1.667a1.2,1.2,0,0,0,1-.671Z" fill="#2f2e2c"/>
    </g>
    <g>
      <path d="M123.111,194.77a2.615,2.615,0,0,0,1.919.851c.72,0,1.1-.4,1.1-.887,0-.612-.576-.876-1.307-1.187-1.008-.4-2.267-.876-2.267-2.459a2.394,2.394,0,0,1,2.638-2.326,3.458,3.458,0,0,1,2.423.886l-.767,1.2a2.451,2.451,0,0,0-1.692-.672c-.6,0-.959.336-.959.816,0,.539.552.791,1.271,1.091,1.031.408,2.291.936,2.291,2.519a2.407,2.407,0,0,1-2.711,2.435,3.7,3.7,0,0,1-2.734-1.032Z" fill="#2f2e2c"/>
      <path d="M131.295,190.956c1.595,0,2.494,1.3,2.494,3.095v.407h-3.634a1.378,1.378,0,0,0,1.4,1.415,1.751,1.751,0,0,0,1.26-.563l.659.863a2.825,2.825,0,0,1-2.075.864c-1.631,0-2.7-1.225-2.7-3.047C128.7,192.311,129.687,190.956,131.295,190.956Zm-1.14,2.519H132.4c-.024-.6-.288-1.356-1.127-1.356C130.467,192.119,130.179,192.875,130.155,193.475Z" fill="#2f2e2c"/>
      <path d="M135,199.1v-8h1.44v.732a1.725,1.725,0,0,1,1.463-.876c1.307,0,2.146,1.14,2.146,3.034s-.839,3.047-2.146,3.047a1.689,1.689,0,0,1-1.463-.876V199.1Zm2.435-6.873a1.209,1.209,0,0,0-.995.671v2.184a1.248,1.248,0,0,0,.995.684c.743,0,1.127-.756,1.127-1.776S138.181,192.227,137.438,192.227Z" fill="#2f2e2c"/>
    </g>
    <g>
      <path d="M164.132,188.762c2.1,0,3.346,1.761,3.346,4.136s-1.247,4.139-3.346,4.139-3.334-1.752-3.334-4.139S162.046,188.762,164.132,188.762Zm0,1.426c-1.091,0-1.679,1.164-1.679,2.71,0,1.524.588,2.711,1.679,2.711s1.7-1.187,1.7-2.711C165.835,191.352,165.235,190.188,164.132,190.188Z" fill="#2f2e2c"/>
      <path d="M171.129,190.956a2.309,2.309,0,0,1,1.846.779l-.72.995a1.21,1.21,0,0,0-.971-.5c-.827,0-1.319.755-1.319,1.763s.492,1.776,1.319,1.776a1.209,1.209,0,0,0,.971-.5l.72,1a2.309,2.309,0,0,1-1.846.78c-1.6,0-2.651-1.271-2.651-3.047A2.73,2.73,0,0,1,171.129,190.956Z" fill="#2f2e2c"/>
      <path d="M174.334,195.5v-3.143h-.756V191.1h.756v-1.583h1.439V191.1h.96v1.259h-.96v2.807c0,.371.144.6.42.6a.581.581,0,0,0,.432-.168l.3,1.1a1.662,1.662,0,0,1-1.115.336C174.8,197.037,174.334,196.521,174.334,195.5Z" fill="#2f2e2c"/>
    </g>
    <g>
      <path d="M236.806,188.893h2.578c2.207,0,3.478,1.655,3.478,4s-1.259,4-3.478,4h-2.578Zm2.578,6.585c1.188,0,1.835-1.056,1.835-2.58,0-1.583-.623-2.589-1.835-2.589h-.971v5.169Z" fill="#2f2e2c"/>
      <path d="M246.453,190.956c1.595,0,2.494,1.3,2.494,3.095v.407h-3.634a1.378,1.378,0,0,0,1.4,1.415,1.751,1.751,0,0,0,1.26-.563l.659.863a2.825,2.825,0,0,1-2.074.864c-1.632,0-2.7-1.225-2.7-3.047C243.862,192.311,244.845,190.956,246.453,190.956Zm-1.14,2.519h2.243c-.024-.6-.288-1.356-1.127-1.356C245.625,192.119,245.337,192.875,245.313,193.475Z" fill="#2f2e2c"/>
      <path d="M252.512,190.956a2.31,2.31,0,0,1,1.847.779l-.719.995a1.214,1.214,0,0,0-.972-.5c-.828,0-1.319.755-1.319,1.763s.491,1.776,1.319,1.776a1.212,1.212,0,0,0,.972-.5l.719,1a2.31,2.31,0,0,1-1.847.78c-1.595,0-2.651-1.271-2.651-3.047A2.73,2.73,0,0,1,252.512,190.956Z" fill="#2f2e2c"/>
    </g>
    <g>
      <path d="M199.323,191.8v5.1h-1.595v-8h1.631l2.626,4.893v-4.893h1.607v8h-1.535Z" fill="#2f2e2c"/>
      <path d="M204.892,193.99c0-1.619.911-3.034,2.614-3.034,1.728,0,2.627,1.415,2.627,3.034s-.9,3.047-2.627,3.047C205.8,197.037,204.892,195.621,204.892,193.99Zm3.754,0c0-.947-.348-1.763-1.14-1.763-.767,0-1.115.816-1.115,1.763s.348,1.776,1.115,1.776C208.3,195.766,208.646,194.949,208.646,193.99Z" fill="#2f2e2c"/>
      <path d="M210.712,191.1h1.535l1.163,4.066,1.176-4.066h1.535l-1.931,5.793h-1.547Z" fill="#2f2e2c"/>
    </g>
    <g>
      <path d="M275.235,195.166a1.357,1.357,0,0,0,1,.443.975.975,0,0,0,1.043-1.08v-5.636h1.607v5.685a2.25,2.25,0,0,1-2.5,2.459,2.466,2.466,0,0,1-1.727-.612Z" fill="#2f2e2c"/>
      <path d="M283.478,196.316a1.9,1.9,0,0,1-1.523.721,1.8,1.8,0,0,1-1.787-1.92,1.733,1.733,0,0,1,1.787-1.871,1.841,1.841,0,0,1,1.523.684v-.768a.951.951,0,0,0-1.068-1.007,2.024,2.024,0,0,0-1.426.624l-.541-.984a3.285,3.285,0,0,1,2.231-.839c1.26,0,2.255.564,2.255,2.051v3.886h-1.451Zm0-1.546a1.119,1.119,0,0,0-.972-.564.873.873,0,0,0-.9.936.862.862,0,0,0,.9.922,1.084,1.084,0,0,0,.972-.55Z" fill="#2f2e2c"/>
      <path d="M289.73,193.078c0-.611-.276-.851-.756-.851a1.311,1.311,0,0,0-1.055.72v3.946H286.48V191.1h1.439v.755a2.149,2.149,0,0,1,1.7-.9,1.407,1.407,0,0,1,1.547,1.583v4.354H289.73Z" fill="#2f2e2c"/>
    </g>
    <g>
      <path d="M312.55,188.893h4.581v1.4h-2.974v1.834h2.89v1.391h-2.89v3.371H312.55Z" fill="#2f2e2c"/>
      <path d="M320.708,190.956c1.6,0,2.495,1.3,2.495,3.095v.407h-3.635a1.379,1.379,0,0,0,1.4,1.415,1.753,1.753,0,0,0,1.26-.563l.659.863a2.826,2.826,0,0,1-2.074.864c-1.632,0-2.7-1.225-2.7-3.047C318.117,192.311,319.1,190.956,320.708,190.956Zm-1.14,2.519h2.244c-.025-.6-.288-1.356-1.127-1.356C319.881,192.119,319.593,192.875,319.568,193.475Z" fill="#2f2e2c"/>
      <path d="M324.417,188.893h1.44v2.939a1.674,1.674,0,0,1,1.463-.876c1.307,0,2.147,1.187,2.147,3.046,0,1.894-.852,3.035-2.147,3.035a1.745,1.745,0,0,1-1.463-.876v.732h-1.44Zm2.447,6.873c.732,0,1.116-.756,1.116-1.764s-.384-1.775-1.116-1.775a1.238,1.238,0,0,0-1.007.7v2.159A1.226,1.226,0,0,0,326.864,195.766Z" fill="#2f2e2c"/>
    </g>
    <g>
      <path d="M356.364,191.4l-1.8,5.494h-.66L352.13,191.4v5.494h-1.6v-8h2.159l1.548,4.8,1.559-4.8h2.146v8h-1.582Z" fill="#2f2e2c"/>
      <path d="M362.545,196.316a1.9,1.9,0,0,1-1.522.721,1.8,1.8,0,0,1-1.788-1.92,1.733,1.733,0,0,1,1.788-1.871,1.839,1.839,0,0,1,1.522.684v-.768a.951.951,0,0,0-1.067-1.007,2.03,2.03,0,0,0-1.428.624l-.539-.984a3.279,3.279,0,0,1,2.23-.839c1.26,0,2.255.564,2.255,2.051v3.886h-1.451Zm0-1.546a1.118,1.118,0,0,0-.972-.564.873.873,0,0,0-.9.936.862.862,0,0,0,.9.922,1.083,1.083,0,0,0,.972-.55Z" fill="#2f2e2c"/>
      <path d="M365.546,191.1h1.439v.8a1.973,1.973,0,0,1,1.584-.935v1.4a1.523,1.523,0,0,0-.347-.036,1.6,1.6,0,0,0-1.237.7v3.862h-1.439Z" fill="#2f2e2c"/>
    </g>
    <g>
      <path d="M393.4,195.465h-2.614l-.372,1.428h-1.667l2.374-8h1.944l2.375,8h-1.667Zm-2.291-1.4h1.967l-.983-3.742Z" fill="#2f2e2c"/>
      <path d="M396.32,199.1v-8h1.44v.732a1.725,1.725,0,0,1,1.463-.876c1.307,0,2.146,1.14,2.146,3.034s-.839,3.047-2.146,3.047a1.689,1.689,0,0,1-1.463-.876V199.1Zm2.435-6.873a1.209,1.209,0,0,0-1,.671v2.184a1.248,1.248,0,0,0,1,.684c.743,0,1.127-.756,1.127-1.776S399.5,192.227,398.755,192.227Z" fill="#2f2e2c"/>
      <path d="M402.62,191.1h1.44v.8a1.968,1.968,0,0,1,1.583-.935v1.4a1.532,1.532,0,0,0-.348-.036,1.6,1.6,0,0,0-1.235.7v3.862h-1.44Z" fill="#2f2e2c"/>
    </g>
    <g>
      <path d="M432.359,191.4l-1.8,5.494h-.66l-1.775-5.494v5.494h-1.6v-8h2.16l1.546,4.8,1.56-4.8h2.147v8h-1.584Z" fill="#2f2e2c"/>
      <path d="M438.541,196.316a1.9,1.9,0,0,1-1.523.721,1.8,1.8,0,0,1-1.787-1.92,1.733,1.733,0,0,1,1.787-1.871,1.842,1.842,0,0,1,1.523.684v-.768a.951.951,0,0,0-1.067-1.007,2.03,2.03,0,0,0-1.428.624l-.539-.984a3.279,3.279,0,0,1,2.23-.839c1.259,0,2.255.564,2.255,2.051v3.886h-1.451Zm0-1.546a1.119,1.119,0,0,0-.972-.564.872.872,0,0,0-.9.936.861.861,0,0,0,.9.922,1.084,1.084,0,0,0,.972-.55Z" fill="#2f2e2c"/>
      <path d="M442,197.973a.594.594,0,0,0,.636-.42l.192-.553-1.955-5.9h1.535l1.163,4.053,1.176-4.053h1.535l-2.267,6.776a1.767,1.767,0,0,1-1.906,1.367,3.26,3.26,0,0,1-.7-.084l.216-1.27A1.018,1.018,0,0,0,442,197.973Z" fill="#2f2e2c"/>
    </g>
    <g>
      <path d="M466.916,195.166a1.357,1.357,0,0,0,1,.443.975.975,0,0,0,1.043-1.08v-5.636h1.608v5.685a2.25,2.25,0,0,1-2.5,2.459,2.464,2.464,0,0,1-1.727-.612Z" fill="#2f2e2c"/>
      <path d="M475.41,196.161a2.112,2.112,0,0,1-1.7.876,1.386,1.386,0,0,1-1.547-1.559V191.1h1.44v3.826c0,.611.287.84.767.84a1.271,1.271,0,0,0,1.043-.708V191.1h1.44v5.793h-1.44Z" fill="#2f2e2c"/>
      <path d="M481.651,193.078c0-.611-.277-.851-.756-.851a1.314,1.314,0,0,0-1.056.72v3.946H478.4V191.1h1.439v.755a2.15,2.15,0,0,1,1.7-.9,1.408,1.408,0,0,1,1.547,1.583v4.354h-1.438Z" fill="#2f2e2c"/>
    </g>
    <g>
      <path d="M14.637,62.42C16.588,60.524,17,60.1,17,59.493a.667.667,0,0,0-.712-.672,1.372,1.372,0,0,0-1.135.6l-.64-.671a2.171,2.171,0,0,1,1.791-.88,1.618,1.618,0,0,1,1.783,1.615c0,.808-.543,1.495-1.887,2.855h1.911v.943h-3.47Z" fill="#2f2e2c"/>
      <path d="M19.077,64.026a1.346,1.346,0,0,0,.6-.751.521.521,0,0,1-.143.024.531.531,0,0,1-.528-.56.612.612,0,0,1,.608-.607.712.712,0,0,1,.679.792,1.8,1.8,0,0,1-.8,1.447Z" fill="#2f2e2c"/>
      <path d="M23.14,62.147H20.965v-.895l1.871-3.3h1.376V61.2h.535v.943h-.535v1.136H23.14ZM21.933,61.2H23.14V59.037Z" fill="#2f2e2c"/>
      <path d="M26.037,61.86a1.345,1.345,0,0,0,1.111.576.8.8,0,0,0,.808-.848.742.742,0,0,0-.76-.848,1.06,1.06,0,0,0-.879.441l-.776-.2V57.95h3.2v.936H26.6v1.375a1.319,1.319,0,0,1,.984-.432c.807,0,1.455.624,1.455,1.728a1.739,1.739,0,0,1-1.863,1.822,2.082,2.082,0,0,1-1.791-.839Z" fill="#2f2e2c"/>
      <path d="M29.821,62.42c1.951-1.9,2.359-2.319,2.359-2.927a.667.667,0,0,0-.712-.672,1.372,1.372,0,0,0-1.135.6l-.64-.671a2.171,2.171,0,0,1,1.791-.88,1.618,1.618,0,0,1,1.783,1.615c0,.808-.543,1.495-1.887,2.855h1.911v.943h-3.47Z" fill="#2f2e2c"/>
    </g>
    <g>
      <path d="M17.245,98.54l-.808.84-.616-.648,1.568-1.575h.935v5.333H17.245Z" fill="#2f2e2c"/>
      <path d="M19.421,103.233a1.352,1.352,0,0,0,.6-.751.518.518,0,0,1-.672-.536.612.612,0,0,1,.608-.607.711.711,0,0,1,.679.792,1.8,1.8,0,0,1-.8,1.447Z" fill="#2f2e2c"/>
      <path d="M22.1,101.219a.989.989,0,0,0,.84.416c.671,0,1.063-.744,1.063-1.6v-.1a1.336,1.336,0,0,1-1.135.672,1.533,1.533,0,0,1-1.5-1.727,1.719,1.719,0,0,1,1.752-1.815c1.407,0,1.958,1.272,1.958,2.759,0,1.591-.759,2.75-2.135,2.75A1.806,1.806,0,0,1,21.589,102Zm1.079-3.206a.757.757,0,0,0-.719.831c0,.632.368.864.743.864A.971.971,0,0,0,24,99.164C23.964,98.66,23.788,98.013,23.18,98.013Z" fill="#2f2e2c"/>
      <path d="M27.892,98.1H25.685v-.944h3.422V97.9l-1.655,4.59H26.293Z" fill="#2f2e2c"/>
      <path d="M30.373,101.067a1.346,1.346,0,0,0,1.111.576.8.8,0,0,0,.808-.848c0-.527-.28-.848-.76-.848a1.061,1.061,0,0,0-.879.441l-.776-.2V97.157h3.2v.936H30.941v1.375a1.315,1.315,0,0,1,.983-.432c.808,0,1.456.624,1.456,1.728a1.74,1.74,0,0,1-1.864,1.822,2.082,2.082,0,0,1-1.791-.839Z" fill="#2f2e2c"/>
    </g>
    <rect x="57.311" y="105.353" width="13.093" height="78.931" fill="#32b44a"/>
    <rect x="44.1" y="72.421" width="13.093" height="111.862" fill="#979797"/>
    <g>
      <g>
        <path d="M211.683,210.969c1.951-1.9,2.359-2.32,2.359-2.928a.666.666,0,0,0-.712-.671,1.372,1.372,0,0,0-1.135.6l-.64-.672a2.174,2.174,0,0,1,1.791-.88,1.618,1.618,0,0,1,1.783,1.615c0,.809-.543,1.5-1.887,2.856h1.911v.943h-3.47Z" fill="#2f2e2c"/>
        <path d="M217.81,206.418c1.327,0,1.887,1.232,1.887,2.751s-.552,2.759-1.887,2.759c-1.319,0-1.887-1.248-1.887-2.759S216.491,206.418,217.81,206.418Zm0,.952c-.616,0-.792.768-.792,1.8s.176,1.808.792,1.808.8-.785.8-1.808S218.434,207.37,217.81,207.37Z" fill="#2f2e2c"/>
        <path d="M222.338,209.937l-.992,1.895h-1.231l1.559-2.727L220.2,206.5h1.231l.9,1.783.9-1.783h1.24l-1.472,2.6,1.559,2.734h-1.231Z" fill="#2f2e2c"/>
        <path d="M226.929,209.937l-.991,1.895h-1.231l1.559-2.727L224.8,206.5h1.231l.9,1.783.9-1.783h1.239l-1.471,2.6,1.559,2.734h-1.231Z" fill="#2f2e2c"/>
      </g>
      <rect x="193.1" y="204.163" width="13.093" height="9.669" fill="#979797"/>
    </g>
    <g>
      <g>
        <path d="M265.753,210.969c1.951-1.9,2.358-2.32,2.358-2.928a.665.665,0,0,0-.711-.671,1.37,1.37,0,0,0-1.135.6l-.64-.672a2.174,2.174,0,0,1,1.791-.88,1.619,1.619,0,0,1,1.783,1.615c0,.809-.544,1.5-1.887,2.856h1.911v.943h-3.47Z" fill="#2f2e2c"/>
        <path d="M271.88,206.418c1.327,0,1.887,1.232,1.887,2.751s-.552,2.759-1.887,2.759c-1.319,0-1.887-1.248-1.887-2.759S270.561,206.418,271.88,206.418Zm0,.952c-.616,0-.792.768-.792,1.8s.176,1.808.792,1.808.8-.785.8-1.808S272.5,207.37,271.88,207.37Z" fill="#2f2e2c"/>
        <path d="M276.407,209.937l-.991,1.895h-1.231l1.559-2.727-1.471-2.607H275.5l.9,1.783.905-1.783h1.239l-1.472,2.6,1.56,2.734h-1.232Z" fill="#2f2e2c"/>
        <path d="M281,209.937l-.991,1.895h-1.232l1.56-2.727-1.472-2.607H280.1l.9,1.783.9-1.783h1.24l-1.472,2.6,1.56,2.734H282Z" fill="#2f2e2c"/>
      </g>
      <rect x="247.17" y="204.163" width="13.093" height="9.669" fill="#32b44a"/>
    </g>
    <g>
      <g>
        <path d="M319.823,210.969c1.951-1.9,2.359-2.32,2.359-2.928a.666.666,0,0,0-.712-.671,1.37,1.37,0,0,0-1.135.6l-.64-.672a2.174,2.174,0,0,1,1.791-.88,1.618,1.618,0,0,1,1.783,1.615c0,.809-.543,1.5-1.887,2.856h1.911v.943h-3.47Z" fill="#2f2e2c"/>
        <path d="M325.95,206.418c1.327,0,1.887,1.232,1.887,2.751s-.552,2.759-1.887,2.759c-1.319,0-1.887-1.248-1.887-2.759S324.631,206.418,325.95,206.418Zm0,.952c-.616,0-.792.768-.792,1.8s.176,1.808.792,1.808.8-.785.8-1.808S326.573,207.37,325.95,207.37Z" fill="#2f2e2c"/>
        <path d="M330.478,209.937l-.992,1.895h-1.231l1.559-2.727-1.471-2.607h1.231l.9,1.783.9-1.783h1.239l-1.47,2.6,1.558,2.734h-1.231Z" fill="#2f2e2c"/>
        <path d="M335.069,209.937l-.991,1.895h-1.231l1.558-2.727-1.47-2.607h1.231l.9,1.783.9-1.783h1.239l-1.471,2.6,1.559,2.734h-1.232Z" fill="#2f2e2c"/>
      </g>
      <rect x="301.239" y="204.163" width="13.093" height="9.669" fill="#0b79bf"/>
    </g>
    <rect x="93.37" y="86.977" width="13.093" height="97.306" fill="#32b44a"/>
    <rect x="80.159" y="62.138" width="13.093" height="122.146" fill="#979797"/>
    <rect x="131.053" y="77.335" width="13.093" height="106.949" fill="#32b44a"/>
    <rect x="117.841" y="80.57" width="13.093" height="103.714" fill="#979797"/>
    <rect x="168.761" y="84.367" width="13.093" height="99.916" fill="#32b44a"/>
    <rect x="155.55" y="89.92" width="13.093" height="94.363" fill="#979797"/>
    <rect x="206.245" y="92.994" width="13.093" height="91.29" fill="#32b44a"/>
    <rect x="193.034" y="112.52" width="13.093" height="71.763" fill="#979797"/>
    <rect x="245.605" y="80.57" width="13.093" height="103.714" fill="#32b44a"/>
    <rect x="232.394" y="104.447" width="13.093" height="79.836" fill="#979797"/>
    <rect x="281.927" y="89.92" width="13.093" height="94.363" fill="#0b79bf"/>
    <rect x="268.716" y="83.462" width="13.093" height="100.821" fill="#32b44a"/>
    <rect x="318.719" y="84.367" width="13.093" height="99.916" fill="#0b79bf"/>
    <rect x="305.507" y="83.462" width="13.093" height="100.821" fill="#32b44a"/>
    <rect x="355.744" y="78.03" width="13.093" height="106.254" fill="#0b79bf"/>
    <rect x="342.533" y="83.462" width="13.093" height="100.821" fill="#32b44a"/>
    <rect x="392.887" y="87.989" width="13.093" height="96.295" fill="#0b79bf"/>
    <rect x="379.676" y="94.049" width="13.093" height="90.235" fill="#32b44a"/>
    <rect x="430.088" y="105.353" width="13.093" height="78.931" fill="#0b79bf"/>
    <rect x="416.877" y="102.804" width="13.093" height="81.48" fill="#32b44a"/>
    <rect x="469.256" y="95.617" width="13.093" height="88.666" fill="#0b79bf"/>
    <rect x="456.044" y="100.528" width="13.093" height="83.756" fill="#32b44a"/>
    <line x1="36.546" y1="183.682" x2="527.078" y2="183.682" fill="none" stroke="#231f20" stroke-miterlimit="10"/>
    <line x1="36.546" y1="60.762" x2="527.078" y2="60.762" fill="none" stroke="#231f20" stroke-miterlimit="10"/>
    <line x1="36.546" y1="100.528" x2="527.078" y2="100.528" fill="none" stroke="#231f20" stroke-miterlimit="10"/>
    <line x1="36.546" y1="142.105" x2="527.078" y2="142.105" fill="none" stroke="#231f20" stroke-miterlimit="10"/>
    <g>
      <path d="M22.133,143.426a.987.987,0,0,0,.839.416c.672,0,1.064-.744,1.064-1.6v-.1a1.336,1.336,0,0,1-1.135.672,1.533,1.533,0,0,1-1.5-1.727,1.718,1.718,0,0,1,1.751-1.815c1.408,0,1.959,1.272,1.959,2.759,0,1.591-.759,2.75-2.135,2.75a1.8,1.8,0,0,1-1.359-.575Zm1.079-3.206a.757.757,0,0,0-.72.831c0,.632.368.864.744.864a.968.968,0,0,0,.791-.544C24,140.867,23.82,140.22,23.212,140.22Z" fill="#2f2e2c"/>
      <path d="M26.821,141.947a1.346,1.346,0,0,1-.944-1.271c0-.976.888-1.392,1.767-1.392s1.767.416,1.767,1.392a1.352,1.352,0,0,1-.951,1.271,1.551,1.551,0,0,1,1.024,1.383c0,.951-.784,1.463-1.84,1.463s-1.847-.512-1.847-1.455A1.553,1.553,0,0,1,26.821,141.947Zm.823.432a.923.923,0,0,0-.759.815.67.67,0,0,0,.759.663.678.678,0,0,0,.76-.663A.931.931,0,0,0,27.644,142.379Zm0-2.159a.619.619,0,0,0-.695.632c0,.463.488.671.695.719.2-.048.688-.256.688-.719A.617.617,0,0,0,27.644,140.22Z" fill="#2f2e2c"/>
      <path d="M32.276,140.308H30.069v-.944h3.422v.743l-1.655,4.59h-1.16Z" fill="#2f2e2c"/>
    </g>
    <path d="M31.484,181.206c1.328,0,1.887,1.232,1.887,2.751s-.552,2.758-1.887,2.758c-1.319,0-1.887-1.247-1.887-2.758S30.165,181.206,31.484,181.206Zm0,.951c-.615,0-.791.768-.791,1.8s.176,1.807.791,1.807.8-.784.8-1.807S32.108,182.157,31.484,182.157Z" fill="#2f2e2c"/>
  </g>
</svg>
