<svg xmlns="http://www.w3.org/2000/svg" width="131.556" height="58.849" viewBox="0 0 131.556 58.849">
  <g>
    <g>
      <path d="M5.281,9.547h-3.4l-.6,2.115H.112l2.8-9.343h1.33l2.8,9.343H5.883ZM2.115,8.566H5.043L3.572,3.384Z" transform="translate(0 -2.18)" fill="#0b79bf"/>
      <path d="M11.355,4.729a2.313,2.313,0,0,1,1.934.9l-.547.687a1.52,1.52,0,0,0-1.3-.687c-1.2,0-1.835,1.205-1.835,2.647s.631,2.662,1.835,2.662a1.555,1.555,0,0,0,1.3-.686l.547.686a2.279,2.279,0,0,1-1.934.9c-1.736,0-2.8-1.555-2.8-3.558S9.619,4.729,11.355,4.729Z" transform="translate(0 -2.18)" fill="#0b79bf"/>
      <path d="M17.879,4.729a2.311,2.311,0,0,1,1.933.9l-.546.687a1.522,1.522,0,0,0-1.3-.687c-1.2,0-1.835,1.205-1.835,2.647s.631,2.662,1.835,2.662a1.558,1.558,0,0,0,1.3-.686l.546.686a2.277,2.277,0,0,1-1.933.9c-1.736,0-2.8-1.555-2.8-3.558S16.143,4.729,17.879,4.729Z" transform="translate(0 -2.18)" fill="#0b79bf"/>
      <path d="M21.6,8.272c0-1.905.953-3.543,2.746-3.543,1.82,0,2.759,1.638,2.759,3.543s-.939,3.558-2.759,3.558C22.555,11.83,21.6,10.178,21.6,8.272Zm4.455,0c0-1.358-.519-2.647-1.709-2.647-1.163,0-1.7,1.289-1.7,2.647,0,1.374.533,2.662,1.7,2.662C25.538,10.934,26.057,9.646,26.057,8.272Z" transform="translate(0 -2.18)" fill="#0b79bf"/>
      <path d="M33.111,10.724A2.462,2.462,0,0,1,31.15,11.83c-1.148,0-1.694-.574-1.694-1.807V4.9h.994V9.729c0,.9.42,1.205,1.079,1.205a1.907,1.907,0,0,0,1.582-1.05V4.9H34.12v6.766H33.111Z" transform="translate(0 -2.18)" fill="#0b79bf"/>
      <path d="M40.462,6.844c0-.9-.406-1.219-1.078-1.219A1.978,1.978,0,0,0,37.8,6.7v4.958h-.994V4.9H37.8v.967a2.508,2.508,0,0,1,1.961-1.134c1.148,0,1.709.616,1.709,1.834v5.1H40.462Z" transform="translate(0 -2.18)" fill="#0b79bf"/>
      <path d="M44.352,10.3V5.779h-.9V4.9h.9V3.048H45.36V4.9h1.149v.883H45.36v4.342c0,.519.155.813.547.813a.756.756,0,0,0,.588-.266l.309.756a1.458,1.458,0,0,1-1.093.406C44.786,11.83,44.352,11.312,44.352,10.3Z" transform="translate(0 -2.18)" fill="#0b79bf"/>
      <path d="M52.584,2.319h1.121v9.343H52.584Z" transform="translate(0 -2.18)" fill="#0b79bf"/>
      <path d="M60.1,6.844c0-.9-.407-1.219-1.079-1.219A1.979,1.979,0,0,0,57.441,6.7v4.958h-.994V4.9h.994v.967A2.511,2.511,0,0,1,59.4,4.729c1.149,0,1.709.616,1.709,1.834v5.1H60.1Z" transform="translate(0 -2.18)" fill="#0b79bf"/>
      <path d="M64.036,5.779h-.9V4.9h.9V4.07a1.661,1.661,0,0,1,1.652-1.89,1.89,1.89,0,0,1,.869.195l-.238.785a.965.965,0,0,0-.448-.112c-.533,0-.827.364-.827,1.022V4.9h1.148v.883H65.044v5.883H64.036Z" transform="translate(0 -2.18)" fill="#0b79bf"/>
      <path d="M67.856,8.272c0-1.905.954-3.543,2.747-3.543,1.821,0,2.759,1.638,2.759,3.543S72.424,11.83,70.6,11.83C68.81,11.83,67.856,10.178,67.856,8.272Zm4.456,0c0-1.358-.519-2.647-1.709-2.647-1.164,0-1.7,1.289-1.7,2.647,0,1.374.532,2.662,1.7,2.662C71.793,10.934,72.312,9.646,72.312,8.272Z" transform="translate(0 -2.18)" fill="#0b79bf"/>
      <path d="M75.712,4.9h.994v1.08a2.271,2.271,0,0,1,1.919-1.219V5.793a1.432,1.432,0,0,0-.336-.042,2.032,2.032,0,0,0-1.583,1.106v4.805h-.994Z" transform="translate(0 -2.18)" fill="#0b79bf"/>
      <path d="M87.46,6.76c0-.729-.294-1.135-.939-1.135A1.853,1.853,0,0,0,85.051,6.7v4.958H84.043V6.76c0-.729-.3-1.135-.953-1.135A1.894,1.894,0,0,0,81.619,6.7v4.958h-.994V4.9h.994v.967a2.34,2.34,0,0,1,1.849-1.134A1.424,1.424,0,0,1,85,5.934a2.327,2.327,0,0,1,1.905-1.2c.995,0,1.569.545,1.569,1.764v5.169H87.46Z" transform="translate(0 -2.18)" fill="#0b79bf"/>
      <path d="M94.627,10.934a2.118,2.118,0,0,1-1.779.9A2.078,2.078,0,0,1,90.8,9.575a2.045,2.045,0,0,1,2.045-2.227,2.107,2.107,0,0,1,1.779.869V7.04A1.284,1.284,0,0,0,93.24,5.6a2.149,2.149,0,0,0-1.695.827L91.1,5.709a3.1,3.1,0,0,1,2.3-.98,1.992,1.992,0,0,1,2.241,2.2v4.734H94.627Zm0-1.975a1.625,1.625,0,0,0-1.457-.868,1.361,1.361,0,0,0-1.345,1.5A1.373,1.373,0,0,0,93.17,11.1a1.639,1.639,0,0,0,1.457-.854Z" transform="translate(0 -2.18)" fill="#0b79bf"/>
      <path d="M98.5,10.3V5.779h-.9V4.9h.9V3.048h1.009V4.9h1.148v.883H99.511v4.342c0,.519.154.813.547.813a.756.756,0,0,0,.588-.266l.308.756a1.455,1.455,0,0,1-1.093.406C98.937,11.83,98.5,11.312,98.5,10.3Z" transform="translate(0 -2.18)" fill="#0b79bf"/>
      <path d="M102.633,3.076a.7.7,0,0,1,.686-.686.686.686,0,1,1,0,1.372A.7.7,0,0,1,102.633,3.076Zm.2,1.82h.994v6.766h-.994Z" transform="translate(0 -2.18)" fill="#0b79bf"/>
      <path d="M106.174,8.272c0-1.905.953-3.543,2.746-3.543,1.82,0,2.76,1.638,2.76,3.543s-.94,3.558-2.76,3.558C107.127,11.83,106.174,10.178,106.174,8.272Zm4.455,0c0-1.358-.519-2.647-1.709-2.647-1.163,0-1.7,1.289-1.7,2.647,0,1.374.532,2.662,1.7,2.662C110.11,10.934,110.629,9.646,110.629,8.272Z" transform="translate(0 -2.18)" fill="#0b79bf"/>
      <path d="M117.684,6.844c0-.9-.407-1.219-1.079-1.219A1.979,1.979,0,0,0,115.022,6.7v4.958h-.994V4.9h.994v.967a2.511,2.511,0,0,1,1.961-1.134c1.149,0,1.709.616,1.709,1.834v5.1h-1.008Z" transform="translate(0 -2.18)" fill="#0b79bf"/>
    </g>
    <line y1="16.367" x2="131.556" y2="16.367" fill="none" stroke="#328aca" stroke-miterlimit="10"/>
    <g>
      <path d="M.6,24.843H2.736a1.422,1.422,0,0,1,1.513,1.531,1.323,1.323,0,0,1-.927,1.377,1.428,1.428,0,0,1,1.027,1.477A1.458,1.458,0,0,1,2.8,30.848H.6Zm1.953,2.566c.558,0,.81-.388.81-.9s-.252-.909-.81-.909h-1.1v1.809Zm.036,2.683c.576,0,.873-.361.873-.964a.86.86,0,0,0-.873-.963H1.458v1.927Z" transform="translate(0 -2.18)"/>
      <path d="M5.733,25.275a.509.509,0,0,1,.5-.5.5.5,0,0,1,.5.5.5.5,0,0,1-.5.5A.5.5,0,0,1,5.733,25.275ZM5.851,26.5h.773v4.348H5.851Z" transform="translate(0 -2.18)"/>
      <path d="M8.28,24.843h.774v6H8.28Z" transform="translate(0 -2.18)"/>
      <path d="M10.71,24.843h.773v6H10.71Z" transform="translate(0 -2.18)"/>
      <path d="M19.882,26.238l-1.521,4.61h-.342l-1.513-4.61v4.61h-.855v-6H16.83l1.359,4.141,1.378-4.141h1.162v6h-.847Z" transform="translate(0 -2.18)"/>
      <path d="M22.212,28.669c0-1.224.631-2.277,1.828-2.277s1.827,1.053,1.827,2.277-.63,2.287-1.827,2.287S22.212,29.894,22.212,28.669Zm2.854,0c0-.828-.315-1.593-1.026-1.593s-1.018.765-1.018,1.593.316,1.6,1.018,1.6S25.066,29.507,25.066,28.669Z" transform="translate(0 -2.18)"/>
      <path d="M29.692,27.823c0-.55-.253-.747-.657-.747a1.169,1.169,0,0,0-.955.648v3.124h-.773V26.5h.773v.6a1.616,1.616,0,0,1,1.261-.711c.756,0,1.116.414,1.116,1.179v3.277h-.765Z" transform="translate(0 -2.18)"/>
      <path d="M32.273,29.93V27.175H31.7V26.5h.576V25.312h.766V26.5h.73v.675h-.73v2.6c0,.307.107.5.342.5a.5.5,0,0,0,.369-.152l.2.576a.994.994,0,0,1-.738.261C32.57,30.956,32.273,30.6,32.273,29.93Z" transform="translate(0 -2.18)"/>
      <path d="M37.5,27.805c0-.54-.253-.729-.657-.729a1.179,1.179,0,0,0-.955.648v3.124h-.774v-6h.774V27.1a1.631,1.631,0,0,1,1.269-.711c.757,0,1.116.386,1.116,1.17v3.286H37.5Z" transform="translate(0 -2.18)"/>
      <path d="M42.271,29.768a1.082,1.082,0,0,0,.838.422.853.853,0,0,0,.91-.962V24.843h.855v4.412a1.546,1.546,0,0,1-1.692,1.7,1.673,1.673,0,0,1-1.27-.522Z" transform="translate(0 -2.18)"/>
      <path d="M48.816,30.4a1.4,1.4,0,0,1-1.143.559,1.337,1.337,0,0,1-1.323-1.449,1.314,1.314,0,0,1,1.323-1.423,1.362,1.362,0,0,1,1.143.54v-.693a.791.791,0,0,0-.864-.882,1.477,1.477,0,0,0-1.089.513l-.315-.541a2.09,2.09,0,0,1,1.53-.629,1.331,1.331,0,0,1,1.513,1.449v3.007h-.775Zm0-1.242a.992.992,0,0,0-.873-.522.9.9,0,0,0,0,1.783.992.992,0,0,0,.873-.522Z" transform="translate(0 -2.18)"/>
      <path d="M53.632,27.823c0-.55-.253-.747-.657-.747a1.167,1.167,0,0,0-.955.648v3.124h-.774V26.5h.774v.6a1.614,1.614,0,0,1,1.26-.711c.756,0,1.116.414,1.116,1.179v3.277h-.764Z" transform="translate(0 -2.18)"/>
      <path d="M58.446,30.263a1.593,1.593,0,0,1-1.269.693c-.757,0-1.116-.388-1.116-1.171V26.5h.773v3.043c0,.54.252.728.657.728a1.173,1.173,0,0,0,.955-.629V26.5h.765v4.348h-.765Z" transform="translate(0 -2.18)"/>
      <path d="M63.117,30.4a1.4,1.4,0,0,1-1.143.559,1.337,1.337,0,0,1-1.324-1.449,1.314,1.314,0,0,1,1.324-1.423,1.363,1.363,0,0,1,1.143.54v-.693a.791.791,0,0,0-.864-.882,1.476,1.476,0,0,0-1.089.513l-.315-.541a2.088,2.088,0,0,1,1.53-.629,1.331,1.331,0,0,1,1.513,1.449v3.007h-.775Zm0-1.242a.992.992,0,0,0-.873-.522.9.9,0,0,0,0,1.783.992.992,0,0,0,.873-.522Z" transform="translate(0 -2.18)"/>
      <path d="M65.547,26.5h.773v.666a1.464,1.464,0,0,1,1.216-.766v.784a.907.907,0,0,0-.225-.027,1.256,1.256,0,0,0-.991.657v3.034h-.773Z" transform="translate(0 -2.18)"/>
      <path d="M68.993,31.928c.252,0,.4-.1.5-.4l.207-.594L68.255,26.5h.828L70.1,29.911,71.136,26.5h.819l-1.728,5.212a1.115,1.115,0,0,1-1.18.9,1.934,1.934,0,0,1-.459-.062l.126-.685A.657.657,0,0,0,68.993,31.928Z" transform="translate(0 -2.18)"/>
      <path d="M.675,39.533a1.888,1.888,0,0,0,1.414.657.9.9,0,0,0,1.026-.89c0-.6-.54-.864-1.143-1.144-.73-.333-1.567-.693-1.567-1.782a1.659,1.659,0,0,1,1.8-1.63,2.285,2.285,0,0,1,1.656.639l-.432.648a1.667,1.667,0,0,0-1.251-.521.822.822,0,0,0-.9.818c0,.514.514.748,1.08,1.018.757.351,1.621.757,1.621,1.9A1.685,1.685,0,0,1,2.1,40.956,2.441,2.441,0,0,1,.234,40.2Z" transform="translate(0 -2.18)"/>
      <path d="M7,36.392c1.162,0,1.765,1.017,1.765,2.3v.225H5.977c.035.793.449,1.4,1.2,1.4a1.323,1.323,0,0,0,1-.5l.4.468a1.918,1.918,0,0,1-1.467.676c-1.18,0-1.918-.945-1.918-2.287C5.184,37.409,5.868,36.392,7,36.392Zm-1.035,1.98H8.011c-.009-.6-.28-1.342-1.018-1.342C6.273,37.03,5.994,37.787,5.967,38.372Z" transform="translate(0 -2.18)"/>
      <path d="M10.18,36.5h.773v.666a1.464,1.464,0,0,1,1.216-.766v.784a.915.915,0,0,0-.226-.027,1.256,1.256,0,0,0-.99.657v3.034H10.18Z" transform="translate(0 -2.18)"/>
      <path d="M12.888,36.5h.828l1.017,3.43,1.036-3.43h.819l-1.432,4.348h-.837Z" transform="translate(0 -2.18)"/>
      <path d="M17.6,35.275a.509.509,0,0,1,.5-.5.5.5,0,0,1,.5.5.5.5,0,0,1-.5.5A.5.5,0,0,1,17.6,35.275Zm.118,1.225H18.5v4.348h-.773Z" transform="translate(0 -2.18)"/>
      <path d="M21.789,36.392a1.535,1.535,0,0,1,1.288.585l-.405.522a.959.959,0,0,0-.811-.423c-.729,0-1.125.72-1.125,1.593s.4,1.6,1.125,1.6a.98.98,0,0,0,.811-.422l.405.522a1.511,1.511,0,0,1-1.288.585c-1.134,0-1.854-.981-1.854-2.287S20.655,36.392,21.789,36.392Z" transform="translate(0 -2.18)"/>
      <path d="M25.992,36.392c1.162,0,1.765,1.017,1.765,2.3v.225h-2.79c.035.793.449,1.4,1.2,1.4a1.322,1.322,0,0,0,1-.5l.4.468a1.922,1.922,0,0,1-1.468.676c-1.18,0-1.918-.945-1.918-2.287C24.174,37.409,24.858,36.392,25.992,36.392Zm-1.035,1.98H27c-.009-.6-.279-1.342-1.018-1.342C25.264,37.03,24.984,37.787,24.957,38.372Z" transform="translate(0 -2.18)"/>
      <path d="M31.68,34.843h1.692c1.584,0,2.476,1.278,2.476,3.007s-.883,3-2.467,3h-1.7Zm1.692,5.249c1.053,0,1.593-.954,1.593-2.242,0-1.3-.53-2.25-1.593-2.25h-.838v4.492Z" transform="translate(0 -2.18)"/>
      <path d="M39.573,40.4a1.4,1.4,0,0,1-1.143.559,1.338,1.338,0,0,1-1.324-1.449,1.314,1.314,0,0,1,1.324-1.423,1.363,1.363,0,0,1,1.143.54v-.693a.791.791,0,0,0-.864-.882,1.476,1.476,0,0,0-1.089.513l-.315-.541a2.09,2.09,0,0,1,1.53-.629,1.331,1.331,0,0,1,1.513,1.449v3.007h-.775Zm0-1.242a.992.992,0,0,0-.873-.522.9.9,0,0,0,0,1.783.992.992,0,0,0,.873-.522Z" transform="translate(0 -2.18)"/>
      <path d="M42.155,39.93V37.175h-.576V36.5h.576V35.312h.766V36.5h.729v.675h-.729v2.6c0,.307.108.495.342.495a.5.5,0,0,0,.369-.152l.2.576a1,1,0,0,1-.738.261C42.453,40.956,42.155,40.6,42.155,39.93Z" transform="translate(0 -2.18)"/>
      <path d="M46.6,36.392c1.162,0,1.764,1.017,1.764,2.3v.225h-2.79c.035.793.449,1.4,1.2,1.4a1.32,1.32,0,0,0,1-.5l.4.468a1.92,1.92,0,0,1-1.468.676c-1.18,0-1.918-.945-1.918-2.287C44.783,37.409,45.468,36.392,46.6,36.392Zm-1.036,1.98H47.61c-.008-.6-.279-1.342-1.017-1.342C45.873,37.03,45.594,37.787,45.566,38.372Z" transform="translate(0 -2.18)"/>
      <path d="M49.8,39.8a1.6,1.6,0,0,0,1.161.54c.478,0,.774-.234.774-.6,0-.414-.405-.593-.864-.774-.6-.225-1.3-.486-1.3-1.359a1.272,1.272,0,0,1,1.441-1.206,1.878,1.878,0,0,1,1.377.558l-.342.53a1.3,1.3,0,0,0-1.027-.467c-.432,0-.72.225-.72.54,0,.369.387.531.828.711.612.225,1.342.5,1.342,1.423a1.327,1.327,0,0,1-1.5,1.269,1.973,1.973,0,0,1-1.53-.612Z" transform="translate(0 -2.18)"/>
      <path d="M57.321,35.959l-.927.981-.5-.531,1.53-1.566h.747v6h-.846Z" transform="translate(0 -2.18)"/>
      <path d="M60.867,35.959l-.928.981-.5-.531,1.53-1.566h.747v6h-.846Z" transform="translate(0 -2.18)"/>
      <path d="M64.593,34.663h.585l-1.729,6.365h-.585Z" transform="translate(0 -2.18)"/>
      <path d="M66.5,39.443a1.511,1.511,0,0,0,1.287.747.945.945,0,0,0,1.035-1.044c0-.747-.5-.99-1.1-.99-.19,0-.414,0-.5.009v-.774c.082.008.325.008.477.008.595,0,1.036-.3,1.036-.918a.889.889,0,0,0-.981-.962,1.48,1.48,0,0,0-1.216.674l-.513-.486a2.069,2.069,0,0,1,1.782-.954,1.57,1.57,0,0,1,1.783,1.6,1.416,1.416,0,0,1-1.089,1.387,1.473,1.473,0,0,1,1.17,1.477,1.69,1.69,0,0,1-1.864,1.737,2.127,2.127,0,0,1-1.863-.99Z" transform="translate(0 -2.18)"/>
      <path d="M72.963,34.753c1.422,0,1.944,1.494,1.944,3.1s-.512,3.106-1.944,3.106-1.954-1.5-1.954-3.106S71.531,34.753,72.963,34.753Zm0,.766c-.864,0-1.08,1.152-1.08,2.331s.216,2.34,1.08,2.34,1.071-1.169,1.071-2.34S73.818,35.519,72.963,35.519Z" transform="translate(0 -2.18)"/>
      <path d="M77.562,34.663h.584l-1.728,6.365h-.585Z" transform="translate(0 -2.18)"/>
      <path d="M81.035,38.462l-1.314,2.386H78.73l1.783-3.07L78.83,34.843h.99l1.215,2.26,1.206-2.26h1l-1.675,2.935,1.774,3.07h-.99Z" transform="translate(0 -2.18)"/>
      <path d="M86.273,38.462l-1.314,2.386h-.99l1.782-3.07-1.683-2.935h.991l1.214,2.26,1.206-2.26h1l-1.674,2.935,1.773,3.07h-.99Z" transform="translate(0 -2.18)"/>
      <path d="M91.9,38.336h1.873V39H91.9Z" transform="translate(0 -2.18)"/>
      <path d="M98.594,35.959l-.928.981-.5-.531,1.53-1.566h.747v6h-.845Z" transform="translate(0 -2.18)"/>
      <path d="M101.042,40.154c2.034-2.223,2.646-2.881,2.646-3.709a.884.884,0,0,0-.917-.926,1.451,1.451,0,0,0-1.27.728l-.54-.521a2.108,2.108,0,0,1,1.818-.973,1.659,1.659,0,0,1,1.783,1.692c0,.973-.72,1.837-2.278,3.647h2.3v.756h-3.547Z" transform="translate(0 -2.18)"/>
      <path d="M107.342,34.663h.585L106.2,41.028h-.585Z" transform="translate(0 -2.18)"/>
      <path d="M108.916,40.154c2.034-2.223,2.646-2.881,2.646-3.709a.884.884,0,0,0-.917-.926,1.451,1.451,0,0,0-1.27.728l-.54-.521a2.108,2.108,0,0,1,1.818-.973,1.659,1.659,0,0,1,1.783,1.692c0,.973-.72,1.837-2.278,3.647h2.3v.756h-3.547Z" transform="translate(0 -2.18)"/>
      <path d="M115.037,37.751a1.569,1.569,0,0,1-1.09-1.458,1.795,1.795,0,1,1,2.458,1.458,1.81,1.81,0,0,1,1.189,1.6,1.645,1.645,0,0,1-1.865,1.6c-1.1,0-1.872-.6-1.872-1.6A1.8,1.8,0,0,1,115.037,37.751Zm.692.352a1.277,1.277,0,0,0-1.007,1.142,1.005,1.005,0,0,0,2.007,0A1.289,1.289,0,0,0,115.729,38.1Zm0-2.584a.852.852,0,0,0-.926.9c0,.675.693.954.926,1.017.226-.063.919-.342.919-1.017A.854.854,0,0,0,115.729,35.519Z" transform="translate(0 -2.18)"/>
      <path d="M120.229,34.663h.585l-1.728,6.365H118.5Z" transform="translate(0 -2.18)"/>
      <path d="M123.7,38.462l-1.314,2.386H121.4l1.783-3.07L121.5,34.843h.99L123.7,37.1l1.206-2.26h1l-1.675,2.935,1.774,3.07h-.99Z" transform="translate(0 -2.18)"/>
      <path d="M128.941,38.462l-1.314,2.386h-.99l1.782-3.07-1.683-2.935h.991l1.214,2.26,1.206-2.26h1l-1.674,2.935,1.773,3.07h-.99Z" transform="translate(0 -2.18)"/>
      <path d="M.6,44.843H2.3c1.584,0,2.475,1.278,2.475,3.007s-.882,3-2.466,3H.6ZM2.3,50.092c1.053,0,1.593-.954,1.593-2.242,0-1.3-.531-2.25-1.593-2.25H1.458v4.492Z" transform="translate(0 -2.18)"/>
      <path d="M8.5,50.4a1.4,1.4,0,0,1-1.143.559A1.337,1.337,0,0,1,6.03,49.507a1.314,1.314,0,0,1,1.324-1.423,1.363,1.363,0,0,1,1.143.54v-.693a.792.792,0,0,0-.864-.882,1.476,1.476,0,0,0-1.089.513l-.315-.541a2.088,2.088,0,0,1,1.53-.629,1.331,1.331,0,0,1,1.512,1.449v3.007H8.5Zm0-1.242a.993.993,0,0,0-.873-.522.9.9,0,0,0,0,1.783.993.993,0,0,0,.873-.522Z" transform="translate(0 -2.18)"/>
      <path d="M11.143,51.928c.252,0,.395-.1.5-.4l.208-.594L10.4,46.5h.828l1.018,3.411L13.285,46.5H14.1l-1.728,5.212a1.114,1.114,0,0,1-1.18.9,1.941,1.941,0,0,1-.459-.062l.126-.685A.658.658,0,0,0,11.143,51.928Z" transform="translate(0 -2.18)"/>
      <path d="M15.255,49.8a1.6,1.6,0,0,0,1.161.54c.478,0,.774-.234.774-.6,0-.414-.405-.593-.864-.774-.6-.225-1.3-.486-1.3-1.359a1.272,1.272,0,0,1,1.441-1.206,1.878,1.878,0,0,1,1.377.558l-.342.53a1.3,1.3,0,0,0-1.027-.467c-.432,0-.72.225-.72.54,0,.369.387.531.828.711.612.225,1.342.5,1.342,1.423a1.327,1.327,0,0,1-1.5,1.269,1.973,1.973,0,0,1-1.53-.612Z" transform="translate(0 -2.18)"/>
      <path d="M21.834,44.843h2.133a1.422,1.422,0,0,1,1.512,1.531,1.323,1.323,0,0,1-.926,1.377,1.427,1.427,0,0,1,1.026,1.477,1.458,1.458,0,0,1-1.549,1.62h-2.2Zm1.953,2.566c.559,0,.811-.388.811-.9s-.252-.909-.811-.909h-1.1v1.809Zm.036,2.683c.576,0,.873-.361.873-.964a.86.86,0,0,0-.873-.963H22.688v1.927Z" transform="translate(0 -2.18)"/>
      <path d="M26.964,45.275a.508.508,0,0,1,.5-.5.5.5,0,0,1,.5.5.5.5,0,0,1-.5.5A.5.5,0,0,1,26.964,45.275Zm.117,1.225h.773v4.348h-.773Z" transform="translate(0 -2.18)"/>
      <path d="M29.512,44.843h.773v6h-.773Z" transform="translate(0 -2.18)"/>
      <path d="M31.941,44.843h.774v6h-.774Z" transform="translate(0 -2.18)"/>
      <path d="M35.973,46.392c1.162,0,1.764,1.017,1.764,2.3v.225h-2.79c.035.793.449,1.4,1.2,1.4a1.323,1.323,0,0,0,1-.5l.4.468a1.92,1.92,0,0,1-1.468.676c-1.179,0-1.918-.945-1.918-2.287C34.154,47.409,34.839,46.392,35.973,46.392Zm-1.035,1.98h2.043c-.008-.6-.279-1.342-1.017-1.342C35.244,47.03,34.965,47.787,34.938,48.372Z" transform="translate(0 -2.18)"/>
      <path d="M41.644,50.254a1.369,1.369,0,0,1-1.134.7c-.973,0-1.576-.892-1.576-2.277,0-1.361.594-2.287,1.576-2.287a1.325,1.325,0,0,1,1.134.711v-2.26h.765v6h-.765Zm0-2.521a1.111,1.111,0,0,0-.918-.657c-.666,0-.991.711-.991,1.6s.325,1.592.991,1.592a1.1,1.1,0,0,0,.918-.648Z" transform="translate(0 -2.18)"/>
      <path d="M44.577,46.437a.54.54,0,1,1-.55.54A.548.548,0,0,1,44.577,46.437Zm0,3.42a.541.541,0,1,1-.55.54A.548.548,0,0,1,44.577,49.857Z" transform="translate(0 -2.18)"/>
      <path d="M49.418,49.443a1.511,1.511,0,0,0,1.287.747.945.945,0,0,0,1.035-1.044c0-.747-.5-.99-1.1-.99-.19,0-.414,0-.5.009v-.774c.082.008.325.008.477.008.595,0,1.036-.3,1.036-.918a.889.889,0,0,0-.981-.962,1.48,1.48,0,0,0-1.216.674l-.513-.486a2.069,2.069,0,0,1,1.782-.954,1.57,1.57,0,0,1,1.783,1.6,1.416,1.416,0,0,1-1.089,1.387,1.473,1.473,0,0,1,1.17,1.477,1.69,1.69,0,0,1-1.864,1.737,2.127,2.127,0,0,1-1.863-.99Z" transform="translate(0 -2.18)"/>
      <path d="M55.881,44.753c1.422,0,1.944,1.494,1.944,3.1s-.513,3.106-1.944,3.106-1.954-1.5-1.954-3.106S54.449,44.753,55.881,44.753Zm0,.766c-.864,0-1.08,1.152-1.08,2.331s.216,2.34,1.08,2.34,1.071-1.169,1.071-2.34S56.736,45.519,55.881,45.519Z" transform="translate(0 -2.18)"/>
      <path d="M.6,54.843H2.539a1.841,1.841,0,0,1,0,3.674H1.458v2.331H.6Zm1.835.757H1.458v2.16h.981a1.091,1.091,0,0,0,0-2.16Z" transform="translate(0 -2.18)"/>
      <path d="M5.229,58.669c0-1.224.63-2.277,1.828-2.277s1.827,1.053,1.827,2.277-.63,2.287-1.827,2.287S5.229,59.894,5.229,58.669Zm2.854,0c0-.828-.315-1.593-1.026-1.593s-1.018.765-1.018,1.593.315,1.6,1.018,1.6S8.083,59.507,8.083,58.669Z" transform="translate(0 -2.18)"/>
      <path d="M10.323,56.5H11.1v.666a1.462,1.462,0,0,1,1.215-.766v.784a.907.907,0,0,0-.225-.027,1.253,1.253,0,0,0-.99.657v3.034h-.774Z" transform="translate(0 -2.18)"/>
      <path d="M13.707,59.93V57.175h-.576V56.5h.576V55.312h.766V56.5H15.2v.675h-.729v2.6c0,.307.107.495.341.495a.5.5,0,0,0,.37-.152l.2.576a1,1,0,0,1-.738.261C14,60.956,13.707,60.6,13.707,59.93Z" transform="translate(0 -2.18)"/>
      <path d="M16.435,55.275a.508.508,0,0,1,.5-.5.5.5,0,0,1,.5.5.5.5,0,0,1-.5.5A.5.5,0,0,1,16.435,55.275Zm.117,1.225h.773v4.348h-.773Z" transform="translate(0 -2.18)"/>
      <path d="M18.765,58.669c0-1.224.631-2.277,1.828-2.277s1.827,1.053,1.827,2.277-.63,2.287-1.827,2.287S18.765,59.894,18.765,58.669Zm2.854,0c0-.828-.315-1.593-1.026-1.593s-1.018.765-1.018,1.593.316,1.6,1.018,1.6S21.619,59.507,21.619,58.669Z" transform="translate(0 -2.18)"/>
      <path d="M26.245,57.823c0-.55-.253-.747-.657-.747a1.167,1.167,0,0,0-.955.648v3.124h-.774V56.5h.774v.6a1.614,1.614,0,0,1,1.261-.711c.755,0,1.116.414,1.116,1.179v3.277h-.765Z" transform="translate(0 -2.18)"/>
      <path d="M29.178,56.437a.54.54,0,1,1-.55.54A.548.548,0,0,1,29.178,56.437Zm0,3.42a.541.541,0,1,1-.55.54A.548.548,0,0,1,29.178,59.857Z" transform="translate(0 -2.18)"/>
      <path d="M35.577,54.753c1.422,0,1.944,1.494,1.944,3.1s-.512,3.106-1.944,3.106-1.954-1.5-1.954-3.106S34.146,54.753,35.577,54.753Zm0,.766c-.864,0-1.08,1.152-1.08,2.331s.216,2.34,1.08,2.34,1.071-1.169,1.071-2.34S36.433,55.519,35.577,55.519Z" transform="translate(0 -2.18)"/>
      <path d="M39.23,59.443a1.514,1.514,0,0,0,1.288.747.945.945,0,0,0,1.035-1.044c0-.747-.495-.99-1.1-.99-.189,0-.414,0-.495.009v-.774c.081.008.324.008.477.008.594,0,1.036-.3,1.036-.918a.89.89,0,0,0-.982-.962,1.481,1.481,0,0,0-1.216.674l-.512-.486a2.069,2.069,0,0,1,1.782-.954,1.569,1.569,0,0,1,1.782,1.6,1.415,1.415,0,0,1-1.089,1.387,1.473,1.473,0,0,1,1.17,1.477,1.689,1.689,0,0,1-1.863,1.737,2.126,2.126,0,0,1-1.863-.99Z" transform="translate(0 -2.18)"/>
      <path d="M48.159,54.753c1.422,0,1.945,1.494,1.945,3.1s-.513,3.106-1.945,3.106-1.954-1.5-1.954-3.106S46.728,54.753,48.159,54.753Zm0,.766c-.864,0-1.08,1.152-1.08,2.331s.216,2.34,1.08,2.34,1.071-1.169,1.071-2.34S49.015,55.519,48.159,55.519Z" transform="translate(0 -2.18)"/>
      <path d="M52.578,55.959l-.928.981-.5-.531,1.531-1.566h.747v6h-.846Z" transform="translate(0 -2.18)"/>
      <path d="M56.3,54.663h.585L55.16,61.028h-.585Z" transform="translate(0 -2.18)"/>
      <path d="M59.777,58.462l-1.314,2.386h-.99l1.782-3.07-1.683-2.935h.99l1.215,2.26,1.206-2.26h1l-1.674,2.935,1.773,3.07h-.99Z" transform="translate(0 -2.18)"/>
      <path d="M65.016,58.462,63.7,60.848h-.99l1.782-3.07-1.682-2.935h.99l1.215,2.26,1.206-2.26h1l-1.675,2.935,1.773,3.07h-.99Z" transform="translate(0 -2.18)"/>
    </g>
  </g>
</svg>
