<svg xmlns="http://www.w3.org/2000/svg" width="131.556" height="61.451" viewBox="0 0 131.556 61.451">
  <g>
    <g>
      <path d="M3.446,7.922H2.1v3.74H.98V2.318H3.838A2.536,2.536,0,0,1,6.4,5.106,2.42,2.42,0,0,1,4.538,7.754L6.5,11.662H5.239ZM3.712,3.3H2.1V6.941h1.61c.967,0,1.541-.756,1.541-1.821S4.679,3.3,3.712,3.3Z" transform="translate(0 -2.179)" fill="#0b79bf"/>
      <path d="M12.084,10.934a2.118,2.118,0,0,1-1.779.9A2.078,2.078,0,0,1,8.26,9.575a2.045,2.045,0,0,1,2.045-2.227,2.107,2.107,0,0,1,1.779.868V7.039A1.284,1.284,0,0,0,10.7,5.6,2.153,2.153,0,0,0,9,6.423l-.448-.714a3.1,3.1,0,0,1,2.3-.98,1.992,1.992,0,0,1,2.241,2.2v4.734H12.084Zm0-1.976a1.625,1.625,0,0,0-1.457-.868,1.361,1.361,0,0,0-1.345,1.5A1.373,1.373,0,0,0,10.627,11.1a1.638,1.638,0,0,0,1.457-.855Z" transform="translate(0 -2.179)" fill="#0b79bf"/>
      <path d="M15.891,10.3V5.778h-.9V4.9h.9V3.047H16.9V4.9h1.149v.882H16.9v4.343c0,.519.155.813.547.813a.757.757,0,0,0,.588-.267l.309.757a1.455,1.455,0,0,1-1.093.406C16.324,11.83,15.891,11.312,15.891,10.3Z" transform="translate(0 -2.179)" fill="#0b79bf"/>
      <path d="M22.556,4.729c1.778,0,2.674,1.6,2.674,3.571v.308H20.847c.042,1.359.742,2.381,1.947,2.381a2.085,2.085,0,0,0,1.61-.826l.533.588A2.814,2.814,0,0,1,22.71,11.83c-1.808,0-2.9-1.485-2.9-3.558C19.81,6.311,20.847,4.729,22.556,4.729ZM20.847,7.866h3.389c-.013-1.037-.462-2.3-1.7-2.3C21.351,5.568,20.875,6.871,20.847,7.866Z" transform="translate(0 -2.179)" fill="#0b79bf"/>
      <path d="M31.3,2.318h1.121v9.344H31.3Z" transform="translate(0 -2.179)" fill="#0b79bf"/>
      <path d="M38.753,6.844c0-.9-.406-1.219-1.078-1.219A1.976,1.976,0,0,0,36.092,6.7v4.959H35.1V4.9h.994v.966a2.509,2.509,0,0,1,1.961-1.133c1.148,0,1.709.616,1.709,1.834v5.1H38.753Z" transform="translate(0 -2.179)" fill="#0b79bf"/>
      <path d="M42.616,5.778h-.9V4.9h.9V4.069a1.661,1.661,0,0,1,1.653-1.89,1.889,1.889,0,0,1,.868.2l-.238.784a.965.965,0,0,0-.448-.112c-.533,0-.827.364-.827,1.022V4.9h1.148v.882H43.624v5.884H42.616Z" transform="translate(0 -2.179)" fill="#0b79bf"/>
      <path d="M46.367,8.272c0-1.905.953-3.543,2.746-3.543,1.821,0,2.76,1.638,2.76,3.543s-.939,3.558-2.76,3.558C47.32,11.83,46.367,10.177,46.367,8.272Zm4.455,0c0-1.359-.518-2.647-1.709-2.647-1.163,0-1.7,1.288-1.7,2.647s.532,2.662,1.7,2.662C50.3,10.934,50.822,9.645,50.822,8.272Z" transform="translate(0 -2.179)" fill="#0b79bf"/>
      <path d="M54.151,4.9h.995V5.975a2.27,2.27,0,0,1,1.918-1.219V5.793a1.373,1.373,0,0,0-.335-.042,2.028,2.028,0,0,0-1.583,1.106v4.805h-.995Z" transform="translate(0 -2.179)" fill="#0b79bf"/>
      <path d="M65.83,6.759c0-.728-.294-1.134-.938-1.134A1.856,1.856,0,0,0,63.421,6.7v4.959H62.413v-4.9c0-.728-.295-1.134-.953-1.134A1.9,1.9,0,0,0,59.989,6.7v4.959H59V4.9h.994v.966a2.341,2.341,0,0,1,1.849-1.133,1.424,1.424,0,0,1,1.527,1.2,2.327,2.327,0,0,1,1.906-1.2c.994,0,1.568.545,1.568,1.764v5.169H65.83Z" transform="translate(0 -2.179)" fill="#0b79bf"/>
      <path d="M72.927,10.934a2.119,2.119,0,0,1-1.78.9A2.078,2.078,0,0,1,69.1,9.575a2.045,2.045,0,0,1,2.044-2.227,2.107,2.107,0,0,1,1.78.868V7.039A1.284,1.284,0,0,0,71.54,5.6a2.151,2.151,0,0,0-1.7.826L69.4,5.709a3.1,3.1,0,0,1,2.3-.98,1.992,1.992,0,0,1,2.242,2.2v4.734H72.927Zm0-1.976A1.625,1.625,0,0,0,71.47,8.09a1.361,1.361,0,0,0-1.345,1.5A1.373,1.373,0,0,0,71.47,11.1a1.638,1.638,0,0,0,1.457-.855Z" transform="translate(0 -2.179)" fill="#0b79bf"/>
      <path d="M76.732,10.3V5.778h-.9V4.9h.9V3.047h1.009V4.9H78.89v.882H77.741v4.343c0,.519.155.813.547.813a.757.757,0,0,0,.588-.267l.309.757a1.458,1.458,0,0,1-1.093.406C77.167,11.83,76.732,11.312,76.732,10.3Z" transform="translate(0 -2.179)" fill="#0b79bf"/>
      <path d="M80.793,3.075a.7.7,0,0,1,.686-.686.687.687,0,1,1,0,1.373A.7.7,0,0,1,80.793,3.075Zm.2,1.821h.994v6.766h-.994Z" transform="translate(0 -2.179)" fill="#0b79bf"/>
      <path d="M84.264,8.272c0-1.905.953-3.543,2.746-3.543,1.82,0,2.76,1.638,2.76,3.543s-.94,3.558-2.76,3.558C85.217,11.83,84.264,10.177,84.264,8.272Zm4.455,0c0-1.359-.519-2.647-1.709-2.647-1.163,0-1.7,1.288-1.7,2.647s.533,2.662,1.7,2.662C88.2,10.934,88.719,9.645,88.719,8.272Z" transform="translate(0 -2.179)" fill="#0b79bf"/>
      <path d="M95.7,6.844c0-.9-.406-1.219-1.078-1.219A1.978,1.978,0,0,0,93.043,6.7v4.959h-.994V4.9h.994v.966A2.511,2.511,0,0,1,95,4.729c1.148,0,1.709.616,1.709,1.834v5.1H95.7Z" transform="translate(0 -2.179)" fill="#0b79bf"/>
    </g>
    <line y1="15.367" x2="131.556" y2="15.367" fill="none" stroke="#328aca" stroke-miterlimit="10"/>
    <g>
      <path d="M.6,24.517H3.79v.756H1.458v1.81h2.27v.756H1.458v1.927H3.79v.755H.6Z" transform="translate(0 -2.179)"/>
      <path d="M5.293,24.517h.773v6H5.293Z" transform="translate(0 -2.179)"/>
      <path d="M9.324,26.065c1.162,0,1.765,1.018,1.765,2.3V28.6H8.3c.035.793.449,1.395,1.2,1.395a1.322,1.322,0,0,0,1-.5l.4.468a1.922,1.922,0,0,1-1.468.676c-1.18,0-1.918-.945-1.918-2.287C7.506,27.083,8.19,26.065,9.324,26.065ZM8.289,28.046h2.044c-.009-.6-.279-1.342-1.018-1.342C8.6,26.7,8.316,27.461,8.289,28.046Z" transform="translate(0 -2.179)"/>
      <path d="M14.139,26.065a1.535,1.535,0,0,1,1.288.585l-.406.523a.957.957,0,0,0-.81-.423c-.73,0-1.125.72-1.125,1.593s.395,1.6,1.125,1.6a.977.977,0,0,0,.81-.423l.406.523a1.511,1.511,0,0,1-1.288.585c-1.134,0-1.855-.982-1.855-2.287S13.005,26.065,14.139,26.065Z" transform="translate(0 -2.179)"/>
      <path d="M21.42,24.418a2.008,2.008,0,0,1,1.846,1.206l-.694.343a1.272,1.272,0,0,0-1.152-.783c-.9,0-1.512.926-1.512,2.339s.612,2.35,1.512,2.35a1.443,1.443,0,0,0,1.071-.468v-1.26H21.142v-.756H23.3v2.34a2.34,2.34,0,0,1-1.882.91c-1.431,0-2.386-1.261-2.386-3.116S19.989,24.418,21.42,24.418Z" transform="translate(0 -2.179)"/>
      <path d="M26.469,26.065c1.162,0,1.764,1.018,1.764,2.3V28.6h-2.79c.036.793.45,1.395,1.2,1.395a1.323,1.323,0,0,0,1-.5l.4.468a1.92,1.92,0,0,1-1.468.676c-1.179,0-1.918-.945-1.918-2.287C24.65,27.083,25.335,26.065,26.469,26.065Zm-1.035,1.981h2.044c-.009-.6-.28-1.342-1.018-1.342C25.74,26.7,25.461,27.461,25.434,28.046Z" transform="translate(0 -2.179)"/>
      <path d="M32.032,27.5c0-.55-.253-.747-.657-.747a1.168,1.168,0,0,0-.955.647v3.124h-.774V26.174h.774v.6a1.617,1.617,0,0,1,1.261-.711c.756,0,1.116.414,1.116,1.18v3.276h-.765Z" transform="translate(0 -2.179)"/>
      <path d="M37.043,29.207a1.888,1.888,0,0,0,1.414.657.9.9,0,0,0,1.026-.89c0-.6-.54-.865-1.143-1.144-.73-.333-1.567-.693-1.567-1.782a1.659,1.659,0,0,1,1.8-1.63,2.281,2.281,0,0,1,1.656.639l-.432.648a1.665,1.665,0,0,0-1.251-.521.822.822,0,0,0-.9.818c0,.514.514.748,1.081,1.018.756.351,1.621.756,1.621,1.9a1.685,1.685,0,0,1-1.882,1.711,2.437,2.437,0,0,1-1.863-.757Z" transform="translate(0 -2.179)"/>
      <path d="M43.371,26.065c1.161,0,1.764,1.018,1.764,2.3V28.6h-2.79c.035.793.45,1.395,1.2,1.395a1.322,1.322,0,0,0,1-.5l.4.468a1.922,1.922,0,0,1-1.468.676c-1.18,0-1.918-.945-1.918-2.287C41.552,27.083,42.236,26.065,43.371,26.065Zm-1.036,1.981h2.044c-.009-.6-.279-1.342-1.018-1.342C42.642,26.7,42.362,27.461,42.335,28.046Z" transform="translate(0 -2.179)"/>
      <path d="M48.186,26.065a1.536,1.536,0,0,1,1.288.585l-.406.523a.957.957,0,0,0-.81-.423c-.73,0-1.125.72-1.125,1.593s.395,1.6,1.125,1.6a.977.977,0,0,0,.81-.423l.406.523a1.512,1.512,0,0,1-1.288.585c-1.134,0-1.855-.982-1.855-2.287S47.052,26.065,48.186,26.065Z" transform="translate(0 -2.179)"/>
      <path d="M54.954,28.19h-.8v2.331H53.3v-6h1.953a1.676,1.676,0,0,1,1.7,1.828,1.577,1.577,0,0,1-1.161,1.7l1.216,2.475h-.964Zm.18-2.917h-.982v2.161h.982a1.092,1.092,0,0,0,0-2.161Z" transform="translate(0 -2.179)"/>
      <path d="M60.588,30.071a1.405,1.405,0,0,1-1.144.559,1.337,1.337,0,0,1-1.323-1.449,1.314,1.314,0,0,1,1.323-1.423,1.364,1.364,0,0,1,1.144.54V27.6a.792.792,0,0,0-.864-.881,1.478,1.478,0,0,0-1.089.512l-.316-.54a2.093,2.093,0,0,1,1.531-.63,1.331,1.331,0,0,1,1.512,1.45v3.006h-.774Zm0-1.242a.994.994,0,0,0-.873-.522.9.9,0,0,0,0,1.783,1,1,0,0,0,.873-.523Z" transform="translate(0 -2.179)"/>
      <path d="M63.17,29.6V26.849h-.576v-.675h.576V24.985h.766v1.189h.729v.675h-.729v2.6c0,.307.107.5.341.5a.5.5,0,0,0,.369-.152l.2.576a1,1,0,0,1-.739.261C63.467,30.63,63.17,30.278,63.17,29.6Z" transform="translate(0 -2.179)"/>
      <path d="M67.617,26.065c1.161,0,1.764,1.018,1.764,2.3V28.6h-2.79c.035.793.45,1.395,1.2,1.395a1.322,1.322,0,0,0,1-.5l.4.468a1.922,1.922,0,0,1-1.468.676c-1.18,0-1.918-.945-1.918-2.287C65.8,27.083,66.482,26.065,67.617,26.065Zm-1.036,1.981h2.044c-.009-.6-.279-1.342-1.018-1.342C66.888,26.7,66.608,27.461,66.581,28.046Z" transform="translate(0 -2.179)"/>
      <path d="M75.474,24.418a2.006,2.006,0,0,1,1.845,1.206l-.693.343a1.273,1.273,0,0,0-1.152-.783c-.9,0-1.512.926-1.512,2.339s.612,2.35,1.512,2.35a1.443,1.443,0,0,0,1.071-.468v-1.26h-1.35v-.756h2.16v2.34a2.338,2.338,0,0,1-1.881.91c-1.431,0-2.386-1.261-2.386-3.116S74.043,24.418,75.474,24.418Z" transform="translate(0 -2.179)"/>
      <path d="M79.036,29.207a1.89,1.89,0,0,0,1.414.657.9.9,0,0,0,1.027-.89c0-.6-.54-.865-1.144-1.144-.729-.333-1.566-.693-1.566-1.782a1.658,1.658,0,0,1,1.8-1.63,2.285,2.285,0,0,1,1.657.639l-.433.648a1.665,1.665,0,0,0-1.251-.521.821.821,0,0,0-.9.818c0,.514.513.748,1.08,1.018.757.351,1.621.756,1.621,1.9a1.685,1.685,0,0,1-1.882,1.711,2.44,2.44,0,0,1-1.863-.757Z" transform="translate(0 -2.179)"/>
      <path d="M86.057,27.523c0-1.8.919-3.105,2.368-3.105a1.988,1.988,0,0,1,1.854,1.251l-.711.324a1.256,1.256,0,0,0-1.143-.809c-.909,0-1.494.99-1.494,2.339s.585,2.341,1.494,2.341a1.248,1.248,0,0,0,1.143-.882l.72.325a1.991,1.991,0,0,1-1.863,1.323C86.976,30.63,86.057,29.324,86.057,27.523Z" transform="translate(0 -2.179)"/>
      <path d="M91.411,28.343c0-1.224.631-2.278,1.828-2.278s1.827,1.054,1.827,2.278-.629,2.287-1.827,2.287S91.411,29.567,91.411,28.343Zm2.855,0c0-.828-.316-1.593-1.027-1.593s-1.017.765-1.017,1.593.315,1.6,1.017,1.6S94.266,29.181,94.266,28.343Z" transform="translate(0 -2.179)"/>
      <path d="M100.979,27.434c0-.442-.179-.684-.576-.684a1.11,1.11,0,0,0-.89.647v3.124h-.766V27.434c0-.432-.18-.684-.585-.684a1.149,1.149,0,0,0-.883.647v3.124h-.773V26.174h.773v.6a1.5,1.5,0,0,1,1.2-.711.926.926,0,0,1,1,.775,1.5,1.5,0,0,1,1.233-.775c.657,0,1.035.351,1.035,1.135v3.321h-.766Z" transform="translate(0 -2.179)"/>
      <path d="M2.26,38.19h-.8v2.331H.6v-6H2.557a1.676,1.676,0,0,1,1.7,1.828,1.577,1.577,0,0,1-1.161,1.7l1.215,2.475H3.349Zm.179-2.917H1.458v2.161h.981a1.091,1.091,0,0,0,0-2.161Z" transform="translate(0 -2.179)"/>
      <path d="M7.894,40.071a1.407,1.407,0,0,1-1.144.559,1.337,1.337,0,0,1-1.323-1.449A1.314,1.314,0,0,1,6.75,37.758a1.365,1.365,0,0,1,1.144.54V37.6a.792.792,0,0,0-.865-.881,1.48,1.48,0,0,0-1.089.512l-.315-.54a2.091,2.091,0,0,1,1.53-.63,1.332,1.332,0,0,1,1.513,1.45v3.006H7.894Zm0-1.242a.994.994,0,0,0-.873-.522.9.9,0,0,0,0,1.783,1,1,0,0,0,.873-.523Z" transform="translate(0 -2.179)"/>
      <path d="M10.476,39.6V36.849H9.9v-.675h.577V34.985h.765v1.189h.73v.675h-.73v2.6c0,.307.109.495.342.495a.5.5,0,0,0,.369-.152l.2.576a1,1,0,0,1-.738.261C10.773,40.63,10.476,40.278,10.476,39.6Z" transform="translate(0 -2.179)"/>
      <path d="M14.922,36.065c1.162,0,1.765,1.018,1.765,2.3V38.6H13.9c.036.793.45,1.4,1.2,1.4a1.323,1.323,0,0,0,1-.5l.4.468a1.92,1.92,0,0,1-1.468.676c-1.179,0-1.917-.945-1.917-2.287C13.1,37.083,13.788,36.065,14.922,36.065Zm-1.035,1.981h2.044c-.009-.6-.28-1.342-1.018-1.342C14.193,36.7,13.914,37.461,13.887,38.046Z" transform="translate(0 -2.179)"/>
      <path d="M18.6,36.11a.54.54,0,1,1-.55.54A.548.548,0,0,1,18.6,36.11Zm0,3.421a.54.54,0,1,1-.55.54A.548.548,0,0,1,18.6,39.531Z" transform="translate(0 -2.179)"/>
      <path d="M24.211,35.633l-.928.981-.5-.531,1.531-1.566h.747v6h-.846Z" transform="translate(0 -2.179)"/>
      <path d="M27.757,35.633l-.928.981-.5-.531,1.53-1.566H28.6v6h-.846Z" transform="translate(0 -2.179)"/>
      <path d="M31.3,35.633l-.928.981-.5-.531,1.53-1.566h.747v6H31.3Z" transform="translate(0 -2.179)"/>
      <path d="M35.641,34.427c1.421,0,1.944,1.494,1.944,3.1s-.513,3.107-1.944,3.107-1.954-1.5-1.954-3.107S34.209,34.427,35.641,34.427Zm0,.765c-.865,0-1.08,1.153-1.08,2.331s.215,2.341,1.08,2.341,1.071-1.17,1.071-2.341S36.5,35.192,35.641,35.192Z" transform="translate(0 -2.179)"/>
      <path d="M2.772,47.418a2.008,2.008,0,0,1,1.846,1.206l-.693.343a1.276,1.276,0,0,0-1.153-.783c-.9,0-1.511.926-1.511,2.339s.612,2.35,1.511,2.35a1.443,1.443,0,0,0,1.072-.468v-1.26H2.494v-.756h2.16v2.34a2.34,2.34,0,0,1-1.882.91c-1.43,0-2.385-1.261-2.385-3.116S1.342,47.418,2.772,47.418Z" transform="translate(0 -2.179)"/>
      <path d="M8.461,53.071a1.405,1.405,0,0,1-1.144.559,1.337,1.337,0,0,1-1.323-1.449,1.314,1.314,0,0,1,1.323-1.423,1.364,1.364,0,0,1,1.144.54V50.6a.792.792,0,0,0-.864-.881,1.478,1.478,0,0,0-1.089.512l-.316-.54a2.093,2.093,0,0,1,1.531-.63,1.331,1.331,0,0,1,1.512,1.45v3.006H8.461Zm0-1.242a.994.994,0,0,0-.873-.522.9.9,0,0,0,0,1.783,1,1,0,0,0,.873-.523Z" transform="translate(0 -2.179)"/>
      <path d="M10.908,52.469a1.6,1.6,0,0,0,1.161.54c.478,0,.775-.235.775-.6,0-.414-.406-.593-.865-.774-.6-.225-1.295-.486-1.295-1.36a1.271,1.271,0,0,1,1.44-1.206,1.877,1.877,0,0,1,1.377.559l-.342.53a1.3,1.3,0,0,0-1.026-.467c-.433,0-.721.225-.721.54,0,.369.388.531.828.711.613.225,1.342.5,1.342,1.422a1.327,1.327,0,0,1-1.5,1.27,1.973,1.973,0,0,1-1.53-.612Z" transform="translate(0 -2.179)"/>
      <path d="M19.656,47.418A2.008,2.008,0,0,1,21.5,48.624l-.693.343a1.275,1.275,0,0,0-1.153-.783c-.9,0-1.511.926-1.511,2.339s.611,2.35,1.511,2.35a1.443,1.443,0,0,0,1.072-.468v-1.26h-1.35v-.756h2.16v2.34a2.34,2.34,0,0,1-1.882.91c-1.43,0-2.385-1.261-2.385-3.116S18.226,47.418,19.656,47.418Z" transform="translate(0 -2.179)"/>
      <path d="M24.705,49.065c1.162,0,1.765,1.018,1.765,2.3V51.6H23.68c.035.793.449,1.4,1.2,1.4a1.322,1.322,0,0,0,1-.5l.4.468a1.918,1.918,0,0,1-1.467.676c-1.18,0-1.918-.945-1.918-2.287C22.887,50.083,23.571,49.065,24.705,49.065ZM23.67,51.046h2.044c-.009-.6-.279-1.342-1.018-1.342C23.977,49.7,23.7,50.461,23.67,51.046Z" transform="translate(0 -2.179)"/>
      <path d="M30.268,50.5c0-.55-.253-.747-.658-.747a1.166,1.166,0,0,0-.955.647v3.124h-.773V49.174h.773v.6a1.618,1.618,0,0,1,1.261-.711c.756,0,1.116.414,1.116,1.18v3.276h-.764Z" transform="translate(0 -2.179)"/>
      <path d="M35.279,52.207a1.89,1.89,0,0,0,1.414.657.9.9,0,0,0,1.027-.89c0-.6-.54-.865-1.144-1.144-.729-.333-1.566-.693-1.566-1.782a1.659,1.659,0,0,1,1.8-1.63,2.282,2.282,0,0,1,1.656.639l-.433.648a1.665,1.665,0,0,0-1.251-.521.821.821,0,0,0-.9.818c0,.514.513.748,1.08,1.018.757.351,1.621.756,1.621,1.9A1.685,1.685,0,0,1,36.7,53.63a2.44,2.44,0,0,1-1.863-.757Z" transform="translate(0 -2.179)"/>
      <path d="M41.607,49.065c1.162,0,1.764,1.018,1.764,2.3V51.6h-2.79c.035.793.45,1.4,1.2,1.4a1.32,1.32,0,0,0,1-.5l.4.468a1.92,1.92,0,0,1-1.468.676c-1.18,0-1.918-.945-1.918-2.287C39.788,50.083,40.473,49.065,41.607,49.065Zm-1.036,1.981h2.044c-.009-.6-.279-1.342-1.017-1.342C40.878,49.7,40.6,50.461,40.571,51.046Z" transform="translate(0 -2.179)"/>
      <path d="M44.784,49.174h.774v.666a1.46,1.46,0,0,1,1.215-.766v.783a.957.957,0,0,0-.225-.026,1.253,1.253,0,0,0-.99.657v3.033h-.774Z" transform="translate(0 -2.179)"/>
      <path d="M47.492,49.174h.828l1.018,3.43,1.035-3.43h.819l-1.431,4.347h-.837Z" transform="translate(0 -2.179)"/>
      <path d="M56.493,51.19h-.8v2.331h-.854v-6H56.79a1.676,1.676,0,0,1,1.7,1.828,1.577,1.577,0,0,1-1.161,1.7l1.216,2.475h-.964Zm.18-2.917h-.982v2.161h.982a1.092,1.092,0,0,0,0-2.161Z" transform="translate(0 -2.179)"/>
      <path d="M62.127,53.071a1.405,1.405,0,0,1-1.144.559,1.337,1.337,0,0,1-1.323-1.449,1.314,1.314,0,0,1,1.323-1.423,1.364,1.364,0,0,1,1.144.54V50.6a.792.792,0,0,0-.864-.881,1.478,1.478,0,0,0-1.089.512l-.316-.54a2.093,2.093,0,0,1,1.531-.63,1.331,1.331,0,0,1,1.512,1.45v3.006h-.774Zm0-1.242a.994.994,0,0,0-.873-.522.9.9,0,0,0,0,1.783,1,1,0,0,0,.873-.523Z" transform="translate(0 -2.179)"/>
      <path d="M64.709,52.6V49.849h-.576v-.675h.576V47.985h.766v1.189H66.2v.675h-.729v2.6c0,.307.107.495.341.495a.5.5,0,0,0,.37-.152l.2.576a1,1,0,0,1-.738.261C65.006,53.63,64.709,53.278,64.709,52.6Z" transform="translate(0 -2.179)"/>
      <path d="M69.156,49.065c1.161,0,1.764,1.018,1.764,2.3V51.6H68.13c.035.793.45,1.4,1.2,1.4a1.322,1.322,0,0,0,1-.5l.4.468a1.92,1.92,0,0,1-1.468.676c-1.18,0-1.918-.945-1.918-2.287C67.337,50.083,68.021,49.065,69.156,49.065ZM68.12,51.046h2.044c-.009-.6-.279-1.342-1.018-1.342C68.427,49.7,68.147,50.461,68.12,51.046Z" transform="translate(0 -2.179)"/>
      <path d="M77.013,47.418a2.006,2.006,0,0,1,1.845,1.206l-.693.343a1.273,1.273,0,0,0-1.152-.783c-.9,0-1.512.926-1.512,2.339s.612,2.35,1.512,2.35a1.443,1.443,0,0,0,1.071-.468v-1.26h-1.35v-.756H78.9v2.34a2.34,2.34,0,0,1-1.882.91c-1.431,0-2.386-1.261-2.386-3.116S75.582,47.418,77.013,47.418Z" transform="translate(0 -2.179)"/>
      <path d="M80.575,52.207a1.89,1.89,0,0,0,1.414.657.9.9,0,0,0,1.027-.89c0-.6-.54-.865-1.144-1.144-.729-.333-1.566-.693-1.566-1.782a1.658,1.658,0,0,1,1.8-1.63,2.285,2.285,0,0,1,1.657.639l-.433.648a1.665,1.665,0,0,0-1.251-.521.821.821,0,0,0-.9.818c0,.514.513.748,1.08,1.018.757.351,1.621.756,1.621,1.9A1.685,1.685,0,0,1,82,53.63a2.44,2.44,0,0,1-1.863-.757Z" transform="translate(0 -2.179)"/>
      <path d="M85.013,51.01h1.872v.666H85.013Z" transform="translate(0 -2.179)"/>
      <path d="M89.243,48.633l-.928.981-.5-.531,1.53-1.566h.747v6h-.846Z" transform="translate(0 -2.179)"/>
      <path d="M93.977,51.01h1.872v.666H93.977Z" transform="translate(0 -2.179)"/>
      <path d="M97.045,50.523c0-1.8.919-3.105,2.368-3.105a1.99,1.99,0,0,1,1.855,1.251l-.711.324a1.259,1.259,0,0,0-1.144-.809c-.909,0-1.494.99-1.494,2.339s.585,2.341,1.494,2.341a1.249,1.249,0,0,0,1.144-.882l.719.325a1.99,1.99,0,0,1-1.863,1.323C97.964,53.63,97.045,52.324,97.045,50.523Z" transform="translate(0 -2.179)"/>
      <path d="M102.4,51.343c0-1.224.631-2.278,1.829-2.278s1.827,1.054,1.827,2.278-.63,2.287-1.827,2.287S102.4,52.567,102.4,51.343Zm2.855,0c0-.828-.316-1.593-1.026-1.593s-1.018.765-1.018,1.593.315,1.6,1.018,1.6S105.255,52.181,105.255,51.343Z" transform="translate(0 -2.179)"/>
      <path d="M111.969,50.434c0-.442-.18-.684-.576-.684a1.112,1.112,0,0,0-.891.647v3.124h-.766V50.434c0-.432-.179-.684-.585-.684a1.146,1.146,0,0,0-.882.647v3.124H107.5V49.174h.774v.6a1.5,1.5,0,0,1,1.2-.711.926.926,0,0,1,1,.775,1.5,1.5,0,0,1,1.233-.775c.657,0,1.035.351,1.035,1.135v3.321h-.765Z" transform="translate(0 -2.179)"/>
      <path d="M2.26,61.19h-.8v2.331H.6v-6H2.557a1.676,1.676,0,0,1,1.7,1.828,1.577,1.577,0,0,1-1.161,1.7l1.215,2.475H3.349Zm.179-2.917H1.458v2.161h.981a1.091,1.091,0,0,0,0-2.161Z" transform="translate(0 -2.179)"/>
      <path d="M7.894,63.071a1.407,1.407,0,0,1-1.144.559,1.337,1.337,0,0,1-1.323-1.449A1.314,1.314,0,0,1,6.75,60.758a1.365,1.365,0,0,1,1.144.54V60.6a.792.792,0,0,0-.865-.881,1.48,1.48,0,0,0-1.089.512l-.315-.54a2.091,2.091,0,0,1,1.53-.63,1.332,1.332,0,0,1,1.513,1.45v3.006H7.894Zm0-1.242a.994.994,0,0,0-.873-.522.9.9,0,0,0,0,1.783,1,1,0,0,0,.873-.523Z" transform="translate(0 -2.179)"/>
      <path d="M10.476,62.6V59.849H9.9v-.675h.577V57.985h.765v1.189h.73v.675h-.73v2.6c0,.307.109.495.342.495a.5.5,0,0,0,.369-.152l.2.576a1,1,0,0,1-.738.261C10.773,63.63,10.476,63.278,10.476,62.6Z" transform="translate(0 -2.179)"/>
      <path d="M14.922,59.065c1.162,0,1.765,1.018,1.765,2.3V61.6H13.9c.036.793.45,1.4,1.2,1.4a1.323,1.323,0,0,0,1-.5l.4.468a1.92,1.92,0,0,1-1.468.676c-1.179,0-1.917-.945-1.917-2.287C13.1,60.083,13.788,59.065,14.922,59.065Zm-1.035,1.981h2.044c-.009-.6-.28-1.342-1.018-1.342C14.193,59.7,13.914,60.461,13.887,61.046Z" transform="translate(0 -2.179)"/>
      <path d="M18.6,59.11a.54.54,0,1,1-.55.54A.548.548,0,0,1,18.6,59.11Zm0,3.421a.54.54,0,1,1-.55.54A.548.548,0,0,1,18.6,62.531Z" transform="translate(0 -2.179)"/>
      <path d="M23.112,62.828c2.034-2.224,2.647-2.881,2.647-3.709a.886.886,0,0,0-.918-.927,1.452,1.452,0,0,0-1.27.729l-.54-.522a2.11,2.11,0,0,1,1.819-.972,1.659,1.659,0,0,1,1.782,1.692c0,.973-.72,1.837-2.278,3.647h2.3v.755H23.112Z" transform="translate(0 -2.179)"/>
      <path d="M30.2,57.427a1.736,1.736,0,0,1,1.441.72l-.451.622a1.058,1.058,0,0,0-.981-.577c-.891,0-1.278,1.134-1.278,2.224v.152a1.545,1.545,0,0,1,1.314-.845c.883,0,1.6.648,1.6,1.926a1.826,1.826,0,0,1-1.791,1.981c-1.486,0-1.991-1.485-1.991-3.107C28.07,58.867,28.728,57.427,30.2,57.427Zm-.2,3.034a1.319,1.319,0,0,0-1.062.828c.045.649.27,1.575,1.072,1.575.666,0,.963-.621.963-1.188C30.979,60.794,30.537,60.461,30.006,60.461Z" transform="translate(0 -2.179)"/>
      <path d="M34.29,58.633l-.928.981-.5-.531,1.531-1.566h.747v6H34.29Z" transform="translate(0 -2.179)"/>
    </g>
  </g>
</svg>
