<svg xmlns="http://www.w3.org/2000/svg" width="156.869" height="213.887" viewBox="0 0 156.869 213.887">
  <g>
    <rect width="156.869" height="88.318" fill="#f2f0ec"/>
    <path d="M0,91.562H156.869a0,0,0,0,1,0,0V193.887a20,20,0,0,1-20,20H0a0,0,0,0,1,0,0V91.562A0,0,0,0,1,0,91.562Z" fill="#f2f0ec"/>
    <g>
      <path d="M61.327,113.215c0-2.246,1.243-3.8,3.2-3.8a2.683,2.683,0,0,1,2.629,1.924l-1.463.628a1.245,1.245,0,0,0-1.166-.979c-.869,0-1.387.934-1.387,2.223s.518,2.221,1.387,2.221a1.268,1.268,0,0,0,1.166-1.055l1.474.626a2.733,2.733,0,0,1-2.64,2C62.57,117.009,61.327,115.447,61.327,113.215Z" fill="#0b79bf"/>
      <path d="M67.806,114.215a2.538,2.538,0,1,1,2.52,2.794A2.532,2.532,0,0,1,67.806,114.215Zm3.41,0c0-.77-.274-1.375-.89-1.375s-.881.6-.881,1.375.275,1.386.881,1.386S71.216,115,71.216,114.215Z" fill="#0b79bf"/>
      <path d="M74.109,115.162a2.554,2.554,0,0,0,1.507.627c.44,0,.66-.165.66-.43s-.33-.385-.792-.506c-.759-.209-1.826-.472-1.826-1.749,0-.891.715-1.672,2.068-1.672a3.184,3.184,0,0,1,1.958.671l-.616,1.067a2,2,0,0,0-1.331-.528c-.341,0-.583.143-.583.374s.286.352.748.473c.781.209,1.893.495,1.893,1.8,0,1-.836,1.715-2.146,1.715a3.156,3.156,0,0,1-2.179-.758Z" fill="#0b79bf"/>
      <path d="M79.026,115.5V112.95h-.671v-1.386h.671v-1.452h1.595v1.452h.858v1.386h-.858v2.156c0,.309.121.5.363.5a.544.544,0,0,0,.363-.121l.286,1.233a1.779,1.779,0,0,1-1.1.3A1.326,1.326,0,0,1,79.026,115.5Z" fill="#0b79bf"/>
      <path d="M84.965,118.9v-7.338h1.6v.627a1.51,1.51,0,0,1,1.309-.759c1.2,0,1.991,1.012,1.991,2.783,0,1.75-.792,2.794-1.991,2.794a1.5,1.5,0,0,1-1.309-.758V118.9Zm2.366-6.062a.916.916,0,0,0-.77.484v1.782a.953.953,0,0,0,.77.5c.583,0,.9-.56.9-1.386S87.914,112.84,87.331,112.84Z" fill="#0b79bf"/>
      <path d="M93.084,111.432c1.5,0,2.377,1.155,2.377,2.861v.439H92.193a1.088,1.088,0,0,0,1.166,1.024,1.579,1.579,0,0,0,1.089-.462l.7.957a2.821,2.821,0,0,1-1.979.758,2.8,2.8,0,0,1-.089-5.577Zm-.9,2.233h1.76c-.021-.429-.22-.979-.88-.979C92.424,112.686,92.215,113.236,92.182,113.665Z" fill="#0b79bf"/>
      <path d="M96.427,111.564h1.6v.682a1.853,1.853,0,0,1,1.419-.814v1.54a1.429,1.429,0,0,0-.341-.044,1.4,1.4,0,0,0-1.078.528v3.422h-1.6Z" fill="#0b79bf"/>
      <path d="M105.887,116.251a1.566,1.566,0,0,1-1.32.758c-1.187,0-1.991-1.011-1.991-2.794,0-1.716.792-2.783,1.991-2.783a1.541,1.541,0,0,1,1.32.759V109.54h1.585v7.338h-1.585Zm0-2.927a.973.973,0,0,0-.781-.484c-.583,0-.9.561-.9,1.375s.318,1.386.9,1.386a.986.986,0,0,0,.781-.5Z" fill="#0b79bf"/>
      <path d="M111.53,116.361a1.78,1.78,0,0,1-1.4.648,1.65,1.65,0,0,1-1.661-1.759,1.576,1.576,0,0,1,1.661-1.695,1.752,1.752,0,0,1,1.4.6v-.615a.819.819,0,0,0-.935-.826,2.027,2.027,0,0,0-1.309.55l-.561-1.067a3.306,3.306,0,0,1,2.178-.77c1.211,0,2.212.517,2.212,1.948v3.5H111.53Zm0-1.354a.869.869,0,0,0-.77-.417.688.688,0,1,0,0,1.375.872.872,0,0,0,.77-.418Z" fill="#0b79bf"/>
      <path d="M114.94,117.626c.275,0,.473-.088.55-.308l.121-.342-1.8-5.412h1.683l.935,3.4.957-3.4h1.683l-2.057,6.106a1.774,1.774,0,0,1-1.947,1.364,2.847,2.847,0,0,1-.693-.088l.221-1.4A.7.7,0,0,0,114.94,117.626Z" fill="#0b79bf"/>
      <path d="M120.681,111.487a.985.985,0,1,1-.99.978A1,1,0,0,1,120.681,111.487Zm0,3.554a.979.979,0,1,1-.99.978A1,1,0,0,1,120.681,115.041Z" fill="#0b79bf"/>
    </g>
    <g>
      <path d="M63.691,161.2l-.462.692v1.233H61.634v-7.338h1.595v4.191l1.32-2.167h1.837L64.792,160.2l1.683,2.927H64.616Z" fill="#0b79bf"/>
      <path d="M70.8,158.688l-.814,4.434H68.146l-1.694-7.338h1.9l.815,4.676.957-4.676h1.364l.946,4.676.814-4.676h1.9l-1.694,7.338H71.623Z" fill="#0b79bf"/>
      <path d="M78.97,159.744c0-.484-.23-.659-.627-.659a1,1,0,0,0-.825.56v3.477H75.934v-7.338h1.584v2.684a1.965,1.965,0,0,1,1.573-.792,1.306,1.306,0,0,1,1.464,1.441v4.005H78.97Z" fill="#0b79bf"/>
      <path d="M84.36,165.146v-7.338h1.595v.627a1.511,1.511,0,0,1,1.309-.759c1.2,0,1.992,1.012,1.992,2.784,0,1.749-.792,2.794-1.992,2.794a1.5,1.5,0,0,1-1.309-.759v2.651Zm2.365-6.061a.915.915,0,0,0-.77.483v1.782a.953.953,0,0,0,.77.5c.583,0,.9-.56.9-1.385S87.308,159.085,86.725,159.085Z" fill="#0b79bf"/>
      <path d="M92.478,157.676c1.5,0,2.377,1.155,2.377,2.861v.439H91.588A1.087,1.087,0,0,0,92.754,162a1.58,1.58,0,0,0,1.088-.462l.7.957a2.825,2.825,0,0,1-1.981.759,2.8,2.8,0,0,1-.088-5.578Zm-.9,2.233h1.761c-.023-.429-.22-.979-.88-.979C91.818,158.93,91.609,159.48,91.576,159.909Z" fill="#0b79bf"/>
      <path d="M95.822,157.808h1.595v.682a1.853,1.853,0,0,1,1.42-.814v1.54a1.451,1.451,0,0,0-.342-.043,1.407,1.407,0,0,0-1.078.527v3.422H95.822Z" fill="#0b79bf"/>
      <path d="M105.282,162.5a1.568,1.568,0,0,1-1.32.759c-1.189,0-1.992-1.012-1.992-2.794,0-1.717.792-2.784,1.992-2.784a1.541,1.541,0,0,1,1.32.759v-2.651h1.584v7.338h-1.584Zm0-2.927a.972.972,0,0,0-.781-.483c-.583,0-.9.56-.9,1.375s.32,1.385.9,1.385a.986.986,0,0,0,.781-.5Z" fill="#0b79bf"/>
      <path d="M110.925,162.6a1.784,1.784,0,0,1-1.4.649,1.65,1.65,0,0,1-1.661-1.76,1.575,1.575,0,0,1,1.661-1.695,1.753,1.753,0,0,1,1.4.6v-.615a.819.819,0,0,0-.935-.825,2.023,2.023,0,0,0-1.309.549l-.561-1.067a3.307,3.307,0,0,1,2.179-.77c1.209,0,2.21.517,2.21,1.948v3.5h-1.584Zm0-1.353a.868.868,0,0,0-.77-.418.688.688,0,1,0,0,1.375.872.872,0,0,0,.77-.418Z" fill="#0b79bf"/>
      <path d="M114.335,163.87a.51.51,0,0,0,.549-.308l.122-.342-1.805-5.412h1.683l.936,3.4.957-3.4h1.683l-2.057,6.106a1.773,1.773,0,0,1-1.947,1.364,2.855,2.855,0,0,1-.694-.088l.22-1.4A.726.726,0,0,0,114.335,163.87Z" fill="#0b79bf"/>
      <path d="M120.076,157.731a.985.985,0,1,1-.99.979A1,1,0,0,1,120.076,157.731Zm0,3.554a.979.979,0,1,1-.99.978A1,1,0,0,1,120.076,161.285Z" fill="#0b79bf"/>
    </g>
    <g>
      <path d="M66.475,136.3v1.582H64.69v-1.531a5.353,5.353,0,0,1-3.365-1.444l1.308-2.109a3.81,3.81,0,0,0,2.754,1.208c.816,0,1.309-.425,1.309-.987,0-.679-.663-1-1.614-1.359-1.462-.528-3.417-1.156-3.417-3.553a3.408,3.408,0,0,1,3.025-3.365v-1.615h1.785v1.581a5.3,5.3,0,0,1,2.805,1.24l-1.258,2.04a3.631,3.631,0,0,0-2.4-.935c-.783,0-1.157.391-1.157.9,0,.612.646.918,1.632,1.275,1.445.527,3.383,1.24,3.383,3.535A3.421,3.421,0,0,1,66.475,136.3Z" fill="#0b79bf"/>
      <path d="M75.213,134.006H70.538v-2.261l3.91-6.9h3.518v6.766h1.105v2.4H77.966v2.175H75.213Zm-2.21-2.4h2.21V127.58Z" fill="#0b79bf"/>
      <path d="M82,133.342a1.513,1.513,0,1,1-1.53,1.513A1.54,1.54,0,0,1,82,133.342Z" fill="#0b79bf"/>
      <path d="M87.147,130.334a2.8,2.8,0,0,1-1.972-2.669c0-2.124,2.057-2.992,4.029-2.992,1.955,0,4.028.868,4.028,2.992a2.811,2.811,0,0,1-1.988,2.669,3.242,3.242,0,0,1,2.141,2.889c0,2.091-1.8,3.162-4.181,3.162-2.4,0-4.182-1.053-4.182-3.144A3.229,3.229,0,0,1,87.147,130.334Zm2.057,1.088c-.477.068-1.428.561-1.428,1.445,0,.765.611,1.173,1.428,1.173.8,0,1.428-.408,1.428-1.173C90.632,131.983,89.663,131.49,89.2,131.422Zm0-4.4c-.8,0-1.276.425-1.276,1.122,0,.765.851,1.173,1.276,1.258.425-.085,1.274-.493,1.274-1.258C90.478,127.444,89.986,127.019,89.2,127.019Z" fill="#0b79bf"/>
      <path d="M94.847,133.971c4.352-3.909,5.015-4.572,5.015-5.66A1.233,1.233,0,0,0,98.5,127.1a3.059,3.059,0,0,0-2.414,1.207l-1.6-1.751a5.151,5.151,0,0,1,4.079-1.887c2.4,0,4.063,1.428,4.063,3.6,0,1.632-1,2.975-3.807,5.508h3.892v2.4H94.847Z" fill="#0b79bf"/>
    </g>
    <g>
      <path d="M61.787,180.215c4.351-3.909,5.014-4.572,5.014-5.66a1.232,1.232,0,0,0-1.359-1.207,3.058,3.058,0,0,0-2.414,1.207l-1.6-1.751a5.151,5.151,0,0,1,4.079-1.886c2.4,0,4.063,1.427,4.063,3.6,0,1.632-1,2.975-3.808,5.508h3.893v2.4h-7.87Z" fill="#0b79bf"/>
      <path d="M73.126,176.578a2.794,2.794,0,0,1-1.972-2.669c0-2.124,2.057-2.991,4.028-2.991,1.955,0,4.029.867,4.029,2.991a2.809,2.809,0,0,1-1.989,2.669,3.241,3.241,0,0,1,2.142,2.889c0,2.091-1.8,3.163-4.182,3.163-2.4,0-4.181-1.054-4.181-3.145A3.227,3.227,0,0,1,73.126,176.578Zm2.056,1.088c-.475.068-1.427.561-1.427,1.445,0,.765.612,1.173,1.427,1.173.8,0,1.428-.408,1.428-1.173C76.61,178.227,75.641,177.734,75.182,177.666Zm0-4.4c-.8,0-1.274.425-1.274,1.122,0,.765.849,1.173,1.274,1.258.425-.085,1.276-.493,1.276-1.258C76.458,173.688,75.965,173.263,75.182,173.263Z" fill="#0b79bf"/>
    </g>
    <g>
      <path d="M46.484,119.433a1.662,1.662,0,0,1,.064.449v13.857a1.645,1.645,0,0,1-1.645,1.644H30.109a1.6,1.6,0,0,1-.22-.014,1.643,1.643,0,0,0,1.581,1.194H46.264a1.645,1.645,0,0,0,1.644-1.644V121.061A1.644,1.644,0,0,0,46.484,119.433Z" fill="#0b79bf"/>
      <g>
        <path d="M38.894,119.683h.411c.454,0,.821-.5.821-1.125v-2.092c0-.622-.367-1.127-.821-1.127h-.411c-.454,0-.822.5-.822,1.127v2.092C38.072,119.179,38.44,119.683,38.894,119.683Z" fill="#0b79bf"/>
        <path d="M33.488,119.683H33.9c.454,0,.822-.5.822-1.125v-2.092c0-.622-.368-1.127-.822-1.127h-.411c-.454,0-.822.5-.822,1.127v2.092C32.667,119.179,33.035,119.683,33.488,119.683Z" fill="#0b79bf"/>
        <path d="M43.832,117.512h-2.64v1.526a1.644,1.644,0,0,1-1.644,1.644h-.822a1.644,1.644,0,0,1-1.643-1.644v-1.526h-1.3v1.526a1.644,1.644,0,0,1-1.645,1.644h-.821a1.644,1.644,0,0,1-1.644-1.644v-1.526h-2.64a1.644,1.644,0,0,0-1.644,1.643v13.857a1.645,1.645,0,0,0,1.644,1.645h14.8a1.645,1.645,0,0,0,1.644-1.645V119.155A1.644,1.644,0,0,0,43.832,117.512Zm.362,15.6H28.675V122.207H44.194v10.906Z" fill="#0b79bf"/>
        <path d="M33.36,130.237a.911.911,0,0,1-.649-.239,1.6,1.6,0,0,1-.376-.862l-2.056.273a3.166,3.166,0,0,0,.578,1.149,2.385,2.385,0,0,0,.96.695,4.349,4.349,0,0,0,1.595.237,3.716,3.716,0,0,0,1.672-.321,2.25,2.25,0,0,0,.974-.914,2.453,2.453,0,0,0,.339-1.24,1.8,1.8,0,0,0-.2-.887,1.608,1.608,0,0,0-.574-.6,2.285,2.285,0,0,0-.656-.247,2.239,2.239,0,0,0,.793-.683,1.519,1.519,0,0,0,.263-.869,1.7,1.7,0,0,0-.647-1.36,3.263,3.263,0,0,0-2.1-.541,3.306,3.306,0,0,0-1.952.5,2.445,2.445,0,0,0-.932,1.425l1.945.349a1.338,1.338,0,0,1,.308-.771.813.813,0,0,1,.591-.22.751.751,0,0,1,.556.2.735.735,0,0,1,.2.541.813.813,0,0,1-.27.611.943.943,0,0,1-.675.259,1.962,1.962,0,0,1-.267-.026l-.107,1.47a2.6,2.6,0,0,1,.667-.121.936.936,0,0,1,.72.283,1.118,1.118,0,0,1,.266.8,1.162,1.162,0,0,1-.275.809A.9.9,0,0,1,33.36,130.237Z" fill="#0b79bf"/>
        <path d="M39.822,126.428v4.937H41.9V123.83H40.2A3.327,3.327,0,0,1,39.291,125a4.991,4.991,0,0,1-1.631.813V127.5a7.631,7.631,0,0,0,1.185-.454A6.435,6.435,0,0,0,39.822,126.428Z" fill="#0b79bf"/>
      </g>
    </g>
    <path d="M43.567,167.62a1,1,0,0,1-.617,1,3.649,3.649,0,0,0-1.966,1.657,2.865,2.865,0,0,0-.339,1.09,1,1,0,0,1-1,.971h-.019a1,1,0,0,1-.98-1.017,4.618,4.618,0,0,1,.483-1.806,5.042,5.042,0,0,1,.652-1.017Zm.462-2.8a1,1,0,0,0-1.2-.747l-10.81,2.5a1.106,1.106,0,0,0-.147,2.045,3.6,3.6,0,0,1,2.021,1.767,2.68,2.68,0,0,1,.284.974,1,1,0,0,0,1,.977h.018a1,1,0,0,0,.981-1.016,4.629,4.629,0,0,0-.484-1.806A5.184,5.184,0,0,0,34.6,168.03l8.678-2.011a1,1,0,0,0,.747-1.2m-12.756-.369a1,1,0,0,0,.971.773.983.983,0,0,0,.227-.026l10.811-2.505a1,1,0,0,0-.452-1.946l-10.81,2.506a1,1,0,0,0-.747,1.2m.578-3.459a1,1,0,0,0,.972.773,1.038,1.038,0,0,0,.226-.026l6.456-1.5a1,1,0,0,0-.451-1.947l-6.455,1.5a1,1,0,0,0-.748,1.2M42.689,173.47v2.279a2.847,2.847,0,0,1-1.839,2.663v1.906a1.783,1.783,0,0,1-.273.9l-.371.557a1.134,1.134,0,0,1-.891.477H35.766a1.13,1.13,0,0,1-.891-.477l-.371-.554a1.824,1.824,0,0,1-.274-.9l.005-1.9a2.849,2.849,0,0,1-1.845-2.666V173.47Zm-8.78,1.121a.286.286,0,0,0-.571,0v1.517a.286.286,0,0,0,.571,0Zm4.87,5.86a.263.263,0,0,0-.263-.263H35.229a.263.263,0,0,0,0,.525h3.287a.263.263,0,0,0,.263-.262m1.322-1.462a.262.262,0,0,0-.263-.262H35.229a.262.262,0,0,0,0,.524h4.609a.262.262,0,0,0,.263-.262m-3.765,3.687c-.13,0,.5.886,1.225.886s1.357-.886,1.227-.886Z" fill="#0b79bf"/>
    <g>
      <g>
        <path d="M23.3,29.125a1.291,1.291,0,0,0,.836.33.789.789,0,0,0,.847-.859V23.558H26.75v5.094a2.179,2.179,0,0,1-2.443,2.376,2.478,2.478,0,0,1-1.606-.506Z" fill="#0b79bf"/>
        <path d="M30.863,30.38a1.787,1.787,0,0,1-1.4.648,1.65,1.65,0,0,1-1.661-1.76,1.576,1.576,0,0,1,1.661-1.694,1.758,1.758,0,0,1,1.4.6v-.615c0-.495-.341-.825-.936-.825a2.019,2.019,0,0,0-1.308.55l-.562-1.068a3.315,3.315,0,0,1,2.179-.769c1.21,0,2.211.516,2.211,1.947v3.5H30.863Zm0-1.354a.871.871,0,0,0-.771-.418.688.688,0,1,0,0,1.375.871.871,0,0,0,.771-.418Z" fill="#0b79bf"/>
        <path d="M36.77,27.541c0-.485-.231-.682-.616-.682a.977.977,0,0,0-.825.561V30.9h-1.6V25.583h1.6v.66a1.937,1.937,0,0,1,1.562-.792,1.329,1.329,0,0,1,1.474,1.463V30.9H36.77Z" fill="#0b79bf"/>
        <path d="M42.688,30.258a1.981,1.981,0,0,1-1.573.77,1.306,1.306,0,0,1-1.464-1.441v-4h1.6v3.366c0,.484.219.671.616.671a.984.984,0,0,0,.825-.55V25.583h1.584V30.9H42.688Z" fill="#0b79bf"/>
        <path d="M48.341,30.38a1.783,1.783,0,0,1-1.4.648,1.65,1.65,0,0,1-1.661-1.76,1.575,1.575,0,0,1,1.661-1.694,1.752,1.752,0,0,1,1.4.6v-.615a.818.818,0,0,0-.934-.825,2.024,2.024,0,0,0-1.31.55l-.56-1.068a3.308,3.308,0,0,1,2.178-.769c1.21,0,2.211.516,2.211,1.947v3.5H48.341Zm0-1.354a.868.868,0,0,0-.769-.418.688.688,0,1,0,0,1.375.868.868,0,0,0,.769-.418Z" fill="#0b79bf"/>
        <path d="M51.213,25.583h1.595v.681a1.855,1.855,0,0,1,1.419-.813v1.54a1.38,1.38,0,0,0-.341-.044,1.407,1.407,0,0,0-1.078.527V30.9H51.213Z" fill="#0b79bf"/>
        <path d="M55.668,31.644a.511.511,0,0,0,.549-.307L56.339,31l-1.8-5.412h1.683l.935,3.4.957-3.4h1.684l-2.058,6.105a1.772,1.772,0,0,1-1.947,1.364,2.9,2.9,0,0,1-.693-.087l.22-1.4A.715.715,0,0,0,55.668,31.644Z" fill="#0b79bf"/>
        <path d="M63.048,23.558H67.47v1.53H64.83v1.32h2.563v1.529H64.83v1.43h2.64V30.9H63.048Z" fill="#0b79bf"/>
        <path d="M68.625,23.558H70.22V30.9H68.625Z" fill="#0b79bf"/>
        <path d="M73.718,25.451c1.5,0,2.376,1.154,2.376,2.86v.44H72.827a1.089,1.089,0,0,0,1.167,1.023,1.582,1.582,0,0,0,1.089-.462l.7.957a2.825,2.825,0,0,1-1.981.759,2.535,2.535,0,0,1-2.574-2.794A2.542,2.542,0,0,1,73.718,25.451Zm-.9,2.232h1.761c-.023-.428-.221-.978-.881-.978C73.058,26.705,72.849,27.255,72.816,27.683Z" fill="#0b79bf"/>
        <path d="M79.317,25.451a2.238,2.238,0,0,1,1.782.725l-.77,1.089a1.026,1.026,0,0,0-.825-.406c-.649,0-1.089.55-1.089,1.375s.44,1.386,1.089,1.386a1.009,1.009,0,0,0,.825-.418l.77,1.1a2.239,2.239,0,0,1-1.782.726,2.55,2.55,0,0,1-2.53-2.794A2.54,2.54,0,0,1,79.317,25.451Z" fill="#0b79bf"/>
        <path d="M82.254,29.521V26.968h-.671V25.583h.671V24.131h1.595v1.452h.859v1.385h-.859v2.157c0,.308.121.5.364.5a.548.548,0,0,0,.362-.121l.286,1.232a1.777,1.777,0,0,1-1.1.3A1.326,1.326,0,0,1,82.254,29.521Z" fill="#0b79bf"/>
        <path d="M85.685,25.583h1.6v.681a1.856,1.856,0,0,1,1.419-.813v1.54a1.38,1.38,0,0,0-.341-.044,1.407,1.407,0,0,0-1.078.527V30.9h-1.6Z" fill="#0b79bf"/>
        <path d="M89.48,23.987a.919.919,0,1,1,1.837,0,.919.919,0,1,1-1.837,0Zm.121,1.6h1.6V30.9H89.6Z" fill="#0b79bf"/>
        <path d="M94.739,25.451a2.238,2.238,0,0,1,1.782.725l-.77,1.089a1.026,1.026,0,0,0-.826-.406c-.648,0-1.088.55-1.088,1.375s.44,1.386,1.088,1.386a1.009,1.009,0,0,0,.826-.418l.77,1.1a2.239,2.239,0,0,1-1.782.726,2.55,2.55,0,0,1-2.53-2.794A2.54,2.54,0,0,1,94.739,25.451Z" fill="#0b79bf"/>
        <path d="M99.974,23.558h1.793V28.3c0,.738.353,1.166,1.057,1.166s1.045-.428,1.045-1.166V23.558h1.793v4.731a2.846,2.846,0,0,1-5.688,0Z" fill="#0b79bf"/>
        <path d="M107.245,29.18a2.548,2.548,0,0,0,1.508.627c.439,0,.66-.165.66-.429s-.33-.385-.792-.506c-.76-.209-1.827-.473-1.827-1.749,0-.892.715-1.672,2.068-1.672a3.183,3.183,0,0,1,1.959.671l-.616,1.066a2,2,0,0,0-1.331-.527c-.342,0-.583.142-.583.374s.285.351.748.472c.78.209,1.891.5,1.891,1.8,0,1-.836,1.716-2.144,1.716a3.153,3.153,0,0,1-2.179-.759Z" fill="#0b79bf"/>
        <path d="M114.109,25.451c1.5,0,2.377,1.154,2.377,2.86v.44h-3.268a1.088,1.088,0,0,0,1.166,1.023,1.579,1.579,0,0,0,1.089-.462l.7.957a2.82,2.82,0,0,1-1.979.759,2.535,2.535,0,0,1-2.575-2.794A2.542,2.542,0,0,1,114.109,25.451Zm-.9,2.232h1.759c-.021-.428-.219-.978-.879-.978C113.449,26.705,113.24,27.255,113.208,27.683Z" fill="#0b79bf"/>
      </g>
      <g>
        <path d="M71.129,56.114H66.454V53.853l3.91-6.9h3.518v6.765h1.1v2.4h-1.1V58.29H71.129Zm-2.21-2.4h2.21V49.688Z" fill="#0b79bf"/>
        <path d="M80.989,46.782a4.361,4.361,0,0,1,3.025,1.139L82.74,49.926a2.129,2.129,0,0,0-1.717-.764c-1.224,0-2.141,1.24-2.141,2.889v.12a2.747,2.747,0,0,1,2.362-1.327c1.717,0,3.263,1.292,3.263,3.706a3.784,3.784,0,0,1-3.943,3.944c-3.144,0-4.471-2.635-4.471-5.848C76.093,49.077,77.964,46.782,80.989,46.782Zm-.663,6.357a1.86,1.86,0,0,0-1.462.884c.068.969.442,2.091,1.564,2.091a1.494,1.494,0,0,0-.1-2.975Z" fill="#0b79bf"/>
        <path d="M87.789,52.442a2.794,2.794,0,0,1-1.972-2.669c0-2.124,2.057-2.991,4.028-2.991,1.955,0,4.03.867,4.03,2.991a2.809,2.809,0,0,1-1.99,2.669,3.241,3.241,0,0,1,2.142,2.89c0,2.091-1.8,3.162-4.182,3.162-2.4,0-4.181-1.054-4.181-3.145A3.23,3.23,0,0,1,87.789,52.442Zm2.056,1.088c-.475.068-1.427.561-1.427,1.445,0,.765.612,1.173,1.427,1.173.8,0,1.428-.408,1.428-1.173C91.273,54.091,90.3,53.6,89.845,53.53Zm0-4.4c-.8,0-1.274.424-1.274,1.122,0,.764.85,1.173,1.274,1.257.426-.084,1.276-.493,1.276-1.257C91.121,49.552,90.628,49.128,89.845,49.128Z" fill="#0b79bf"/>
        <path d="M101.216,55.771l-.755.995V58.29H99.429v-8h1.032v5.2l2.218-3h1.211l-1.966,2.6L103.9,58.29h-1.212Z" fill="#0b79bf"/>
        <path d="M108.212,53.84l-1.176,4.45h-1.068L104.422,52.5h1.067l1.067,4.426,1.163-4.426h.96l1.175,4.426,1.08-4.426h1.079l-1.558,5.793h-1.068Z" fill="#0b79bf"/>
        <path d="M116.3,54.236c0-.72-.335-.972-.875-.972a1.571,1.571,0,0,0-1.272.864V58.29h-1.031v-8h1.031V53.3a2.178,2.178,0,0,1,1.691-.947c1.008,0,1.488.516,1.488,1.559V58.29H116.3Z" fill="#0b79bf"/>
      </g>
      <g>
        <path d="M49.039,41.447a.711.711,0,0,0-.154-.783c-.355-.275-.707-.311-.867-.1l-3.37,4.349,1.069.825Z" fill="#0b79bf"/>
        <path d="M39.719,49.5a5.672,5.672,0,0,0-.62,4.593s-1.19-.116-.534,1.056l2.015,1.561,2.014,1.561c1.3.343.89-.781.89-.781a5.675,5.675,0,0,0,4.292-1.747l1.187-1.532L40.9,47.98Z" fill="#0b79bf"/>
        <path d="M51.518,51.22l-.047-.036-.01,0L43.074,44.7c-.192-.085-.667-.2-1.145.416L41.4,45.8s-.8.85.03,1.493h0l8.213,6.345c.751.419,1.3-.448,1.3-.448l.529-.682C52.087,51.708,51.518,51.22,51.518,51.22Z" fill="#0b79bf"/>
        <path d="M54.04,44.658a.709.709,0,0,0-.8.048l-3.317,4.282L51,49.813l3.362-4.34C54.519,45.265,54.4,44.934,54.04,44.658Z" fill="#0b79bf"/>
        <path d="M38.221,55.983a4.509,4.509,0,0,1-.62,2.4l-.38-.294a.525.525,0,0,0-.643.83l.535.414q-.123.222-.263.46l-.517-.4a.478.478,0,0,0-.585.755l.6.463c-.091.143-.186.29-.287.441l-.463-.359a.459.459,0,0,0-.563.726l.507.393q-.2.288-.424.595l-.251-.2a.712.712,0,0,0-.872,1.126l.269.209-.148.194-.046.058.046.036h0a20.964,20.964,0,0,0-2.788,5.725,17.166,17.166,0,0,0,1.549,1.186,18.985,18.985,0,0,1,2.671-5.8h0l.048.037s.068-.1.185-.259l.262.2a.712.712,0,0,0,.872-1.126l-.259-.2c.145-.178.3-.365.469-.561l.484.375a.459.459,0,0,0,.563-.726l-.435-.337c.117-.128.234-.256.358-.386l.573.444a.478.478,0,1,0,.585-.755l-.475-.369c.127-.123.253-.245.385-.365l.493.382a.525.525,0,0,0,.643-.83l-.319-.247a10.694,10.694,0,0,1,2.027-1.318Z" fill="#0b79bf"/>
      </g>
    </g>
  </g>
</svg>
