<svg xmlns="http://www.w3.org/2000/svg" width="131.556" height="141.922" viewBox="0 0 131.556 141.922">
  <g>
    <g>
      <path d="M7.494,4.111,5,11.662H4.567L2.1,4.111v7.551H.981V2.318H2.535L4.791,9.169,7.06,2.318H8.587v9.344H7.494Z" transform="translate(0 -2.18)" fill="#0b79bf"/>
      <path d="M13.666,4.729c1.779,0,2.675,1.6,2.675,3.572v.307H11.957C12,9.967,12.7,10.99,13.905,10.99a2.087,2.087,0,0,0,1.61-.827l.532.589a2.814,2.814,0,0,1-2.226,1.078c-1.808,0-2.9-1.484-2.9-3.558C10.92,6.311,11.957,4.729,13.666,4.729ZM11.957,7.866h3.39c-.014-1.036-.462-2.3-1.7-2.3C12.461,5.568,11.986,6.871,11.957,7.866Z" transform="translate(0 -2.18)" fill="#0b79bf"/>
      <path d="M18.774,10.3V5.779h-.9V4.9h.9V3.047h1.008V4.9h1.149v.883H19.782v4.342c0,.519.155.813.547.813a.756.756,0,0,0,.588-.266l.309.756a1.455,1.455,0,0,1-1.093.406C19.208,11.83,18.774,11.312,18.774,10.3Z" transform="translate(0 -2.18)" fill="#0b79bf"/>
      <path d="M25.44,4.729c1.778,0,2.675,1.6,2.675,3.572v.307H23.731c.042,1.359.742,2.382,1.947,2.382a2.086,2.086,0,0,0,1.61-.827l.533.589a2.816,2.816,0,0,1-2.227,1.078c-1.808,0-2.9-1.484-2.9-3.558C22.694,6.311,23.731,4.729,25.44,4.729ZM23.731,7.866H27.12c-.013-1.036-.462-2.3-1.7-2.3C24.235,5.568,23.759,6.871,23.731,7.866Z" transform="translate(0 -2.18)" fill="#0b79bf"/>
      <path d="M30.353,4.9h.994V5.975a2.273,2.273,0,0,1,1.919-1.219V5.793a1.432,1.432,0,0,0-.336-.042,2.03,2.03,0,0,0-1.583,1.106v4.805h-.994Z" transform="translate(0 -2.18)" fill="#0b79bf"/>
      <path d="M39.032,2.318h1.121v9.344H39.032Z" transform="translate(0 -2.18)" fill="#0b79bf"/>
      <path d="M46.482,6.844c0-.9-.407-1.219-1.078-1.219A1.975,1.975,0,0,0,43.821,6.7v4.959h-.995V4.9h.995v.967a2.508,2.508,0,0,1,1.961-1.134c1.148,0,1.708.616,1.708,1.834v5.1H46.482Z" transform="translate(0 -2.18)" fill="#0b79bf"/>
      <path d="M50.344,5.779h-.9V4.9h.9V4.07A1.661,1.661,0,0,1,52,2.18a1.89,1.89,0,0,1,.869.195l-.238.785a.966.966,0,0,0-.448-.113c-.532,0-.827.365-.827,1.023V4.9H52.5v.883H51.352v5.883H50.344Z" transform="translate(0 -2.18)" fill="#0b79bf"/>
      <path d="M54.1,8.272c0-1.905.953-3.543,2.746-3.543,1.821,0,2.76,1.638,2.76,3.543s-.939,3.558-2.76,3.558C55.048,11.83,54.1,10.178,54.1,8.272Zm4.455,0c0-1.358-.518-2.647-1.709-2.647-1.163,0-1.7,1.289-1.7,2.647s.532,2.662,1.7,2.662C58.032,10.934,58.55,9.645,58.55,8.272Z" transform="translate(0 -2.18)" fill="#0b79bf"/>
      <path d="M61.88,4.9h.994V5.975a2.273,2.273,0,0,1,1.919-1.219V5.793a1.425,1.425,0,0,0-.336-.042,2.031,2.031,0,0,0-1.583,1.106v4.805H61.88Z" transform="translate(0 -2.18)" fill="#0b79bf"/>
      <path d="M73.559,6.76c0-.729-.294-1.135-.939-1.135A1.854,1.854,0,0,0,71.15,6.7v4.959H70.142V6.76c0-.729-.3-1.135-.953-1.135A1.9,1.9,0,0,0,67.718,6.7v4.959h-.994V4.9h.994v.967a2.34,2.34,0,0,1,1.849-1.134,1.424,1.424,0,0,1,1.527,1.205A2.325,2.325,0,0,1,73,4.729c.994,0,1.569.545,1.569,1.764v5.169H73.559Z" transform="translate(0 -2.18)" fill="#0b79bf"/>
      <path d="M80.655,10.934a2.119,2.119,0,0,1-1.78.9A2.078,2.078,0,0,1,76.83,9.575a2.046,2.046,0,0,1,2.045-2.227,2.105,2.105,0,0,1,1.78.869V7.039A1.284,1.284,0,0,0,79.268,5.6a2.149,2.149,0,0,0-1.7.827l-.449-.715a3.1,3.1,0,0,1,2.3-.98,1.991,1.991,0,0,1,2.241,2.2v4.734H80.655Zm0-1.975A1.627,1.627,0,0,0,79.2,8.09a1.361,1.361,0,0,0-1.345,1.5A1.373,1.373,0,0,0,79.2,11.1a1.64,1.64,0,0,0,1.457-.854Z" transform="translate(0 -2.18)" fill="#0b79bf"/>
      <path d="M84.461,10.3V5.779h-.9V4.9h.9V3.047h1.008V4.9h1.148v.883H85.469v4.342c0,.519.154.813.547.813a.756.756,0,0,0,.588-.266l.308.756a1.454,1.454,0,0,1-1.092.406C84.9,11.83,84.461,11.312,84.461,10.3Z" transform="translate(0 -2.18)" fill="#0b79bf"/>
      <path d="M88.521,3.076a.7.7,0,0,1,.686-.687.687.687,0,1,1,0,1.373A.7.7,0,0,1,88.521,3.076Zm.2,1.82h.994v6.766h-.994Z" transform="translate(0 -2.18)" fill="#0b79bf"/>
      <path d="M91.991,8.272c0-1.905.954-3.543,2.747-3.543,1.821,0,2.759,1.638,2.759,3.543s-.938,3.558-2.759,3.558C92.945,11.83,91.991,10.178,91.991,8.272Zm4.456,0c0-1.358-.519-2.647-1.709-2.647-1.164,0-1.7,1.289-1.7,2.647s.532,2.662,1.7,2.662C95.928,10.934,96.447,9.645,96.447,8.272Z" transform="translate(0 -2.18)" fill="#0b79bf"/>
      <path d="M103.432,6.844c0-.9-.406-1.219-1.078-1.219A1.976,1.976,0,0,0,100.771,6.7v4.959h-.994V4.9h.994v.967a2.508,2.508,0,0,1,1.961-1.134c1.148,0,1.709.616,1.709,1.834v5.1h-1.009Z" transform="translate(0 -2.18)" fill="#0b79bf"/>
    </g>
    <g>
      <path d="M1.891,21.24.036,17.773h.8l1.414,2.774,1.413-2.774h.792L2.6,21.24v2.538H1.891Z" transform="translate(0 -2.18)" fill="#0b79bf"/>
      <path d="M4.536,21.6c0-1.225.613-2.278,1.765-2.278,1.17,0,1.773,1.053,1.773,2.278s-.6,2.287-1.773,2.287C5.149,23.887,4.536,22.824,4.536,21.6Zm2.864,0c0-.873-.333-1.7-1.1-1.7-.747,0-1.089.829-1.089,1.7s.342,1.711,1.089,1.711C7.067,23.311,7.4,22.482,7.4,21.6Z" transform="translate(0 -2.18)" fill="#0b79bf"/>
      <path d="M11.891,23.176a1.588,1.588,0,0,1-1.261.711c-.738,0-1.09-.369-1.09-1.162v-3.3h.64v3.106c0,.576.27.775.693.775a1.229,1.229,0,0,0,1.018-.676V19.43h.647v4.348h-.647Z" transform="translate(0 -2.18)" fill="#0b79bf"/>
      <path d="M14.22,19.43h.64v.693a1.458,1.458,0,0,1,1.233-.783v.666a.888.888,0,0,0-.216-.027,1.3,1.3,0,0,0-1.017.711v3.088h-.64Z" transform="translate(0 -2.18)" fill="#0b79bf"/>
      <path d="M22.115,20.682c0-.577-.262-.784-.694-.784a1.267,1.267,0,0,0-1.017.694v3.186h-.64V19.43h.64v.621a1.614,1.614,0,0,1,1.26-.729c.739,0,1.1.4,1.1,1.18v3.276h-.647Z" transform="translate(0 -2.18)" fill="#0b79bf"/>
      <path d="M25.992,19.322c1.144,0,1.72,1.026,1.72,2.3v.2H24.894c.027.873.477,1.53,1.252,1.53a1.34,1.34,0,0,0,1.035-.532l.342.379a1.81,1.81,0,0,1-1.432.694c-1.161,0-1.863-.955-1.863-2.287C24.228,20.34,24.894,19.322,25.992,19.322Zm-1.1,2.016h2.179c-.009-.666-.3-1.476-1.089-1.476C25.218,19.862,24.912,20.7,24.894,21.338Z" transform="translate(0 -2.18)" fill="#0b79bf"/>
      <path d="M30.2,22.031l-1,1.747h-.719l1.323-2.215L28.557,19.43h.721l.926,1.656.928-1.656h.72L30.6,21.563l1.323,2.215H31.2Z" transform="translate(0 -2.18)" fill="#0b79bf"/>
      <path d="M33.246,22.905V20H32.67V19.43h.576V18.242h.648V19.43h.738V20h-.738v2.791c0,.333.1.523.351.523a.487.487,0,0,0,.378-.172l.2.486a.939.939,0,0,1-.7.262C33.525,23.887,33.246,23.553,33.246,22.905Z" transform="translate(0 -2.18)" fill="#0b79bf"/>
      <path d="M38.385,22.814a1.5,1.5,0,0,0,1.134.55c.505,0,.838-.27.838-.684,0-.468-.433-.657-.909-.856-.595-.233-1.261-.494-1.261-1.332a1.233,1.233,0,0,1,1.387-1.17,1.739,1.739,0,0,1,1.323.559l-.307.44a1.252,1.252,0,0,0-1.008-.477c-.477,0-.774.261-.774.613,0,.414.405.594.864.783.6.242,1.306.513,1.306,1.405a1.285,1.285,0,0,1-1.449,1.242,1.847,1.847,0,0,1-1.468-.613Z" transform="translate(0 -2.18)" fill="#0b79bf"/>
      <path d="M43.974,19.322a1.482,1.482,0,0,1,1.242.576l-.351.442a.976.976,0,0,0-.837-.442c-.775,0-1.179.774-1.179,1.7s.4,1.711,1.179,1.711a1,1,0,0,0,.837-.442l.351.442a1.464,1.464,0,0,1-1.242.576c-1.116,0-1.8-1-1.8-2.287S42.858,19.322,43.974,19.322Z" transform="translate(0 -2.18)" fill="#0b79bf"/>
      <path d="M48.9,20.672c0-.576-.271-.774-.7-.774a1.269,1.269,0,0,0-1.018.694v3.186h-.64v-6h.64v2.278a1.631,1.631,0,0,1,1.27-.729c.738,0,1.088.369,1.088,1.161v3.295H48.9Z" transform="translate(0 -2.18)" fill="#0b79bf"/>
      <path d="M52.767,19.322c1.143,0,1.72,1.026,1.72,2.3v.2H51.668c.028.873.478,1.53,1.252,1.53a1.338,1.338,0,0,0,1.035-.532l.342.379a1.809,1.809,0,0,1-1.432.694C51.7,23.887,51,22.932,51,21.6,51,20.34,51.668,19.322,52.767,19.322Zm-1.1,2.016h2.179c-.009-.666-.3-1.476-1.089-1.476C51.992,19.862,51.687,20.7,51.668,21.338Z" transform="translate(0 -2.18)" fill="#0b79bf"/>
      <path d="M58.41,23.157a1.358,1.358,0,0,1-1.143.73c-.973,0-1.558-.91-1.558-2.278,0-1.351.576-2.287,1.558-2.287a1.31,1.31,0,0,1,1.143.739V17.773h.649v6H58.41Zm0-2.548a1.163,1.163,0,0,0-.981-.711c-.711,0-1.044.766-1.044,1.711s.333,1.7,1.044,1.7a1.154,1.154,0,0,0,.981-.7Z" transform="translate(0 -2.18)" fill="#0b79bf"/>
      <path d="M63.091,23.176a1.588,1.588,0,0,1-1.261.711c-.738,0-1.09-.369-1.09-1.162v-3.3h.64v3.106c0,.576.271.775.694.775a1.227,1.227,0,0,0,1.017-.676V19.43h.648v4.348h-.648Z" transform="translate(0 -2.18)" fill="#0b79bf"/>
      <path d="M65.42,17.773h.64v6h-.64Z" transform="translate(0 -2.18)" fill="#0b79bf"/>
      <path d="M69.29,19.322c1.144,0,1.72,1.026,1.72,2.3v.2H68.192c.027.873.477,1.53,1.252,1.53a1.34,1.34,0,0,0,1.035-.532l.342.379a1.81,1.81,0,0,1-1.432.694c-1.161,0-1.863-.955-1.863-2.287C67.526,20.34,68.192,19.322,69.29,19.322Zm-1.1,2.016H70.37c-.008-.666-.3-1.476-1.088-1.476C68.516,19.862,68.21,20.7,68.192,21.338Z" transform="translate(0 -2.18)" fill="#0b79bf"/>
      <path d="M74.934,23.157a1.36,1.36,0,0,1-1.144.73c-.972,0-1.557-.91-1.557-2.278,0-1.351.576-2.287,1.557-2.287a1.311,1.311,0,0,1,1.144.739V17.773h.648v6h-.648Zm0-2.548a1.164,1.164,0,0,0-.982-.711c-.711,0-1.044.766-1.044,1.711s.333,1.7,1.044,1.7a1.155,1.155,0,0,0,.982-.7Z" transform="translate(0 -2.18)" fill="#0b79bf"/>
      <path d="M84.087,20.627c0-.468-.188-.729-.6-.729a1.19,1.19,0,0,0-.946.694v3.186h-.648V20.627c0-.468-.19-.729-.612-.729a1.22,1.22,0,0,0-.946.694v3.186h-.639V19.43h.639v.621a1.5,1.5,0,0,1,1.189-.729.916.916,0,0,1,.981.774,1.5,1.5,0,0,1,1.224-.774c.639,0,1.009.351,1.009,1.135v3.321h-.649Z" transform="translate(0 -2.18)" fill="#0b79bf"/>
      <path d="M87.965,19.322c1.144,0,1.72,1.026,1.72,2.3v.2H86.866c.028.873.478,1.53,1.252,1.53a1.342,1.342,0,0,0,1.036-.532l.341.379a1.807,1.807,0,0,1-1.431.694c-1.161,0-1.864-.955-1.864-2.287C86.2,20.34,86.866,19.322,87.965,19.322Zm-1.1,2.016h2.179c-.009-.666-.3-1.476-1.089-1.476C87.191,19.862,86.885,20.7,86.866,21.338Z" transform="translate(0 -2.18)" fill="#0b79bf"/>
      <path d="M91.25,22.905V20h-.576V19.43h.576V18.242H91.9V19.43h.738V20H91.9v2.791c0,.333.1.523.351.523a.487.487,0,0,0,.378-.172l.2.486a.935.935,0,0,1-.7.262C91.529,23.887,91.25,23.553,91.25,22.905Z" transform="translate(0 -2.18)" fill="#0b79bf"/>
      <path d="M95.534,19.322c1.144,0,1.72,1.026,1.72,2.3v.2H94.436c.027.873.477,1.53,1.252,1.53a1.34,1.34,0,0,0,1.035-.532l.342.379a1.81,1.81,0,0,1-1.432.694c-1.161,0-1.863-.955-1.863-2.287C93.77,20.34,94.436,19.322,95.534,19.322Zm-1.1,2.016h2.179c-.009-.666-.3-1.476-1.089-1.476C94.76,19.862,94.454,20.7,94.436,21.338Z" transform="translate(0 -2.18)" fill="#0b79bf"/>
      <path d="M98.693,19.43h.639v.693a1.46,1.46,0,0,1,1.234-.783v.666a.9.9,0,0,0-.216-.027,1.3,1.3,0,0,0-1.018.711v3.088h-.639Z" transform="translate(0 -2.18)" fill="#0b79bf"/>
      <path d="M104.236,19.43h.639v.693a1.46,1.46,0,0,1,1.234-.783v.666a.9.9,0,0,0-.216-.027,1.3,1.3,0,0,0-1.018.711v3.088h-.639Z" transform="translate(0 -2.18)" fill="#0b79bf"/>
      <path d="M108.9,19.322c1.143,0,1.719,1.026,1.719,2.3v.2H107.8c.027.873.478,1.53,1.252,1.53a1.338,1.338,0,0,0,1.035-.532l.342.379a1.81,1.81,0,0,1-1.432.694c-1.161,0-1.863-.955-1.863-2.287C107.134,20.34,107.8,19.322,108.9,19.322Zm-1.1,2.016h2.179c-.009-.666-.3-1.476-1.089-1.476C108.124,19.862,107.819,20.7,107.8,21.338Z" transform="translate(0 -2.18)" fill="#0b79bf"/>
      <path d="M114.29,23.311a1.362,1.362,0,0,1-1.143.576,1.337,1.337,0,0,1-1.315-1.449,1.315,1.315,0,0,1,1.315-1.432,1.356,1.356,0,0,1,1.143.557v-.755a.825.825,0,0,0-.891-.927,1.38,1.38,0,0,0-1.089.53l-.288-.459a1.989,1.989,0,0,1,1.475-.63,1.28,1.28,0,0,1,1.441,1.413v3.043h-.648Zm0-1.27a1.045,1.045,0,0,0-.936-.559.974.974,0,0,0,0,1.936,1.052,1.052,0,0,0,.936-.549Z" transform="translate(0 -2.18)" fill="#0b79bf"/>
      <path d="M119.1,23.157a1.36,1.36,0,0,1-1.144.73c-.972,0-1.557-.91-1.557-2.278,0-1.351.576-2.287,1.557-2.287a1.311,1.311,0,0,1,1.144.739V17.773h.648v6H119.1Zm0-2.548a1.163,1.163,0,0,0-.981-.711c-.711,0-1.044.766-1.044,1.711s.333,1.7,1.044,1.7a1.154,1.154,0,0,0,.981-.7Z" transform="translate(0 -2.18)" fill="#0b79bf"/>
      <path d="M3.079,33.957a1.357,1.357,0,0,1-1.143.729c-.973,0-1.558-.909-1.558-2.278,0-1.349.576-2.287,1.558-2.287a1.312,1.312,0,0,1,1.143.738V28.573h.649v6.005H3.079Zm0-2.548A1.164,1.164,0,0,0,2.1,30.7c-.711,0-1.044.766-1.044,1.711s.333,1.7,1.044,1.7a1.152,1.152,0,0,0,.981-.7Z" transform="translate(0 -2.18)" fill="#0b79bf"/>
      <path d="M7.643,34.109a1.359,1.359,0,0,1-1.144.577,1.336,1.336,0,0,1-1.314-1.45A1.315,1.315,0,0,1,6.5,31.805a1.359,1.359,0,0,1,1.144.558v-.756a.826.826,0,0,0-.892-.927,1.383,1.383,0,0,0-1.089.531l-.288-.459a1.991,1.991,0,0,1,1.476-.631,1.28,1.28,0,0,1,1.44,1.414v3.043H7.643Zm0-1.268a1.046,1.046,0,0,0-.937-.559.974.974,0,0,0,0,1.936,1.054,1.054,0,0,0,.937-.549Z" transform="translate(0 -2.18)" fill="#0b79bf"/>
      <path d="M10.09,33.705V30.8H9.514V30.23h.576V29.041h.648V30.23h.738V30.8h-.738v2.791c0,.333.1.521.351.521a.485.485,0,0,0,.378-.17l.2.487a.938.938,0,0,1-.7.26C10.368,34.686,10.09,34.354,10.09,33.705Z" transform="translate(0 -2.18)" fill="#0b79bf"/>
      <path d="M14.373,30.121c1.144,0,1.72,1.027,1.72,2.3v.2H13.275c.027.873.477,1.531,1.252,1.531a1.342,1.342,0,0,0,1.035-.531l.342.378a1.806,1.806,0,0,1-1.432.693c-1.161,0-1.863-.954-1.863-2.287C12.609,31.139,13.275,30.121,14.373,30.121Zm-1.1,2.018h2.178c-.008-.666-.3-1.477-1.088-1.477C13.6,30.662,13.293,31.5,13.275,32.139Z" transform="translate(0 -2.18)" fill="#0b79bf"/>
      <path d="M19.835,29.06a.448.448,0,0,1,.442-.442.441.441,0,1,1,0,.882A.447.447,0,0,1,19.835,29.06Zm.126,1.17h.64v4.348h-.64Z" transform="translate(0 -2.18)" fill="#0b79bf"/>
      <path d="M22.257,33.615a1.5,1.5,0,0,0,1.134.549c.505,0,.838-.269.838-.684,0-.468-.433-.658-.909-.855-.595-.234-1.261-.5-1.261-1.333a1.234,1.234,0,0,1,1.387-1.171,1.743,1.743,0,0,1,1.323.559l-.307.441a1.251,1.251,0,0,0-1.008-.476c-.477,0-.774.26-.774.611,0,.414.405.594.864.783.6.243,1.306.514,1.306,1.4A1.285,1.285,0,0,1,23.4,34.686a1.847,1.847,0,0,1-1.468-.612Z" transform="translate(0 -2.18)" fill="#0b79bf"/>
      <path d="M28.476,32.4c0-1.223.612-2.278,1.764-2.278,1.17,0,1.774,1.055,1.774,2.278s-.6,2.287-1.774,2.287C29.088,34.686,28.476,33.624,28.476,32.4Zm2.863,0c0-.873-.333-1.7-1.1-1.7-.747,0-1.088.829-1.088,1.7s.341,1.71,1.088,1.71C31.006,34.109,31.339,33.281,31.339,32.4Z" transform="translate(0 -2.18)" fill="#0b79bf"/>
      <path d="M35.83,31.481c0-.576-.261-.784-.693-.784a1.272,1.272,0,0,0-1.018.694v3.187H33.48V30.23h.639v.622a1.615,1.615,0,0,1,1.261-.731c.738,0,1.1.4,1.1,1.18v3.277H35.83Z" transform="translate(0 -2.18)" fill="#0b79bf"/>
      <path d="M40.373,32.4c0-1.223.613-2.278,1.765-2.278,1.171,0,1.773,1.055,1.773,2.278s-.6,2.287-1.773,2.287C40.986,34.686,40.373,33.624,40.373,32.4Zm2.864,0c0-.873-.333-1.7-1.1-1.7-.747,0-1.089.829-1.089,1.7s.342,1.71,1.089,1.71C42.9,34.109,43.237,33.281,43.237,32.4Z" transform="translate(0 -2.18)" fill="#0b79bf"/>
      <path d="M45.377,30.23h.64v.693a1.458,1.458,0,0,1,1.233-.783v.667a.843.843,0,0,0-.216-.028,1.3,1.3,0,0,0-1.017.711v3.088h-.64Z" transform="translate(0 -2.18)" fill="#0b79bf"/>
      <path d="M53.155,34.109a1.361,1.361,0,0,1-1.144.577,1.336,1.336,0,0,1-1.314-1.45,1.315,1.315,0,0,1,1.314-1.431,1.36,1.36,0,0,1,1.144.558v-.756a.827.827,0,0,0-.892-.927,1.383,1.383,0,0,0-1.089.531l-.288-.459a1.991,1.991,0,0,1,1.476-.631,1.28,1.28,0,0,1,1.44,1.414v3.043h-.647Zm0-1.268a1.047,1.047,0,0,0-.937-.559.974.974,0,0,0,0,1.936,1.055,1.055,0,0,0,.937-.549Z" transform="translate(0 -2.18)" fill="#0b79bf"/>
      <path d="M55.475,30.23h.64v.693a1.458,1.458,0,0,1,1.233-.783v.667a.848.848,0,0,0-.216-.028,1.3,1.3,0,0,0-1.017.711v3.088h-.64Z" transform="translate(0 -2.18)" fill="#0b79bf"/>
      <path d="M58.373,32.4c0-1.223.613-2.278,1.765-2.278,1.171,0,1.773,1.055,1.773,2.278s-.6,2.287-1.773,2.287C58.986,34.686,58.373,33.624,58.373,32.4Zm2.864,0c0-.873-.333-1.7-1.1-1.7-.747,0-1.089.829-1.089,1.7s.342,1.71,1.089,1.71C60.9,34.109,61.237,33.281,61.237,32.4Z" transform="translate(0 -2.18)" fill="#0b79bf"/>
      <path d="M65.727,33.975a1.583,1.583,0,0,1-1.261.711c-.738,0-1.09-.37-1.09-1.161V30.23h.64v3.106c0,.576.27.773.693.773a1.227,1.227,0,0,0,1.018-.674V30.23h.647v4.348h-.647Z" transform="translate(0 -2.18)" fill="#0b79bf"/>
      <path d="M70.407,31.481c0-.576-.261-.784-.693-.784a1.269,1.269,0,0,0-1.017.694v3.187h-.64V30.23h.64v.622a1.613,1.613,0,0,1,1.26-.731c.739,0,1.1.4,1.1,1.18v3.277h-.648Z" transform="translate(0 -2.18)" fill="#0b79bf"/>
      <path d="M75.222,33.957a1.359,1.359,0,0,1-1.144.729c-.972,0-1.557-.909-1.557-2.278,0-1.349.576-2.287,1.557-2.287a1.314,1.314,0,0,1,1.144.738V28.573h.648v6.005h-.648Zm0-2.548a1.164,1.164,0,0,0-.982-.712c-.71,0-1.043.766-1.043,1.711s.333,1.7,1.043,1.7a1.152,1.152,0,0,0,.982-.7Z" transform="translate(0 -2.18)" fill="#0b79bf"/>
      <path d="M81.693,28.483c1.4,0,1.881,1.558,1.881,3.1s-.477,3.106-1.881,3.106-1.882-1.567-1.882-3.106S80.288,28.483,81.693,28.483Zm0,.64c-.918,0-1.144,1.27-1.144,2.457s.216,2.467,1.144,2.467,1.152-1.287,1.152-2.467S82.62,29.123,81.693,29.123Z" transform="translate(0 -2.18)" fill="#0b79bf"/>
      <path d="M85.985,29.519l-.927.99-.433-.45,1.441-1.486H86.7v6.005h-.712Z" transform="translate(0 -2.18)" fill="#0b79bf"/>
      <path d="M89.549,28.393h.5l-1.729,6.365h-.5Z" transform="translate(0 -2.18)" fill="#0b79bf"/>
      <path d="M91.025,33.993c1.962-2.26,2.637-2.989,2.637-3.862a.942.942,0,0,0-.963-1.008,1.418,1.418,0,0,0-1.27.756l-.468-.432a1.991,1.991,0,0,1,1.746-.964,1.585,1.585,0,0,1,1.684,1.638c0,1.009-.756,1.909-2.35,3.818h2.377v.639H91.025Z" transform="translate(0 -2.18)" fill="#0b79bf"/>
      <path d="M96.389,33.273a1.385,1.385,0,0,0,1.269.774,1.174,1.174,0,0,0,1.072-1.3c0-.855-.406-1.324-1.027-1.324a1.315,1.315,0,0,0-1.089.559l-.531-.18V28.573h3.061v.63h-2.35v2.108a1.43,1.43,0,0,1,1.108-.523c.864,0,1.557.685,1.557,1.936a1.812,1.812,0,0,1-1.783,1.962,1.891,1.891,0,0,1-1.765-.981Z" transform="translate(0 -2.18)" fill="#0b79bf"/>
      <path d="M102.086,28.393h.5l-1.728,6.365h-.5Z" transform="translate(0 -2.18)" fill="#0b79bf"/>
      <path d="M105.38,32.094l-1.395,2.484h-.828l1.791-3.07-1.693-2.935h.837l1.288,2.359,1.287-2.359h.837l-1.692,2.935,1.792,3.07h-.828Z" transform="translate(0 -2.18)" fill="#0b79bf"/>
      <path d="M110.465,32.094l-1.4,2.484h-.829l1.791-3.07-1.692-2.935h.838l1.287,2.359,1.287-2.359h.837L110.9,31.508l1.792,3.07h-.828Z" transform="translate(0 -2.18)" fill="#0b79bf"/>
    </g>
    <g>
      <path d="M.532,51.332H3.97v1.053H1.738v1.377H3.907v1.045H1.738v1.476H3.97v1.053H.532Z" transform="translate(0 -2.18)"/>
      <path d="M5.356,51.332h1.08v6H5.356Z" transform="translate(0 -2.18)"/>
      <path d="M9.667,52.88c1.2,0,1.872.973,1.872,2.323v.306H8.812a1.033,1.033,0,0,0,1.053,1.062,1.314,1.314,0,0,0,.945-.423l.495.649a2.122,2.122,0,0,1-1.557.647,2.3,2.3,0,0,1-.081-4.564Zm-.855,1.891H10.5c-.018-.451-.216-1.017-.846-1.017C9.045,53.754,8.829,54.32,8.812,54.771Z" transform="translate(0 -2.18)"/>
      <path d="M14.563,52.88a1.733,1.733,0,0,1,1.386.585l-.541.748a.905.905,0,0,0-.728-.379c-.622,0-.991.567-.991,1.324s.369,1.332.991,1.332a.905.905,0,0,0,.728-.379l.541.748a1.73,1.73,0,0,1-1.386.585,2.3,2.3,0,0,1,0-4.564Z" transform="translate(0 -2.18)"/>
      <path d="M17.316,56.292V53.934h-.567v-.946h.567V51.8H18.4v1.188h.719v.946H18.4V56.04c0,.279.107.45.314.45a.428.428,0,0,0,.324-.126l.226.828a1.251,1.251,0,0,1-.838.252C17.667,57.444,17.316,57.057,17.316,56.292Z" transform="translate(0 -2.18)"/>
      <path d="M20.349,52.988h1.08v.6a1.479,1.479,0,0,1,1.188-.7v1.053a1.109,1.109,0,0,0-.26-.026,1.2,1.2,0,0,0-.928.522v2.9h-1.08Z" transform="translate(0 -2.18)"/>
      <path d="M23.66,51.7a.649.649,0,1,1,1.3,0,.649.649,0,1,1-1.3,0Zm.109,1.287h1.08v4.348h-1.08Z" transform="translate(0 -2.18)"/>
      <path d="M28.125,52.88a1.732,1.732,0,0,1,1.386.585l-.54.748a.907.907,0,0,0-.729-.379c-.622,0-.991.567-.991,1.324s.369,1.332.991,1.332a.907.907,0,0,0,.729-.379l.54.748a1.729,1.729,0,0,1-1.386.585,2.3,2.3,0,0,1,0-4.564Z" transform="translate(0 -2.18)"/>
      <path d="M33.371,55.743a1.969,1.969,0,0,0,1.441.64c.54,0,.828-.3.828-.667,0-.459-.432-.657-.982-.892-.755-.3-1.7-.656-1.7-1.845a1.8,1.8,0,0,1,1.981-1.747,2.6,2.6,0,0,1,1.818.666l-.576.9a1.836,1.836,0,0,0-1.27-.5c-.45,0-.719.252-.719.612,0,.405.414.6.954.82.774.3,1.72.7,1.72,1.89a1.807,1.807,0,0,1-2.036,1.827,2.77,2.77,0,0,1-2.051-.774Z" transform="translate(0 -2.18)"/>
      <path d="M39.862,52.88c1.2,0,1.872.973,1.872,2.323v.306H39.006a1.034,1.034,0,0,0,1.053,1.062A1.313,1.313,0,0,0,41,56.148l.5.649a2.118,2.118,0,0,1-1.556.647,2.3,2.3,0,0,1-.081-4.564Zm-.856,1.891H40.69c-.019-.451-.217-1.017-.847-1.017C39.24,53.754,39.024,54.32,39.006,54.771Z" transform="translate(0 -2.18)"/>
      <path d="M42.992,52.988h1.081v.6a1.478,1.478,0,0,1,1.188-.7v1.053A1.112,1.112,0,0,0,45,53.916a1.2,1.2,0,0,0-.927.522v2.9H42.992Z" transform="translate(0 -2.18)"/>
      <path d="M45.908,52.988h1.153l.873,3.052.882-3.052h1.152l-1.449,4.348H47.358Z" transform="translate(0 -2.18)"/>
      <path d="M50.859,51.7a.649.649,0,1,1,1.3,0,.649.649,0,1,1-1.3,0Zm.108,1.287h1.08v4.348h-1.08Z" transform="translate(0 -2.18)"/>
      <path d="M55.324,52.88a1.731,1.731,0,0,1,1.385.585l-.54.748a.905.905,0,0,0-.728-.379c-.622,0-.992.567-.992,1.324s.37,1.332.992,1.332a.905.905,0,0,0,.728-.379l.54.748a1.728,1.728,0,0,1-1.385.585,2.3,2.3,0,0,1,0-4.564Z" transform="translate(0 -2.18)"/>
      <path d="M59.607,52.88c1.2,0,1.872.973,1.872,2.323v.306H58.751A1.034,1.034,0,0,0,59.8,56.571a1.314,1.314,0,0,0,.945-.423l.495.649a2.118,2.118,0,0,1-1.556.647,2.3,2.3,0,0,1-.081-4.564Zm-.856,1.891h1.684c-.019-.451-.217-1.017-.847-1.017C58.985,53.754,58.769,54.32,58.751,54.771Z" transform="translate(0 -2.18)"/>
      <path d="M63.387,52.926a.7.7,0,0,1,.692.692.706.706,0,0,1-.692.7.715.715,0,0,1-.7-.7A.706.706,0,0,1,63.387,52.926Zm0,3.114a.706.706,0,0,1,.692.7.7.7,0,0,1-.692.694.707.707,0,0,1-.7-.694A.715.715,0,0,1,63.387,56.04Z" transform="translate(0 -2.18)"/>
      <path d="M68.147,56.021a1.886,1.886,0,0,0,1.414.659.9.9,0,0,0,1.026-.892c0-.6-.54-.864-1.143-1.143-.73-.333-1.567-.694-1.567-1.783a1.66,1.66,0,0,1,1.8-1.63,2.285,2.285,0,0,1,1.656.639l-.432.649A1.668,1.668,0,0,0,69.651,52a.822.822,0,0,0-.9.818c0,.514.514.748,1.08,1.018.757.352,1.621.757,1.621,1.9a1.685,1.685,0,0,1-1.881,1.71,2.444,2.444,0,0,1-1.864-.756Z" transform="translate(0 -2.18)"/>
      <path d="M77.346,54.248c0-.441-.18-.684-.576-.684a1.114,1.114,0,0,0-.891.649v3.123h-.765V54.248c0-.432-.18-.684-.585-.684a1.146,1.146,0,0,0-.883.649v3.123h-.774V52.988h.774v.6a1.5,1.5,0,0,1,1.2-.712.926.926,0,0,1,1,.774,1.5,1.5,0,0,1,1.233-.774c.658,0,1.036.35,1.036,1.135v3.321h-.766Z" transform="translate(0 -2.18)"/>
      <path d="M82.017,56.887a1.4,1.4,0,0,1-1.144.557A1.337,1.337,0,0,1,79.55,56a1.314,1.314,0,0,1,1.323-1.423,1.365,1.365,0,0,1,1.144.541V54.42a.792.792,0,0,0-.864-.883,1.473,1.473,0,0,0-1.089.514l-.316-.541a2.089,2.089,0,0,1,1.531-.63,1.331,1.331,0,0,1,1.512,1.45v3.006h-.774Zm0-1.242a.994.994,0,0,0-.873-.524.9.9,0,0,0,0,1.783,1,1,0,0,0,.873-.521Z" transform="translate(0 -2.18)"/>
      <path d="M84.447,52.988h.773v.666a1.461,1.461,0,0,1,1.216-.765v.783a.915.915,0,0,0-.226-.026,1.256,1.256,0,0,0-.99.657v3.033h-.773Z" transform="translate(0 -2.18)"/>
      <path d="M87.829,56.418V53.664h-.576v-.676h.576V51.8H88.6v1.188h.729v.676H88.6v2.6c0,.3.108.494.342.494a.5.5,0,0,0,.369-.153l.2.577a1,1,0,0,1-.738.26C88.127,57.444,87.829,57.094,87.829,56.418Z" transform="translate(0 -2.18)"/>
      <path d="M97.415,52.727,95.9,57.336h-.343l-1.513-4.609v4.609h-.854v-6h1.179l1.359,4.141L97.1,51.332h1.161v6h-.847Z" transform="translate(0 -2.18)"/>
      <path d="M101.565,52.88c1.161,0,1.763,1.017,1.763,2.3v.225h-2.79c.036.792.451,1.4,1.2,1.4a1.327,1.327,0,0,0,1-.5l.4.469a1.925,1.925,0,0,1-1.468.674c-1.179,0-1.918-.945-1.918-2.286C99.745,53.9,100.43,52.88,101.565,52.88Zm-1.036,1.981h2.044c-.009-.6-.28-1.341-1.018-1.341C100.835,53.52,100.556,54.275,100.529,54.861Z" transform="translate(0 -2.18)"/>
      <path d="M104.894,56.418V53.664h-.576v-.676h.576V51.8h.765v1.188h.73v.676h-.73v2.6c0,.3.109.494.342.494a.5.5,0,0,0,.369-.153l.2.577a1,1,0,0,1-.739.26C105.192,57.444,104.894,57.094,104.894,56.418Z" transform="translate(0 -2.18)"/>
      <path d="M109.34,52.88c1.162,0,1.765,1.017,1.765,2.3v.225h-2.79c.035.792.449,1.4,1.2,1.4a1.325,1.325,0,0,0,1-.5l.4.469a1.923,1.923,0,0,1-1.467.674c-1.18,0-1.918-.945-1.918-2.286C107.522,53.9,108.206,52.88,109.34,52.88Zm-1.035,1.981h2.044c-.009-.6-.279-1.341-1.018-1.341C108.612,53.52,108.332,54.275,108.305,54.861Z" transform="translate(0 -2.18)"/>
      <path d="M112.517,52.988h.773v.666a1.463,1.463,0,0,1,1.216-.765v.783a.907.907,0,0,0-.225-.026,1.256,1.256,0,0,0-.991.657v3.033h-.773Z" transform="translate(0 -2.18)"/>
      <path d="M4.834,63.727,3.313,68.336H2.971L1.458,63.727v4.609H.6v-6H1.782l1.36,4.141L4.52,62.332H5.681v6H4.834Z" transform="translate(0 -2.18)"/>
      <path d="M8.983,63.88c1.162,0,1.764,1.017,1.764,2.3v.225H7.957c.035.792.45,1.4,1.2,1.4a1.327,1.327,0,0,0,1-.5l.4.469a1.925,1.925,0,0,1-1.468.674c-1.179,0-1.918-.945-1.918-2.286C7.164,64.9,7.849,63.88,8.983,63.88ZM7.948,65.861H9.991c-.008-.6-.279-1.341-1.017-1.341C8.254,64.52,7.975,65.275,7.948,65.861Z" transform="translate(0 -2.18)"/>
      <path d="M12.312,67.418V64.664h-.576v-.676h.576V62.8h.765v1.188h.73v.676h-.73v2.6c0,.3.109.494.342.494a.5.5,0,0,0,.369-.153l.2.577a1,1,0,0,1-.739.26C12.61,68.444,12.312,68.094,12.312,67.418Z" transform="translate(0 -2.18)"/>
      <path d="M16.758,63.88c1.162,0,1.765,1.017,1.765,2.3v.225h-2.79c.035.792.449,1.4,1.2,1.4a1.325,1.325,0,0,0,1-.5l.4.469a1.923,1.923,0,0,1-1.467.674c-1.18,0-1.918-.945-1.918-2.286C14.94,64.9,15.624,63.88,16.758,63.88Zm-1.035,1.981h2.044c-.009-.6-.279-1.341-1.018-1.341C16.03,64.52,15.75,65.275,15.723,65.861Z" transform="translate(0 -2.18)"/>
      <path d="M19.936,63.988h.773v.666a1.463,1.463,0,0,1,1.216-.765v.783a.91.91,0,0,0-.226-.026,1.256,1.256,0,0,0-.99.657v3.033h-.773Z" transform="translate(0 -2.18)"/>
      <path d="M26.532,63.943v4.393h-.855v-6h.864l2.314,4.258V62.332h.855v6h-.819Z" transform="translate(0 -2.18)"/>
      <path d="M33.8,67.752a1.6,1.6,0,0,1-1.269.692c-.757,0-1.117-.387-1.117-1.171V63.988h.774v3.043c0,.54.252.729.657.729a1.174,1.174,0,0,0,.955-.63V63.988h.765v4.348H33.8Z" transform="translate(0 -2.18)"/>
      <path d="M40.7,65.248c0-.441-.18-.684-.577-.684a1.112,1.112,0,0,0-.89.649v3.123h-.766V65.248c0-.432-.18-.684-.585-.684a1.147,1.147,0,0,0-.883.649v3.123h-.773V63.988H37v.6a1.5,1.5,0,0,1,1.2-.712.927.927,0,0,1,1,.774,1.5,1.5,0,0,1,1.233-.774c.657,0,1.035.35,1.035,1.135v3.321H40.7Z" transform="translate(0 -2.18)"/>
      <path d="M43.128,62.332H43.9v2.26a1.3,1.3,0,0,1,1.126-.712c.981,0,1.575.927,1.575,2.287,0,1.386-.594,2.277-1.575,2.277a1.344,1.344,0,0,1-1.126-.7v.594h-.774Zm1.683,5.428c.676,0,.991-.7.991-1.593s-.315-1.6-.991-1.6a1.1,1.1,0,0,0-.909.666v1.881A1.1,1.1,0,0,0,44.811,67.76Z" transform="translate(0 -2.18)"/>
      <path d="M49.653,63.88c1.162,0,1.764,1.017,1.764,2.3v.225h-2.79c.035.792.449,1.4,1.2,1.4a1.327,1.327,0,0,0,1-.5l.4.469a1.925,1.925,0,0,1-1.468.674c-1.179,0-1.918-.945-1.918-2.286C47.834,64.9,48.519,63.88,49.653,63.88Zm-1.036,1.981h2.044c-.008-.6-.279-1.341-1.017-1.341C48.924,64.52,48.645,65.275,48.617,65.861Z" transform="translate(0 -2.18)"/>
      <path d="M52.83,63.988H53.6v.666a1.461,1.461,0,0,1,1.216-.765v.783a.921.921,0,0,0-.226-.026,1.253,1.253,0,0,0-.99.657v3.033H52.83Z" transform="translate(0 -2.18)"/>
      <path d="M56.565,63.926a.54.54,0,1,1-.55.539A.547.547,0,0,1,56.565,63.926Zm0,3.42a.54.54,0,1,1-.55.541A.548.548,0,0,1,56.565,67.346Z" transform="translate(0 -2.18)"/>
      <path d="M61.605,66.941a1.4,1.4,0,0,0,1.26.739,1.089,1.089,0,0,0,1.026-1.2c0-.783-.378-1.215-.981-1.215a1.243,1.243,0,0,0-1.053.54l-.63-.2V62.332h3.214v.756h-2.36v1.944a1.418,1.418,0,0,1,1.108-.512c.874,0,1.576.683,1.576,1.935a1.853,1.853,0,0,1-1.873,1.989,2.012,2.012,0,0,1-1.837-.971Z" transform="translate(0 -2.18)"/>
      <path d="M66.654,66.941a1.4,1.4,0,0,0,1.259.739,1.089,1.089,0,0,0,1.027-1.2c0-.783-.378-1.215-.981-1.215a1.243,1.243,0,0,0-1.053.54l-.63-.2V62.332H69.49v.756H67.13v1.944a1.418,1.418,0,0,1,1.108-.512c.874,0,1.576.683,1.576,1.935a1.853,1.853,0,0,1-1.873,1.989,2.012,2.012,0,0,1-1.837-.971Z" transform="translate(0 -2.18)"/>
      <path d="M71.7,66.941a1.4,1.4,0,0,0,1.26.739,1.089,1.089,0,0,0,1.027-1.2c0-.783-.378-1.215-.981-1.215a1.246,1.246,0,0,0-1.054.54l-.63-.2V62.332h3.214v.756H72.179v1.944a1.417,1.417,0,0,1,1.107-.512c.874,0,1.577.683,1.577,1.935a1.853,1.853,0,0,1-1.873,1.989,2.012,2.012,0,0,1-1.837-.971Z" transform="translate(0 -2.18)"/>
      <path d="M76.751,66.941a1.4,1.4,0,0,0,1.26.739,1.088,1.088,0,0,0,1.026-1.2c0-.783-.378-1.215-.98-1.215a1.246,1.246,0,0,0-1.054.54l-.63-.2V62.332h3.214v.756H77.228v1.944a1.415,1.415,0,0,1,1.107-.512c.874,0,1.576.683,1.576,1.935a1.852,1.852,0,0,1-1.873,1.989,2.014,2.014,0,0,1-1.837-.971Z" transform="translate(0 -2.18)"/>
      <path d="M81.8,66.941a1.4,1.4,0,0,0,1.26.739,1.089,1.089,0,0,0,1.026-1.2c0-.783-.378-1.215-.98-1.215a1.244,1.244,0,0,0-1.054.54l-.63-.2V62.332h3.214v.756H82.277v1.944a1.414,1.414,0,0,1,1.107-.512c.874,0,1.576.683,1.576,1.935a1.853,1.853,0,0,1-1.873,1.989,2.014,2.014,0,0,1-1.837-.971Z" transform="translate(0 -2.18)"/>
      <path d="M86.849,66.941a1.4,1.4,0,0,0,1.26.739,1.089,1.089,0,0,0,1.026-1.2c0-.783-.378-1.215-.98-1.215a1.243,1.243,0,0,0-1.054.54l-.63-.2V62.332h3.214v.756h-2.36v1.944a1.418,1.418,0,0,1,1.108-.512c.874,0,1.576.683,1.576,1.935a1.853,1.853,0,0,1-1.873,1.989,2.014,2.014,0,0,1-1.837-.971Z" transform="translate(0 -2.18)"/>
      <path d="M91.9,66.941a1.4,1.4,0,0,0,1.259.739,1.089,1.089,0,0,0,1.027-1.2c0-.783-.378-1.215-.981-1.215a1.242,1.242,0,0,0-1.053.54l-.63-.2V62.332h3.214v.756h-2.36v1.944a1.418,1.418,0,0,1,1.108-.512c.874,0,1.576.683,1.576,1.935a1.853,1.853,0,0,1-1.873,1.989,2.009,2.009,0,0,1-1.836-.971Z" transform="translate(0 -2.18)"/>
      <path d="M96.948,66.941a1.4,1.4,0,0,0,1.259.739,1.089,1.089,0,0,0,1.027-1.2c0-.783-.378-1.215-.981-1.215a1.244,1.244,0,0,0-1.054.54l-.629-.2V62.332h3.213v.756H97.424v1.944a1.418,1.418,0,0,1,1.108-.512c.874,0,1.576.683,1.576,1.935a1.853,1.853,0,0,1-1.873,1.989,2.009,2.009,0,0,1-1.836-.971Z" transform="translate(0 -2.18)"/>
      <path d="M.6,73.332H2.539a1.841,1.841,0,0,1,0,3.673H1.458v2.331H.6Zm1.836.756H1.458v2.16H2.44a1.091,1.091,0,0,0,0-2.16Z" transform="translate(0 -2.18)"/>
      <path d="M7.759,73.232c1.494,0,2.35,1.351,2.35,3.106s-.856,3.106-2.35,3.106-2.332-1.35-2.332-3.106S6.274,73.232,7.759,73.232Zm0,.766C6.814,74,6.3,75.016,6.3,76.338s.513,2.342,1.458,2.342,1.468-1.035,1.468-2.342S8.7,74,7.759,74Z" transform="translate(0 -2.18)"/>
      <path d="M11.638,73.332H13.33c1.584,0,2.476,1.277,2.476,3.006s-.882,3-2.467,3h-1.7ZM13.33,78.58c1.053,0,1.594-.954,1.594-2.242,0-1.3-.531-2.25-1.594-2.25h-.838V78.58Z" transform="translate(0 -2.18)"/>
      <path d="M20.655,74.943v4.393H19.8v-6h.864l2.314,4.258V73.332h.855v6h-.819Z" transform="translate(0 -2.18)"/>
      <path d="M27.919,78.752a1.594,1.594,0,0,1-1.269.692c-.757,0-1.117-.387-1.117-1.171V74.988h.774v3.043c0,.54.252.729.657.729a1.174,1.174,0,0,0,.955-.63V74.988h.765v4.348h-.765Z" transform="translate(0 -2.18)"/>
      <path d="M34.823,76.248c0-.441-.18-.684-.577-.684a1.112,1.112,0,0,0-.89.649v3.123H32.59V76.248c0-.432-.18-.684-.585-.684a1.147,1.147,0,0,0-.883.649v3.123h-.773V74.988h.773v.6a1.5,1.5,0,0,1,1.2-.712.927.927,0,0,1,1,.774,1.5,1.5,0,0,1,1.233-.774c.657,0,1.035.35,1.035,1.135v3.321h-.765Z" transform="translate(0 -2.18)"/>
      <path d="M37.251,73.332h.774v2.26a1.3,1.3,0,0,1,1.126-.712c.981,0,1.575.927,1.575,2.287,0,1.386-.594,2.277-1.575,2.277a1.344,1.344,0,0,1-1.126-.7v.594h-.774Zm1.683,5.428c.676,0,.991-.7.991-1.593s-.315-1.6-.991-1.6a1.1,1.1,0,0,0-.909.666v1.881A1.1,1.1,0,0,0,38.934,78.76Z" transform="translate(0 -2.18)"/>
      <path d="M43.776,74.88c1.162,0,1.764,1.017,1.764,2.305v.225H42.75c.035.792.449,1.4,1.2,1.4a1.327,1.327,0,0,0,1-.5l.4.469a1.925,1.925,0,0,1-1.468.674c-1.179,0-1.918-.945-1.918-2.286C41.957,75.9,42.642,74.88,43.776,74.88ZM42.74,76.861h2.044c-.008-.6-.279-1.341-1.017-1.341C43.047,75.52,42.768,76.275,42.74,76.861Z" transform="translate(0 -2.18)"/>
      <path d="M46.953,74.988h.774v.666a1.461,1.461,0,0,1,1.216-.765v.783a.921.921,0,0,0-.226-.026,1.253,1.253,0,0,0-.99.657v3.033h-.774Z" transform="translate(0 -2.18)"/>
      <path d="M50.688,74.926a.54.54,0,1,1-.55.539A.547.547,0,0,1,50.688,74.926Zm0,3.42a.54.54,0,1,1-.55.541A.548.548,0,0,1,50.688,78.346Z" transform="translate(0 -2.18)"/>
      <path d="M57.339,77.869H54.945V77.14L57.1,73.332h1.1v3.781h.638v.756H58.2v1.467h-.856Zm-1.611-.756h1.611V74.24Z" transform="translate(0 -2.18)"/>
      <path d="M62.172,77.869H59.778V77.14l2.151-3.808h1.1v3.781h.638v.756h-.638v1.467h-.856Zm-1.611-.756h1.611V74.24Z" transform="translate(0 -2.18)"/>
      <path d="M67.005,77.869H64.611V77.14l2.151-3.808h1.1v3.781H68.5v.756h-.638v1.467h-.856Zm-1.611-.756h1.611V74.24Z" transform="translate(0 -2.18)"/>
      <path d="M71.838,77.869H69.444V77.14L71.6,73.332h1.1v3.781h.638v.756h-.638v1.467h-.856Zm-1.611-.756h1.611V74.24Z" transform="translate(0 -2.18)"/>
      <path d="M76.671,77.869H74.277V77.14l2.151-3.808h1.1v3.781h.638v.756h-.638v1.467h-.856Zm-1.611-.756h1.611V74.24Z" transform="translate(0 -2.18)"/>
      <path d="M81.5,77.869H79.109V77.14l2.151-3.808h1.1v3.781H83v.756h-.638v1.467H81.5Zm-1.611-.756H81.5V74.24Z" transform="translate(0 -2.18)"/>
      <path d="M86.336,77.869H83.942V77.14l2.151-3.808h1.1v3.781h.638v.756h-.638v1.467h-.856Zm-1.611-.756h1.611V74.24Z" transform="translate(0 -2.18)"/>
      <path d="M91.169,77.869H88.775V77.14l2.151-3.808h1.1v3.781h.638v.756h-.638v1.467h-.856Zm-1.611-.756h1.611V74.24Z" transform="translate(0 -2.18)"/>
      <path d="M96,77.869H93.608V77.14l2.151-3.808h1.1v3.781H97.5v.756h-.638v1.467H96Zm-1.611-.756H96V74.24Z" transform="translate(0 -2.18)"/>
      <path d="M100.835,77.869H98.441V77.14l2.151-3.808h1.1v3.781h.638v.756h-.638v1.467h-.856Zm-1.611-.756h1.611V74.24Z" transform="translate(0 -2.18)"/>
      <path d="M105.668,77.869h-2.394V77.14l2.151-3.808h1.1v3.781h.638v.756h-.638v1.467h-.856Zm-1.611-.756h1.611V74.24Z" transform="translate(0 -2.18)"/>
      <path d="M110.5,77.869h-2.394V77.14l2.151-3.808h1.1v3.781H112v.756h-.638v1.467H110.5Zm-1.611-.756H110.5V74.24Z" transform="translate(0 -2.18)"/>
      <path d="M115.334,77.869H112.94V77.14l2.151-3.808h1.1v3.781h.638v.756h-.638v1.467h-.856Zm-1.611-.756h1.611V74.24Z" transform="translate(0 -2.18)"/>
      <path d="M.6,83.332H2.737a1.422,1.422,0,0,1,1.512,1.53,1.324,1.324,0,0,1-.926,1.378,1.427,1.427,0,0,1,1.026,1.476A1.458,1.458,0,0,1,2.8,89.336H.6ZM2.557,85.9c.558,0,.81-.387.81-.9s-.252-.909-.81-.909h-1.1V85.9Zm.036,2.683c.576,0,.873-.359.873-.963a.86.86,0,0,0-.873-.963H1.458V88.58Z" transform="translate(0 -2.18)"/>
      <path d="M7.453,84.88c1.162,0,1.764,1.017,1.764,2.305v.225H6.427c.035.792.45,1.4,1.2,1.4a1.323,1.323,0,0,0,1-.5l.4.469a1.925,1.925,0,0,1-1.468.674c-1.18,0-1.918-.945-1.918-2.286C5.634,85.9,6.319,84.88,7.453,84.88ZM6.417,86.861H8.461c-.009-.6-.279-1.341-1.017-1.341C6.724,85.52,6.445,86.275,6.417,86.861Z" transform="translate(0 -2.18)"/>
      <path d="M10.936,89.949a1.407,1.407,0,0,0,1.125.494,1,1,0,0,0,1.054-1.133v-.667a1.344,1.344,0,0,1-1.125.72c-.973,0-1.577-.855-1.577-2.242,0-1.359.595-2.241,1.577-2.241a1.3,1.3,0,0,1,1.125.712v-.6h.774v4.268a1.639,1.639,0,0,1-1.8,1.846,1.984,1.984,0,0,1-1.494-.55Zm2.179-3.727a1.089,1.089,0,0,0-.91-.658c-.666,0-.99.676-.99,1.557s.324,1.559.99,1.559a1.088,1.088,0,0,0,.91-.659Z" transform="translate(0 -2.18)"/>
      <path d="M15.427,83.764a.508.508,0,0,1,.5-.5.5.5,0,0,1,.5.5.5.5,0,0,1-.5.5A.5.5,0,0,1,15.427,83.764Zm.117,1.224h.774v4.348h-.774Z" transform="translate(0 -2.18)"/>
      <path d="M20.36,86.312c0-.55-.253-.748-.658-.748a1.166,1.166,0,0,0-.955.649v3.123h-.773V84.988h.773v.6a1.614,1.614,0,0,1,1.261-.712c.756,0,1.116.415,1.116,1.18v3.276H20.36Z" transform="translate(0 -2.18)"/>
      <path d="M25.174,86.312c0-.55-.253-.748-.657-.748a1.165,1.165,0,0,0-.955.649v3.123h-.774V84.988h.774v.6a1.612,1.612,0,0,1,1.261-.712c.755,0,1.116.415,1.116,1.18v3.276h-.765Z" transform="translate(0 -2.18)"/>
      <path d="M27.487,83.764a.507.507,0,0,1,.5-.5.5.5,0,0,1,.5.5.5.5,0,0,1-.5.5A.5.5,0,0,1,27.487,83.764Zm.117,1.224h.773v4.348H27.6Z" transform="translate(0 -2.18)"/>
      <path d="M32.419,86.312c0-.55-.253-.748-.657-.748a1.168,1.168,0,0,0-.955.649v3.123h-.774V84.988h.774v.6a1.612,1.612,0,0,1,1.261-.712c.756,0,1.116.415,1.116,1.18v3.276h-.765Z" transform="translate(0 -2.18)"/>
      <path d="M35.154,89.949a1.407,1.407,0,0,0,1.125.494,1,1,0,0,0,1.053-1.133v-.667a1.343,1.343,0,0,1-1.125.72c-.972,0-1.576-.855-1.576-2.242,0-1.359.595-2.241,1.576-2.241a1.3,1.3,0,0,1,1.125.712v-.6h.775v4.268a1.639,1.639,0,0,1-1.8,1.846,1.983,1.983,0,0,1-1.494-.55Zm2.178-3.727a1.086,1.086,0,0,0-.909-.658c-.666,0-.99.676-.99,1.557s.324,1.559.99,1.559a1.085,1.085,0,0,0,.909-.659Z" transform="translate(0 -2.18)"/>
      <path d="M43.929,87.005h-.8v2.331h-.854v-6h1.953a1.675,1.675,0,0,1,1.7,1.827,1.578,1.578,0,0,1-1.161,1.7l1.216,2.475h-.964Zm.18-2.917h-.982v2.16h.982a1.091,1.091,0,0,0,0-2.16Z" transform="translate(0 -2.18)"/>
      <path d="M48.834,84.88C50,84.88,50.6,85.9,50.6,87.185v.225h-2.79c.035.792.45,1.4,1.2,1.4a1.325,1.325,0,0,0,1-.5l.4.469a1.925,1.925,0,0,1-1.468.674c-1.18,0-1.918-.945-1.918-2.286C47.015,85.9,47.7,84.88,48.834,84.88ZM47.8,86.861h2.044c-.009-.6-.279-1.341-1.018-1.341C48.105,85.52,47.825,86.275,47.8,86.861Z" transform="translate(0 -2.18)"/>
      <path d="M54.252,88.887a1.4,1.4,0,0,1-1.143.557A1.338,1.338,0,0,1,51.785,88a1.314,1.314,0,0,1,1.324-1.423,1.364,1.364,0,0,1,1.143.541V86.42a.792.792,0,0,0-.864-.883,1.473,1.473,0,0,0-1.089.514l-.315-.541a2.087,2.087,0,0,1,1.53-.63,1.332,1.332,0,0,1,1.513,1.45v3.006h-.775Zm0-1.242a.992.992,0,0,0-.873-.524.9.9,0,0,0,0,1.783.993.993,0,0,0,.873-.521Z" transform="translate(0 -2.18)"/>
      <path d="M59.175,88.742a1.368,1.368,0,0,1-1.134.7c-.972,0-1.576-.891-1.576-2.277,0-1.36.595-2.287,1.576-2.287a1.322,1.322,0,0,1,1.134.712v-2.26h.766v6h-.766Zm0-2.52a1.111,1.111,0,0,0-.918-.658c-.666,0-.99.711-.99,1.6s.324,1.593.99,1.593a1.1,1.1,0,0,0,.918-.649Z" transform="translate(0 -2.18)"/>
      <path d="M64.115,83.332h1.693c1.584,0,2.475,1.277,2.475,3.006s-.882,3-2.466,3h-1.7Zm1.693,5.248c1.053,0,1.593-.954,1.593-2.242,0-1.3-.531-2.25-1.593-2.25H64.97V88.58Z" transform="translate(0 -2.18)"/>
      <path d="M72.009,88.887a1.4,1.4,0,0,1-1.144.557A1.337,1.337,0,0,1,69.542,88a1.314,1.314,0,0,1,1.323-1.423,1.365,1.365,0,0,1,1.144.541V86.42a.792.792,0,0,0-.864-.883,1.473,1.473,0,0,0-1.089.514l-.316-.541a2.089,2.089,0,0,1,1.531-.63,1.331,1.331,0,0,1,1.512,1.45v3.006h-.774Zm0-1.242a.993.993,0,0,0-.873-.524.9.9,0,0,0,0,1.783.994.994,0,0,0,.873-.521Z" transform="translate(0 -2.18)"/>
      <path d="M74.591,88.418V85.664h-.576v-.676h.576V83.8h.766v1.188h.729v.676h-.729v2.6c0,.3.108.494.342.494a.5.5,0,0,0,.369-.153l.2.577a1,1,0,0,1-.738.26C74.889,89.444,74.591,89.094,74.591,88.418Z" transform="translate(0 -2.18)"/>
      <path d="M79.037,84.88c1.162,0,1.765,1.017,1.765,2.305v.225h-2.79c.035.792.449,1.4,1.2,1.4a1.323,1.323,0,0,0,1-.5l.4.469a1.925,1.925,0,0,1-1.468.674c-1.18,0-1.918-.945-1.918-2.286C77.219,85.9,77.9,84.88,79.037,84.88ZM78,86.861h2.044c-.009-.6-.279-1.341-1.017-1.341C78.309,85.52,78.03,86.275,78,86.861Z" transform="translate(0 -2.18)"/>
      <path d="M82.719,84.926a.54.54,0,1,1-.55.539A.547.547,0,0,1,82.719,84.926Zm0,3.42a.54.54,0,1,1-.55.541A.548.548,0,0,1,82.719,88.346Z" transform="translate(0 -2.18)"/>
      <path d="M88.325,84.447l-.927.983-.5-.532,1.53-1.566h.747v6h-.846Z" transform="translate(0 -2.18)"/>
      <path d="M91.872,84.447l-.927.983-.5-.532,1.53-1.566h.747v6h-.846Z" transform="translate(0 -2.18)"/>
      <path d="M94.14,86.824h1.872v.666H94.14Z" transform="translate(0 -2.18)"/>
      <path d="M97.271,88.643c2.034-2.223,2.646-2.881,2.646-3.709A.886.886,0,0,0,99,84.007a1.451,1.451,0,0,0-1.269.729l-.54-.522a2.109,2.109,0,0,1,1.818-.972,1.658,1.658,0,0,1,1.782,1.692c0,.972-.719,1.837-2.277,3.646h2.3v.756H97.271Z" transform="translate(0 -2.18)"/>
      <path d="M102.842,88.1a1.1,1.1,0,0,0,.982.566c.917,0,1.278-1.143,1.278-2.215v-.17a1.552,1.552,0,0,1-1.306.855c-.882,0-1.611-.648-1.611-1.927a1.833,1.833,0,0,1,1.792-1.981c1.476,0,2,1.487,2,3.106,0,1.657-.666,3.1-2.143,3.1a1.682,1.682,0,0,1-1.43-.721ZM104.031,84c-.675,0-.972.621-.972,1.188,0,.882.449,1.215.963,1.215a1.27,1.27,0,0,0,1.062-.828C105.057,84.926,104.823,84,104.031,84Z" transform="translate(0 -2.18)"/>
      <path d="M.6,93.332H3.79v.756H1.458V95.9h2.27v.757H1.458V98.58H3.79v.756H.6Z" transform="translate(0 -2.18)"/>
      <path d="M7.679,96.312c0-.55-.253-.748-.657-.748a1.166,1.166,0,0,0-.955.649v3.123H5.293V94.988h.774v.6a1.612,1.612,0,0,1,1.26-.712c.756,0,1.117.415,1.117,1.18v3.276H7.679Z" transform="translate(0 -2.18)"/>
      <path d="M12.6,98.742a1.369,1.369,0,0,1-1.134.7c-.973,0-1.576-.891-1.576-2.277,0-1.36.6-2.287,1.576-2.287a1.323,1.323,0,0,1,1.134.712v-2.26h.765v6H12.6Zm0-2.52a1.111,1.111,0,0,0-.918-.658c-.666,0-.99.711-.99,1.6s.324,1.593.99,1.593a1.1,1.1,0,0,0,.918-.649Z" transform="translate(0 -2.18)"/>
      <path d="M14.913,93.764a.508.508,0,0,1,.5-.5.5.5,0,0,1,.5.5.5.5,0,0,1-.5.5A.5.5,0,0,1,14.913,93.764Zm.118,1.224H15.8v4.348h-.773Z" transform="translate(0 -2.18)"/>
      <path d="M19.846,96.312c0-.55-.253-.748-.657-.748a1.165,1.165,0,0,0-.955.649v3.123H17.46V94.988h.774v.6a1.612,1.612,0,0,1,1.26-.712c.756,0,1.117.415,1.117,1.18v3.276h-.765Z" transform="translate(0 -2.18)"/>
      <path d="M22.581,99.949a1.409,1.409,0,0,0,1.125.494A1,1,0,0,0,24.76,99.31v-.667a1.344,1.344,0,0,1-1.125.72c-.973,0-1.576-.855-1.576-2.242,0-1.359.595-2.241,1.576-2.241a1.3,1.3,0,0,1,1.125.712v-.6h.774v4.268a1.639,1.639,0,0,1-1.8,1.846,1.983,1.983,0,0,1-1.494-.55Zm2.179-3.727a1.086,1.086,0,0,0-.909-.658c-.666,0-.99.676-.99,1.557s.324,1.559.99,1.559a1.085,1.085,0,0,0,.909-.659Z" transform="translate(0 -2.18)"/>
      <path d="M31.357,97.005h-.8v2.331H29.7v-6h1.954a1.675,1.675,0,0,1,1.7,1.827,1.578,1.578,0,0,1-1.161,1.7l1.215,2.475h-.963Zm.179-2.917h-.981v2.16h.981a1.091,1.091,0,0,0,0-2.16Z" transform="translate(0 -2.18)"/>
      <path d="M36.262,94.88c1.161,0,1.764,1.017,1.764,2.305v.225h-2.79c.035.792.45,1.4,1.2,1.4a1.327,1.327,0,0,0,1-.5l.4.469a1.923,1.923,0,0,1-1.467.674c-1.18,0-1.918-.945-1.918-2.286C34.443,95.9,35.127,94.88,36.262,94.88Zm-1.036,1.981H37.27c-.009-.6-.28-1.341-1.018-1.341C35.532,95.52,35.253,96.275,35.226,96.861Z" transform="translate(0 -2.18)"/>
      <path d="M41.68,98.887a1.4,1.4,0,0,1-1.144.557A1.337,1.337,0,0,1,39.213,98a1.314,1.314,0,0,1,1.323-1.423,1.365,1.365,0,0,1,1.144.541V96.42a.792.792,0,0,0-.864-.883,1.473,1.473,0,0,0-1.089.514l-.316-.541a2.089,2.089,0,0,1,1.531-.63,1.331,1.331,0,0,1,1.512,1.45v3.006H41.68Zm0-1.242a.994.994,0,0,0-.873-.524.9.9,0,0,0,0,1.783,1,1,0,0,0,.873-.521Z" transform="translate(0 -2.18)"/>
      <path d="M46.6,98.742a1.369,1.369,0,0,1-1.134.7c-.973,0-1.576-.891-1.576-2.277,0-1.36.595-2.287,1.576-2.287a1.323,1.323,0,0,1,1.134.712v-2.26h.765v6H46.6Zm0-2.52a1.111,1.111,0,0,0-.918-.658c-.666,0-.99.711-.99,1.6s.324,1.593.99,1.593a1.1,1.1,0,0,0,.918-.649Z" transform="translate(0 -2.18)"/>
      <path d="M51.543,93.332h1.693c1.584,0,2.475,1.277,2.475,3.006s-.883,3-2.467,3h-1.7Zm1.693,5.248c1.052,0,1.592-.954,1.592-2.242,0-1.3-.53-2.25-1.592-2.25H52.4V98.58Z" transform="translate(0 -2.18)"/>
      <path d="M59.437,98.887a1.4,1.4,0,0,1-1.144.557A1.337,1.337,0,0,1,56.97,98a1.314,1.314,0,0,1,1.323-1.423,1.366,1.366,0,0,1,1.144.541V96.42a.792.792,0,0,0-.864-.883,1.472,1.472,0,0,0-1.089.514l-.316-.541a2.089,2.089,0,0,1,1.531-.63,1.331,1.331,0,0,1,1.512,1.45v3.006h-.774Zm0-1.242a.994.994,0,0,0-.873-.524.9.9,0,0,0,0,1.783,1,1,0,0,0,.873-.521Z" transform="translate(0 -2.18)"/>
      <path d="M62.019,98.418V95.664h-.576v-.676h.576V93.8h.765v1.188h.73v.676h-.73v2.6c0,.3.109.494.342.494a.5.5,0,0,0,.369-.153l.2.577a1,1,0,0,1-.739.26C62.317,99.444,62.019,99.094,62.019,98.418Z" transform="translate(0 -2.18)"/>
      <path d="M66.465,94.88c1.162,0,1.765,1.017,1.765,2.305v.225H65.44c.035.792.449,1.4,1.2,1.4a1.325,1.325,0,0,0,1-.5l.4.469a1.923,1.923,0,0,1-1.467.674c-1.18,0-1.918-.945-1.918-2.286C64.647,95.9,65.331,94.88,66.465,94.88ZM65.43,96.861h2.044c-.009-.6-.279-1.341-1.018-1.341C65.737,95.52,65.457,96.275,65.43,96.861Z" transform="translate(0 -2.18)"/>
      <path d="M70.146,94.926a.54.54,0,1,1-.55.539A.547.547,0,0,1,70.146,94.926Zm0,3.42a.54.54,0,1,1-.55.541A.548.548,0,0,1,70.146,98.346Z" transform="translate(0 -2.18)"/>
      <path d="M75.753,94.447l-.928.983-.5-.532,1.53-1.566H76.6v6h-.846Z" transform="translate(0 -2.18)"/>
      <path d="M78.2,98.643c2.035-2.223,2.647-2.881,2.647-3.709a.886.886,0,0,0-.918-.927,1.452,1.452,0,0,0-1.27.729l-.54-.522a2.111,2.111,0,0,1,1.819-.972,1.658,1.658,0,0,1,1.782,1.692c0,.972-.72,1.837-2.277,3.646h2.3v.756H78.2Z" transform="translate(0 -2.18)"/>
      <path d="M83.042,96.824h1.872v.666H83.042Z" transform="translate(0 -2.18)"/>
      <path d="M86.174,98.643c2.034-2.223,2.647-2.881,2.647-3.709a.886.886,0,0,0-.918-.927,1.452,1.452,0,0,0-1.27.729l-.54-.522a2.109,2.109,0,0,1,1.818-.972,1.658,1.658,0,0,1,1.783,1.692c0,.972-.72,1.837-2.278,3.646h2.305v.756H86.174Z" transform="translate(0 -2.18)"/>
      <path d="M93.492,94.088h-2.53v-.756h3.493v.594l-1.9,5.41h-.928Z" transform="translate(0 -2.18)"/>
      <path d="M.6,103.332H2.737a1.422,1.422,0,0,1,1.512,1.53,1.324,1.324,0,0,1-.926,1.378,1.427,1.427,0,0,1,1.026,1.476,1.458,1.458,0,0,1-1.549,1.62H.6ZM2.557,105.9c.558,0,.81-.387.81-.9s-.252-.909-.81-.909h-1.1V105.9Zm.036,2.683c.576,0,.873-.359.873-.963a.86.86,0,0,0-.873-.963H1.458v1.926Z" transform="translate(0 -2.18)"/>
      <path d="M7.453,104.88c1.162,0,1.764,1.017,1.764,2.305v.225H6.427c.035.792.45,1.4,1.2,1.4a1.323,1.323,0,0,0,1-.5l.4.469a1.925,1.925,0,0,1-1.468.674c-1.18,0-1.918-.945-1.918-2.286C5.634,105.9,6.319,104.88,7.453,104.88Zm-1.036,1.981H8.461c-.009-.6-.279-1.341-1.017-1.341C6.724,105.52,6.445,106.275,6.417,106.861Z" transform="translate(0 -2.18)"/>
      <path d="M10.936,109.949a1.407,1.407,0,0,0,1.125.494,1,1,0,0,0,1.054-1.133v-.667a1.344,1.344,0,0,1-1.125.72c-.973,0-1.577-.855-1.577-2.242,0-1.359.595-2.241,1.577-2.241a1.3,1.3,0,0,1,1.125.712v-.6h.774v4.268a1.639,1.639,0,0,1-1.8,1.846,1.984,1.984,0,0,1-1.494-.55Zm2.179-3.727a1.089,1.089,0,0,0-.91-.658c-.666,0-.99.676-.99,1.557s.324,1.559.99,1.559a1.088,1.088,0,0,0,.91-.659Z" transform="translate(0 -2.18)"/>
      <path d="M15.427,103.764a.508.508,0,0,1,.5-.5.5.5,0,0,1,.5.5.5.5,0,0,1-.5.5A.5.5,0,0,1,15.427,103.764Zm.117,1.224h.774v4.348h-.774Z" transform="translate(0 -2.18)"/>
      <path d="M20.36,106.312c0-.55-.253-.748-.658-.748a1.166,1.166,0,0,0-.955.649v3.123h-.773v-4.348h.773v.6a1.614,1.614,0,0,1,1.261-.712c.756,0,1.116.415,1.116,1.18v3.276H20.36Z" transform="translate(0 -2.18)"/>
      <path d="M25.174,106.312c0-.55-.253-.748-.657-.748a1.165,1.165,0,0,0-.955.649v3.123h-.774v-4.348h.774v.6a1.612,1.612,0,0,1,1.261-.712c.755,0,1.116.415,1.116,1.18v3.276h-.765Z" transform="translate(0 -2.18)"/>
      <path d="M27.487,103.764a.507.507,0,0,1,.5-.5.5.5,0,0,1,.5.5.5.5,0,0,1-.5.5A.5.5,0,0,1,27.487,103.764Zm.117,1.224h.773v4.348H27.6Z" transform="translate(0 -2.18)"/>
      <path d="M32.419,106.312c0-.55-.253-.748-.657-.748a1.168,1.168,0,0,0-.955.649v3.123h-.774v-4.348h.774v.6a1.612,1.612,0,0,1,1.261-.712c.756,0,1.116.415,1.116,1.18v3.276h-.765Z" transform="translate(0 -2.18)"/>
      <path d="M35.154,109.949a1.407,1.407,0,0,0,1.125.494,1,1,0,0,0,1.053-1.133v-.667a1.343,1.343,0,0,1-1.125.72c-.972,0-1.576-.855-1.576-2.242,0-1.359.595-2.241,1.576-2.241a1.3,1.3,0,0,1,1.125.712v-.6h.775v4.268a1.639,1.639,0,0,1-1.8,1.846,1.983,1.983,0,0,1-1.494-.55Zm2.178-3.727a1.086,1.086,0,0,0-.909-.658c-.666,0-.99.676-.99,1.557s.324,1.559.99,1.559a1.085,1.085,0,0,0,.909-.659Z" transform="translate(0 -2.18)"/>
      <path d="M43.929,107.005h-.8v2.331h-.854v-6h1.953a1.675,1.675,0,0,1,1.7,1.827,1.578,1.578,0,0,1-1.161,1.7l1.216,2.475h-.964Zm.18-2.917h-.982v2.16h.982a1.091,1.091,0,0,0,0-2.16Z" transform="translate(0 -2.18)"/>
      <path d="M48.834,104.88c1.161,0,1.764,1.017,1.764,2.305v.225h-2.79c.035.792.45,1.4,1.2,1.4a1.325,1.325,0,0,0,1-.5l.4.469a1.925,1.925,0,0,1-1.468.674c-1.18,0-1.918-.945-1.918-2.286C47.015,105.9,47.7,104.88,48.834,104.88ZM47.8,106.861h2.044c-.009-.6-.279-1.341-1.018-1.341C48.105,105.52,47.825,106.275,47.8,106.861Z" transform="translate(0 -2.18)"/>
      <path d="M54.252,108.887a1.4,1.4,0,0,1-1.143.557A1.338,1.338,0,0,1,51.785,108a1.314,1.314,0,0,1,1.324-1.423,1.364,1.364,0,0,1,1.143.541v-.693a.792.792,0,0,0-.864-.883,1.473,1.473,0,0,0-1.089.514l-.315-.541a2.087,2.087,0,0,1,1.53-.63,1.332,1.332,0,0,1,1.513,1.45v3.006h-.775Zm0-1.242a.992.992,0,0,0-.873-.524.9.9,0,0,0,0,1.783.993.993,0,0,0,.873-.521Z" transform="translate(0 -2.18)"/>
      <path d="M59.175,108.742a1.368,1.368,0,0,1-1.134.7c-.972,0-1.576-.891-1.576-2.277,0-1.36.595-2.287,1.576-2.287a1.322,1.322,0,0,1,1.134.712v-2.26h.766v6h-.766Zm0-2.52a1.111,1.111,0,0,0-.918-.658c-.666,0-.99.711-.99,1.6s.324,1.593.99,1.593a1.1,1.1,0,0,0,.918-.649Z" transform="translate(0 -2.18)"/>
      <path d="M62.109,104.926a.54.54,0,1,1-.55.539A.547.547,0,0,1,62.109,104.926Zm0,3.42a.54.54,0,1,1-.55.541A.548.548,0,0,1,62.109,108.346Z" transform="translate(0 -2.18)"/>
      <path d="M66.617,108.643c2.035-2.223,2.647-2.881,2.647-3.709a.886.886,0,0,0-.918-.927,1.452,1.452,0,0,0-1.27.729l-.54-.522a2.111,2.111,0,0,1,1.819-.972,1.658,1.658,0,0,1,1.782,1.692c0,.972-.72,1.837-2.277,3.646h2.3v.756H66.617Z" transform="translate(0 -2.18)"/>
      <path d="M73.709,103.242a1.733,1.733,0,0,1,1.441.72l-.451.621a1.058,1.058,0,0,0-.981-.576c-.891,0-1.278,1.134-1.278,2.223v.153a1.548,1.548,0,0,1,1.314-.846c.883,0,1.6.649,1.6,1.927a1.826,1.826,0,0,1-1.791,1.98c-1.486,0-1.991-1.485-1.991-3.106C71.575,104.682,72.233,103.242,73.709,103.242Zm-.2,3.033a1.319,1.319,0,0,0-1.062.829c.045.648.27,1.576,1.072,1.576.666,0,.963-.621.963-1.19C74.484,106.608,74.042,106.275,73.511,106.275Z" transform="translate(0 -2.18)"/>
      <path d="M78.588,103.242c1.422,0,1.944,1.494,1.944,3.1s-.512,3.106-1.944,3.106-1.954-1.5-1.954-3.106S77.157,103.242,78.588,103.242Zm0,.765c-.864,0-1.08,1.152-1.08,2.331s.216,2.342,1.08,2.342,1.071-1.171,1.071-2.342S79.444,104.007,78.588,104.007Z" transform="translate(0 -2.18)"/>
      <path d="M84.051,107.869H81.657v-.729l2.151-3.808h1.1v3.781h.638v.756h-.638v1.467h-.856Zm-1.611-.756h1.611V104.24Z" transform="translate(0 -2.18)"/>
      <path d="M.6,114.332H3.79v.756H1.458V116.9h2.27v.757H1.458v1.926H3.79v.756H.6Z" transform="translate(0 -2.18)"/>
      <path d="M7.679,117.312c0-.55-.253-.748-.657-.748a1.166,1.166,0,0,0-.955.649v3.123H5.293v-4.348h.774v.6a1.612,1.612,0,0,1,1.26-.712c.756,0,1.117.415,1.117,1.18v3.276H7.679Z" transform="translate(0 -2.18)"/>
      <path d="M12.6,119.742a1.369,1.369,0,0,1-1.134.7c-.973,0-1.576-.891-1.576-2.277,0-1.36.6-2.287,1.576-2.287a1.323,1.323,0,0,1,1.134.712v-2.26h.765v6H12.6Zm0-2.52a1.111,1.111,0,0,0-.918-.658c-.666,0-.99.711-.99,1.6s.324,1.593.99,1.593a1.1,1.1,0,0,0,.918-.649Z" transform="translate(0 -2.18)"/>
      <path d="M14.913,114.764a.508.508,0,0,1,.5-.5.5.5,0,0,1,.5.5.5.5,0,0,1-.5.5A.5.5,0,0,1,14.913,114.764Zm.118,1.224H15.8v4.348h-.773Z" transform="translate(0 -2.18)"/>
      <path d="M19.846,117.312c0-.55-.253-.748-.657-.748a1.165,1.165,0,0,0-.955.649v3.123H17.46v-4.348h.774v.6a1.612,1.612,0,0,1,1.26-.712c.756,0,1.117.415,1.117,1.18v3.276h-.765Z" transform="translate(0 -2.18)"/>
      <path d="M22.581,120.949a1.409,1.409,0,0,0,1.125.494,1,1,0,0,0,1.054-1.133v-.667a1.344,1.344,0,0,1-1.125.72c-.973,0-1.576-.855-1.576-2.242,0-1.359.595-2.241,1.576-2.241a1.3,1.3,0,0,1,1.125.712v-.6h.774v4.268a1.639,1.639,0,0,1-1.8,1.846,1.983,1.983,0,0,1-1.494-.55Zm2.179-3.727a1.086,1.086,0,0,0-.909-.658c-.666,0-.99.676-.99,1.557s.324,1.559.99,1.559a1.085,1.085,0,0,0,.909-.659Z" transform="translate(0 -2.18)"/>
      <path d="M31.357,118.005h-.8v2.331H29.7v-6h1.954a1.675,1.675,0,0,1,1.7,1.827,1.578,1.578,0,0,1-1.161,1.7l1.215,2.475h-.963Zm.179-2.917h-.981v2.16h.981a1.091,1.091,0,0,0,0-2.16Z" transform="translate(0 -2.18)"/>
      <path d="M36.262,115.88c1.161,0,1.764,1.017,1.764,2.305v.225h-2.79c.035.792.45,1.4,1.2,1.4a1.327,1.327,0,0,0,1-.5l.4.469a1.923,1.923,0,0,1-1.467.674c-1.18,0-1.918-.945-1.918-2.286C34.443,116.9,35.127,115.88,36.262,115.88Zm-1.036,1.981H37.27c-.009-.6-.28-1.341-1.018-1.341C35.532,116.52,35.253,117.275,35.226,117.861Z" transform="translate(0 -2.18)"/>
      <path d="M41.68,119.887a1.4,1.4,0,0,1-1.144.557A1.337,1.337,0,0,1,39.213,119a1.314,1.314,0,0,1,1.323-1.423,1.365,1.365,0,0,1,1.144.541v-.693a.792.792,0,0,0-.864-.883,1.473,1.473,0,0,0-1.089.514l-.316-.541a2.089,2.089,0,0,1,1.531-.63,1.331,1.331,0,0,1,1.512,1.45v3.006H41.68Zm0-1.242a.994.994,0,0,0-.873-.524.9.9,0,0,0,0,1.783,1,1,0,0,0,.873-.521Z" transform="translate(0 -2.18)"/>
      <path d="M46.6,119.742a1.369,1.369,0,0,1-1.134.7c-.973,0-1.576-.891-1.576-2.277,0-1.36.595-2.287,1.576-2.287a1.323,1.323,0,0,1,1.134.712v-2.26h.765v6H46.6Zm0-2.52a1.111,1.111,0,0,0-.918-.658c-.666,0-.99.711-.99,1.6s.324,1.593.99,1.593a1.1,1.1,0,0,0,.918-.649Z" transform="translate(0 -2.18)"/>
      <path d="M49.536,115.926a.54.54,0,1,1-.549.539A.547.547,0,0,1,49.536,115.926Zm0,3.42a.54.54,0,1,1-.549.541A.548.548,0,0,1,49.536,119.346Z" transform="translate(0 -2.18)"/>
      <path d="M54.377,118.932a1.517,1.517,0,0,0,1.287.748.945.945,0,0,0,1.035-1.045c0-.747-.495-.99-1.1-.99-.19,0-.414,0-.495.009v-.775c.081.01.324.01.476.01.595,0,1.036-.3,1.036-.918a.89.89,0,0,0-.981-.964,1.481,1.481,0,0,0-1.216.675l-.513-.487a2.071,2.071,0,0,1,1.783-.953,1.569,1.569,0,0,1,1.782,1.6,1.416,1.416,0,0,1-1.089,1.386,1.474,1.474,0,0,1,1.17,1.477,1.69,1.69,0,0,1-1.863,1.737,2.126,2.126,0,0,1-1.864-.99Z" transform="translate(0 -2.18)"/>
      <path d="M61.092,118.869H58.7v-.729l2.151-3.808h1.1v3.781h.638v.756h-.638v1.467h-.856Zm-1.611-.756h1.611V115.24Z" transform="translate(0 -2.18)"/>
      <path d="M65.673,114.242c1.422,0,1.944,1.494,1.944,3.1s-.512,3.106-1.944,3.106-1.954-1.5-1.954-3.106S64.241,114.242,65.673,114.242Zm0,.765c-.864,0-1.08,1.152-1.08,2.331s.216,2.342,1.08,2.342,1.071-1.171,1.071-2.342S66.529,115.007,65.673,115.007Z" transform="translate(0 -2.18)"/>
      <path d="M69.525,118.941a1.4,1.4,0,0,0,1.259.739,1.089,1.089,0,0,0,1.027-1.2c0-.783-.378-1.215-.981-1.215a1.243,1.243,0,0,0-1.053.54l-.63-.2v-3.276h3.214v.756H70v1.944a1.418,1.418,0,0,1,1.108-.512c.874,0,1.576.683,1.576,1.935a1.853,1.853,0,0,1-1.873,1.989,2.012,2.012,0,0,1-1.837-.971Z" transform="translate(0 -2.18)"/>
      <path d="M76.463,118.148a7.642,7.642,0,0,1,1.1-3.978l.512.3a9.222,9.222,0,0,0,0,7.355l-.512.306A7.647,7.647,0,0,1,76.463,118.148Z" transform="translate(0 -2.18)"/>
      <path d="M82.206,119.066H80.073l-.351,1.27H78.83l1.792-6h1.027l1.8,6h-.891Zm-1.953-.755h1.774l-.892-3.187Z" transform="translate(0 -2.18)"/>
      <path d="M86.21,115.88a1.536,1.536,0,0,1,1.288.585l-.405.522a.959.959,0,0,0-.811-.423c-.729,0-1.125.721-1.125,1.594s.4,1.6,1.125,1.6a.981.981,0,0,0,.811-.423l.405.522a1.51,1.51,0,0,1-1.288.585c-1.134,0-1.854-.981-1.854-2.286S85.076,115.88,86.21,115.88Z" transform="translate(0 -2.18)"/>
      <path d="M88.964,119.418v-2.754h-.576v-.676h.576V114.8h.766v1.188h.729v.676H89.73v2.6c0,.3.108.494.342.494a.5.5,0,0,0,.369-.153l.2.577a1,1,0,0,1-.738.26C89.262,120.444,88.964,120.094,88.964,119.418Z" transform="translate(0 -2.18)"/>
      <path d="M94.2,119.752a1.6,1.6,0,0,1-1.27.692c-.757,0-1.116-.387-1.116-1.171v-3.285h.773v3.043c0,.54.252.729.658.729a1.175,1.175,0,0,0,.955-.63v-3.142h.764v4.348H94.2Z" transform="translate(0 -2.18)"/>
      <path d="M98.865,119.887a1.4,1.4,0,0,1-1.144.557A1.337,1.337,0,0,1,96.4,119a1.314,1.314,0,0,1,1.323-1.423,1.366,1.366,0,0,1,1.144.541v-.693a.792.792,0,0,0-.865-.883,1.475,1.475,0,0,0-1.089.514l-.315-.541a2.087,2.087,0,0,1,1.53-.63,1.332,1.332,0,0,1,1.513,1.45v3.006h-.774Zm0-1.242a1,1,0,0,0-.874-.524.9.9,0,0,0,0,1.783,1,1,0,0,0,.874-.521Z" transform="translate(0 -2.18)"/>
      <path d="M101.294,114.332h.774v6h-.774Z" transform="translate(0 -2.18)"/>
      <path d="M103.327,114.467l.5-.3a7.646,7.646,0,0,1,0,7.958l-.5-.306a9.113,9.113,0,0,0,0-7.355Z" transform="translate(0 -2.18)"/>
      <path d="M.6,125.332h.854v4.033c0,.864.424,1.323,1.153,1.323s1.152-.459,1.152-1.323v-4.033h.855v4.023a1.869,1.869,0,0,1-2.007,2.089A1.87,1.87,0,0,1,.6,129.355Z" transform="translate(0 -2.18)"/>
      <path d="M6.336,130.283a1.6,1.6,0,0,0,1.161.54c.478,0,.775-.233.775-.6,0-.414-.406-.595-.865-.776-.6-.224-1.295-.486-1.295-1.359a1.271,1.271,0,0,1,1.44-1.206,1.88,1.88,0,0,1,1.377.558l-.342.531a1.3,1.3,0,0,0-1.026-.467c-.433,0-.721.225-.721.539,0,.369.388.531.828.711.613.226,1.342.5,1.342,1.424a1.327,1.327,0,0,1-1.5,1.268,1.973,1.973,0,0,1-1.53-.612Z" transform="translate(0 -2.18)"/>
      <path d="M12.646,130.887a1.4,1.4,0,0,1-1.144.557A1.337,1.337,0,0,1,10.179,130a1.314,1.314,0,0,1,1.323-1.423,1.366,1.366,0,0,1,1.144.541v-.693a.792.792,0,0,0-.864-.883,1.472,1.472,0,0,0-1.089.514l-.316-.541a2.088,2.088,0,0,1,1.53-.63,1.332,1.332,0,0,1,1.513,1.45v3.006h-.774Zm0-1.242a.994.994,0,0,0-.873-.524.9.9,0,0,0,0,1.783,1,1,0,0,0,.873-.521Z" transform="translate(0 -2.18)"/>
      <path d="M15.381,131.949a1.407,1.407,0,0,0,1.125.494,1,1,0,0,0,1.054-1.133v-.667a1.344,1.344,0,0,1-1.125.72c-.973,0-1.576-.855-1.576-2.242,0-1.359.594-2.241,1.576-2.241a1.3,1.3,0,0,1,1.125.712v-.6h.774v4.268a1.639,1.639,0,0,1-1.8,1.846,1.985,1.985,0,0,1-1.494-.55Zm2.179-3.727a1.086,1.086,0,0,0-.909-.658c-.666,0-.991.676-.991,1.557s.325,1.559.991,1.559a1.085,1.085,0,0,0,.909-.659Z" transform="translate(0 -2.18)"/>
      <path d="M21.592,126.88c1.161,0,1.764,1.017,1.764,2.305v.225h-2.79c.035.792.45,1.4,1.2,1.4a1.325,1.325,0,0,0,1-.5l.4.469a1.923,1.923,0,0,1-1.467.674c-1.18,0-1.918-.945-1.918-2.286C19.773,127.9,20.457,126.88,21.592,126.88Zm-1.036,1.981H22.6c-.009-.6-.279-1.341-1.018-1.341C20.863,127.52,20.583,128.275,20.556,128.861Z" transform="translate(0 -2.18)"/>
      <path d="M25.273,126.926a.54.54,0,1,1-.55.539A.547.547,0,0,1,25.273,126.926Zm0,3.42a.54.54,0,1,1-.55.541A.548.548,0,0,1,25.273,130.346Z" transform="translate(0 -2.18)"/>
      <path d="M30.879,128.24a1.57,1.57,0,0,1-1.09-1.459,1.589,1.589,0,0,1,1.783-1.539,1.54,1.54,0,0,1,.675,3,1.809,1.809,0,0,1,1.189,1.6,1.644,1.644,0,0,1-1.864,1.6c-1.1,0-1.873-.594-1.873-1.6A1.8,1.8,0,0,1,30.879,128.24Zm.693.351a1.278,1.278,0,0,0-1.008,1.143,1.006,1.006,0,0,0,2.008,0A1.291,1.291,0,0,0,31.572,128.591Zm0-2.584a.854.854,0,0,0-.927.9c0,.675.693.954.927,1.017.225-.063.918-.342.918-1.017A.855.855,0,0,0,31.572,126.007Z" transform="translate(0 -2.18)"/>
      <path d="M36.685,125.242c1.422,0,1.944,1.494,1.944,3.1s-.513,3.106-1.944,3.106-1.954-1.5-1.954-3.106S35.253,125.242,36.685,125.242Zm0,.765c-.864,0-1.08,1.152-1.08,2.331s.216,2.342,1.08,2.342,1.071-1.171,1.071-2.342S37.54,126.007,36.685,126.007Z" transform="translate(0 -2.18)"/>
      <path d="M41.1,126.447l-.928.983-.5-.532,1.53-1.566h.747v6H41.1Z" transform="translate(0 -2.18)"/>
      <path d="M44.163,130.346a.54.54,0,1,1-.549.541A.548.548,0,0,1,44.163,130.346Z" transform="translate(0 -2.18)"/>
      <path d="M48.1,125.242c1.422,0,1.944,1.494,1.944,3.1s-.512,3.106-1.944,3.106-1.954-1.5-1.954-3.106S46.664,125.242,48.1,125.242Zm0,.765c-.864,0-1.08,1.152-1.08,2.331s.216,2.342,1.08,2.342,1.071-1.171,1.071-2.342S48.951,126.007,48.1,126.007Z" transform="translate(0 -2.18)"/>
      <path d="M53.307,125.242c1.422,0,1.944,1.494,1.944,3.1s-.512,3.106-1.944,3.106-1.954-1.5-1.954-3.106S51.875,125.242,53.307,125.242Zm0,.765c-.864,0-1.08,1.152-1.08,2.331s.216,2.342,1.08,2.342,1.071-1.171,1.071-2.342S54.162,126.007,53.307,126.007Z" transform="translate(0 -2.18)"/>
      <path d="M58.518,125.242c1.422,0,1.944,1.494,1.944,3.1s-.513,3.106-1.944,3.106-1.954-1.5-1.954-3.106S57.086,125.242,58.518,125.242Zm0,.765c-.864,0-1.08,1.152-1.08,2.331s.216,2.342,1.08,2.342,1.071-1.171,1.071-2.342S59.373,126.007,58.518,126.007Z" transform="translate(0 -2.18)"/>
      <path d="M65.754,129.445l-.567.748v1.143h-.774v-6h.774v3.906l1.666-2.25h.909l-1.477,1.953,1.486,2.4h-.909Z" transform="translate(0 -2.18)"/>
      <path d="M71.56,126.809l-.918,4.527h-.9l-1.35-6h.918l.928,4.689.971-4.689h.7l.982,4.689.919-4.689h.918l-1.342,6h-.909Z" transform="translate(0 -2.18)"/>
      <path d="M78.327,128.293c0-.539-.253-.729-.657-.729a1.18,1.18,0,0,0-.955.649v3.123h-.773v-6h.773v2.26a1.63,1.63,0,0,1,1.27-.712c.756,0,1.116.388,1.116,1.171v3.285h-.774Z" transform="translate(0 -2.18)"/>
      <path d="M.6,136.332h.854v6H.6Z" transform="translate(0 -2.18)"/>
      <path d="M5.545,139.312c0-.55-.253-.748-.657-.748a1.166,1.166,0,0,0-.955.649v3.123H3.159v-4.348h.774v.6a1.612,1.612,0,0,1,1.261-.712c.755,0,1.116.415,1.116,1.18v3.276H5.545Z" transform="translate(0 -2.18)"/>
      <path d="M8.127,141.418v-2.754H7.551v-.676h.576V136.8h.766v1.188h.729v.676H8.893v2.6c0,.305.107.494.342.494a.5.5,0,0,0,.369-.153l.2.577a1,1,0,0,1-.738.26C8.424,142.444,8.127,142.094,8.127,141.418Z" transform="translate(0 -2.18)"/>
      <path d="M12.574,137.88c1.162,0,1.764,1.017,1.764,2.305v.225h-2.79c.035.792.45,1.4,1.2,1.4a1.323,1.323,0,0,0,1-.5l.4.469a1.925,1.925,0,0,1-1.468.674c-1.18,0-1.918-.945-1.918-2.286C10.755,138.9,11.44,137.88,12.574,137.88Zm-1.036,1.981h2.044c-.008-.6-.279-1.341-1.017-1.341C11.845,138.52,11.566,139.275,11.538,139.861Z" transform="translate(0 -2.18)"/>
      <path d="M15.75,137.988h.774v.666a1.461,1.461,0,0,1,1.216-.765v.783a.921.921,0,0,0-.226-.026,1.253,1.253,0,0,0-.99.657v3.033H15.75Z" transform="translate(0 -2.18)"/>
      <path d="M18.459,137.988h.828l1.018,3.43,1.035-3.43h.819l-1.431,4.348h-.837Z" transform="translate(0 -2.18)"/>
      <path d="M25.533,141.887a1.4,1.4,0,0,1-1.143.557A1.337,1.337,0,0,1,23.067,141a1.314,1.314,0,0,1,1.323-1.423,1.363,1.363,0,0,1,1.143.541v-.693a.792.792,0,0,0-.864-.883,1.475,1.475,0,0,0-1.089.514l-.315-.541a2.087,2.087,0,0,1,1.53-.63,1.332,1.332,0,0,1,1.513,1.45v3.006h-.775Zm0-1.242a.992.992,0,0,0-.873-.524.9.9,0,0,0,0,1.783.993.993,0,0,0,.873-.521Z" transform="translate(0 -2.18)"/>
      <path d="M27.963,136.332h.774v6h-.774Z" transform="translate(0 -2.18)"/>
      <path d="M32.905,136.332h.854v4.033c0,.864.424,1.323,1.152,1.323s1.153-.459,1.153-1.323v-4.033h.855v4.023a2.009,2.009,0,1,1-4.014,0Z" transform="translate(0 -2.18)"/>
      <path d="M38.637,141.283a1.6,1.6,0,0,0,1.161.54c.478,0,.775-.233.775-.6,0-.414-.406-.595-.865-.776-.6-.224-1.3-.486-1.3-1.359a1.272,1.272,0,0,1,1.441-1.206,1.88,1.88,0,0,1,1.377.558l-.342.531a1.3,1.3,0,0,0-1.026-.467c-.433,0-.721.225-.721.539,0,.369.388.531.828.711.612.226,1.342.5,1.342,1.424a1.327,1.327,0,0,1-1.5,1.268,1.973,1.973,0,0,1-1.53-.612Z" transform="translate(0 -2.18)"/>
      <path d="M44.947,141.887a1.4,1.4,0,0,1-1.144.557A1.337,1.337,0,0,1,42.48,141a1.314,1.314,0,0,1,1.323-1.423,1.366,1.366,0,0,1,1.144.541v-.693a.792.792,0,0,0-.865-.883,1.475,1.475,0,0,0-1.089.514l-.315-.541a2.087,2.087,0,0,1,1.53-.63,1.332,1.332,0,0,1,1.513,1.45v3.006h-.774Zm0-1.242a.994.994,0,0,0-.873-.524.9.9,0,0,0,0,1.783,1,1,0,0,0,.873-.521Z" transform="translate(0 -2.18)"/>
      <path d="M47.682,142.949a1.407,1.407,0,0,0,1.125.494,1,1,0,0,0,1.054-1.133v-.667a1.344,1.344,0,0,1-1.125.72c-.973,0-1.577-.855-1.577-2.242,0-1.359.595-2.241,1.577-2.241a1.3,1.3,0,0,1,1.125.712v-.6h.774v4.268a1.639,1.639,0,0,1-1.8,1.846,1.984,1.984,0,0,1-1.494-.55Zm2.179-3.727a1.089,1.089,0,0,0-.91-.658c-.666,0-.99.676-.99,1.557s.324,1.559.99,1.559a1.088,1.088,0,0,0,.91-.659Z" transform="translate(0 -2.18)"/>
      <path d="M53.893,137.88c1.161,0,1.764,1.017,1.764,2.305v.225H52.866c.036.792.451,1.4,1.2,1.4a1.327,1.327,0,0,0,1-.5l.4.469a1.925,1.925,0,0,1-1.468.674c-1.179,0-1.917-.945-1.917-2.286C52.074,138.9,52.758,137.88,53.893,137.88Zm-1.036,1.981H54.9c-.009-.6-.28-1.341-1.018-1.341C53.163,138.52,52.884,139.275,52.857,139.861Z" transform="translate(0 -2.18)"/>
      <path d="M57.573,137.926a.54.54,0,1,1-.55.539A.547.547,0,0,1,57.573,137.926Zm0,3.42a.54.54,0,1,1-.55.541A.548.548,0,0,1,57.573,141.346Z" transform="translate(0 -2.18)"/>
      <path d="M63.18,139.24a1.57,1.57,0,0,1-1.09-1.459,1.795,1.795,0,1,1,2.458,1.459,1.809,1.809,0,0,1,1.189,1.6,1.645,1.645,0,0,1-1.865,1.6c-1.1,0-1.872-.594-1.872-1.6A1.8,1.8,0,0,1,63.18,139.24Zm.692.351a1.279,1.279,0,0,0-1.007,1.143,1.005,1.005,0,0,0,2.007,0A1.291,1.291,0,0,0,63.872,139.591Zm0-2.584a.853.853,0,0,0-.926.9c0,.675.693.954.926,1.017.226-.063.919-.342.919-1.017A.856.856,0,0,0,63.872,137.007Z" transform="translate(0 -2.18)"/>
      <path d="M68.985,136.242c1.422,0,1.944,1.494,1.944,3.1s-.513,3.106-1.944,3.106-1.954-1.5-1.954-3.106S67.553,136.242,68.985,136.242Zm0,.765c-.865,0-1.08,1.152-1.08,2.331s.215,2.342,1.08,2.342,1.071-1.171,1.071-2.342S69.84,137.007,68.985,137.007Z" transform="translate(0 -2.18)"/>
      <path d="M73.4,137.447l-.928.983-.5-.532,1.53-1.566h.747v6H73.4Z" transform="translate(0 -2.18)"/>
      <path d="M76.463,141.346a.54.54,0,1,1-.55.541A.548.548,0,0,1,76.463,141.346Z" transform="translate(0 -2.18)"/>
      <path d="M78.506,141.643c2.034-2.223,2.647-2.881,2.647-3.709a.886.886,0,0,0-.918-.927,1.452,1.452,0,0,0-1.27.729l-.54-.522a2.109,2.109,0,0,1,1.818-.972,1.658,1.658,0,0,1,1.783,1.692c0,.972-.72,1.837-2.278,3.646h2.3v.756H78.506Z" transform="translate(0 -2.18)"/>
      <path d="M84.626,139.24a1.57,1.57,0,0,1-1.09-1.459,1.795,1.795,0,1,1,2.458,1.459,1.809,1.809,0,0,1,1.189,1.6,1.644,1.644,0,0,1-1.864,1.6c-1.1,0-1.872-.594-1.872-1.6A1.8,1.8,0,0,1,84.626,139.24Zm.693.351a1.278,1.278,0,0,0-1.008,1.143,1.006,1.006,0,0,0,2.008,0A1.291,1.291,0,0,0,85.319,139.591Zm0-2.584a.854.854,0,0,0-.927.9c0,.675.693.954.927,1.017.225-.063.919-.342.919-1.017A.856.856,0,0,0,85.319,137.007Z" transform="translate(0 -2.18)"/>
      <path d="M90.684,140.869H88.289v-.729l2.152-3.808h1.1v3.781h.639v.756h-.639v1.467h-.855Zm-1.611-.756h1.611V137.24Z" transform="translate(0 -2.18)"/>
      <path d="M97.289,140.445l-.567.748v1.143h-.773v-6h.773v3.906l1.666-2.25H99.3l-1.476,1.953,1.485,2.4H98.4Z" transform="translate(0 -2.18)"/>
      <path d="M103.1,137.809l-.918,4.527h-.9l-1.351-6h.918l.928,4.689.971-4.689h.7l.981,4.689.919-4.689h.918l-1.342,6h-.909Z" transform="translate(0 -2.18)"/>
      <path d="M109.863,139.293c0-.539-.253-.729-.658-.729a1.18,1.18,0,0,0-.955.649v3.123h-.773v-6h.773v2.26a1.631,1.631,0,0,1,1.27-.712c.757,0,1.116.388,1.116,1.171v3.285h-.773Z" transform="translate(0 -2.18)"/>
    </g>
    <line y1="40.714" x2="131.556" y2="40.714" fill="none" stroke="#328aca" stroke-miterlimit="10"/>
  </g>
</svg>
