<svg xmlns="http://www.w3.org/2000/svg" width="542.511" height="69.298" viewBox="0 0 542.511 69.298">
  <g>
    <rect width="542.511" height="69.298" fill="#fff"/>
    <g>
      <path d="M3.74,7.091v4.478H2.32V4.9H3.78L6.868,9.22V4.9H8.287v6.666H6.918Z" fill="#0b79bf"/>
      <path d="M10.36,4.9h4.718V6.122h-3.3V7.571h3.228V8.79H11.78v1.549h3.3v1.23H10.36Z" fill="#0b79bf"/>
      <path d="M20.869,6.991l-1.16,4.578H18.2L16.291,4.9H17.88L19.05,9.72,20.319,4.9h1.11L22.687,9.72,23.846,4.9h1.6l-1.9,6.666H22.038Z" fill="#0b79bf"/>
      <path d="M27.19,9.55a2.925,2.925,0,0,0,2.119.9c.78,0,1.16-.37,1.16-.75,0-.5-.581-.668-1.35-.849C28.03,8.6,26.631,8.3,26.631,6.812c0-1.11.959-2.009,2.528-2.009a3.707,3.707,0,0,1,2.6.929l-.789,1.04a2.845,2.845,0,0,0-1.91-.73c-.639,0-.979.28-.979.68,0,.449.559.589,1.329.769,1.1.249,2.5.58,2.5,2.059,0,1.219-.87,2.139-2.669,2.139a3.838,3.838,0,0,1-2.828-1.06Z" fill="#0b79bf"/>
      <path d="M41.178,10.419H38.2l-.42,1.15H36.221L38.8,4.9h1.779l2.568,6.666H41.6Zm-2.6-1.229h2.209l-1.1-3.058Z" fill="#0b79bf"/>
      <path d="M45.939,7.091v4.478h-1.42V4.9h1.46L49.067,9.22V4.9h1.419v6.666H49.117Z" fill="#0b79bf"/>
      <path d="M52.559,4.9h2.629A3.266,3.266,0,0,1,58.726,8.24a3.259,3.259,0,0,1-3.538,3.329H52.559Zm2.629,5.417a2,2,0,0,0,2.089-2.08,1.951,1.951,0,0,0-2.089-2.088H53.979V10.32Z" fill="#0b79bf"/>
      <path d="M63.8,4.9h1.42v6.666H63.8Z" fill="#0b79bf"/>
      <path d="M68.709,7.091v4.478h-1.42V4.9h1.46L71.837,9.22V4.9h1.419v6.666H71.887Z" fill="#0b79bf"/>
      <path d="M75.329,4.9h4.718V6.122h-3.3V7.571h3.227V8.79H76.749v2.779h-1.42Z" fill="#0b79bf"/>
      <path d="M84.948,4.792A3.349,3.349,0,0,1,88.435,8.24a3.483,3.483,0,0,1-6.965,0A3.347,3.347,0,0,1,84.948,4.792Zm0,1.26A2.016,2.016,0,0,0,82.929,8.24a2.03,2.03,0,1,0,4.047,0A2.023,2.023,0,0,0,84.948,6.052Z" fill="#0b79bf"/>
      <path d="M92.648,9.18H91.609v2.389h-1.42V4.9h3.119a2.076,2.076,0,0,1,2.239,2.148,1.914,1.914,0,0,1-1.459,1.98l1.5,2.538H93.958Zm.45-3.058H91.609V7.961H93.1a.923.923,0,1,0,0-1.839Z" fill="#0b79bf"/>
      <path d="M103.166,6.772l-1.879,4.8h-.619l-1.879-4.8v4.8h-1.42V4.9h1.989l1.619,4.157L102.6,4.9h2v6.666h-1.43Z" fill="#0b79bf"/>
      <path d="M110.917,10.419h-2.979l-.42,1.15H105.96L108.538,4.9h1.779l2.569,6.666h-1.549Zm-2.6-1.229h2.209l-1.1-3.058Z" fill="#0b79bf"/>
      <path d="M115.159,6.152H113.21V4.9h5.317V6.152h-1.939v5.417h-1.429Z" fill="#0b79bf"/>
      <path d="M120.189,4.9h1.42v6.666h-1.42Z" fill="#0b79bf"/>
      <path d="M126.838,4.792a3.35,3.35,0,0,1,3.487,3.448,3.483,3.483,0,0,1-6.966,0A3.348,3.348,0,0,1,126.838,4.792Zm0,1.26a2.016,2.016,0,0,0-2.02,2.188,2.03,2.03,0,1,0,4.048,0A2.023,2.023,0,0,0,126.838,6.052Z" fill="#0b79bf"/>
      <path d="M133.5,7.091v4.478h-1.42V4.9h1.46l3.088,4.317V4.9h1.419v6.666h-1.369Z" fill="#0b79bf"/>
    </g>
    <g>
      <path d="M5.149,23.82H3.209l-.238.708H1.661l1.758-4.671H4.931L6.7,24.528H5.387ZM3.524,22.8h1.31l-.658-1.9Z"/>
      <path d="M7.107,19.857h1.2v3.62h1.877v1.051H7.107Z"/>
      <path d="M10.88,19.857H14.3v1.015H12.085v.778h2.171v1.021H12.085v.841H14.3v1.016H10.88Z"/>
      <path d="M16.894,22.945h-.616v1.583h-1.2V19.857h2.34a1.5,1.5,0,0,1,1.625,1.554,1.417,1.417,0,0,1-.932,1.4l.952,1.716H17.679Zm.336-2.073h-.952v1.05h.952a.528.528,0,1,0,0-1.05Z"/>
      <path d="M20.744,20.906h-1.31V19.857h3.817v1.049h-1.3v3.622h-1.2Z"/>
      <path d="M25.545,22.377h1.68v.9h-1.68Z"/>
      <path d="M29.787,19.857h2.647A1.227,1.227,0,0,1,33.8,21.046a1.043,1.043,0,0,1-.8,1.072,1.119,1.119,0,0,1,.889,1.142,1.243,1.243,0,0,1-1.373,1.268H29.787Zm2.375,1.806a.4.4,0,0,0,.413-.406.39.39,0,0,0-.413-.4h-1.17v.8Zm.042,1.864a.419.419,0,0,0,.462-.428.433.433,0,0,0-.462-.442H30.992v.87Z"/>
      <path d="M36.165,21.061a1.721,1.721,0,0,1,1.73,1.884v.231H35.486a.807.807,0,0,0,.861.6,1.344,1.344,0,0,0,.827-.288l.455.672a2.208,2.208,0,0,1-1.414.449,1.776,1.776,0,1,1-.05-3.551Zm-.694,1.415h1.394a.65.65,0,0,0-.7-.582A.669.669,0,0,0,35.471,22.476Z"/>
      <path d="M40.855,22.433l-.631,2.095H39.062l-1-3.383h1.107l.547,2.073.665-2.073h.959L42,23.218l.539-2.073h1.113l-1,3.383H41.492Z"/>
      <path d="M46.07,24.192a1.4,1.4,0,0,1-1.051.42A1.118,1.118,0,0,1,43.856,23.5a1.044,1.044,0,0,1,1.163-1.064,1.352,1.352,0,0,1,1.051.392V22.4c0-.294-.253-.492-.686-.492a1.512,1.512,0,0,0-.96.358l-.385-.679a2.377,2.377,0,0,1,1.533-.525c.813,0,1.576.3,1.576,1.351v2.116H46.07Zm0-.833a.766.766,0,0,0-.6-.239c-.288,0-.539.125-.539.392s.251.392.539.392a.75.75,0,0,0,.6-.245Z"/>
      <path d="M48,21.145h1.078v.427a1.476,1.476,0,0,1,1.058-.511v1.044a.847.847,0,0,0-.266-.035,1.082,1.082,0,0,0-.792.314v2.144H48Z"/>
      <path d="M52.271,21.061A1.722,1.722,0,0,1,54,22.945v.231H51.593a.806.806,0,0,0,.861.6,1.339,1.339,0,0,0,.826-.288l.455.672a2.207,2.207,0,0,1-1.415.449,1.776,1.776,0,1,1-.049-3.551Zm-.693,1.415h1.393a.649.649,0,0,0-.7-.582A.669.669,0,0,0,51.578,22.476Z"/>
      <path d="M56.239,22.833a1.847,1.847,0,1,1,1.842,1.779A1.744,1.744,0,0,1,56.239,22.833Zm2.585,0a.741.741,0,1,0-.743.826A.747.747,0,0,0,58.824,22.833Z"/>
      <path d="M60.8,22.083h-.56v-.938h.56v-.168a1.145,1.145,0,0,1,1.212-1.191,1.534,1.534,0,0,1,.714.155l-.2.734a.554.554,0,0,0-.28-.069.353.353,0,0,0-.371.4v.14h.686v.938h-.686v2.445H60.8Z"/>
      <path d="M64.941,25.816V21.145h1.078v.391a1.264,1.264,0,0,1,1-.475c.847,0,1.485.63,1.485,1.772s-.638,1.779-1.485,1.779a1.259,1.259,0,0,1-1-.484v1.688Zm1.723-3.8a.863.863,0,0,0-.645.309v1.029a.883.883,0,0,0,.645.308.827.827,0,0,0,0-1.646Z"/>
      <path d="M71.437,22.56c0-.414-.216-.547-.56-.547a.833.833,0,0,0-.652.33v2.185H69.147V19.857h1.078v1.7a1.532,1.532,0,0,1,1.17-.5.987.987,0,0,1,1.12,1.057v2.41H71.437Z"/>
      <path d="M73.144,22.833a1.847,1.847,0,1,1,1.842,1.779A1.744,1.744,0,0,1,73.144,22.833Zm2.585,0a.74.74,0,1,0-.743.826A.746.746,0,0,0,75.729,22.833Z"/>
      <path d="M79.761,22.573a.489.489,0,0,0-.554-.56.835.835,0,0,0-.658.33v2.185H77.471V21.145h1.078v.413a1.529,1.529,0,0,1,1.17-.5,1,1,0,0,1,1.12,1.071v2.4H79.761Z"/>
      <path d="M83.266,21.061A1.722,1.722,0,0,1,85,22.945v.231H82.588a.806.806,0,0,0,.861.6,1.339,1.339,0,0,0,.826-.288l.455.672a2.206,2.206,0,0,1-1.414.449,1.776,1.776,0,1,1-.05-3.551Zm-.693,1.415h1.394a.652.652,0,0,0-.7-.582A.669.669,0,0,0,82.573,22.476Z"/>
      <path d="M87.621,23.351a2.108,2.108,0,0,0,1.19.448c.323,0,.455-.1.455-.252,0-.175-.231-.238-.581-.294-.574-.1-1.386-.217-1.386-1.079,0-.595.51-1.113,1.449-1.113a2.384,2.384,0,0,1,1.415.448l-.413.715a1.509,1.509,0,0,0-1-.371c-.252,0-.427.084-.427.23s.182.21.539.274c.574.1,1.429.238,1.429,1.134,0,.645-.568,1.121-1.541,1.121a2.519,2.519,0,0,1-1.582-.519Z"/>
      <path d="M95.182,22.468a.407.407,0,0,0-.448-.455.78.78,0,0,0-.609.33v2.185H93.047v-2.06a.4.4,0,0,0-.449-.455.789.789,0,0,0-.6.33v2.185H90.918V21.145H92v.413a1.5,1.5,0,0,1,1.113-.5.918.918,0,0,1,.96.6,1.454,1.454,0,0,1,1.17-.6.913.913,0,0,1,1.016,1.015v2.452H95.182Z"/>
      <path d="M99.108,24.192a1.4,1.4,0,0,1-1.051.42A1.118,1.118,0,0,1,96.894,23.5a1.044,1.044,0,0,1,1.163-1.064,1.352,1.352,0,0,1,1.051.392V22.4c0-.294-.253-.492-.686-.492a1.512,1.512,0,0,0-.96.358l-.385-.679a2.381,2.381,0,0,1,1.533-.525c.813,0,1.576.3,1.576,1.351v2.116H99.108Zm0-.833a.766.766,0,0,0-.6-.239c-.287,0-.539.125-.539.392s.252.392.539.392a.75.75,0,0,0,.6-.245Z"/>
      <path d="M101.04,19.857h1.078v4.671H101.04Z"/>
      <path d="M102.971,19.857h1.079v4.671h-1.079Z"/>
      <path d="M108.341,21.061a1.721,1.721,0,0,1,1.73,1.884v.231h-2.409a.806.806,0,0,0,.861.6,1.339,1.339,0,0,0,.826-.288l.455.672a2.2,2.2,0,0,1-1.414.449,1.776,1.776,0,1,1-.049-3.551Zm-.694,1.415h1.394a.65.65,0,0,0-.7-.582A.669.669,0,0,0,107.647,22.476Z"/>
      <path d="M114.935,22.468a.407.407,0,0,0-.448-.455.78.78,0,0,0-.609.33v2.185H112.8v-2.06a.4.4,0,0,0-.449-.455.789.789,0,0,0-.6.33v2.185h-1.078V21.145h1.078v.413a1.5,1.5,0,0,1,1.113-.5.918.918,0,0,1,.96.6,1.454,1.454,0,0,1,1.17-.6.913.913,0,0,1,1.016,1.015v2.452h-1.073Z"/>
      <path d="M118.862,24.192a1.4,1.4,0,0,1-1.051.42,1.118,1.118,0,0,1-1.163-1.115,1.044,1.044,0,0,1,1.163-1.064,1.352,1.352,0,0,1,1.051.392V22.4c0-.294-.253-.492-.686-.492a1.512,1.512,0,0,0-.96.358l-.385-.679a2.377,2.377,0,0,1,1.533-.525c.813,0,1.576.3,1.576,1.351v2.116h-1.078Zm0-.833a.766.766,0,0,0-.6-.239c-.288,0-.539.125-.539.392s.251.392.539.392a.75.75,0,0,0,.6-.245Z"/>
      <path d="M120.716,20.1a.616.616,0,1,1,.616.617A.612.612,0,0,1,120.716,20.1Zm.077,1.044h1.078v3.383h-1.078Z"/>
      <path d="M122.725,19.857H123.8v4.671h-1.079Z"/>
      <path d="M126.68,23.351a2.109,2.109,0,0,0,1.191.448c.322,0,.455-.1.455-.252,0-.175-.231-.238-.581-.294-.574-.1-1.387-.217-1.387-1.079,0-.595.511-1.113,1.449-1.113a2.382,2.382,0,0,1,1.415.448l-.413.715a1.507,1.507,0,0,0-1-.371c-.252,0-.427.084-.427.23s.182.21.54.274c.574.1,1.428.238,1.428,1.134,0,.645-.567,1.121-1.541,1.121a2.524,2.524,0,0,1-1.582-.519Z"/>
      <path d="M131.6,21.061a1.623,1.623,0,0,1,1.388.623l-.7.651a.741.741,0,0,0-.637-.322.823.823,0,1,0,.637,1.316l.7.66a1.644,1.644,0,0,1-1.388.623,1.777,1.777,0,1,1,0-3.551Z"/>
      <path d="M135.543,24.192a1.4,1.4,0,0,1-1.051.42,1.118,1.118,0,0,1-1.163-1.115,1.043,1.043,0,0,1,1.163-1.064,1.353,1.353,0,0,1,1.051.392V22.4c0-.294-.253-.492-.687-.492a1.514,1.514,0,0,0-.96.358l-.384-.679a2.377,2.377,0,0,1,1.533-.525c.812,0,1.576.3,1.576,1.351v2.116h-1.078Zm0-.833a.769.769,0,0,0-.6-.239c-.287,0-.539.125-.539.392s.252.392.539.392a.752.752,0,0,0,.6-.245Z"/>
      <path d="M141.738,22.468a.407.407,0,0,0-.448-.455.783.783,0,0,0-.61.33v2.185H139.6v-2.06a.4.4,0,0,0-.448-.455.789.789,0,0,0-.6.33v2.185h-1.079V21.145h1.079v.413a1.5,1.5,0,0,1,1.113-.5.918.918,0,0,1,.96.6,1.453,1.453,0,0,1,1.17-.6.912.912,0,0,1,1.015,1.015v2.452h-1.072Z"/>
      <path d="M143.83,23.351a2.108,2.108,0,0,0,1.19.448c.323,0,.455-.1.455-.252,0-.175-.231-.238-.581-.294-.574-.1-1.386-.217-1.386-1.079,0-.595.51-1.113,1.449-1.113a2.384,2.384,0,0,1,1.415.448l-.413.715a1.509,1.509,0,0,0-1-.371c-.252,0-.427.084-.427.23s.182.21.539.274c.574.1,1.429.238,1.429,1.134,0,.645-.568,1.121-1.541,1.121a2.519,2.519,0,0,1-1.582-.519Z"/>
      <path d="M148.989,21.145h1.078v.427a1.478,1.478,0,0,1,1.058-.511v1.044a.842.842,0,0,0-.266-.035,1.082,1.082,0,0,0-.792.314v2.144h-1.078Z"/>
      <path d="M153.259,21.061a1.721,1.721,0,0,1,1.73,1.884v.231H152.58a.806.806,0,0,0,.861.6,1.339,1.339,0,0,0,.826-.288l.455.672a2.2,2.2,0,0,1-1.414.449,1.776,1.776,0,1,1-.049-3.551Zm-.694,1.415h1.394a.65.65,0,0,0-.7-.582A.669.669,0,0,0,152.565,22.476Z"/>
      <path d="M155.968,24.626a1.364,1.364,0,0,0,1.029.392.763.763,0,0,0,.861-.778v-.258a1.278,1.278,0,0,1-1,.49,1.5,1.5,0,0,1-1.492-1.709,1.5,1.5,0,0,1,1.492-1.7,1.245,1.245,0,0,1,1,.483v-.4h1.072v3.081c0,1.381-1.092,1.674-1.933,1.674a2.236,2.236,0,0,1-1.5-.5Zm1.89-2.312a.866.866,0,0,0-.643-.3.753.753,0,0,0,0,1.506.866.866,0,0,0,.643-.3Z"/>
      <path d="M161.786,24.192a1.4,1.4,0,0,1-1.051.42,1.118,1.118,0,0,1-1.163-1.115,1.044,1.044,0,0,1,1.163-1.064,1.353,1.353,0,0,1,1.051.392V22.4c0-.294-.253-.492-.687-.492a1.514,1.514,0,0,0-.96.358l-.384-.679a2.377,2.377,0,0,1,1.533-.525c.812,0,1.576.3,1.576,1.351v2.116h-1.078Zm0-.833a.767.767,0,0,0-.6-.239c-.287,0-.539.125-.539.392s.252.392.539.392a.751.751,0,0,0,.6-.245Z"/>
      <path d="M163.717,21.145H164.8v.427a1.474,1.474,0,0,1,1.057-.511v1.044a.84.84,0,0,0-.265-.035,1.079,1.079,0,0,0-.792.314v2.144h-1.078Z"/>
      <path d="M168.687,24.136a1.29,1.29,0,0,1-1,.476c-.834,0-1.5-.63-1.5-1.779a1.566,1.566,0,0,1,1.5-1.772,1.255,1.255,0,0,1,1,.483V19.857h1.073v4.671h-1.073Zm0-1.822a.879.879,0,0,0-.65-.3.827.827,0,0,0,0,1.646.889.889,0,0,0,.65-.308Z"/>
      <path d="M170.542,20.1a.616.616,0,1,1,.616.617A.612.612,0,0,1,170.542,20.1Zm.077,1.044H171.7v3.383h-1.078Z"/>
      <path d="M174.841,22.573a.489.489,0,0,0-.554-.56.835.835,0,0,0-.658.33v2.185h-1.078V21.145h1.078v.413a1.529,1.529,0,0,1,1.17-.5,1,1,0,0,1,1.12,1.071v2.4h-1.078Z"/>
      <path d="M177.149,24.626a1.368,1.368,0,0,0,1.03.392.763.763,0,0,0,.861-.778v-.258a1.278,1.278,0,0,1-1,.49,1.5,1.5,0,0,1-1.492-1.709,1.5,1.5,0,0,1,1.492-1.7,1.246,1.246,0,0,1,1,.483v-.4h1.072v3.081c0,1.381-1.093,1.674-1.933,1.674a2.239,2.239,0,0,1-1.5-.5Zm1.891-2.312a.866.866,0,0,0-.644-.3.753.753,0,0,0,0,1.506.866.866,0,0,0,.644-.3Z"/>
      <path d="M4.414,33.121a1.539,1.539,0,0,1-1.17.491.982.982,0,0,1-1.113-1.058V30.145H3.209v1.968c0,.406.21.546.56.546a.807.807,0,0,0,.645-.33V30.145H5.492v3.383H4.414Z"/>
      <path d="M6.568,32.616V31.083h-.56v-.938h.56V29.22H7.639v.925h.687v.938H7.639v1.233a.307.307,0,0,0,.3.343.43.43,0,0,0,.274-.084l.21.813a1.187,1.187,0,0,1-.8.224C6.939,33.612,6.568,33.269,6.568,32.616Z"/>
      <path d="M8.857,29.1a.617.617,0,1,1,.616.617A.612.612,0,0,1,8.857,29.1Zm.077,1.044h1.078v3.383H8.934Z"/>
      <path d="M10.866,28.857h1.078v4.671H10.866Z"/>
      <path d="M12.721,29.1a.617.617,0,1,1,.617.617A.613.613,0,0,1,12.721,29.1Zm.078,1.044h1.078v3.383H12.8Z"/>
      <path d="M14.954,32.616V31.083h-.561v-.938h.561V29.22h1.071v.925h.687v.938h-.687v1.233a.307.307,0,0,0,.3.343.425.425,0,0,0,.273-.084l.21.813a1.182,1.182,0,0,1-.8.224C15.325,33.612,14.954,33.269,14.954,32.616Z"/>
      <path d="M17.67,33.948c.245,0,.4-.049.455-.189l.077-.183-1.345-3.431h1.135l.764,2.143.77-2.143h1.142L19.14,34.011a1.339,1.339,0,0,1-1.428.889,2.252,2.252,0,0,1-.462-.055l.154-.96A.594.594,0,0,0,17.67,33.948Z"/>
      <path d="M22.92,34.816V30.145H24v.391a1.261,1.261,0,0,1,1-.475c.846,0,1.484.63,1.484,1.772S25.846,33.612,25,33.612a1.257,1.257,0,0,1-1-.484v1.688Zm1.722-3.8a.862.862,0,0,0-.644.309v1.029a.882.882,0,0,0,.644.308.827.827,0,0,0,0-1.646Z"/>
      <path d="M29.116,33.192a1.4,1.4,0,0,1-1.051.42A1.118,1.118,0,0,1,26.9,32.5a1.044,1.044,0,0,1,1.163-1.064,1.353,1.353,0,0,1,1.051.392V31.4c0-.294-.253-.492-.687-.492a1.511,1.511,0,0,0-.959.358l-.385-.679a2.377,2.377,0,0,1,1.533-.525c.812,0,1.576.3,1.576,1.351v2.116H29.116Zm0-.833a.767.767,0,0,0-.6-.239c-.287,0-.539.125-.539.392s.252.392.539.392a.751.751,0,0,0,.6-.245Z"/>
      <path d="M31.4,33.948c.245,0,.4-.049.455-.189l.078-.183-1.345-3.431h1.135l.763,2.143.771-2.143h1.141l-1.527,3.866a1.34,1.34,0,0,1-1.429.889,2.268,2.268,0,0,1-.462-.055l.155-.96A.59.59,0,0,0,31.4,33.948Z"/>
      <path d="M39.05,31.468a.407.407,0,0,0-.449-.455.78.78,0,0,0-.609.33v2.185H36.914v-2.06a.4.4,0,0,0-.448-.455.791.791,0,0,0-.6.33v2.185H34.785V30.145h1.078v.413a1.505,1.505,0,0,1,1.113-.5.917.917,0,0,1,.96.6,1.456,1.456,0,0,1,1.17-.6.913.913,0,0,1,1.016,1.015v2.452H39.05Z"/>
      <path d="M42.555,30.061a1.722,1.722,0,0,1,1.731,1.884v.231H41.877a.806.806,0,0,0,.861.6,1.339,1.339,0,0,0,.826-.288l.455.672a2.206,2.206,0,0,1-1.414.449,1.776,1.776,0,1,1-.05-3.551Zm-.693,1.415h1.394a.651.651,0,0,0-.7-.582A.669.669,0,0,0,41.862,31.476Z"/>
      <path d="M47.176,31.573a.489.489,0,0,0-.554-.56.835.835,0,0,0-.658.33v2.185H44.886V30.145h1.078v.413a1.529,1.529,0,0,1,1.17-.5,1,1,0,0,1,1.12,1.071v2.4H47.176Z"/>
      <path d="M49.331,32.616V31.083H48.77v-.938h.561V29.22H50.4v.925h.687v.938H50.4v1.233a.307.307,0,0,0,.3.343.425.425,0,0,0,.273-.084l.21.813a1.183,1.183,0,0,1-.8.224A.92.92,0,0,1,49.331,32.616Z"/>
      <path d="M51.858,32.351a2.109,2.109,0,0,0,1.191.448c.322,0,.455-.1.455-.252,0-.175-.232-.238-.581-.294-.575-.1-1.387-.217-1.387-1.079,0-.595.511-1.113,1.449-1.113a2.382,2.382,0,0,1,1.415.448l-.413.715a1.509,1.509,0,0,0-1-.371c-.252,0-.427.084-.427.23s.182.21.539.274c.575.1,1.429.238,1.429,1.134,0,.645-.567,1.121-1.541,1.121a2.519,2.519,0,0,1-1.582-.519Z"/>
      <path d="M55.7,30.1a.658.658,0,1,1-.658.658A.666.666,0,0,1,55.7,30.1Zm0,2.2a.659.659,0,1,1-.658.658A.666.666,0,0,1,55.7,32.3Z"/>
      <path d="M58.864,31.2a2.332,2.332,0,0,1,2.381-2.417,2.1,2.1,0,0,1,1.793.924l-.49.274a1.583,1.583,0,0,0-1.3-.68,1.9,1.9,0,0,0,0,3.8,1.563,1.563,0,0,0,1.3-.68l.5.274a2.122,2.122,0,0,1-1.8.925A2.332,2.332,0,0,1,58.864,31.2Z"/>
      <path d="M63.638,31.833a1.677,1.677,0,1,1,1.674,1.779A1.66,1.66,0,0,1,63.638,31.833Zm2.8,0a1.138,1.138,0,1,0-1.121,1.309A1.175,1.175,0,0,0,66.433,31.833Z"/>
      <path d="M70.191,31.314c0-.595-.3-.783-.757-.783a1.3,1.3,0,0,0-1,.525v2.472h-.525V30.145h.525v.49a1.681,1.681,0,0,1,1.2-.574.961.961,0,0,1,1.08,1.093v2.374h-.526Z"/>
      <path d="M71.813,32.7a1.534,1.534,0,0,0,1.115.485c.517,0,.8-.232.8-.561,0-.371-.413-.49-.868-.6-.574-.133-1.225-.287-1.225-.988,0-.525.455-.973,1.26-.973a1.712,1.712,0,0,1,1.254.49l-.245.364a1.319,1.319,0,0,0-1.009-.427c-.463,0-.75.21-.75.511,0,.329.386.434.828.539.587.133,1.267.3,1.267,1.051,0,.567-.455,1.023-1.331,1.023a1.8,1.8,0,0,1-1.365-.533Z"/>
      <path d="M77.443,33.052a1.658,1.658,0,0,1-1.2.56.952.952,0,0,1-1.078-1.08V30.145h.525v2.227c0,.595.3.77.756.77a1.3,1.3,0,0,0,1-.511V30.145h.526v3.383h-.526Z"/>
      <path d="M83.17,31.23c0-.427-.19-.7-.623-.7a1.182,1.182,0,0,0-.9.517v2.48h-.525v-2.3c0-.427-.183-.7-.623-.7a1.178,1.178,0,0,0-.89.525v2.472h-.525V30.145h.525v.49a1.459,1.459,0,0,1,1.093-.574.869.869,0,0,1,.91.63,1.425,1.425,0,0,1,1.135-.63c.616,0,.945.343.945,1.022v2.445H83.17Z"/>
      <path d="M86.284,30.061a1.643,1.643,0,0,1,1.625,1.813v.133H85.171a1.191,1.191,0,0,0,1.218,1.17,1.476,1.476,0,0,0,1.043-.427l.252.343a1.837,1.837,0,0,1-1.344.519,1.778,1.778,0,0,1-.056-3.551Zm-1.113,1.561H87.39A1.1,1.1,0,0,0,86.277,30.5,1.127,1.127,0,0,0,85.171,31.622Z"/>
      <path d="M88.824,30.145h.525v.546a1.434,1.434,0,0,1,1.127-.616v.54a.862.862,0,0,0-.21-.022,1.239,1.239,0,0,0-.917.539v2.4h-.525Z"/>
      <path d="M91.182,32.7a1.534,1.534,0,0,0,1.115.485c.517,0,.8-.232.8-.561,0-.371-.414-.49-.869-.6-.574-.133-1.225-.287-1.225-.988,0-.525.455-.973,1.261-.973a1.711,1.711,0,0,1,1.253.49l-.245.364a1.319,1.319,0,0,0-1.008-.427c-.463,0-.75.21-.75.511,0,.329.385.434.827.539.588.133,1.267.3,1.267,1.051,0,.567-.455,1.023-1.331,1.023a1.8,1.8,0,0,1-1.365-.533Z"/>
      <path d="M96.426,28.857h3.061v.517H97.008V30.88h2.429V31.4H97.008v1.61h2.479v.519H96.426Z"/>
      <path d="M102.741,31.314c0-.595-.3-.783-.757-.783a1.3,1.3,0,0,0-1,.525v2.472h-.525V30.145h.525v.49a1.677,1.677,0,0,1,1.2-.574.961.961,0,0,1,1.079,1.093v2.374h-.525Z"/>
      <path d="M105.855,30.061a1.642,1.642,0,0,1,1.625,1.813v.133h-2.738a1.191,1.191,0,0,0,1.219,1.17A1.478,1.478,0,0,0,107,32.75l.252.343a1.838,1.838,0,0,1-1.345.519,1.778,1.778,0,0,1-.056-3.551Zm-1.113,1.561h2.22a1.1,1.1,0,0,0-1.114-1.127A1.128,1.128,0,0,0,104.742,31.622Z"/>
      <path d="M108.4,30.145h.526v.546a1.433,1.433,0,0,1,1.127-.616v.54a.868.868,0,0,0-.21-.022,1.235,1.235,0,0,0-.917.539v2.4H108.4Z"/>
      <path d="M111.034,34a1.29,1.29,0,0,0,1.1.463.969.969,0,0,0,1.086-1.016v-.483a1.417,1.417,0,0,1-1.135.6,1.54,1.54,0,0,1-1.506-1.751c0-1.085.616-1.758,1.506-1.758a1.4,1.4,0,0,1,1.135.595v-.511h.525v3.284c0,1.121-.784,1.471-1.611,1.471a1.73,1.73,0,0,1-1.366-.5Zm2.186-2.927a1.248,1.248,0,0,0-1.009-.545c-.68,0-1.086.539-1.086,1.288s.406,1.288,1.086,1.288a1.252,1.252,0,0,0,1.009-.553Z"/>
      <path d="M115.045,34.431a.487.487,0,0,0,.5-.358l.223-.51-1.414-3.418h.567l1.128,2.773,1.121-2.773h.574l-1.695,4.069a1,1,0,0,1-1,.686,1.7,1.7,0,0,1-.385-.049l.084-.476A.828.828,0,0,0,115.045,34.431Z"/>
      <path d="M122.522,31.314c0-.595-.3-.783-.757-.783a1.3,1.3,0,0,0-1,.525v2.472h-.525V30.145h.525v.49a1.681,1.681,0,0,1,1.2-.574.961.961,0,0,1,1.079,1.093v2.374h-.526Z"/>
      <path d="M125.637,30.061a1.642,1.642,0,0,1,1.625,1.813v.133h-2.738a1.191,1.191,0,0,0,1.219,1.17,1.478,1.478,0,0,0,1.043-.427l.252.343a1.838,1.838,0,0,1-1.345.519,1.778,1.778,0,0,1-.056-3.551Zm-1.113,1.561h2.22a1.1,1.1,0,0,0-1.113-1.127A1.129,1.129,0,0,0,124.524,31.622Z"/>
      <path d="M127.674,30.145h.566l1.128,2.773,1.121-2.773h.574l-1.408,3.383h-.574Z"/>
      <path d="M133.148,30.061a1.642,1.642,0,0,1,1.625,1.813v.133h-2.738a1.191,1.191,0,0,0,1.219,1.17,1.48,1.48,0,0,0,1.043-.427l.252.343a1.838,1.838,0,0,1-1.345.519,1.778,1.778,0,0,1-.056-3.551Zm-1.113,1.561h2.22a1.1,1.1,0,0,0-1.114-1.127A1.128,1.128,0,0,0,132.035,31.622Z"/>
      <path d="M135.688,30.145h.526v.546a1.433,1.433,0,0,1,1.127-.616v.54a.868.868,0,0,0-.21-.022,1.235,1.235,0,0,0-.917.539v2.4h-.526Z"/>
      <path d="M142.4,33.023a1.424,1.424,0,0,1-1.141.589c-.883,0-1.506-.673-1.506-1.773a1.568,1.568,0,0,1,1.506-1.778,1.411,1.411,0,0,1,1.141.595v-1.8h.526v4.671H142.4Zm0-1.947a1.268,1.268,0,0,0-1.015-.545c-.68,0-1.086.559-1.086,1.308s.406,1.3,1.086,1.3a1.259,1.259,0,0,0,1.015-.531Z"/>
      <path d="M145.51,30.061a1.643,1.643,0,0,1,1.625,1.813v.133H144.4a1.192,1.192,0,0,0,1.219,1.17,1.478,1.478,0,0,0,1.043-.427l.252.343a1.838,1.838,0,0,1-1.345.519,1.778,1.778,0,0,1-.055-3.551ZM144.4,31.622h2.22A1.1,1.1,0,0,0,145.5,30.5,1.129,1.129,0,0,0,144.4,31.622Z"/>
      <path d="M152.133,31.23c0-.427-.19-.7-.623-.7a1.182,1.182,0,0,0-.9.517v2.48h-.525v-2.3c0-.427-.183-.7-.623-.7a1.178,1.178,0,0,0-.89.525v2.472h-.525V30.145h.525v.49a1.459,1.459,0,0,1,1.093-.574.869.869,0,0,1,.91.63,1.423,1.423,0,0,1,1.135-.63c.616,0,.945.343.945,1.022v2.445h-.525Z"/>
      <path d="M155.891,33.142a1.465,1.465,0,0,1-1.121.47,1.127,1.127,0,0,1-1.183-1.121,1.108,1.108,0,0,1,1.183-1.114,1.418,1.418,0,0,1,1.121.462V31.23c0-.455-.364-.714-.854-.714a1.344,1.344,0,0,0-1.037.47l-.245-.366a1.775,1.775,0,0,1,1.352-.559c.714,0,1.31.322,1.31,1.141v2.326h-.526Zm0-.966a1.133,1.133,0,0,0-.931-.421.745.745,0,1,0,0,1.479,1.135,1.135,0,0,0,.931-.42Z"/>
      <path d="M159.818,31.314c0-.595-.3-.783-.757-.783a1.3,1.3,0,0,0-1,.525v2.472h-.525V30.145h.525v.49a1.681,1.681,0,0,1,1.2-.574.962.962,0,0,1,1.08,1.093v2.374h-.526Z"/>
      <path d="M163.913,33.023a1.425,1.425,0,0,1-1.142.589c-.883,0-1.506-.673-1.506-1.773a1.568,1.568,0,0,1,1.506-1.778,1.414,1.414,0,0,1,1.142.595v-1.8h.525v4.671h-.525Zm0-1.947a1.272,1.272,0,0,0-1.016-.545c-.679,0-1.086.559-1.086,1.308s.407,1.3,1.086,1.3a1.263,1.263,0,0,0,1.016-.531Z"/>
      <path d="M165.535,32.7a1.532,1.532,0,0,0,1.114.485c.518,0,.8-.232.8-.561,0-.371-.413-.49-.868-.6-.574-.133-1.226-.287-1.226-.988,0-.525.455-.973,1.261-.973a1.713,1.713,0,0,1,1.254.49l-.245.364a1.318,1.318,0,0,0-1.009-.427c-.462,0-.75.21-.75.511,0,.329.386.434.827.539.588.133,1.268.3,1.268,1.051,0,.567-.455,1.023-1.331,1.023a1.8,1.8,0,0,1-1.366-.533Z"/>
      <path d="M2.263,43.816V39.145h.526v.5a1.411,1.411,0,0,1,1.141-.589c.89,0,1.506.673,1.506,1.772S4.82,42.612,3.93,42.612a1.387,1.387,0,0,1-1.141-.595v1.8ZM3.8,39.531a1.248,1.248,0,0,0-1.009.539V41.6a1.256,1.256,0,0,0,1.009.546c.678,0,1.085-.56,1.085-1.309S4.476,39.531,3.8,39.531Z"/>
      <path d="M8.467,42.142a1.467,1.467,0,0,1-1.121.47,1.127,1.127,0,0,1-1.184-1.121,1.108,1.108,0,0,1,1.184-1.114,1.42,1.42,0,0,1,1.121.462V40.23c0-.455-.365-.714-.855-.714a1.344,1.344,0,0,0-1.037.47L6.33,39.62a1.775,1.775,0,0,1,1.352-.559c.714,0,1.31.322,1.31,1.141v2.326H8.467Zm0-.966a1.136,1.136,0,0,0-.932-.421.745.745,0,1,0,0,1.479,1.138,1.138,0,0,0,.932-.42Z"/>
      <path d="M10.292,43.431a.486.486,0,0,0,.505-.358l.223-.51L9.606,39.145h.567L11.3,41.918l1.121-2.773H13l-1.7,4.069a1,1,0,0,1-1,.686,1.7,1.7,0,0,1-.385-.049l.084-.476A.828.828,0,0,0,10.292,43.431Z"/>
      <path d="M17.693,40.23c0-.427-.189-.7-.623-.7a1.18,1.18,0,0,0-.9.517v2.48h-.526v-2.3c0-.427-.182-.7-.623-.7a1.174,1.174,0,0,0-.889.525v2.472H13.61V39.145h.526v.49a1.455,1.455,0,0,1,1.092-.574.867.867,0,0,1,.91.63,1.427,1.427,0,0,1,1.135-.63c.616,0,.946.343.946,1.022v2.445h-.526Z"/>
      <path d="M20.807,39.061a1.642,1.642,0,0,1,1.625,1.813v.133H19.694a1.191,1.191,0,0,0,1.219,1.17,1.478,1.478,0,0,0,1.043-.427l.252.343a1.838,1.838,0,0,1-1.345.519,1.778,1.778,0,0,1-.056-3.551Zm-1.113,1.561h2.22A1.1,1.1,0,0,0,20.8,39.495,1.128,1.128,0,0,0,19.694,40.622Z"/>
      <path d="M25.631,40.314c0-.595-.3-.783-.757-.783a1.3,1.3,0,0,0-1,.525v2.472h-.526V39.145h.526v.49a1.677,1.677,0,0,1,1.2-.574.961.961,0,0,1,1.079,1.093v2.374h-.525Z"/>
      <path d="M27.379,41.82V39.607h-.56v-.462h.56V38.22H27.9v.925h.687v.462H27.9v2.1c0,.252.112.434.344.434a.508.508,0,0,0,.357-.14l.154.392a.856.856,0,0,1-.63.218A.693.693,0,0,1,27.379,41.82Z"/>
      <path d="M33.561,42.052a1.656,1.656,0,0,1-1.2.56.952.952,0,0,1-1.078-1.08V39.145H31.8v2.227c0,.595.3.77.755.77a1.3,1.3,0,0,0,1-.511V39.145h.526v3.383h-.526Z"/>
      <path d="M35.183,41.7a1.534,1.534,0,0,0,1.115.485c.517,0,.8-.232.8-.561,0-.371-.414-.49-.869-.6-.574-.133-1.225-.287-1.225-.988,0-.525.455-.973,1.26-.973a1.712,1.712,0,0,1,1.254.49l-.245.364a1.318,1.318,0,0,0-1.009-.427c-.461,0-.75.21-.75.511,0,.329.386.434.828.539.588.133,1.267.3,1.267,1.051,0,.567-.455,1.023-1.331,1.023a1.8,1.8,0,0,1-1.365-.533Z"/>
      <path d="M38.439,38.22a.354.354,0,0,1,.707,0,.354.354,0,1,1-.707,0Zm.091.925h.525v3.383H38.53Z"/>
      <path d="M42.458,40.314c0-.595-.3-.783-.757-.783a1.3,1.3,0,0,0-1,.525v2.472h-.525V39.145H40.7v.49a1.677,1.677,0,0,1,1.2-.574.961.961,0,0,1,1.079,1.093v2.374h-.525Z"/>
      <path d="M44.361,43a1.29,1.29,0,0,0,1.1.463.969.969,0,0,0,1.086-1.016v-.483a1.415,1.415,0,0,1-1.135.6,1.54,1.54,0,0,1-1.506-1.751c0-1.085.616-1.758,1.506-1.758a1.4,1.4,0,0,1,1.135.595v-.511h.525v3.284c0,1.121-.784,1.471-1.611,1.471a1.728,1.728,0,0,1-1.365-.5Zm2.186-2.927a1.248,1.248,0,0,0-1.009-.545c-.68,0-1.086.539-1.086,1.288s.406,1.288,1.086,1.288a1.252,1.252,0,0,0,1.009-.553Z"/>
      <path d="M49.87,40.833a1.677,1.677,0,1,1,1.674,1.779A1.66,1.66,0,0,1,49.87,40.833Zm2.8,0a1.138,1.138,0,1,0-1.121,1.309A1.175,1.175,0,0,0,52.665,40.833Z"/>
      <path d="M56.423,40.314c0-.595-.3-.783-.757-.783a1.3,1.3,0,0,0-1,.525v2.472h-.526V39.145h.526v.49a1.677,1.677,0,0,1,1.2-.574.961.961,0,0,1,1.079,1.093v2.374h-.525Z"/>
      <path d="M58.067,37.857h.526v4.671h-.526Z"/>
      <path d="M59.893,43.431a.485.485,0,0,0,.505-.358l.224-.51-1.414-3.418h.566L60.9,41.918l1.121-2.773H62.6l-1.7,4.069a1,1,0,0,1-.994.686,1.721,1.721,0,0,1-.386-.049l.084-.476A.828.828,0,0,0,59.893,43.431Z"/>
      <path d="M67.2,42.142a1.465,1.465,0,0,1-1.121.47A1.128,1.128,0,0,1,64.9,41.491a1.109,1.109,0,0,1,1.184-1.114,1.419,1.419,0,0,1,1.121.462V40.23c0-.455-.364-.714-.855-.714a1.344,1.344,0,0,0-1.037.47l-.245-.366a1.775,1.775,0,0,1,1.353-.559c.714,0,1.309.322,1.309,1.141v2.326H67.2Zm0-.966a1.135,1.135,0,0,0-.932-.421.745.745,0,1,0,0,1.479,1.137,1.137,0,0,0,.932-.42Z"/>
      <path d="M70.722,43.816V39.145h.526v.5a1.411,1.411,0,0,1,1.141-.589c.89,0,1.506.673,1.506,1.772s-.616,1.779-1.506,1.779a1.387,1.387,0,0,1-1.141-.595v1.8Zm1.535-4.285a1.246,1.246,0,0,0-1.009.539V41.6a1.255,1.255,0,0,0,1.009.546c.678,0,1.085-.56,1.085-1.309S72.935,39.531,72.257,39.531Z"/>
      <path d="M74.81,39.145h.526v.546a1.433,1.433,0,0,1,1.127-.616v.54a.868.868,0,0,0-.21-.022,1.235,1.235,0,0,0-.917.539v2.4H74.81Z"/>
      <path d="M78.661,39.061a1.643,1.643,0,0,1,1.625,1.813v.133H77.548a1.191,1.191,0,0,0,1.218,1.17,1.476,1.476,0,0,0,1.043-.427l.252.343a1.837,1.837,0,0,1-1.344.519,1.778,1.778,0,0,1-.056-3.551Zm-1.113,1.561h2.219a1.1,1.1,0,0,0-1.113-1.127A1.127,1.127,0,0,0,77.548,40.622Z"/>
      <path d="M81.2,43.816V39.145h.525v.5a1.412,1.412,0,0,1,1.142-.589c.89,0,1.506.673,1.506,1.772s-.616,1.779-1.506,1.779a1.389,1.389,0,0,1-1.142-.595v1.8Zm1.534-4.285a1.248,1.248,0,0,0-1.009.539V41.6a1.256,1.256,0,0,0,1.009.546c.679,0,1.085-.56,1.085-1.309S83.414,39.531,82.735,39.531Z"/>
      <path d="M87.4,42.142a1.465,1.465,0,0,1-1.121.47A1.128,1.128,0,0,1,85.1,41.491a1.109,1.109,0,0,1,1.184-1.114,1.418,1.418,0,0,1,1.121.462V40.23c0-.455-.364-.714-.854-.714a1.345,1.345,0,0,0-1.038.47l-.245-.366a1.777,1.777,0,0,1,1.353-.559c.714,0,1.309.322,1.309,1.141v2.326H87.4Zm0-.966a1.134,1.134,0,0,0-.932-.421.745.745,0,1,0,0,1.479,1.136,1.136,0,0,0,.932-.42Z"/>
      <path d="M88.957,38.22a.354.354,0,0,1,.707,0,.354.354,0,1,1-.707,0Zm.091.925h.525v3.383h-.525Z"/>
      <path d="M93.144,42.023A1.424,1.424,0,0,1,92,42.612c-.883,0-1.506-.673-1.506-1.773A1.568,1.568,0,0,1,92,39.061a1.411,1.411,0,0,1,1.141.595v-1.8h.526v4.671h-.526Zm0-1.947a1.268,1.268,0,0,0-1.015-.545c-.68,0-1.086.559-1.086,1.308s.406,1.3,1.086,1.3a1.259,1.259,0,0,0,1.015-.531Z"/>
      <path d="M98.156,39.061a1.444,1.444,0,0,1,1.239.589l-.35.322a1,1,0,0,0-.862-.441,1.313,1.313,0,0,0,0,2.611,1.018,1.018,0,0,0,.862-.442l.35.323a1.444,1.444,0,0,1-1.239.589,1.778,1.778,0,0,1,0-3.551Z"/>
      <path d="M102.314,42.142a1.465,1.465,0,0,1-1.121.47,1.127,1.127,0,0,1-1.183-1.121,1.108,1.108,0,0,1,1.183-1.114,1.418,1.418,0,0,1,1.121.462V40.23c0-.455-.364-.714-.854-.714a1.343,1.343,0,0,0-1.037.47l-.245-.366a1.773,1.773,0,0,1,1.352-.559c.714,0,1.31.322,1.31,1.141v2.326h-.526Zm0-.966a1.133,1.133,0,0,0-.931-.421.745.745,0,1,0,0,1.479,1.135,1.135,0,0,0,.931-.42Z"/>
      <path d="M103.958,39.145h.525v.546a1.434,1.434,0,0,1,1.127-.616v.54a.862.862,0,0,0-.21-.022,1.237,1.237,0,0,0-.917.539v2.4h-.525Z"/>
      <path d="M108.789,42.023a1.425,1.425,0,0,1-1.142.589c-.883,0-1.506-.673-1.506-1.773a1.568,1.568,0,0,1,1.506-1.778,1.414,1.414,0,0,1,1.142.595v-1.8h.525v4.671h-.525Zm0-1.947a1.272,1.272,0,0,0-1.016-.545c-.679,0-1.086.559-1.086,1.308s.407,1.3,1.086,1.3a1.263,1.263,0,0,0,1.016-.531Z"/>
      <path d="M110.713,41.827a.385.385,0,1,1-.386.385A.388.388,0,0,1,110.713,41.827Z"/>
      <path d="M118,38.64l-1.59,3.888h-.237l-1.583-3.888v3.888h-.582V37.857h.834l1.449,3.556,1.457-3.556h.834v4.671H118Z"/>
      <path d="M121.837,42.142a1.467,1.467,0,0,1-1.121.47,1.127,1.127,0,0,1-1.184-1.121,1.108,1.108,0,0,1,1.184-1.114,1.419,1.419,0,0,1,1.121.462V40.23c0-.455-.365-.714-.855-.714a1.344,1.344,0,0,0-1.037.47l-.245-.366a1.775,1.775,0,0,1,1.353-.559c.713,0,1.309.322,1.309,1.141v2.326h-.525Zm0-.966a1.135,1.135,0,0,0-.932-.421.745.745,0,1,0,0,1.479,1.137,1.137,0,0,0,.932-.42Z"/>
      <path d="M125.763,40.314c0-.595-.3-.783-.756-.783a1.3,1.3,0,0,0-1,.525v2.472h-.526V39.145h.526v.49a1.677,1.677,0,0,1,1.2-.574.961.961,0,0,1,1.079,1.093v2.374h-.526Z"/>
      <path d="M127.59,43.431a.487.487,0,0,0,.5-.358l.223-.51L126.9,39.145h.567l1.127,2.773,1.122-2.773h.574l-1.7,4.069a1,1,0,0,1-.994.686,1.7,1.7,0,0,1-.385-.049l.084-.476A.828.828,0,0,0,127.59,43.431Z"/>
      <path d="M132.587,40.833a1.677,1.677,0,1,1,1.674,1.779A1.66,1.66,0,0,1,132.587,40.833Zm2.8,0a1.138,1.138,0,1,0-1.121,1.309A1.175,1.175,0,0,0,135.382,40.833Z"/>
      <path d="M136.857,43.816V39.145h.526v.5a1.411,1.411,0,0,1,1.141-.589c.89,0,1.506.673,1.506,1.772s-.616,1.779-1.506,1.779a1.385,1.385,0,0,1-1.141-.595v1.8Zm1.534-4.285a1.244,1.244,0,0,0-1.008.539V41.6a1.253,1.253,0,0,0,1.008.546c.679,0,1.085-.56,1.085-1.309S139.07,39.531,138.391,39.531Z"/>
      <path d="M141.05,41.82V39.607h-.56v-.462h.56V38.22h.525v.925h.687v.462h-.687v2.1c0,.252.112.434.344.434a.508.508,0,0,0,.357-.14l.153.392a.851.851,0,0,1-.629.218A.693.693,0,0,1,141.05,41.82Z"/>
      <path d="M142.982,38.22a.354.354,0,0,1,.707,0,.354.354,0,1,1-.707,0Zm.091.925h.525v3.383h-.525Z"/>
      <path d="M144.522,40.833a1.677,1.677,0,1,1,1.674,1.779A1.66,1.66,0,0,1,144.522,40.833Zm2.8,0a1.138,1.138,0,1,0-1.121,1.309A1.175,1.175,0,0,0,147.317,40.833Z"/>
      <path d="M151.075,40.314c0-.595-.3-.783-.757-.783a1.3,1.3,0,0,0-1,.525v2.472h-.525V39.145h.525v.49a1.677,1.677,0,0,1,1.2-.574.961.961,0,0,1,1.079,1.093v2.374h-.525Z"/>
      <path d="M152.7,41.7a1.532,1.532,0,0,0,1.114.485c.518,0,.8-.232.8-.561,0-.371-.413-.49-.868-.6-.574-.133-1.226-.287-1.226-.988,0-.525.455-.973,1.261-.973a1.713,1.713,0,0,1,1.254.49l-.245.364a1.319,1.319,0,0,0-1.009-.427c-.463,0-.75.21-.75.511,0,.329.386.434.827.539.588.133,1.268.3,1.268,1.051,0,.567-.455,1.023-1.331,1.023a1.794,1.794,0,0,1-1.365-.533Z"/>
      <path d="M160.035,42.142a1.465,1.465,0,0,1-1.121.47,1.128,1.128,0,0,1-1.184-1.121,1.109,1.109,0,0,1,1.184-1.114,1.418,1.418,0,0,1,1.121.462V40.23c0-.455-.364-.714-.855-.714a1.344,1.344,0,0,0-1.037.47l-.245-.366a1.775,1.775,0,0,1,1.353-.559c.714,0,1.309.322,1.309,1.141v2.326h-.525Zm0-.966a1.135,1.135,0,0,0-.932-.421.745.745,0,1,0,0,1.479,1.137,1.137,0,0,0,.932-.42Z"/>
      <path d="M161.784,41.82V39.607h-.56v-.462h.56V38.22h.525v.925H163v.462h-.687v2.1c0,.252.113.434.344.434a.511.511,0,0,0,.358-.14l.153.392a.854.854,0,0,1-.63.218A.693.693,0,0,1,161.784,41.82Z"/>
      <path d="M4.308,48.81l-.882,2.718H2.9L1.822,48.145h.546l.827,2.7.89-2.7h.448l.889,2.7.827-2.7H6.8L5.717,51.528H5.191Z"/>
      <path d="M9.516,48.81l-.882,2.718H8.109L7.03,48.145h.546l.827,2.7.89-2.7h.448l.889,2.7.827-2.7H12l-1.078,3.383H10.4Z"/>
      <path d="M14.724,48.81l-.882,2.718h-.525l-1.079-3.383h.546l.827,2.7.89-2.7h.448l.889,2.7.827-2.7h.546l-1.078,3.383h-.526Z"/>
      <path d="M17.86,50.827a.385.385,0,1,1-.386.385A.388.388,0,0,1,17.86,50.827Z"/>
      <path d="M19.092,49.2a2.331,2.331,0,0,1,2.38-2.417,2.1,2.1,0,0,1,1.793.924l-.49.274a1.582,1.582,0,0,0-1.3-.68,1.9,1.9,0,0,0,0,3.8,1.562,1.562,0,0,0,1.3-.68l.5.274a2.121,2.121,0,0,1-1.8.925A2.331,2.331,0,0,1,19.092,49.2Z"/>
      <path d="M23.865,49.833a1.677,1.677,0,1,1,1.674,1.779A1.66,1.66,0,0,1,23.865,49.833Zm2.8,0a1.138,1.138,0,1,0-1.121,1.309A1.175,1.175,0,0,0,26.66,49.833Z"/>
      <path d="M30.419,49.314c0-.595-.3-.783-.757-.783a1.3,1.3,0,0,0-1,.525v2.472h-.525V48.145h.525v.49a1.677,1.677,0,0,1,1.2-.574.961.961,0,0,1,1.079,1.093v2.374h-.525Z"/>
      <path d="M32.041,50.7a1.53,1.53,0,0,0,1.114.485c.518,0,.8-.232.8-.561,0-.371-.413-.49-.868-.6-.574-.133-1.226-.287-1.226-.988,0-.525.455-.973,1.261-.973a1.715,1.715,0,0,1,1.254.49l-.245.364a1.319,1.319,0,0,0-1.009-.427c-.462,0-.75.21-.75.511,0,.329.386.434.827.539.588.133,1.268.3,1.268,1.051,0,.567-.455,1.023-1.331,1.023a1.8,1.8,0,0,1-1.366-.533Z"/>
      <path d="M37.671,51.052a1.658,1.658,0,0,1-1.2.56.952.952,0,0,1-1.079-1.08V48.145h.526v2.227c0,.595.3.77.756.77a1.3,1.3,0,0,0,1-.511V48.145H38.2v3.383h-.525Z"/>
      <path d="M43.4,49.23c0-.427-.189-.7-.623-.7a1.182,1.182,0,0,0-.9.517v2.48h-.526v-2.3c0-.427-.182-.7-.623-.7a1.176,1.176,0,0,0-.889.525v2.472h-.526V48.145h.526v.49a1.455,1.455,0,0,1,1.092-.574.869.869,0,0,1,.911.63,1.423,1.423,0,0,1,1.134-.63c.617,0,.946.343.946,1.022v2.445H43.4Z"/>
      <path d="M46.511,48.061a1.643,1.643,0,0,1,1.625,1.813v.133H45.4a1.191,1.191,0,0,0,1.219,1.17,1.478,1.478,0,0,0,1.043-.427l.252.343a1.838,1.838,0,0,1-1.345.519,1.778,1.778,0,0,1-.055-3.551ZM45.4,49.622h2.22A1.1,1.1,0,0,0,46.5,48.5,1.129,1.129,0,0,0,45.4,49.622Z"/>
      <path d="M49.052,48.145h.525v.546a1.433,1.433,0,0,1,1.127-.616v.54a.868.868,0,0,0-.21-.022,1.237,1.237,0,0,0-.917.539v2.4h-.525Z"/>
      <path d="M51.41,50.7a1.532,1.532,0,0,0,1.114.485c.518,0,.8-.232.8-.561,0-.371-.413-.49-.868-.6-.574-.133-1.226-.287-1.226-.988,0-.525.455-.973,1.261-.973a1.713,1.713,0,0,1,1.254.49l-.245.364a1.318,1.318,0,0,0-1.009-.427c-.462,0-.75.21-.75.511,0,.329.386.434.827.539.588.133,1.268.3,1.268,1.051,0,.567-.455,1.023-1.331,1.023a1.8,1.8,0,0,1-1.366-.533Z"/>
      <path d="M54.776,46.857h3.062v.517h-2.48V48.88h2.43V49.4h-2.43v1.61h2.48v.519H54.776Z"/>
      <path d="M61.092,49.314c0-.595-.3-.783-.757-.783a1.3,1.3,0,0,0-1,.525v2.472h-.526V48.145h.526v.49a1.677,1.677,0,0,1,1.2-.574.961.961,0,0,1,1.079,1.093v2.374h-.525Z"/>
      <path d="M64.207,48.061a1.643,1.643,0,0,1,1.625,1.813v.133H63.094a1.191,1.191,0,0,0,1.218,1.17,1.476,1.476,0,0,0,1.043-.427l.252.343a1.838,1.838,0,0,1-1.345.519,1.778,1.778,0,0,1-.055-3.551Zm-1.113,1.561h2.219A1.1,1.1,0,0,0,64.2,48.5,1.127,1.127,0,0,0,63.094,49.622Z"/>
      <path d="M66.747,48.145h.525v.546a1.434,1.434,0,0,1,1.127-.616v.54a.862.862,0,0,0-.21-.022,1.239,1.239,0,0,0-.917.539v2.4h-.525Z"/>
      <path d="M69.386,52a1.289,1.289,0,0,0,1.1.463.969.969,0,0,0,1.086-1.016v-.483a1.414,1.414,0,0,1-1.135.6,1.775,1.775,0,0,1,0-3.509,1.4,1.4,0,0,1,1.135.595v-.511H72.1v3.284c0,1.121-.784,1.471-1.611,1.471a1.728,1.728,0,0,1-1.365-.5Zm2.185-2.927a1.248,1.248,0,0,0-1.009-.545c-.679,0-1.086.539-1.086,1.288s.407,1.288,1.086,1.288a1.252,1.252,0,0,0,1.009-.553Z"/>
      <path d="M73.4,52.431a.485.485,0,0,0,.5-.358l.224-.51-1.414-3.418h.566l1.128,2.773,1.121-2.773H76.1l-1.695,4.069a1,1,0,0,1-.994.686,1.721,1.721,0,0,1-.386-.049l.084-.476A.828.828,0,0,0,73.4,52.431Z"/>
      <path d="M76.6,50.827a.385.385,0,1,1-.386.385A.388.388,0,0,1,76.6,50.827Z"/>
      <path d="M79.439,48.061a1.447,1.447,0,0,1,1.24.589l-.351.322a1,1,0,0,0-.861-.441,1.313,1.313,0,0,0,0,2.611,1.018,1.018,0,0,0,.861-.442l.351.323a1.447,1.447,0,0,1-1.24.589,1.778,1.778,0,0,1,0-3.551Z"/>
      <path d="M81.285,49.833a1.677,1.677,0,1,1,1.674,1.779A1.66,1.66,0,0,1,81.285,49.833Zm2.8,0a1.138,1.138,0,1,0-1.121,1.309A1.175,1.175,0,0,0,84.08,49.833Z"/>
      <path d="M89.638,49.23c0-.427-.189-.7-.623-.7a1.182,1.182,0,0,0-.9.517v2.48h-.525v-2.3c0-.427-.183-.7-.623-.7a1.176,1.176,0,0,0-.89.525v2.472h-.526V48.145h.526v.49a1.459,1.459,0,0,1,1.093-.574.869.869,0,0,1,.91.63,1.423,1.423,0,0,1,1.135-.63c.616,0,.945.343.945,1.022v2.445h-.526Z"/>
      <path d="M92.416,46.716h.413l-1.66,4.951h-.413Z"/>
      <path d="M95.469,48.81l-.883,2.718h-.525l-1.079-3.383h.546l.827,2.7.89-2.7h.448l.889,2.7.827-2.7h.546l-1.078,3.383h-.526Z"/>
      <path d="M100.747,51.142a1.465,1.465,0,0,1-1.121.47,1.128,1.128,0,0,1-1.184-1.121,1.109,1.109,0,0,1,1.184-1.114,1.419,1.419,0,0,1,1.121.462V49.23c0-.455-.364-.714-.855-.714a1.344,1.344,0,0,0-1.037.47l-.245-.366a1.775,1.775,0,0,1,1.353-.559c.714,0,1.309.322,1.309,1.141v2.326h-.525Zm0-.966a1.135,1.135,0,0,0-.932-.421.745.745,0,1,0,0,1.479,1.137,1.137,0,0,0,.932-.42Z"/>
      <path d="M102.572,52.431a.485.485,0,0,0,.5-.358l.224-.51-1.414-3.418h.566l1.128,2.773,1.121-2.773h.574l-1.695,4.069a1,1,0,0,1-.994.686,1.713,1.713,0,0,1-.386-.049l.084-.476A.828.828,0,0,0,102.572,52.431Z"/>
      <path d="M106,50.82V48.607h-.56v-.462H106V47.22h.525v.925h.687v.462h-.687v2.1c0,.252.113.434.344.434a.507.507,0,0,0,.357-.14l.154.392a.854.854,0,0,1-.63.218A.693.693,0,0,1,106,50.82Z"/>
      <path d="M107.822,49.833a1.677,1.677,0,1,1,1.674,1.779A1.66,1.66,0,0,1,107.822,49.833Zm2.8,0a1.138,1.138,0,1,0-1.121,1.309A1.175,1.175,0,0,0,110.617,49.833Z"/>
      <path d="M112.093,52.816V48.145h.525v.5a1.412,1.412,0,0,1,1.142-.589c.889,0,1.5.673,1.5,1.772s-.616,1.779-1.5,1.779a1.387,1.387,0,0,1-1.142-.595v1.8Zm1.534-4.285a1.248,1.248,0,0,0-1.009.539V50.6a1.256,1.256,0,0,0,1.009.546c.678,0,1.085-.56,1.085-1.309S114.305,48.531,113.627,48.531Z"/>
      <path d="M118.3,51.142a1.467,1.467,0,0,1-1.121.47,1.127,1.127,0,0,1-1.184-1.121,1.108,1.108,0,0,1,1.184-1.114,1.42,1.42,0,0,1,1.121.462V49.23c0-.455-.365-.714-.855-.714a1.344,1.344,0,0,0-1.037.47l-.245-.366a1.775,1.775,0,0,1,1.353-.559c.713,0,1.309.322,1.309,1.141v2.326H118.3Zm0-.966a1.135,1.135,0,0,0-.932-.421.745.745,0,1,0,0,1.479,1.137,1.137,0,0,0,.932-.42Z"/>
      <path d="M120.121,52.431a.486.486,0,0,0,.505-.358l.223-.51-1.414-3.418H120l1.128,2.773,1.121-2.773h.574l-1.7,4.069a1,1,0,0,1-.994.686,1.706,1.706,0,0,1-.386-.049l.084-.476A.828.828,0,0,0,120.121,52.431Z"/>
    </g>
  </g>
</svg>
