<svg xmlns="http://www.w3.org/2000/svg" width="135.935" height="63.849" viewBox="0 0 135.935 63.849">
  <g>
    <g>
      <path d="M5.282,9.547h-3.4l-.6,2.115H.113l2.8-9.344h1.33l2.8,9.344H5.883ZM2.116,8.566H5.043L3.573,3.384Z" transform="translate(0 -2.179)" fill="#0b79bf"/>
      <path d="M11.356,4.729a2.312,2.312,0,0,1,1.933.9l-.547.686a1.518,1.518,0,0,0-1.3-.686c-1.2,0-1.835,1.2-1.835,2.647s.631,2.662,1.835,2.662a1.553,1.553,0,0,0,1.3-.687l.547.687a2.278,2.278,0,0,1-1.933.9c-1.737,0-2.8-1.555-2.8-3.558S9.619,4.729,11.356,4.729Z" transform="translate(0 -2.179)" fill="#0b79bf"/>
      <path d="M17.879,4.729a2.313,2.313,0,0,1,1.934.9l-.547.686a1.519,1.519,0,0,0-1.3-.686c-1.2,0-1.835,1.2-1.835,2.647s.631,2.662,1.835,2.662a1.554,1.554,0,0,0,1.3-.687l.547.687a2.279,2.279,0,0,1-1.934.9c-1.736,0-2.8-1.555-2.8-3.558S16.143,4.729,17.879,4.729Z" transform="translate(0 -2.179)" fill="#0b79bf"/>
      <path d="M21.6,8.272c0-1.905.953-3.543,2.746-3.543,1.82,0,2.76,1.638,2.76,3.543s-.94,3.558-2.76,3.558C22.555,11.83,21.6,10.177,21.6,8.272Zm4.455,0c0-1.359-.519-2.647-1.709-2.647-1.163,0-1.7,1.288-1.7,2.647s.532,2.662,1.7,2.662C25.538,10.934,26.057,9.645,26.057,8.272Z" transform="translate(0 -2.179)" fill="#0b79bf"/>
      <path d="M33.112,10.724a2.463,2.463,0,0,1-1.961,1.106c-1.149,0-1.7-.574-1.7-1.807V4.9h1V9.729c0,.9.419,1.205,1.079,1.205a1.908,1.908,0,0,0,1.582-1.051V4.9H34.12v6.766H33.112Z" transform="translate(0 -2.179)" fill="#0b79bf"/>
      <path d="M40.462,6.844c0-.9-.406-1.219-1.078-1.219A1.978,1.978,0,0,0,37.8,6.7v4.959h-.994V4.9H37.8v.966a2.512,2.512,0,0,1,1.961-1.133c1.148,0,1.709.616,1.709,1.834v5.1H40.462Z" transform="translate(0 -2.179)" fill="#0b79bf"/>
      <path d="M44.352,10.3V5.778h-.9V4.9h.9V3.047h1.009V4.9h1.148v.882H45.361v4.343c0,.519.154.813.547.813a.756.756,0,0,0,.587-.267l.309.757a1.455,1.455,0,0,1-1.093.406C44.786,11.83,44.352,11.312,44.352,10.3Z" transform="translate(0 -2.179)" fill="#0b79bf"/>
      <path d="M52.584,2.318h1.121v9.344H52.584Z" transform="translate(0 -2.179)" fill="#0b79bf"/>
      <path d="M60.1,6.844c0-.9-.406-1.219-1.078-1.219A1.976,1.976,0,0,0,57.442,6.7v4.959h-.994V4.9h.994v.966A2.509,2.509,0,0,1,59.4,4.729c1.148,0,1.709.616,1.709,1.834v5.1H60.1Z" transform="translate(0 -2.179)" fill="#0b79bf"/>
      <path d="M64.036,5.778h-.9V4.9h.9V4.069a1.661,1.661,0,0,1,1.653-1.89,1.886,1.886,0,0,1,.868.2l-.237.784a.972.972,0,0,0-.449-.112c-.533,0-.827.364-.827,1.022V4.9h1.149v.882H65.044v5.884H64.036Z" transform="translate(0 -2.179)" fill="#0b79bf"/>
      <path d="M67.857,8.272c0-1.905.953-3.543,2.746-3.543,1.821,0,2.76,1.638,2.76,3.543s-.939,3.558-2.76,3.558C68.81,11.83,67.857,10.177,67.857,8.272Zm4.455,0c0-1.359-.519-2.647-1.709-2.647-1.163,0-1.695,1.288-1.695,2.647s.532,2.662,1.695,2.662C71.793,10.934,72.312,9.645,72.312,8.272Z" transform="translate(0 -2.179)" fill="#0b79bf"/>
      <path d="M75.712,4.9h.994V5.975a2.273,2.273,0,0,1,1.919-1.219V5.793a1.375,1.375,0,0,0-.336-.042,2.031,2.031,0,0,0-1.583,1.106v4.805h-.994Z" transform="translate(0 -2.179)" fill="#0b79bf"/>
      <path d="M87.46,6.759c0-.728-.294-1.134-.938-1.134A1.856,1.856,0,0,0,85.051,6.7v4.959H84.043v-4.9c0-.728-.3-1.134-.953-1.134A1.9,1.9,0,0,0,81.619,6.7v4.959h-.994V4.9h.994v.966a2.342,2.342,0,0,1,1.849-1.133A1.424,1.424,0,0,1,85,5.933a2.327,2.327,0,0,1,1.906-1.2c.994,0,1.568.545,1.568,1.764v5.169H87.46Z" transform="translate(0 -2.179)" fill="#0b79bf"/>
      <path d="M94.627,10.934a2.117,2.117,0,0,1-1.779.9A2.078,2.078,0,0,1,90.8,9.575a2.046,2.046,0,0,1,2.045-2.227,2.107,2.107,0,0,1,1.779.868V7.039A1.284,1.284,0,0,0,93.241,5.6a2.155,2.155,0,0,0-1.7.826L91.1,5.709a3.1,3.1,0,0,1,2.3-.98,1.991,1.991,0,0,1,2.241,2.2v4.734H94.627Zm0-1.976A1.624,1.624,0,0,0,93.17,8.09a1.36,1.36,0,0,0-1.344,1.5A1.372,1.372,0,0,0,93.17,11.1a1.636,1.636,0,0,0,1.457-.855Z" transform="translate(0 -2.179)" fill="#0b79bf"/>
      <path d="M98.5,10.3V5.778h-.9V4.9h.9V3.047h1.009V4.9h1.148v.882H99.511v4.343c0,.519.154.813.547.813a.757.757,0,0,0,.588-.267l.308.757a1.454,1.454,0,0,1-1.092.406C98.937,11.83,98.5,11.312,98.5,10.3Z" transform="translate(0 -2.179)" fill="#0b79bf"/>
      <path d="M102.633,3.075a.7.7,0,0,1,.687-.686.687.687,0,0,1,0,1.373A.7.7,0,0,1,102.633,3.075Zm.2,1.821h1v6.766h-1Z" transform="translate(0 -2.179)" fill="#0b79bf"/>
      <path d="M106.174,8.272c0-1.905.953-3.543,2.746-3.543,1.821,0,2.76,1.638,2.76,3.543s-.939,3.558-2.76,3.558C107.127,11.83,106.174,10.177,106.174,8.272Zm4.455,0c0-1.359-.518-2.647-1.709-2.647-1.163,0-1.7,1.288-1.7,2.647s.532,2.662,1.7,2.662C110.111,10.934,110.629,9.645,110.629,8.272Z" transform="translate(0 -2.179)" fill="#0b79bf"/>
      <path d="M117.684,6.844c0-.9-.406-1.219-1.078-1.219A1.976,1.976,0,0,0,115.023,6.7v4.959h-.994V4.9h.994v.966a2.509,2.509,0,0,1,1.961-1.133c1.148,0,1.709.616,1.709,1.834v5.1h-1.009Z" transform="translate(0 -2.179)" fill="#0b79bf"/>
    </g>
    <line y1="16.367" x2="131.556" y2="16.367" fill="none" stroke="#328aca" stroke-miterlimit="10"/>
    <g>
      <path d="M.6,26.843H2.737a1.422,1.422,0,0,1,1.512,1.53,1.324,1.324,0,0,1-.926,1.378,1.427,1.427,0,0,1,1.026,1.476A1.458,1.458,0,0,1,2.8,32.848H.6Zm1.953,2.565c.559,0,.81-.387.81-.9s-.251-.909-.81-.909h-1.1v1.809Zm.036,2.683c.576,0,.873-.36.873-.963a.86.86,0,0,0-.873-.963H1.458v1.926Z" transform="translate(0 -2.179)"/>
      <path d="M5.734,27.274a.508.508,0,0,1,.5-.5.5.5,0,0,1,.5.5.5.5,0,0,1-.5.5A.5.5,0,0,1,5.734,27.274ZM5.851,28.5h.773v4.349H5.851Z" transform="translate(0 -2.179)"/>
      <path d="M8.281,26.843h.773v6H8.281Z" transform="translate(0 -2.179)"/>
      <path d="M10.71,26.843h.774v6H10.71Z" transform="translate(0 -2.179)"/>
      <path d="M19.882,28.238l-1.52,4.61h-.343l-1.513-4.61v4.61h-.854v-6H16.83l1.36,4.14,1.378-4.14h1.161v6h-.847Z" transform="translate(0 -2.179)"/>
      <path d="M22.212,30.669c0-1.225.631-2.278,1.828-2.278s1.827,1.053,1.827,2.278-.629,2.286-1.827,2.286S22.212,31.894,22.212,30.669Zm2.855,0c0-.828-.316-1.594-1.027-1.594s-1.017.766-1.017,1.594.315,1.6,1.017,1.6S25.067,31.506,25.067,30.669Z" transform="translate(0 -2.179)"/>
      <path d="M29.693,29.822c0-.549-.253-.747-.658-.747a1.17,1.17,0,0,0-.955.649v3.124h-.773V28.5h.773v.6a1.618,1.618,0,0,1,1.261-.712c.756,0,1.116.415,1.116,1.179v3.278h-.764Z" transform="translate(0 -2.179)"/>
      <path d="M32.274,31.929V29.175H31.7V28.5h.576V27.311h.765V28.5h.73v.676h-.73v2.6c0,.306.108.5.342.5a.5.5,0,0,0,.369-.153l.2.576a.994.994,0,0,1-.739.261C32.571,32.955,32.274,32.6,32.274,31.929Z" transform="translate(0 -2.179)"/>
      <path d="M37.5,29.805c0-.54-.253-.73-.657-.73a1.183,1.183,0,0,0-.955.649v3.124h-.774v-6h.774V29.1a1.632,1.632,0,0,1,1.269-.712c.757,0,1.117.387,1.117,1.171v3.286H37.5Z" transform="translate(0 -2.179)"/>
      <path d="M45.261,31.578H43.127l-.35,1.27h-.892l1.792-6H44.7l1.8,6h-.89Zm-1.953-.756h1.773l-.891-3.187Z" transform="translate(0 -2.179)"/>
      <path d="M47.646,34.5v-6h.773v.6a1.344,1.344,0,0,1,1.126-.7c.982,0,1.575.891,1.575,2.278s-.593,2.286-1.575,2.286a1.3,1.3,0,0,1-1.126-.72V34.5Zm1.682-5.429a1.1,1.1,0,0,0-.909.649v1.89a1.109,1.109,0,0,0,.909.657c.667,0,.992-.711.992-1.6S50,29.075,49.328,29.075Z" transform="translate(0 -2.179)"/>
      <path d="M52.56,28.5h.773v.666a1.465,1.465,0,0,1,1.216-.765v.784a.862.862,0,0,0-.225-.028,1.258,1.258,0,0,0-.991.657v3.035H52.56Z" transform="translate(0 -2.179)"/>
      <path d="M55.674,27.274a.509.509,0,0,1,.5-.5.5.5,0,0,1,.5.5.5.5,0,0,1-.5.5A.5.5,0,0,1,55.674,27.274Zm.117,1.225h.774v4.349h-.774Z" transform="translate(0 -2.179)"/>
      <path d="M58.221,26.843h.773v6h-.773Z" transform="translate(0 -2.179)"/>
      <path d="M.675,42.533a1.89,1.89,0,0,0,1.414.657A.9.9,0,0,0,3.116,42.3c0-.6-.54-.864-1.144-1.144-.73-.333-1.566-.692-1.566-1.782a1.659,1.659,0,0,1,1.8-1.63,2.285,2.285,0,0,1,1.657.64l-.433.648a1.666,1.666,0,0,0-1.251-.522.822.822,0,0,0-.9.819c0,.513.513.747,1.08,1.018.757.35,1.621.756,1.621,1.9A1.685,1.685,0,0,1,2.1,43.955,2.443,2.443,0,0,1,.235,43.2Z" transform="translate(0 -2.179)"/>
      <path d="M7,39.391c1.162,0,1.765,1.017,1.765,2.3v.226H5.977c.035.792.449,1.4,1.2,1.4a1.325,1.325,0,0,0,1-.5l.4.468a1.923,1.923,0,0,1-1.468.675c-1.18,0-1.918-.945-1.918-2.286C5.184,40.408,5.868,39.391,7,39.391ZM5.967,41.372H8.011c-.009-.6-.279-1.342-1.018-1.342C6.274,40.03,5.994,40.786,5.967,41.372Z" transform="translate(0 -2.179)"/>
      <path d="M10.18,39.5h.773v.666a1.466,1.466,0,0,1,1.216-.765v.784a.862.862,0,0,0-.225-.028,1.258,1.258,0,0,0-.991.657v3.035H10.18Z" transform="translate(0 -2.179)"/>
      <path d="M12.888,39.5h.828l1.018,3.43,1.035-3.43h.819l-1.431,4.349H14.32Z" transform="translate(0 -2.179)"/>
      <path d="M17.605,38.274a.508.508,0,0,1,.5-.5.5.5,0,0,1,.5.5.5.5,0,0,1-.5.5A.5.5,0,0,1,17.605,38.274Zm.117,1.225H18.5v4.349h-.773Z" transform="translate(0 -2.179)"/>
      <path d="M21.789,39.391a1.534,1.534,0,0,1,1.288.586l-.405.521a.957.957,0,0,0-.81-.423c-.73,0-1.125.721-1.125,1.594s.4,1.6,1.125,1.6a.98.98,0,0,0,.81-.423l.405.522a1.51,1.51,0,0,1-1.288.585c-1.133,0-1.854-.98-1.854-2.286S20.656,39.391,21.789,39.391Z" transform="translate(0 -2.179)"/>
      <path d="M25.992,39.391c1.163,0,1.765,1.017,1.765,2.3v.226h-2.79c.035.792.449,1.4,1.2,1.4a1.323,1.323,0,0,0,1-.5l.4.468a1.923,1.923,0,0,1-1.468.675c-1.18,0-1.918-.945-1.918-2.286C24.174,40.408,24.859,39.391,25.992,39.391Zm-1.035,1.981H27c-.009-.6-.279-1.342-1.017-1.342C25.264,40.03,24.985,40.786,24.957,41.372Z" transform="translate(0 -2.179)"/>
      <path d="M31.68,37.843h1.692c1.584,0,2.476,1.278,2.476,3.007s-.883,3-2.467,3h-1.7Zm1.692,5.248c1.053,0,1.593-.954,1.593-2.241,0-1.306-.53-2.251-1.593-2.251h-.838v4.492Z" transform="translate(0 -2.179)"/>
      <path d="M39.574,43.4a1.4,1.4,0,0,1-1.144.558,1.337,1.337,0,0,1-1.323-1.449,1.313,1.313,0,0,1,1.323-1.422,1.365,1.365,0,0,1,1.144.54v-.693a.792.792,0,0,0-.865-.883,1.475,1.475,0,0,0-1.089.514l-.315-.541a2.087,2.087,0,0,1,1.53-.63,1.332,1.332,0,0,1,1.513,1.45v3.007h-.774Zm0-1.242a.994.994,0,0,0-.873-.522.895.895,0,0,0,0,1.782.993.993,0,0,0,.873-.521Z" transform="translate(0 -2.179)"/>
      <path d="M42.156,42.929V40.175h-.577V39.5h.577V38.311h.765V39.5h.73v.676h-.73v2.6c0,.306.109.495.342.495a.5.5,0,0,0,.369-.153l.2.576a.99.99,0,0,1-.738.261C42.453,43.955,42.156,43.6,42.156,42.929Z" transform="translate(0 -2.179)"/>
      <path d="M46.6,39.391c1.162,0,1.765,1.017,1.765,2.3v.226H45.576c.036.792.45,1.4,1.2,1.4a1.327,1.327,0,0,0,1-.5l.4.468a1.923,1.923,0,0,1-1.468.675c-1.179,0-1.917-.945-1.917-2.286C44.784,40.408,45.468,39.391,46.6,39.391Zm-1.035,1.981h2.044c-.009-.6-.28-1.342-1.018-1.342C45.873,40.03,45.594,40.786,45.567,41.372Z" transform="translate(0 -2.179)"/>
      <path d="M49.8,42.794a1.6,1.6,0,0,0,1.161.54c.478,0,.775-.233.775-.6,0-.414-.406-.594-.865-.774-.6-.226-1.3-.486-1.3-1.359a1.272,1.272,0,0,1,1.44-1.207,1.88,1.88,0,0,1,1.377.558l-.342.531a1.3,1.3,0,0,0-1.026-.467c-.433,0-.721.224-.721.54,0,.369.388.531.828.711.613.224,1.342.5,1.342,1.423a1.327,1.327,0,0,1-1.5,1.268,1.976,1.976,0,0,1-1.53-.611Z" transform="translate(0 -2.179)"/>
      <path d="M58.114,37.753c1.421,0,1.944,1.494,1.944,3.1s-.513,3.1-1.944,3.1-1.955-1.5-1.955-3.1S56.682,37.753,58.114,37.753Zm0,.765c-.865,0-1.08,1.152-1.08,2.332s.215,2.34,1.08,2.34,1.071-1.17,1.071-2.34S58.969,38.518,58.114,38.518Z" transform="translate(0 -2.179)"/>
      <path d="M61.434,43.154c2.034-2.223,2.646-2.881,2.646-3.709a.885.885,0,0,0-.918-.927,1.451,1.451,0,0,0-1.269.729l-.54-.522a2.109,2.109,0,0,1,1.818-.972,1.659,1.659,0,0,1,1.782,1.692c0,.972-.719,1.836-2.277,3.646h2.3v.757H61.434Z" transform="translate(0 -2.179)"/>
      <path d="M67.734,37.662h.585L66.59,44.027h-.585Z" transform="translate(0 -2.179)"/>
      <path d="M69.309,43.154c2.034-2.223,2.646-2.881,2.646-3.709a.885.885,0,0,0-.918-.927,1.451,1.451,0,0,0-1.269.729l-.54-.522a2.109,2.109,0,0,1,1.818-.972,1.659,1.659,0,0,1,1.782,1.692c0,.972-.719,1.836-2.277,3.646h2.3v.757H69.309Z" transform="translate(0 -2.179)"/>
      <path d="M75.429,40.751a1.57,1.57,0,0,1-1.09-1.459A1.795,1.795,0,1,1,76.8,40.751a1.808,1.808,0,0,1,1.189,1.6,1.645,1.645,0,0,1-1.865,1.6c-1.1,0-1.872-.594-1.872-1.6A1.8,1.8,0,0,1,75.429,40.751Zm.692.351a1.279,1.279,0,0,0-1.007,1.143,1.005,1.005,0,0,0,2.007,0A1.29,1.29,0,0,0,76.121,41.1Zm0-2.584a.853.853,0,0,0-.926.9c0,.676.693.954.926,1.018.226-.064.919-.342.919-1.018A.855.855,0,0,0,76.121,38.518Z" transform="translate(0 -2.179)"/>
      <path d="M80.621,37.662h.585l-1.728,6.365h-.585Z" transform="translate(0 -2.179)"/>
      <path d="M84.1,41.462l-1.314,2.386h-.991l1.783-3.071-1.683-2.934h.99L84.1,40.1l1.206-2.26h1l-1.675,2.934L86.4,43.848H85.41Z" transform="translate(0 -2.179)"/>
      <path d="M89.333,41.462l-1.314,2.386h-.99l1.782-3.071-1.684-2.934h.991l1.215,2.26,1.206-2.26h1l-1.674,2.934,1.773,3.071h-.99Z" transform="translate(0 -2.179)"/>
      <path d="M94.958,41.336H96.83V42H94.958Z" transform="translate(0 -2.179)"/>
      <path d="M102.447,37.753c1.421,0,1.944,1.494,1.944,3.1s-.513,3.1-1.944,3.1-1.955-1.5-1.955-3.1S101.015,37.753,102.447,37.753Zm0,.765c-.865,0-1.08,1.152-1.08,2.332s.215,2.34,1.08,2.34,1.071-1.17,1.071-2.34S103.3,38.518,102.447,38.518Z" transform="translate(0 -2.179)"/>
      <path d="M106.1,42.443a1.513,1.513,0,0,0,1.287.747.945.945,0,0,0,1.035-1.044c0-.748-.495-.991-1.1-.991-.19,0-.415,0-.5.01v-.774c.081.008.325.008.477.008.595,0,1.036-.3,1.036-.918a.89.89,0,0,0-.981-.963,1.479,1.479,0,0,0-1.216.675l-.513-.486a2.069,2.069,0,0,1,1.782-.954,1.57,1.57,0,0,1,1.783,1.6,1.416,1.416,0,0,1-1.089,1.386,1.474,1.474,0,0,1,1.17,1.477,1.69,1.69,0,0,1-1.864,1.737,2.125,2.125,0,0,1-1.863-.99Z" transform="translate(0 -2.179)"/>
      <path d="M111.95,37.662h.584l-1.728,6.365h-.585Z" transform="translate(0 -2.179)"/>
      <path d="M113.858,42.443a1.513,1.513,0,0,0,1.287.747.945.945,0,0,0,1.035-1.044c0-.748-.5-.991-1.1-.991-.189,0-.414,0-.495.01v-.774c.081.008.324.008.477.008.6,0,1.036-.3,1.036-.918a.89.89,0,0,0-.982-.963,1.479,1.479,0,0,0-1.215.675l-.513-.486a2.069,2.069,0,0,1,1.782-.954,1.569,1.569,0,0,1,1.782,1.6,1.415,1.415,0,0,1-1.088,1.386,1.474,1.474,0,0,1,1.169,1.477,1.689,1.689,0,0,1-1.863,1.737,2.124,2.124,0,0,1-1.863-.99Z" transform="translate(0 -2.179)"/>
      <path d="M120.32,37.753c1.422,0,1.944,1.494,1.944,3.1s-.513,3.1-1.944,3.1-1.954-1.5-1.954-3.1S118.888,37.753,120.32,37.753Zm0,.765c-.865,0-1.08,1.152-1.08,2.332s.215,2.34,1.08,2.34,1.071-1.17,1.071-2.34S121.175,38.518,120.32,38.518Z" transform="translate(0 -2.179)"/>
      <path d="M124.918,37.662h.585l-1.728,6.365h-.585Z" transform="translate(0 -2.179)"/>
      <path d="M128.393,41.462l-1.315,2.386h-.99l1.782-3.071-1.682-2.934h.99l1.215,2.26,1.206-2.26h1l-1.675,2.934,1.774,3.071h-.991Z" transform="translate(0 -2.179)"/>
      <path d="M133.63,41.462l-1.314,2.386h-.99l1.782-3.071-1.684-2.934h.991l1.215,2.26,1.206-2.26h1l-1.675,2.934,1.774,3.071h-.99Z" transform="translate(0 -2.179)"/>
      <path d="M.6,48.843H2.3c1.584,0,2.476,1.278,2.476,3.007s-.883,3-2.467,3H.6ZM2.3,54.091c1.053,0,1.593-.954,1.593-2.241,0-1.306-.53-2.251-1.593-2.251H1.458v4.492Z" transform="translate(0 -2.179)"/>
      <path d="M8.5,54.4a1.4,1.4,0,0,1-1.143.558,1.337,1.337,0,0,1-1.323-1.449,1.313,1.313,0,0,1,1.323-1.422,1.362,1.362,0,0,1,1.143.54v-.693a.792.792,0,0,0-.864-.883,1.475,1.475,0,0,0-1.089.514l-.315-.541a2.087,2.087,0,0,1,1.53-.63,1.332,1.332,0,0,1,1.513,1.45v3.007H8.5Zm0-1.242a.992.992,0,0,0-.873-.522.9.9,0,0,0,0,1.782.991.991,0,0,0,.873-.521Z" transform="translate(0 -2.179)"/>
      <path d="M11.143,55.928c.252,0,.395-.1.5-.4l.207-.593L10.405,50.5h.828l1.017,3.412L13.285,50.5h.82l-1.729,5.213a1.113,1.113,0,0,1-1.179.9,1.884,1.884,0,0,1-.459-.063l.126-.685A.644.644,0,0,0,11.143,55.928Z" transform="translate(0 -2.179)"/>
      <path d="M15.255,53.794a1.6,1.6,0,0,0,1.161.54c.478,0,.775-.233.775-.6,0-.414-.406-.594-.865-.774-.6-.226-1.295-.486-1.295-1.359a1.272,1.272,0,0,1,1.44-1.207,1.88,1.88,0,0,1,1.377.558l-.342.531a1.3,1.3,0,0,0-1.026-.467c-.433,0-.721.224-.721.54,0,.369.388.531.828.711.613.224,1.342.5,1.342,1.423a1.327,1.327,0,0,1-1.5,1.268,1.976,1.976,0,0,1-1.53-.611Z" transform="translate(0 -2.179)"/>
      <path d="M21.834,48.843h2.133a1.422,1.422,0,0,1,1.513,1.53,1.324,1.324,0,0,1-.927,1.378,1.427,1.427,0,0,1,1.026,1.476,1.458,1.458,0,0,1-1.548,1.621h-2.2Zm1.953,2.565c.559,0,.811-.387.811-.9s-.252-.909-.811-.909h-1.1v1.809Zm.037,2.683c.576,0,.873-.36.873-.963a.861.861,0,0,0-.873-.963H22.689v1.926Z" transform="translate(0 -2.179)"/>
      <path d="M26.964,49.274a.509.509,0,0,1,.5-.5.5.5,0,0,1,.5.5.5.5,0,0,1-.5.5A.5.5,0,0,1,26.964,49.274Zm.117,1.225h.774v4.349h-.774Z" transform="translate(0 -2.179)"/>
      <path d="M29.512,48.843h.773v6h-.773Z" transform="translate(0 -2.179)"/>
      <path d="M31.942,48.843h.773v6h-.773Z" transform="translate(0 -2.179)"/>
      <path d="M35.973,50.391c1.162,0,1.765,1.017,1.765,2.3v.226h-2.79c.035.792.449,1.4,1.2,1.4a1.327,1.327,0,0,0,1-.5l.4.468a1.921,1.921,0,0,1-1.467.675c-1.18,0-1.918-.945-1.918-2.286C34.155,51.408,34.839,50.391,35.973,50.391Zm-1.035,1.981h2.044c-.009-.6-.28-1.342-1.018-1.342C35.244,51.03,34.965,51.786,34.938,52.372Z" transform="translate(0 -2.179)"/>
      <path d="M41.644,54.253a1.366,1.366,0,0,1-1.134.7c-.973,0-1.576-.891-1.576-2.277,0-1.36.6-2.287,1.576-2.287a1.323,1.323,0,0,1,1.134.712v-2.26h.765v6h-.765Zm0-2.521a1.112,1.112,0,0,0-.918-.657c-.666,0-.99.711-.99,1.6s.324,1.593.99,1.593a1.1,1.1,0,0,0,.918-.648Z" transform="translate(0 -2.179)"/>
      <path d="M44.577,50.437a.54.54,0,1,1-.549.54A.546.546,0,0,1,44.577,50.437Zm0,3.42a.541.541,0,1,1-.549.54A.548.548,0,0,1,44.577,53.857Z" transform="translate(0 -2.179)"/>
      <path d="M49.418,53.443a1.516,1.516,0,0,0,1.287.747.945.945,0,0,0,1.036-1.044c0-.748-.5-.991-1.1-.991-.19,0-.414,0-.495.01v-.774c.081.008.324.008.476.008.595,0,1.036-.3,1.036-.918a.89.89,0,0,0-.981-.963,1.481,1.481,0,0,0-1.216.675l-.512-.486a2.066,2.066,0,0,1,1.782-.954,1.569,1.569,0,0,1,1.782,1.6,1.416,1.416,0,0,1-1.089,1.386,1.474,1.474,0,0,1,1.17,1.477,1.689,1.689,0,0,1-1.863,1.737,2.126,2.126,0,0,1-1.864-.99Z" transform="translate(0 -2.179)"/>
      <path d="M55.089,49.959l-.928.981-.5-.531,1.53-1.566h.747v6h-.846Z" transform="translate(0 -2.179)"/>
      <path d="M.6,59.843H2.539a1.841,1.841,0,0,1,0,3.673H1.458v2.332H.6ZM2.44,60.6H1.458V62.76H2.44a1.092,1.092,0,0,0,0-2.161Z" transform="translate(0 -2.179)"/>
      <path d="M5.229,63.669c0-1.225.631-2.278,1.828-2.278s1.827,1.053,1.827,2.278-.63,2.286-1.827,2.286S5.229,64.894,5.229,63.669Zm2.854,0c0-.828-.315-1.594-1.026-1.594s-1.018.766-1.018,1.594.316,1.6,1.018,1.6S8.083,64.506,8.083,63.669Z" transform="translate(0 -2.179)"/>
      <path d="M10.324,61.5H11.1v.666a1.463,1.463,0,0,1,1.216-.765v.784a.869.869,0,0,0-.226-.028,1.258,1.258,0,0,0-.99.657v3.035h-.773Z" transform="translate(0 -2.179)"/>
      <path d="M13.707,64.929V62.175h-.576V61.5h.576V60.311h.766V61.5H15.2v.676h-.729v2.6c0,.306.107.5.342.5a.5.5,0,0,0,.369-.153l.2.576a.992.992,0,0,1-.738.261C14,65.955,13.707,65.6,13.707,64.929Z" transform="translate(0 -2.179)"/>
      <path d="M16.435,60.274a.508.508,0,0,1,.5-.5.5.5,0,0,1,.5.5.5.5,0,0,1-.5.5A.5.5,0,0,1,16.435,60.274Zm.117,1.225h.774v4.349h-.774Z" transform="translate(0 -2.179)"/>
      <path d="M18.765,63.669c0-1.225.631-2.278,1.828-2.278s1.827,1.053,1.827,2.278-.63,2.286-1.827,2.286S18.765,64.894,18.765,63.669Zm2.854,0c0-.828-.315-1.594-1.026-1.594s-1.017.766-1.017,1.594.315,1.6,1.017,1.6S21.619,64.506,21.619,63.669Z" transform="translate(0 -2.179)"/>
      <path d="M26.245,62.822c0-.549-.253-.747-.657-.747a1.17,1.17,0,0,0-.955.649v3.124H23.86V61.5h.773v.6a1.617,1.617,0,0,1,1.261-.712c.756,0,1.116.415,1.116,1.179v3.278h-.765Z" transform="translate(0 -2.179)"/>
      <path d="M29.178,61.437a.54.54,0,1,1-.55.54A.547.547,0,0,1,29.178,61.437Zm0,3.42a.541.541,0,1,1-.55.54A.548.548,0,0,1,29.178,64.857Z" transform="translate(0 -2.179)"/>
      <path d="M34.785,60.959l-.927.981-.5-.531,1.53-1.566h.747v6h-.846Z" transform="translate(0 -2.179)"/>
      <path d="M37.782,64.614a1.1,1.1,0,0,0,.981.568c.918,0,1.278-1.144,1.278-2.215V62.8a1.547,1.547,0,0,1-1.3.854c-.882,0-1.612-.647-1.612-1.925a1.833,1.833,0,0,1,1.792-1.982c1.477,0,2,1.486,2,3.107,0,1.656-.666,3.1-2.142,3.1a1.686,1.686,0,0,1-1.431-.719Zm1.188-4.105c-.675,0-.972.621-.972,1.188,0,.882.45,1.215.963,1.215a1.272,1.272,0,0,0,1.063-.828C40,61.437,39.762,60.509,38.97,60.509Z" transform="translate(0 -2.179)"/>
      <path d="M46.648,59.753c1.422,0,1.944,1.494,1.944,3.1s-.513,3.1-1.944,3.1-1.954-1.5-1.954-3.1S45.216,59.753,46.648,59.753Zm0,.765c-.864,0-1.08,1.152-1.08,2.332s.216,2.34,1.08,2.34,1.071-1.17,1.071-2.34S47.5,60.518,46.648,60.518Z" transform="translate(0 -2.179)"/>
      <path d="M52.111,64.38H49.716v-.73l2.151-3.807h1.1v3.781h.639v.756h-.639v1.468h-.855ZM50.5,63.624h1.612V60.752Z" transform="translate(0 -2.179)"/>
      <path d="M56.079,59.662h.585l-1.728,6.365h-.585Z" transform="translate(0 -2.179)"/>
      <path d="M59.553,63.462l-1.314,2.386h-.991l1.783-3.071-1.683-2.934h.99l1.215,2.26,1.206-2.26h1l-1.675,2.934,1.774,3.071h-.991Z" transform="translate(0 -2.179)"/>
      <path d="M64.791,63.462l-1.314,2.386h-.99l1.782-3.071-1.683-2.934h.99l1.215,2.26L66,59.843h1l-1.674,2.934L67.1,65.848h-.99Z" transform="translate(0 -2.179)"/>
    </g>
  </g>
</svg>
