<svg xmlns="http://www.w3.org/2000/svg" width="490.932" height="168.447" viewBox="0 0 490.932 168.447">
  <g>
    <path d="M174.833,128.616H8.655A8.155,8.155,0,0,1,.5,120.462V8.655A8.155,8.155,0,0,1,8.655.5H174.833a8.155,8.155,0,0,1,8.155,8.155V120.462A8.155,8.155,0,0,1,174.833,128.616Z" fill="#fbf7bb" stroke="#318aca" stroke-miterlimit="10"/>
    <g>
      <path d="M12.311,15.105a2.239,2.239,0,0,0,1.619.71c.481,0,.77-.25.77-.58,0-.4-.39-.59-.95-.8-.859-.309-2.008-.679-2.008-2.089a2.1,2.1,0,0,1,2.339-2.028,3.174,3.174,0,0,1,2.138.76l-.75,1.2a2.1,2.1,0,0,0-1.409-.55c-.449,0-.669.23-.669.53,0,.36.38.54.949.75.86.309,2,.729,2,2.079a2.11,2.11,0,0,1-2.388,2.129,3.3,3.3,0,0,1-2.41-.87Z" fill="#0b79bf"/>
      <path d="M18.09,11.837H16.662V10.428h4.466v1.409H19.709V17.1H18.09Z" fill="#0b79bf"/>
      <path d="M24.749,16.055H22.7l-.249,1.04h-1.67l1.969-6.667H24.7L26.668,17.1H25Zm-1.728-1.389H24.44l-.709-2.819Z" fill="#0b79bf"/>
      <path d="M28.081,14.386l-2.059-3.958h1.769l1.1,2.479,1.09-2.479h1.768L29.7,14.386V17.1H28.081Z" fill="#0b79bf"/>
      <path d="M34.611,15.105a2.237,2.237,0,0,0,1.619.71c.48,0,.769-.25.769-.58,0-.4-.389-.59-.949-.8-.859-.309-2.009-.679-2.009-2.089a2.1,2.1,0,0,1,2.339-2.028,3.175,3.175,0,0,1,2.139.76l-.75,1.2a2.1,2.1,0,0,0-1.409-.55c-.449,0-.669.23-.669.53,0,.36.38.54.949.75.859.309,2,.729,2,2.079a2.111,2.111,0,0,1-2.389,2.129,3.3,3.3,0,0,1-2.409-.87Z" fill="#0b79bf"/>
      <path d="M42.729,16.055H40.68l-.25,1.04H38.761l1.97-6.667h1.948L44.648,17.1H42.979ZM41,14.666h1.419l-.71-2.819Z" fill="#0b79bf"/>
      <path d="M45.111,10.428h4.018v1.389h-2.4v1.2h2.329v1.39H46.73V17.1H45.111Z" fill="#0b79bf"/>
      <path d="M49.96,10.428h4.019v1.389h-2.4v1.2h2.329v1.39H51.58v1.3h2.4V17.1H49.96Z" fill="#0b79bf"/>
      <path d="M55.661,12.2a.895.895,0,1,1-.9.89A.9.9,0,0,1,55.661,12.2Zm0,3.229a.889.889,0,1,1-.9.888A.9.9,0,0,1,55.661,15.426Z" fill="#0b79bf"/>
      <path d="M59.461,13.766c0-2,1.02-3.448,2.629-3.448a2.208,2.208,0,0,1,2.059,1.389l-.79.36a1.4,1.4,0,0,0-1.269-.9c-1.009,0-1.659,1.1-1.659,2.6s.65,2.6,1.659,2.6a1.386,1.386,0,0,0,1.269-.979l.8.359a2.211,2.211,0,0,1-2.069,1.47C60.481,17.215,59.461,15.765,59.461,13.766Z" fill="#0b79bf"/>
      <path d="M67.539,16.6a1.555,1.555,0,0,1-1.269.62,1.485,1.485,0,0,1-1.469-1.61,1.459,1.459,0,0,1,1.469-1.579,1.513,1.513,0,0,1,1.269.6v-.77a.878.878,0,0,0-.959-.979,1.636,1.636,0,0,0-1.209.569l-.35-.6a2.319,2.319,0,0,1,1.7-.7A1.479,1.479,0,0,1,68.4,13.756V17.1h-.86Zm0-1.379a1.1,1.1,0,0,0-.969-.58.9.9,0,0,0-.9.989.9.9,0,0,0,.9.99,1.1,1.1,0,0,0,.969-.58Z" fill="#0b79bf"/>
      <path d="M69.641,10.428H70.5V17.1h-.859Z" fill="#0b79bf"/>
      <path d="M71.742,10.428H72.6V17.1h-.859Z" fill="#0b79bf"/>
      <path d="M76.47,15.725a1.215,1.215,0,0,0,1.09.629c1.019,0,1.419-1.268,1.419-2.458v-.19a1.721,1.721,0,0,1-1.449.95c-.98,0-1.789-.72-1.789-2.14a2.033,2.033,0,0,1,1.989-2.2c1.639,0,2.219,1.65,2.219,3.448,0,1.839-.741,3.438-2.379,3.438a1.871,1.871,0,0,1-1.589-.8Zm1.319-4.557c-.75,0-1.079.689-1.079,1.319,0,.98.5,1.349,1.07,1.349a1.411,1.411,0,0,0,1.178-.919C78.929,12.2,78.669,11.168,77.789,11.168Z" fill="#0b79bf"/>
      <path d="M80.681,14.305H82.76v.741H80.681Z" fill="#0b79bf"/>
      <path d="M84.78,11.667l-1.03,1.09-.559-.59,1.7-1.739h.829V17.1H84.78Z" fill="#0b79bf"/>
      <path d="M86.7,14.305H88.78v.741H86.7Z" fill="#0b79bf"/>
      <path d="M90.8,11.667l-1.029,1.09-.56-.59,1.7-1.739h.829V17.1H90.8Z" fill="#0b79bf"/>
      <path d="M97.669,16.6a1.555,1.555,0,0,1-1.269.62,1.485,1.485,0,0,1-1.469-1.61A1.459,1.459,0,0,1,96.4,14.026a1.513,1.513,0,0,1,1.269.6v-.77a.879.879,0,0,0-.96-.979,1.64,1.64,0,0,0-1.209.569l-.349-.6a2.319,2.319,0,0,1,1.7-.7,1.479,1.479,0,0,1,1.679,1.609V17.1h-.86Zm0-1.379a1.1,1.1,0,0,0-.969-.58.9.9,0,0,0-.9.989.9.9,0,0,0,.9.99,1.1,1.1,0,0,0,.969-.58Z" fill="#0b79bf"/>
      <path d="M102.419,13.736c0-.609-.28-.829-.729-.829a1.3,1.3,0,0,0-1.06.719V17.1h-.859V12.267h.859v.669a1.8,1.8,0,0,1,1.4-.789c.839,0,1.239.46,1.239,1.309V17.1h-.85Z" fill="#0b79bf"/>
      <path d="M107.289,16.434a1.519,1.519,0,0,1-1.259.781c-1.079,0-1.749-.991-1.749-2.53,0-1.508.659-2.538,1.749-2.538a1.472,1.472,0,0,1,1.259.789V10.428h.849V17.1h-.849Zm0-2.8a1.233,1.233,0,0,0-1.019-.73c-.74,0-1.1.789-1.1,1.778s.36,1.77,1.1,1.77a1.222,1.222,0,0,0,1.019-.72Z" fill="#0b79bf"/>
      <path d="M112.629,13.656a1.741,1.741,0,0,1-1.209-1.619,1.992,1.992,0,1,1,2.729,1.619,2.01,2.01,0,0,1,1.319,1.779,1.826,1.826,0,0,1-2.069,1.78c-1.219,0-2.078-.66-2.078-1.78A2,2,0,0,1,112.629,13.656Zm.77.39a1.42,1.42,0,0,0-1.119,1.269,1.116,1.116,0,0,0,2.228,0A1.433,1.433,0,0,0,113.4,14.046Zm0-2.868a.947.947,0,0,0-1.029,1c0,.75.769,1.059,1.029,1.129.25-.07,1.019-.379,1.019-1.129A.949.949,0,0,0,113.4,11.178Z" fill="#0b79bf"/>
      <path d="M118.479,10.328c1.579,0,2.159,1.659,2.159,3.438s-.57,3.449-2.159,3.449-2.169-1.67-2.169-3.449S116.89,10.328,118.479,10.328Zm0,.85c-.96,0-1.2,1.279-1.2,2.588s.239,2.6,1.2,2.6,1.189-1.3,1.189-2.6S119.428,11.178,118.479,11.178Z" fill="#0b79bf"/>
      <path d="M123.669,10.328c1.579,0,2.16,1.659,2.16,3.438s-.571,3.449-2.16,3.449-2.169-1.67-2.169-3.449S122.081,10.328,123.669,10.328Zm0,.85c-.96,0-1.2,1.279-1.2,2.588s.239,2.6,1.2,2.6,1.19-1.3,1.19-2.6S124.619,11.178,123.669,11.178Z" fill="#0b79bf"/>
      <path d="M126.56,14.305h2.079v.741H126.56Z" fill="#0b79bf"/>
      <path d="M131.819,15.466H129.16v-.81l2.388-4.228h1.22v4.2h.709v.84h-.709V17.1h-.949Zm-1.789-.84h1.789V11.437Z" fill="#0b79bf"/>
      <path d="M136.758,11.267h-2.807v-.839h3.878v.66l-2.11,6.007H134.69Z" fill="#0b79bf"/>
      <path d="M141.108,11.267H138.3v-.839h3.878v.66L140.069,17.1h-1.03Z" fill="#0b79bf"/>
      <path d="M142.709,14.305h2.08v.741h-2.08Z" fill="#0b79bf"/>
      <path d="M146.18,15.545a1.554,1.554,0,0,0,1.4.82,1.208,1.208,0,0,0,1.139-1.33c0-.869-.42-1.349-1.089-1.349a1.384,1.384,0,0,0-1.17.6l-.7-.22V10.428h3.568v.839h-2.619v2.16a1.569,1.569,0,0,1,1.23-.571c.97,0,1.749.76,1.749,2.15a2.057,2.057,0,0,1-2.079,2.209,2.233,2.233,0,0,1-2.039-1.08Z" fill="#0b79bf"/>
      <path d="M152.7,10.328c1.579,0,2.159,1.659,2.159,3.438s-.57,3.449-2.159,3.449-2.169-1.67-2.169-3.449S151.11,10.328,152.7,10.328Zm0,.85c-.96,0-1.2,1.279-1.2,2.588s.24,2.6,1.2,2.6,1.189-1.3,1.189-2.6S153.648,11.178,152.7,11.178Z" fill="#0b79bf"/>
      <path d="M156.379,15.545a1.554,1.554,0,0,0,1.4.82,1.208,1.208,0,0,0,1.139-1.33c0-.869-.42-1.349-1.088-1.349a1.382,1.382,0,0,0-1.17.6l-.7-.22V10.428h3.568v.839h-2.618v2.16a1.567,1.567,0,0,1,1.229-.571c.97,0,1.749.76,1.749,2.15a2.057,2.057,0,0,1-2.079,2.209,2.233,2.233,0,0,1-2.039-1.08Z" fill="#0b79bf"/>
      <path d="M162.9,10.328c1.579,0,2.159,1.659,2.159,3.438s-.57,3.449-2.159,3.449-2.169-1.67-2.169-3.449S161.309,10.328,162.9,10.328Zm0,.85c-.96,0-1.2,1.279-1.2,2.588s.239,2.6,1.2,2.6,1.189-1.3,1.189-2.6S163.847,11.178,162.9,11.178Z" fill="#0b79bf"/>
      <path d="M166.429,16a.6.6,0,1,1-.61.6A.608.608,0,0,1,166.429,16Z" fill="#0b79bf"/>
      <path d="M15.09,21.067,14.071,26.1h-1l-1.5-6.667h1.019l1.03,5.208L14.7,19.428h.78l1.089,5.208,1.019-5.208h1.02L17.119,26.1h-1.01Z" fill="#0b79bf"/>
      <path d="M20.821,21.147c1.289,0,1.959,1.129,1.959,2.559v.25h-3.1c.039.879.5,1.549,1.329,1.549a1.472,1.472,0,0,0,1.11-.56l.439.52a2.135,2.135,0,0,1-1.629.75c-1.309,0-2.129-1.05-2.129-2.539C18.8,22.276,19.562,21.147,20.821,21.147Zm-1.15,2.2H21.94c-.01-.669-.31-1.49-1.129-1.49C20.011,21.856,19.7,22.7,19.671,23.346Z" fill="#0b79bf"/>
      <path d="M23.662,21.387a1.58,1.58,0,0,0,.669-.94.385.385,0,0,1-.139.03.534.534,0,0,1-.53-.559.59.59,0,0,1,.589-.59c.361,0,.67.29.67.81a1.994,1.994,0,0,1-.849,1.579Z" fill="#0b79bf"/>
      <path d="M26.072,19.428h.859V26.1h-.859Z" fill="#0b79bf"/>
      <path d="M28.171,19.428h.86V26.1h-.86Z" fill="#0b79bf"/>
      <path d="M32.412,21.267h.859v.74a1.62,1.62,0,0,1,1.349-.85v.869A1.064,1.064,0,0,0,34.37,22a1.388,1.388,0,0,0-1.1.729V26.1h-.859Z" fill="#0b79bf"/>
      <path d="M37.18,21.147c1.289,0,1.959,1.129,1.959,2.559v.25h-3.1c.04.879.5,1.549,1.33,1.549a1.472,1.472,0,0,0,1.109-.56l.439.52a2.135,2.135,0,0,1-1.629.75c-1.309,0-2.128-1.05-2.128-2.539C35.162,22.276,35.921,21.147,37.18,21.147Zm-1.149,2.2H38.3c-.01-.669-.309-1.49-1.129-1.49C36.371,21.856,36.061,22.7,36.031,23.346Z" fill="#0b79bf"/>
      <path d="M40.131,24.925a1.774,1.774,0,0,0,1.289.6c.531,0,.86-.26.86-.669,0-.46-.449-.66-.959-.859-.67-.25-1.44-.54-1.44-1.51a1.413,1.413,0,0,1,1.6-1.339,2.091,2.091,0,0,1,1.529.619l-.38.59a1.441,1.441,0,0,0-1.139-.519c-.48,0-.8.25-.8.6,0,.41.43.59.92.789.679.25,1.489.561,1.489,1.58a1.474,1.474,0,0,1-1.67,1.41,2.191,2.191,0,0,1-1.7-.68Z" fill="#0b79bf"/>
      <path d="M44.051,27.933V21.267h.86v.66a1.488,1.488,0,0,1,1.249-.78c1.089,0,1.749.99,1.749,2.529s-.66,2.539-1.749,2.539a1.435,1.435,0,0,1-1.249-.8v2.518Zm1.868-6.026a1.217,1.217,0,0,0-1.008.719v2.1a1.229,1.229,0,0,0,1.008.73c.741,0,1.1-.79,1.1-1.779S46.66,21.907,45.919,21.907Z" fill="#0b79bf"/>
      <path d="M48.671,23.676c0-1.36.7-2.529,2.029-2.529s2.029,1.169,2.029,2.529-.7,2.539-2.029,2.539S48.671,25.035,48.671,23.676Zm3.168,0c0-.92-.349-1.769-1.139-1.769s-1.129.849-1.129,1.769.349,1.779,1.129,1.779S51.839,24.605,51.839,23.676Z" fill="#0b79bf"/>
      <path d="M56.379,22.736c0-.609-.28-.829-.729-.829a1.3,1.3,0,0,0-1.06.719V26.1h-.859V21.267h.859v.669a1.8,1.8,0,0,1,1.4-.789c.84,0,1.24.46,1.24,1.309V26.1h-.85Z" fill="#0b79bf"/>
      <path d="M61.248,25.434a1.516,1.516,0,0,1-1.258.781c-1.079,0-1.749-.991-1.749-2.53,0-1.508.659-2.538,1.749-2.538a1.469,1.469,0,0,1,1.258.789V19.428h.85V26.1h-.85Zm0-2.8a1.23,1.23,0,0,0-1.018-.73c-.74,0-1.1.789-1.1,1.778s.36,1.77,1.1,1.77a1.219,1.219,0,0,0,1.018-.72Z" fill="#0b79bf"/>
      <path d="M68.258,25.434A1.516,1.516,0,0,1,67,26.215c-1.079,0-1.749-.991-1.749-2.53,0-1.508.66-2.538,1.749-2.538a1.47,1.47,0,0,1,1.259.789V19.428h.85V26.1h-.85Zm0-2.8a1.23,1.23,0,0,0-1.018-.73c-.741,0-1.1.789-1.1,1.778s.359,1.77,1.1,1.77a1.219,1.219,0,0,0,1.018-.72Z" fill="#0b79bf"/>
      <path d="M72.849,25.6a1.556,1.556,0,0,1-1.269.62,1.485,1.485,0,0,1-1.469-1.61,1.458,1.458,0,0,1,1.469-1.579,1.513,1.513,0,0,1,1.269.6v-.77a.879.879,0,0,0-.96-.979,1.64,1.64,0,0,0-1.209.569l-.349-.6a2.316,2.316,0,0,1,1.7-.7,1.478,1.478,0,0,1,1.678,1.609V26.1h-.859Zm0-1.379a1.1,1.1,0,0,0-.97-.58.994.994,0,0,0,0,1.979,1.1,1.1,0,0,0,.97-.58Z" fill="#0b79bf"/>
      <path d="M75.19,27.294c.28,0,.439-.111.559-.44l.231-.66-1.609-4.927h.918l1.13,3.788,1.15-3.788h.909l-1.919,5.787a1.237,1.237,0,0,1-1.309,1,2.078,2.078,0,0,1-.509-.071l.139-.76A.732.732,0,0,0,75.19,27.294Z" fill="#0b79bf"/>
      <path d="M81.04,23.676c0-1.36.7-2.529,2.029-2.529S85.1,22.316,85.1,23.676s-.7,2.539-2.029,2.539S81.04,25.035,81.04,23.676Zm3.168,0c0-.92-.349-1.769-1.139-1.769s-1.129.849-1.129,1.769.349,1.779,1.129,1.779S84.208,24.605,84.208,23.676Z" fill="#0b79bf"/>
      <path d="M86.1,21.267h.859v.74a1.621,1.621,0,0,1,1.349-.85v.869a1.051,1.051,0,0,0-.25-.029,1.389,1.389,0,0,0-1.1.729V26.1H86.1Z" fill="#0b79bf"/>
      <path d="M93.879,22.736c0-.609-.28-.829-.729-.829a1.3,1.3,0,0,0-1.06.719V26.1h-.859V21.267h.859v.669a1.8,1.8,0,0,1,1.4-.789c.84,0,1.24.46,1.24,1.309V26.1h-.85Z" fill="#0b79bf"/>
      <path d="M95.85,19.908a.566.566,0,0,1,.561-.56.558.558,0,0,1,.559.56.55.55,0,0,1-.559.55A.558.558,0,0,1,95.85,19.908Zm.131,1.359h.859V26.1h-.859Z" fill="#0b79bf"/>
      <path d="M98.42,26.774a1.563,1.563,0,0,0,1.249.55,1.108,1.108,0,0,0,1.169-1.26v-.739a1.49,1.49,0,0,1-1.249.8c-1.079,0-1.749-.949-1.749-2.488,0-1.509.659-2.489,1.749-2.489a1.444,1.444,0,0,1,1.249.789v-.669h.86v4.738a1.819,1.819,0,0,1-2,2.049,2.2,2.2,0,0,1-1.66-.611Zm2.418-4.137a1.205,1.205,0,0,0-1.008-.73c-.741,0-1.1.749-1.1,1.729s.359,1.729,1.1,1.729a1.206,1.206,0,0,0,1.008-.729Z" fill="#0b79bf"/>
      <path d="M105.589,22.717c0-.6-.28-.81-.729-.81a1.309,1.309,0,0,0-1.06.719V26.1h-.859V19.428h.859v2.508a1.817,1.817,0,0,1,1.409-.789c.839,0,1.24.43,1.24,1.3V26.1h-.86Z" fill="#0b79bf"/>
      <path d="M107.86,25.075V22.016h-.64v-.749h.64V19.948h.848v1.319h.81v.749h-.81v2.889c0,.34.121.55.38.55a.553.553,0,0,0,.41-.17l.22.64a1.1,1.1,0,0,1-.819.29C108.189,26.215,107.86,25.824,107.86,25.075Z" fill="#0b79bf"/>
      <path d="M110.98,25a.6.6,0,1,1-.61.6A.608.608,0,0,1,110.98,25Z" fill="#0b79bf"/>
    </g>
    <g>
      <path d="M58.416,40.249h1.872a2.377,2.377,0,0,1,2.406,2.67,2.367,2.367,0,0,1-2.406,2.663H58.416Zm1.872,4.2c.687,0,1.086-.608,1.086-1.535,0-.984-.376-1.543-1.086-1.543h-.577v3.078Z" fill="#0b79bf"/>
      <path d="M63.248,43.646a1.845,1.845,0,1,1,1.832,2.032A1.84,1.84,0,0,1,63.248,43.646Zm2.479,0c0-.559-.2-1-.647-1s-.64.44-.64,1,.2,1.008.64,1.008S65.727,44.215,65.727,43.646Z" fill="#0b79bf"/>
      <path d="M70.127,43.191l-.615,2.391H68.281L67.257,41.72H68.44l.536,2.39.607-2.39h1.056l.632,2.39.535-2.39h1.2l-1.031,3.862H70.743Z" fill="#0b79bf"/>
      <path d="M75.744,43.143c0-.352-.168-.5-.449-.5a.713.713,0,0,0-.6.408v2.527H73.537V41.72H74.7V42.2a1.413,1.413,0,0,1,1.135-.575A.966.966,0,0,1,76.9,42.687v2.9H75.744Z" fill="#0b79bf"/>
      <path d="M79.448,41.624c1.087,0,1.726.84,1.726,2.079v.319H78.8a.791.791,0,0,0,.848.744,1.149,1.149,0,0,0,.792-.336l.512.7a2.054,2.054,0,0,1-1.44.552,2.037,2.037,0,0,1-.063-4.054Zm-.657,1.623h1.28c-.016-.312-.159-.712-.64-.712C78.967,42.535,78.816,42.935,78.791,43.247Z" fill="#0b79bf"/>
      <path d="M84.087,45.126a1.138,1.138,0,0,1-.96.552c-.863,0-1.447-.736-1.447-2.032,0-1.247.576-2.022,1.447-2.022a1.121,1.121,0,0,1,.96.552V40.249h1.152v5.333H84.087Zm0-2.127a.708.708,0,0,0-.568-.352c-.423,0-.655.408-.655,1s.232,1.008.655,1.008a.719.719,0,0,0,.568-.359Z" fill="#0b79bf"/>
      <path d="M88,47.053V41.72h1.16v.456a1.1,1.1,0,0,1,.951-.552c.872,0,1.447.735,1.447,2.022,0,1.272-.575,2.032-1.447,2.032a1.092,1.092,0,0,1-.951-.552v1.927Zm1.719-4.406a.665.665,0,0,0-.559.352v1.3a.693.693,0,0,0,.559.359c.424,0,.656-.408.656-1.008S90.142,42.647,89.718,42.647Z" fill="#0b79bf"/>
      <path d="M92.1,43.646a1.845,1.845,0,1,1,1.831,2.032A1.84,1.84,0,0,1,92.1,43.646Zm2.479,0c0-.559-.2-1-.648-1s-.639.44-.639,1,.2,1.008.639,1.008S94.575,44.215,94.575,43.646Z" fill="#0b79bf"/>
      <path d="M98.974,43.191l-.616,2.391H97.127L96.1,41.72h1.183l.536,2.39.607-2.39h1.056l.632,2.39.535-2.39h1.2l-1.031,3.862H99.589Z" fill="#0b79bf"/>
      <path d="M103.991,41.624c1.087,0,1.726.84,1.726,2.079v.319h-2.375a.791.791,0,0,0,.848.744,1.149,1.149,0,0,0,.792-.336l.512.7a2.054,2.054,0,0,1-1.44.552,2.037,2.037,0,0,1-.063-4.054Zm-.657,1.623h1.28c-.016-.312-.159-.712-.64-.712C103.51,42.535,103.359,42.935,103.334,43.247Z" fill="#0b79bf"/>
      <path d="M106.423,41.72h1.159v.5a1.346,1.346,0,0,1,1.032-.592v1.119a1.038,1.038,0,0,0-.247-.032,1.024,1.024,0,0,0-.785.384v2.487h-1.159Z" fill="#0b79bf"/>
      <path d="M111.1,40.249h1.159v5.333H111.1Z" fill="#0b79bf"/>
      <path d="M113.1,40.56a.668.668,0,1,1,1.335,0,.668.668,0,1,1-1.335,0Zm.088,1.16h1.159v3.862h-1.159Z" fill="#0b79bf"/>
      <path d="M117.5,43.143c0-.352-.168-.5-.449-.5a.711.711,0,0,0-.6.408v2.527h-1.159V41.72h1.159V42.2a1.413,1.413,0,0,1,1.135-.575.966.966,0,0,1,1.072,1.063v2.9H117.5Z" fill="#0b79bf"/>
      <path d="M121.2,41.624c1.087,0,1.726.84,1.726,2.079v.319h-2.374a.789.789,0,0,0,.847.744,1.149,1.149,0,0,0,.792-.336l.512.7a2.053,2.053,0,0,1-1.44.552,2.037,2.037,0,0,1-.063-4.054Zm-.657,1.623h1.28c-.016-.312-.159-.712-.64-.712C120.718,42.535,120.567,42.935,120.542,43.247Z" fill="#0b79bf"/>
      <path d="M123.807,44.335a1.858,1.858,0,0,0,1.1.455c.319,0,.479-.12.479-.312s-.24-.28-.575-.368c-.552-.151-1.328-.344-1.328-1.271,0-.648.52-1.215,1.5-1.215a2.32,2.32,0,0,1,1.423.487l-.448.777a1.449,1.449,0,0,0-.967-.384c-.248,0-.424.1-.424.271s.208.256.544.344c.567.152,1.375.359,1.375,1.311,0,.728-.608,1.248-1.56,1.248a2.291,2.291,0,0,1-1.583-.552Z" fill="#0b79bf"/>
      <path d="M127.863,44.246a.712.712,0,1,1-.72.712A.723.723,0,0,1,127.863,44.246Z" fill="#0b79bf"/>
      <path d="M58.592,53.414A1.676,1.676,0,0,0,59.848,54a.8.8,0,0,0,.911-.791c0-.536-.479-.768-1.015-1.016-.648-.3-1.392-.616-1.392-1.583a1.473,1.473,0,0,1,1.6-1.447,2.026,2.026,0,0,1,1.47.567l-.383.576a1.48,1.48,0,0,0-1.112-.463.729.729,0,0,0-.8.727c0,.455.455.663.959.9.672.312,1.44.672,1.44,1.687a1.5,1.5,0,0,1-1.671,1.52,2.169,2.169,0,0,1-1.655-.672Z" fill="#0b79bf"/>
      <path d="M62.512,53.766V51.319H62v-.6h.512V49.664h.68V50.72h.647v.6h-.647V53.63c0,.272.1.44.3.44a.451.451,0,0,0,.328-.136l.175.512a.882.882,0,0,1-.656.232C62.776,54.678,62.512,54.366,62.512,53.766Z" fill="#0b79bf"/>
      <path d="M66.719,54.181a1.242,1.242,0,0,1-1.015.5,1.188,1.188,0,0,1-1.175-1.288A1.167,1.167,0,0,1,65.7,52.127a1.21,1.21,0,0,1,1.015.479v-.615a.7.7,0,0,0-.767-.783,1.31,1.31,0,0,0-.967.455l-.28-.48a1.857,1.857,0,0,1,1.359-.559,1.182,1.182,0,0,1,1.343,1.287v2.671h-.688Zm0-1.1a.881.881,0,0,0-.775-.464.8.8,0,0,0,0,1.583.881.881,0,0,0,.775-.464Z" fill="#0b79bf"/>
      <path d="M68.76,55.541c.224,0,.352-.088.448-.352l.184-.527L68.105,50.72h.735l.9,3.03.92-3.03h.727l-1.535,4.629a.99.99,0,0,1-1.048.8,1.673,1.673,0,0,1-.407-.056l.111-.608A.587.587,0,0,0,68.76,55.541Z" fill="#0b79bf"/>
      <path d="M75.958,54.181a1.241,1.241,0,0,1-1.014.5,1.188,1.188,0,0,1-1.176-1.288,1.167,1.167,0,0,1,1.176-1.263,1.21,1.21,0,0,1,1.014.479v-.615a.7.7,0,0,0-.767-.783,1.31,1.31,0,0,0-.967.455l-.28-.48a1.856,1.856,0,0,1,1.359-.559,1.183,1.183,0,0,1,1.343,1.287v2.671h-.688Zm0-1.1a.88.88,0,0,0-.775-.464.8.8,0,0,0,0,1.583.88.88,0,0,0,.775-.464Z" fill="#0b79bf"/>
      <path d="M79.919,51.615l-.783,2.967h-.712L77.393,50.72h.712l.711,2.95.775-2.95h.64l.784,2.95.72-2.95h.72l-1.041,3.862H80.7Z" fill="#0b79bf"/>
      <path d="M85.183,54.181a1.242,1.242,0,0,1-1.015.5,1.188,1.188,0,0,1-1.175-1.288,1.166,1.166,0,0,1,1.175-1.263,1.21,1.21,0,0,1,1.015.479v-.615a.7.7,0,0,0-.768-.783,1.308,1.308,0,0,0-.966.455l-.281-.48a1.856,1.856,0,0,1,1.36-.559,1.183,1.183,0,0,1,1.343,1.287v2.671h-.688Zm0-1.1a.881.881,0,0,0-.775-.464.8.8,0,0,0,0,1.583.881.881,0,0,0,.775-.464Z" fill="#0b79bf"/>
      <path d="M87.224,55.541c.224,0,.352-.088.448-.352l.184-.527L86.569,50.72H87.3l.9,3.03.92-3.03h.728L88.32,55.349a.99.99,0,0,1-1.048.8,1.666,1.666,0,0,1-.407-.056l.111-.608A.587.587,0,0,0,87.224,55.541Z" fill="#0b79bf"/>
      <path d="M94.422,54.181a1.242,1.242,0,0,1-1.015.5,1.188,1.188,0,0,1-1.175-1.288,1.167,1.167,0,0,1,1.175-1.263,1.21,1.21,0,0,1,1.015.479v-.615a.7.7,0,0,0-.767-.783,1.31,1.31,0,0,0-.967.455l-.28-.48a1.857,1.857,0,0,1,1.359-.559,1.182,1.182,0,0,1,1.343,1.287v2.671h-.688Zm0-1.1a.881.881,0,0,0-.775-.464.8.8,0,0,0,0,1.583.881.881,0,0,0,.775-.464Z" fill="#0b79bf"/>
      <path d="M96.408,53.766V51.319H95.9v-.6h.512V49.664h.679V50.72h.648v.6h-.648V53.63c0,.272.1.44.3.44a.448.448,0,0,0,.328-.136l.176.512a.887.887,0,0,1-.656.232C96.671,54.678,96.408,54.366,96.408,53.766Z" fill="#0b79bf"/>
      <path d="M100.5,49.249h.688v5.333H100.5Z" fill="#0b79bf"/>
      <path d="M103.775,50.624c1.031,0,1.567.9,1.567,2.047v.2h-2.478c.031.7.4,1.239,1.063,1.239a1.176,1.176,0,0,0,.887-.448l.352.416a1.707,1.707,0,0,1-1.3.6c-1.048,0-1.7-.84-1.7-2.032C102.16,51.527,102.767,50.624,103.775,50.624Zm-.92,1.759h1.815c-.007-.536-.248-1.192-.9-1.192C103.127,51.191,102.879,51.863,102.855,52.383Z" fill="#0b79bf"/>
      <path d="M108.279,54.181a1.243,1.243,0,0,1-1.015.5,1.188,1.188,0,0,1-1.176-1.288,1.167,1.167,0,0,1,1.176-1.263,1.212,1.212,0,0,1,1.015.479v-.615a.7.7,0,0,0-.768-.783,1.311,1.311,0,0,0-.967.455l-.28-.48a1.856,1.856,0,0,1,1.359-.559,1.183,1.183,0,0,1,1.343,1.287v2.671h-.687Zm0-1.1a.882.882,0,0,0-.776-.464.8.8,0,0,0,0,1.583.882.882,0,0,0,.776-.464Z" fill="#0b79bf"/>
      <path d="M110.144,53.646a1.416,1.416,0,0,0,1.031.48c.424,0,.688-.208.688-.535,0-.369-.36-.529-.768-.689-.535-.2-1.151-.431-1.151-1.207a1.129,1.129,0,0,1,1.279-1.071,1.671,1.671,0,0,1,1.224.5l-.3.472a1.15,1.15,0,0,0-.912-.416c-.383,0-.639.2-.639.479,0,.328.344.472.736.632.544.2,1.191.447,1.191,1.264a1.18,1.18,0,0,1-1.336,1.127,1.749,1.749,0,0,1-1.358-.544Z" fill="#0b79bf"/>
      <path d="M113.583,53.766V51.319h-.511v-.6h.511V49.664h.68V50.72h.648v.6h-.648V53.63c0,.272.1.44.3.44a.448.448,0,0,0,.328-.136l.176.512a.888.888,0,0,1-.657.232C113.847,54.678,113.583,54.366,113.583,53.766Z" fill="#0b79bf"/>
      <path d="M117.583,53.966c1.808-1.975,2.351-2.559,2.351-3.294a.786.786,0,0,0-.815-.824,1.287,1.287,0,0,0-1.127.648l-.48-.464a1.871,1.871,0,0,1,1.615-.863,1.473,1.473,0,0,1,1.583,1.5c0,.863-.639,1.631-2.023,3.238h2.047v.672h-3.151Z" fill="#0b79bf"/>
      <path d="M122.206,53.343a1.248,1.248,0,0,0,1.121.655.967.967,0,0,0,.911-1.064c0-.7-.336-1.079-.871-1.079a1.1,1.1,0,0,0-.936.48l-.559-.176v-2.91h2.853v.671H122.63v1.727a1.259,1.259,0,0,1,.984-.456c.776,0,1.4.609,1.4,1.72a1.645,1.645,0,0,1-1.663,1.767,1.788,1.788,0,0,1-1.631-.864Z" fill="#0b79bf"/>
      <path d="M128.039,51.319h-.5v-.6h.5V50.3a1,1,0,0,1,.992-1.135,1.161,1.161,0,0,1,.544.12l-.152.527a.519.519,0,0,0-.248-.063c-.28,0-.448.2-.448.551v.416h.648v.6h-.648v3.263h-.688Z" fill="#0b79bf"/>
      <path d="M131.59,50.624c1.032,0,1.568.9,1.568,2.047v.2h-2.479c.031.7.4,1.239,1.064,1.239a1.174,1.174,0,0,0,.886-.448l.353.416a1.707,1.707,0,0,1-1.3.6c-1.047,0-1.7-.84-1.7-2.032C129.975,51.527,130.582,50.624,131.59,50.624Zm-.92,1.759h1.816c-.008-.536-.248-1.192-.9-1.192C130.943,51.191,130.7,51.863,130.67,52.383Z" fill="#0b79bf"/>
      <path d="M135.527,50.624c1.031,0,1.567.9,1.567,2.047v.2h-2.478c.031.7.4,1.239,1.063,1.239a1.176,1.176,0,0,0,.887-.448l.352.416a1.707,1.707,0,0,1-1.3.6c-1.048,0-1.7-.84-1.7-2.032C133.912,51.527,134.519,50.624,135.527,50.624Zm-.92,1.759h1.815c-.008-.536-.248-1.192-.9-1.192S134.631,51.863,134.607,52.383Z" fill="#0b79bf"/>
      <path d="M138.175,53.766V51.319h-.511v-.6h.511V49.664h.68V50.72h.647v.6h-.647V53.63c0,.272.1.44.3.44a.451.451,0,0,0,.328-.136l.176.512a.888.888,0,0,1-.657.232C138.439,54.678,138.175,54.366,138.175,53.766Z" fill="#0b79bf"/>
      <path d="M140.838,53.7a.48.48,0,1,1-.487.479A.486.486,0,0,1,140.838,53.7Z" fill="#0b79bf"/>
      <path d="M58.336,60.919c0-1.6.816-2.758,2.1-2.758a1.765,1.765,0,0,1,1.647,1.111l-.631.287a1.117,1.117,0,0,0-1.016-.718c-.808,0-1.327.879-1.327,2.078S59.631,63,60.439,63a1.109,1.109,0,0,0,1.016-.783l.639.287a1.768,1.768,0,0,1-1.655,1.176C59.152,63.678,58.336,62.518,58.336,60.919Z" fill="#0b79bf"/>
      <path d="M64.967,63.181a1.242,1.242,0,0,1-1.015.5,1.188,1.188,0,0,1-1.175-1.288,1.167,1.167,0,0,1,1.175-1.263,1.21,1.21,0,0,1,1.015.479v-.615a.7.7,0,0,0-.767-.783,1.31,1.31,0,0,0-.967.455l-.28-.48a1.857,1.857,0,0,1,1.359-.559,1.182,1.182,0,0,1,1.343,1.287v2.671h-.688Zm0-1.1a.881.881,0,0,0-.775-.464.8.8,0,0,0,0,1.583.881.881,0,0,0,.775-.464Z" fill="#0b79bf"/>
      <path d="M66.817,58.249H67.5v5.333h-.687Z" fill="#0b79bf"/>
      <path d="M68.664,58.249h.688v5.333h-.688Z" fill="#0b79bf"/>
      <path d="M72.543,60.319h-.5v-.6h.5V59.3a1,1,0,0,1,.992-1.135,1.161,1.161,0,0,1,.544.12l-.152.527a.519.519,0,0,0-.248-.063c-.28,0-.448.2-.448.551v.416h.648v.6h-.648v3.263h-.688Z" fill="#0b79bf"/>
      <path d="M74.672,59.72h.688v.591a1.3,1.3,0,0,1,1.079-.679v.7a.806.806,0,0,0-.2-.023,1.11,1.11,0,0,0-.879.584v2.694h-.688Z" fill="#0b79bf"/>
      <path d="M77.039,61.646c0-1.087.56-2.022,1.624-2.022s1.623.935,1.623,2.022-.56,2.032-1.623,2.032S77.039,62.734,77.039,61.646Zm2.536,0c0-.735-.281-1.415-.912-1.415s-.9.68-.9,1.415.28,1.424.9,1.424S79.575,62.39,79.575,61.646Z" fill="#0b79bf"/>
      <path d="M85.23,60.839c0-.392-.16-.608-.512-.608a.991.991,0,0,0-.792.576v2.775h-.679V60.839c0-.384-.16-.608-.52-.608a1.015,1.015,0,0,0-.783.576v2.775h-.688V59.72h.688v.536a1.327,1.327,0,0,1,1.063-.632.823.823,0,0,1,.888.687,1.331,1.331,0,0,1,1.095-.687c.584,0,.92.311.92,1.008v2.95h-.68Z" fill="#0b79bf"/>
      <path d="M90.951,63.181a1.243,1.243,0,0,1-1.015.5A1.188,1.188,0,0,1,88.76,62.39a1.167,1.167,0,0,1,1.176-1.263,1.213,1.213,0,0,1,1.015.479v-.615a.7.7,0,0,0-.768-.783,1.31,1.31,0,0,0-.967.455l-.28-.48a1.856,1.856,0,0,1,1.359-.559,1.183,1.183,0,0,1,1.343,1.287v2.671h-.687Zm0-1.1a.883.883,0,0,0-.776-.464.8.8,0,0,0,0,1.583.883.883,0,0,0,.776-.464Z" fill="#0b79bf"/>
      <path d="M94.7,62.646a1.416,1.416,0,0,0,1.031.48c.424,0,.687-.208.687-.535,0-.369-.359-.529-.767-.689-.535-.2-1.151-.431-1.151-1.207a1.129,1.129,0,0,1,1.279-1.071,1.669,1.669,0,0,1,1.223.5l-.3.472a1.154,1.154,0,0,0-.911-.416c-.385,0-.641.2-.641.479,0,.328.345.472.736.632.543.2,1.192.447,1.192,1.264a1.179,1.179,0,0,1-1.336,1.127,1.755,1.755,0,0,1-1.36-.544Z" fill="#0b79bf"/>
      <path d="M99.991,63.181a1.243,1.243,0,0,1-1.016.5A1.188,1.188,0,0,1,97.8,62.39a1.167,1.167,0,0,1,1.175-1.263,1.213,1.213,0,0,1,1.016.479v-.615a.7.7,0,0,0-.768-.783,1.311,1.311,0,0,0-.967.455l-.28-.48a1.857,1.857,0,0,1,1.359-.559,1.182,1.182,0,0,1,1.343,1.287v2.671h-.687Zm0-1.1a.883.883,0,0,0-.776-.464.8.8,0,0,0,0,1.583.883.883,0,0,0,.776-.464Z" fill="#0b79bf"/>
      <path d="M101.992,60.319h-.5v-.6h.5V59.3a1,1,0,0,1,.991-1.135,1.161,1.161,0,0,1,.544.12l-.152.527a.519.519,0,0,0-.248-.063c-.28,0-.448.2-.448.551v.416h.648v.6h-.648v3.263h-.687Z" fill="#0b79bf"/>
      <path d="M105.542,59.624c1.032,0,1.568.9,1.568,2.047v.2h-2.479c.032.7.4,1.239,1.064,1.239a1.174,1.174,0,0,0,.886-.448l.353.416a1.707,1.707,0,0,1-1.3.6c-1.048,0-1.7-.84-1.7-2.032C103.927,60.527,104.535,59.624,105.542,59.624Zm-.92,1.759h1.816c-.008-.536-.248-1.192-.9-1.192C104.9,60.191,104.647,60.863,104.622,61.383Z" fill="#0b79bf"/>
      <path d="M109.936,58.249h.687v5.333h-.687Z" fill="#0b79bf"/>
      <path d="M111.591,61.646c0-1.087.56-2.022,1.623-2.022s1.623.935,1.623,2.022-.559,2.032-1.623,2.032S111.591,62.734,111.591,61.646Zm2.535,0c0-.735-.28-1.415-.912-1.415s-.9.68-.9,1.415.28,1.424.9,1.424S114.126,62.39,114.126,61.646Z" fill="#0b79bf"/>
      <path d="M117.263,59.624a1.363,1.363,0,0,1,1.144.519l-.361.464a.852.852,0,0,0-.719-.376c-.648,0-1,.64-1,1.415s.351,1.424,1,1.424a.869.869,0,0,0,.719-.376l.361.464a1.343,1.343,0,0,1-1.144.52c-1.008,0-1.647-.872-1.647-2.032S116.255,59.624,117.263,59.624Z" fill="#0b79bf"/>
      <path d="M121.254,63.181a1.242,1.242,0,0,1-1.015.5,1.188,1.188,0,0,1-1.175-1.288,1.167,1.167,0,0,1,1.175-1.263,1.21,1.21,0,0,1,1.015.479v-.615a.7.7,0,0,0-.767-.783,1.31,1.31,0,0,0-.967.455l-.28-.48a1.857,1.857,0,0,1,1.359-.559,1.182,1.182,0,0,1,1.343,1.287v2.671h-.688Zm0-1.1a.881.881,0,0,0-.775-.464.8.8,0,0,0,0,1.583.881.881,0,0,0,.775-.464Z" fill="#0b79bf"/>
      <path d="M123.24,62.766V60.319h-.512v-.6h.512V58.664h.679V59.72h.648v.6h-.648V62.63c0,.272.1.44.3.44a.448.448,0,0,0,.328-.136l.176.512a.887.887,0,0,1-.656.232C123.5,63.678,123.24,63.366,123.24,62.766Z" fill="#0b79bf"/>
      <path d="M125.351,58.633a.453.453,0,0,1,.448-.449.448.448,0,0,1,.448.449.44.44,0,0,1-.448.439A.445.445,0,0,1,125.351,58.633Zm.105,1.087h.687v3.862h-.687Z" fill="#0b79bf"/>
      <path d="M127.111,61.646c0-1.087.559-2.022,1.623-2.022s1.623.935,1.623,2.022-.56,2.032-1.623,2.032S127.111,62.734,127.111,61.646Zm2.535,0c0-.735-.28-1.415-.912-1.415s-.9.68-.9,1.415.28,1.424.9,1.424S129.646,62.39,129.646,61.646Z" fill="#0b79bf"/>
      <path d="M133.446,60.9c0-.488-.224-.664-.583-.664a1.037,1.037,0,0,0-.848.576v2.775h-.687V59.72h.687v.536a1.434,1.434,0,0,1,1.119-.632c.672,0,.991.368.991,1.048v2.91h-.679Z" fill="#0b79bf"/>
      <path d="M135.743,62.7a.48.48,0,1,1-.488.479A.486.486,0,0,1,135.743,62.7Z" fill="#0b79bf"/>
    </g>
    <g>
      <path d="M61.081,82.043h1.295v5.332H61.081Z" fill="#0b79bf"/>
      <path d="M63.553,84.521h-.5V83.513h.5v-.232a1.189,1.189,0,0,1,1.239-1.318,1.651,1.651,0,0,1,.7.134l-.192.857a.459.459,0,0,0-.232-.064c-.216,0-.352.143-.352.408v.215h.623v1.008h-.623v2.854H63.553Z" fill="#0b79bf"/>
      <path d="M68.185,87.92a.372.372,0,0,0,.4-.225l.088-.248-1.311-3.934h1.223l.68,2.471.695-2.471h1.223l-1.5,4.438a1.291,1.291,0,0,1-1.415.992,2.121,2.121,0,0,1-.5-.064l.16-1.016A.528.528,0,0,0,68.185,87.92Z" fill="#0b79bf"/>
      <path d="M71.489,85.44a1.844,1.844,0,1,1,1.831,2.031A1.84,1.84,0,0,1,71.489,85.44Zm2.478,0c0-.559-.2-1-.647-1s-.64.44-.64,1,.2,1.007.64,1.007S73.967,86.008,73.967,85.44Z" fill="#0b79bf"/>
      <path d="M78.1,86.912a1.443,1.443,0,0,1-1.144.559A.948.948,0,0,1,75.9,86.424V83.513h1.159v2.448c0,.351.16.486.448.486a.716.716,0,0,0,.6-.4V83.513h1.151v3.862H78.1Z" fill="#0b79bf"/>
      <path d="M82.2,86.129a1.859,1.859,0,0,0,1.1.455c.32,0,.48-.12.48-.313s-.24-.279-.575-.367c-.552-.152-1.329-.344-1.329-1.271,0-.648.521-1.215,1.5-1.215a2.312,2.312,0,0,1,1.423.487l-.447.776a1.454,1.454,0,0,0-.968-.384c-.248,0-.424.1-.424.271s.208.256.544.344c.568.152,1.375.36,1.375,1.312,0,.727-.607,1.247-1.559,1.247a2.291,2.291,0,0,1-1.583-.551Z" fill="#0b79bf"/>
      <path d="M89.815,84.881c0-.28-.111-.44-.384-.44a.71.71,0,0,0-.575.408v2.526H87.705V84.881c0-.264-.105-.44-.393-.44a.706.706,0,0,0-.567.408v2.526h-1.16V83.513h1.16v.48a1.405,1.405,0,0,1,1.1-.575.891.891,0,0,1,.96.664,1.405,1.405,0,0,1,1.151-.664.919.919,0,0,1,1.015,1.031v2.926H89.815Z" fill="#0b79bf"/>
      <path d="M93.52,83.418c1.087,0,1.727.84,1.727,2.078v.32H92.872a.79.79,0,0,0,.847.744,1.154,1.154,0,0,0,.792-.336l.512.7a2.054,2.054,0,0,1-1.44.551,2.036,2.036,0,0,1-.063-4.053Zm-.656,1.623h1.279c-.016-.313-.159-.712-.64-.712C93.039,84.329,92.888,84.728,92.864,85.041Z" fill="#0b79bf"/>
      <path d="M95.953,82.043h1.159v5.332H95.953Z" fill="#0b79bf"/>
      <path d="M98.048,82.043h1.159v5.332H98.048Z" fill="#0b79bf"/>
      <path d="M104.175,84.937c0-.352-.168-.5-.448-.5a.712.712,0,0,0-.6.408v2.526h-1.159V83.513h1.159v.48a1.413,1.413,0,0,1,1.136-.575.965.965,0,0,1,1.071,1.062v2.895h-1.159Z" fill="#0b79bf"/>
      <path d="M108.288,87a1.3,1.3,0,0,1-1.016.471,1.2,1.2,0,0,1-1.207-1.28,1.144,1.144,0,0,1,1.207-1.23,1.277,1.277,0,0,1,1.016.439v-.447a.6.6,0,0,0-.68-.6,1.474,1.474,0,0,0-.951.4l-.409-.776a2.412,2.412,0,0,1,1.584-.559c.879,0,1.607.375,1.607,1.415v2.542h-1.151Zm0-.985a.634.634,0,0,0-.56-.3.5.5,0,1,0,0,1,.636.636,0,0,0,.56-.3Z" fill="#0b79bf"/>
      <path d="M110.568,86.376V84.521h-.487V83.513h.487V82.458h1.16v1.055h.623v1.008h-.623v1.567c0,.224.088.359.264.359a.393.393,0,0,0,.263-.088l.208.9a1.3,1.3,0,0,1-.8.215A.964.964,0,0,1,110.568,86.376Z" fill="#0b79bf"/>
      <path d="M115.272,86.912a1.443,1.443,0,0,1-1.144.559.948.948,0,0,1-1.063-1.047V83.513h1.159v2.448c0,.351.16.486.448.486a.716.716,0,0,0,.6-.4V83.513h1.151v3.862h-1.151Z" fill="#0b79bf"/>
      <path d="M117.369,83.513h1.159v.5a1.343,1.343,0,0,1,1.031-.592v1.119a.989.989,0,0,0-1.031.351v2.487h-1.159Z" fill="#0b79bf"/>
      <path d="M122.231,87a1.3,1.3,0,0,1-1.016.471,1.2,1.2,0,0,1-1.207-1.28,1.144,1.144,0,0,1,1.207-1.23,1.275,1.275,0,0,1,1.016.439v-.447a.6.6,0,0,0-.68-.6,1.474,1.474,0,0,0-.951.4l-.408-.776a2.409,2.409,0,0,1,1.584-.559c.879,0,1.606.375,1.606,1.415v2.542h-1.151Zm0-.985a.633.633,0,0,0-.56-.3.5.5,0,1,0,0,1,.634.634,0,0,0,.56-.3Z" fill="#0b79bf"/>
      <path d="M124.32,82.043h1.159v5.332H124.32Z" fill="#0b79bf"/>
      <path d="M128.639,87.575a1.352,1.352,0,0,0,.992.4.756.756,0,0,0,.808-.838v-.392a1.12,1.12,0,0,1-.952.56c-.864,0-1.448-.656-1.448-1.943,0-1.256.577-1.943,1.448-1.943a1.1,1.1,0,0,1,.952.551v-.456h1.151v3.6a1.691,1.691,0,0,1-1.9,1.832,2.141,2.141,0,0,1-1.487-.5Zm1.8-2.782a.685.685,0,0,0-.561-.352c-.423,0-.655.336-.655.92s.232.927.655.927a.677.677,0,0,0,.561-.36Z" fill="#0b79bf"/>
      <path d="M134.55,87a1.3,1.3,0,0,1-1.015.471,1.2,1.2,0,0,1-1.207-1.28,1.144,1.144,0,0,1,1.207-1.23,1.274,1.274,0,0,1,1.015.439v-.447a.6.6,0,0,0-.679-.6,1.474,1.474,0,0,0-.952.4l-.408-.776a2.41,2.41,0,0,1,1.584-.559c.879,0,1.607.375,1.607,1.415v2.542H134.55Zm0-.985a.632.632,0,0,0-.559-.3.5.5,0,1,0,0,1,.634.634,0,0,0,.559-.3Z" fill="#0b79bf"/>
      <path d="M136.816,86.129a1.864,1.864,0,0,0,1.1.455c.319,0,.479-.12.479-.313s-.24-.279-.575-.367c-.552-.152-1.328-.344-1.328-1.271,0-.648.52-1.215,1.5-1.215a2.311,2.311,0,0,1,1.422.487l-.447.776A1.454,1.454,0,0,0,138,84.3c-.248,0-.423.1-.423.271s.208.256.544.344c.567.152,1.375.36,1.375,1.312,0,.727-.608,1.247-1.56,1.247a2.291,2.291,0,0,1-1.583-.551Z" fill="#0b79bf"/>
      <path d="M140.872,86.04a.712.712,0,1,1-.72.712A.723.723,0,0,1,140.872,86.04Z" fill="#0b79bf"/>
      <path d="M61.194,91.043h.759v5.332h-.759Z" fill="#0b79bf"/>
      <path d="M63.305,93.113h-.5v-.6h.5V92.1a1,1,0,0,1,.991-1.134,1.158,1.158,0,0,1,.544.119l-.151.527a.53.53,0,0,0-.248-.062c-.28,0-.448.2-.448.55v.416h.647v.6h-.647v3.262h-.688Z" fill="#0b79bf"/>
      <path d="M67.45,95.56V93.113h-.512v-.6h.512V91.458h.679v1.055h.648v.6h-.648v2.311c0,.271.1.439.3.439a.447.447,0,0,0,.328-.135l.176.512a.891.891,0,0,1-.656.231C67.713,96.471,67.45,96.16,67.45,95.56Z" fill="#0b79bf"/>
      <path d="M71.784,93.673c0-.48-.224-.648-.583-.648a1.046,1.046,0,0,0-.848.576v2.774h-.688V91.043h.688v2.006a1.449,1.449,0,0,1,1.127-.631c.672,0,.991.344.991,1.039v2.918h-.687Z" fill="#0b79bf"/>
      <path d="M75.056,92.418c1.031,0,1.567.9,1.567,2.047v.2H74.145c.031.7.4,1.24,1.063,1.24a1.174,1.174,0,0,0,.887-.448l.353.415a1.7,1.7,0,0,1-1.3.6c-1.047,0-1.7-.839-1.7-2.031C73.441,93.321,74.048,92.418,75.056,92.418Zm-.92,1.759h1.816c-.008-.537-.248-1.192-.9-1.192C74.409,92.985,74.161,93.656,74.136,94.177Z" fill="#0b79bf"/>
      <path d="M80.385,91.226a1.2,1.2,0,0,0-.536.744.724.724,0,0,1,.112-.016.425.425,0,0,1,.415.448.47.47,0,0,1-.471.463c-.28,0-.528-.232-.528-.647a1.59,1.59,0,0,1,.672-1.255Zm1.351,0a1.2,1.2,0,0,0-.535.744.665.665,0,0,1,.111-.016.426.426,0,0,1,.416.448.471.471,0,0,1-.472.463.575.575,0,0,1-.536-.647,1.6,1.6,0,0,1,.68-1.255Z" fill="#0b79bf"/>
      <path d="M82.849,92.513h.688v.592a1.3,1.3,0,0,1,1.079-.679v.695a.808.808,0,0,0-.2-.024,1.112,1.112,0,0,0-.878.584v2.694h-.688Z" fill="#0b79bf"/>
      <path d="M85.217,94.44c0-1.087.56-2.022,1.623-2.022s1.623.935,1.623,2.022-.559,2.031-1.623,2.031S85.217,95.527,85.217,94.44Zm2.535,0c0-.735-.28-1.415-.912-1.415s-.9.68-.9,1.415.28,1.423.9,1.423S87.752,95.183,87.752,94.44Z" fill="#0b79bf"/>
      <path d="M89.569,95.56V93.113h-.512v-.6h.512V91.458h.679v1.055H90.9v.6h-.648v2.311c0,.271.1.439.3.439a.447.447,0,0,0,.328-.135l.176.512a.891.891,0,0,1-.656.231C89.832,96.471,89.569,96.16,89.569,95.56Z" fill="#0b79bf"/>
      <path d="M91.92,95.56V93.113h-.511v-.6h.511V91.458h.68v1.055h.647v.6H92.6v2.311c0,.271.1.439.3.439a.449.449,0,0,0,.328-.135l.176.512a.892.892,0,0,1-.657.231C92.184,96.471,91.92,96.16,91.92,95.56Z" fill="#0b79bf"/>
      <path d="M95.56,92.418c1.031,0,1.567.9,1.567,2.047v.2H94.649c.031.7.4,1.24,1.063,1.24a1.174,1.174,0,0,0,.887-.448l.353.415a1.707,1.707,0,0,1-1.3.6c-1.047,0-1.7-.839-1.7-2.031C93.945,93.321,94.552,92.418,95.56,92.418Zm-.92,1.759h1.816c-.008-.537-.249-1.192-.9-1.192C94.913,92.985,94.664,93.656,94.64,94.177Z" fill="#0b79bf"/>
      <path d="M100.191,93.689c0-.488-.224-.664-.583-.664a1.035,1.035,0,0,0-.848.576v2.774h-.687V92.513h.687v.536a1.436,1.436,0,0,1,1.119-.631c.672,0,.992.367.992,1.047v2.91h-.68Z" fill="#0b79bf"/>
      <path d="M105.343,92.418c1.031,0,1.568.9,1.568,2.047v.2h-2.479c.031.7.4,1.24,1.064,1.24a1.174,1.174,0,0,0,.886-.448l.353.415a1.7,1.7,0,0,1-1.3.6c-1.047,0-1.7-.839-1.7-2.031C103.728,93.321,104.335,92.418,105.343,92.418Zm-.92,1.759h1.816c-.008-.537-.248-1.192-.9-1.192C104.7,92.985,104.448,93.656,104.423,94.177Z" fill="#0b79bf"/>
      <path d="M108.128,96.92a1.25,1.25,0,0,0,1,.439.887.887,0,0,0,.936-1.008V95.76a1.191,1.191,0,0,1-1,.639c-.863,0-1.4-.759-1.4-1.991,0-1.207.529-1.99,1.4-1.99a1.153,1.153,0,0,1,1,.631v-.536h.688V96.3a1.456,1.456,0,0,1-1.6,1.639,1.763,1.763,0,0,1-1.327-.488Zm1.935-3.311a.965.965,0,0,0-.808-.584c-.591,0-.879.6-.879,1.383s.288,1.384.879,1.384a.966.966,0,0,0,.808-.584Z" fill="#0b79bf"/>
      <path d="M112.184,96.92a1.25,1.25,0,0,0,1,.439.887.887,0,0,0,.936-1.008V95.76a1.192,1.192,0,0,1-1,.639c-.864,0-1.4-.759-1.4-1.991,0-1.207.527-1.99,1.4-1.99a1.154,1.154,0,0,1,1,.631v-.536h.687V96.3a1.455,1.455,0,0,1-1.6,1.639,1.766,1.766,0,0,1-1.327-.488Zm1.935-3.311a.965.965,0,0,0-.808-.584c-.591,0-.879.6-.879,1.383s.288,1.384.879,1.384a.966.966,0,0,0,.808-.584Z" fill="#0b79bf"/>
      <path d="M115.928,92.609a1.267,1.267,0,0,0,.535-.752.32.32,0,0,1-.111.025.428.428,0,0,1-.424-.449.472.472,0,0,1,.472-.47c.287,0,.535.231.535.646a1.59,1.59,0,0,1-.68,1.264Zm1.351,0a1.269,1.269,0,0,0,.536-.752.34.34,0,0,1-.12.025.427.427,0,0,1-.416-.449.472.472,0,0,1,.471-.47c.289,0,.537.231.537.646a1.615,1.615,0,0,1-.68,1.264Z" fill="#0b79bf"/>
      <path d="M121.056,94.44c0-1.087.56-2.022,1.623-2.022s1.623.935,1.623,2.022-.559,2.031-1.623,2.031S121.056,95.527,121.056,94.44Zm2.535,0c0-.735-.28-1.415-.912-1.415s-.9.68-.9,1.415.28,1.423.9,1.423S123.591,95.183,123.591,94.44Z" fill="#0b79bf"/>
      <path d="M127.488,95.847a1.217,1.217,0,0,1-1.008.624c-.863,0-1.4-.791-1.4-2.022,0-1.208.528-2.031,1.4-2.031a1.177,1.177,0,0,1,1.008.631V91.043h.679v5.332h-.679Zm0-2.238a.989.989,0,0,0-.817-.584c-.59,0-.879.631-.879,1.424s.289,1.414.879,1.414a.981.981,0,0,0,.817-.575Z" fill="#0b79bf"/>
      <path d="M129.144,94.44c0-1.087.56-2.022,1.623-2.022s1.623.935,1.623,2.022-.559,2.031-1.623,2.031S129.144,95.527,129.144,94.44Zm2.535,0c0-.735-.28-1.415-.912-1.415s-.9.68-.9,1.415.28,1.423.9,1.423S131.679,95.183,131.679,94.44Z" fill="#0b79bf"/>
      <path d="M133.361,92.513h.687v.592a1.3,1.3,0,0,1,1.079-.679v.695a.8.8,0,0,0-.2-.024,1.112,1.112,0,0,0-.879.584v2.694h-.687Z" fill="#0b79bf"/>
      <path d="M137.608,94.44c0-1.087.559-2.022,1.623-2.022s1.623.935,1.623,2.022-.56,2.031-1.623,2.031S137.608,95.527,137.608,94.44Zm2.535,0c0-.735-.28-1.415-.912-1.415s-.9.68-.9,1.415.28,1.423.9,1.423S140.143,95.183,140.143,94.44Z" fill="#0b79bf"/>
      <path d="M141.976,93.113h-.5v-.6h.5V92.1a1,1,0,0,1,.991-1.134,1.158,1.158,0,0,1,.544.119l-.151.527a.53.53,0,0,0-.248-.062c-.281,0-.448.2-.448.55v.416h.648v.6h-.648v3.262h-.688Z" fill="#0b79bf"/>
      <path d="M61.425,105.92a1.25,1.25,0,0,0,1,.439.887.887,0,0,0,.936-1.008v-.591a1.192,1.192,0,0,1-1,.639c-.864,0-1.4-.759-1.4-1.991,0-1.207.529-1.99,1.4-1.99a1.153,1.153,0,0,1,1,.631v-.536h.688V105.3a1.456,1.456,0,0,1-1.6,1.639,1.763,1.763,0,0,1-1.327-.488Zm1.935-3.311a.965.965,0,0,0-.808-.584c-.591,0-.879.6-.879,1.383s.288,1.384.879,1.384a.966.966,0,0,0,.808-.584Z" fill="#0b79bf"/>
      <path d="M67.2,104.975a1.242,1.242,0,0,1-1.015.5,1.188,1.188,0,0,1-1.176-1.288,1.167,1.167,0,0,1,1.176-1.262,1.21,1.21,0,0,1,1.015.479v-.615a.7.7,0,0,0-.768-.783,1.308,1.308,0,0,0-.967.455l-.28-.48a1.856,1.856,0,0,1,1.359-.559,1.182,1.182,0,0,1,1.343,1.287v2.67H67.2Zm0-1.1a.882.882,0,0,0-.776-.465.8.8,0,0,0,0,1.584.882.882,0,0,0,.776-.465Z" fill="#0b79bf"/>
      <path d="M69.065,104.439a1.417,1.417,0,0,0,1.031.481c.424,0,.688-.208.688-.535,0-.37-.36-.529-.768-.689-.535-.2-1.151-.432-1.151-1.207a1.129,1.129,0,0,1,1.279-1.071,1.667,1.667,0,0,1,1.224.5l-.3.471a1.15,1.15,0,0,0-.912-.416c-.383,0-.639.2-.639.48,0,.328.344.472.735.631.544.2,1.192.448,1.192,1.264a1.179,1.179,0,0,1-1.336,1.127,1.752,1.752,0,0,1-1.358-.543Z" fill="#0b79bf"/>
      <path d="M74.145,100.426a.452.452,0,0,1,.448-.448.446.446,0,0,1,.447.448.439.439,0,0,1-.447.439A.445.445,0,0,1,74.145,100.426Zm.1,1.087h.688v3.862h-.688Z" fill="#0b79bf"/>
      <path d="M76.113,104.439a1.417,1.417,0,0,0,1.031.481c.424,0,.687-.208.687-.535,0-.37-.359-.529-.767-.689-.535-.2-1.151-.432-1.151-1.207a1.129,1.129,0,0,1,1.279-1.071,1.665,1.665,0,0,1,1.223.5l-.3.471a1.154,1.154,0,0,0-.911-.416c-.385,0-.641.2-.641.48,0,.328.345.472.736.631.543.2,1.192.448,1.192,1.264a1.179,1.179,0,0,1-1.336,1.127,1.758,1.758,0,0,1-1.36-.543Z" fill="#0b79bf"/>
      <path d="M83.288,104.975a1.243,1.243,0,0,1-1.015.5,1.188,1.188,0,0,1-1.176-1.288,1.167,1.167,0,0,1,1.176-1.262,1.21,1.21,0,0,1,1.015.479v-.615A.7.7,0,0,0,82.52,102a1.306,1.306,0,0,0-.967.455l-.28-.48a1.856,1.856,0,0,1,1.359-.559,1.182,1.182,0,0,1,1.343,1.287v2.67h-.687Zm0-1.1a.882.882,0,0,0-.776-.465.8.8,0,0,0,0,1.584.882.882,0,0,0,.776-.465Z" fill="#0b79bf"/>
      <path d="M85.137,106.846v-5.333h.688v.528a1.191,1.191,0,0,1,1-.623c.872,0,1.4.791,1.4,2.022s-.527,2.031-1.4,2.031a1.145,1.145,0,0,1-1-.639v2.014Zm1.5-4.821a.974.974,0,0,0-.807.576v1.679a.982.982,0,0,0,.807.583c.592,0,.879-.631.879-1.423S87.224,102.025,86.632,102.025Z" fill="#0b79bf"/>
      <path d="M89.194,106.846v-5.333h.687v.528a1.194,1.194,0,0,1,1-.623c.872,0,1.4.791,1.4,2.022s-.528,2.031-1.4,2.031a1.147,1.147,0,0,1-1-.639v2.014Zm1.495-4.821a.977.977,0,0,0-.808.576v1.679a.985.985,0,0,0,.808.583c.592,0,.879-.631.879-1.423S91.281,102.025,90.689,102.025Z" fill="#0b79bf"/>
      <path d="M95.24,104.975a1.243,1.243,0,0,1-1.016.5,1.188,1.188,0,0,1-1.175-1.288,1.166,1.166,0,0,1,1.175-1.262,1.211,1.211,0,0,1,1.016.479v-.615a.7.7,0,0,0-.768-.783,1.308,1.308,0,0,0-.967.455l-.28-.48a1.857,1.857,0,0,1,1.359-.559,1.182,1.182,0,0,1,1.343,1.287v2.67H95.24Zm0-1.1a.881.881,0,0,0-.776-.465.8.8,0,0,0,0,1.584.881.881,0,0,0,.776-.465Z" fill="#0b79bf"/>
      <path d="M97.089,101.513h.688v.592a1.3,1.3,0,0,1,1.079-.679v.695a.806.806,0,0,0-.2-.024,1.112,1.112,0,0,0-.879.584v2.694h-.688Z" fill="#0b79bf"/>
      <path d="M101.072,101.418c1.031,0,1.567.9,1.567,2.047v.2h-2.478c.031.7.4,1.24,1.063,1.24a1.176,1.176,0,0,0,.887-.448l.352.415a1.7,1.7,0,0,1-1.3.6c-1.047,0-1.7-.839-1.7-2.031C99.456,102.321,100.064,101.418,101.072,101.418Zm-.92,1.759h1.815c-.008-.537-.248-1.192-.9-1.192C100.424,101.985,100.176,102.656,100.152,103.177Z" fill="#0b79bf"/>
      <path d="M105.7,102.689c0-.488-.224-.664-.583-.664a1.035,1.035,0,0,0-.848.576v2.774h-.688v-3.862h.688v.536a1.434,1.434,0,0,1,1.119-.631c.672,0,.991.367.991,1.047v2.91H105.7Z" fill="#0b79bf"/>
      <path d="M107.689,104.56v-2.447h-.512v-.6h.512v-1.055h.68v1.055h.647v.6h-.647v2.311c0,.271.095.439.3.439a.447.447,0,0,0,.328-.135l.176.512a.889.889,0,0,1-.656.231C107.953,105.471,107.689,105.16,107.689,104.56Z" fill="#0b79bf"/>
      <path d="M109.865,106.142a1.265,1.265,0,0,0,.535-.751.358.358,0,0,1-.111.017.421.421,0,0,1-.424-.44.473.473,0,0,1,.471-.472c.288,0,.536.232.536.647a1.591,1.591,0,0,1-.68,1.263Z" fill="#0b79bf"/>
      <path d="M115.288,101.418a1.361,1.361,0,0,1,1.143.519l-.36.463a.852.852,0,0,0-.72-.375c-.647,0-1,.64-1,1.415s.352,1.423,1,1.423a.87.87,0,0,0,.72-.375l.36.463a1.338,1.338,0,0,1-1.143.52c-1.008,0-1.648-.872-1.648-2.031S114.28,101.418,115.288,101.418Z" fill="#0b79bf"/>
      <path d="M119.279,104.975a1.243,1.243,0,0,1-1.016.5,1.188,1.188,0,0,1-1.175-1.288,1.166,1.166,0,0,1,1.175-1.262,1.21,1.21,0,0,1,1.016.479v-.615a.7.7,0,0,0-.768-.783,1.308,1.308,0,0,0-.967.455l-.28-.48a1.857,1.857,0,0,1,1.359-.559,1.182,1.182,0,0,1,1.343,1.287v2.67h-.687Zm0-1.1a.881.881,0,0,0-.776-.465.8.8,0,0,0,0,1.584.881.881,0,0,0,.776-.465Z" fill="#0b79bf"/>
      <path d="M121.128,100.043h.688v5.332h-.688Z" fill="#0b79bf"/>
      <path d="M122.977,100.043h.687v5.332h-.687Z" fill="#0b79bf"/>
      <path d="M126.856,102.113h-.5v-.6h.5V101.1a1,1,0,0,1,.991-1.134,1.158,1.158,0,0,1,.544.119l-.151.527a.533.533,0,0,0-.248-.062c-.281,0-.449.2-.449.55v.416h.648v.6h-.648v3.262h-.687Z" fill="#0b79bf"/>
      <path d="M128.985,101.513h.687v.592a1.3,1.3,0,0,1,1.079-.679v.695a.8.8,0,0,0-.2-.024,1.111,1.111,0,0,0-.879.584v2.694h-.687Z" fill="#0b79bf"/>
      <path d="M131.352,103.44c0-1.087.56-2.022,1.623-2.022s1.623.935,1.623,2.022-.559,2.031-1.623,2.031S131.352,104.527,131.352,103.44Zm2.535,0c0-.735-.28-1.415-.912-1.415s-.9.68-.9,1.415.28,1.423.9,1.423S133.887,104.183,133.887,103.44Z" fill="#0b79bf"/>
      <path d="M139.542,102.633c0-.392-.16-.608-.511-.608a.987.987,0,0,0-.792.576v2.774h-.68v-2.742c0-.384-.159-.608-.52-.608a1.016,1.016,0,0,0-.783.576v2.774h-.687v-3.862h.687v.536a1.331,1.331,0,0,1,1.064-.631.82.82,0,0,1,.886.687,1.334,1.334,0,0,1,1.1-.687c.584,0,.92.311.92,1.008v2.949h-.68Z" fill="#0b79bf"/>
      <path d="M145.262,104.975a1.241,1.241,0,0,1-1.015.5,1.187,1.187,0,0,1-1.175-1.288,1.166,1.166,0,0,1,1.175-1.262,1.208,1.208,0,0,1,1.015.479v-.615A.7.7,0,0,0,144.5,102a1.3,1.3,0,0,0-.967.455l-.281-.48a1.858,1.858,0,0,1,1.36-.559,1.182,1.182,0,0,1,1.343,1.287v2.67h-.688Zm0-1.1a.88.88,0,0,0-.775-.465.8.8,0,0,0,0,1.584.88.88,0,0,0,.775-.465Z" fill="#0b79bf"/>
      <path d="M61.169,113.439a1.421,1.421,0,0,0,1.032.481c.423,0,.687-.208.687-.535,0-.37-.359-.529-.767-.689-.536-.2-1.152-.432-1.152-1.207a1.129,1.129,0,0,1,1.279-1.071,1.666,1.666,0,0,1,1.224.5l-.3.471a1.151,1.151,0,0,0-.911-.416c-.385,0-.64.2-.64.48,0,.328.344.472.736.631.543.2,1.191.448,1.191,1.264,0,.656-.519,1.127-1.336,1.127a1.756,1.756,0,0,1-1.359-.543Z" fill="#0b79bf"/>
      <path d="M66.464,113.975a1.241,1.241,0,0,1-1.015.5,1.188,1.188,0,0,1-1.175-1.288,1.166,1.166,0,0,1,1.175-1.262,1.208,1.208,0,0,1,1.015.479v-.615A.7.7,0,0,0,65.7,111a1.306,1.306,0,0,0-.967.455l-.28-.48a1.857,1.857,0,0,1,1.359-.559,1.182,1.182,0,0,1,1.343,1.287v2.67h-.688Zm0-1.1a.88.88,0,0,0-.775-.465.8.8,0,0,0,0,1.584.88.88,0,0,0,.775-.465Z" fill="#0b79bf"/>
      <path d="M68.465,111.113h-.5v-.6h.5V110.1a1,1,0,0,1,.991-1.134,1.158,1.158,0,0,1,.544.119l-.151.527a.53.53,0,0,0-.248-.062c-.28,0-.448.2-.448.55v.416H69.8v.6h-.647v3.262h-.688Z" fill="#0b79bf"/>
      <path d="M72.016,110.418c1.031,0,1.567.9,1.567,2.047v.2H71.105c.031.7.4,1.24,1.063,1.24a1.174,1.174,0,0,0,.887-.448l.353.415a1.705,1.705,0,0,1-1.3.6c-1.048,0-1.7-.839-1.7-2.031C70.4,111.321,71.008,110.418,72.016,110.418Zm-.92,1.759h1.816c-.008-.537-.248-1.192-.9-1.192C71.369,110.985,71.121,111.656,71.1,112.177Z" fill="#0b79bf"/>
      <path d="M76.41,109.043H77.1v5.332H76.41Z" fill="#0b79bf"/>
      <path d="M78.065,112.44c0-1.087.559-2.022,1.623-2.022s1.623.935,1.623,2.022-.56,2.031-1.623,2.031S78.065,113.527,78.065,112.44Zm2.535,0c0-.735-.28-1.415-.912-1.415s-.9.68-.9,1.415.28,1.423.9,1.423S80.6,113.183,80.6,112.44Z" fill="#0b79bf"/>
      <path d="M83.737,110.418a1.361,1.361,0,0,1,1.143.519l-.36.463a.852.852,0,0,0-.72-.375c-.647,0-1,.64-1,1.415s.352,1.423,1,1.423a.87.87,0,0,0,.72-.375l.36.463a1.338,1.338,0,0,1-1.143.52c-1.008,0-1.648-.872-1.648-2.031S82.729,110.418,83.737,110.418Z" fill="#0b79bf"/>
      <path d="M87.728,113.975a1.241,1.241,0,0,1-1.016.5,1.187,1.187,0,0,1-1.174-1.288,1.166,1.166,0,0,1,1.174-1.262,1.208,1.208,0,0,1,1.016.479v-.615A.7.7,0,0,0,86.96,111a1.3,1.3,0,0,0-.966.455l-.281-.48a1.858,1.858,0,0,1,1.36-.559,1.181,1.181,0,0,1,1.342,1.287v2.67h-.687Zm0-1.1a.88.88,0,0,0-.775-.465.8.8,0,0,0,0,1.584.88.88,0,0,0,.775-.465Z" fill="#0b79bf"/>
      <path d="M89.713,113.56v-2.447H89.2v-.6h.511v-1.055h.68v1.055h.647v.6h-.647v2.311c0,.271.1.439.3.439a.449.449,0,0,0,.328-.135l.176.512a.892.892,0,0,1-.657.231C89.977,114.471,89.713,114.16,89.713,113.56Z" fill="#0b79bf"/>
      <path d="M91.825,109.426a.452.452,0,0,1,.448-.448.446.446,0,0,1,.447.448.439.439,0,0,1-.447.439A.445.445,0,0,1,91.825,109.426Zm.1,1.087h.688v3.862h-.688Z" fill="#0b79bf"/>
      <path d="M93.584,112.44c0-1.087.56-2.022,1.623-2.022s1.624.935,1.624,2.022-.56,2.031-1.624,2.031S93.584,113.527,93.584,112.44Zm2.536,0c0-.735-.281-1.415-.913-1.415s-.9.68-.9,1.415.28,1.423.9,1.423S96.12,113.183,96.12,112.44Z" fill="#0b79bf"/>
      <path d="M99.919,111.689c0-.488-.223-.664-.583-.664a1.033,1.033,0,0,0-.847.576v2.774H97.8v-3.862h.688v.536a1.434,1.434,0,0,1,1.119-.631c.672,0,.991.367.991,1.047v2.91h-.68Z" fill="#0b79bf"/>
      <path d="M102.216,113.5a.48.48,0,1,1-.487.479A.486.486,0,0,1,102.216,113.5Z" fill="#0b79bf"/>
    </g>
    <g>
      <circle cx="29.033" cy="54.429" r="17.141" fill="#0b79bf"/>
      <circle cx="29.033" cy="54.429" r="15.238" fill="none" stroke="#fff" stroke-miterlimit="10"/>
    </g>
    <circle cx="29.033" cy="99.08" r="17.141" fill="#0b79bf"/>
    <circle cx="29.033" cy="99.08" r="15.238" fill="none" stroke="#fff" stroke-miterlimit="10"/>
    <g>
      <path d="M53.325,139.321h2.742v.56h-2.1v1.767h2.047v.56H53.965v2.446h-.64Z" fill="#231f20"/>
      <path d="M56.966,142.72c0-1.088.544-2.024,1.567-2.024,1.039,0,1.575.936,1.575,2.024s-.536,2.03-1.575,2.03C57.51,144.75,56.966,143.806,56.966,142.72Zm2.542,0c0-.776-.3-1.512-.975-1.512-.664,0-.968.736-.968,1.512s.3,1.518.968,1.518C59.213,144.238,59.508,143.5,59.508,142.72Z" fill="#231f20"/>
      <path d="M61.228,139.321H61.8v5.333h-.569Z" fill="#231f20"/>
      <path d="M65.315,144.1a1.2,1.2,0,0,1-1.015.648c-.864,0-1.383-.807-1.383-2.023,0-1.2.512-2.031,1.383-2.031a1.165,1.165,0,0,1,1.015.656v-2.031h.577v5.333h-.577Zm0-2.262a1.032,1.032,0,0,0-.871-.632c-.632,0-.927.68-.927,1.519s.295,1.511.927,1.511a1.023,1.023,0,0,0,.871-.623Z" fill="#231f20"/>
      <path d="M67.134,145.43a1.221,1.221,0,0,0,.511-.744c-.016,0-.072.008-.1.008a.374.374,0,0,1-.376-.391.416.416,0,0,1,.416-.424c.256,0,.479.216.479.6a1.5,1.5,0,0,1-.639,1.184Z" fill="#231f20"/>
      <path d="M73.468,144.1a1.207,1.207,0,0,1-1.016.648c-.863,0-1.383-.807-1.383-2.023,0-1.2.512-2.031,1.383-2.031a1.167,1.167,0,0,1,1.016.656v-2.031h.576v5.333h-.576Zm0-2.262a1.034,1.034,0,0,0-.871-.632c-.632,0-.928.68-.928,1.519s.3,1.511.928,1.511a1.024,1.024,0,0,0,.871-.623Z" fill="#231f20"/>
      <path d="M76.732,140.7c1.015,0,1.527.912,1.527,2.039v.176h-2.5c.023.776.424,1.359,1.111,1.359a1.19,1.19,0,0,0,.919-.471l.3.336a1.611,1.611,0,0,1-1.272.615c-1.031,0-1.655-.847-1.655-2.03C75.165,141.6,75.757,140.7,76.732,140.7Zm-.975,1.791h1.934c-.007-.591-.263-1.31-.967-1.31C76.045,141.177,75.772,141.92,75.757,142.487Z" fill="#231f20"/>
      <path d="M79.469,143.879V141.3h-.512v-.5h.512v-1.056h.576v1.056H80.7v.5h-.655v2.479c0,.3.088.463.311.463a.431.431,0,0,0,.336-.151l.176.431a.831.831,0,0,1-.624.232C79.717,144.75,79.469,144.455,79.469,143.879Z" fill="#231f20"/>
      <path d="M83.7,144.238a1.206,1.206,0,0,1-1.015.512,1.185,1.185,0,0,1-1.167-1.287,1.168,1.168,0,0,1,1.167-1.272,1.206,1.206,0,0,1,1.015.5v-.672a.733.733,0,0,0-.792-.823,1.229,1.229,0,0,0-.967.472l-.256-.407A1.769,1.769,0,0,1,83,140.7a1.137,1.137,0,0,1,1.279,1.256v2.7H83.7Zm0-1.127a.928.928,0,0,0-.832-.5.866.866,0,0,0,0,1.72.934.934,0,0,0,.832-.489Z" fill="#231f20"/>
      <path d="M86.987,140.7a1.319,1.319,0,0,1,1.1.512l-.312.392a.869.869,0,0,0-.744-.392c-.687,0-1.047.688-1.047,1.512s.36,1.518,1.047,1.518a.886.886,0,0,0,.744-.392l.312.392a1.3,1.3,0,0,1-1.1.512c-.991,0-1.6-.887-1.6-2.03S86,140.7,86.987,140.7Z" fill="#231f20"/>
      <path d="M91.18,141.9c0-.511-.241-.688-.624-.688a1.128,1.128,0,0,0-.9.616v2.83h-.568v-5.333h.568v2.024a1.448,1.448,0,0,1,1.127-.649c.656,0,.968.328.968,1.032v2.926H91.18Z" fill="#231f20"/>
      <path d="M97.019,144.238A1.206,1.206,0,0,1,96,144.75a1.186,1.186,0,0,1-1.167-1.287A1.168,1.168,0,0,1,96,142.191a1.206,1.206,0,0,1,1.015.5v-.672a.733.733,0,0,0-.792-.823,1.227,1.227,0,0,0-.966.472l-.256-.407a1.766,1.766,0,0,1,1.31-.561,1.138,1.138,0,0,1,1.28,1.256v2.7h-.576Zm0-1.127a.927.927,0,0,0-.832-.5.866.866,0,0,0,0,1.72.933.933,0,0,0,.832-.489Z" fill="#231f20"/>
      <path d="M100.987,141.9c0-.512-.231-.7-.615-.7a1.125,1.125,0,0,0-.9.616v2.83H98.9v-3.861h.569v.552a1.432,1.432,0,0,1,1.119-.649c.655,0,.975.353.975,1.048v2.91h-.576Z" fill="#231f20"/>
      <path d="M105.083,144.1a1.205,1.205,0,0,1-1.016.648c-.863,0-1.382-.807-1.382-2.023,0-1.2.511-2.031,1.382-2.031a1.166,1.166,0,0,1,1.016.656v-2.031h.576v5.333h-.576Zm0-2.262a1.034,1.034,0,0,0-.871-.632c-.632,0-.928.68-.928,1.519s.3,1.511.928,1.511a1.024,1.024,0,0,0,.871-.623Z" fill="#231f20"/>
      <path d="M112.851,141.856c0-.416-.168-.648-.537-.648a1.058,1.058,0,0,0-.838.616v2.83H110.9v-2.8c0-.416-.168-.648-.544-.648a1.083,1.083,0,0,0-.838.616v2.83h-.569v-3.861h.569v.552a1.331,1.331,0,0,1,1.054-.649.813.813,0,0,1,.872.689,1.327,1.327,0,0,1,1.087-.689c.569,0,.9.313.9,1.008v2.95h-.575Z" fill="#231f20"/>
      <path d="M116.724,144.238a1.206,1.206,0,0,1-1.016.512,1.186,1.186,0,0,1-1.167-1.287,1.168,1.168,0,0,1,1.167-1.272,1.208,1.208,0,0,1,1.016.5v-.672a.734.734,0,0,0-.792-.823,1.227,1.227,0,0,0-.967.472l-.256-.407a1.766,1.766,0,0,1,1.31-.561,1.138,1.138,0,0,1,1.28,1.256v2.7h-.575Zm0-1.127a.929.929,0,0,0-.832-.5.866.866,0,0,0,0,1.72.936.936,0,0,0,.832-.489Z" fill="#231f20"/>
      <path d="M118.492,139.753a.4.4,0,0,1,.392-.392.392.392,0,0,1,0,.783A.4.4,0,0,1,118.492,139.753Zm.111,1.04h.569v3.861H118.6Z" fill="#231f20"/>
      <path d="M120.483,139.321h.569v5.333h-.569Z" fill="#231f20"/>
      <path d="M124.452,143.879V141.3h-.512v-.5h.512v-1.056h.575v1.056h.657v.5h-.657v2.479c0,.3.089.463.313.463a.434.434,0,0,0,.336-.151l.176.431a.833.833,0,0,1-.625.232C124.7,144.75,124.452,144.455,124.452,143.879Z" fill="#231f20"/>
      <path d="M128.795,141.9c0-.511-.24-.688-.624-.688a1.125,1.125,0,0,0-.9.616v2.83H126.7v-5.333h.569v2.024a1.446,1.446,0,0,1,1.126-.649c.657,0,.968.328.968,1.032v2.926h-.567Z" fill="#231f20"/>
      <path d="M130.564,139.753a.4.4,0,0,1,.392-.392.392.392,0,1,1,0,.783A.4.4,0,0,1,130.564,139.753Zm.112,1.04h.568v3.861h-.568Z" fill="#231f20"/>
      <path d="M132.532,143.8a1.332,1.332,0,0,0,1.007.488c.448,0,.744-.24.744-.608,0-.416-.384-.583-.807-.759-.528-.208-1.12-.441-1.12-1.184a1.1,1.1,0,0,1,1.232-1.04,1.545,1.545,0,0,1,1.175.5l-.272.392a1.111,1.111,0,0,0-.9-.424c-.424,0-.688.232-.688.544,0,.368.36.527.768.695.535.216,1.159.456,1.159,1.248a1.14,1.14,0,0,1-1.287,1.1,1.643,1.643,0,0,1-1.3-.543Z" fill="#231f20"/>
      <path d="M137.883,146.126v-5.333h.568v.552a1.206,1.206,0,0,1,1.016-.649c.871,0,1.383.808,1.383,2.024s-.512,2.03-1.383,2.03a1.173,1.173,0,0,1-1.016-.655v2.031Zm1.439-4.918a1.044,1.044,0,0,0-.871.624V143.6a1.062,1.062,0,0,0,.871.64c.632,0,.928-.679.928-1.518S139.954,141.208,139.322,141.208Z" fill="#231f20"/>
      <path d="M141.779,142.72c0-1.088.544-2.024,1.568-2.024s1.575.936,1.575,2.024-.536,2.03-1.575,2.03S141.779,143.806,141.779,142.72Zm2.543,0c0-.776-.3-1.512-.975-1.512s-.968.736-.968,1.512.3,1.518.968,1.518S144.322,143.5,144.322,142.72Z" fill="#231f20"/>
      <path d="M146.043,140.793h.568v.615a1.3,1.3,0,0,1,1.095-.695v.592a.737.737,0,0,0-.191-.025,1.157,1.157,0,0,0-.9.632v2.742h-.568Z" fill="#231f20"/>
      <path d="M148.739,143.879V141.3h-.512v-.5h.512v-1.056h.575v1.056h.657v.5h-.657v2.479c0,.3.089.463.313.463a.433.433,0,0,0,.336-.151l.176.431a.832.832,0,0,1-.624.232C148.987,144.75,148.739,144.455,148.739,143.879Z" fill="#231f20"/>
      <path d="M150.875,139.753a.4.4,0,0,1,.392-.392.392.392,0,0,1,0,.783A.4.4,0,0,1,150.875,139.753Zm.111,1.04h.569v3.861h-.569Z" fill="#231f20"/>
      <path d="M152.675,142.72c0-1.088.544-2.024,1.567-2.024,1.039,0,1.575.936,1.575,2.024s-.536,2.03-1.575,2.03C153.219,144.75,152.675,143.806,152.675,142.72Zm2.542,0c0-.776-.3-1.512-.975-1.512-.664,0-.968.736-.968,1.512s.3,1.518.968,1.518C154.922,144.238,155.217,143.5,155.217,142.72Z" fill="#231f20"/>
      <path d="M159.025,141.9c0-.512-.231-.7-.615-.7a1.127,1.127,0,0,0-.9.616v2.83h-.569v-3.861h.569v.552a1.432,1.432,0,0,1,1.119-.649c.655,0,.976.353.976,1.048v2.91h-.577Z" fill="#231f20"/>
      <path d="M164.914,141.552l-.832,3.1H163.5l-1.032-3.861h.6l.752,3.086.816-3.086h.544l.823,3.086.76-3.086h.6l-1.031,3.861h-.592Z" fill="#231f20"/>
      <path d="M168.139,139.753a.4.4,0,0,1,.391-.392.392.392,0,1,1-.391.392Zm.111,1.04h.568v3.861h-.568Z" fill="#231f20"/>
      <path d="M170.242,143.879V141.3h-.512v-.5h.512v-1.056h.576v1.056h.656v.5h-.656v2.479c0,.3.088.463.312.463a.434.434,0,0,0,.336-.151l.176.431a.832.832,0,0,1-.624.232C170.49,144.75,170.242,144.455,170.242,143.879Z" fill="#231f20"/>
      <path d="M174.586,141.9c0-.511-.24-.688-.624-.688a1.125,1.125,0,0,0-.9.616v2.83h-.569v-5.333h.569v2.024a1.446,1.446,0,0,1,1.126-.649c.657,0,.968.328.968,1.032v2.926h-.567Z" fill="#231f20"/>
      <path d="M178.587,145.71c.223,0,.351-.088.455-.384l.208-.592-1.287-3.941h.624l.959,3.166.968-3.166h.615l-1.543,4.677a.93.93,0,0,1-.959.751,1.427,1.427,0,0,1-.384-.055l.088-.512A.612.612,0,0,0,178.587,145.71Z" fill="#231f20"/>
      <path d="M181.77,142.72c0-1.088.544-2.024,1.568-2.024,1.039,0,1.575.936,1.575,2.024s-.536,2.03-1.575,2.03C182.314,144.75,181.77,143.806,181.77,142.72Zm2.542,0c0-.776-.294-1.512-.974-1.512-.664,0-.968.736-.968,1.512s.3,1.518.968,1.518C184.018,144.238,184.312,143.5,184.312,142.72Z" fill="#231f20"/>
      <path d="M188.121,144.119a1.4,1.4,0,0,1-1.119.631c-.655,0-.968-.327-.968-1.031v-2.926h.568v2.758c0,.511.24.687.616.687a1.085,1.085,0,0,0,.9-.6v-2.845h.576v3.861h-.576Z" fill="#231f20"/>
      <path d="M190.01,140.793h.568v.615a1.3,1.3,0,0,1,1.095-.695v.592a.744.744,0,0,0-.192-.025,1.157,1.157,0,0,0-.9.632v2.742h-.568Z" fill="#231f20"/>
      <path d="M195.977,140.7a1.317,1.317,0,0,1,1.1.512l-.312.392a.869.869,0,0,0-.743-.392c-.688,0-1.048.688-1.048,1.512s.36,1.518,1.048,1.518a.885.885,0,0,0,.743-.392l.312.392a1.294,1.294,0,0,1-1.1.512c-.992,0-1.6-.887-1.6-2.03S194.985,140.7,195.977,140.7Z" fill="#231f20"/>
      <path d="M200.17,141.9c0-.511-.24-.688-.624-.688a1.125,1.125,0,0,0-.9.616v2.83h-.569v-5.333h.569v2.024a1.446,1.446,0,0,1,1.126-.649c.657,0,.968.328.968,1.032v2.926h-.567Z" fill="#231f20"/>
      <path d="M203.426,140.7c1.014,0,1.526.912,1.526,2.039v.176h-2.5c.024.776.424,1.359,1.111,1.359a1.19,1.19,0,0,0,.919-.471l.305.336a1.609,1.609,0,0,1-1.271.615c-1.032,0-1.656-.847-1.656-2.03C201.858,141.6,202.45,140.7,203.426,140.7Zm-.976,1.791h1.935c-.008-.591-.264-1.31-.968-1.31C202.738,141.177,202.466,141.92,202.45,142.487Z" fill="#231f20"/>
      <path d="M207.457,140.7a1.317,1.317,0,0,1,1.1.512l-.311.392a.869.869,0,0,0-.743-.392c-.689,0-1.048.688-1.048,1.512s.359,1.518,1.048,1.518a.885.885,0,0,0,.743-.392l.311.392a1.294,1.294,0,0,1-1.1.512c-.991,0-1.6-.887-1.6-2.03S206.466,140.7,207.457,140.7Z" fill="#231f20"/>
      <path d="M210.665,142.911l-.543.7v1.047h-.568v-5.333h.568v3.567l1.606-2.095h.68l-1.35,1.734,1.35,2.127h-.68Z" fill="#231f20"/>
      <path d="M219.191,141.856c0-.416-.168-.648-.536-.648a1.059,1.059,0,0,0-.839.616v2.83h-.576v-2.8c0-.416-.168-.648-.544-.648a1.083,1.083,0,0,0-.839.616v2.83h-.568v-3.861h.568v.552a1.334,1.334,0,0,1,1.055-.649.813.813,0,0,1,.872.689,1.328,1.328,0,0,1,1.087-.689c.568,0,.9.313.9,1.008v2.95h-.576Z" fill="#231f20"/>
      <path d="M223.064,144.238a1.206,1.206,0,0,1-1.015.512,1.186,1.186,0,0,1-1.167-1.287,1.168,1.168,0,0,1,1.167-1.272,1.206,1.206,0,0,1,1.015.5v-.672a.733.733,0,0,0-.792-.823,1.227,1.227,0,0,0-.966.472l-.256-.407a1.766,1.766,0,0,1,1.31-.561,1.138,1.138,0,0,1,1.28,1.256v2.7h-.576Zm0-1.127a.927.927,0,0,0-.832-.5.866.866,0,0,0,0,1.72.933.933,0,0,0,.832-.489Z" fill="#231f20"/>
      <path d="M227.152,144.1a1.2,1.2,0,0,1-1.015.648c-.864,0-1.383-.807-1.383-2.023,0-1.2.512-2.031,1.383-2.031a1.164,1.164,0,0,1,1.015.656v-2.031h.576v5.333h-.576Zm0-2.262a1.032,1.032,0,0,0-.871-.632c-.632,0-.928.68-.928,1.519s.3,1.511.928,1.511a1.023,1.023,0,0,0,.871-.623Z" fill="#231f20"/>
      <path d="M230.417,140.7c1.015,0,1.526.912,1.526,2.039v.176h-2.5c.024.776.424,1.359,1.112,1.359a1.191,1.191,0,0,0,.919-.471l.3.336a1.606,1.606,0,0,1-1.27.615c-1.032,0-1.655-.847-1.655-2.03C228.85,141.6,229.441,140.7,230.417,140.7Zm-.976,1.791h1.935c-.008-.591-.264-1.31-.968-1.31C229.728,141.177,229.457,141.92,229.441,142.487Z" fill="#231f20"/>
      <path d="M235.017,146.126v-5.333h.568v.552a1.2,1.2,0,0,1,1.015-.649c.872,0,1.383.808,1.383,2.024s-.511,2.03-1.383,2.03a1.172,1.172,0,0,1-1.015-.655v2.031Zm1.439-4.918a1.044,1.044,0,0,0-.871.624V143.6a1.062,1.062,0,0,0,.871.64c.632,0,.928-.679.928-1.518S237.088,141.208,236.456,141.208Z" fill="#231f20"/>
      <path d="M241.088,144.238a1.206,1.206,0,0,1-1.016.512,1.186,1.186,0,0,1-1.167-1.287,1.168,1.168,0,0,1,1.167-1.272,1.207,1.207,0,0,1,1.016.5v-.672a.733.733,0,0,0-.792-.823,1.227,1.227,0,0,0-.967.472l-.256-.407a1.766,1.766,0,0,1,1.311-.561,1.137,1.137,0,0,1,1.279,1.256v2.7h-.575Zm0-1.127a.928.928,0,0,0-.832-.5.866.866,0,0,0,0,1.72.934.934,0,0,0,.832-.489Z" fill="#231f20"/>
      <path d="M243.113,145.71c.224,0,.352-.088.455-.384l.208-.592-1.287-3.941h.624l.959,3.166.968-3.166h.615l-1.543,4.677a.929.929,0,0,1-.959.751,1.427,1.427,0,0,1-.384-.055l.088-.512A.618.618,0,0,0,243.113,145.71Z" fill="#231f20"/>
      <path d="M248.473,144.238a1.206,1.206,0,0,1-1.016.512,1.186,1.186,0,0,1-1.167-1.287,1.168,1.168,0,0,1,1.167-1.272,1.208,1.208,0,0,1,1.016.5v-.672a.733.733,0,0,0-.792-.823,1.227,1.227,0,0,0-.967.472l-.256-.407a1.766,1.766,0,0,1,1.31-.561,1.138,1.138,0,0,1,1.28,1.256v2.7h-.575Zm0-1.127a.928.928,0,0,0-.832-.5.866.866,0,0,0,0,1.72.934.934,0,0,0,.832-.489Z" fill="#231f20"/>
      <path d="M250.352,139.321h.569v2.031a1.173,1.173,0,0,1,1.014-.656c.873,0,1.384.832,1.384,2.031,0,1.216-.511,2.023-1.384,2.023a1.2,1.2,0,0,1-1.014-.648v.552h-.569Zm1.44,4.917c.632,0,.928-.679.928-1.511s-.3-1.519-.928-1.519a1.065,1.065,0,0,0-.871.639v1.768A1.043,1.043,0,0,0,251.792,144.238Z" fill="#231f20"/>
      <path d="M254.448,139.321h.569v5.333h-.569Z" fill="#231f20"/>
      <path d="M257.7,140.7c1.015,0,1.526.912,1.526,2.039v.176h-2.5c.024.776.424,1.359,1.112,1.359a1.191,1.191,0,0,0,.919-.471l.3.336a1.606,1.606,0,0,1-1.27.615c-1.032,0-1.655-.847-1.655-2.03C256.137,141.6,256.728,140.7,257.7,140.7Zm-.976,1.791h1.935c-.008-.591-.264-1.31-.968-1.31C257.016,141.177,256.744,141.92,256.728,142.487Z" fill="#231f20"/>
      <path d="M262.417,143.879V141.3H261.9v-.5h.512v-1.056h.575v1.056h.656v.5h-.656v2.479c0,.3.089.463.313.463a.434.434,0,0,0,.336-.151l.175.431a.829.829,0,0,1-.624.232C262.665,144.75,262.417,144.455,262.417,143.879Z" fill="#231f20"/>
      <path d="M264.473,142.72c0-1.088.544-2.024,1.567-2.024,1.039,0,1.575.936,1.575,2.024s-.536,2.03-1.575,2.03C265.017,144.75,264.473,143.806,264.473,142.72Zm2.543,0c0-.776-.3-1.512-.976-1.512-.664,0-.968.736-.968,1.512s.3,1.518.968,1.518C266.72,144.238,267.016,143.5,267.016,142.72Z" fill="#231f20"/>
      <path d="M270.56,141.992c0-1.6.8-2.759,2.055-2.759a1.71,1.71,0,0,1,1.575,1.039l-.527.248a1.161,1.161,0,0,0-1.048-.719c-.847,0-1.4.927-1.4,2.191s.552,2.19,1.4,2.19a1.164,1.164,0,0,0,1.056-.791l.535.247a1.723,1.723,0,0,1-1.591,1.112C271.36,144.75,270.56,143.583,270.56,141.992Z" fill="#231f20"/>
      <path d="M275.041,142.72c0-1.088.544-2.024,1.567-2.024,1.039,0,1.576.936,1.576,2.024s-.537,2.03-1.576,2.03C275.585,144.75,275.041,143.806,275.041,142.72Zm2.543,0c0-.776-.3-1.512-.976-1.512-.664,0-.967.736-.967,1.512s.3,1.518.967,1.518C277.288,144.238,277.584,143.5,277.584,142.72Z" fill="#231f20"/>
      <path d="M281.391,141.9c0-.512-.232-.7-.616-.7a1.127,1.127,0,0,0-.9.616v2.83H279.3v-3.861h.568v.552a1.433,1.433,0,0,1,1.119-.649c.655,0,.976.353.976,1.048v2.91h-.576Z" fill="#231f20"/>
      <path d="M283.257,143.8a1.331,1.331,0,0,0,1.007.488c.448,0,.744-.24.744-.608,0-.416-.384-.583-.808-.759-.527-.208-1.119-.441-1.119-1.184a1.1,1.1,0,0,1,1.231-1.04,1.543,1.543,0,0,1,1.175.5l-.271.392a1.114,1.114,0,0,0-.9-.424c-.424,0-.687.232-.687.544,0,.368.359.527.767.695.535.216,1.16.456,1.16,1.248a1.141,1.141,0,0,1-1.288,1.1,1.641,1.641,0,0,1-1.3-.543Z" fill="#231f20"/>
      <path d="M288.719,144.119a1.405,1.405,0,0,1-1.119.631c-.656,0-.968-.327-.968-1.031v-2.926h.568v2.758c0,.511.239.687.615.687a1.087,1.087,0,0,0,.9-.6v-2.845h.576v3.861h-.576Z" fill="#231f20"/>
      <path d="M294.511,141.856c0-.416-.168-.648-.536-.648a1.058,1.058,0,0,0-.839.616v2.83h-.576v-2.8c0-.416-.168-.648-.544-.648a1.083,1.083,0,0,0-.839.616v2.83h-.569v-3.861h.569v.552a1.331,1.331,0,0,1,1.054-.649.813.813,0,0,1,.872.689,1.328,1.328,0,0,1,1.087-.689c.569,0,.9.313.9,1.008v2.95h-.575Z" fill="#231f20"/>
      <path d="M297.775,140.7c1.015,0,1.527.912,1.527,2.039v.176h-2.5c.023.776.424,1.359,1.111,1.359a1.19,1.19,0,0,0,.919-.471l.305.336a1.611,1.611,0,0,1-1.272.615c-1.031,0-1.655-.847-1.655-2.03C296.208,141.6,296.8,140.7,297.775,140.7Zm-.975,1.791h1.934c-.007-.591-.263-1.31-.967-1.31C297.088,141.177,296.815,141.92,296.8,142.487Z" fill="#231f20"/>
      <path d="M300.4,140.793h.569v.615a1.294,1.294,0,0,1,1.094-.695v.592a.731.731,0,0,0-.191-.025,1.156,1.156,0,0,0-.9.632v2.742H300.4Z" fill="#231f20"/>
      <path d="M302.96,143.8a1.332,1.332,0,0,0,1.007.488c.448,0,.744-.24.744-.608,0-.416-.384-.583-.808-.759-.527-.208-1.119-.441-1.119-1.184a1.1,1.1,0,0,1,1.232-1.04,1.542,1.542,0,0,1,1.174.5l-.271.392a1.113,1.113,0,0,0-.9-.424c-.423,0-.687.232-.687.544,0,.368.359.527.767.695.536.216,1.16.456,1.16,1.248a1.14,1.14,0,0,1-1.287,1.1,1.643,1.643,0,0,1-1.3-.543Z" fill="#231f20"/>
      <path d="M308.344,139.321h2.742v.56h-2.1v1.767h2.047v.56h-2.047v1.879h2.1v.567h-2.742Z" fill="#231f20"/>
      <path d="M314.343,141.9c0-.512-.232-.7-.616-.7a1.128,1.128,0,0,0-.9.616v2.83h-.568v-3.861h.568v.552a1.433,1.433,0,0,1,1.119-.649c.656,0,.976.353.976,1.048v2.91h-.576Z" fill="#231f20"/>
      <path d="M317.607,140.7c1.015,0,1.527.912,1.527,2.039v.176h-2.5c.023.776.424,1.359,1.111,1.359a1.19,1.19,0,0,0,.919-.471l.305.336a1.611,1.611,0,0,1-1.272.615c-1.031,0-1.655-.847-1.655-2.03C316.04,141.6,316.632,140.7,317.607,140.7Zm-.975,1.791h1.934c-.007-.591-.263-1.31-.967-1.31C316.92,141.177,316.647,141.92,316.632,142.487Z" fill="#231f20"/>
      <path d="M320.231,140.793h.569v.615a1.294,1.294,0,0,1,1.094-.695v.592a.731.731,0,0,0-.191-.025,1.157,1.157,0,0,0-.9.632v2.742h-.569Z" fill="#231f20"/>
      <path d="M323.048,145.286a1.258,1.258,0,0,0,1.007.448.922.922,0,0,0,.967-1.048v-.647a1.222,1.222,0,0,1-1.015.663c-.864,0-1.383-.783-1.383-2,0-1.2.512-2.007,1.383-2.007a1.175,1.175,0,0,1,1.015.656v-.559h.577v3.853a1.4,1.4,0,0,1-1.528,1.575,1.664,1.664,0,0,1-1.287-.487Zm1.974-3.446a1.032,1.032,0,0,0-.871-.632c-.632,0-.927.664-.927,1.5s.3,1.487.927,1.487a1.04,1.04,0,0,0,.871-.639Z" fill="#231f20"/>
      <path d="M327.048,145.71c.223,0,.351-.088.455-.384l.208-.592-1.287-3.941h.624l.959,3.166.968-3.166h.615l-1.543,4.677a.93.93,0,0,1-.959.751,1.427,1.427,0,0,1-.384-.055l.088-.512A.612.612,0,0,0,327.048,145.71Z" fill="#231f20"/>
      <path d="M330.407,143.879a.439.439,0,0,1,.433.424.435.435,0,0,1-.433.431.428.428,0,0,1-.424-.431A.433.433,0,0,1,330.407,143.879Z" fill="#231f20"/>
      <path d="M334.111,139.321h1.623a1.6,1.6,0,0,1,0,3.2h-.983v2.135h-.64Zm1.56.56h-.92v2.079h.92c.552,0,.879-.432.879-1.039S336.223,139.881,335.671,139.881Z" fill="#231f20"/>
      <path d="M338.231,139.321h.569v5.333h-.569Z" fill="#231f20"/>
      <path d="M341.487,140.7c1.015,0,1.527.912,1.527,2.039v.176h-2.5c.023.776.423,1.359,1.111,1.359a1.19,1.19,0,0,0,.919-.471l.3.336a1.608,1.608,0,0,1-1.271.615c-1.032,0-1.655-.847-1.655-2.03C339.92,141.6,340.512,140.7,341.487,140.7Zm-.975,1.791h1.934c-.008-.591-.263-1.31-.968-1.31C340.8,141.177,340.527,141.92,340.512,142.487Z" fill="#231f20"/>
      <path d="M346.1,144.238a1.206,1.206,0,0,1-1.016.512,1.186,1.186,0,0,1-1.167-1.287,1.168,1.168,0,0,1,1.167-1.272,1.208,1.208,0,0,1,1.016.5v-.672a.733.733,0,0,0-.792-.823,1.227,1.227,0,0,0-.967.472l-.256-.407a1.766,1.766,0,0,1,1.311-.561,1.137,1.137,0,0,1,1.279,1.256v2.7H346.1Zm0-1.127a.928.928,0,0,0-.832-.5.866.866,0,0,0,0,1.72.934.934,0,0,0,.832-.489Z" fill="#231f20"/>
      <path d="M347.951,143.8a1.332,1.332,0,0,0,1.007.488c.448,0,.744-.24.744-.608,0-.416-.384-.583-.808-.759-.527-.208-1.119-.441-1.119-1.184a1.1,1.1,0,0,1,1.232-1.04,1.546,1.546,0,0,1,1.175.5l-.272.392a1.111,1.111,0,0,0-.9-.424c-.424,0-.688.232-.688.544,0,.368.359.527.768.695.535.216,1.159.456,1.159,1.248a1.14,1.14,0,0,1-1.287,1.1,1.643,1.643,0,0,1-1.3-.543Z" fill="#231f20"/>
      <path d="M352.7,140.7c1.015,0,1.526.912,1.526,2.039v.176h-2.5c.024.776.424,1.359,1.112,1.359a1.191,1.191,0,0,0,.919-.471l.3.336a1.609,1.609,0,0,1-1.271.615c-1.031,0-1.655-.847-1.655-2.03C351.136,141.6,351.727,140.7,352.7,140.7Zm-.976,1.791h1.935c-.008-.591-.264-1.31-.968-1.31C352.016,141.177,351.743,141.92,351.727,142.487Z" fill="#231f20"/>
      <path d="M359.326,141.552l-.832,3.1h-.583l-1.032-3.861h.6l.752,3.086.816-3.086h.544l.823,3.086.76-3.086h.6l-1.031,3.861h-.592Z" fill="#231f20"/>
      <path d="M362.662,140.793h.568v.615a1.3,1.3,0,0,1,1.095-.695v.592a.737.737,0,0,0-.191-.025,1.159,1.159,0,0,0-.9.632v2.742h-.568Z" fill="#231f20"/>
      <path d="M365.135,139.753a.4.4,0,0,1,.391-.392.392.392,0,1,1-.391.392Zm.111,1.04h.568v3.861h-.568Z" fill="#231f20"/>
      <path d="M367.238,143.879V141.3h-.511v-.5h.511v-1.056h.576v1.056h.656v.5h-.656v2.479c0,.3.088.463.312.463a.433.433,0,0,0,.336-.151l.176.431a.831.831,0,0,1-.624.232C367.486,144.75,367.238,144.455,367.238,143.879Z" fill="#231f20"/>
      <path d="M370.862,140.7c1.015,0,1.527.912,1.527,2.039v.176h-2.5c.023.776.423,1.359,1.111,1.359a1.19,1.19,0,0,0,.919-.471l.3.336a1.608,1.608,0,0,1-1.271.615c-1.032,0-1.655-.847-1.655-2.03C369.3,141.6,369.887,140.7,370.862,140.7Zm-.975,1.791h1.934c-.008-.591-.263-1.31-.968-1.31C370.174,141.177,369.9,141.92,369.887,142.487Z" fill="#231f20"/>
      <path d="M375.606,145.71c.224,0,.352-.088.455-.384l.208-.592-1.287-3.941h.624l.959,3.166.968-3.166h.615l-1.543,4.677a.928.928,0,0,1-.959.751,1.419,1.419,0,0,1-.383-.055l.088-.512A.611.611,0,0,0,375.606,145.71Z" fill="#231f20"/>
      <path d="M378.791,142.72c0-1.088.544-2.024,1.567-2.024,1.039,0,1.576.936,1.576,2.024s-.537,2.03-1.576,2.03C379.335,144.75,378.791,143.806,378.791,142.72Zm2.543,0c0-.776-.3-1.512-.976-1.512-.664,0-.967.736-.967,1.512s.3,1.518.967,1.518C381.038,144.238,381.334,143.5,381.334,142.72Z" fill="#231f20"/>
      <path d="M385.141,144.119a1.406,1.406,0,0,1-1.12.631c-.655,0-.967-.327-.967-1.031v-2.926h.568v2.758c0,.511.239.687.615.687a1.087,1.087,0,0,0,.9-.6v-2.845h.576v3.861h-.576Z" fill="#231f20"/>
      <path d="M387.03,140.793h.569v.615a1.294,1.294,0,0,1,1.094-.695v.592a.737.737,0,0,0-.191-.025,1.156,1.156,0,0,0-.9.632v2.742h-.569Z" fill="#231f20"/>
      <path d="M393.573,144.238a1.206,1.206,0,0,1-1.015.512,1.186,1.186,0,0,1-1.167-1.287,1.168,1.168,0,0,1,1.167-1.272,1.206,1.206,0,0,1,1.015.5v-.672a.733.733,0,0,0-.792-.823,1.229,1.229,0,0,0-.967.472l-.255-.407a1.766,1.766,0,0,1,1.31-.561,1.137,1.137,0,0,1,1.279,1.256v2.7h-.575Zm0-1.127a.928.928,0,0,0-.832-.5.866.866,0,0,0,0,1.72.934.934,0,0,0,.832-.489Z" fill="#231f20"/>
      <path d="M396.86,140.7a1.319,1.319,0,0,1,1.1.512l-.312.392a.869.869,0,0,0-.744-.392c-.687,0-1.047.688-1.047,1.512s.36,1.518,1.047,1.518a.886.886,0,0,0,.744-.392l.312.392a1.3,1.3,0,0,1-1.1.512c-.991,0-1.6-.887-1.6-2.03S395.869,140.7,396.86,140.7Z" fill="#231f20"/>
      <path d="M400.365,140.7a1.321,1.321,0,0,1,1.1.512l-.312.392a.869.869,0,0,0-.743-.392c-.688,0-1.048.688-1.048,1.512s.36,1.518,1.048,1.518a.885.885,0,0,0,.743-.392l.312.392a1.3,1.3,0,0,1-1.1.512c-.991,0-1.6-.887-1.6-2.03S399.374,140.7,400.365,140.7Z" fill="#231f20"/>
      <path d="M402.27,142.72c0-1.088.544-2.024,1.568-2.024s1.575.936,1.575,2.024-.536,2.03-1.575,2.03S402.27,143.806,402.27,142.72Zm2.542,0c0-.776-.294-1.512-.974-1.512-.664,0-.968.736-.968,1.512s.3,1.518.968,1.518C404.518,144.238,404.812,143.5,404.812,142.72Z" fill="#231f20"/>
      <path d="M408.62,144.119a1.4,1.4,0,0,1-1.119.631c-.655,0-.968-.327-.968-1.031v-2.926h.569v2.758c0,.511.239.687.615.687a1.085,1.085,0,0,0,.9-.6v-2.845h.576v3.861h-.576Z" fill="#231f20"/>
      <path d="M412.6,141.9c0-.512-.232-.7-.616-.7a1.127,1.127,0,0,0-.9.616v2.83h-.568v-3.861h.568v.552a1.433,1.433,0,0,1,1.119-.649c.655,0,.976.353.976,1.048v2.91H412.6Z" fill="#231f20"/>
      <path d="M414.6,143.879V141.3h-.512v-.5h.512v-1.056h.576v1.056h.655v.5h-.655v2.479c0,.3.088.463.311.463a.431.431,0,0,0,.336-.151l.176.431a.831.831,0,0,1-.624.232C414.846,144.75,414.6,144.455,414.6,143.879Z" fill="#231f20"/>
      <path d="M420.908,141.9c0-.512-.231-.7-.615-.7a1.125,1.125,0,0,0-.9.616v2.83h-.569v-3.861h.569v.552a1.432,1.432,0,0,1,1.119-.649c.655,0,.975.353.975,1.048v2.91h-.576Z" fill="#231f20"/>
      <path d="M424.884,144.119a1.405,1.405,0,0,1-1.119.631c-.656,0-.968-.327-.968-1.031v-2.926h.568v2.758c0,.511.239.687.615.687a1.087,1.087,0,0,0,.9-.6v-2.845h.576v3.861h-.576Z" fill="#231f20"/>
      <path d="M430.676,141.856c0-.416-.168-.648-.536-.648a1.058,1.058,0,0,0-.839.616v2.83h-.576v-2.8c0-.416-.168-.648-.544-.648a1.083,1.083,0,0,0-.839.616v2.83h-.569v-3.861h.569v.552a1.332,1.332,0,0,1,1.054-.649.813.813,0,0,1,.872.689,1.33,1.33,0,0,1,1.087-.689c.569,0,.9.313.9,1.008v2.95h-.575Z" fill="#231f20"/>
      <path d="M432.565,139.321h.569v2.031a1.173,1.173,0,0,1,1.014-.656c.872,0,1.384.832,1.384,2.031,0,1.216-.512,2.023-1.384,2.023a1.2,1.2,0,0,1-1.014-.648v.552h-.569Zm1.44,4.917c.632,0,.928-.679.928-1.511s-.3-1.519-.928-1.519a1.063,1.063,0,0,0-.871.639v1.768A1.042,1.042,0,0,0,434.005,144.238Z" fill="#231f20"/>
      <path d="M438.037,140.7c1.015,0,1.526.912,1.526,2.039v.176h-2.5c.024.776.424,1.359,1.112,1.359a1.191,1.191,0,0,0,.919-.471l.3.336a1.609,1.609,0,0,1-1.271.615c-1.031,0-1.655-.847-1.655-2.03C436.47,141.6,437.061,140.7,438.037,140.7Zm-.976,1.791H439c-.008-.591-.264-1.31-.968-1.31C437.35,141.177,437.077,141.92,437.061,142.487Z" fill="#231f20"/>
      <path d="M440.661,140.793h.568v.615a1.3,1.3,0,0,1,1.1-.695v.592a.737.737,0,0,0-.191-.025,1.159,1.159,0,0,0-.9.632v2.742h-.568Z" fill="#231f20"/>
      <path d="M445.029,142.72c0-1.088.544-2.024,1.568-2.024,1.039,0,1.575.936,1.575,2.024s-.536,2.03-1.575,2.03C445.573,144.75,445.029,143.806,445.029,142.72Zm2.543,0c0-.776-.3-1.512-.975-1.512-.664,0-.968.736-.968,1.512s.3,1.518.968,1.518C447.276,144.238,447.572,143.5,447.572,142.72Z" fill="#231f20"/>
      <path d="M451.38,141.9c0-.512-.232-.7-.615-.7a1.128,1.128,0,0,0-.9.616v2.83h-.568v-3.861h.568v.552a1.435,1.435,0,0,1,1.119-.649c.656,0,.976.353.976,1.048v2.91h-.576Z" fill="#231f20"/>
      <path d="M455.389,145.71c.223,0,.351-.088.455-.384l.208-.592-1.287-3.941h.624l.959,3.166.967-3.166h.616l-1.543,4.677a.93.93,0,0,1-.959.751,1.427,1.427,0,0,1-.384-.055l.088-.512A.612.612,0,0,0,455.389,145.71Z" fill="#231f20"/>
      <path d="M458.573,142.72c0-1.088.544-2.024,1.568-2.024s1.575.936,1.575,2.024-.536,2.03-1.575,2.03S458.573,143.806,458.573,142.72Zm2.542,0c0-.776-.3-1.512-.974-1.512s-.968.736-.968,1.512.3,1.518.968,1.518S461.115,143.5,461.115,142.72Z" fill="#231f20"/>
      <path d="M464.923,144.119a1.405,1.405,0,0,1-1.119.631c-.656,0-.968-.327-.968-1.031v-2.926h.568v2.758c0,.511.239.687.615.687a1.087,1.087,0,0,0,.9-.6v-2.845h.576v3.861h-.576Z" fill="#231f20"/>
      <path d="M466.812,140.793h.569v.615a1.3,1.3,0,0,1,1.1-.695v.592a.744.744,0,0,0-.192-.025,1.157,1.157,0,0,0-.9.632v2.742h-.569Z" fill="#231f20"/>
      <path d="M472.779,140.7a1.321,1.321,0,0,1,1.1.512l-.312.392a.869.869,0,0,0-.743-.392c-.688,0-1.048.688-1.048,1.512s.36,1.518,1.048,1.518a.885.885,0,0,0,.743-.392l.312.392a1.3,1.3,0,0,1-1.1.512c-.991,0-1.6-.887-1.6-2.03S471.788,140.7,472.779,140.7Z" fill="#231f20"/>
      <path d="M476.971,141.9c0-.511-.24-.688-.623-.688a1.128,1.128,0,0,0-.9.616v2.83h-.568v-5.333h.568v2.024a1.448,1.448,0,0,1,1.127-.649c.656,0,.968.328.968,1.032v2.926h-.568Z" fill="#231f20"/>
      <path d="M480.228,140.7c1.015,0,1.527.912,1.527,2.039v.176h-2.5c.023.776.424,1.359,1.111,1.359a1.19,1.19,0,0,0,.919-.471l.305.336a1.611,1.611,0,0,1-1.272.615c-1.031,0-1.655-.847-1.655-2.03C478.661,141.6,479.253,140.7,480.228,140.7Zm-.975,1.791h1.934c-.007-.591-.263-1.31-.967-1.31C479.541,141.177,479.268,141.92,479.253,142.487Z" fill="#231f20"/>
      <path d="M484.259,140.7a1.317,1.317,0,0,1,1.1.512l-.311.392a.87.87,0,0,0-.744-.392c-.688,0-1.047.688-1.047,1.512s.359,1.518,1.047,1.518a.887.887,0,0,0,.744-.392l.311.392a1.294,1.294,0,0,1-1.1.512c-.991,0-1.6-.887-1.6-2.03S483.268,140.7,484.259,140.7Z" fill="#231f20"/>
      <path d="M487.468,142.911l-.543.7v1.047h-.569v-5.333h.569v3.567l1.606-2.095h.68l-1.351,1.734,1.351,2.127h-.68Z" fill="#231f20"/>
      <path d="M490.5,143.879a.439.439,0,0,1,.432.424.434.434,0,0,1-.432.431.428.428,0,0,1-.424-.431A.432.432,0,0,1,490.5,143.879Z" fill="#231f20"/>
    </g>
    <g>
      <path d="M171.919,154.731l-2.314-3.547h1.458l1.5,2.412,1.476-2.412h1.458l-2.3,3.547v2.458h-1.278Z" fill="#0b79bf"/>
      <path d="M174.808,155.011a2.3,2.3,0,1,1,2.3,2.286A2.2,2.2,0,0,1,174.808,155.011Zm3.412,0a1.122,1.122,0,1,0-1.117,1.269A1.148,1.148,0,0,0,178.22,155.011Z" fill="#0b79bf"/>
      <path d="M183.367,156.639a2.031,2.031,0,0,1-1.53.658,1.245,1.245,0,0,1-1.4-1.368v-3.088h1.143v2.637a.7.7,0,0,0,.8.8,1.28,1.28,0,0,0,.99-.5v-2.944h1.144v4.348h-1.144Z" fill="#0b79bf"/>
      <path d="M190.333,152.732a2.024,2.024,0,0,1,1.72.784l-.747.7a1.054,1.054,0,0,0-.919-.469,1.268,1.268,0,0,0,0,2.53,1.1,1.1,0,0,0,.919-.469l.747.694a2,2,0,0,1-1.72.792,2.283,2.283,0,1,1,0-4.565Z" fill="#0b79bf"/>
      <path d="M195.589,156.739a1.8,1.8,0,0,1-1.377.558,1.449,1.449,0,0,1-1.513-1.441,1.377,1.377,0,0,1,1.513-1.385,1.753,1.753,0,0,1,1.377.531v-.6c0-.441-.378-.729-.954-.729a1.831,1.831,0,0,0-1.27.513l-.431-.765a2.851,2.851,0,0,1,1.9-.685c.99,0,1.9.4,1.9,1.649v2.808h-1.143Zm0-1.135a1.143,1.143,0,0,0-.918-.378c-.45,0-.819.235-.819.658,0,.405.369.639.819.639a1.141,1.141,0,0,0,.918-.379Z" fill="#0b79bf"/>
      <path d="M200.98,154.56a.7.7,0,0,0-.8-.81,1.238,1.238,0,0,0-.991.513v2.926h-1.143v-4.348h1.143v.567a1.992,1.992,0,0,1,1.522-.676,1.265,1.265,0,0,1,1.413,1.387v3.07H200.98Z" fill="#0b79bf"/>
      <path d="M205.921,158.846v-6h1.143v.548a1.682,1.682,0,0,1,1.341-.657c1.116,0,1.927.829,1.927,2.279s-.811,2.286-1.927,2.286a1.662,1.662,0,0,1-1.341-.666v2.215Zm2.124-5.1a1.28,1.28,0,0,0-.981.5v1.54a1.309,1.309,0,0,0,.981.5,1.278,1.278,0,0,0,0-2.53Z" fill="#0b79bf"/>
      <path d="M213.976,156.739a1.8,1.8,0,0,1-1.377.558,1.449,1.449,0,0,1-1.513-1.441,1.377,1.377,0,0,1,1.513-1.385,1.755,1.755,0,0,1,1.377.531v-.6c0-.441-.378-.729-.955-.729a1.831,1.831,0,0,0-1.269.513l-.432-.765a2.855,2.855,0,0,1,1.9-.685c.99,0,1.9.4,1.9,1.649v2.808h-1.143Zm0-1.135a1.143,1.143,0,0,0-.918-.378c-.451,0-.82.235-.82.658,0,.405.369.639.82.639a1.141,1.141,0,0,0,.918-.379Z" fill="#0b79bf"/>
      <path d="M216.81,157.936a.578.578,0,0,0,.6-.315l.162-.369-1.765-4.411h1.224l1.135,3.025,1.135-3.025h1.233l-2.044,5.059a1.58,1.58,0,0,1-1.647,1.054,3.061,3.061,0,0,1-.568-.064l.171-1.026A.992.992,0,0,0,216.81,157.936Z" fill="#0b79bf"/>
      <path d="M224.091,157.936a.577.577,0,0,0,.6-.315l.162-.369-1.764-4.411h1.223l1.135,3.025,1.135-3.025h1.233l-2.044,5.059a1.58,1.58,0,0,1-1.647,1.054,3.041,3.041,0,0,1-.567-.064l.17-1.026A.993.993,0,0,0,224.091,157.936Z" fill="#0b79bf"/>
      <path d="M228.23,155.011a2.3,2.3,0,1,1,2.3,2.286A2.2,2.2,0,0,1,228.23,155.011Zm3.413,0a1.122,1.122,0,1,0-1.117,1.269A1.148,1.148,0,0,0,231.643,155.011Z" fill="#0b79bf"/>
      <path d="M236.79,156.639a2.031,2.031,0,0,1-1.53.658,1.246,1.246,0,0,1-1.405-1.368v-3.088H235v2.637a.7.7,0,0,0,.8.8,1.28,1.28,0,0,0,.99-.5v-2.944h1.144v4.348H236.79Z" fill="#0b79bf"/>
      <path d="M239.247,152.841h1.144v.594a1.856,1.856,0,0,1,1.385-.693v1.116a1.437,1.437,0,0,0-.314-.036,1.453,1.453,0,0,0-1.071.5v2.872h-1.144Z" fill="#0b79bf"/>
      <path d="M245.15,151.184h1.144V153.4a1.675,1.675,0,0,1,1.341-.667c1.107,0,1.926.864,1.926,2.287,0,1.45-.828,2.278-1.926,2.278a1.686,1.686,0,0,1-1.341-.666v.558H245.15Zm2.124,5.1a1.276,1.276,0,0,0,0-2.53,1.258,1.258,0,0,0-.98.5v1.54A1.269,1.269,0,0,0,247.274,156.28Z" fill="#0b79bf"/>
      <path d="M250.487,151.517a.69.69,0,0,1,.685-.684.685.685,0,0,1,0,1.369A.691.691,0,0,1,250.487,151.517Zm.117,1.324h1.144v4.348H250.6Z" fill="#0b79bf"/>
      <path d="M253.061,151.184h1.144v6h-1.144Z" fill="#0b79bf"/>
      <path d="M255.518,151.184h1.144v6h-1.144Z" fill="#0b79bf"/>
      <path d="M260.459,151.184H261.6V153.4a1.677,1.677,0,0,1,1.341-.667c1.108,0,1.927.864,1.927,2.287,0,1.45-.828,2.278-1.927,2.278a1.687,1.687,0,0,1-1.341-.666v.558h-1.143Zm2.124,5.1a1.276,1.276,0,0,0,0-2.53,1.261,1.261,0,0,0-.981.5v1.54A1.272,1.272,0,0,0,262.583,156.28Z" fill="#0b79bf"/>
      <path d="M266.291,157.936a.577.577,0,0,0,.6-.315l.163-.369-1.765-4.411h1.224l1.134,3.025,1.135-3.025h1.233l-2.043,5.059a1.582,1.582,0,0,1-1.648,1.054,3.041,3.041,0,0,1-.567-.064l.171-1.026A.988.988,0,0,0,266.291,157.936Z" fill="#0b79bf"/>
      <path d="M278.587,154.443c0-.405-.181-.693-.649-.693a1.154,1.154,0,0,0-.9.5v2.935h-1.152v-2.746c0-.405-.18-.693-.649-.693a1.166,1.166,0,0,0-.9.513v2.926h-1.144v-4.348h1.144v.567a1.9,1.9,0,0,1,1.422-.676,1.15,1.15,0,0,1,1.206.793,1.849,1.849,0,0,1,1.5-.793,1.161,1.161,0,0,1,1.278,1.315v3.142h-1.152Z" fill="#0b79bf"/>
      <path d="M283.652,156.739a1.8,1.8,0,0,1-1.377.558,1.448,1.448,0,0,1-1.512-1.441,1.376,1.376,0,0,1,1.512-1.385,1.752,1.752,0,0,1,1.377.531v-.6c0-.441-.378-.729-.954-.729a1.829,1.829,0,0,0-1.269.513l-.432-.765a2.852,2.852,0,0,1,1.9-.685c.991,0,1.9.4,1.9,1.649v2.808h-1.144Zm0-1.135a1.142,1.142,0,0,0-.918-.378c-.45,0-.819.235-.819.658,0,.405.369.639.819.639a1.139,1.139,0,0,0,.918-.379Z" fill="#0b79bf"/>
      <path d="M285.992,151.517a.69.69,0,0,1,.685-.684.685.685,0,0,1,0,1.369A.691.691,0,0,1,285.992,151.517Zm.117,1.324h1.144v4.348h-1.144Z" fill="#0b79bf"/>
      <path d="M288.566,151.184h1.144v6h-1.144Z" fill="#0b79bf"/>
      <path d="M290.969,158.017a1.506,1.506,0,0,0,.693-.837.661.661,0,0,1-.171.027.619.619,0,0,1-.612-.657.719.719,0,0,1,.7-.72.837.837,0,0,1,.811.918,2.1,2.1,0,0,1-.927,1.675Z" fill="#0b79bf"/>
      <path d="M295.991,151.184h1.144V153.4a1.675,1.675,0,0,1,1.341-.667c1.107,0,1.926.864,1.926,2.287,0,1.45-.828,2.278-1.926,2.278a1.686,1.686,0,0,1-1.341-.666v.558h-1.144Zm2.124,5.1a1.276,1.276,0,0,0,0-2.53,1.258,1.258,0,0,0-.98.5v1.54A1.269,1.269,0,0,0,298.115,156.28Z" fill="#0b79bf"/>
      <path d="M301.823,157.936a.579.579,0,0,0,.6-.315l.162-.369-1.765-4.411h1.224l1.135,3.025,1.134-3.025h1.234l-2.044,5.059a1.581,1.581,0,0,1-1.648,1.054,3.05,3.05,0,0,1-.567-.064l.171-1.026A.988.988,0,0,0,301.823,157.936Z" fill="#0b79bf"/>
      <path d="M308.726,158.846v-6h1.143v.548a1.682,1.682,0,0,1,1.341-.657c1.116,0,1.927.829,1.927,2.279s-.811,2.286-1.927,2.286a1.661,1.661,0,0,1-1.341-.666v2.215Zm2.124-5.1a1.279,1.279,0,0,0-.981.5v1.54a1.307,1.307,0,0,0,.981.5,1.278,1.278,0,0,0,0-2.53Z" fill="#0b79bf"/>
      <path d="M317.114,154.542c0-.6-.314-.792-.809-.792a1.267,1.267,0,0,0-.991.513v2.926h-1.143v-6h1.143v2.224a2.013,2.013,0,0,1,1.531-.676,1.252,1.252,0,0,1,1.413,1.369v3.088h-1.144Z" fill="#0b79bf"/>
      <path d="M319.291,155.011a2.3,2.3,0,1,1,2.3,2.286A2.2,2.2,0,0,1,319.291,155.011Zm3.412,0a1.122,1.122,0,1,0-1.116,1.269A1.148,1.148,0,0,0,322.7,155.011Z" fill="#0b79bf"/>
      <path d="M327.851,154.56a.706.706,0,0,0-.8-.81,1.236,1.236,0,0,0-.99.513v2.926h-1.144v-4.348h1.144v.567a1.988,1.988,0,0,1,1.521-.676,1.265,1.265,0,0,1,1.413,1.387v3.07h-1.143Z" fill="#0b79bf"/>
      <path d="M332.279,152.732a2.182,2.182,0,0,1,2.179,2.4v.252h-3.232a1.171,1.171,0,0,0,1.251,1.008,1.788,1.788,0,0,0,1.162-.432l.5.738a2.714,2.714,0,0,1-1.792.6,2.283,2.283,0,1,1-.072-4.565Zm-1.071,1.873h2.143a1.009,1.009,0,0,0-1.072-.963A1.044,1.044,0,0,0,331.208,154.6Z" fill="#0b79bf"/>
      <path d="M337.669,155.011a2.3,2.3,0,1,1,2.3,2.286A2.2,2.2,0,0,1,337.669,155.011Zm3.412,0a1.122,1.122,0,1,0-1.116,1.269A1.148,1.148,0,0,0,341.081,155.011Z" fill="#0b79bf"/>
      <path d="M343.294,152.841h1.143v.594a1.86,1.86,0,0,1,1.386-.693v1.116a1.437,1.437,0,0,0-.314-.036,1.457,1.457,0,0,0-1.072.5v2.872h-1.143Z" fill="#0b79bf"/>
      <path d="M348.919,155.011a2.3,2.3,0,1,1,2.3,2.286A2.2,2.2,0,0,1,348.919,155.011Zm3.412,0a1.122,1.122,0,1,0-1.116,1.269A1.148,1.148,0,0,0,352.331,155.011Z" fill="#0b79bf"/>
      <path d="M357.478,154.56a.7.7,0,0,0-.8-.81,1.238,1.238,0,0,0-.991.513v2.926h-1.143v-4.348h1.143v.567a1.992,1.992,0,0,1,1.522-.676,1.265,1.265,0,0,1,1.413,1.387v3.07h-1.144Z" fill="#0b79bf"/>
      <path d="M359.935,151.184h1.143v6h-1.143Z" fill="#0b79bf"/>
      <path d="M362.274,151.517a.685.685,0,1,1,.685.685A.69.69,0,0,1,362.274,151.517Zm.118,1.324h1.143v4.348h-1.143Z" fill="#0b79bf"/>
      <path d="M367.783,154.56a.705.705,0,0,0-.8-.81,1.238,1.238,0,0,0-.99.513v2.926h-1.143v-4.348h1.143v.567a1.99,1.99,0,0,1,1.522-.676,1.265,1.265,0,0,1,1.413,1.387v3.07h-1.144Z" fill="#0b79bf"/>
      <path d="M372.211,152.732a2.182,2.182,0,0,1,2.179,2.4v.252h-3.233a1.172,1.172,0,0,0,1.251,1.008,1.786,1.786,0,0,0,1.162-.432l.5.738a2.71,2.71,0,0,1-1.792.6,2.283,2.283,0,1,1-.071-4.565ZM371.14,154.6h2.142a1.007,1.007,0,0,0-1.071-.963A1.043,1.043,0,0,0,371.14,154.6Z" fill="#0b79bf"/>
    </g>
    <g>
      <path d="M203.834,167.1a2.255,2.255,0,0,0,1.68.76c.951,0,1.254-.511,1.254-.919,0-.64-.647-.816-1.351-1.007-.856-.225-1.807-.464-1.807-1.512,0-.879.783-1.479,1.831-1.479a2.508,2.508,0,0,1,1.9.743l-.4.488a2.037,2.037,0,0,0-1.543-.639c-.639,0-1.095.344-1.095.848,0,.535.616.7,1.3.879.871.232,1.862.5,1.862,1.623,0,.775-.527,1.566-1.967,1.566a2.64,2.64,0,0,1-2.047-.847Z" fill="#0b79bf"/>
      <path d="M210.265,164.394a1.875,1.875,0,0,1,1.855,2.071v.152h-3.126a1.36,1.36,0,0,0,1.391,1.335,1.69,1.69,0,0,0,1.191-.487l.288.391a2.1,2.1,0,0,1-1.535.591,2.029,2.029,0,0,1-.064-4.053Zm-1.271,1.784h2.534a1.251,1.251,0,0,0-1.271-1.288A1.288,1.288,0,0,0,208.994,166.178Z" fill="#0b79bf"/>
      <path d="M214.929,164.394a1.875,1.875,0,0,1,1.855,2.071v.152h-3.126a1.36,1.36,0,0,0,1.391,1.335,1.69,1.69,0,0,0,1.191-.487l.288.391a2.1,2.1,0,0,1-1.535.591,2.029,2.029,0,0,1-.064-4.053Zm-1.271,1.784h2.534a1.25,1.25,0,0,0-1.271-1.288A1.288,1.288,0,0,0,213.658,166.178Z" fill="#0b79bf"/>
      <path d="M220.138,164.49h.6v.623a1.644,1.644,0,0,1,1.287-.7v.615a1.106,1.106,0,0,0-.239-.023,1.412,1.412,0,0,0-1.048.615v2.734h-.6Z" fill="#0b79bf"/>
      <path d="M224.616,164.394a1.876,1.876,0,0,1,1.856,2.071v.152h-3.126a1.359,1.359,0,0,0,1.39,1.335,1.691,1.691,0,0,0,1.192-.487l.288.391a2.1,2.1,0,0,1-1.535.591,2.029,2.029,0,0,1-.065-4.053Zm-1.27,1.784h2.534a1.252,1.252,0,0,0-1.272-1.288A1.287,1.287,0,0,0,223.346,166.178Z" fill="#0b79bf"/>
      <path d="M227.026,164.49h.648l1.287,3.166,1.279-3.166h.655l-1.606,3.861h-.656Z" fill="#0b79bf"/>
      <path d="M233.36,164.394a1.876,1.876,0,0,1,1.856,2.071v.152H232.09a1.36,1.36,0,0,0,1.39,1.335,1.691,1.691,0,0,0,1.192-.487l.288.391a2.1,2.1,0,0,1-1.535.591,2.029,2.029,0,0,1-.065-4.053Zm-1.27,1.784h2.534a1.252,1.252,0,0,0-1.272-1.288A1.287,1.287,0,0,0,232.09,166.178Z" fill="#0b79bf"/>
      <path d="M236.346,164.49h.6v.623a1.644,1.644,0,0,1,1.287-.7v.615a1.106,1.106,0,0,0-.239-.023,1.412,1.412,0,0,0-1.048.615v2.734h-.6Z" fill="#0b79bf"/>
      <path d="M239.121,167.408a1.748,1.748,0,0,0,1.272.553c.591,0,.912-.265.912-.641,0-.424-.472-.559-.993-.687-.655-.153-1.4-.328-1.4-1.127,0-.6.52-1.112,1.438-1.112a1.952,1.952,0,0,1,1.432.56l-.28.415a1.507,1.507,0,0,0-1.152-.487c-.527,0-.855.239-.855.584,0,.376.44.5.943.616.672.151,1.448.344,1.448,1.2,0,.647-.52,1.166-1.519,1.166a2.051,2.051,0,0,1-1.559-.607Z" fill="#0b79bf"/>
      <path d="M244.7,164.394a1.876,1.876,0,0,1,1.856,2.071v.152h-3.126a1.359,1.359,0,0,0,1.39,1.335,1.691,1.691,0,0,0,1.192-.487l.288.391a2.1,2.1,0,0,1-1.536.591,2.029,2.029,0,0,1-.064-4.053Zm-1.27,1.784h2.534a1.252,1.252,0,0,0-1.272-1.288A1.287,1.287,0,0,0,243.434,166.178Z" fill="#0b79bf"/>
      <path d="M249.889,167.408a1.745,1.745,0,0,0,1.271.553c.592,0,.912-.265.912-.641,0-.424-.471-.559-.992-.687-.655-.153-1.4-.328-1.4-1.127,0-.6.519-1.112,1.438-1.112a1.955,1.955,0,0,1,1.432.56l-.281.415a1.5,1.5,0,0,0-1.151-.487c-.527,0-.855.239-.855.584,0,.376.44.5.943.616.672.151,1.447.344,1.447,1.2,0,.647-.519,1.166-1.518,1.166a2.055,2.055,0,0,1-1.56-.607Z" fill="#0b79bf"/>
      <path d="M253.689,163.434a.4.4,0,0,1,.808,0,.4.4,0,1,1-.808,0Zm.1,1.056h.6v3.861h-.6Z" fill="#0b79bf"/>
      <path d="M258.552,167.776a1.626,1.626,0,0,1-1.3.671c-1.008,0-1.719-.767-1.719-2.021,0-1.233.7-2.032,1.719-2.032a1.617,1.617,0,0,1,1.3.68v-2.055h.6v5.332h-.6Zm0-2.222a1.45,1.45,0,0,0-1.159-.624c-.777,0-1.241.64-1.241,1.5s.464,1.486,1.241,1.486a1.439,1.439,0,0,0,1.159-.607Z" fill="#0b79bf"/>
      <path d="M262.192,164.394a1.876,1.876,0,0,1,1.856,2.071v.152h-3.126a1.36,1.36,0,0,0,1.39,1.335,1.691,1.691,0,0,0,1.192-.487l.288.391a2.1,2.1,0,0,1-1.535.591,2.029,2.029,0,0,1-.065-4.053Zm-1.27,1.784h2.534a1.252,1.252,0,0,0-1.271-1.288A1.288,1.288,0,0,0,260.922,166.178Z" fill="#0b79bf"/>
      <path d="M267.569,165.017h-.639v-.527h.639v-.3a1.162,1.162,0,0,1,1.7-1.12l-.152.449a.666.666,0,0,0-.344-.089c-.391,0-.607.273-.607.76v.3h.783v.527h-.783v3.334h-.6Z" fill="#0b79bf"/>
      <path d="M269.6,166.417a1.914,1.914,0,1,1,1.911,2.03A1.895,1.895,0,0,1,269.6,166.417Zm3.19,0a1.3,1.3,0,1,0-1.279,1.5A1.342,1.342,0,0,0,272.792,166.417Z" fill="#0b79bf"/>
      <path d="M274.56,164.49h.6v.623a1.644,1.644,0,0,1,1.287-.7v.615a1.106,1.106,0,0,0-.239-.023,1.412,1.412,0,0,0-1.048.615v2.734h-.6Z" fill="#0b79bf"/>
      <path d="M284.246,165.729c0-.487-.216-.8-.711-.8a1.35,1.35,0,0,0-1.023.591v2.83h-.6v-2.622c0-.487-.208-.8-.712-.8a1.351,1.351,0,0,0-1.015.6v2.822h-.6V164.49h.6v.56a1.671,1.671,0,0,1,1.247-.656.994.994,0,0,1,1.04.719,1.625,1.625,0,0,1,1.3-.719c.7,0,1.079.392,1.079,1.167v2.79h-.6Z" fill="#0b79bf"/>
      <path d="M285.985,166.417a1.914,1.914,0,1,1,1.911,2.03A1.9,1.9,0,0,1,285.985,166.417Zm3.191,0a1.3,1.3,0,1,0-1.28,1.5A1.342,1.342,0,0,0,289.176,166.417Z" fill="#0b79bf"/>
      <path d="M290.944,164.49h.6v.623a1.642,1.642,0,0,1,1.287-.7v.615a1.113,1.113,0,0,0-.239-.023,1.412,1.412,0,0,0-1.048.615v2.734h-.6Z" fill="#0b79bf"/>
      <path d="M295.424,164.394a1.875,1.875,0,0,1,1.855,2.071v.152h-3.126a1.36,1.36,0,0,0,1.391,1.335,1.688,1.688,0,0,0,1.191-.487l.288.391a2.094,2.094,0,0,1-1.535.591,2.029,2.029,0,0,1-.064-4.053Zm-1.271,1.784h2.534a1.25,1.25,0,0,0-1.271-1.288A1.289,1.289,0,0,0,294.153,166.178Z" fill="#0b79bf"/>
      <path d="M300.529,163.434a.4.4,0,0,1,.808,0,.4.4,0,1,1-.808,0Zm.1,1.056h.6v3.861h-.6Z" fill="#0b79bf"/>
      <path d="M305.2,165.826c0-.68-.344-.9-.863-.9a1.494,1.494,0,0,0-1.144.6v2.822h-.6V164.49h.6v.56a1.918,1.918,0,0,1,1.375-.656,1.1,1.1,0,0,1,1.232,1.247v2.71h-.6Z" fill="#0b79bf"/>
      <path d="M307.328,165.017h-.64v-.527h.64v-.3a1.162,1.162,0,0,1,1.7-1.12l-.152.449a.663.663,0,0,0-.344-.089c-.392,0-.607.273-.607.76v.3h.783v.527h-.783v3.334h-.6Z" fill="#0b79bf"/>
      <path d="M309.36,166.417a1.914,1.914,0,1,1,1.911,2.03A1.9,1.9,0,0,1,309.36,166.417Zm3.191,0a1.3,1.3,0,1,0-1.28,1.5A1.342,1.342,0,0,0,312.551,166.417Z" fill="#0b79bf"/>
      <path d="M314.32,164.49h.6v.623a1.642,1.642,0,0,1,1.287-.7v.615a1.113,1.113,0,0,0-.239-.023,1.412,1.412,0,0,0-1.048.615v2.734h-.6Z" fill="#0b79bf"/>
      <path d="M321.781,165.729c0-.487-.216-.8-.711-.8a1.35,1.35,0,0,0-1.023.591v2.83h-.6v-2.622c0-.487-.208-.8-.712-.8a1.351,1.351,0,0,0-1.015.6v2.822h-.6V164.49h.6v.56a1.671,1.671,0,0,1,1.247-.656.993.993,0,0,1,1.04.719,1.626,1.626,0,0,1,1.3-.719c.7,0,1.079.392,1.079,1.167v2.79h-.6Z" fill="#0b79bf"/>
      <path d="M326.159,167.912a1.673,1.673,0,0,1-1.279.535,1.286,1.286,0,0,1-1.352-1.279,1.265,1.265,0,0,1,1.352-1.271,1.612,1.612,0,0,1,1.279.529v-.7c0-.519-.416-.815-.975-.815a1.537,1.537,0,0,0-1.184.535l-.279-.416a2.018,2.018,0,0,1,1.543-.639c.815,0,1.5.368,1.5,1.3v2.654h-.6Zm0-1.1a1.3,1.3,0,0,0-1.063-.479.849.849,0,1,0,0,1.686,1.3,1.3,0,0,0,1.063-.478Z" fill="#0b79bf"/>
      <path d="M328.24,167.545v-2.528H327.6v-.527h.639v-1.056h.6v1.056h.783v.527h-.783v2.4c0,.289.128.5.391.5a.582.582,0,0,0,.409-.16l.175.448a.98.98,0,0,1-.719.247A.789.789,0,0,1,328.24,167.545Z" fill="#0b79bf"/>
      <path d="M330.528,163.434a.4.4,0,0,1,.808,0,.4.4,0,1,1-.808,0Zm.1,1.056h.6v3.861h-.6Z" fill="#0b79bf"/>
      <path d="M332.368,166.417a1.914,1.914,0,1,1,1.911,2.03A1.895,1.895,0,0,1,332.368,166.417Zm3.191,0a1.3,1.3,0,1,0-1.28,1.5A1.343,1.343,0,0,0,335.559,166.417Z" fill="#0b79bf"/>
      <path d="M339.935,165.826c0-.68-.344-.9-.864-.9a1.492,1.492,0,0,0-1.143.6v2.822h-.6V164.49h.6v.56a1.912,1.912,0,0,1,1.375-.656,1.1,1.1,0,0,1,1.231,1.247v2.71h-.6Z" fill="#0b79bf"/>
    </g>
    <g>
      <path d="M35.97,46.34h-.639v-.413a.392.392,0,0,0-.784,0v.413H29.886V44.7c0-.452-.367-.512-.818-.512s-.818.06-.818.512V46.34H23.588v-.413a.392.392,0,0,0-.784,0v.413h-.638c-.292,0-.307.32-.307.715s.015.716.307.716h3.289l2.8,2.794V68.249c0,.452,1.636.452,1.636,0V50.565l2.794-2.794h3.29c.291,0,.306-.32.306-.716S36.261,46.34,35.97,46.34Zm-7.72,3.647-2.216-2.216H28.25Zm1.636,0V47.771H32.1Z" fill="#fff"/>
      <path d="M39.445,65.792A18.658,18.658,0,0,1,22.716,47.257h.795a17.861,17.861,0,0,0,16.648,17.8C40.552,65.081,40.07,65.856,39.445,65.792Z" fill="#fff"/>
    </g>
    <g>
      <path d="M43.924,95.865c.016.074.034.147.049.222C43.958,96.013,43.94,95.939,43.924,95.865Z" fill="#fff"/>
      <path d="M44.2,100.416c-.013.142-.025.284-.042.423Q44.185,100.629,44.2,100.416Z" fill="#fff"/>
      <path d="M44.179,97.437c.007.068.013.137.019.2C44.192,97.574,44.186,97.505,44.179,97.437Z" fill="#fff"/>
      <path d="M43.663,94.85a15.251,15.251,0,0,0-9.43-10.078C35.684,85.4,41.721,88.354,43.663,94.85Z" fill="#fff"/>
      <path d="M33.913,84.64l0,.014c.11.037.216.079.324.118C34.031,84.685,33.913,84.64,33.913,84.64Z" fill="#fff"/>
      <path d="M43.973,96.087q.132.666.206,1.35Q44.106,96.741,43.973,96.087Z" fill="#fff"/>
      <path d="M43.663,94.85c.1.334.187.671.261,1.015Q43.81,95.345,43.663,94.85Z" fill="#fff"/>
      <path d="M44.2,100.416c.04-.435.068-.877.068-1.336,0-.5-.03-.972-.073-1.438.044.474.073.953.073,1.438C44.271,99.531,44.242,99.975,44.2,100.416Z" fill="#fff"/>
      <path d="M44.161,100.839c-.028.245-.071.485-.111.726C44.092,101.326,44.131,101.086,44.161,100.839Z" fill="#fff"/>
      <path d="M43.3,99.08A14.233,14.233,0,0,0,33.691,85.6l-.417,1.809a13.714,13.714,0,0,1-2.622,5.48c-.161.2-.322.394-.482.578l-4.945,5.7a5.264,5.264,0,0,0-.693,4.7,3.72,3.72,0,0,0,1.631,1.961l.5.307a2.486,2.486,0,0,0,.771.305l1.931.409a3.742,3.742,0,0,1,2.358,1.619l.21.323a1.771,1.771,0,0,1,.285.915s.071,1.8.089,3.243A14.237,14.237,0,0,0,43.3,99.08Z" fill="#fff"/>
    </g>
    <path d="M33.945,99.663l.693,1.176a10.967,10.967,0,0,1,1.2,2.842,5.879,5.879,0,0,1,.158.828,1.878,1.878,0,0,1-1.7,2.059,3.574,3.574,0,0,1-.8-.041,2.593,2.593,0,0,1-1.64-.973c-.549-.692-1.448-1.646-2.273-1.7-1.3-.093-2.047.279-1.674.744.333.417,2.28.75,3.36.756.125,0,.239,0,.337-.012" fill="none" stroke="#328aca" stroke-linecap="round" stroke-miterlimit="10" stroke-width="0.75"/>
    <path d="M31.655,105.4s-2.268.175-2.9-.349-1.535-.593-.872-.907a3.193,3.193,0,0,1,2.407,0A4.851,4.851,0,0,1,31.655,105.4Z" fill="#0b79bf"/>
  </g>
</svg>
