<svg xmlns="http://www.w3.org/2000/svg" width="543.83" height="52.539" viewBox="0 0 543.83 52.539">
  <g>
    <path d="M201.169,0H0V38.169c0,7.936,7.156,14.37,15.984,14.37H201.169Z" fill="#f2f0ec"/>
    <path d="M203.734,52.539H527.847c8.827,0,15.983-6.434,15.983-14.37V0h-340.1Z" fill="#f2f0ec"/>
    <g>
      <path d="M68.933,17.605H66.678L66.4,18.749H64.565l2.168-7.338h2.145l2.167,7.338H69.208Zm-1.9-1.53h1.562l-.781-3.1Z" fill="#0b79bf"/>
      <path d="M71.727,20.773V13.436h1.595v.627a1.509,1.509,0,0,1,1.309-.759c1.2,0,1.991,1.011,1.991,2.783,0,1.749-.791,2.794-1.991,2.794a1.5,1.5,0,0,1-1.309-.759v2.651Zm2.365-6.061a.915.915,0,0,0-.77.483v1.783a.953.953,0,0,0,.77.495c.583,0,.9-.561.9-1.386S74.675,14.712,74.092,14.712Z" fill="#0b79bf"/>
      <path d="M77.634,13.436h1.595v.681a1.855,1.855,0,0,1,1.419-.813v1.54a1.38,1.38,0,0,0-.341-.044,1.407,1.407,0,0,0-1.078.527v3.422H77.634Z" fill="#0b79bf"/>
      <path d="M81.429,11.84a.919.919,0,1,1,.923.925A.922.922,0,0,1,81.429,11.84Zm.121,1.6h1.595v5.313H81.55Z" fill="#0b79bf"/>
      <path d="M84.432,11.411h1.595v7.338H84.432Z" fill="#0b79bf"/>
      <path d="M89.733,17.318c2.816-2.53,3.245-2.959,3.245-3.663a.8.8,0,0,0-.88-.781,1.979,1.979,0,0,0-1.562.781L89.5,12.522A3.335,3.335,0,0,1,92.143,11.3a2.365,2.365,0,0,1,2.629,2.332c0,1.056-.65,1.926-2.464,3.565h2.519v1.551H89.733Z" fill="#0b79bf"/>
      <path d="M98.445,11.3c1.882,0,2.74,1.628,2.74,3.785s-.858,3.8-2.74,3.8-2.75-1.65-2.75-3.795S96.564,11.3,98.445,11.3Zm0,1.573c-.715,0-.946.8-.946,2.212s.231,2.222.946,2.222.935-.826.935-2.222S99.149,12.874,98.445,12.874Z" fill="#0b79bf"/>
      <path d="M104.847,16.361l-1.2,2.388h-2.035L103.736,15l-2-3.586h2.035l1.078,2.244,1.067-2.244h2.047l-1.991,3.575,2.123,3.763h-2.035Z" fill="#0b79bf"/>
      <path d="M111.4,16.361l-1.2,2.388h-2.036L110.292,15l-2-3.586h2.035l1.078,2.244,1.068-2.244h2.046l-1.991,3.575,2.123,3.763h-2.035Z" fill="#0b79bf"/>
      <path d="M117.893,11.411h4.422V12.94h-2.64v1.321h2.563V15.79h-2.563v1.43h2.64v1.529h-4.422Z" fill="#0b79bf"/>
      <path d="M123.47,11.411h1.595v7.338H123.47Z" fill="#0b79bf"/>
      <path d="M128.563,13.3c1.5,0,2.376,1.154,2.376,2.86v.44h-3.267a1.088,1.088,0,0,0,1.166,1.023,1.58,1.58,0,0,0,1.089-.462l.7.957a2.822,2.822,0,0,1-1.98.759,2.535,2.535,0,0,1-2.574-2.794A2.542,2.542,0,0,1,128.563,13.3Zm-.9,2.232h1.76c-.022-.429-.22-.978-.88-.978C127.9,14.558,127.694,15.107,127.661,15.536Z" fill="#0b79bf"/>
      <path d="M134.162,13.3a2.237,2.237,0,0,1,1.782.725l-.77,1.089a1.026,1.026,0,0,0-.825-.406c-.649,0-1.089.55-1.089,1.375s.44,1.386,1.089,1.386a1.009,1.009,0,0,0,.825-.418l.77,1.1a2.237,2.237,0,0,1-1.782.726,2.55,2.55,0,0,1-2.53-2.794A2.54,2.54,0,0,1,134.162,13.3Z" fill="#0b79bf"/>
      <path d="M137.1,17.374V14.821h-.671V13.436h.671V11.983h1.595v1.453h.858v1.385h-.858v2.157c0,.308.121.495.363.495a.549.549,0,0,0,.363-.121l.286,1.232a1.779,1.779,0,0,1-1.1.3A1.326,1.326,0,0,1,137.1,17.374Z" fill="#0b79bf"/>
      <path d="M140.53,13.436h1.6v.681a1.855,1.855,0,0,1,1.419-.813v1.54a1.38,1.38,0,0,0-.341-.044,1.407,1.407,0,0,0-1.078.527v3.422h-1.6Z" fill="#0b79bf"/>
      <path d="M144.326,11.84a.919.919,0,1,1,.923.925A.922.922,0,0,1,144.326,11.84Zm.12,1.6h1.6v5.313h-1.6Z" fill="#0b79bf"/>
      <path d="M149.583,13.3a2.239,2.239,0,0,1,1.783.725l-.77,1.089a1.027,1.027,0,0,0-.826-.406c-.648,0-1.088.55-1.088,1.375s.44,1.386,1.088,1.386a1.011,1.011,0,0,0,.826-.418l.77,1.1a2.239,2.239,0,0,1-1.783.726,2.55,2.55,0,0,1-2.53-2.794A2.54,2.54,0,0,1,149.583,13.3Z" fill="#0b79bf"/>
      <path d="M154.819,11.411h1.793v4.741c0,.738.352,1.166,1.056,1.166s1.045-.428,1.045-1.166V11.411h1.794v4.731a2.846,2.846,0,0,1-5.688,0Z" fill="#0b79bf"/>
      <path d="M162.09,17.033a2.548,2.548,0,0,0,1.507.627c.44,0,.66-.165.66-.429s-.33-.385-.792-.506c-.759-.209-1.826-.473-1.826-1.749,0-.892.715-1.672,2.068-1.672a3.177,3.177,0,0,1,1.958.671l-.616,1.066a2,2,0,0,0-1.331-.527c-.341,0-.583.142-.583.374s.286.351.748.472c.781.209,1.892.5,1.892,1.8,0,1-.836,1.716-2.145,1.716a3.152,3.152,0,0,1-2.178-.759Z" fill="#0b79bf"/>
      <path d="M168.954,13.3c1.5,0,2.377,1.154,2.377,2.86v.44h-3.268a1.088,1.088,0,0,0,1.166,1.023,1.58,1.58,0,0,0,1.089-.462l.7.957a2.822,2.822,0,0,1-1.98.759,2.535,2.535,0,0,1-2.574-2.794A2.542,2.542,0,0,1,168.954,13.3Zm-.9,2.232h1.76c-.022-.429-.22-.978-.88-.978C168.294,14.558,168.085,15.107,168.052,15.536Z" fill="#0b79bf"/>
    </g>
    <g>
      <path d="M271.7,15.086c0-2.245,1.243-3.8,3.2-3.8a2.683,2.683,0,0,1,2.629,1.925l-1.463.628a1.245,1.245,0,0,0-1.166-.98c-.869,0-1.386.935-1.386,2.223s.517,2.222,1.386,2.222a1.268,1.268,0,0,0,1.166-1.056l1.474.627a2.734,2.734,0,0,1-2.64,2C272.939,18.881,271.7,17.318,271.7,15.086Z" fill="#0b79bf"/>
      <path d="M278.176,16.087a2.537,2.537,0,1,1,5.05,0,2.538,2.538,0,1,1-5.05,0Zm3.41,0c0-.771-.275-1.375-.891-1.375s-.881.6-.881,1.375.276,1.386.881,1.386S281.586,16.868,281.586,16.087Z" fill="#0b79bf"/>
      <path d="M284.478,17.033a2.551,2.551,0,0,0,1.507.627c.441,0,.66-.165.66-.429s-.33-.385-.792-.506c-.758-.209-1.826-.473-1.826-1.749,0-.892.715-1.672,2.069-1.672a3.18,3.18,0,0,1,1.958.671l-.617,1.066a2,2,0,0,0-1.331-.527c-.34,0-.583.142-.583.374s.287.351.748.472c.782.209,1.893.5,1.893,1.8,0,1-.836,1.716-2.146,1.716a3.152,3.152,0,0,1-2.178-.759Z" fill="#0b79bf"/>
      <path d="M289.4,17.374V14.821h-.67V13.436h.67V11.983h1.6v1.453h.859v1.385h-.859v2.157c0,.308.121.495.363.495a.552.552,0,0,0,.364-.121L292,18.584a1.78,1.78,0,0,1-1.1.3A1.327,1.327,0,0,1,289.4,17.374Z" fill="#0b79bf"/>
      <path d="M295.335,20.773V13.436h1.6v.627a1.506,1.506,0,0,1,1.308-.759c1.2,0,1.991,1.011,1.991,2.783,0,1.749-.792,2.794-1.991,2.794a1.5,1.5,0,0,1-1.308-.759v2.651Zm2.365-6.061a.912.912,0,0,0-.769.483v1.783a.95.95,0,0,0,.769.495c.583,0,.9-.561.9-1.386S298.283,14.712,297.7,14.712Z" fill="#0b79bf"/>
      <path d="M303.453,13.3c1.5,0,2.377,1.154,2.377,2.86v.44h-3.268a1.088,1.088,0,0,0,1.166,1.023,1.579,1.579,0,0,0,1.089-.462l.7.957a2.82,2.82,0,0,1-1.979.759,2.535,2.535,0,0,1-2.575-2.794A2.542,2.542,0,0,1,303.453,13.3Zm-.9,2.232h1.759c-.021-.429-.219-.978-.879-.978C302.793,14.558,302.584,15.107,302.552,15.536Z" fill="#0b79bf"/>
      <path d="M306.8,13.436h1.6v.681a1.851,1.851,0,0,1,1.418-.813v1.54a1.371,1.371,0,0,0-.34-.044,1.4,1.4,0,0,0-1.078.527v3.422h-1.6Z" fill="#0b79bf"/>
      <path d="M316.257,18.122a1.566,1.566,0,0,1-1.321.759c-1.187,0-1.991-1.012-1.991-2.794,0-1.717.792-2.783,1.991-2.783a1.539,1.539,0,0,1,1.321.759V11.411h1.585v7.338h-1.585Zm0-2.927a.972.972,0,0,0-.781-.483c-.583,0-.9.56-.9,1.375s.319,1.386.9,1.386a.986.986,0,0,0,.781-.495Z" fill="#0b79bf"/>
      <path d="M321.9,18.232a1.781,1.781,0,0,1-1.4.649,1.65,1.65,0,0,1-1.661-1.76,1.575,1.575,0,0,1,1.661-1.694,1.752,1.752,0,0,1,1.4.6v-.615a.818.818,0,0,0-.934-.825,2.024,2.024,0,0,0-1.31.55l-.56-1.068a3.3,3.3,0,0,1,2.177-.769c1.211,0,2.212.516,2.212,1.947v3.5H321.9Zm0-1.353a.869.869,0,0,0-.769-.418.688.688,0,1,0,0,1.375.871.871,0,0,0,.769-.418Z" fill="#0b79bf"/>
      <path d="M325.31,19.5c.275,0,.472-.088.549-.308l.121-.341-1.8-5.412h1.682l.936,3.4.957-3.4h1.683l-2.057,6.105a1.772,1.772,0,0,1-1.947,1.364,2.862,2.862,0,0,1-.694-.088l.221-1.4A.709.709,0,0,0,325.31,19.5Z" fill="#0b79bf"/>
      <path d="M331.051,13.358a.985.985,0,1,1-.991.979A1,1,0,0,1,331.051,13.358Zm0,3.554a.979.979,0,1,1-.991.979A1,1,0,0,1,331.051,16.912Z" fill="#0b79bf"/>
    </g>
    <g>
      <path d="M404.135,16.064l-.462.771v1.914h-1.782V11.411h1.782v3.1l1.815-3.1h2.069l-2.3,3.433,2.442,3.9h-2.1Z" fill="#0b79bf"/>
      <path d="M412.22,14.315l-.814,4.434h-1.838l-1.694-7.338h1.9l.815,4.676.957-4.676h1.364l.946,4.676.814-4.676h1.9l-1.694,7.338h-1.837Z" fill="#0b79bf"/>
      <path d="M420.393,15.371c0-.483-.231-.659-.627-.659a1,1,0,0,0-.826.56v3.477h-1.584V11.411h1.584V14.1a1.965,1.965,0,0,1,1.574-.792,1.305,1.305,0,0,1,1.463,1.44v4h-1.584Z" fill="#0b79bf"/>
      <path d="M425.782,20.773V13.436h1.6v.627a1.509,1.509,0,0,1,1.309-.759c1.2,0,1.992,1.011,1.992,2.783,0,1.749-.792,2.794-1.992,2.794a1.5,1.5,0,0,1-1.309-.759v2.651Zm2.365-6.061a.915.915,0,0,0-.77.483v1.783a.953.953,0,0,0,.77.495c.583,0,.9-.561.9-1.386S428.73,14.712,428.147,14.712Z" fill="#0b79bf"/>
      <path d="M433.9,13.3c1.5,0,2.377,1.154,2.377,2.86v.44H433.01a1.087,1.087,0,0,0,1.166,1.023,1.584,1.584,0,0,0,1.089-.462l.7.957a2.823,2.823,0,0,1-1.981.759,2.535,2.535,0,0,1-2.574-2.794A2.542,2.542,0,0,1,433.9,13.3Zm-.9,2.232h1.761c-.023-.429-.22-.978-.88-.978C433.24,14.558,433.031,15.107,433,15.536Z" fill="#0b79bf"/>
      <path d="M437.244,13.436h1.595v.681a1.855,1.855,0,0,1,1.42-.813v1.54a1.363,1.363,0,0,0-1.42.483v3.422h-1.595Z" fill="#0b79bf"/>
      <path d="M446.7,18.122a1.566,1.566,0,0,1-1.32.759c-1.189,0-1.991-1.012-1.991-2.794,0-1.717.792-2.783,1.991-2.783a1.539,1.539,0,0,1,1.32.759V11.411h1.584v7.338H446.7Zm0-2.927a.972.972,0,0,0-.781-.483c-.583,0-.9.56-.9,1.375s.32,1.386.9,1.386a.986.986,0,0,0,.781-.495Z" fill="#0b79bf"/>
      <path d="M452.348,18.232a1.788,1.788,0,0,1-1.4.649,1.65,1.65,0,0,1-1.661-1.76,1.575,1.575,0,0,1,1.661-1.694,1.759,1.759,0,0,1,1.4.6v-.615a.82.82,0,0,0-.936-.825,2.022,2.022,0,0,0-1.309.55l-.561-1.068a3.307,3.307,0,0,1,2.179-.769c1.21,0,2.211.516,2.211,1.947v3.5h-1.584Zm0-1.353a.873.873,0,0,0-.771-.418.688.688,0,1,0,0,1.375.875.875,0,0,0,.771-.418Z" fill="#0b79bf"/>
      <path d="M455.757,19.5a.512.512,0,0,0,.55-.308l.121-.341-1.805-5.412h1.684l.935,3.4.957-3.4h1.683l-2.057,6.105a1.772,1.772,0,0,1-1.947,1.364,2.841,2.841,0,0,1-.693-.088l.219-1.4A.715.715,0,0,0,455.757,19.5Z" fill="#0b79bf"/>
      <path d="M461.5,13.358a.985.985,0,1,1-.99.979A1,1,0,0,1,461.5,13.358Zm0,3.554a.979.979,0,1,1-.99.979A1,1,0,0,1,461.5,16.912Z" fill="#0b79bf"/>
    </g>
    <g>
      <path d="M69.64,35.877H64.965V33.616l3.91-6.9h3.518v6.766H73.5v2.4H72.393v2.176H69.64Zm-2.21-2.4h2.21v-4.03Z" fill="#0b79bf"/>
      <path d="M79.5,26.545a4.364,4.364,0,0,1,3.026,1.139l-1.275,2a2.129,2.129,0,0,0-1.717-.764c-1.224,0-2.141,1.24-2.141,2.889v.12a2.747,2.747,0,0,1,2.362-1.327c1.717,0,3.263,1.292,3.263,3.707a3.784,3.784,0,0,1-3.943,3.943c-3.144,0-4.471-2.635-4.471-5.848C74.6,28.84,76.475,26.545,79.5,26.545ZM78.837,32.9a1.86,1.86,0,0,0-1.462.884c.068.969.442,2.091,1.564,2.091a1.494,1.494,0,0,0-.1-2.975Z" fill="#0b79bf"/>
      <path d="M86.3,32.205a2.793,2.793,0,0,1-1.971-2.669c0-2.124,2.056-2.991,4.028-2.991,1.955,0,4.029.867,4.029,2.991A2.808,2.808,0,0,1,90.4,32.205a3.243,3.243,0,0,1,2.142,2.89c0,2.091-1.8,3.162-4.182,3.162-2.4,0-4.182-1.054-4.182-3.145A3.23,3.23,0,0,1,86.3,32.205Zm2.057,1.088c-.476.068-1.428.562-1.428,1.445,0,.765.612,1.173,1.428,1.173.8,0,1.428-.408,1.428-1.173C89.785,33.855,88.816,33.361,88.357,33.293Zm0-4.4c-.8,0-1.275.424-1.275,1.122,0,.764.85,1.173,1.275,1.258.425-.085,1.275-.494,1.275-1.258C89.632,29.315,89.139,28.891,88.357,28.891Z" fill="#0b79bf"/>
      <path d="M101.565,33.905l-.713,1.19v2.958H98.1V26.715h2.754v4.794l2.8-4.794h3.2l-3.553,5.3,3.774,6.034h-3.247Z" fill="#0b79bf"/>
      <path d="M114.06,31.2,112.8,38.053h-2.839l-2.618-11.338h2.941l1.258,7.224,1.478-7.224h2.108l1.462,7.224,1.258-7.224h2.941l-2.618,11.338h-2.839Z" fill="#0b79bf"/>
      <path d="M126.691,32.834c0-.748-.357-1.02-.968-1.02a1.534,1.534,0,0,0-1.275.868v5.371H122V26.715h2.448v4.147a3.033,3.033,0,0,1,2.43-1.223,2.017,2.017,0,0,1,2.261,2.226v6.188h-2.448Z" fill="#0b79bf"/>
    </g>
    <g>
      <path d="M276.845,38.172v1.581H275.06v-1.53a5.357,5.357,0,0,1-3.366-1.445L273,34.67a3.807,3.807,0,0,0,2.754,1.207c.815,0,1.308-.425,1.308-.986,0-.68-.663-1-1.614-1.36-1.462-.527-3.417-1.156-3.417-3.552a3.408,3.408,0,0,1,3.026-3.366V25h1.785v1.581a5.3,5.3,0,0,1,2.8,1.24l-1.257,2.04a3.637,3.637,0,0,0-2.4-.934c-.782,0-1.156.39-1.156.9,0,.613.645.918,1.632,1.276,1.444.526,3.382,1.24,3.382,3.535A3.421,3.421,0,0,1,276.845,38.172Z" fill="#0b79bf"/>
      <path d="M281.265,35.843c4.351-3.909,5.014-4.572,5.014-5.66a1.233,1.233,0,0,0-1.36-1.207,3.053,3.053,0,0,0-2.413,1.207l-1.6-1.751a5.151,5.151,0,0,1,4.08-1.887c2.4,0,4.063,1.428,4.063,3.6,0,1.632-1,2.975-3.808,5.508h3.893v2.4h-7.87Z" fill="#0b79bf"/>
      <path d="M292.3,35.214a1.513,1.513,0,1,1-1.53,1.513A1.539,1.539,0,0,1,292.3,35.214Z" fill="#0b79bf"/>
      <path d="M295.578,35.843c4.352-3.909,5.015-4.572,5.015-5.66a1.233,1.233,0,0,0-1.36-1.207,3.058,3.058,0,0,0-2.414,1.207l-1.6-1.751a5.146,5.146,0,0,1,4.079-1.887c2.4,0,4.063,1.428,4.063,3.6,0,1.632-1,2.975-3.807,5.508h3.892v2.4h-7.871Z" fill="#0b79bf"/>
      <path d="M307.716,30.233l-1.7,1.735-1.565-1.632,3.638-3.621h2.38V38.053h-2.754Z" fill="#0b79bf"/>
    </g>
    <g>
      <path d="M404.657,30.233l-1.7,1.735-1.564-1.632,3.638-3.621h2.38V38.053h-2.754Z" fill="#0b79bf"/>
      <path d="M410.794,34.772a3.148,3.148,0,0,0,2.362,1.105A1.436,1.436,0,0,0,414.7,34.4a1.333,1.333,0,0,0-1.444-1.479,2.159,2.159,0,0,0-1.769.884l-1.972-.476V26.715h7.31v2.362h-4.606v2.432a2.853,2.853,0,0,1,2.107-.9c1.751,0,3.179,1.361,3.179,3.689,0,2.363-1.632,3.961-4.267,3.961a4.944,4.944,0,0,1-4.045-1.735Z" fill="#0b79bf"/>
    </g>
    <g>
      <polygon points="42.611 29.03 34.21 21.707 25.809 29.03 25.809 38.16 32.507 38.16 32.621 33.279 36.083 33.279 35.97 38.16 42.611 38.16 42.611 29.03" fill="#0b79bf"/>
      <polygon points="45.594 27.33 34.21 17.486 22.826 27.33 24.024 28.715 34.21 19.906 44.397 28.715 45.594 27.33 45.594 27.33" fill="#0b79bf"/>
    </g>
    <g>
      <path d="M261.442,21.305a1.662,1.662,0,0,1,.063.449V35.611a1.645,1.645,0,0,1-1.644,1.644H245.067a1.6,1.6,0,0,1-.22-.014,1.643,1.643,0,0,0,1.581,1.194h14.794a1.645,1.645,0,0,0,1.644-1.644V22.933A1.644,1.644,0,0,0,261.442,21.305Z" fill="#0b79bf"/>
      <g>
        <path d="M253.851,21.556h.411c.454,0,.822-.505.822-1.126V18.338c0-.622-.368-1.127-.822-1.127h-.411c-.453,0-.821.505-.821,1.127V20.43C253.03,21.051,253.4,21.556,253.851,21.556Z" fill="#0b79bf"/>
        <path d="M248.446,21.556h.411c.454,0,.821-.505.821-1.126V18.338c0-.622-.367-1.127-.821-1.127h-.411c-.454,0-.822.505-.822,1.127V20.43C247.624,21.051,247.993,21.556,248.446,21.556Z" fill="#0b79bf"/>
        <path d="M258.79,19.384h-2.64V20.91a1.645,1.645,0,0,1-1.644,1.644h-.822a1.645,1.645,0,0,1-1.644-1.644V19.384h-1.295V20.91a1.644,1.644,0,0,1-1.645,1.644h-.822a1.643,1.643,0,0,1-1.643-1.644V19.384H244a1.644,1.644,0,0,0-1.644,1.643V34.885A1.644,1.644,0,0,0,244,36.529h14.8a1.645,1.645,0,0,0,1.644-1.644V21.027A1.644,1.644,0,0,0,258.79,19.384Zm.362,15.6H243.633V24.079h15.519V34.986Z" fill="#0b79bf"/>
        <path d="M248.318,32.109a.911.911,0,0,1-.649-.239,1.6,1.6,0,0,1-.377-.862l-2.055.273a3.166,3.166,0,0,0,.578,1.149,2.378,2.378,0,0,0,.96.7,4.346,4.346,0,0,0,1.595.238,3.718,3.718,0,0,0,1.672-.322,2.256,2.256,0,0,0,.974-.914,2.461,2.461,0,0,0,.339-1.24,1.814,1.814,0,0,0-.2-.887,1.616,1.616,0,0,0-.574-.6,2.339,2.339,0,0,0-.656-.247,2.226,2.226,0,0,0,.792-.683,1.512,1.512,0,0,0,.264-.869,1.7,1.7,0,0,0-.647-1.36,3.265,3.265,0,0,0-2.1-.541,3.306,3.306,0,0,0-1.952.5,2.445,2.445,0,0,0-.932,1.425l1.944.349a1.345,1.345,0,0,1,.308-.771.819.819,0,0,1,.592-.22.747.747,0,0,1,.556.2.731.731,0,0,1,.2.54.817.817,0,0,1-.27.612.946.946,0,0,1-.675.258,1.835,1.835,0,0,1-.268-.026l-.106,1.471a2.564,2.564,0,0,1,.667-.122.937.937,0,0,1,.72.283,1.123,1.123,0,0,1,.265.8,1.156,1.156,0,0,1-.275.808A.892.892,0,0,1,248.318,32.109Z" fill="#0b79bf"/>
        <path d="M254.78,28.3v4.937h2.081V25.7h-1.7a3.327,3.327,0,0,1-.909,1.173,5.011,5.011,0,0,1-1.631.813v1.688a7.671,7.671,0,0,0,1.185-.454A6.485,6.485,0,0,0,254.78,28.3Z" fill="#0b79bf"/>
      </g>
    </g>
    <g>
      <path d="M385.568,29.025a1.616,1.616,0,0,0-.865-.515l-.018-1.983.9-1.143A.88.88,0,1,0,384.2,24.3l-.9,1.143a1.669,1.669,0,0,0-.354,1.024v2h-4.685v-2a1.668,1.668,0,0,0-.353-1.024l-.148-.188,7.252-2.628a.88.88,0,0,0-.6-1.654s-6.45,2.32-8.544,3.091c-.624.23-.724.668-.4,1.107.26.355,1.037,1.3,1.037,1.3v2.045a1.613,1.613,0,0,0-1.241,1.8l.493,3.478A1.254,1.254,0,0,0,377,34.865h7.217a1.254,1.254,0,0,0,1.241-1.078l.493-3.477A1.619,1.619,0,0,0,385.568,29.025Z" fill="#0b79bf"/>
      <path d="M381.8,38.329h-2.4a.259.259,0,0,0-.259.259v.3a1.459,1.459,0,0,0,2.917,0v-.3A.258.258,0,0,0,381.8,38.329Z" fill="#0b79bf"/>
      <path d="M383.666,35.727h-6.122a.88.88,0,1,0,0,1.759h6.122a.88.88,0,0,0,0-1.759Z" fill="#0b79bf"/>
      <path d="M376.321,22.2a.867.867,0,0,0,.3-.054l8.393-3.042a.88.88,0,0,0-.6-1.654L376.02,20.5a.88.88,0,0,0,.3,1.707Z" fill="#0b79bf"/>
      <path d="M377.215,18.36a.881.881,0,0,0,.3-.054l5.973-2.165a.88.88,0,1,0-.6-1.654l-5.974,2.166a.88.88,0,0,0,.3,1.707Z" fill="#0b79bf"/>
    </g>
  </g>
</svg>
