<svg xmlns="http://www.w3.org/2000/svg" width="131.556" height="96.776" viewBox="0 0 131.556 96.776">
  <g>
    <g>
      <path d="M5.282,9.547h-3.4l-.6,2.115H.113l2.8-9.344h1.33l2.8,9.344H5.883ZM2.115,8.566H5.043L3.573,3.384Z" transform="translate(0 -2.179)" fill="#0b79bf"/>
      <path d="M11.356,4.729a2.312,2.312,0,0,1,1.933.9l-.547.686a1.518,1.518,0,0,0-1.3-.686c-1.2,0-1.835,1.2-1.835,2.647s.631,2.662,1.835,2.662a1.553,1.553,0,0,0,1.3-.687l.547.687a2.278,2.278,0,0,1-1.933.9c-1.737,0-2.8-1.555-2.8-3.558S9.619,4.729,11.356,4.729Z" transform="translate(0 -2.179)" fill="#0b79bf"/>
      <path d="M17.879,4.729a2.313,2.313,0,0,1,1.934.9l-.547.686a1.519,1.519,0,0,0-1.3-.686c-1.2,0-1.835,1.2-1.835,2.647s.631,2.662,1.835,2.662a1.554,1.554,0,0,0,1.3-.687l.547.687a2.279,2.279,0,0,1-1.934.9c-1.736,0-2.8-1.555-2.8-3.558S16.143,4.729,17.879,4.729Z" transform="translate(0 -2.179)" fill="#0b79bf"/>
      <path d="M21.6,8.272c0-1.905.953-3.543,2.746-3.543,1.82,0,2.76,1.638,2.76,3.543s-.94,3.558-2.76,3.558C22.555,11.83,21.6,10.177,21.6,8.272Zm4.455,0c0-1.359-.519-2.647-1.709-2.647-1.163,0-1.7,1.288-1.7,2.647s.532,2.662,1.7,2.662C25.538,10.934,26.057,9.645,26.057,8.272Z" transform="translate(0 -2.179)" fill="#0b79bf"/>
      <path d="M33.112,10.724a2.465,2.465,0,0,1-1.961,1.106c-1.149,0-1.7-.574-1.7-1.807V4.9h.994V9.729c0,.9.42,1.205,1.08,1.205a1.908,1.908,0,0,0,1.582-1.051V4.9H34.12v6.766H33.112Z" transform="translate(0 -2.179)" fill="#0b79bf"/>
      <path d="M40.462,6.844c0-.9-.406-1.219-1.078-1.219A1.978,1.978,0,0,0,37.8,6.7v4.959h-.994V4.9H37.8v.966a2.511,2.511,0,0,1,1.961-1.133c1.148,0,1.709.616,1.709,1.834v5.1H40.462Z" transform="translate(0 -2.179)" fill="#0b79bf"/>
      <path d="M44.352,10.3V5.778h-.9V4.9h.9V3.047h1.009V4.9h1.148v.882H45.361v4.343c0,.519.154.813.546.813a.757.757,0,0,0,.588-.267l.309.757a1.455,1.455,0,0,1-1.093.406C44.786,11.83,44.352,11.312,44.352,10.3Z" transform="translate(0 -2.179)" fill="#0b79bf"/>
      <path d="M52.584,2.318h1.121v9.344H52.584Z" transform="translate(0 -2.179)" fill="#0b79bf"/>
      <path d="M60.1,6.844c0-.9-.406-1.219-1.078-1.219A1.975,1.975,0,0,0,57.442,6.7v4.959h-.994V4.9h.994v.966A2.509,2.509,0,0,1,59.4,4.729c1.148,0,1.709.616,1.709,1.834v5.1H60.1Z" transform="translate(0 -2.179)" fill="#0b79bf"/>
      <path d="M64.036,5.778h-.9V4.9h.9V4.069a1.661,1.661,0,0,1,1.653-1.89,1.886,1.886,0,0,1,.868.2l-.237.784a.972.972,0,0,0-.449-.112c-.533,0-.827.364-.827,1.022V4.9h1.149v.882H65.044v5.884H64.036Z" transform="translate(0 -2.179)" fill="#0b79bf"/>
      <path d="M67.857,8.272c0-1.905.953-3.543,2.746-3.543,1.821,0,2.76,1.638,2.76,3.543s-.939,3.558-2.76,3.558C68.81,11.83,67.857,10.177,67.857,8.272Zm4.455,0c0-1.359-.519-2.647-1.709-2.647-1.163,0-1.7,1.288-1.7,2.647s.533,2.662,1.7,2.662C71.793,10.934,72.312,9.645,72.312,8.272Z" transform="translate(0 -2.179)" fill="#0b79bf"/>
      <path d="M75.712,4.9h.994V5.975a2.273,2.273,0,0,1,1.919-1.219V5.793a1.375,1.375,0,0,0-.336-.042,2.031,2.031,0,0,0-1.583,1.106v4.805h-.994Z" transform="translate(0 -2.179)" fill="#0b79bf"/>
      <path d="M87.46,6.759c0-.728-.294-1.134-.938-1.134A1.856,1.856,0,0,0,85.051,6.7v4.959H84.043v-4.9c0-.728-.3-1.134-.953-1.134A1.9,1.9,0,0,0,81.619,6.7v4.959h-.994V4.9h.994v.966a2.342,2.342,0,0,1,1.849-1.133A1.424,1.424,0,0,1,85,5.933a2.327,2.327,0,0,1,1.906-1.2c.994,0,1.568.545,1.568,1.764v5.169H87.46Z" transform="translate(0 -2.179)" fill="#0b79bf"/>
      <path d="M94.627,10.934a2.117,2.117,0,0,1-1.779.9A2.078,2.078,0,0,1,90.8,9.575a2.045,2.045,0,0,1,2.045-2.227,2.107,2.107,0,0,1,1.779.868V7.039A1.284,1.284,0,0,0,93.24,5.6a2.154,2.154,0,0,0-1.695.826L91.1,5.709a3.1,3.1,0,0,1,2.3-.98,1.991,1.991,0,0,1,2.241,2.2v4.734H94.627Zm0-1.976A1.624,1.624,0,0,0,93.17,8.09a1.361,1.361,0,0,0-1.345,1.5A1.373,1.373,0,0,0,93.17,11.1a1.636,1.636,0,0,0,1.457-.855Z" transform="translate(0 -2.179)" fill="#0b79bf"/>
      <path d="M98.5,10.3V5.778h-.9V4.9h.9V3.047h1.009V4.9h1.148v.882H99.511v4.343c0,.519.154.813.547.813a.757.757,0,0,0,.588-.267l.308.757a1.454,1.454,0,0,1-1.092.406C98.937,11.83,98.5,11.312,98.5,10.3Z" transform="translate(0 -2.179)" fill="#0b79bf"/>
      <path d="M102.633,3.075a.7.7,0,0,1,.687-.686.687.687,0,0,1,0,1.373A.7.7,0,0,1,102.633,3.075Zm.2,1.821h1v6.766h-1Z" transform="translate(0 -2.179)" fill="#0b79bf"/>
      <path d="M106.174,8.272c0-1.905.953-3.543,2.746-3.543,1.82,0,2.76,1.638,2.76,3.543s-.94,3.558-2.76,3.558C107.127,11.83,106.174,10.177,106.174,8.272Zm4.455,0c0-1.359-.518-2.647-1.709-2.647-1.163,0-1.7,1.288-1.7,2.647s.532,2.662,1.7,2.662C110.111,10.934,110.629,9.645,110.629,8.272Z" transform="translate(0 -2.179)" fill="#0b79bf"/>
      <path d="M117.684,6.844c0-.9-.406-1.219-1.078-1.219A1.976,1.976,0,0,0,115.023,6.7v4.959h-.994V4.9h.994v.966a2.509,2.509,0,0,1,1.961-1.133c1.148,0,1.709.616,1.709,1.834v5.1h-1.009Z" transform="translate(0 -2.179)" fill="#0b79bf"/>
    </g>
    <line y1="16.367" x2="131.556" y2="16.367" fill="none" stroke="#328aca" stroke-miterlimit="10"/>
    <g>
      <path d="M.6,26.843H2.737a1.422,1.422,0,0,1,1.512,1.53,1.324,1.324,0,0,1-.926,1.378,1.428,1.428,0,0,1,1.026,1.476A1.458,1.458,0,0,1,2.8,32.848H.6Zm1.953,2.565c.558,0,.81-.387.81-.9s-.252-.909-.81-.909h-1.1v1.809Zm.036,2.683c.576,0,.873-.36.873-.963a.86.86,0,0,0-.873-.963H1.458v1.926Z" transform="translate(0 -2.179)"/>
      <path d="M5.734,27.274a.508.508,0,0,1,.5-.5.5.5,0,0,1,.5.5.5.5,0,0,1-.5.5A.5.5,0,0,1,5.734,27.274ZM5.851,28.5h.773v4.349H5.851Z" transform="translate(0 -2.179)"/>
      <path d="M8.281,26.843h.773v6H8.281Z" transform="translate(0 -2.179)"/>
      <path d="M10.71,26.843h.774v6H10.71Z" transform="translate(0 -2.179)"/>
      <path d="M19.882,28.238l-1.52,4.61h-.343l-1.513-4.61v4.61h-.854v-6H16.83l1.36,4.14,1.378-4.14h1.161v6h-.847Z" transform="translate(0 -2.179)"/>
      <path d="M22.212,30.669c0-1.225.631-2.278,1.828-2.278s1.827,1.053,1.827,2.278-.629,2.286-1.827,2.286S22.212,31.894,22.212,30.669Zm2.855,0c0-.828-.316-1.594-1.027-1.594s-1.017.766-1.017,1.594.315,1.6,1.017,1.6S25.067,31.506,25.067,30.669Z" transform="translate(0 -2.179)"/>
      <path d="M29.693,29.822c0-.549-.253-.747-.658-.747a1.17,1.17,0,0,0-.955.649v3.124h-.773V28.5h.773v.6a1.618,1.618,0,0,1,1.261-.712c.756,0,1.116.415,1.116,1.179v3.278h-.764Z" transform="translate(0 -2.179)"/>
      <path d="M32.274,31.929V29.175H31.7V28.5h.576V27.311h.765V28.5h.73v.676h-.73v2.6c0,.306.108.5.342.5a.5.5,0,0,0,.369-.153l.2.576a.994.994,0,0,1-.739.261C32.571,32.955,32.274,32.6,32.274,31.929Z" transform="translate(0 -2.179)"/>
      <path d="M37.5,29.805c0-.54-.253-.73-.657-.73a1.183,1.183,0,0,0-.955.649v3.124h-.774v-6h.774V29.1a1.632,1.632,0,0,1,1.269-.712c.757,0,1.117.387,1.117,1.171v3.286H37.5Z" transform="translate(0 -2.179)"/>
      <path d="M42.272,31.768a1.08,1.08,0,0,0,.838.422.854.854,0,0,0,.909-.963V26.843h.855v4.411a1.546,1.546,0,0,1-1.692,1.7,1.673,1.673,0,0,1-1.27-.521Z" transform="translate(0 -2.179)"/>
      <path d="M48.817,32.4a1.4,1.4,0,0,1-1.144.558,1.337,1.337,0,0,1-1.323-1.449,1.313,1.313,0,0,1,1.323-1.422,1.365,1.365,0,0,1,1.144.54v-.693a.792.792,0,0,0-.865-.883,1.471,1.471,0,0,0-1.088.514l-.316-.541a2.088,2.088,0,0,1,1.53-.63,1.332,1.332,0,0,1,1.513,1.45v3.007h-.774Zm0-1.242a.994.994,0,0,0-.873-.522.895.895,0,0,0,0,1.782.993.993,0,0,0,.873-.521Z" transform="translate(0 -2.179)"/>
      <path d="M53.632,29.822c0-.549-.253-.747-.657-.747a1.168,1.168,0,0,0-.955.649v3.124h-.774V28.5h.774v.6a1.615,1.615,0,0,1,1.261-.712c.755,0,1.116.415,1.116,1.179v3.278h-.765Z" transform="translate(0 -2.179)"/>
      <path d="M58.447,32.263a1.6,1.6,0,0,1-1.27.692c-.757,0-1.116-.387-1.116-1.17V28.5h.773v3.043c0,.54.252.729.657.729a1.173,1.173,0,0,0,.956-.63V28.5h.764v4.349h-.764Z" transform="translate(0 -2.179)"/>
      <path d="M63.117,32.4a1.4,1.4,0,0,1-1.143.558,1.337,1.337,0,0,1-1.323-1.449,1.313,1.313,0,0,1,1.323-1.422,1.362,1.362,0,0,1,1.143.54v-.693a.792.792,0,0,0-.864-.883,1.475,1.475,0,0,0-1.089.514l-.315-.541a2.087,2.087,0,0,1,1.53-.63,1.332,1.332,0,0,1,1.513,1.45v3.007h-.775Zm0-1.242a.992.992,0,0,0-.873-.522.9.9,0,0,0,0,1.782.991.991,0,0,0,.873-.521Z" transform="translate(0 -2.179)"/>
      <path d="M65.547,28.5h.774v.666a1.463,1.463,0,0,1,1.215-.765v.784a.862.862,0,0,0-.225-.028,1.255,1.255,0,0,0-.99.657v3.035h-.774Z" transform="translate(0 -2.179)"/>
      <path d="M68.993,33.928c.252,0,.4-.1.5-.4l.207-.593L68.255,28.5h.828L70.1,31.911,71.136,28.5h.819l-1.728,5.213a1.114,1.114,0,0,1-1.18.9,1.89,1.89,0,0,1-.459-.063l.126-.685A.644.644,0,0,0,68.993,33.928Z" transform="translate(0 -2.179)"/>
      <path d="M.675,42.533a1.888,1.888,0,0,0,1.414.657A.9.9,0,0,0,3.115,42.3c0-.6-.54-.864-1.143-1.144-.73-.333-1.566-.692-1.566-1.782a1.659,1.659,0,0,1,1.8-1.63,2.285,2.285,0,0,1,1.657.64l-.433.648a1.666,1.666,0,0,0-1.251-.522.822.822,0,0,0-.9.819c0,.513.513.747,1.08,1.018.756.35,1.621.756,1.621,1.9A1.685,1.685,0,0,1,2.1,43.955,2.441,2.441,0,0,1,.235,43.2Z" transform="translate(0 -2.179)"/>
      <path d="M7,39.391c1.162,0,1.765,1.017,1.765,2.3v.226H5.977c.035.792.449,1.4,1.2,1.4a1.325,1.325,0,0,0,1-.5l.4.468a1.924,1.924,0,0,1-1.468.675c-1.18,0-1.918-.945-1.918-2.286C5.184,40.408,5.868,39.391,7,39.391ZM5.967,41.372H8.011c-.009-.6-.279-1.342-1.018-1.342C6.274,40.03,5.994,40.786,5.967,41.372Z" transform="translate(0 -2.179)"/>
      <path d="M10.18,39.5h.773v.666a1.466,1.466,0,0,1,1.216-.765v.784a.862.862,0,0,0-.225-.028,1.258,1.258,0,0,0-.991.657v3.035H10.18Z" transform="translate(0 -2.179)"/>
      <path d="M12.888,39.5h.828l1.018,3.43,1.035-3.43h.819l-1.431,4.349H14.32Z" transform="translate(0 -2.179)"/>
      <path d="M17.605,38.274a.508.508,0,0,1,.5-.5.5.5,0,0,1,.5.5.5.5,0,0,1-.5.5A.5.5,0,0,1,17.605,38.274Zm.117,1.225H18.5v4.349h-.773Z" transform="translate(0 -2.179)"/>
      <path d="M21.789,39.391a1.534,1.534,0,0,1,1.288.586l-.405.521a.957.957,0,0,0-.81-.423c-.73,0-1.125.721-1.125,1.594s.4,1.6,1.125,1.6a.98.98,0,0,0,.81-.423l.405.522a1.51,1.51,0,0,1-1.288.585c-1.133,0-1.854-.98-1.854-2.286S20.656,39.391,21.789,39.391Z" transform="translate(0 -2.179)"/>
      <path d="M25.992,39.391c1.163,0,1.765,1.017,1.765,2.3v.226h-2.79c.035.792.449,1.4,1.2,1.4a1.323,1.323,0,0,0,1-.5l.4.468a1.923,1.923,0,0,1-1.468.675c-1.18,0-1.918-.945-1.918-2.286C24.174,40.408,24.859,39.391,25.992,39.391Zm-1.035,1.981H27c-.009-.6-.279-1.342-1.017-1.342C25.264,40.03,24.985,40.786,24.957,41.372Z" transform="translate(0 -2.179)"/>
      <path d="M31.68,37.843h1.692c1.584,0,2.476,1.278,2.476,3.007s-.883,3-2.467,3h-1.7Zm1.692,5.248c1.053,0,1.593-.954,1.593-2.241,0-1.306-.53-2.251-1.593-2.251h-.838v4.492Z" transform="translate(0 -2.179)"/>
      <path d="M39.574,43.4a1.4,1.4,0,0,1-1.144.558,1.337,1.337,0,0,1-1.323-1.449,1.313,1.313,0,0,1,1.323-1.422,1.365,1.365,0,0,1,1.144.54v-.693a.792.792,0,0,0-.865-.883,1.475,1.475,0,0,0-1.089.514l-.315-.541a2.087,2.087,0,0,1,1.53-.63,1.332,1.332,0,0,1,1.513,1.45v3.007h-.774Zm0-1.242a1,1,0,0,0-.874-.522.9.9,0,0,0,0,1.782.994.994,0,0,0,.874-.521Z" transform="translate(0 -2.179)"/>
      <path d="M42.156,42.929V40.175h-.577V39.5h.577V38.311h.765V39.5h.73v.676h-.73v2.6c0,.306.109.495.342.495a.5.5,0,0,0,.369-.153l.2.576a.99.99,0,0,1-.738.261C42.453,43.955,42.156,43.6,42.156,42.929Z" transform="translate(0 -2.179)"/>
      <path d="M46.6,39.391c1.162,0,1.764,1.017,1.764,2.3v.226h-2.79c.036.792.45,1.4,1.2,1.4a1.327,1.327,0,0,0,1-.5l.4.468a1.923,1.923,0,0,1-1.468.675c-1.179,0-1.918-.945-1.918-2.286C44.783,40.408,45.468,39.391,46.6,39.391Zm-1.035,1.981h2.044c-.009-.6-.28-1.342-1.018-1.342C45.873,40.03,45.594,40.786,45.567,41.372Z" transform="translate(0 -2.179)"/>
      <path d="M49.8,42.794a1.6,1.6,0,0,0,1.161.54c.478,0,.775-.233.775-.6,0-.414-.406-.594-.865-.774-.6-.226-1.3-.486-1.3-1.359a1.272,1.272,0,0,1,1.44-1.207,1.88,1.88,0,0,1,1.377.558l-.342.531a1.3,1.3,0,0,0-1.026-.467c-.433,0-.721.224-.721.54,0,.369.388.531.828.711.612.224,1.342.5,1.342,1.423a1.327,1.327,0,0,1-1.5,1.268,1.976,1.976,0,0,1-1.53-.611Z" transform="translate(0 -2.179)"/>
      <path d="M57.322,38.959l-.928.981-.5-.531,1.53-1.566h.747v6h-.845Z" transform="translate(0 -2.179)"/>
      <path d="M60.867,38.959l-.927.981-.5-.531,1.53-1.566h.747v6h-.846Z" transform="translate(0 -2.179)"/>
      <path d="M64.593,37.662h.585l-1.729,6.365h-.584Z" transform="translate(0 -2.179)"/>
      <path d="M66.167,43.154c2.034-2.223,2.647-2.881,2.647-3.709a.886.886,0,0,0-.918-.927,1.452,1.452,0,0,0-1.27.729l-.54-.522a2.11,2.11,0,0,1,1.819-.972,1.659,1.659,0,0,1,1.782,1.692c0,.972-.72,1.836-2.278,3.646h2.3v.757H66.167Z" transform="translate(0 -2.179)"/>
      <path d="M71.739,42.614a1.1,1.1,0,0,0,.981.568c.918,0,1.278-1.144,1.278-2.215V40.8a1.549,1.549,0,0,1-1.305.854c-.882,0-1.612-.647-1.612-1.925a1.833,1.833,0,0,1,1.792-1.982c1.477,0,2,1.486,2,3.107,0,1.656-.666,3.1-2.142,3.1a1.686,1.686,0,0,1-1.431-.719Zm1.188-4.1c-.675,0-.972.621-.972,1.188,0,.882.45,1.215.963,1.215a1.272,1.272,0,0,0,1.063-.828C73.953,39.437,73.719,38.509,72.927,38.509Z" transform="translate(0 -2.179)"/>
      <path d="M77.526,37.662h.585l-1.729,6.365H75.8Z" transform="translate(0 -2.179)"/>
      <path d="M81,41.462l-1.314,2.386H78.7l1.782-3.071L78.8,37.843h.99L81,40.1l1.206-2.26h1l-1.674,2.934,1.773,3.071h-.99Z" transform="translate(0 -2.179)"/>
      <path d="M86.238,41.462l-1.315,2.386h-.99l1.782-3.071-1.683-2.934h.991l1.215,2.26,1.206-2.26h1l-1.675,2.934,1.773,3.071h-.99Z" transform="translate(0 -2.179)"/>
      <path d="M91.863,41.336h1.872V42H91.863Z" transform="translate(0 -2.179)"/>
      <path d="M98.559,38.959l-.928.981-.5-.531,1.53-1.566h.748v6h-.846Z" transform="translate(0 -2.179)"/>
      <path d="M101.006,43.154c2.034-2.223,2.647-2.881,2.647-3.709a.886.886,0,0,0-.918-.927,1.452,1.452,0,0,0-1.27.729l-.54-.522a2.109,2.109,0,0,1,1.818-.972,1.659,1.659,0,0,1,1.783,1.692c0,.972-.72,1.836-2.278,3.646h2.3v.757h-3.547Z" transform="translate(0 -2.179)"/>
      <path d="M107.306,37.662h.585l-1.729,6.365h-.585Z" transform="translate(0 -2.179)"/>
      <path d="M108.88,43.154c2.034-2.223,2.647-2.881,2.647-3.709a.886.886,0,0,0-.918-.927,1.452,1.452,0,0,0-1.27.729l-.54-.522a2.109,2.109,0,0,1,1.818-.972,1.659,1.659,0,0,1,1.783,1.692c0,.972-.72,1.836-2.278,3.646h2.305v.757H108.88Z" transform="translate(0 -2.179)"/>
      <path d="M116.2,38.6h-2.531v-.756h3.493v.594l-1.9,5.411h-.928Z" transform="translate(0 -2.179)"/>
      <path d="M119.636,37.662h.585l-1.729,6.365h-.585Z" transform="translate(0 -2.179)"/>
      <path d="M123.11,41.462,121.8,43.848h-.99l1.782-3.071-1.682-2.934h.99l1.215,2.26,1.206-2.26h1l-1.675,2.934,1.773,3.071h-.99Z" transform="translate(0 -2.179)"/>
      <path d="M128.348,41.462l-1.315,2.386h-.99l1.782-3.071-1.682-2.934h.99l1.215,2.26,1.206-2.26h1l-1.675,2.934,1.774,3.071h-.991Z" transform="translate(0 -2.179)"/>
      <path d="M.6,48.843H2.3c1.584,0,2.476,1.278,2.476,3.007s-.883,3-2.467,3H.6ZM2.3,54.091c1.053,0,1.593-.954,1.593-2.241,0-1.306-.53-2.251-1.593-2.251H1.458v4.492Z" transform="translate(0 -2.179)"/>
      <path d="M8.5,54.4a1.4,1.4,0,0,1-1.143.558,1.337,1.337,0,0,1-1.323-1.449,1.313,1.313,0,0,1,1.323-1.422,1.362,1.362,0,0,1,1.143.54v-.693a.792.792,0,0,0-.864-.883,1.475,1.475,0,0,0-1.089.514l-.315-.541a2.087,2.087,0,0,1,1.53-.63,1.332,1.332,0,0,1,1.513,1.45v3.007H8.5Zm0-1.242a.992.992,0,0,0-.873-.522.9.9,0,0,0,0,1.782.991.991,0,0,0,.873-.521Z" transform="translate(0 -2.179)"/>
      <path d="M11.143,55.928c.252,0,.395-.1.5-.4l.207-.593L10.405,50.5h.828l1.017,3.412L13.285,50.5h.82l-1.729,5.213a1.113,1.113,0,0,1-1.179.9,1.884,1.884,0,0,1-.459-.063l.126-.685A.644.644,0,0,0,11.143,55.928Z" transform="translate(0 -2.179)"/>
      <path d="M15.255,53.794a1.6,1.6,0,0,0,1.161.54c.478,0,.775-.233.775-.6,0-.414-.406-.594-.865-.774-.6-.226-1.295-.486-1.295-1.359a1.272,1.272,0,0,1,1.44-1.207,1.88,1.88,0,0,1,1.377.558l-.342.531a1.3,1.3,0,0,0-1.026-.467c-.433,0-.721.224-.721.54,0,.369.388.531.828.711.612.224,1.342.5,1.342,1.423a1.327,1.327,0,0,1-1.5,1.268,1.976,1.976,0,0,1-1.53-.611Z" transform="translate(0 -2.179)"/>
      <path d="M21.834,48.843h2.133a1.422,1.422,0,0,1,1.513,1.53,1.325,1.325,0,0,1-.927,1.378,1.427,1.427,0,0,1,1.026,1.476,1.458,1.458,0,0,1-1.548,1.621h-2.2Zm1.953,2.565c.559,0,.811-.387.811-.9s-.252-.909-.811-.909h-1.1v1.809Zm.037,2.683c.576,0,.873-.36.873-.963a.861.861,0,0,0-.873-.963H22.689v1.926Z" transform="translate(0 -2.179)"/>
      <path d="M26.964,49.274a.509.509,0,0,1,.5-.5.5.5,0,0,1,.5.5.5.5,0,0,1-.5.5A.5.5,0,0,1,26.964,49.274Zm.117,1.225h.774v4.349h-.774Z" transform="translate(0 -2.179)"/>
      <path d="M29.512,48.843h.773v6h-.773Z" transform="translate(0 -2.179)"/>
      <path d="M31.942,48.843h.773v6h-.773Z" transform="translate(0 -2.179)"/>
      <path d="M35.973,50.391c1.162,0,1.765,1.017,1.765,2.3v.226h-2.79c.035.792.449,1.4,1.2,1.4a1.327,1.327,0,0,0,1-.5l.4.468a1.922,1.922,0,0,1-1.467.675c-1.18,0-1.918-.945-1.918-2.286C34.155,51.408,34.839,50.391,35.973,50.391Zm-1.035,1.981h2.044c-.009-.6-.28-1.342-1.018-1.342C35.244,51.03,34.965,51.786,34.938,52.372Z" transform="translate(0 -2.179)"/>
      <path d="M41.644,54.253a1.367,1.367,0,0,1-1.134.7c-.973,0-1.576-.891-1.576-2.277,0-1.36.6-2.287,1.576-2.287a1.323,1.323,0,0,1,1.134.712v-2.26h.765v6h-.765Zm0-2.521a1.112,1.112,0,0,0-.918-.657c-.666,0-.99.711-.99,1.6s.324,1.593.99,1.593a1.1,1.1,0,0,0,.918-.648Z" transform="translate(0 -2.179)"/>
      <path d="M44.577,50.437a.54.54,0,1,1-.549.54A.547.547,0,0,1,44.577,50.437Zm0,3.42a.541.541,0,1,1-.549.54A.548.548,0,0,1,44.577,53.857Z" transform="translate(0 -2.179)"/>
      <path d="M49.085,54.154c2.034-2.223,2.647-2.881,2.647-3.709a.886.886,0,0,0-.918-.927,1.452,1.452,0,0,0-1.27.729L49,49.725a2.11,2.11,0,0,1,1.819-.972,1.659,1.659,0,0,1,1.782,1.692c0,.972-.72,1.836-2.278,3.646h2.3v.757H49.085Z" transform="translate(0 -2.179)"/>
      <path d="M54.657,53.614a1.1,1.1,0,0,0,.981.568c.918,0,1.278-1.144,1.278-2.215V51.8a1.549,1.549,0,0,1-1.3.854C54.729,52.65,54,52,54,50.725a1.833,1.833,0,0,1,1.792-1.982c1.477,0,2,1.486,2,3.107,0,1.656-.666,3.1-2.142,3.1a1.686,1.686,0,0,1-1.431-.719Zm1.188-4.1c-.675,0-.972.621-.972,1.188,0,.882.45,1.215.963,1.215a1.272,1.272,0,0,0,1.063-.828C56.871,50.437,56.637,49.509,55.845,49.509Z" transform="translate(0 -2.179)"/>
      <path d="M.6,59.843H2.539a1.841,1.841,0,0,1,0,3.673H1.458v2.332H.6ZM2.44,60.6H1.458V62.76H2.44a1.092,1.092,0,0,0,0-2.161Z" transform="translate(0 -2.179)"/>
      <path d="M5.229,63.669c0-1.225.631-2.278,1.828-2.278s1.827,1.053,1.827,2.278-.63,2.286-1.827,2.286S5.229,64.894,5.229,63.669Zm2.854,0c0-.828-.315-1.594-1.026-1.594s-1.018.766-1.018,1.594.316,1.6,1.018,1.6S8.083,64.506,8.083,63.669Z" transform="translate(0 -2.179)"/>
      <path d="M10.324,61.5H11.1v.666a1.463,1.463,0,0,1,1.216-.765v.784a.875.875,0,0,0-.226-.028,1.257,1.257,0,0,0-.99.657v3.035h-.773Z" transform="translate(0 -2.179)"/>
      <path d="M13.707,64.929V62.175h-.576V61.5h.576V60.311h.766V61.5H15.2v.676h-.729v2.6c0,.306.107.5.342.5a.5.5,0,0,0,.369-.153l.2.576a.992.992,0,0,1-.738.261C14,65.955,13.707,65.6,13.707,64.929Z" transform="translate(0 -2.179)"/>
      <path d="M16.435,60.274a.508.508,0,0,1,.5-.5.5.5,0,0,1,.5.5.5.5,0,0,1-.5.5A.5.5,0,0,1,16.435,60.274Zm.117,1.225h.773v4.349h-.773Z" transform="translate(0 -2.179)"/>
      <path d="M18.765,63.669c0-1.225.631-2.278,1.828-2.278s1.827,1.053,1.827,2.278-.63,2.286-1.827,2.286S18.765,64.894,18.765,63.669Zm2.854,0c0-.828-.315-1.594-1.026-1.594s-1.018.766-1.018,1.594.316,1.6,1.018,1.6S21.619,64.506,21.619,63.669Z" transform="translate(0 -2.179)"/>
      <path d="M26.245,62.822c0-.549-.253-.747-.657-.747a1.17,1.17,0,0,0-.955.649v3.124H23.86V61.5h.773v.6a1.617,1.617,0,0,1,1.261-.712c.756,0,1.116.415,1.116,1.179v3.278h-.765Z" transform="translate(0 -2.179)"/>
      <path d="M29.178,61.437a.54.54,0,1,1-.55.54A.547.547,0,0,1,29.178,61.437Zm0,3.42a.541.541,0,1,1-.55.54A.548.548,0,0,1,29.178,64.857Z" transform="translate(0 -2.179)"/>
      <path d="M35.577,59.753c1.422,0,1.945,1.494,1.945,3.1s-.513,3.1-1.945,3.1-1.954-1.5-1.954-3.1S34.146,59.753,35.577,59.753Zm0,.765c-.864,0-1.08,1.152-1.08,2.332s.216,2.34,1.08,2.34,1.072-1.17,1.072-2.34S36.433,60.518,35.577,60.518Z" transform="translate(0 -2.179)"/>
      <path d="M38.9,65.154c2.034-2.223,2.646-2.881,2.646-3.709a.886.886,0,0,0-.918-.927,1.451,1.451,0,0,0-1.269.729l-.54-.522a2.109,2.109,0,0,1,1.818-.972,1.659,1.659,0,0,1,1.782,1.692c0,.972-.719,1.836-2.277,3.646h2.3v.757H38.9Z" transform="translate(0 -2.179)"/>
      <path d="M48.277,59.753c1.422,0,1.944,1.494,1.944,3.1s-.513,3.1-1.944,3.1-1.954-1.5-1.954-3.1S46.845,59.753,48.277,59.753Zm0,.765c-.865,0-1.08,1.152-1.08,2.332s.215,2.34,1.08,2.34,1.071-1.17,1.071-2.34S49.132,60.518,48.277,60.518Z" transform="translate(0 -2.179)"/>
      <path d="M52.7,60.959l-.928.981-.5-.531,1.53-1.566h.747v6H52.7Z" transform="translate(0 -2.179)"/>
      <path d="M56.421,59.662h.585l-1.728,6.365h-.585Z" transform="translate(0 -2.179)"/>
      <path d="M59.9,63.462,58.58,65.848h-.99l1.782-3.071L57.69,59.843h.99L59.9,62.1l1.206-2.26h1l-1.675,2.934L62.2,65.848h-.99Z" transform="translate(0 -2.179)"/>
      <path d="M65.133,63.462l-1.314,2.386h-.991l1.783-3.071-1.683-2.934h.99l1.215,2.26,1.206-2.26h1l-1.675,2.934,1.774,3.071h-.99Z" transform="translate(0 -2.179)"/>
      <path d="M.532,81.843H2.746a1.914,1.914,0,0,1,0,3.826H1.738v2.179H.532ZM2.6,82.9H1.738v1.728H2.6a.87.87,0,0,0,0-1.728Z" transform="translate(0 -2.179)"/>
      <path d="M5.824,83.5H6.9v.6a1.478,1.478,0,0,1,1.188-.7v1.053a1.168,1.168,0,0,0-.261-.026,1.2,1.2,0,0,0-.927.521v2.9H5.824Z" transform="translate(0 -2.179)"/>
      <path d="M9.018,85.669a2.04,2.04,0,0,1,1.963-2.278,2.307,2.307,0,0,1,0,4.564A2.042,2.042,0,0,1,9.018,85.669Zm2.818,0c0-.711-.262-1.323-.855-1.323-.576,0-.837.612-.837,1.323S10.405,87,10.981,87C11.574,87,11.836,86.389,11.836,85.669Z" transform="translate(0 -2.179)"/>
      <path d="M13.735,83.5h1.152l.873,3.052.882-3.052h1.152l-1.449,4.349H15.184Z" transform="translate(0 -2.179)"/>
      <path d="M18.684,82.212a.649.649,0,1,1,1.3,0,.649.649,0,0,1-1.3,0Zm.108,1.287h1.08v4.349h-1.08Z" transform="translate(0 -2.179)"/>
      <path d="M21.51,86.578a1.78,1.78,0,0,0,1.2.531c.414,0,.639-.171.639-.45,0-.3-.333-.423-.747-.558-.612-.2-1.4-.432-1.4-1.405,0-.7.567-1.3,1.585-1.3a2.25,2.25,0,0,1,1.511.558l-.431.73a1.475,1.475,0,0,0-1.063-.45c-.342,0-.576.162-.576.405,0,.261.3.387.7.512.631.2,1.459.459,1.459,1.459,0,.784-.64,1.35-1.657,1.35a2.294,2.294,0,0,1-1.674-.621Z" transform="translate(0 -2.179)"/>
      <path d="M25.524,82.212a.649.649,0,1,1,1.3,0,.649.649,0,0,1-1.3,0Zm.108,1.287h1.08v4.349h-1.08Z" transform="translate(0 -2.179)"/>
      <path d="M28,85.669a1.99,1.99,0,1,1,1.963,2.286A2.041,2.041,0,0,1,28,85.669Zm2.819,0c0-.711-.262-1.323-.856-1.323-.576,0-.837.612-.837,1.323S29.385,87,29.961,87C30.555,87,30.817,86.389,30.817,85.669Z" transform="translate(0 -2.179)"/>
      <path d="M35.658,84.984c0-.459-.207-.638-.567-.638a.983.983,0,0,0-.792.54v2.962h-1.08V83.5H34.3v.567a1.618,1.618,0,0,1,1.278-.675,1.057,1.057,0,0,1,1.162,1.188v3.269H35.658Z" transform="translate(0 -2.179)"/>
      <path d="M38.385,86.578a1.78,1.78,0,0,0,1.2.531c.414,0,.639-.171.639-.45,0-.3-.333-.423-.747-.558-.612-.2-1.4-.432-1.4-1.405,0-.7.567-1.3,1.585-1.3a2.25,2.25,0,0,1,1.511.558l-.431.73a1.475,1.475,0,0,0-1.063-.45c-.342,0-.576.162-.576.405,0,.261.3.387.7.512.631.2,1.459.459,1.459,1.459,0,.784-.64,1.35-1.657,1.35a2.294,2.294,0,0,1-1.674-.621Z" transform="translate(0 -2.179)"/>
      <path d="M43.156,83.437a.7.7,0,0,1,.692.692.706.706,0,0,1-.692.7.714.714,0,0,1-.7-.7A.706.706,0,0,1,43.156,83.437Zm0,3.114a.707.707,0,0,1,.692.7.7.7,0,0,1-.692.693.707.707,0,0,1-.7-.693A.715.715,0,0,1,43.156,86.551Z" transform="translate(0 -2.179)"/>
      <path d="M.675,97.533a1.888,1.888,0,0,0,1.414.657A.9.9,0,0,0,3.115,97.3c0-.6-.54-.864-1.143-1.144-.73-.333-1.566-.692-1.566-1.782a1.659,1.659,0,0,1,1.8-1.63,2.285,2.285,0,0,1,1.657.64l-.433.648a1.666,1.666,0,0,0-1.251-.522.822.822,0,0,0-.9.819c0,.513.513.747,1.08,1.018.756.35,1.621.756,1.621,1.9A1.685,1.685,0,0,1,2.1,98.955,2.441,2.441,0,0,1,.235,98.2Z" transform="translate(0 -2.179)"/>
      <path d="M7,94.391c1.162,0,1.765,1.017,1.765,2.3v.226H5.977c.035.792.449,1.395,1.2,1.395a1.325,1.325,0,0,0,1-.5l.4.468a1.924,1.924,0,0,1-1.468.675c-1.18,0-1.918-.945-1.918-2.286C5.184,95.408,5.868,94.391,7,94.391ZM5.967,96.372H8.011c-.009-.6-.279-1.342-1.018-1.342C6.274,95.03,5.994,95.786,5.967,96.372Z" transform="translate(0 -2.179)"/>
      <path d="M12.566,95.822c0-.549-.253-.747-.658-.747a1.17,1.17,0,0,0-.955.649v3.124H10.18V94.5h.773v.6a1.618,1.618,0,0,1,1.261-.712c.756,0,1.116.415,1.116,1.179v3.278h-.764Z" transform="translate(0 -2.179)"/>
      <path d="M14.877,93.274a.509.509,0,0,1,.5-.5.5.5,0,0,1,.5.5.5.5,0,0,1-.5.5A.5.5,0,0,1,14.877,93.274Zm.117,1.225h.774v4.349h-.774Z" transform="translate(0 -2.179)"/>
      <path d="M17.208,96.669c0-1.225.631-2.278,1.828-2.278s1.828,1.053,1.828,2.278-.63,2.286-1.828,2.286S17.208,97.894,17.208,96.669Zm2.855,0c0-.828-.316-1.594-1.027-1.594s-1.017.766-1.017,1.594.315,1.6,1.017,1.6S20.063,97.506,20.063,96.669Z" transform="translate(0 -2.179)"/>
      <path d="M22.3,94.5h.773v.666a1.466,1.466,0,0,1,1.216-.765v.784a.862.862,0,0,0-.225-.028,1.258,1.258,0,0,0-.991.657v3.035H22.3Z" transform="translate(0 -2.179)"/>
      <path d="M27.827,95.85c0-1.8.919-3.107,2.369-3.107A1.989,1.989,0,0,1,32.05,94l-.711.324a1.257,1.257,0,0,0-1.143-.81c-.91,0-1.5.99-1.5,2.341s.585,2.34,1.5,2.34a1.247,1.247,0,0,0,1.143-.882l.72.324A1.99,1.99,0,0,1,30.2,98.955C28.746,98.955,27.827,97.65,27.827,95.85Z" transform="translate(0 -2.179)"/>
      <path d="M33.282,93.274a.509.509,0,0,1,.5-.5.5.5,0,0,1,.5.5.5.5,0,0,1-.5.5A.5.5,0,0,1,33.282,93.274ZM33.4,94.5h.773v4.349H33.4Z" transform="translate(0 -2.179)"/>
      <path d="M35.982,97.929V95.175h-.576V94.5h.576V93.311h.765V94.5h.73v.676h-.73v2.6c0,.306.109.5.342.5a.5.5,0,0,0,.369-.153l.2.576a.994.994,0,0,1-.739.261C36.28,98.955,35.982,98.6,35.982,97.929Z" transform="translate(0 -2.179)"/>
      <path d="M38.709,93.274a.509.509,0,0,1,.5-.5.5.5,0,0,1,.5.5.5.5,0,0,1-.5.5A.5.5,0,0,1,38.709,93.274Zm.117,1.225H39.6v4.349h-.774Z" transform="translate(0 -2.179)"/>
      <path d="M41.067,98.253l1.8-3.078h-1.8V94.5H43.83v.576l-1.809,3.1h1.845v.676h-2.8Z" transform="translate(0 -2.179)"/>
      <path d="M46.936,94.391c1.161,0,1.763,1.017,1.763,2.3v.226h-2.79c.036.792.451,1.395,1.2,1.395a1.327,1.327,0,0,0,1-.5l.4.468a1.923,1.923,0,0,1-1.468.675c-1.179,0-1.918-.945-1.918-2.286C45.116,95.408,45.8,94.391,46.936,94.391ZM45.9,96.372h2.044c-.009-.6-.28-1.342-1.018-1.342C46.206,95.03,45.927,95.786,45.9,96.372Z" transform="translate(0 -2.179)"/>
      <path d="M52.5,95.822c0-.549-.253-.747-.657-.747a1.17,1.17,0,0,0-.955.649v3.124h-.773V94.5h.773v.6a1.617,1.617,0,0,1,1.261-.712c.756,0,1.116.415,1.116,1.179v3.278H52.5Z" transform="translate(0 -2.179)"/>
    </g>
  </g>
</svg>
