<svg xmlns="http://www.w3.org/2000/svg" width="490.932" height="168.447" viewBox="0 0 490.932 168.447">
  <g>
    <path d="M174.833,128.616H8.655A8.155,8.155,0,0,1,.5,120.462V8.655A8.155,8.155,0,0,1,8.655.5H174.833a8.155,8.155,0,0,1,8.155,8.155V120.462A8.155,8.155,0,0,1,174.833,128.616Z" fill="#fbf7bb" stroke="#318aca" stroke-miterlimit="10"/>
    <g>
      <path d="M12.311,15.105a2.241,2.241,0,0,0,1.619.71c.481,0,.77-.25.77-.58,0-.4-.39-.59-.949-.8-.86-.31-2.009-.68-2.009-2.089a2.1,2.1,0,0,1,2.339-2.028,3.17,3.17,0,0,1,2.138.759l-.75,1.2a2.1,2.1,0,0,0-1.409-.55c-.449,0-.669.229-.669.529,0,.36.38.54.95.75.859.31,2,.73,2,2.079a2.11,2.11,0,0,1-2.389,2.129,3.3,3.3,0,0,1-2.409-.87Z" fill="#0b79bf"/>
      <path d="M18.091,11.836H16.662V10.427h4.467v1.409H19.71v5.258H18.091Z" fill="#0b79bf"/>
      <path d="M24.75,16.054H22.7l-.249,1.04h-1.67l1.97-6.667H24.7l1.969,6.667H25Zm-1.729-1.389H24.44l-.709-2.818Z" fill="#0b79bf"/>
      <path d="M28.081,14.385l-2.059-3.958h1.77l1.1,2.48,1.09-2.48h1.769L29.7,14.385v2.709H28.081Z" fill="#0b79bf"/>
      <path d="M34.611,15.105a2.241,2.241,0,0,0,1.619.71c.481,0,.77-.25.77-.58,0-.4-.39-.59-.949-.8-.86-.31-2.009-.68-2.009-2.089a2.1,2.1,0,0,1,2.339-2.028,3.173,3.173,0,0,1,2.138.759l-.75,1.2a2.1,2.1,0,0,0-1.409-.55c-.449,0-.669.229-.669.529,0,.36.38.54.949.75.86.31,2,.73,2,2.079a2.109,2.109,0,0,1-2.388,2.129,3.3,3.3,0,0,1-2.409-.87Z" fill="#0b79bf"/>
      <path d="M42.729,16.054H40.68l-.25,1.04H38.761l1.97-6.667h1.948l1.969,6.667H42.979ZM41,14.665H42.42l-.71-2.818Z" fill="#0b79bf"/>
      <path d="M45.111,10.427H49.13v1.39h-2.4v1.2h2.329v1.39H46.73v2.688H45.111Z" fill="#0b79bf"/>
      <path d="M49.961,10.427h4.018v1.39h-2.4v1.2h2.329v1.39H51.58v1.3h2.4v1.39H49.961Z" fill="#0b79bf"/>
      <path d="M55.661,12.2a.895.895,0,1,1-.9.889A.906.906,0,0,1,55.661,12.2Zm0,3.228a.889.889,0,1,1-.9.889A.9.9,0,0,1,55.661,15.425Z" fill="#0b79bf"/>
      <path d="M59.462,13.766c0-2,1.019-3.448,2.629-3.448a2.207,2.207,0,0,1,2.058,1.388l-.79.361a1.4,1.4,0,0,0-1.268-.9c-1.01,0-1.66,1.1-1.66,2.6s.65,2.6,1.66,2.6a1.384,1.384,0,0,0,1.268-.98l.8.359a2.21,2.21,0,0,1-2.068,1.47C60.481,17.214,59.462,15.765,59.462,13.766Z" fill="#0b79bf"/>
      <path d="M67.54,16.594a1.558,1.558,0,0,1-1.27.62A1.484,1.484,0,0,1,64.8,15.605a1.457,1.457,0,0,1,1.468-1.579,1.514,1.514,0,0,1,1.27.6v-.769a.88.88,0,0,0-.96-.98,1.639,1.639,0,0,0-1.209.57l-.35-.6a2.319,2.319,0,0,1,1.7-.7A1.477,1.477,0,0,1,68.4,13.755v3.339H67.54Zm0-1.379a1.1,1.1,0,0,0-.97-.58.9.9,0,0,0-.9.989.9.9,0,0,0,.9.991,1.1,1.1,0,0,0,.97-.581Z" fill="#0b79bf"/>
      <path d="M69.641,10.427h.86v6.667h-.86Z" fill="#0b79bf"/>
      <path d="M71.742,10.427H72.6v6.667h-.859Z" fill="#0b79bf"/>
      <path d="M76.47,15.725a1.216,1.216,0,0,0,1.09.629c1.019,0,1.419-1.269,1.419-2.458v-.191a1.722,1.722,0,0,1-1.449.951c-.979,0-1.789-.72-1.789-2.14a2.033,2.033,0,0,1,1.989-2.2c1.639,0,2.219,1.649,2.219,3.448,0,1.839-.74,3.437-2.379,3.437a1.87,1.87,0,0,1-1.589-.8Zm1.32-4.558c-.75,0-1.079.69-1.079,1.32,0,.979.5,1.348,1.069,1.348a1.412,1.412,0,0,0,1.179-.919C78.929,12.2,78.67,11.167,77.79,11.167Z" fill="#0b79bf"/>
      <path d="M80.681,14.305H82.76v.74H80.681Z" fill="#0b79bf"/>
      <path d="M84.78,11.666l-1.029,1.09-.56-.59,1.7-1.739h.829v6.667H84.78Z" fill="#0b79bf"/>
      <path d="M86.7,14.305H88.78v.74H86.7Z" fill="#0b79bf"/>
      <path d="M90.8,11.666l-1.03,1.09-.559-.59,1.7-1.739h.829v6.667H90.8Z" fill="#0b79bf"/>
      <path d="M97.67,16.594a1.558,1.558,0,0,1-1.27.62,1.485,1.485,0,0,1-1.469-1.609A1.458,1.458,0,0,1,96.4,14.026a1.514,1.514,0,0,1,1.27.6v-.769a.88.88,0,0,0-.96-.98,1.639,1.639,0,0,0-1.209.57l-.35-.6a2.319,2.319,0,0,1,1.7-.7,1.477,1.477,0,0,1,1.679,1.608v3.339H97.67Zm0-1.379a1.1,1.1,0,0,0-.97-.58.9.9,0,0,0-.9.989.9.9,0,0,0,.9.991,1.1,1.1,0,0,0,.97-.581Z" fill="#0b79bf"/>
      <path d="M102.42,13.736c0-.61-.281-.829-.73-.829a1.292,1.292,0,0,0-1.059.718v3.469h-.86V12.267h.86v.669a1.792,1.792,0,0,1,1.4-.789c.839,0,1.239.46,1.239,1.308v3.639h-.849Z" fill="#0b79bf"/>
      <path d="M107.289,16.434a1.518,1.518,0,0,1-1.259.78c-1.079,0-1.749-.99-1.749-2.529,0-1.509.659-2.538,1.749-2.538a1.468,1.468,0,0,1,1.259.789V10.427h.849v6.667h-.849Zm0-2.8a1.232,1.232,0,0,0-1.019-.729c-.74,0-1.1.789-1.1,1.778s.359,1.769,1.1,1.769a1.223,1.223,0,0,0,1.019-.719Z" fill="#0b79bf"/>
      <path d="M112.63,13.656a1.742,1.742,0,0,1-1.209-1.62,1.992,1.992,0,1,1,2.728,1.62,2.008,2.008,0,0,1,1.32,1.779,1.827,1.827,0,0,1-2.07,1.779c-1.219,0-2.078-.66-2.078-1.779A2,2,0,0,1,112.63,13.656Zm.769.389a1.421,1.421,0,0,0-1.119,1.27,1.116,1.116,0,0,0,2.229,0A1.433,1.433,0,0,0,113.4,14.045Zm0-2.868a.947.947,0,0,0-1.029,1c0,.75.769,1.06,1.029,1.13.25-.07,1.02-.38,1.02-1.13A.95.95,0,0,0,113.4,11.177Z" fill="#0b79bf"/>
      <path d="M118.479,10.327c1.579,0,2.159,1.66,2.159,3.439s-.57,3.448-2.159,3.448-2.169-1.67-2.169-3.448S116.89,10.327,118.479,10.327Zm0,.85c-.96,0-1.2,1.279-1.2,2.589s.239,2.6,1.2,2.6,1.19-1.3,1.19-2.6S119.428,11.177,118.479,11.177Z" fill="#0b79bf"/>
      <path d="M123.67,10.327c1.579,0,2.159,1.66,2.159,3.439s-.57,3.448-2.159,3.448-2.169-1.67-2.169-3.448S122.081,10.327,123.67,10.327Zm0,.85c-.96,0-1.2,1.279-1.2,2.589s.24,2.6,1.2,2.6,1.189-1.3,1.189-2.6S124.619,11.177,123.67,11.177Z" fill="#0b79bf"/>
      <path d="M126.56,14.305h2.079v.74H126.56Z" fill="#0b79bf"/>
      <path d="M131.819,15.465H129.16v-.809l2.389-4.229h1.219v4.2h.709v.84h-.709v1.629h-.949Zm-1.789-.84h1.789V11.437Z" fill="#0b79bf"/>
      <path d="M136.759,11.267h-2.808v-.84h3.878v.66l-2.11,6.007H134.69Z" fill="#0b79bf"/>
      <path d="M141.108,11.267H138.3v-.84h3.877v.66l-2.109,6.007H139.04Z" fill="#0b79bf"/>
      <path d="M142.71,14.305h2.079v.74H142.71Z" fill="#0b79bf"/>
      <path d="M146.18,15.544a1.556,1.556,0,0,0,1.4.821,1.21,1.21,0,0,0,1.14-1.331c0-.869-.42-1.348-1.089-1.348a1.384,1.384,0,0,0-1.17.6l-.7-.219V10.427h3.568v.84H146.71v2.159a1.57,1.57,0,0,1,1.229-.57c.97,0,1.749.759,1.749,2.149a2.057,2.057,0,0,1-2.079,2.209,2.233,2.233,0,0,1-2.039-1.08Z" fill="#0b79bf"/>
      <path d="M152.7,10.327c1.579,0,2.159,1.66,2.159,3.439s-.57,3.448-2.159,3.448-2.169-1.67-2.169-3.448S151.11,10.327,152.7,10.327Zm0,.85c-.96,0-1.2,1.279-1.2,2.589s.239,2.6,1.2,2.6,1.189-1.3,1.189-2.6S153.648,11.177,152.7,11.177Z" fill="#0b79bf"/>
      <path d="M156.38,15.544a1.553,1.553,0,0,0,1.4.821,1.21,1.21,0,0,0,1.14-1.331c0-.869-.42-1.348-1.089-1.348a1.385,1.385,0,0,0-1.17.6l-.7-.219V10.427h3.567v.84h-2.618v2.159a1.57,1.57,0,0,1,1.229-.57c.97,0,1.749.759,1.749,2.149a2.057,2.057,0,0,1-2.079,2.209,2.234,2.234,0,0,1-2.039-1.08Z" fill="#0b79bf"/>
      <path d="M162.9,10.327c1.579,0,2.159,1.66,2.159,3.439s-.57,3.448-2.159,3.448-2.169-1.67-2.169-3.448S161.309,10.327,162.9,10.327Zm0,.85c-.96,0-1.2,1.279-1.2,2.589s.239,2.6,1.2,2.6,1.19-1.3,1.19-2.6S163.847,11.177,162.9,11.177Z" fill="#0b79bf"/>
      <path d="M166.429,15.994a.6.6,0,1,1-.61.6A.608.608,0,0,1,166.429,15.994Z" fill="#0b79bf"/>
      <path d="M15.091,21.067l-1.02,5.027h-1l-1.5-6.667h1.02l1.029,5.208L14.7,19.427h.78l1.089,5.208,1.02-5.208h1.019l-1.489,6.667h-1.01Z" fill="#0b79bf"/>
      <path d="M20.821,21.147c1.289,0,1.959,1.129,1.959,2.558v.25h-3.1c.039.879.5,1.549,1.329,1.549a1.474,1.474,0,0,0,1.11-.559l.439.519a2.132,2.132,0,0,1-1.629.75c-1.309,0-2.129-1.05-2.129-2.539C18.8,22.276,19.562,21.147,20.821,21.147Zm-1.149,2.2H21.94c-.01-.669-.309-1.489-1.129-1.489C20.011,21.856,19.7,22.7,19.672,23.345Z" fill="#0b79bf"/>
      <path d="M23.662,21.386a1.584,1.584,0,0,0,.67-.939.42.42,0,0,1-.14.03.534.534,0,0,1-.53-.56.591.591,0,0,1,.59-.59c.36,0,.67.29.67.81a1.993,1.993,0,0,1-.85,1.579Z" fill="#0b79bf"/>
      <path d="M26.072,19.427h.859v6.667h-.859Z" fill="#0b79bf"/>
      <path d="M28.172,19.427h.859v6.667h-.859Z" fill="#0b79bf"/>
      <path d="M32.412,21.267h.859v.739a1.622,1.622,0,0,1,1.349-.849v.869a1,1,0,0,0-.25-.03,1.389,1.389,0,0,0-1.1.73v3.368h-.859Z" fill="#0b79bf"/>
      <path d="M37.18,21.147c1.289,0,1.959,1.129,1.959,2.558v.25h-3.1c.039.879.5,1.549,1.329,1.549a1.474,1.474,0,0,0,1.109-.559l.44.519a2.133,2.133,0,0,1-1.629.75c-1.31,0-2.129-1.05-2.129-2.539C35.162,22.276,35.922,21.147,37.18,21.147Zm-1.149,2.2H38.3c-.01-.669-.31-1.489-1.129-1.489C36.371,21.856,36.061,22.7,36.031,23.345Z" fill="#0b79bf"/>
      <path d="M40.132,24.924a1.773,1.773,0,0,0,1.289.6c.53,0,.859-.26.859-.669,0-.46-.449-.66-.959-.86-.67-.25-1.439-.54-1.439-1.509a1.411,1.411,0,0,1,1.6-1.339,2.09,2.09,0,0,1,1.529.619l-.379.59a1.442,1.442,0,0,0-1.14-.52c-.48,0-.8.25-.8.6,0,.41.43.59.92.789.68.25,1.489.56,1.489,1.58a1.474,1.474,0,0,1-1.67,1.409,2.189,2.189,0,0,1-1.7-.68Z" fill="#0b79bf"/>
      <path d="M44.052,27.933V21.267h.859v.659a1.491,1.491,0,0,1,1.249-.779c1.09,0,1.749.989,1.749,2.528s-.659,2.539-1.749,2.539a1.433,1.433,0,0,1-1.249-.8v2.519Zm1.868-6.026a1.219,1.219,0,0,0-1.009.718v2.1a1.23,1.23,0,0,0,1.009.729c.74,0,1.1-.79,1.1-1.779S46.66,21.907,45.92,21.907Z" fill="#0b79bf"/>
      <path d="M48.672,23.675c0-1.359.7-2.528,2.028-2.528s2.029,1.169,2.029,2.528-.7,2.539-2.029,2.539S48.672,25.034,48.672,23.675Zm3.168,0c0-.92-.35-1.768-1.14-1.768s-1.129.848-1.129,1.768.35,1.779,1.129,1.779S51.84,24.605,51.84,23.675Z" fill="#0b79bf"/>
      <path d="M56.38,22.736c0-.61-.281-.829-.73-.829a1.292,1.292,0,0,0-1.059.718v3.469h-.86V21.267h.86v.669a1.791,1.791,0,0,1,1.4-.789c.84,0,1.24.46,1.24,1.308v3.639H56.38Z" fill="#0b79bf"/>
      <path d="M61.249,25.434a1.518,1.518,0,0,1-1.259.78c-1.079,0-1.749-.99-1.749-2.529,0-1.509.659-2.538,1.749-2.538a1.469,1.469,0,0,1,1.259.789V19.427H62.1v6.667h-.849Zm0-2.8a1.232,1.232,0,0,0-1.019-.729c-.74,0-1.1.789-1.1,1.778s.359,1.769,1.1,1.769a1.223,1.223,0,0,0,1.019-.719Z" fill="#0b79bf"/>
      <path d="M68.259,25.434a1.52,1.52,0,0,1-1.259.78c-1.079,0-1.749-.99-1.749-2.529,0-1.509.659-2.538,1.749-2.538a1.469,1.469,0,0,1,1.259.789V19.427h.849v6.667h-.849Zm0-2.8a1.232,1.232,0,0,0-1.019-.729c-.74,0-1.1.789-1.1,1.778s.36,1.769,1.1,1.769a1.223,1.223,0,0,0,1.019-.719Z" fill="#0b79bf"/>
      <path d="M72.849,25.594a1.555,1.555,0,0,1-1.269.62,1.485,1.485,0,0,1-1.469-1.609,1.458,1.458,0,0,1,1.469-1.579,1.512,1.512,0,0,1,1.269.6v-.769a.879.879,0,0,0-.96-.98,1.641,1.641,0,0,0-1.209.57l-.349-.6a2.319,2.319,0,0,1,1.7-.7,1.478,1.478,0,0,1,1.679,1.608v3.339h-.86Zm0-1.379a1.1,1.1,0,0,0-.969-.58.994.994,0,0,0,0,1.98,1.1,1.1,0,0,0,.969-.581Z" fill="#0b79bf"/>
      <path d="M75.19,27.293c.28,0,.44-.11.56-.439l.23-.66-1.609-4.927h.919l1.13,3.787,1.149-3.787h.909l-1.919,5.786a1.236,1.236,0,0,1-1.308,1,2.079,2.079,0,0,1-.51-.07l.14-.76A.723.723,0,0,0,75.19,27.293Z" fill="#0b79bf"/>
      <path d="M81.041,23.675c0-1.359.7-2.528,2.028-2.528S85.1,22.316,85.1,23.675s-.7,2.539-2.029,2.539S81.041,25.034,81.041,23.675Zm3.168,0c0-.92-.35-1.768-1.14-1.768s-1.129.848-1.129,1.768.35,1.779,1.129,1.779S84.209,24.605,84.209,23.675Z" fill="#0b79bf"/>
      <path d="M86.1,21.267h.86v.739a1.619,1.619,0,0,1,1.348-.849v.869a1,1,0,0,0-.25-.03,1.389,1.389,0,0,0-1.1.73v3.368H86.1Z" fill="#0b79bf"/>
      <path d="M93.88,22.736c0-.61-.281-.829-.73-.829a1.292,1.292,0,0,0-1.059.718v3.469h-.86V21.267h.86v.669a1.791,1.791,0,0,1,1.4-.789c.84,0,1.24.46,1.24,1.308v3.639H93.88Z" fill="#0b79bf"/>
      <path d="M95.85,19.907a.566.566,0,0,1,.561-.559.558.558,0,0,1,.559.559.55.55,0,0,1-.559.55A.558.558,0,0,1,95.85,19.907Zm.131,1.36h.86v4.827h-.86Z" fill="#0b79bf"/>
      <path d="M98.421,26.774a1.561,1.561,0,0,0,1.249.55,1.108,1.108,0,0,0,1.169-1.26v-.74a1.491,1.491,0,0,1-1.249.8c-1.08,0-1.749-.949-1.749-2.488,0-1.509.659-2.488,1.749-2.488a1.443,1.443,0,0,1,1.249.789v-.669h.859V26a1.819,1.819,0,0,1-2,2.049,2.2,2.2,0,0,1-1.659-.61Zm2.418-4.138a1.2,1.2,0,0,0-1.009-.729c-.74,0-1.1.749-1.1,1.728s.36,1.73,1.1,1.73a1.206,1.206,0,0,0,1.009-.73Z" fill="#0b79bf"/>
      <path d="M105.59,22.716c0-.6-.281-.809-.73-.809a1.306,1.306,0,0,0-1.059.718v3.469h-.86V19.427h.86v2.509a1.811,1.811,0,0,1,1.409-.789c.839,0,1.239.429,1.239,1.3v3.648h-.859Z" fill="#0b79bf"/>
      <path d="M107.86,25.074V22.016h-.64v-.749h.64V19.948h.849v1.319h.809v.749h-.809v2.889c0,.339.12.549.38.549a.555.555,0,0,0,.41-.17l.22.64a1.106,1.106,0,0,1-.82.29C108.189,26.214,107.86,25.824,107.86,25.074Z" fill="#0b79bf"/>
      <path d="M110.98,24.994a.6.6,0,1,1-.61.6A.608.608,0,0,1,110.98,24.994Z" fill="#0b79bf"/>
    </g>
    <g>
      <path d="M58.417,40.248h1.871a2.377,2.377,0,0,1,2.406,2.67,2.367,2.367,0,0,1-2.406,2.663H58.417Zm1.871,4.205c.687,0,1.087-.607,1.087-1.535,0-.983-.376-1.543-1.087-1.543h-.576v3.078Z" fill="#0b79bf"/>
      <path d="M63.249,43.646a1.844,1.844,0,1,1,1.831,2.031A1.841,1.841,0,0,1,63.249,43.646Zm2.478,0c0-.56-.2-1-.647-1s-.64.439-.64,1,.2,1.008.64,1.008S65.727,44.214,65.727,43.646Z" fill="#0b79bf"/>
      <path d="M70.128,43.191l-.616,2.39H68.281l-1.023-3.862H68.44l.536,2.391.608-2.391h1.055l.632,2.391.535-2.391h1.2l-1.032,3.862H70.743Z" fill="#0b79bf"/>
      <path d="M75.744,43.143c0-.353-.168-.5-.448-.5a.714.714,0,0,0-.6.408v2.526H73.537V41.719H74.7v.48a1.412,1.412,0,0,1,1.136-.576A.966.966,0,0,1,76.9,42.687v2.894H75.744Z" fill="#0b79bf"/>
      <path d="M79.448,41.623c1.087,0,1.727.84,1.727,2.079v.32H78.8a.791.791,0,0,0,.847.744,1.149,1.149,0,0,0,.792-.336l.512.7a2.053,2.053,0,0,1-1.44.552,2.037,2.037,0,0,1-.063-4.054Zm-.656,1.623h1.279c-.016-.311-.159-.712-.64-.712C78.968,42.534,78.816,42.935,78.792,43.246Z" fill="#0b79bf"/>
      <path d="M84.088,45.125a1.139,1.139,0,0,1-.96.552c-.864,0-1.448-.735-1.448-2.031,0-1.247.577-2.023,1.448-2.023a1.123,1.123,0,0,1,.96.552V40.248h1.151v5.333H84.088Zm0-2.127a.708.708,0,0,0-.569-.351c-.423,0-.655.408-.655,1s.232,1.008.655,1.008a.721.721,0,0,0,.569-.36Z" fill="#0b79bf"/>
      <path d="M88,47.052V41.719h1.159v.456a1.1,1.1,0,0,1,.951-.552c.872,0,1.447.736,1.447,2.023,0,1.271-.575,2.031-1.447,2.031a1.091,1.091,0,0,1-.951-.552v1.927Zm1.719-4.405a.664.664,0,0,0-.56.351v1.3a.694.694,0,0,0,.56.36c.423,0,.656-.409.656-1.008S90.142,42.647,89.719,42.647Z" fill="#0b79bf"/>
      <path d="M92.1,43.646a1.844,1.844,0,1,1,1.831,2.031A1.841,1.841,0,0,1,92.1,43.646Zm2.479,0c0-.56-.2-1-.648-1s-.639.439-.639,1,.2,1.008.639,1.008S94.575,44.214,94.575,43.646Z" fill="#0b79bf"/>
      <path d="M98.974,43.191l-.616,2.39h-1.23L96.1,41.719h1.183l.536,2.391.607-2.391h1.056l.632,2.391.535-2.391h1.2l-1.031,3.862H99.59Z" fill="#0b79bf"/>
      <path d="M103.991,41.623c1.087,0,1.727.84,1.727,2.079v.32h-2.375a.791.791,0,0,0,.847.744,1.149,1.149,0,0,0,.792-.336l.512.7a2.053,2.053,0,0,1-1.44.552,2.037,2.037,0,0,1-.063-4.054Zm-.656,1.623h1.279c-.016-.311-.159-.712-.64-.712C103.51,42.534,103.359,42.935,103.335,43.246Z" fill="#0b79bf"/>
      <path d="M106.424,41.719h1.159v.5a1.346,1.346,0,0,1,1.031-.592v1.119a1.076,1.076,0,0,0-.247-.032,1.025,1.025,0,0,0-.784.384v2.487h-1.159Z" fill="#0b79bf"/>
      <path d="M111.1,40.248h1.16v5.333H111.1Z" fill="#0b79bf"/>
      <path d="M113.1,40.56a.668.668,0,1,1,1.335,0,.668.668,0,1,1-1.335,0Zm.088,1.159h1.159v3.862h-1.159Z" fill="#0b79bf"/>
      <path d="M117.5,43.143c0-.353-.168-.5-.448-.5a.713.713,0,0,0-.6.408v2.526h-1.159V41.719h1.159v.48a1.412,1.412,0,0,1,1.136-.576.966.966,0,0,1,1.071,1.064v2.894H117.5Z" fill="#0b79bf"/>
      <path d="M121.2,41.623c1.087,0,1.727.84,1.727,2.079v.32h-2.374a.789.789,0,0,0,.846.744,1.149,1.149,0,0,0,.792-.336l.512.7a2.051,2.051,0,0,1-1.44.552,2.037,2.037,0,0,1-.063-4.054Zm-.656,1.623h1.279c-.016-.311-.159-.712-.64-.712C120.719,42.534,120.567,42.935,120.543,43.246Z" fill="#0b79bf"/>
      <path d="M123.807,44.334a1.852,1.852,0,0,0,1.1.455c.319,0,.48-.12.48-.311s-.241-.28-.576-.368c-.551-.152-1.328-.344-1.328-1.272,0-.647.521-1.215,1.5-1.215a2.319,2.319,0,0,1,1.423.488l-.447.776a1.458,1.458,0,0,0-.968-.384c-.248,0-.424.1-.424.272s.208.256.544.343c.567.153,1.375.36,1.375,1.312,0,.727-.607,1.247-1.559,1.247a2.289,2.289,0,0,1-1.583-.552Z" fill="#0b79bf"/>
      <path d="M127.863,44.245a.712.712,0,1,1-.72.712A.724.724,0,0,1,127.863,44.245Z" fill="#0b79bf"/>
      <path d="M58.593,53.413A1.674,1.674,0,0,0,59.848,54a.8.8,0,0,0,.912-.791c0-.536-.48-.767-1.016-1.015-.648-.3-1.392-.617-1.392-1.583a1.474,1.474,0,0,1,1.6-1.448,2.027,2.027,0,0,1,1.471.568l-.384.575a1.482,1.482,0,0,0-1.112-.463.729.729,0,0,0-.8.728c0,.455.455.663.959.9.672.311,1.439.672,1.439,1.686a1.5,1.5,0,0,1-1.671,1.52,2.171,2.171,0,0,1-1.655-.672Z" fill="#0b79bf"/>
      <path d="M62.512,53.766V51.319H62v-.6h.511V49.663h.68v1.056h.648v.6h-.648v2.31c0,.273.1.441.3.441a.448.448,0,0,0,.328-.136l.176.512a.889.889,0,0,1-.656.231C62.776,54.677,62.512,54.365,62.512,53.766Z" fill="#0b79bf"/>
      <path d="M66.719,54.181a1.243,1.243,0,0,1-1.015.5,1.188,1.188,0,0,1-1.175-1.287A1.167,1.167,0,0,1,65.7,52.126a1.211,1.211,0,0,1,1.015.48V51.99a.7.7,0,0,0-.767-.783,1.313,1.313,0,0,0-.967.455l-.28-.479a1.854,1.854,0,0,1,1.359-.56,1.182,1.182,0,0,1,1.343,1.287v2.671h-.688Zm0-1.1a.879.879,0,0,0-.775-.463.8.8,0,0,0,0,1.583.88.88,0,0,0,.775-.464Z" fill="#0b79bf"/>
      <path d="M68.76,55.54c.224,0,.352-.088.449-.351l.183-.528-1.287-3.942h.736l.9,3.03.92-3.03h.727l-1.535,4.63a.99.99,0,0,1-1.048.8,1.673,1.673,0,0,1-.407-.057l.111-.607A.588.588,0,0,0,68.76,55.54Z" fill="#0b79bf"/>
      <path d="M75.959,54.181a1.245,1.245,0,0,1-1.015.5,1.188,1.188,0,0,1-1.176-1.287,1.167,1.167,0,0,1,1.176-1.264,1.212,1.212,0,0,1,1.015.48V51.99a.7.7,0,0,0-.768-.783,1.315,1.315,0,0,0-.967.455l-.28-.479a1.853,1.853,0,0,1,1.359-.56,1.183,1.183,0,0,1,1.343,1.287v2.671h-.687Zm0-1.1a.881.881,0,0,0-.776-.463.8.8,0,0,0,0,1.583.882.882,0,0,0,.776-.464Z" fill="#0b79bf"/>
      <path d="M79.92,51.615l-.784,2.966h-.711l-1.032-3.862h.712l.711,2.95.776-2.95h.639l.784,2.95.72-2.95h.72l-1.04,3.862H80.7Z" fill="#0b79bf"/>
      <path d="M85.183,54.181a1.243,1.243,0,0,1-1.014.5,1.188,1.188,0,0,1-1.176-1.287,1.167,1.167,0,0,1,1.176-1.264,1.211,1.211,0,0,1,1.014.48V51.99a.7.7,0,0,0-.767-.783,1.313,1.313,0,0,0-.967.455l-.28-.479a1.853,1.853,0,0,1,1.359-.56,1.183,1.183,0,0,1,1.343,1.287v2.671h-.688Zm0-1.1a.88.88,0,0,0-.775-.463.8.8,0,0,0,0,1.583.881.881,0,0,0,.775-.464Z" fill="#0b79bf"/>
      <path d="M87.224,55.54c.224,0,.352-.088.449-.351l.183-.528-1.287-3.942H87.3l.9,3.03.92-3.03h.727l-1.535,4.63a.99.99,0,0,1-1.048.8,1.673,1.673,0,0,1-.407-.057l.111-.607A.588.588,0,0,0,87.224,55.54Z" fill="#0b79bf"/>
      <path d="M94.423,54.181a1.245,1.245,0,0,1-1.016.5,1.188,1.188,0,0,1-1.175-1.287,1.167,1.167,0,0,1,1.175-1.264,1.214,1.214,0,0,1,1.016.48V51.99a.7.7,0,0,0-.768-.783,1.313,1.313,0,0,0-.967.455l-.28-.479a1.854,1.854,0,0,1,1.359-.56A1.182,1.182,0,0,1,95.11,51.91v2.671h-.687Zm0-1.1a.882.882,0,0,0-.776-.463.8.8,0,0,0,0,1.583.883.883,0,0,0,.776-.464Z" fill="#0b79bf"/>
      <path d="M96.408,53.766V51.319H95.9v-.6h.512V49.663h.68v1.056h.647v.6h-.647v2.31c0,.273.1.441.3.441a.448.448,0,0,0,.328-.136l.176.512a.887.887,0,0,1-.656.231C96.672,54.677,96.408,54.365,96.408,53.766Z" fill="#0b79bf"/>
      <path d="M100.505,49.248h.687v5.333h-.687Z" fill="#0b79bf"/>
      <path d="M103.775,50.623c1.031,0,1.568.9,1.568,2.047v.2h-2.479c.031.7.4,1.24,1.063,1.24a1.175,1.175,0,0,0,.887-.449l.353.416a1.707,1.707,0,0,1-1.3.6c-1.048,0-1.7-.84-1.7-2.031C102.16,51.527,102.767,50.623,103.775,50.623Zm-.92,1.759h1.816c-.008-.535-.248-1.191-.9-1.191C103.128,51.191,102.88,51.863,102.855,52.382Z" fill="#0b79bf"/>
      <path d="M108.279,54.181a1.243,1.243,0,0,1-1.015.5,1.187,1.187,0,0,1-1.175-1.287,1.167,1.167,0,0,1,1.175-1.264,1.211,1.211,0,0,1,1.015.48V51.99a.7.7,0,0,0-.768-.783,1.311,1.311,0,0,0-.966.455l-.281-.479a1.853,1.853,0,0,1,1.36-.56,1.183,1.183,0,0,1,1.343,1.287v2.671h-.688Zm0-1.1a.88.88,0,0,0-.775-.463.8.8,0,0,0,0,1.583.881.881,0,0,0,.775-.464Z" fill="#0b79bf"/>
      <path d="M110.144,53.646a1.423,1.423,0,0,0,1.032.479c.423,0,.687-.208.687-.535,0-.368-.359-.528-.768-.688-.535-.2-1.151-.432-1.151-1.207a1.13,1.13,0,0,1,1.279-1.072,1.675,1.675,0,0,1,1.224.5l-.3.472a1.15,1.15,0,0,0-.912-.416c-.383,0-.638.2-.638.48,0,.328.343.471.735.631.544.2,1.191.448,1.191,1.264a1.179,1.179,0,0,1-1.336,1.127,1.749,1.749,0,0,1-1.358-.544Z" fill="#0b79bf"/>
      <path d="M113.584,53.766V51.319h-.512v-.6h.512V49.663h.679v1.056h.648v.6h-.648v2.31c0,.273.1.441.3.441a.448.448,0,0,0,.328-.136l.176.512a.891.891,0,0,1-.656.231C113.847,54.677,113.584,54.365,113.584,53.766Z" fill="#0b79bf"/>
      <path d="M117.584,53.965c1.807-1.975,2.35-2.558,2.35-3.294a.786.786,0,0,0-.815-.823,1.289,1.289,0,0,0-1.127.647l-.48-.463a1.872,1.872,0,0,1,1.616-.864,1.474,1.474,0,0,1,1.583,1.5c0,.863-.64,1.631-2.024,3.238h2.047v.672h-3.15Z" fill="#0b79bf"/>
      <path d="M122.207,53.342a1.243,1.243,0,0,0,1.12.655.966.966,0,0,0,.911-1.063c0-.7-.336-1.079-.871-1.079a1.108,1.108,0,0,0-.936.479l-.559-.176v-2.91h2.853v.671h-2.094v1.728a1.255,1.255,0,0,1,.983-.456c.776,0,1.4.608,1.4,1.719a1.644,1.644,0,0,1-1.663,1.767,1.788,1.788,0,0,1-1.631-.863Z" fill="#0b79bf"/>
      <path d="M128.04,51.319h-.5v-.6h.5V50.3a1,1,0,0,1,.991-1.135,1.158,1.158,0,0,1,.544.12l-.151.528a.526.526,0,0,0-.248-.064c-.281,0-.449.2-.449.551v.416h.649v.6h-.649v3.262h-.687Z" fill="#0b79bf"/>
      <path d="M131.591,50.623c1.031,0,1.567.9,1.567,2.047v.2h-2.479c.032.7.4,1.24,1.064,1.24a1.179,1.179,0,0,0,.887-.449l.352.416a1.707,1.707,0,0,1-1.3.6c-1.046,0-1.7-.84-1.7-2.031C129.975,51.527,130.583,50.623,131.591,50.623Zm-.92,1.759h1.815c-.008-.535-.248-1.191-.9-1.191C130.943,51.191,130.7,51.863,130.671,52.382Z" fill="#0b79bf"/>
      <path d="M135.527,50.623c1.031,0,1.567.9,1.567,2.047v.2h-2.478c.031.7.4,1.24,1.063,1.24a1.175,1.175,0,0,0,.887-.449l.353.416a1.707,1.707,0,0,1-1.3.6c-1.048,0-1.7-.84-1.7-2.031C133.912,51.527,134.519,50.623,135.527,50.623Zm-.92,1.759h1.816c-.008-.535-.248-1.191-.9-1.191C134.88,51.191,134.632,51.863,134.607,52.382Z" fill="#0b79bf"/>
      <path d="M138.176,53.766V51.319h-.512v-.6h.512V49.663h.679v1.056h.648v.6h-.648v2.31c0,.273.1.441.3.441a.448.448,0,0,0,.328-.136l.176.512a.891.891,0,0,1-.656.231C138.439,54.677,138.176,54.365,138.176,53.766Z" fill="#0b79bf"/>
      <path d="M140.839,53.7a.48.48,0,1,1-.488.48A.486.486,0,0,1,140.839,53.7Z" fill="#0b79bf"/>
      <path d="M58.337,60.918c0-1.6.815-2.758,2.1-2.758a1.767,1.767,0,0,1,1.648,1.112l-.632.287a1.117,1.117,0,0,0-1.016-.719c-.807,0-1.327.879-1.327,2.078S59.632,63,60.439,63a1.109,1.109,0,0,0,1.016-.783l.639.287a1.765,1.765,0,0,1-1.655,1.176C59.152,63.677,58.337,62.518,58.337,60.918Z" fill="#0b79bf"/>
      <path d="M64.968,63.181a1.247,1.247,0,0,1-1.016.5,1.188,1.188,0,0,1-1.175-1.287,1.167,1.167,0,0,1,1.175-1.264,1.214,1.214,0,0,1,1.016.48V60.99a.7.7,0,0,0-.768-.783,1.313,1.313,0,0,0-.967.455l-.28-.479a1.854,1.854,0,0,1,1.359-.56,1.182,1.182,0,0,1,1.343,1.287v2.671h-.687Zm0-1.1a.882.882,0,0,0-.776-.463.8.8,0,0,0,0,1.583.883.883,0,0,0,.776-.464Z" fill="#0b79bf"/>
      <path d="M66.817,58.248h.688v5.333h-.688Z" fill="#0b79bf"/>
      <path d="M68.665,58.248h.687v5.333h-.687Z" fill="#0b79bf"/>
      <path d="M72.544,60.319h-.5v-.6h.5V59.3a1,1,0,0,1,.991-1.135,1.161,1.161,0,0,1,.544.12l-.152.528a.52.52,0,0,0-.248-.064c-.28,0-.448.2-.448.551v.416h.649v.6h-.649v3.262h-.687Z" fill="#0b79bf"/>
      <path d="M74.673,59.719h.687v.592a1.3,1.3,0,0,1,1.079-.68v.7a.85.85,0,0,0-.2-.023,1.11,1.11,0,0,0-.879.584v2.694h-.687Z" fill="#0b79bf"/>
      <path d="M77.04,61.646c0-1.087.559-2.023,1.623-2.023s1.623.936,1.623,2.023-.56,2.031-1.623,2.031S77.04,62.734,77.04,61.646Zm2.535,0c0-.736-.28-1.415-.912-1.415s-.9.679-.9,1.415.28,1.424.9,1.424S79.575,62.39,79.575,61.646Z" fill="#0b79bf"/>
      <path d="M85.23,60.838c0-.391-.16-.607-.511-.607a.989.989,0,0,0-.792.576v2.774h-.68V60.838c0-.384-.159-.607-.52-.607a1.015,1.015,0,0,0-.783.576v2.774h-.687V59.719h.687v.536a1.33,1.33,0,0,1,1.064-.632.822.822,0,0,1,.887.688,1.33,1.33,0,0,1,1.095-.688c.584,0,.92.312.92,1.008v2.95h-.68Z" fill="#0b79bf"/>
      <path d="M90.951,63.181a1.243,1.243,0,0,1-1.015.5A1.188,1.188,0,0,1,88.76,62.39a1.167,1.167,0,0,1,1.176-1.264,1.212,1.212,0,0,1,1.015.48V60.99a.7.7,0,0,0-.768-.783,1.311,1.311,0,0,0-.966.455l-.281-.479a1.853,1.853,0,0,1,1.36-.56,1.182,1.182,0,0,1,1.342,1.287v2.671h-.687Zm0-1.1a.88.88,0,0,0-.775-.463.8.8,0,0,0,0,1.583.881.881,0,0,0,.775-.464Z" fill="#0b79bf"/>
      <path d="M94.7,62.646a1.419,1.419,0,0,0,1.031.479c.424,0,.688-.208.688-.535,0-.368-.36-.528-.768-.688-.535-.2-1.151-.432-1.151-1.207a1.13,1.13,0,0,1,1.279-1.072,1.673,1.673,0,0,1,1.224.5l-.3.472a1.151,1.151,0,0,0-.911-.416c-.385,0-.641.2-.641.48,0,.328.345.471.737.631.543.2,1.191.448,1.191,1.264a1.179,1.179,0,0,1-1.336,1.127,1.753,1.753,0,0,1-1.359-.544Z" fill="#0b79bf"/>
      <path d="M99.991,63.181a1.244,1.244,0,0,1-1.016.5A1.187,1.187,0,0,1,97.8,62.39a1.166,1.166,0,0,1,1.174-1.264,1.212,1.212,0,0,1,1.016.48V60.99a.7.7,0,0,0-.768-.783,1.311,1.311,0,0,0-.966.455l-.281-.479a1.855,1.855,0,0,1,1.36-.56,1.182,1.182,0,0,1,1.342,1.287v2.671h-.687Zm0-1.1a.88.88,0,0,0-.775-.463.8.8,0,0,0,0,1.583.881.881,0,0,0,.775-.464Z" fill="#0b79bf"/>
      <path d="M101.992,60.319h-.5v-.6h.5V59.3a1,1,0,0,1,.991-1.135,1.158,1.158,0,0,1,.544.12l-.151.528a.523.523,0,0,0-.248-.064c-.281,0-.449.2-.449.551v.416h.648v.6h-.648v3.262h-.687Z" fill="#0b79bf"/>
      <path d="M105.543,59.623c1.031,0,1.567.9,1.567,2.047v.2h-2.478c.031.7.4,1.24,1.063,1.24a1.177,1.177,0,0,0,.887-.449l.352.416a1.707,1.707,0,0,1-1.3.6c-1.048,0-1.7-.84-1.7-2.031C103.927,60.527,104.535,59.623,105.543,59.623Zm-.92,1.759h1.815c-.008-.535-.248-1.191-.9-1.191C104.9,60.191,104.647,60.863,104.623,61.382Z" fill="#0b79bf"/>
      <path d="M109.936,58.248h.688v5.333h-.688Z" fill="#0b79bf"/>
      <path d="M111.592,61.646c0-1.087.559-2.023,1.623-2.023s1.623.936,1.623,2.023-.56,2.031-1.623,2.031S111.592,62.734,111.592,61.646Zm2.535,0c0-.736-.281-1.415-.912-1.415s-.9.679-.9,1.415.281,1.424.9,1.424S114.127,62.39,114.127,61.646Z" fill="#0b79bf"/>
      <path d="M117.263,59.623a1.362,1.362,0,0,1,1.144.52l-.36.464a.852.852,0,0,0-.72-.376c-.648,0-1,.639-1,1.415s.351,1.424,1,1.424a.875.875,0,0,0,.72-.376l.36.463a1.341,1.341,0,0,1-1.144.52c-1.007,0-1.647-.871-1.647-2.031S116.256,59.623,117.263,59.623Z" fill="#0b79bf"/>
      <path d="M121.255,63.181a1.245,1.245,0,0,1-1.016.5,1.188,1.188,0,0,1-1.175-1.287,1.167,1.167,0,0,1,1.175-1.264,1.214,1.214,0,0,1,1.016.48V60.99a.7.7,0,0,0-.768-.783,1.313,1.313,0,0,0-.967.455l-.28-.479a1.854,1.854,0,0,1,1.359-.56,1.182,1.182,0,0,1,1.343,1.287v2.671h-.687Zm0-1.1a.882.882,0,0,0-.776-.463.8.8,0,0,0,0,1.583.883.883,0,0,0,.776-.464Z" fill="#0b79bf"/>
      <path d="M123.24,62.766V60.319h-.512v-.6h.512V58.663h.68v1.056h.647v.6h-.647v2.31c0,.273.095.441.3.441a.452.452,0,0,0,.329-.136l.175.512a.887.887,0,0,1-.656.231C123.5,63.677,123.24,63.365,123.24,62.766Z" fill="#0b79bf"/>
      <path d="M125.351,58.632a.453.453,0,0,1,.449-.448.446.446,0,0,1,.447.448.44.44,0,0,1-.447.44A.446.446,0,0,1,125.351,58.632Zm.105,1.087h.687v3.862h-.687Z" fill="#0b79bf"/>
      <path d="M127.111,61.646c0-1.087.56-2.023,1.623-2.023s1.623.936,1.623,2.023-.559,2.031-1.623,2.031S127.111,62.734,127.111,61.646Zm2.535,0c0-.736-.28-1.415-.912-1.415s-.9.679-.9,1.415.28,1.424.9,1.424S129.646,62.39,129.646,61.646Z" fill="#0b79bf"/>
      <path d="M133.446,60.9c0-.488-.224-.664-.583-.664a1.036,1.036,0,0,0-.848.576v2.774h-.687V59.719h.687v.536a1.437,1.437,0,0,1,1.12-.632c.671,0,.991.368.991,1.048v2.91h-.68Z" fill="#0b79bf"/>
      <path d="M135.743,62.7a.48.48,0,1,1-.487.48A.486.486,0,0,1,135.743,62.7Z" fill="#0b79bf"/>
    </g>
    <g>
      <path d="M61.082,82.042h1.3v5.332h-1.3Z" fill="#0b79bf"/>
      <path d="M63.553,84.521h-.5V83.513h.5v-.232a1.19,1.19,0,0,1,1.24-1.319,1.634,1.634,0,0,1,.695.135l-.191.856a.465.465,0,0,0-.233-.063c-.216,0-.351.142-.351.407v.216h.623v1.008h-.623v2.853h-1.16Z" fill="#0b79bf"/>
      <path d="M68.185,87.919a.374.374,0,0,0,.4-.224l.088-.248-1.312-3.934h1.224l.679,2.471.7-2.471h1.222l-1.5,4.437a1.291,1.291,0,0,1-1.415.993,2.127,2.127,0,0,1-.5-.065l.16-1.015A.528.528,0,0,0,68.185,87.919Z" fill="#0b79bf"/>
      <path d="M71.489,85.44a1.844,1.844,0,1,1,1.831,2.03A1.841,1.841,0,0,1,71.489,85.44Zm2.479,0c0-.56-.2-1-.648-1s-.64.439-.64,1,.2,1.007.64,1.007S73.968,86.007,73.968,85.44Z" fill="#0b79bf"/>
      <path d="M78.1,86.911a1.44,1.44,0,0,1-1.143.559A.949.949,0,0,1,75.9,86.423v-2.91h1.159V85.96c0,.352.161.487.449.487a.717.717,0,0,0,.6-.4V83.513h1.152v3.861H78.1Z" fill="#0b79bf"/>
      <path d="M82.2,86.128a1.858,1.858,0,0,0,1.1.455c.319,0,.479-.12.479-.312s-.24-.28-.575-.367c-.552-.153-1.328-.344-1.328-1.272,0-.647.52-1.215,1.5-1.215a2.311,2.311,0,0,1,1.423.488l-.448.776a1.454,1.454,0,0,0-.967-.385c-.249,0-.424.1-.424.272s.208.256.544.343c.567.153,1.375.361,1.375,1.313,0,.726-.608,1.246-1.56,1.246a2.291,2.291,0,0,1-1.583-.551Z" fill="#0b79bf"/>
      <path d="M89.815,84.88c0-.279-.111-.439-.384-.439a.708.708,0,0,0-.575.408v2.525H87.705V84.88c0-.264-.105-.439-.393-.439a.707.707,0,0,0-.567.408v2.525H85.586V83.513h1.159v.479a1.405,1.405,0,0,1,1.1-.575.891.891,0,0,1,.96.664,1.406,1.406,0,0,1,1.152-.664.919.919,0,0,1,1.014,1.032v2.925H89.815Z" fill="#0b79bf"/>
      <path d="M93.52,83.417c1.087,0,1.727.84,1.727,2.078v.321H92.873a.789.789,0,0,0,.846.744,1.152,1.152,0,0,0,.792-.336l.512.695a2.054,2.054,0,0,1-1.439.551,2.036,2.036,0,0,1-.064-4.053Zm-.656,1.623h1.279c-.015-.312-.159-.712-.639-.712C93.04,84.328,92.888,84.728,92.864,85.04Z" fill="#0b79bf"/>
      <path d="M95.953,82.042h1.159v5.332H95.953Z" fill="#0b79bf"/>
      <path d="M98.049,82.042h1.159v5.332H98.049Z" fill="#0b79bf"/>
      <path d="M104.176,84.937c0-.353-.168-.5-.449-.5a.709.709,0,0,0-.6.408v2.525h-1.159V83.513h1.159v.479a1.411,1.411,0,0,1,1.135-.575.966.966,0,0,1,1.072,1.063v2.894h-1.159Z" fill="#0b79bf"/>
      <path d="M108.288,87a1.3,1.3,0,0,1-1.016.471,1.2,1.2,0,0,1-1.207-1.279,1.144,1.144,0,0,1,1.207-1.231,1.272,1.272,0,0,1,1.016.44v-.448a.6.6,0,0,0-.68-.6,1.472,1.472,0,0,0-.951.4l-.408-.775a2.4,2.4,0,0,1,1.584-.56c.879,0,1.606.375,1.606,1.415v2.542h-1.151Zm0-.984a.634.634,0,0,0-.56-.3.5.5,0,1,0,0,1,.632.632,0,0,0,.56-.3Z" fill="#0b79bf"/>
      <path d="M110.568,86.375V84.521h-.487V83.513h.487V82.457h1.16v1.056h.623v1.008h-.623v1.566c0,.225.088.36.264.36a.4.4,0,0,0,.264-.088l.208.9a1.3,1.3,0,0,1-.8.215A.964.964,0,0,1,110.568,86.375Z" fill="#0b79bf"/>
      <path d="M115.272,86.911a1.44,1.44,0,0,1-1.143.559.949.949,0,0,1-1.064-1.047v-2.91h1.159V85.96c0,.352.161.487.449.487a.717.717,0,0,0,.6-.4V83.513h1.152v3.861h-1.152Z" fill="#0b79bf"/>
      <path d="M117.369,83.513h1.159v.5a1.347,1.347,0,0,1,1.031-.592v1.119a1.076,1.076,0,0,0-.247-.032,1.022,1.022,0,0,0-.784.384v2.486h-1.159Z" fill="#0b79bf"/>
      <path d="M122.231,87a1.3,1.3,0,0,1-1.015.471,1.2,1.2,0,0,1-1.207-1.279,1.144,1.144,0,0,1,1.207-1.231,1.272,1.272,0,0,1,1.015.44v-.448a.6.6,0,0,0-.679-.6,1.473,1.473,0,0,0-.952.4l-.408-.775a2.406,2.406,0,0,1,1.584-.56c.879,0,1.607.375,1.607,1.415v2.542h-1.152Zm0-.984a.633.633,0,0,0-.559-.3.5.5,0,1,0,0,1,.632.632,0,0,0,.559-.3Z" fill="#0b79bf"/>
      <path d="M124.32,82.042h1.159v5.332H124.32Z" fill="#0b79bf"/>
      <path d="M128.639,87.574a1.352,1.352,0,0,0,.993.4.756.756,0,0,0,.807-.839v-.392a1.12,1.12,0,0,1-.952.56c-.863,0-1.447-.655-1.447-1.942,0-1.256.576-1.944,1.447-1.944a1.1,1.1,0,0,1,.952.551v-.455h1.152v3.6a1.692,1.692,0,0,1-1.9,1.832,2.146,2.146,0,0,1-1.487-.5Zm1.8-2.782a.683.683,0,0,0-.56-.351c-.424,0-.656.336-.656.92s.232.926.656.926a.673.673,0,0,0,.56-.36Z" fill="#0b79bf"/>
      <path d="M134.551,87a1.3,1.3,0,0,1-1.016.471,1.2,1.2,0,0,1-1.207-1.279,1.144,1.144,0,0,1,1.207-1.231,1.275,1.275,0,0,1,1.016.44v-.448a.6.6,0,0,0-.68-.6,1.472,1.472,0,0,0-.951.4l-.409-.775a2.408,2.408,0,0,1,1.584-.56c.879,0,1.607.375,1.607,1.415v2.542h-1.151Zm0-.984a.635.635,0,0,0-.56-.3.5.5,0,1,0,0,1,.633.633,0,0,0,.56-.3Z" fill="#0b79bf"/>
      <path d="M136.816,86.128a1.858,1.858,0,0,0,1.1.455c.319,0,.479-.12.479-.312s-.24-.28-.575-.367c-.552-.153-1.328-.344-1.328-1.272,0-.647.521-1.215,1.5-1.215a2.306,2.306,0,0,1,1.423.488l-.447.776A1.459,1.459,0,0,0,138,84.3c-.248,0-.424.1-.424.272s.208.256.544.343c.567.153,1.375.361,1.375,1.313,0,.726-.608,1.246-1.56,1.246a2.291,2.291,0,0,1-1.583-.551Z" fill="#0b79bf"/>
      <path d="M140.872,86.039a.712.712,0,1,1-.72.712A.723.723,0,0,1,140.872,86.039Z" fill="#0b79bf"/>
      <path d="M61.194,91.042h.759v5.332h-.759Z" fill="#0b79bf"/>
      <path d="M63.305,93.113h-.5v-.6h.5V92.1a1,1,0,0,1,.992-1.135,1.161,1.161,0,0,1,.544.119l-.152.528a.531.531,0,0,0-.248-.063c-.28,0-.448.2-.448.551v.416h.647v.6h-.647v3.261h-.688Z" fill="#0b79bf"/>
      <path d="M67.45,95.56V93.113h-.512v-.6h.512V91.457h.68v1.056h.647v.6H68.13v2.31c0,.272.095.44.3.44a.447.447,0,0,0,.328-.135l.176.512a.891.891,0,0,1-.656.23C67.714,96.47,67.45,96.159,67.45,95.56Z" fill="#0b79bf"/>
      <path d="M71.784,93.672c0-.479-.224-.647-.583-.647a1.045,1.045,0,0,0-.848.576v2.773h-.687V91.042h.687v2.006a1.454,1.454,0,0,1,1.127-.631c.672,0,.991.344.991,1.039v2.918h-.687Z" fill="#0b79bf"/>
      <path d="M75.056,92.417c1.032,0,1.568.9,1.568,2.047v.2H74.145c.032.7.4,1.241,1.064,1.241a1.175,1.175,0,0,0,.886-.449l.353.415a1.7,1.7,0,0,1-1.3.6c-1.047,0-1.7-.839-1.7-2.03C73.441,93.321,74.049,92.417,75.056,92.417Zm-.92,1.759h1.816c-.008-.536-.248-1.191-.9-1.191S74.161,93.656,74.136,94.176Z" fill="#0b79bf"/>
      <path d="M80.385,91.226a1.205,1.205,0,0,0-.536.743.723.723,0,0,1,.113-.016.427.427,0,0,1,.415.449.47.47,0,0,1-.472.463c-.279,0-.527-.233-.527-.648a1.59,1.59,0,0,1,.672-1.255Zm1.351,0a1.192,1.192,0,0,0-.535.743.684.684,0,0,1,.111-.016.426.426,0,0,1,.416.449.471.471,0,0,1-.471.463.576.576,0,0,1-.537-.648,1.6,1.6,0,0,1,.68-1.255Z" fill="#0b79bf"/>
      <path d="M82.849,92.513h.688v.592a1.294,1.294,0,0,1,1.079-.68v.7a.857.857,0,0,0-.2-.023,1.11,1.11,0,0,0-.879.584v2.693h-.688Z" fill="#0b79bf"/>
      <path d="M85.218,94.44c0-1.087.559-2.023,1.623-2.023s1.623.936,1.623,2.023-.56,2.03-1.623,2.03S85.218,95.527,85.218,94.44Zm2.535,0c0-.736-.281-1.415-.912-1.415s-.9.679-.9,1.415.281,1.423.9,1.423S87.753,95.183,87.753,94.44Z" fill="#0b79bf"/>
      <path d="M89.569,95.56V93.113h-.512v-.6h.512V91.457h.68v1.056H90.9v.6h-.647v2.31c0,.272.095.44.3.44a.451.451,0,0,0,.329-.135l.175.512a.891.891,0,0,1-.656.23C89.833,96.47,89.569,96.159,89.569,95.56Z" fill="#0b79bf"/>
      <path d="M91.921,95.56V93.113h-.512v-.6h.512V91.457H92.6v1.056h.648v.6H92.6v2.31c0,.272.1.44.3.44a.447.447,0,0,0,.328-.135l.176.512a.9.9,0,0,1-.656.23C92.184,96.47,91.921,96.159,91.921,95.56Z" fill="#0b79bf"/>
      <path d="M95.56,92.417c1.032,0,1.568.9,1.568,2.047v.2H94.649c.031.7.4,1.241,1.064,1.241a1.175,1.175,0,0,0,.886-.449l.353.415a1.7,1.7,0,0,1-1.3.6c-1.047,0-1.7-.839-1.7-2.03C93.945,93.321,94.552,92.417,95.56,92.417Zm-.92,1.759h1.816c-.008-.536-.248-1.191-.9-1.191C94.913,92.985,94.665,93.656,94.64,94.176Z" fill="#0b79bf"/>
      <path d="M100.191,93.689c0-.489-.223-.664-.583-.664a1.034,1.034,0,0,0-.848.576v2.773h-.687V92.513h.687v.535a1.439,1.439,0,0,1,1.12-.631c.672,0,.991.367.991,1.047v2.91h-.68Z" fill="#0b79bf"/>
      <path d="M105.344,92.417c1.031,0,1.567.9,1.567,2.047v.2h-2.479c.032.7.4,1.241,1.064,1.241a1.179,1.179,0,0,0,.887-.449l.352.415a1.7,1.7,0,0,1-1.3.6c-1.046,0-1.7-.839-1.7-2.03C103.728,93.321,104.336,92.417,105.344,92.417Zm-.92,1.759h1.815c-.008-.536-.248-1.191-.9-1.191C104.7,92.985,104.448,93.656,104.424,94.176Z" fill="#0b79bf"/>
      <path d="M108.129,96.919a1.251,1.251,0,0,0,1,.44.886.886,0,0,0,.935-1.008v-.592a1.189,1.189,0,0,1-1,.64c-.863,0-1.4-.759-1.4-1.992,0-1.207.528-1.99,1.4-1.99a1.152,1.152,0,0,1,1,.631v-.535h.689V96.3a1.457,1.457,0,0,1-1.6,1.64,1.763,1.763,0,0,1-1.327-.489Zm1.934-3.31a.961.961,0,0,0-.807-.584c-.591,0-.879.6-.879,1.382s.288,1.384.879,1.384a.963.963,0,0,0,.807-.584Z" fill="#0b79bf"/>
      <path d="M112.184,96.919a1.251,1.251,0,0,0,1,.44.887.887,0,0,0,.936-1.008v-.592a1.191,1.191,0,0,1-1,.64c-.863,0-1.4-.759-1.4-1.992,0-1.207.528-1.99,1.4-1.99a1.153,1.153,0,0,1,1,.631v-.535h.687V96.3a1.455,1.455,0,0,1-1.6,1.64,1.76,1.76,0,0,1-1.327-.489Zm1.935-3.31a.963.963,0,0,0-.808-.584c-.591,0-.879.6-.879,1.382s.288,1.384.879,1.384a.965.965,0,0,0,.808-.584Z" fill="#0b79bf"/>
      <path d="M115.928,92.609a1.272,1.272,0,0,0,.536-.752.336.336,0,0,1-.112.024.428.428,0,0,1-.424-.448.472.472,0,0,1,.472-.471c.287,0,.535.232.535.647a1.591,1.591,0,0,1-.679,1.263Zm1.351,0a1.272,1.272,0,0,0,.536-.752.339.339,0,0,1-.12.024.427.427,0,0,1-.416-.448.472.472,0,0,1,.472-.471c.288,0,.536.232.536.647a1.614,1.614,0,0,1-.68,1.263Z" fill="#0b79bf"/>
      <path d="M121.056,94.44c0-1.087.56-2.023,1.623-2.023s1.623.936,1.623,2.023-.559,2.03-1.623,2.03S121.056,95.527,121.056,94.44Zm2.536,0c0-.736-.281-1.415-.913-1.415s-.9.679-.9,1.415.28,1.423.9,1.423S123.592,95.183,123.592,94.44Z" fill="#0b79bf"/>
      <path d="M127.488,95.847a1.215,1.215,0,0,1-1.008.623c-.863,0-1.4-.791-1.4-2.021,0-1.209.528-2.032,1.4-2.032a1.176,1.176,0,0,1,1.008.631V91.042h.68v5.332h-.68Zm0-2.238a.985.985,0,0,0-.816-.584c-.591,0-.879.631-.879,1.424s.288,1.414.879,1.414a.978.978,0,0,0,.816-.576Z" fill="#0b79bf"/>
      <path d="M129.144,94.44c0-1.087.56-2.023,1.623-2.023s1.623.936,1.623,2.023-.559,2.03-1.623,2.03S129.144,95.527,129.144,94.44Zm2.535,0c0-.736-.28-1.415-.912-1.415s-.9.679-.9,1.415.28,1.423.9,1.423S131.679,95.183,131.679,94.44Z" fill="#0b79bf"/>
      <path d="M133.361,92.513h.688v.592a1.294,1.294,0,0,1,1.079-.68v.7a.859.859,0,0,0-.2-.023,1.11,1.11,0,0,0-.878.584v2.693h-.688Z" fill="#0b79bf"/>
      <path d="M137.608,94.44c0-1.087.56-2.023,1.623-2.023s1.623.936,1.623,2.023-.559,2.03-1.623,2.03S137.608,95.527,137.608,94.44Zm2.535,0c0-.736-.28-1.415-.912-1.415s-.9.679-.9,1.415.28,1.423.9,1.423S140.143,95.183,140.143,94.44Z" fill="#0b79bf"/>
      <path d="M141.976,93.113h-.5v-.6h.5V92.1a1,1,0,0,1,.992-1.135,1.154,1.154,0,0,1,.543.119l-.151.528a.531.531,0,0,0-.248-.063c-.28,0-.448.2-.448.551v.416h.648v.6h-.648v3.261h-.688Z" fill="#0b79bf"/>
      <path d="M61.426,105.919a1.25,1.25,0,0,0,1,.44.887.887,0,0,0,.935-1.008v-.592a1.19,1.19,0,0,1-1,.64c-.863,0-1.4-.759-1.4-1.992,0-1.207.528-1.99,1.4-1.99a1.152,1.152,0,0,1,1,.631v-.535h.689v3.79a1.457,1.457,0,0,1-1.6,1.64,1.763,1.763,0,0,1-1.327-.489Zm1.934-3.31a.963.963,0,0,0-.808-.584c-.59,0-.878.6-.878,1.382s.288,1.384.878,1.384a.965.965,0,0,0,.808-.584Z" fill="#0b79bf"/>
      <path d="M67.2,104.975a1.243,1.243,0,0,1-1.015.5,1.187,1.187,0,0,1-1.175-1.287,1.166,1.166,0,0,1,1.175-1.263,1.209,1.209,0,0,1,1.015.48v-.616a.7.7,0,0,0-.768-.783,1.308,1.308,0,0,0-.966.455l-.281-.479a1.853,1.853,0,0,1,1.36-.56,1.182,1.182,0,0,1,1.342,1.287v2.67H67.2Zm0-1.1a.88.88,0,0,0-.775-.465.8.8,0,0,0,0,1.584.879.879,0,0,0,.775-.464Z" fill="#0b79bf"/>
      <path d="M69.065,104.439a1.422,1.422,0,0,0,1.031.48c.424,0,.688-.208.688-.535,0-.369-.359-.528-.768-.688-.535-.2-1.151-.432-1.151-1.207a1.13,1.13,0,0,1,1.279-1.072,1.667,1.667,0,0,1,1.224.5l-.3.471a1.15,1.15,0,0,0-.912-.416c-.383,0-.639.2-.639.481,0,.328.344.471.736.63.544.2,1.191.449,1.191,1.264A1.179,1.179,0,0,1,70.1,105.47a1.752,1.752,0,0,1-1.358-.543Z" fill="#0b79bf"/>
      <path d="M74.145,100.425a.452.452,0,0,1,.449-.447.446.446,0,0,1,.447.447.44.44,0,0,1-.447.44A.446.446,0,0,1,74.145,100.425Zm.105,1.088h.687v3.861H74.25Z" fill="#0b79bf"/>
      <path d="M76.113,104.439a1.42,1.42,0,0,0,1.031.48c.424,0,.688-.208.688-.535,0-.369-.36-.528-.768-.688-.535-.2-1.151-.432-1.151-1.207a1.13,1.13,0,0,1,1.279-1.072,1.666,1.666,0,0,1,1.224.5l-.3.471a1.151,1.151,0,0,0-.911-.416c-.385,0-.641.2-.641.481,0,.328.345.471.737.63.543.2,1.191.449,1.191,1.264,0,.656-.519,1.127-1.336,1.127a1.756,1.756,0,0,1-1.359-.543Z" fill="#0b79bf"/>
      <path d="M83.288,104.975a1.243,1.243,0,0,1-1.015.5,1.187,1.187,0,0,1-1.176-1.287,1.167,1.167,0,0,1,1.176-1.263,1.21,1.21,0,0,1,1.015.48v-.616A.7.7,0,0,0,82.52,102a1.311,1.311,0,0,0-.967.455l-.28-.479a1.853,1.853,0,0,1,1.36-.56,1.182,1.182,0,0,1,1.342,1.287v2.67h-.687Zm0-1.1a.881.881,0,0,0-.776-.465.8.8,0,0,0,0,1.584.88.88,0,0,0,.776-.464Z" fill="#0b79bf"/>
      <path d="M85.137,106.846v-5.333h.688v.527a1.193,1.193,0,0,1,1-.623c.872,0,1.4.791,1.4,2.023s-.527,2.03-1.4,2.03a1.145,1.145,0,0,1-1-.639v2.015Zm1.5-4.821a.974.974,0,0,0-.808.576v1.679a.985.985,0,0,0,.808.583c.591,0,.878-.631.878-1.423S87.224,102.025,86.633,102.025Z" fill="#0b79bf"/>
      <path d="M89.194,106.846v-5.333h.688v.527a1.191,1.191,0,0,1,1-.623c.872,0,1.4.791,1.4,2.023s-.527,2.03-1.4,2.03a1.145,1.145,0,0,1-1-.639v2.015Zm1.495-4.821a.972.972,0,0,0-.807.576v1.679a.984.984,0,0,0,.807.583c.592,0,.879-.631.879-1.423S91.281,102.025,90.689,102.025Z" fill="#0b79bf"/>
      <path d="M95.24,104.975a1.243,1.243,0,0,1-1.016.5,1.187,1.187,0,0,1-1.174-1.287,1.166,1.166,0,0,1,1.174-1.263,1.209,1.209,0,0,1,1.016.48v-.616a.7.7,0,0,0-.768-.783,1.308,1.308,0,0,0-.966.455l-.281-.479a1.855,1.855,0,0,1,1.36-.56,1.181,1.181,0,0,1,1.342,1.287v2.67H95.24Zm0-1.1a.88.88,0,0,0-.775-.465.8.8,0,0,0,0,1.584.879.879,0,0,0,.775-.464Z" fill="#0b79bf"/>
      <path d="M97.09,101.513h.687v.592a1.294,1.294,0,0,1,1.079-.68v.7a.85.85,0,0,0-.2-.023,1.11,1.11,0,0,0-.879.584v2.693H97.09Z" fill="#0b79bf"/>
      <path d="M101.072,101.417c1.031,0,1.567.9,1.567,2.047v.2h-2.478c.031.7.4,1.241,1.063,1.241a1.175,1.175,0,0,0,.887-.449l.353.415a1.707,1.707,0,0,1-1.3.6c-1.047,0-1.7-.839-1.7-2.03C99.457,102.321,100.064,101.417,101.072,101.417Zm-.92,1.759h1.816c-.008-.536-.249-1.191-.9-1.191C100.425,101.985,100.177,102.656,100.152,103.176Z" fill="#0b79bf"/>
      <path d="M105.7,102.689c0-.489-.224-.664-.583-.664a1.034,1.034,0,0,0-.848.576v2.773h-.687v-3.861h.687v.535a1.438,1.438,0,0,1,1.119-.631c.672,0,.992.367.992,1.047v2.91h-.68Z" fill="#0b79bf"/>
      <path d="M107.689,104.56v-2.447h-.512v-.6h.512v-1.056h.68v1.056h.647v.6h-.647v2.31c0,.272.1.44.3.44a.451.451,0,0,0,.328-.135l.176.512a.894.894,0,0,1-.657.23C107.953,105.47,107.689,105.159,107.689,104.56Z" fill="#0b79bf"/>
      <path d="M109.865,106.142a1.265,1.265,0,0,0,.535-.751.358.358,0,0,1-.111.016.421.421,0,0,1-.424-.44.473.473,0,0,1,.472-.472c.288,0,.535.233.535.648a1.589,1.589,0,0,1-.68,1.263Z" fill="#0b79bf"/>
      <path d="M115.288,101.417a1.362,1.362,0,0,1,1.143.52l-.36.463a.85.85,0,0,0-.72-.375c-.647,0-1,.639-1,1.415s.352,1.423,1,1.423a.872.872,0,0,0,.72-.375l.36.462a1.338,1.338,0,0,1-1.143.52c-1.008,0-1.648-.871-1.648-2.03S114.28,101.417,115.288,101.417Z" fill="#0b79bf"/>
      <path d="M119.279,104.975a1.243,1.243,0,0,1-1.016.5,1.187,1.187,0,0,1-1.174-1.287,1.166,1.166,0,0,1,1.174-1.263,1.209,1.209,0,0,1,1.016.48v-.616a.7.7,0,0,0-.768-.783,1.308,1.308,0,0,0-.966.455l-.281-.479a1.855,1.855,0,0,1,1.36-.56,1.182,1.182,0,0,1,1.343,1.287v2.67h-.688Zm0-1.1a.88.88,0,0,0-.775-.465.8.8,0,0,0,0,1.584.879.879,0,0,0,.775-.464Z" fill="#0b79bf"/>
      <path d="M121.129,100.042h.687v5.332h-.687Z" fill="#0b79bf"/>
      <path d="M122.977,100.042h.688v5.332h-.688Z" fill="#0b79bf"/>
      <path d="M126.856,102.113h-.5v-.6h.5V101.1a1,1,0,0,1,.991-1.135,1.158,1.158,0,0,1,.544.119l-.151.528a.531.531,0,0,0-.248-.063c-.28,0-.448.2-.448.551v.416h.647v.6h-.647v3.261h-.688Z" fill="#0b79bf"/>
      <path d="M128.985,101.513h.688v.592a1.294,1.294,0,0,1,1.079-.68v.7a.857.857,0,0,0-.2-.023,1.108,1.108,0,0,0-.879.584v2.693h-.688Z" fill="#0b79bf"/>
      <path d="M131.352,103.44c0-1.087.56-2.023,1.623-2.023s1.623.936,1.623,2.023-.559,2.03-1.623,2.03S131.352,104.527,131.352,103.44Zm2.535,0c0-.736-.28-1.415-.912-1.415s-.9.679-.9,1.415.28,1.423.9,1.423S133.887,104.183,133.887,103.44Z" fill="#0b79bf"/>
      <path d="M139.543,102.632c0-.392-.16-.607-.512-.607a.989.989,0,0,0-.792.576v2.773h-.68v-2.742c0-.384-.159-.607-.519-.607a1.015,1.015,0,0,0-.783.576v2.773h-.688v-3.861h.688v.535a1.33,1.33,0,0,1,1.063-.631.821.821,0,0,1,.887.688,1.331,1.331,0,0,1,1.095-.688c.584,0,.92.312.92,1.008v2.949h-.679Z" fill="#0b79bf"/>
      <path d="M145.262,104.975a1.242,1.242,0,0,1-1.014.5,1.187,1.187,0,0,1-1.176-1.287,1.167,1.167,0,0,1,1.176-1.263,1.208,1.208,0,0,1,1.014.48v-.616A.7.7,0,0,0,144.5,102a1.31,1.31,0,0,0-.967.455l-.28-.479a1.853,1.853,0,0,1,1.359-.56,1.182,1.182,0,0,1,1.343,1.287v2.67h-.688Zm0-1.1a.879.879,0,0,0-.775-.465.8.8,0,0,0,0,1.584.878.878,0,0,0,.775-.464Z" fill="#0b79bf"/>
      <path d="M61.17,113.439a1.42,1.42,0,0,0,1.031.48c.424,0,.687-.208.687-.535,0-.369-.359-.528-.767-.688-.535-.2-1.152-.432-1.152-1.207a1.13,1.13,0,0,1,1.28-1.072,1.665,1.665,0,0,1,1.223.5l-.3.471a1.154,1.154,0,0,0-.911-.416c-.385,0-.641.2-.641.481,0,.328.345.471.736.63.543.2,1.192.449,1.192,1.264a1.179,1.179,0,0,1-1.336,1.127,1.758,1.758,0,0,1-1.36-.543Z" fill="#0b79bf"/>
      <path d="M66.465,113.975a1.244,1.244,0,0,1-1.016.5,1.187,1.187,0,0,1-1.175-1.287,1.167,1.167,0,0,1,1.175-1.263,1.212,1.212,0,0,1,1.016.48v-.616A.7.7,0,0,0,65.7,111a1.31,1.31,0,0,0-.967.455l-.28-.479a1.854,1.854,0,0,1,1.359-.56,1.182,1.182,0,0,1,1.343,1.287v2.67h-.687Zm0-1.1a.882.882,0,0,0-.776-.465.8.8,0,0,0,0,1.584.881.881,0,0,0,.776-.464Z" fill="#0b79bf"/>
      <path d="M68.466,111.113h-.5v-.6h.5V110.1a1,1,0,0,1,.991-1.135,1.161,1.161,0,0,1,.544.119l-.152.528a.531.531,0,0,0-.248-.063c-.28,0-.448.2-.448.551v.416H69.8v.6h-.648v3.261h-.687Z" fill="#0b79bf"/>
      <path d="M72.016,110.417c1.032,0,1.568.9,1.568,2.047v.2H71.105c.031.7.4,1.241,1.064,1.241a1.175,1.175,0,0,0,.886-.449l.353.415a1.7,1.7,0,0,1-1.3.6c-1.048,0-1.7-.839-1.7-2.03C70.4,111.321,71.009,110.417,72.016,110.417Zm-.92,1.759h1.816c-.008-.536-.248-1.191-.9-1.191C71.369,110.985,71.121,111.656,71.1,112.176Z" fill="#0b79bf"/>
      <path d="M76.41,109.042H77.1v5.332H76.41Z" fill="#0b79bf"/>
      <path d="M78.065,112.44c0-1.087.56-2.023,1.623-2.023s1.623.936,1.623,2.023-.559,2.03-1.623,2.03S78.065,113.527,78.065,112.44Zm2.535,0c0-.736-.28-1.415-.912-1.415s-.9.679-.9,1.415.28,1.423.9,1.423S80.6,113.183,80.6,112.44Z" fill="#0b79bf"/>
      <path d="M83.737,110.417a1.364,1.364,0,0,1,1.144.52l-.361.463a.848.848,0,0,0-.719-.375c-.648,0-1,.639-1,1.415s.351,1.423,1,1.423a.871.871,0,0,0,.719-.375l.361.462a1.34,1.34,0,0,1-1.144.52c-1.008,0-1.647-.871-1.647-2.03S82.729,110.417,83.737,110.417Z" fill="#0b79bf"/>
      <path d="M87.728,113.975a1.243,1.243,0,0,1-1.015.5,1.187,1.187,0,0,1-1.175-1.287,1.167,1.167,0,0,1,1.175-1.263,1.209,1.209,0,0,1,1.015.48v-.616a.7.7,0,0,0-.767-.783,1.31,1.31,0,0,0-.967.455l-.28-.479a1.854,1.854,0,0,1,1.359-.56,1.182,1.182,0,0,1,1.343,1.287v2.67h-.688Zm0-1.1a.88.88,0,0,0-.775-.465.8.8,0,0,0,0,1.584.879.879,0,0,0,.775-.464Z" fill="#0b79bf"/>
      <path d="M89.714,113.56v-2.447H89.2v-.6h.512v-1.056h.679v1.056h.648v.6h-.648v2.31c0,.272.1.44.3.44a.447.447,0,0,0,.328-.135l.176.512a.9.9,0,0,1-.656.23C89.977,114.47,89.714,114.159,89.714,113.56Z" fill="#0b79bf"/>
      <path d="M91.825,109.425a.452.452,0,0,1,.448-.447.446.446,0,0,1,.447.447.44.44,0,0,1-.447.44A.446.446,0,0,1,91.825,109.425Zm.1,1.088h.688v3.861h-.688Z" fill="#0b79bf"/>
      <path d="M93.585,112.44c0-1.087.559-2.023,1.623-2.023s1.623.936,1.623,2.023-.56,2.03-1.623,2.03S93.585,113.527,93.585,112.44Zm2.535,0c0-.736-.28-1.415-.912-1.415s-.9.679-.9,1.415.281,1.423.9,1.423S96.12,113.183,96.12,112.44Z" fill="#0b79bf"/>
      <path d="M99.92,111.689c0-.489-.224-.664-.583-.664a1.033,1.033,0,0,0-.848.576v2.773H97.8v-3.861h.687v.535a1.437,1.437,0,0,1,1.119-.631c.672,0,.991.367.991,1.047v2.91H99.92Z" fill="#0b79bf"/>
      <path d="M102.217,113.5a.48.48,0,1,1-.488.48A.486.486,0,0,1,102.217,113.5Z" fill="#0b79bf"/>
    </g>
    <g>
      <circle cx="29.033" cy="54.429" r="17.141" fill="#0b79bf"/>
      <circle cx="29.033" cy="54.429" r="15.238" fill="none" stroke="#fff" stroke-miterlimit="10"/>
    </g>
    <circle cx="29.033" cy="99.08" r="17.141" fill="#0b79bf"/>
    <circle cx="29.033" cy="99.08" r="15.238" fill="none" stroke="#fff" stroke-miterlimit="10"/>
    <g>
      <path d="M53.325,139.321h2.742v.559h-2.1v1.768h2.046v.558H53.965v2.448h-.64Z" fill="#231f20"/>
      <path d="M56.966,142.718c0-1.087.544-2.022,1.567-2.022,1.039,0,1.575.935,1.575,2.022s-.536,2.031-1.575,2.031C57.51,144.749,56.966,143.806,56.966,142.718Zm2.542,0c0-.775-.3-1.511-.975-1.511-.664,0-.968.736-.968,1.511s.3,1.52.968,1.52C59.213,144.238,59.508,143.5,59.508,142.718Z" fill="#231f20"/>
      <path d="M61.228,139.321H61.8v5.333h-.569Z" fill="#231f20"/>
      <path d="M65.315,144.1a1.2,1.2,0,0,1-1.015.647c-.864,0-1.383-.806-1.383-2.022,0-1.2.511-2.031,1.383-2.031a1.162,1.162,0,0,1,1.015.655v-2.03h.576v5.333h-.576Zm0-2.263a1.032,1.032,0,0,0-.871-.632c-.632,0-.928.68-.928,1.52s.3,1.511.928,1.511a1.024,1.024,0,0,0,.871-.623Z" fill="#231f20"/>
      <path d="M67.134,145.429a1.223,1.223,0,0,0,.511-.743c-.016,0-.072.008-.1.008a.375.375,0,0,1-.376-.392.416.416,0,0,1,.416-.424c.256,0,.479.216.479.6a1.5,1.5,0,0,1-.639,1.183Z" fill="#231f20"/>
      <path d="M73.468,144.1a1.208,1.208,0,0,1-1.016.647c-.863,0-1.383-.806-1.383-2.022,0-1.2.512-2.031,1.383-2.031a1.164,1.164,0,0,1,1.016.655v-2.03h.576v5.333h-.576Zm0-2.263a1.034,1.034,0,0,0-.872-.632c-.631,0-.927.68-.927,1.52s.3,1.511.927,1.511a1.026,1.026,0,0,0,.872-.623Z" fill="#231f20"/>
      <path d="M76.732,140.7c1.015,0,1.527.911,1.527,2.039v.175h-2.5c.023.777.423,1.36,1.111,1.36a1.188,1.188,0,0,0,.919-.472l.3.336a1.608,1.608,0,0,1-1.272.615c-1.031,0-1.655-.847-1.655-2.031C75.165,141.6,75.757,140.7,76.732,140.7Zm-.975,1.791h1.934c-.008-.591-.264-1.312-.968-1.312C76.045,141.175,75.772,141.919,75.757,142.487Z" fill="#231f20"/>
      <path d="M79.469,143.878v-2.583h-.512v-.5h.512v-1.056h.576v1.056H80.7v.5h-.655v2.48c0,.295.088.463.311.463a.429.429,0,0,0,.336-.153l.176.433a.83.83,0,0,1-.624.231C79.717,144.749,79.469,144.454,79.469,143.878Z" fill="#231f20"/>
      <path d="M83.7,144.238a1.21,1.21,0,0,1-1.016.511,1.185,1.185,0,0,1-1.167-1.287,1.167,1.167,0,0,1,1.167-1.271,1.2,1.2,0,0,1,1.016.5v-.672a.733.733,0,0,0-.792-.823,1.227,1.227,0,0,0-.967.471l-.256-.408A1.77,1.77,0,0,1,83,140.7a1.137,1.137,0,0,1,1.279,1.254v2.7H83.7Zm0-1.127a.926.926,0,0,0-.832-.5.864.864,0,0,0,0,1.718.936.936,0,0,0,.832-.487Z" fill="#231f20"/>
      <path d="M86.987,140.7a1.32,1.32,0,0,1,1.1.511l-.312.392a.871.871,0,0,0-.744-.392c-.688,0-1.047.689-1.047,1.511s.359,1.52,1.047,1.52a.888.888,0,0,0,.744-.392l.312.392a1.3,1.3,0,0,1-1.1.511c-.991,0-1.6-.886-1.6-2.031S86,140.7,86.987,140.7Z" fill="#231f20"/>
      <path d="M91.179,141.9c0-.512-.24-.689-.624-.689a1.126,1.126,0,0,0-.9.617v2.83h-.568v-5.333h.568v2.022a1.446,1.446,0,0,1,1.127-.647c.656,0,.968.328.968,1.032v2.926h-.568Z" fill="#231f20"/>
      <path d="M97.019,144.238a1.21,1.21,0,0,1-1.015.511,1.185,1.185,0,0,1-1.167-1.287A1.167,1.167,0,0,1,96,142.191a1.2,1.2,0,0,1,1.015.5v-.672a.733.733,0,0,0-.792-.823,1.227,1.227,0,0,0-.967.471l-.255-.408a1.767,1.767,0,0,1,1.31-.559,1.136,1.136,0,0,1,1.279,1.254v2.7h-.575Zm0-1.127a.925.925,0,0,0-.832-.5.865.865,0,0,0,0,1.718.935.935,0,0,0,.832-.487Z" fill="#231f20"/>
      <path d="M100.987,141.9c0-.512-.231-.7-.615-.7a1.124,1.124,0,0,0-.9.617v2.83H98.9v-3.862h.569v.551a1.43,1.43,0,0,1,1.119-.647c.655,0,.975.352.975,1.047v2.911h-.576Z" fill="#231f20"/>
      <path d="M105.083,144.1a1.208,1.208,0,0,1-1.016.647c-.863,0-1.383-.806-1.383-2.022,0-1.2.512-2.031,1.383-2.031a1.164,1.164,0,0,1,1.016.655v-2.03h.576v5.333h-.576Zm0-2.263a1.034,1.034,0,0,0-.871-.632c-.632,0-.928.68-.928,1.52s.3,1.511.928,1.511a1.026,1.026,0,0,0,.871-.623Z" fill="#231f20"/>
      <path d="M112.85,141.855c0-.416-.168-.648-.536-.648a1.056,1.056,0,0,0-.839.617v2.83H110.9v-2.8c0-.416-.168-.648-.544-.648a1.08,1.08,0,0,0-.839.617v2.83h-.568v-3.862h.568v.551a1.337,1.337,0,0,1,1.055-.647.813.813,0,0,1,.872.688,1.328,1.328,0,0,1,1.087-.688c.568,0,.9.311.9,1.007v2.951h-.576Z" fill="#231f20"/>
      <path d="M116.723,144.238a1.21,1.21,0,0,1-1.015.511,1.185,1.185,0,0,1-1.167-1.287,1.167,1.167,0,0,1,1.167-1.271,1.2,1.2,0,0,1,1.015.5v-.672a.733.733,0,0,0-.792-.823,1.224,1.224,0,0,0-.966.471l-.256-.408a1.767,1.767,0,0,1,1.31-.559,1.137,1.137,0,0,1,1.28,1.254v2.7h-.576Zm0-1.127a.925.925,0,0,0-.832-.5.865.865,0,0,0,0,1.718.935.935,0,0,0,.832-.487Z" fill="#231f20"/>
      <path d="M118.492,139.752a.4.4,0,0,1,.392-.391.392.392,0,0,1,0,.783A.4.4,0,0,1,118.492,139.752Zm.111,1.04h.569v3.862H118.6Z" fill="#231f20"/>
      <path d="M120.483,139.321h.569v5.333h-.569Z" fill="#231f20"/>
      <path d="M124.452,143.878v-2.583h-.512v-.5h.512v-1.056h.575v1.056h.656v.5h-.656v2.48c0,.295.089.463.313.463a.433.433,0,0,0,.336-.153l.175.433a.829.829,0,0,1-.624.231C124.7,144.749,124.452,144.454,124.452,143.878Z" fill="#231f20"/>
      <path d="M128.795,141.9c0-.512-.241-.689-.624-.689a1.127,1.127,0,0,0-.9.617v2.83H126.7v-5.333h.568v2.022a1.446,1.446,0,0,1,1.127-.647c.657,0,.968.328.968,1.032v2.926h-.567Z" fill="#231f20"/>
      <path d="M130.564,139.752a.4.4,0,0,1,.392-.391.392.392,0,0,1,0,.783A.4.4,0,0,1,130.564,139.752Zm.112,1.04h.568v3.862h-.568Z" fill="#231f20"/>
      <path d="M132.532,143.8a1.332,1.332,0,0,0,1.007.488c.448,0,.744-.24.744-.608,0-.415-.384-.583-.808-.759-.527-.209-1.119-.44-1.119-1.183a1.1,1.1,0,0,1,1.232-1.04,1.542,1.542,0,0,1,1.174.5l-.271.391a1.113,1.113,0,0,0-.9-.424c-.423,0-.687.233-.687.544,0,.369.359.528.768.7.535.216,1.159.456,1.159,1.247a1.14,1.14,0,0,1-1.287,1.1,1.64,1.64,0,0,1-1.3-.543Z" fill="#231f20"/>
      <path d="M137.883,146.124v-5.332h.568v.551a1.2,1.2,0,0,1,1.016-.647c.871,0,1.382.807,1.382,2.022s-.511,2.031-1.382,2.031a1.171,1.171,0,0,1-1.016-.655v2.03Zm1.439-4.917a1.044,1.044,0,0,0-.871.624V143.6a1.062,1.062,0,0,0,.871.64c.632,0,.928-.68.928-1.52S139.954,141.207,139.322,141.207Z" fill="#231f20"/>
      <path d="M141.779,142.718c0-1.087.544-2.022,1.567-2.022,1.039,0,1.576.935,1.576,2.022s-.537,2.031-1.576,2.031C142.323,144.749,141.779,143.806,141.779,142.718Zm2.543,0c0-.775-.3-1.511-.976-1.511-.664,0-.967.736-.967,1.511s.3,1.52.967,1.52C144.026,144.238,144.322,143.5,144.322,142.718Z" fill="#231f20"/>
      <path d="M146.043,140.792h.568v.615a1.294,1.294,0,0,1,1.095-.7v.592a.743.743,0,0,0-.192-.024,1.156,1.156,0,0,0-.9.631v2.743h-.568Z" fill="#231f20"/>
      <path d="M148.739,143.878v-2.583h-.512v-.5h.512v-1.056h.575v1.056h.656v.5h-.656v2.48c0,.295.089.463.313.463a.433.433,0,0,0,.336-.153l.175.433a.829.829,0,0,1-.624.231C148.987,144.749,148.739,144.454,148.739,143.878Z" fill="#231f20"/>
      <path d="M150.875,139.752a.4.4,0,0,1,.391-.391.392.392,0,1,1,0,.783A.4.4,0,0,1,150.875,139.752Zm.111,1.04h.568v3.862h-.568Z" fill="#231f20"/>
      <path d="M152.675,142.718c0-1.087.544-2.022,1.567-2.022,1.039,0,1.575.935,1.575,2.022s-.536,2.031-1.575,2.031C153.219,144.749,152.675,143.806,152.675,142.718Zm2.542,0c0-.775-.3-1.511-.975-1.511-.664,0-.968.736-.968,1.511s.3,1.52.968,1.52C154.922,144.238,155.217,143.5,155.217,142.718Z" fill="#231f20"/>
      <path d="M159.025,141.9c0-.512-.231-.7-.615-.7a1.124,1.124,0,0,0-.9.617v2.83h-.569v-3.862h.569v.551a1.43,1.43,0,0,1,1.119-.647c.655,0,.975.352.975,1.047v2.911h-.576Z" fill="#231f20"/>
      <path d="M164.914,141.551l-.832,3.1H163.5l-1.032-3.862h.6l.752,3.086.816-3.086h.543l.824,3.086.759-3.086h.6l-1.031,3.862h-.592Z" fill="#231f20"/>
      <path d="M168.138,139.752a.4.4,0,0,1,.392-.391.392.392,0,1,1,0,.783A.4.4,0,0,1,168.138,139.752Zm.112,1.04h.568v3.862h-.568Z" fill="#231f20"/>
      <path d="M170.242,143.878v-2.583h-.512v-.5h.512v-1.056h.576v1.056h.655v.5h-.655v2.48c0,.295.088.463.312.463a.433.433,0,0,0,.336-.153l.175.433a.829.829,0,0,1-.624.231C170.49,144.749,170.242,144.454,170.242,143.878Z" fill="#231f20"/>
      <path d="M174.586,141.9c0-.512-.241-.689-.624-.689a1.127,1.127,0,0,0-.9.617v2.83h-.568v-5.333h.568v2.022a1.446,1.446,0,0,1,1.127-.647c.657,0,.968.328.968,1.032v2.926h-.567Z" fill="#231f20"/>
      <path d="M178.587,145.709c.223,0,.351-.089.455-.384l.208-.591-1.287-3.942h.624l.959,3.166.967-3.166h.616l-1.543,4.677a.93.93,0,0,1-.959.752,1.387,1.387,0,0,1-.384-.056l.088-.511A.626.626,0,0,0,178.587,145.709Z" fill="#231f20"/>
      <path d="M181.77,142.718c0-1.087.544-2.022,1.568-2.022,1.039,0,1.575.935,1.575,2.022s-.536,2.031-1.575,2.031C182.314,144.749,181.77,143.806,181.77,142.718Zm2.542,0c0-.775-.3-1.511-.974-1.511-.664,0-.968.736-.968,1.511s.3,1.52.968,1.52C184.017,144.238,184.312,143.5,184.312,142.718Z" fill="#231f20"/>
      <path d="M188.121,144.118a1.405,1.405,0,0,1-1.119.631c-.656,0-.968-.328-.968-1.031v-2.926h.568v2.758c0,.512.24.688.616.688a1.089,1.089,0,0,0,.9-.6v-2.846h.576v3.862h-.576Z" fill="#231f20"/>
      <path d="M190.01,140.792h.568v.615a1.294,1.294,0,0,1,1.095-.7v.592a.743.743,0,0,0-.192-.024,1.156,1.156,0,0,0-.9.631v2.743h-.568Z" fill="#231f20"/>
      <path d="M195.976,140.7a1.319,1.319,0,0,1,1.1.511l-.312.392a.871.871,0,0,0-.743-.392c-.688,0-1.048.689-1.048,1.511s.36,1.52,1.048,1.52a.888.888,0,0,0,.743-.392l.312.392a1.3,1.3,0,0,1-1.1.511c-.991,0-1.6-.886-1.6-2.031S194.985,140.7,195.976,140.7Z" fill="#231f20"/>
      <path d="M200.17,141.9c0-.512-.241-.689-.624-.689a1.127,1.127,0,0,0-.9.617v2.83h-.568v-5.333h.568v2.022a1.446,1.446,0,0,1,1.127-.647c.657,0,.968.328.968,1.032v2.926h-.567Z" fill="#231f20"/>
      <path d="M203.426,140.7c1.014,0,1.526.911,1.526,2.039v.175h-2.5c.023.777.424,1.36,1.111,1.36a1.188,1.188,0,0,0,.919-.472l.305.336a1.608,1.608,0,0,1-1.272.615c-1.031,0-1.655-.847-1.655-2.031C201.858,141.6,202.45,140.7,203.426,140.7Zm-.976,1.791h1.935c-.008-.591-.264-1.312-.968-1.312C202.738,141.175,202.466,141.919,202.45,142.487Z" fill="#231f20"/>
      <path d="M207.457,140.7a1.317,1.317,0,0,1,1.1.511l-.311.392a.871.871,0,0,0-.743-.392c-.689,0-1.048.689-1.048,1.511s.359,1.52,1.048,1.52a.888.888,0,0,0,.743-.392l.311.392a1.3,1.3,0,0,1-1.1.511c-.991,0-1.6-.886-1.6-2.031S206.466,140.7,207.457,140.7Z" fill="#231f20"/>
      <path d="M210.665,142.91l-.543.7v1.047h-.569v-5.333h.569v3.565l1.606-2.094h.68l-1.351,1.735,1.351,2.127h-.68Z" fill="#231f20"/>
      <path d="M219.191,141.855c0-.416-.168-.648-.536-.648a1.056,1.056,0,0,0-.839.617v2.83h-.576v-2.8c0-.416-.168-.648-.544-.648a1.08,1.08,0,0,0-.839.617v2.83h-.568v-3.862h.568v.551a1.336,1.336,0,0,1,1.055-.647.813.813,0,0,1,.872.688,1.328,1.328,0,0,1,1.087-.688c.568,0,.895.311.895,1.007v2.951h-.575Z" fill="#231f20"/>
      <path d="M223.064,144.238a1.21,1.21,0,0,1-1.015.511,1.185,1.185,0,0,1-1.167-1.287,1.167,1.167,0,0,1,1.167-1.271,1.2,1.2,0,0,1,1.015.5v-.672a.733.733,0,0,0-.792-.823,1.227,1.227,0,0,0-.967.471l-.255-.408a1.767,1.767,0,0,1,1.31-.559,1.136,1.136,0,0,1,1.279,1.254v2.7h-.575Zm0-1.127a.926.926,0,0,0-.832-.5.865.865,0,0,0,0,1.718.936.936,0,0,0,.832-.487Z" fill="#231f20"/>
      <path d="M227.152,144.1a1.206,1.206,0,0,1-1.016.647c-.863,0-1.382-.806-1.382-2.022,0-1.2.511-2.031,1.382-2.031a1.161,1.161,0,0,1,1.016.655v-2.03h.576v5.333h-.576Zm0-2.263a1.032,1.032,0,0,0-.871-.632c-.632,0-.928.68-.928,1.52s.3,1.511.928,1.511a1.024,1.024,0,0,0,.871-.623Z" fill="#231f20"/>
      <path d="M230.417,140.7c1.014,0,1.526.911,1.526,2.039v.175h-2.5c.024.777.424,1.36,1.111,1.36a1.188,1.188,0,0,0,.919-.472l.3.336a1.6,1.6,0,0,1-1.27.615c-1.033,0-1.656-.847-1.656-2.031C228.849,141.6,229.441,140.7,230.417,140.7Zm-.976,1.791h1.935c-.008-.591-.264-1.312-.968-1.312C229.728,141.175,229.457,141.919,229.441,142.487Z" fill="#231f20"/>
      <path d="M235.016,146.124v-5.332h.569v.551a1.2,1.2,0,0,1,1.014-.647c.872,0,1.384.807,1.384,2.022s-.512,2.031-1.384,2.031a1.17,1.17,0,0,1-1.014-.655v2.03Zm1.44-4.917a1.043,1.043,0,0,0-.871.624V143.6a1.061,1.061,0,0,0,.871.64c.632,0,.928-.68.928-1.52S237.088,141.207,236.456,141.207Z" fill="#231f20"/>
      <path d="M241.088,144.238a1.21,1.21,0,0,1-1.016.511,1.185,1.185,0,0,1-1.167-1.287,1.167,1.167,0,0,1,1.167-1.271,1.205,1.205,0,0,1,1.016.5v-.672a.733.733,0,0,0-.792-.823,1.226,1.226,0,0,0-.967.471l-.256-.408a1.768,1.768,0,0,1,1.311-.559,1.137,1.137,0,0,1,1.279,1.254v2.7h-.575Zm0-1.127a.926.926,0,0,0-.832-.5.864.864,0,0,0,0,1.718.936.936,0,0,0,.832-.487Z" fill="#231f20"/>
      <path d="M243.113,145.709c.224,0,.352-.089.455-.384l.208-.591-1.287-3.942h.624l.959,3.166.968-3.166h.615l-1.543,4.677a.929.929,0,0,1-.959.752,1.387,1.387,0,0,1-.384-.056l.088-.511A.629.629,0,0,0,243.113,145.709Z" fill="#231f20"/>
      <path d="M248.472,144.238a1.21,1.21,0,0,1-1.015.511,1.185,1.185,0,0,1-1.167-1.287,1.167,1.167,0,0,1,1.167-1.271,1.2,1.2,0,0,1,1.015.5v-.672a.733.733,0,0,0-.792-.823,1.226,1.226,0,0,0-.966.471l-.256-.408a1.767,1.767,0,0,1,1.31-.559,1.137,1.137,0,0,1,1.28,1.254v2.7h-.576Zm0-1.127a.925.925,0,0,0-.832-.5.865.865,0,0,0,0,1.718.935.935,0,0,0,.832-.487Z" fill="#231f20"/>
      <path d="M250.352,139.321h.569v2.03a1.17,1.17,0,0,1,1.014-.655c.872,0,1.384.831,1.384,2.031,0,1.216-.512,2.022-1.384,2.022a1.2,1.2,0,0,1-1.014-.647v.552h-.569Zm1.44,4.917c.632,0,.927-.68.927-1.511s-.295-1.52-.927-1.52a1.061,1.061,0,0,0-.871.64v1.768A1.044,1.044,0,0,0,251.792,144.238Z" fill="#231f20"/>
      <path d="M254.448,139.321h.568v5.333h-.568Z" fill="#231f20"/>
      <path d="M257.7,140.7c1.015,0,1.526.911,1.526,2.039v.175h-2.5c.024.777.424,1.36,1.112,1.36a1.189,1.189,0,0,0,.919-.472l.3.336a1.6,1.6,0,0,1-1.27.615c-1.032,0-1.656-.847-1.656-2.031C256.136,141.6,256.728,140.7,257.7,140.7Zm-.976,1.791h1.935c-.008-.591-.264-1.312-.968-1.312C257.015,141.175,256.744,141.919,256.728,142.487Z" fill="#231f20"/>
      <path d="M262.417,143.878v-2.583H261.9v-.5h.512v-1.056h.575v1.056h.656v.5h-.656v2.48c0,.295.089.463.312.463a.429.429,0,0,0,.336-.153l.176.433a.83.83,0,0,1-.624.231C262.665,144.749,262.417,144.454,262.417,143.878Z" fill="#231f20"/>
      <path d="M264.472,142.718c0-1.087.544-2.022,1.568-2.022s1.575.935,1.575,2.022-.536,2.031-1.575,2.031S264.472,143.806,264.472,142.718Zm2.543,0c0-.775-.3-1.511-.975-1.511s-.968.736-.968,1.511.3,1.52.968,1.52S267.015,143.5,267.015,142.718Z" fill="#231f20"/>
      <path d="M270.56,141.991c0-1.6.8-2.758,2.055-2.758a1.708,1.708,0,0,1,1.575,1.039l-.527.248a1.162,1.162,0,0,0-1.048-.72c-.848,0-1.4.928-1.4,2.191s.551,2.191,1.4,2.191a1.165,1.165,0,0,0,1.056-.792l.535.248a1.722,1.722,0,0,1-1.591,1.111C271.36,144.749,270.56,143.582,270.56,141.991Z" fill="#231f20"/>
      <path d="M275.041,142.718c0-1.087.544-2.022,1.567-2.022,1.039,0,1.575.935,1.575,2.022s-.536,2.031-1.575,2.031C275.585,144.749,275.041,143.806,275.041,142.718Zm2.543,0c0-.775-.3-1.511-.976-1.511-.664,0-.968.736-.968,1.511s.3,1.52.968,1.52C277.288,144.238,277.584,143.5,277.584,142.718Z" fill="#231f20"/>
      <path d="M281.39,141.9c0-.512-.231-.7-.615-.7a1.126,1.126,0,0,0-.9.617v2.83H279.3v-3.862h.569v.551a1.43,1.43,0,0,1,1.119-.647c.655,0,.976.352.976,1.047v2.911h-.577Z" fill="#231f20"/>
      <path d="M283.257,143.8a1.329,1.329,0,0,0,1.006.488c.449,0,.745-.24.745-.608,0-.415-.384-.583-.808-.759-.527-.209-1.119-.44-1.119-1.183a1.094,1.094,0,0,1,1.231-1.04,1.543,1.543,0,0,1,1.175.5l-.271.391a1.114,1.114,0,0,0-.9-.424c-.424,0-.687.233-.687.544,0,.369.359.528.767.7.535.216,1.159.456,1.159,1.247a1.14,1.14,0,0,1-1.287,1.1,1.638,1.638,0,0,1-1.3-.543Z" fill="#231f20"/>
      <path d="M288.719,144.118a1.406,1.406,0,0,1-1.12.631c-.655,0-.967-.328-.967-1.031v-2.926h.568v2.758c0,.512.239.688.615.688a1.089,1.089,0,0,0,.9-.6v-2.846h.576v3.862h-.576Z" fill="#231f20"/>
      <path d="M294.511,141.855c0-.416-.168-.648-.536-.648a1.055,1.055,0,0,0-.839.617v2.83h-.576v-2.8c0-.416-.168-.648-.544-.648a1.079,1.079,0,0,0-.839.617v2.83h-.569v-3.862h.569v.551a1.336,1.336,0,0,1,1.055-.647.814.814,0,0,1,.872.688,1.326,1.326,0,0,1,1.087-.688c.568,0,.9.311.9,1.007v2.951h-.575Z" fill="#231f20"/>
      <path d="M297.776,140.7c1.014,0,1.526.911,1.526,2.039v.175h-2.5c.023.777.424,1.36,1.111,1.36a1.188,1.188,0,0,0,.919-.472l.305.336a1.606,1.606,0,0,1-1.271.615c-1.032,0-1.656-.847-1.656-2.031C296.208,141.6,296.8,140.7,297.776,140.7Zm-.976,1.791h1.935c-.008-.591-.264-1.312-.968-1.312C297.088,141.175,296.816,141.919,296.8,142.487Z" fill="#231f20"/>
      <path d="M300.4,140.792h.568v.615a1.293,1.293,0,0,1,1.095-.7v.592a.743.743,0,0,0-.192-.024,1.156,1.156,0,0,0-.9.631v2.743H300.4Z" fill="#231f20"/>
      <path d="M302.96,143.8a1.332,1.332,0,0,0,1.007.488c.448,0,.744-.24.744-.608,0-.415-.384-.583-.807-.759-.528-.209-1.12-.44-1.12-1.183a1.1,1.1,0,0,1,1.232-1.04,1.545,1.545,0,0,1,1.175.5l-.272.391a1.111,1.111,0,0,0-.895-.424c-.424,0-.688.233-.688.544,0,.369.36.528.768.7.535.216,1.159.456,1.159,1.247a1.14,1.14,0,0,1-1.287,1.1,1.64,1.64,0,0,1-1.3-.543Z" fill="#231f20"/>
      <path d="M308.344,139.321h2.742v.559h-2.1v1.768h2.047v.558h-2.047v1.879h2.1v.569h-2.742Z" fill="#231f20"/>
      <path d="M314.343,141.9c0-.512-.231-.7-.615-.7a1.127,1.127,0,0,0-.9.617v2.83h-.568v-3.862h.568v.551a1.433,1.433,0,0,1,1.12-.647c.655,0,.975.352.975,1.047v2.911h-.576Z" fill="#231f20"/>
      <path d="M317.608,140.7c1.014,0,1.526.911,1.526,2.039v.175h-2.5c.024.777.424,1.36,1.111,1.36a1.188,1.188,0,0,0,.919-.472l.305.336a1.606,1.606,0,0,1-1.271.615c-1.032,0-1.656-.847-1.656-2.031C316.04,141.6,316.632,140.7,317.608,140.7Zm-.976,1.791h1.935c-.008-.591-.264-1.312-.968-1.312C316.92,141.175,316.648,141.919,316.632,142.487Z" fill="#231f20"/>
      <path d="M320.232,140.792h.568v.615a1.293,1.293,0,0,1,1.095-.7v.592a.743.743,0,0,0-.192-.024,1.156,1.156,0,0,0-.9.631v2.743h-.568Z" fill="#231f20"/>
      <path d="M323.048,145.285a1.259,1.259,0,0,0,1.007.449.923.923,0,0,0,.968-1.048v-.648a1.223,1.223,0,0,1-1.016.663c-.863,0-1.383-.783-1.383-2,0-1.2.512-2.006,1.383-2.006a1.173,1.173,0,0,1,1.016.655v-.559h.576v3.854a1.4,1.4,0,0,1-1.527,1.575,1.666,1.666,0,0,1-1.288-.487Zm1.975-3.446a1.034,1.034,0,0,0-.871-.632c-.632,0-.928.664-.928,1.5s.3,1.488.928,1.488a1.042,1.042,0,0,0,.871-.64Z" fill="#231f20"/>
      <path d="M327.048,145.709c.224,0,.352-.089.455-.384l.208-.591-1.287-3.942h.624l.959,3.166.968-3.166h.615l-1.543,4.677a.929.929,0,0,1-.959.752,1.387,1.387,0,0,1-.384-.056l.088-.511A.633.633,0,0,0,327.048,145.709Z" fill="#231f20"/>
      <path d="M330.407,143.878a.428.428,0,1,1,0,.856.428.428,0,0,1,0-.856Z" fill="#231f20"/>
      <path d="M334.112,139.321h1.623a1.6,1.6,0,0,1,0,3.2h-.984v2.135h-.639Zm1.559.559h-.92v2.079h.92c.552,0,.879-.432.879-1.04S336.223,139.88,335.671,139.88Z" fill="#231f20"/>
      <path d="M338.232,139.321h.568v5.333h-.568Z" fill="#231f20"/>
      <path d="M341.488,140.7c1.014,0,1.526.911,1.526,2.039v.175h-2.5c.023.777.424,1.36,1.111,1.36a1.188,1.188,0,0,0,.919-.472l.3.336a1.6,1.6,0,0,1-1.271.615c-1.032,0-1.655-.847-1.655-2.031C339.92,141.6,340.512,140.7,341.488,140.7Zm-.976,1.791h1.935c-.008-.591-.264-1.312-.968-1.312C340.8,141.175,340.528,141.919,340.512,142.487Z" fill="#231f20"/>
      <path d="M346.1,144.238a1.21,1.21,0,0,1-1.016.511,1.185,1.185,0,0,1-1.167-1.287,1.168,1.168,0,0,1,1.167-1.271,1.2,1.2,0,0,1,1.016.5v-.672a.733.733,0,0,0-.792-.823,1.227,1.227,0,0,0-.967.471l-.256-.408a1.771,1.771,0,0,1,1.311-.559,1.137,1.137,0,0,1,1.279,1.254v2.7H346.1Zm0-1.127a.926.926,0,0,0-.832-.5.864.864,0,0,0,0,1.718.936.936,0,0,0,.832-.487Z" fill="#231f20"/>
      <path d="M347.951,143.8a1.332,1.332,0,0,0,1.007.488c.448,0,.744-.24.744-.608,0-.415-.383-.583-.807-.759-.528-.209-1.119-.44-1.119-1.183a1.094,1.094,0,0,1,1.231-1.04,1.545,1.545,0,0,1,1.175.5l-.272.391a1.111,1.111,0,0,0-.9-.424c-.424,0-.688.233-.688.544,0,.369.36.528.768.7.535.216,1.159.456,1.159,1.247a1.14,1.14,0,0,1-1.287,1.1,1.641,1.641,0,0,1-1.3-.543Z" fill="#231f20"/>
      <path d="M352.7,140.7c1.015,0,1.527.911,1.527,2.039v.175h-2.5c.023.777.424,1.36,1.111,1.36a1.188,1.188,0,0,0,.919-.472l.305.336a1.608,1.608,0,0,1-1.272.615c-1.031,0-1.655-.847-1.655-2.031C351.136,141.6,351.728,140.7,352.7,140.7Zm-.975,1.791h1.934c-.007-.591-.263-1.312-.967-1.312C352.016,141.175,351.743,141.919,351.728,142.487Z" fill="#231f20"/>
      <path d="M359.326,141.551l-.832,3.1h-.583l-1.032-3.862h.6l.752,3.086.815-3.086h.544l.823,3.086.76-3.086h.6l-1.032,3.862h-.591Z" fill="#231f20"/>
      <path d="M362.662,140.792h.569v.615a1.294,1.294,0,0,1,1.094-.7v.592a.73.73,0,0,0-.191-.024,1.155,1.155,0,0,0-.9.631v2.743h-.569Z" fill="#231f20"/>
      <path d="M365.135,139.752a.4.4,0,0,1,.392-.391.392.392,0,0,1,0,.783A.4.4,0,0,1,365.135,139.752Zm.111,1.04h.569v3.862h-.569Z" fill="#231f20"/>
      <path d="M367.239,143.878v-2.583h-.512v-.5h.512v-1.056h.576v1.056h.655v.5h-.655v2.48c0,.295.088.463.311.463a.429.429,0,0,0,.336-.153l.176.433a.83.83,0,0,1-.624.231C367.487,144.749,367.239,144.454,367.239,143.878Z" fill="#231f20"/>
      <path d="M370.863,140.7c1.014,0,1.526.911,1.526,2.039v.175h-2.5c.023.777.424,1.36,1.111,1.36a1.188,1.188,0,0,0,.919-.472l.3.336a1.6,1.6,0,0,1-1.271.615c-1.032,0-1.655-.847-1.655-2.031C369.3,141.6,369.887,140.7,370.863,140.7Zm-.976,1.791h1.935c-.008-.591-.264-1.312-.968-1.312C370.174,141.175,369.9,141.919,369.887,142.487Z" fill="#231f20"/>
      <path d="M375.607,145.709c.223,0,.351-.089.455-.384l.208-.591-1.287-3.942h.624l.959,3.166.967-3.166h.616l-1.543,4.677a.93.93,0,0,1-.959.752,1.387,1.387,0,0,1-.384-.056l.088-.511A.626.626,0,0,0,375.607,145.709Z" fill="#231f20"/>
      <path d="M378.791,142.718c0-1.087.544-2.022,1.568-2.022,1.039,0,1.575.935,1.575,2.022s-.536,2.031-1.575,2.031C379.335,144.749,378.791,143.806,378.791,142.718Zm2.543,0c0-.775-.3-1.511-.975-1.511-.664,0-.968.736-.968,1.511s.3,1.52.968,1.52C381.038,144.238,381.334,143.5,381.334,142.718Z" fill="#231f20"/>
      <path d="M385.141,144.118a1.405,1.405,0,0,1-1.119.631c-.656,0-.968-.328-.968-1.031v-2.926h.568v2.758c0,.512.24.688.616.688a1.089,1.089,0,0,0,.9-.6v-2.846h.576v3.862h-.576Z" fill="#231f20"/>
      <path d="M387.031,140.792h.568v.615a1.293,1.293,0,0,1,1.1-.7v.592a.743.743,0,0,0-.192-.024,1.156,1.156,0,0,0-.9.631v2.743h-.568Z" fill="#231f20"/>
      <path d="M393.573,144.238a1.21,1.21,0,0,1-1.015.511,1.185,1.185,0,0,1-1.167-1.287,1.167,1.167,0,0,1,1.167-1.271,1.2,1.2,0,0,1,1.015.5v-.672a.733.733,0,0,0-.792-.823,1.226,1.226,0,0,0-.966.471l-.256-.408a1.767,1.767,0,0,1,1.31-.559,1.137,1.137,0,0,1,1.28,1.254v2.7h-.576Zm0-1.127a.925.925,0,0,0-.832-.5.865.865,0,0,0,0,1.718.935.935,0,0,0,.832-.487Z" fill="#231f20"/>
      <path d="M396.861,140.7a1.317,1.317,0,0,1,1.1.511l-.311.392a.873.873,0,0,0-.745-.392c-.687,0-1.046.689-1.046,1.511s.359,1.52,1.046,1.52a.89.89,0,0,0,.745-.392l.311.392a1.3,1.3,0,0,1-1.1.511c-.992,0-1.6-.886-1.6-2.031S395.869,140.7,396.861,140.7Z" fill="#231f20"/>
      <path d="M400.365,140.7a1.318,1.318,0,0,1,1.1.511l-.312.392a.871.871,0,0,0-.743-.392c-.688,0-1.048.689-1.048,1.511s.36,1.52,1.048,1.52a.888.888,0,0,0,.743-.392l.312.392a1.3,1.3,0,0,1-1.1.511c-.991,0-1.6-.886-1.6-2.031S399.374,140.7,400.365,140.7Z" fill="#231f20"/>
      <path d="M402.271,142.718c0-1.087.544-2.022,1.567-2.022,1.039,0,1.575.935,1.575,2.022s-.536,2.031-1.575,2.031C402.815,144.749,402.271,143.806,402.271,142.718Zm2.542,0c0-.775-.3-1.511-.975-1.511-.664,0-.968.736-.968,1.511s.3,1.52.968,1.52C404.518,144.238,404.813,143.5,404.813,142.718Z" fill="#231f20"/>
      <path d="M408.62,144.118a1.4,1.4,0,0,1-1.119.631c-.655,0-.968-.328-.968-1.031v-2.926h.569v2.758c0,.512.239.688.615.688a1.087,1.087,0,0,0,.9-.6v-2.846h.577v3.862h-.577Z" fill="#231f20"/>
      <path d="M412.6,141.9c0-.512-.232-.7-.615-.7a1.127,1.127,0,0,0-.9.617v2.83h-.568v-3.862h.568v.551a1.433,1.433,0,0,1,1.12-.647c.655,0,.975.352.975,1.047v2.911H412.6Z" fill="#231f20"/>
      <path d="M414.6,143.878v-2.583h-.512v-.5h.512v-1.056h.576v1.056h.655v.5h-.655v2.48c0,.295.088.463.312.463a.433.433,0,0,0,.336-.153l.175.433a.829.829,0,0,1-.624.231C414.846,144.749,414.6,144.454,414.6,143.878Z" fill="#231f20"/>
      <path d="M420.908,141.9c0-.512-.231-.7-.615-.7a1.126,1.126,0,0,0-.9.617v2.83h-.568v-3.862h.568v.551a1.431,1.431,0,0,1,1.119-.647c.655,0,.976.352.976,1.047v2.911h-.577Z" fill="#231f20"/>
      <path d="M424.884,144.118a1.4,1.4,0,0,1-1.119.631c-.655,0-.968-.328-.968-1.031v-2.926h.568v2.758c0,.512.24.688.616.688a1.087,1.087,0,0,0,.9-.6v-2.846h.576v3.862h-.576Z" fill="#231f20"/>
      <path d="M430.676,141.855c0-.416-.168-.648-.536-.648a1.055,1.055,0,0,0-.839.617v2.83h-.576v-2.8c0-.416-.168-.648-.544-.648a1.08,1.08,0,0,0-.839.617v2.83h-.568v-3.862h.568v.551a1.336,1.336,0,0,1,1.055-.647.813.813,0,0,1,.872.688,1.328,1.328,0,0,1,1.087-.688c.568,0,.895.311.895,1.007v2.951h-.575Z" fill="#231f20"/>
      <path d="M432.566,139.321h.568v2.03a1.17,1.17,0,0,1,1.015-.655c.872,0,1.383.831,1.383,2.031,0,1.216-.511,2.022-1.383,2.022a1.206,1.206,0,0,1-1.015-.647v.552h-.568Zm1.439,4.917c.632,0,.928-.68.928-1.511s-.3-1.52-.928-1.52a1.062,1.062,0,0,0-.871.64v1.768A1.045,1.045,0,0,0,434.005,144.238Z" fill="#231f20"/>
      <path d="M438.037,140.7c1.015,0,1.527.911,1.527,2.039v.175h-2.5c.023.777.424,1.36,1.111,1.36a1.188,1.188,0,0,0,.919-.472l.305.336a1.608,1.608,0,0,1-1.272.615c-1.031,0-1.655-.847-1.655-2.031C436.47,141.6,437.062,140.7,438.037,140.7Zm-.975,1.791H439c-.007-.591-.263-1.312-.967-1.312C437.35,141.175,437.077,141.919,437.062,142.487Z" fill="#231f20"/>
      <path d="M440.661,140.792h.569v.615a1.292,1.292,0,0,1,1.094-.7v.592a.73.73,0,0,0-.191-.024,1.155,1.155,0,0,0-.9.631v2.743h-.569Z" fill="#231f20"/>
      <path d="M445.03,142.718c0-1.087.543-2.022,1.567-2.022,1.039,0,1.575.935,1.575,2.022s-.536,2.031-1.575,2.031C445.573,144.749,445.03,143.806,445.03,142.718Zm2.543,0c0-.775-.3-1.511-.976-1.511-.664,0-.968.736-.968,1.511s.3,1.52.968,1.52C447.277,144.238,447.573,143.5,447.573,142.718Z" fill="#231f20"/>
      <path d="M451.38,141.9c0-.512-.231-.7-.615-.7a1.124,1.124,0,0,0-.9.617v2.83h-.569v-3.862h.569v.551a1.43,1.43,0,0,1,1.119-.647c.655,0,.975.352.975,1.047v2.911h-.576Z" fill="#231f20"/>
      <path d="M455.389,145.709c.224,0,.351-.089.455-.384l.208-.591-1.287-3.942h.624l.959,3.166.968-3.166h.615l-1.543,4.677a.929.929,0,0,1-.959.752,1.387,1.387,0,0,1-.384-.056l.088-.511A.626.626,0,0,0,455.389,145.709Z" fill="#231f20"/>
      <path d="M458.573,142.718c0-1.087.544-2.022,1.568-2.022s1.575.935,1.575,2.022-.536,2.031-1.575,2.031S458.573,143.806,458.573,142.718Zm2.542,0c0-.775-.294-1.511-.974-1.511-.664,0-.968.736-.968,1.511s.3,1.52.968,1.52C460.821,144.238,461.115,143.5,461.115,142.718Z" fill="#231f20"/>
      <path d="M464.923,144.118a1.4,1.4,0,0,1-1.119.631c-.655,0-.968-.328-.968-1.031v-2.926h.569v2.758c0,.512.239.688.615.688a1.087,1.087,0,0,0,.9-.6v-2.846h.576v3.862h-.576Z" fill="#231f20"/>
      <path d="M466.813,140.792h.568v.615a1.294,1.294,0,0,1,1.1-.7v.592a.743.743,0,0,0-.192-.024,1.156,1.156,0,0,0-.9.631v2.743h-.568Z" fill="#231f20"/>
      <path d="M472.78,140.7a1.317,1.317,0,0,1,1.1.511l-.311.392a.873.873,0,0,0-.744-.392c-.688,0-1.047.689-1.047,1.511s.359,1.52,1.047,1.52a.89.89,0,0,0,.744-.392l.311.392a1.3,1.3,0,0,1-1.1.511c-.992,0-1.6-.886-1.6-2.031S471.788,140.7,472.78,140.7Z" fill="#231f20"/>
      <path d="M476.971,141.9c0-.512-.239-.689-.623-.689a1.124,1.124,0,0,0-.9.617v2.83h-.569v-5.333h.569v2.022a1.445,1.445,0,0,1,1.127-.647c.655,0,.967.328.967,1.032v2.926h-.568Z" fill="#231f20"/>
      <path d="M480.229,140.7c1.014,0,1.526.911,1.526,2.039v.175h-2.5c.024.777.424,1.36,1.112,1.36a1.188,1.188,0,0,0,.918-.472l.305.336a1.606,1.606,0,0,1-1.271.615c-1.032,0-1.656-.847-1.656-2.031C478.661,141.6,479.253,140.7,480.229,140.7Zm-.976,1.791h1.935c-.008-.591-.264-1.312-.968-1.312C479.541,141.175,479.269,141.919,479.253,142.487Z" fill="#231f20"/>
      <path d="M484.259,140.7a1.32,1.32,0,0,1,1.1.511l-.312.392a.871.871,0,0,0-.744-.392c-.688,0-1.047.689-1.047,1.511s.359,1.52,1.047,1.52a.888.888,0,0,0,.744-.392l.312.392a1.3,1.3,0,0,1-1.1.511c-.991,0-1.6-.886-1.6-2.031S483.268,140.7,484.259,140.7Z" fill="#231f20"/>
      <path d="M487.468,142.91l-.543.7v1.047h-.568v-5.333h.568v3.565l1.606-2.094h.68l-1.35,1.735,1.35,2.127h-.68Z" fill="#231f20"/>
      <path d="M490.5,143.878a.428.428,0,1,1,0,.856.428.428,0,0,1,0-.856Z" fill="#231f20"/>
    </g>
    <g>
      <path d="M171.919,154.731l-2.314-3.548h1.458l1.5,2.413,1.477-2.413h1.458l-2.3,3.548v2.458h-1.278Z" fill="#0b79bf"/>
      <path d="M174.807,155.009a2.3,2.3,0,1,1,2.3,2.287A2.2,2.2,0,0,1,174.807,155.009Zm3.412,0a1.121,1.121,0,1,0-1.116,1.27A1.147,1.147,0,0,0,178.219,155.009Z" fill="#0b79bf"/>
      <path d="M183.367,156.639a2.035,2.035,0,0,1-1.53.657,1.245,1.245,0,0,1-1.405-1.368V152.84h1.144v2.638a.7.7,0,0,0,.8.8,1.28,1.28,0,0,0,.99-.5V152.84h1.143v4.349h-1.143Z" fill="#0b79bf"/>
      <path d="M190.333,152.732a2.02,2.02,0,0,1,1.719.783l-.747.7a1.053,1.053,0,0,0-.919-.469,1.268,1.268,0,0,0,0,2.53,1.1,1.1,0,0,0,.919-.468l.747.693a2,2,0,0,1-1.719.792,2.282,2.282,0,1,1,0-4.564Z" fill="#0b79bf"/>
      <path d="M195.589,156.738a1.8,1.8,0,0,1-1.377.558,1.449,1.449,0,0,1-1.513-1.44,1.377,1.377,0,0,1,1.513-1.386,1.757,1.757,0,0,1,1.377.531v-.6c0-.442-.378-.73-.954-.73a1.831,1.831,0,0,0-1.27.513l-.432-.765a2.859,2.859,0,0,1,1.9-.684c.99,0,1.9.4,1.9,1.648v2.809h-1.143Zm0-1.134a1.143,1.143,0,0,0-.918-.378c-.451,0-.82.234-.82.657,0,.405.369.64.82.64a1.144,1.144,0,0,0,.918-.379Z" fill="#0b79bf"/>
      <path d="M200.98,154.56a.706.706,0,0,0-.8-.811,1.236,1.236,0,0,0-.99.514v2.926h-1.143V152.84h1.143v.567a1.991,1.991,0,0,1,1.522-.675,1.265,1.265,0,0,1,1.413,1.386v3.071H200.98Z" fill="#0b79bf"/>
      <path d="M205.921,158.845v-6h1.143v.549a1.679,1.679,0,0,1,1.341-.657c1.116,0,1.927.828,1.927,2.277s-.811,2.287-1.927,2.287a1.661,1.661,0,0,1-1.341-.666v2.215Zm2.124-5.1a1.28,1.28,0,0,0-.981.5v1.54a1.309,1.309,0,0,0,.981.5,1.278,1.278,0,0,0,0-2.53Z" fill="#0b79bf"/>
      <path d="M213.975,156.738a1.8,1.8,0,0,1-1.377.558,1.449,1.449,0,0,1-1.512-1.44,1.377,1.377,0,0,1,1.512-1.386,1.755,1.755,0,0,1,1.377.531v-.6c0-.442-.378-.73-.954-.73a1.829,1.829,0,0,0-1.269.513l-.432-.765a2.857,2.857,0,0,1,1.9-.684c.991,0,1.9.4,1.9,1.648v2.809h-1.144Zm0-1.134a1.14,1.14,0,0,0-.918-.378c-.45,0-.819.234-.819.657,0,.405.369.64.819.64a1.141,1.141,0,0,0,.918-.379Z" fill="#0b79bf"/>
      <path d="M216.81,157.935a.577.577,0,0,0,.6-.315l.162-.369-1.765-4.411h1.224l1.135,3.025,1.134-3.025h1.234l-2.044,5.06a1.579,1.579,0,0,1-1.648,1.052,3.233,3.233,0,0,1-.567-.062l.171-1.026A1.012,1.012,0,0,0,216.81,157.935Z" fill="#0b79bf"/>
      <path d="M224.091,157.935a.576.576,0,0,0,.6-.315l.162-.369-1.764-4.411h1.223l1.135,3.025,1.135-3.025h1.233l-2.044,5.06a1.579,1.579,0,0,1-1.647,1.052,3.234,3.234,0,0,1-.568-.062l.171-1.026A1.013,1.013,0,0,0,224.091,157.935Z" fill="#0b79bf"/>
      <path d="M228.23,155.009a2.3,2.3,0,1,1,2.3,2.287A2.2,2.2,0,0,1,228.23,155.009Zm3.412,0a1.121,1.121,0,1,0-1.116,1.27A1.147,1.147,0,0,0,231.642,155.009Z" fill="#0b79bf"/>
      <path d="M236.79,156.639a2.036,2.036,0,0,1-1.53.657,1.245,1.245,0,0,1-1.405-1.368V152.84H235v2.638a.7.7,0,0,0,.8.8,1.28,1.28,0,0,0,.99-.5V152.84h1.143v4.349H236.79Z" fill="#0b79bf"/>
      <path d="M239.247,152.84h1.143v.595a1.857,1.857,0,0,1,1.386-.694v1.116a1.413,1.413,0,0,0-1.386.459v2.873h-1.143Z" fill="#0b79bf"/>
      <path d="M245.15,151.183h1.144V153.4a1.67,1.67,0,0,1,1.341-.666c1.107,0,1.926.864,1.926,2.287,0,1.449-.828,2.277-1.926,2.277a1.685,1.685,0,0,1-1.341-.666v.559H245.15Zm2.124,5.1a1.276,1.276,0,0,0,0-2.53,1.258,1.258,0,0,0-.98.5v1.539A1.266,1.266,0,0,0,247.274,156.279Z" fill="#0b79bf"/>
      <path d="M250.487,151.517a.69.69,0,0,1,.685-.685.684.684,0,1,1-.685.685Zm.117,1.323h1.144v4.349H250.6Z" fill="#0b79bf"/>
      <path d="M253.061,151.183h1.144v6.006h-1.144Z" fill="#0b79bf"/>
      <path d="M255.518,151.183h1.144v6.006h-1.144Z" fill="#0b79bf"/>
      <path d="M260.459,151.183H261.6V153.4a1.671,1.671,0,0,1,1.341-.666c1.108,0,1.927.864,1.927,2.287,0,1.449-.828,2.277-1.927,2.277a1.687,1.687,0,0,1-1.341-.666v.559h-1.143Zm2.124,5.1a1.276,1.276,0,0,0,0-2.53,1.261,1.261,0,0,0-.981.5v1.539A1.27,1.27,0,0,0,262.583,156.279Z" fill="#0b79bf"/>
      <path d="M266.291,157.935a.575.575,0,0,0,.6-.315l.162-.369-1.764-4.411h1.223l1.135,3.025,1.135-3.025h1.233l-2.044,5.06a1.579,1.579,0,0,1-1.647,1.052,3.212,3.212,0,0,1-.567-.062l.17-1.026A1.013,1.013,0,0,0,266.291,157.935Z" fill="#0b79bf"/>
      <path d="M278.587,154.443c0-.406-.181-.694-.649-.694a1.154,1.154,0,0,0-.9.5v2.936h-1.153v-2.746c0-.406-.179-.694-.648-.694a1.164,1.164,0,0,0-.9.514v2.926h-1.144V152.84h1.144v.567a1.9,1.9,0,0,1,1.422-.675,1.15,1.15,0,0,1,1.206.793,1.846,1.846,0,0,1,1.5-.793,1.161,1.161,0,0,1,1.278,1.314v3.143h-1.152Z" fill="#0b79bf"/>
      <path d="M283.652,156.738a1.8,1.8,0,0,1-1.377.558,1.45,1.45,0,0,1-1.513-1.44,1.377,1.377,0,0,1,1.513-1.386,1.757,1.757,0,0,1,1.377.531v-.6c0-.442-.378-.73-.954-.73a1.833,1.833,0,0,0-1.27.513l-.431-.765a2.857,2.857,0,0,1,1.9-.684c.99,0,1.9.4,1.9,1.648v2.809h-1.144Zm0-1.134a1.142,1.142,0,0,0-.918-.378c-.45,0-.819.234-.819.657,0,.405.369.64.819.64a1.142,1.142,0,0,0,.918-.379Z" fill="#0b79bf"/>
      <path d="M285.992,151.517a.684.684,0,1,1,1.368,0,.684.684,0,0,1-1.368,0Zm.117,1.323h1.144v4.349h-1.144Z" fill="#0b79bf"/>
      <path d="M288.566,151.183h1.144v6.006h-1.144Z" fill="#0b79bf"/>
      <path d="M290.969,158.017a1.508,1.508,0,0,0,.693-.838.606.606,0,0,1-.783-.63.719.719,0,0,1,.7-.72.836.836,0,0,1,.811.918,2.1,2.1,0,0,1-.927,1.674Z" fill="#0b79bf"/>
      <path d="M295.991,151.183h1.144V153.4a1.671,1.671,0,0,1,1.341-.666c1.107,0,1.927.864,1.927,2.287,0,1.449-.829,2.277-1.927,2.277a1.686,1.686,0,0,1-1.341-.666v.559h-1.144Zm2.124,5.1a1.276,1.276,0,0,0,0-2.53,1.258,1.258,0,0,0-.98.5v1.539A1.266,1.266,0,0,0,298.115,156.279Z" fill="#0b79bf"/>
      <path d="M301.823,157.935a.577.577,0,0,0,.6-.315l.162-.369-1.765-4.411h1.224l1.135,3.025,1.135-3.025h1.233l-2.044,5.06a1.579,1.579,0,0,1-1.647,1.052,3.234,3.234,0,0,1-.568-.062l.171-1.026A1.012,1.012,0,0,0,301.823,157.935Z" fill="#0b79bf"/>
      <path d="M308.726,158.845v-6h1.143v.549a1.679,1.679,0,0,1,1.341-.657c1.116,0,1.927.828,1.927,2.277s-.811,2.287-1.927,2.287a1.662,1.662,0,0,1-1.341-.666v2.215Zm2.124-5.1a1.28,1.28,0,0,0-.981.5v1.54a1.309,1.309,0,0,0,.981.5,1.278,1.278,0,0,0,0-2.53Z" fill="#0b79bf"/>
      <path d="M317.115,154.541c0-.6-.315-.792-.81-.792a1.263,1.263,0,0,0-.99.514v2.926h-1.144v-6.006h1.144v2.224a2.008,2.008,0,0,1,1.53-.675,1.252,1.252,0,0,1,1.413,1.369v3.088h-1.143Z" fill="#0b79bf"/>
      <path d="M319.291,155.009a2.3,2.3,0,1,1,2.3,2.287A2.2,2.2,0,0,1,319.291,155.009Zm3.412,0a1.121,1.121,0,1,0-1.116,1.27A1.147,1.147,0,0,0,322.7,155.009Z" fill="#0b79bf"/>
      <path d="M327.851,154.56a.706.706,0,0,0-.8-.811,1.234,1.234,0,0,0-.99.514v2.926h-1.144V152.84h1.144v.567a1.987,1.987,0,0,1,1.521-.675,1.265,1.265,0,0,1,1.413,1.386v3.071h-1.143Z" fill="#0b79bf"/>
      <path d="M332.28,152.732a2.18,2.18,0,0,1,2.178,2.394v.252h-3.232a1.172,1.172,0,0,0,1.251,1.009,1.776,1.776,0,0,0,1.162-.433l.5.739a2.712,2.712,0,0,1-1.792.6,2.282,2.282,0,1,1-.071-4.564Zm-1.072,1.873h2.143a1.008,1.008,0,0,0-1.071-.963A1.044,1.044,0,0,0,331.208,154.6Z" fill="#0b79bf"/>
      <path d="M337.669,155.009a2.3,2.3,0,1,1,2.3,2.287A2.2,2.2,0,0,1,337.669,155.009Zm3.412,0a1.121,1.121,0,1,0-1.116,1.27A1.147,1.147,0,0,0,341.081,155.009Z" fill="#0b79bf"/>
      <path d="M343.294,152.84h1.144v.595a1.853,1.853,0,0,1,1.385-.694v1.116a1.411,1.411,0,0,0-1.385.459v2.873h-1.144Z" fill="#0b79bf"/>
      <path d="M348.919,155.009a2.3,2.3,0,1,1,2.3,2.287A2.2,2.2,0,0,1,348.919,155.009Zm3.412,0a1.121,1.121,0,1,0-1.116,1.27A1.147,1.147,0,0,0,352.331,155.009Z" fill="#0b79bf"/>
      <path d="M357.479,154.56a.706.706,0,0,0-.8-.811,1.234,1.234,0,0,0-.99.514v2.926h-1.144V152.84h1.144v.567a1.987,1.987,0,0,1,1.521-.675,1.265,1.265,0,0,1,1.413,1.386v3.071h-1.143Z" fill="#0b79bf"/>
      <path d="M359.935,151.183h1.143v6.006h-1.143Z" fill="#0b79bf"/>
      <path d="M362.275,151.517a.684.684,0,1,1,1.368,0,.684.684,0,0,1-1.368,0Zm.117,1.323h1.143v4.349h-1.143Z" fill="#0b79bf"/>
      <path d="M367.783,154.56a.705.705,0,0,0-.8-.811,1.236,1.236,0,0,0-.991.514v2.926h-1.143V152.84h1.143v.567a1.991,1.991,0,0,1,1.522-.675,1.265,1.265,0,0,1,1.413,1.386v3.071h-1.144Z" fill="#0b79bf"/>
      <path d="M372.211,152.732a2.181,2.181,0,0,1,2.179,2.394v.252h-3.233a1.173,1.173,0,0,0,1.251,1.009,1.779,1.779,0,0,0,1.163-.433l.5.739a2.71,2.71,0,0,1-1.792.6,2.282,2.282,0,1,1-.071-4.564ZM371.14,154.6h2.142a1.007,1.007,0,0,0-1.071-.963A1.043,1.043,0,0,0,371.14,154.6Z" fill="#0b79bf"/>
    </g>
    <g>
      <path d="M203.834,167.1a2.253,2.253,0,0,0,1.679.76c.952,0,1.255-.512,1.255-.92,0-.64-.647-.816-1.351-1.008-.856-.224-1.807-.463-1.807-1.511,0-.88.783-1.479,1.831-1.479a2.506,2.506,0,0,1,1.9.744l-.4.487a2.041,2.041,0,0,0-1.543-.639c-.639,0-1.095.343-1.095.847,0,.536.616.7,1.3.88.871.232,1.862.5,1.862,1.623,0,.776-.528,1.567-1.967,1.567a2.643,2.643,0,0,1-2.047-.847Z" fill="#0b79bf"/>
      <path d="M210.264,164.393a1.876,1.876,0,0,1,1.856,2.071v.152h-3.126a1.36,1.36,0,0,0,1.391,1.335,1.682,1.682,0,0,0,1.191-.488l.288.393a2.1,2.1,0,0,1-1.535.591,2.029,2.029,0,0,1-.065-4.054Zm-1.27,1.783h2.534a1.252,1.252,0,0,0-1.271-1.287A1.287,1.287,0,0,0,208.994,166.176Z" fill="#0b79bf"/>
      <path d="M214.928,164.393a1.876,1.876,0,0,1,1.856,2.071v.152h-3.126a1.36,1.36,0,0,0,1.391,1.335,1.682,1.682,0,0,0,1.191-.488l.288.393a2.1,2.1,0,0,1-1.535.591,2.029,2.029,0,0,1-.065-4.054Zm-1.27,1.783h2.534a1.251,1.251,0,0,0-1.271-1.287A1.287,1.287,0,0,0,213.658,166.176Z" fill="#0b79bf"/>
      <path d="M220.137,164.49h.6v.623a1.642,1.642,0,0,1,1.287-.7v.616a1.042,1.042,0,0,0-.239-.024,1.415,1.415,0,0,0-1.048.615v2.735h-.6Z" fill="#0b79bf"/>
      <path d="M224.616,164.393a1.876,1.876,0,0,1,1.855,2.071v.152h-3.126a1.36,1.36,0,0,0,1.391,1.335,1.679,1.679,0,0,0,1.191-.488l.289.393a2.1,2.1,0,0,1-1.536.591,2.03,2.03,0,0,1-.064-4.054Zm-1.271,1.783h2.535a1.252,1.252,0,0,0-1.272-1.287A1.288,1.288,0,0,0,223.345,166.176Z" fill="#0b79bf"/>
      <path d="M227.026,164.49h.648l1.287,3.166,1.279-3.166h.655l-1.606,3.861h-.656Z" fill="#0b79bf"/>
      <path d="M233.36,164.393a1.876,1.876,0,0,1,1.856,2.071v.152H232.09a1.359,1.359,0,0,0,1.39,1.335,1.683,1.683,0,0,0,1.192-.488l.288.393a2.1,2.1,0,0,1-1.535.591,2.029,2.029,0,0,1-.065-4.054Zm-1.27,1.783h2.534a1.252,1.252,0,0,0-1.272-1.287A1.287,1.287,0,0,0,232.09,166.176Z" fill="#0b79bf"/>
      <path d="M236.345,164.49h.6v.623a1.642,1.642,0,0,1,1.287-.7v.616a1.042,1.042,0,0,0-.239-.024,1.415,1.415,0,0,0-1.048.615v2.735h-.6Z" fill="#0b79bf"/>
      <path d="M239.121,167.407a1.75,1.75,0,0,0,1.271.552c.592,0,.912-.263.912-.639,0-.424-.471-.56-.992-.688-.655-.152-1.4-.328-1.4-1.128,0-.6.519-1.111,1.438-1.111a1.954,1.954,0,0,1,1.432.56l-.28.415a1.508,1.508,0,0,0-1.152-.487c-.527,0-.855.239-.855.584,0,.375.44.5.943.615.672.153,1.447.344,1.447,1.2,0,.647-.519,1.167-1.518,1.167a2.055,2.055,0,0,1-1.56-.608Z" fill="#0b79bf"/>
      <path d="M244.7,164.393a1.876,1.876,0,0,1,1.855,2.071v.152h-3.126a1.36,1.36,0,0,0,1.391,1.335,1.681,1.681,0,0,0,1.191-.488l.288.393a2.094,2.094,0,0,1-1.535.591,2.03,2.03,0,0,1-.064-4.054Zm-1.271,1.783h2.535a1.252,1.252,0,0,0-1.272-1.287A1.288,1.288,0,0,0,243.433,166.176Z" fill="#0b79bf"/>
      <path d="M249.888,167.407a1.753,1.753,0,0,0,1.272.552c.592,0,.912-.263.912-.639,0-.424-.472-.56-.992-.688-.655-.152-1.4-.328-1.4-1.128,0-.6.52-1.111,1.439-1.111a1.955,1.955,0,0,1,1.432.56l-.281.415a1.5,1.5,0,0,0-1.151-.487c-.527,0-.856.239-.856.584,0,.375.441.5.944.615.672.153,1.447.344,1.447,1.2,0,.647-.52,1.167-1.519,1.167a2.055,2.055,0,0,1-1.559-.608Z" fill="#0b79bf"/>
      <path d="M253.689,163.434a.4.4,0,0,1,.808,0,.4.4,0,1,1-.808,0Zm.1,1.056h.6v3.861h-.6Z" fill="#0b79bf"/>
      <path d="M258.552,167.776a1.63,1.63,0,0,1-1.3.671c-1.008,0-1.719-.768-1.719-2.023,0-1.231.7-2.031,1.719-2.031a1.618,1.618,0,0,1,1.3.68v-2.055h.6v5.333h-.6Zm0-2.223a1.451,1.451,0,0,0-1.16-.624c-.776,0-1.24.64-1.24,1.5s.464,1.487,1.24,1.487a1.436,1.436,0,0,0,1.16-.607Z" fill="#0b79bf"/>
      <path d="M262.192,164.393a1.876,1.876,0,0,1,1.856,2.071v.152h-3.126a1.359,1.359,0,0,0,1.39,1.335,1.683,1.683,0,0,0,1.192-.488l.288.393a2.1,2.1,0,0,1-1.535.591,2.029,2.029,0,0,1-.065-4.054Zm-1.27,1.783h2.534a1.252,1.252,0,0,0-1.272-1.287A1.287,1.287,0,0,0,260.922,166.176Z" fill="#0b79bf"/>
      <path d="M267.569,165.017h-.64v-.527h.64v-.3a1.161,1.161,0,0,1,1.7-1.12l-.152.448a.665.665,0,0,0-.344-.088c-.391,0-.607.271-.607.76v.3h.783v.527h-.783v3.334h-.6Z" fill="#0b79bf"/>
      <path d="M269.6,166.416a1.915,1.915,0,1,1,1.911,2.031A1.9,1.9,0,0,1,269.6,166.416Zm3.191,0a1.3,1.3,0,1,0-1.28,1.5A1.342,1.342,0,0,0,272.792,166.416Z" fill="#0b79bf"/>
      <path d="M274.56,164.49h.6v.623a1.641,1.641,0,0,1,1.287-.7v.616a1.048,1.048,0,0,0-.239-.024,1.415,1.415,0,0,0-1.048.615v2.735h-.6Z" fill="#0b79bf"/>
      <path d="M284.246,165.729c0-.489-.216-.8-.711-.8a1.352,1.352,0,0,0-1.024.592v2.83h-.6v-2.622c0-.489-.208-.8-.712-.8a1.349,1.349,0,0,0-1.016.6v2.822h-.6V164.49h.6v.559a1.67,1.67,0,0,1,1.247-.656.992.992,0,0,1,1.04.72,1.626,1.626,0,0,1,1.3-.72c.7,0,1.079.392,1.079,1.168v2.79h-.6Z" fill="#0b79bf"/>
      <path d="M285.985,166.416a1.914,1.914,0,1,1,1.911,2.031A1.895,1.895,0,0,1,285.985,166.416Zm3.191,0a1.3,1.3,0,1,0-1.28,1.5A1.343,1.343,0,0,0,289.176,166.416Z" fill="#0b79bf"/>
      <path d="M290.944,164.49h.6v.623a1.642,1.642,0,0,1,1.287-.7v.616a1.042,1.042,0,0,0-.239-.024,1.415,1.415,0,0,0-1.048.615v2.735h-.6Z" fill="#0b79bf"/>
      <path d="M295.424,164.393a1.876,1.876,0,0,1,1.856,2.071v.152h-3.126a1.359,1.359,0,0,0,1.39,1.335,1.683,1.683,0,0,0,1.192-.488l.288.393a2.1,2.1,0,0,1-1.535.591,2.029,2.029,0,0,1-.065-4.054Zm-1.27,1.783h2.534a1.252,1.252,0,0,0-1.272-1.287A1.287,1.287,0,0,0,294.154,166.176Z" fill="#0b79bf"/>
      <path d="M300.53,163.434a.4.4,0,0,1,.807,0,.4.4,0,1,1-.807,0Zm.1,1.056h.6v3.861h-.6Z" fill="#0b79bf"/>
      <path d="M305.2,165.824c0-.679-.343-.9-.863-.9a1.49,1.49,0,0,0-1.143.6v2.822h-.6V164.49h.6v.559a1.914,1.914,0,0,1,1.375-.656,1.1,1.1,0,0,1,1.231,1.248v2.71h-.6Z" fill="#0b79bf"/>
      <path d="M307.328,165.017h-.639v-.527h.639v-.3a1.161,1.161,0,0,1,1.7-1.12l-.152.448a.663.663,0,0,0-.344-.088c-.391,0-.607.271-.607.76v.3h.783v.527h-.783v3.334h-.6Z" fill="#0b79bf"/>
      <path d="M309.361,166.416a1.914,1.914,0,1,1,1.911,2.031A1.895,1.895,0,0,1,309.361,166.416Zm3.19,0a1.3,1.3,0,1,0-1.279,1.5A1.342,1.342,0,0,0,312.551,166.416Z" fill="#0b79bf"/>
      <path d="M314.321,164.49h.6v.623a1.642,1.642,0,0,1,1.287-.7v.616a1.042,1.042,0,0,0-.239-.024,1.415,1.415,0,0,0-1.048.615v2.735h-.6Z" fill="#0b79bf"/>
      <path d="M321.781,165.729c0-.489-.215-.8-.71-.8a1.348,1.348,0,0,0-1.024.592v2.83h-.6v-2.622c0-.489-.208-.8-.712-.8a1.349,1.349,0,0,0-1.016.6v2.822h-.6V164.49h.6v.559a1.67,1.67,0,0,1,1.247-.656.992.992,0,0,1,1.04.72,1.624,1.624,0,0,1,1.3-.72c.7,0,1.079.392,1.079,1.168v2.79h-.6Z" fill="#0b79bf"/>
      <path d="M326.159,167.911a1.669,1.669,0,0,1-1.279.536,1.286,1.286,0,0,1-1.351-1.28,1.264,1.264,0,0,1,1.351-1.27,1.617,1.617,0,0,1,1.279.527v-.695c0-.52-.416-.816-.975-.816a1.535,1.535,0,0,0-1.184.536l-.279-.417a2.022,2.022,0,0,1,1.543-.639c.815,0,1.5.368,1.5,1.3v2.654h-.6Zm0-1.1a1.3,1.3,0,0,0-1.063-.48.85.85,0,1,0,0,1.687,1.289,1.289,0,0,0,1.063-.48Z" fill="#0b79bf"/>
      <path d="M328.24,167.543v-2.526H327.6v-.527h.639v-1.056h.6v1.056h.783v.527h-.783v2.4c0,.288.128.5.392.5a.579.579,0,0,0,.408-.16l.176.448a.982.982,0,0,1-.72.248A.791.791,0,0,1,328.24,167.543Z" fill="#0b79bf"/>
      <path d="M330.529,163.434a.4.4,0,0,1,.807,0,.4.4,0,1,1-.807,0Zm.1,1.056h.6v3.861h-.6Z" fill="#0b79bf"/>
      <path d="M332.368,166.416a1.915,1.915,0,1,1,1.912,2.031A1.9,1.9,0,0,1,332.368,166.416Zm3.191,0a1.3,1.3,0,1,0-1.279,1.5A1.342,1.342,0,0,0,335.559,166.416Z" fill="#0b79bf"/>
      <path d="M339.935,165.824c0-.679-.344-.9-.863-.9a1.492,1.492,0,0,0-1.144.6v2.822h-.6V164.49h.6v.559a1.914,1.914,0,0,1,1.375-.656,1.1,1.1,0,0,1,1.231,1.248v2.71h-.6Z" fill="#0b79bf"/>
    </g>
    <g>
      <path d="M35.97,46.34h-.639v-.413a.392.392,0,0,0-.784,0v.413H29.886V44.7c0-.452-.367-.512-.818-.512s-.818.06-.818.512V46.34H23.588v-.413a.392.392,0,0,0-.784,0v.413h-.638c-.292,0-.307.32-.307.715s.015.716.307.716h3.289l2.8,2.794V68.249c0,.452,1.636.452,1.636,0V50.565l2.794-2.794h3.29c.291,0,.306-.32.306-.716S36.261,46.34,35.97,46.34Zm-7.72,3.647-2.216-2.216H28.25Zm1.636,0V47.771H32.1Z" fill="#fff"/>
      <path d="M39.445,65.792A18.658,18.658,0,0,1,22.716,47.257h.795a17.861,17.861,0,0,0,16.648,17.8C40.552,65.081,40.07,65.856,39.445,65.792Z" fill="#fff"/>
    </g>
    <g>
      <path d="M43.924,95.865c.016.074.034.147.049.222C43.958,96.013,43.94,95.939,43.924,95.865Z" fill="#fff"/>
      <path d="M44.2,100.416c-.013.142-.025.284-.042.423Q44.185,100.629,44.2,100.416Z" fill="#fff"/>
      <path d="M44.179,97.437c.007.068.013.137.019.2C44.192,97.574,44.186,97.505,44.179,97.437Z" fill="#fff"/>
      <path d="M43.663,94.85a15.251,15.251,0,0,0-9.43-10.078C35.684,85.4,41.721,88.354,43.663,94.85Z" fill="#fff"/>
      <path d="M33.913,84.64l0,.014c.11.037.216.079.324.118C34.031,84.685,33.913,84.64,33.913,84.64Z" fill="#fff"/>
      <path d="M43.973,96.087q.132.666.206,1.35Q44.106,96.741,43.973,96.087Z" fill="#fff"/>
      <path d="M43.663,94.85c.1.334.187.671.261,1.015Q43.81,95.345,43.663,94.85Z" fill="#fff"/>
      <path d="M44.2,100.416c.04-.435.068-.877.068-1.336,0-.5-.03-.972-.073-1.438.044.474.073.953.073,1.438C44.271,99.531,44.242,99.975,44.2,100.416Z" fill="#fff"/>
      <path d="M44.161,100.839c-.028.245-.071.485-.111.726C44.092,101.326,44.131,101.086,44.161,100.839Z" fill="#fff"/>
      <path d="M43.3,99.08A14.233,14.233,0,0,0,33.691,85.6l-.417,1.809a13.714,13.714,0,0,1-2.622,5.48c-.161.2-.322.394-.482.578l-4.945,5.7a5.264,5.264,0,0,0-.693,4.7,3.72,3.72,0,0,0,1.631,1.961l.5.307a2.486,2.486,0,0,0,.771.305l1.931.409a3.742,3.742,0,0,1,2.358,1.619l.21.323a1.771,1.771,0,0,1,.285.915s.071,1.8.089,3.243A14.237,14.237,0,0,0,43.3,99.08Z" fill="#fff"/>
    </g>
    <path d="M33.945,99.663l.693,1.176a10.967,10.967,0,0,1,1.2,2.842,5.879,5.879,0,0,1,.158.828,1.878,1.878,0,0,1-1.7,2.059,3.574,3.574,0,0,1-.8-.041,2.593,2.593,0,0,1-1.64-.973c-.549-.692-1.448-1.646-2.273-1.7-1.3-.093-2.047.279-1.674.744.333.417,2.28.75,3.36.756.125,0,.239,0,.337-.012" fill="none" stroke="#328aca" stroke-linecap="round" stroke-miterlimit="10" stroke-width="0.75"/>
    <path d="M31.655,105.4s-2.268.175-2.9-.349-1.535-.593-.872-.907a3.193,3.193,0,0,1,2.407,0A4.851,4.851,0,0,1,31.655,105.4Z" fill="#0b79bf"/>
  </g>
</svg>
