<svg xmlns="http://www.w3.org/2000/svg" width="131.556" height="133.922" viewBox="0 0 131.556 133.922">
  <g>
    <g>
      <path d="M7.494,4.111,5,11.662H4.566L2.1,4.111v7.551H.98V2.318H2.535L4.791,9.169,7.06,2.318H8.587v9.344H7.494Z" transform="translate(0 -2.179)" fill="#0b79bf"/>
      <path d="M13.666,4.729c1.778,0,2.675,1.6,2.675,3.571v.308H11.957C12,9.967,12.7,10.989,13.9,10.989a2.087,2.087,0,0,0,1.611-.826l.532.588A2.814,2.814,0,0,1,13.82,11.83c-1.807,0-2.9-1.485-2.9-3.558C10.92,6.311,11.957,4.729,13.666,4.729ZM11.957,7.866h3.39c-.014-1.037-.462-2.3-1.7-2.3C12.461,5.568,11.985,6.871,11.957,7.866Z" transform="translate(0 -2.179)" fill="#0b79bf"/>
      <path d="M18.773,10.3V5.778h-.9V4.9h.9V3.047h1.009V4.9h1.149v.882H19.782v4.343c0,.519.155.813.547.813a.757.757,0,0,0,.588-.267l.309.757a1.458,1.458,0,0,1-1.093.406C19.208,11.83,18.773,11.312,18.773,10.3Z" transform="translate(0 -2.179)" fill="#0b79bf"/>
      <path d="M25.439,4.729c1.779,0,2.675,1.6,2.675,3.571v.308H23.73c.042,1.359.743,2.381,1.948,2.381a2.085,2.085,0,0,0,1.61-.826l.532.588a2.812,2.812,0,0,1-2.226,1.079c-1.808,0-2.9-1.485-2.9-3.558C22.693,6.311,23.73,4.729,25.439,4.729ZM23.73,7.866h3.39c-.014-1.037-.462-2.3-1.7-2.3C24.234,5.568,23.759,6.871,23.73,7.866Z" transform="translate(0 -2.179)" fill="#0b79bf"/>
      <path d="M30.353,4.9h.994V5.975a2.27,2.27,0,0,1,1.919-1.219V5.793a1.387,1.387,0,0,0-.336-.042,2.028,2.028,0,0,0-1.583,1.106v4.805h-.994Z" transform="translate(0 -2.179)" fill="#0b79bf"/>
      <path d="M39.031,2.318h1.121v9.344H39.031Z" transform="translate(0 -2.179)" fill="#0b79bf"/>
      <path d="M46.481,6.844c0-.9-.406-1.219-1.078-1.219A1.978,1.978,0,0,0,43.82,6.7v4.959h-.994V4.9h.994v.966a2.512,2.512,0,0,1,1.961-1.133c1.149,0,1.709.616,1.709,1.834v5.1H46.481Z" transform="translate(0 -2.179)" fill="#0b79bf"/>
      <path d="M50.344,5.778h-.9V4.9h.9V4.069A1.661,1.661,0,0,1,52,2.179a1.886,1.886,0,0,1,.868.2l-.237.784a.968.968,0,0,0-.448-.112c-.533,0-.827.364-.827,1.022V4.9H52.5v.882H51.352v5.884H50.344Z" transform="translate(0 -2.179)" fill="#0b79bf"/>
      <path d="M54.1,8.272c0-1.905.953-3.543,2.746-3.543,1.821,0,2.76,1.638,2.76,3.543s-.939,3.558-2.76,3.558C55.048,11.83,54.1,10.177,54.1,8.272Zm4.455,0c0-1.359-.519-2.647-1.709-2.647-1.163,0-1.7,1.288-1.7,2.647s.532,2.662,1.7,2.662C58.031,10.934,58.55,9.645,58.55,8.272Z" transform="translate(0 -2.179)" fill="#0b79bf"/>
      <path d="M61.88,4.9h.994V5.975a2.273,2.273,0,0,1,1.919-1.219V5.793a1.381,1.381,0,0,0-.336-.042,2.03,2.03,0,0,0-1.583,1.106v4.805H61.88Z" transform="translate(0 -2.179)" fill="#0b79bf"/>
      <path d="M73.559,6.759c0-.728-.294-1.134-.939-1.134A1.857,1.857,0,0,0,71.149,6.7v4.959H70.142v-4.9c0-.728-.3-1.134-.954-1.134A1.9,1.9,0,0,0,67.718,6.7v4.959h-.994V4.9h.994v.966a2.339,2.339,0,0,1,1.848-1.133,1.424,1.424,0,0,1,1.528,1.2A2.326,2.326,0,0,1,73,4.729c.994,0,1.568.545,1.568,1.764v5.169H73.559Z" transform="translate(0 -2.179)" fill="#0b79bf"/>
      <path d="M80.654,10.934a2.116,2.116,0,0,1-1.779.9A2.078,2.078,0,0,1,76.83,9.575a2.046,2.046,0,0,1,2.045-2.227,2.105,2.105,0,0,1,1.779.868V7.039A1.284,1.284,0,0,0,79.268,5.6a2.155,2.155,0,0,0-1.7.826l-.448-.714a3.1,3.1,0,0,1,2.3-.98,1.991,1.991,0,0,1,2.241,2.2v4.734H80.654Zm0-1.976A1.624,1.624,0,0,0,79.2,8.09a1.36,1.36,0,0,0-1.344,1.5A1.372,1.372,0,0,0,79.2,11.1a1.636,1.636,0,0,0,1.457-.855Z" transform="translate(0 -2.179)" fill="#0b79bf"/>
      <path d="M84.461,10.3V5.778h-.9V4.9h.9V3.047h1.008V4.9h1.148v.882H85.469v4.343c0,.519.154.813.547.813a.757.757,0,0,0,.588-.267l.308.757a1.455,1.455,0,0,1-1.093.406C84.9,11.83,84.461,11.312,84.461,10.3Z" transform="translate(0 -2.179)" fill="#0b79bf"/>
      <path d="M88.521,3.075a.7.7,0,0,1,.686-.686.687.687,0,1,1,0,1.373A.7.7,0,0,1,88.521,3.075Zm.2,1.821h.994v6.766h-.994Z" transform="translate(0 -2.179)" fill="#0b79bf"/>
      <path d="M91.991,8.272c0-1.905.953-3.543,2.746-3.543,1.822,0,2.76,1.638,2.76,3.543s-.938,3.558-2.76,3.558C92.944,11.83,91.991,10.177,91.991,8.272Zm4.455,0c0-1.359-.518-2.647-1.709-2.647-1.163,0-1.695,1.288-1.695,2.647s.532,2.662,1.695,2.662C95.928,10.934,96.446,9.645,96.446,8.272Z" transform="translate(0 -2.179)" fill="#0b79bf"/>
      <path d="M103.432,6.844c0-.9-.407-1.219-1.078-1.219A1.975,1.975,0,0,0,100.771,6.7v4.959h-1V4.9h1v.966a2.509,2.509,0,0,1,1.96-1.133c1.149,0,1.709.616,1.709,1.834v5.1h-1.008Z" transform="translate(0 -2.179)" fill="#0b79bf"/>
    </g>
    <g>
      <path d="M1.891,21.239.036,17.773h.8l1.414,2.773,1.413-2.773h.792L2.6,21.239v2.539H1.891Z" transform="translate(0 -2.179)" fill="#0b79bf"/>
      <path d="M4.536,21.6c0-1.225.612-2.279,1.765-2.279,1.17,0,1.773,1.054,1.773,2.279s-.6,2.286-1.773,2.286C5.148,23.886,4.536,22.824,4.536,21.6Zm2.863,0c0-.873-.333-1.7-1.1-1.7-.747,0-1.089.83-1.089,1.7s.342,1.71,1.089,1.71C7.066,23.31,7.4,22.481,7.4,21.6Z" transform="translate(0 -2.179)" fill="#0b79bf"/>
      <path d="M11.891,23.175a1.586,1.586,0,0,1-1.261.711c-.738,0-1.09-.369-1.09-1.161v-3.3h.64v3.106c0,.576.27.774.693.774a1.228,1.228,0,0,0,1.018-.675V19.43h.647v4.348h-.647Z" transform="translate(0 -2.179)" fill="#0b79bf"/>
      <path d="M14.22,19.43h.639v.693a1.461,1.461,0,0,1,1.234-.783v.666a.894.894,0,0,0-.216-.027,1.3,1.3,0,0,0-1.018.711v3.088H14.22Z" transform="translate(0 -2.179)" fill="#0b79bf"/>
      <path d="M22.114,20.682c0-.577-.261-.785-.693-.785a1.272,1.272,0,0,0-1.018.694v3.187h-.639V19.43H20.4v.621a1.616,1.616,0,0,1,1.261-.73c.738,0,1.1.4,1.1,1.18v3.277h-.648Z" transform="translate(0 -2.179)" fill="#0b79bf"/>
      <path d="M25.992,19.321c1.144,0,1.72,1.027,1.72,2.3v.2H24.894c.027.873.477,1.531,1.252,1.531a1.341,1.341,0,0,0,1.035-.532l.341.379a1.806,1.806,0,0,1-1.431.693c-1.161,0-1.863-.954-1.863-2.286C24.228,20.339,24.894,19.321,25.992,19.321Zm-1.1,2.017h2.178c-.009-.666-.3-1.476-1.089-1.476C25.218,19.862,24.912,20.7,24.894,21.338Z" transform="translate(0 -2.179)" fill="#0b79bf"/>
      <path d="M30.2,22.031l-1,1.747h-.72l1.324-2.215L28.557,19.43h.72l.927,1.656.928-1.656h.72L30.6,21.563l1.323,2.215H31.2Z" transform="translate(0 -2.179)" fill="#0b79bf"/>
      <path d="M33.246,22.905V20H32.67V19.43h.576V18.241h.648V19.43h.738V20h-.738v2.791c0,.333.1.522.351.522a.486.486,0,0,0,.378-.171l.2.486a.935.935,0,0,1-.7.261C33.524,23.886,33.246,23.553,33.246,22.905Z" transform="translate(0 -2.179)" fill="#0b79bf"/>
      <path d="M38.385,22.814a1.5,1.5,0,0,0,1.134.55c.5,0,.837-.27.837-.684,0-.468-.432-.658-.909-.856-.594-.233-1.26-.5-1.26-1.332a1.233,1.233,0,0,1,1.386-1.171,1.741,1.741,0,0,1,1.323.559l-.306.441a1.252,1.252,0,0,0-1.008-.477c-.478,0-.774.261-.774.612,0,.414.405.594.864.783.6.243,1.306.514,1.306,1.4a1.285,1.285,0,0,1-1.45,1.242,1.846,1.846,0,0,1-1.467-.612Z" transform="translate(0 -2.179)" fill="#0b79bf"/>
      <path d="M43.974,19.321a1.486,1.486,0,0,1,1.242.576l-.351.442a.98.98,0,0,0-.838-.442c-.774,0-1.178.775-1.178,1.7s.4,1.71,1.178,1.71a1,1,0,0,0,.838-.441l.351.441a1.463,1.463,0,0,1-1.242.576c-1.117,0-1.8-1-1.8-2.286S42.857,19.321,43.974,19.321Z" transform="translate(0 -2.179)" fill="#0b79bf"/>
      <path d="M48.9,20.672c0-.576-.27-.775-.7-.775a1.269,1.269,0,0,0-1.017.694v3.187h-.64v-6h.64v2.278a1.631,1.631,0,0,1,1.269-.73c.739,0,1.089.369,1.089,1.162v3.295H48.9Z" transform="translate(0 -2.179)" fill="#0b79bf"/>
      <path d="M52.767,19.321c1.143,0,1.719,1.027,1.719,2.3v.2H51.668c.027.873.478,1.531,1.252,1.531a1.338,1.338,0,0,0,1.035-.532l.342.379a1.809,1.809,0,0,1-1.432.693C51.7,23.886,51,22.932,51,21.6,51,20.339,51.668,19.321,52.767,19.321Zm-1.1,2.017h2.179c-.009-.666-.3-1.476-1.089-1.476C51.992,19.862,51.687,20.7,51.668,21.338Z" transform="translate(0 -2.179)" fill="#0b79bf"/>
      <path d="M58.41,23.157a1.357,1.357,0,0,1-1.143.729c-.973,0-1.558-.909-1.558-2.278,0-1.35.576-2.287,1.558-2.287a1.313,1.313,0,0,1,1.143.739V17.773h.649v6H58.41Zm0-2.548a1.164,1.164,0,0,0-.981-.712c-.711,0-1.044.766-1.044,1.711s.333,1.7,1.044,1.7a1.153,1.153,0,0,0,.981-.7Z" transform="translate(0 -2.179)" fill="#0b79bf"/>
      <path d="M63.091,23.175a1.586,1.586,0,0,1-1.261.711c-.738,0-1.09-.369-1.09-1.161v-3.3h.64v3.106c0,.576.27.774.693.774a1.228,1.228,0,0,0,1.018-.675V19.43h.647v4.348h-.647Z" transform="translate(0 -2.179)" fill="#0b79bf"/>
      <path d="M65.42,17.773h.64v6h-.64Z" transform="translate(0 -2.179)" fill="#0b79bf"/>
      <path d="M69.29,19.321c1.144,0,1.72,1.027,1.72,2.3v.2H68.191c.028.873.478,1.531,1.252,1.531a1.342,1.342,0,0,0,1.036-.532l.341.379a1.806,1.806,0,0,1-1.431.693c-1.161,0-1.864-.954-1.864-2.286C67.525,20.339,68.191,19.321,69.29,19.321Zm-1.1,2.017H70.37c-.009-.666-.3-1.476-1.089-1.476C68.516,19.862,68.21,20.7,68.191,21.338Z" transform="translate(0 -2.179)" fill="#0b79bf"/>
      <path d="M74.934,23.157a1.359,1.359,0,0,1-1.144.729c-.973,0-1.558-.909-1.558-2.278,0-1.35.577-2.287,1.558-2.287a1.314,1.314,0,0,1,1.144.739V17.773h.648v6h-.648Zm0-2.548a1.167,1.167,0,0,0-.982-.712c-.711,0-1.044.766-1.044,1.711s.333,1.7,1.044,1.7a1.155,1.155,0,0,0,.982-.7Z" transform="translate(0 -2.179)" fill="#0b79bf"/>
      <path d="M84.087,20.627c0-.468-.189-.73-.6-.73a1.192,1.192,0,0,0-.945.694v3.187h-.648V20.627c0-.468-.19-.73-.613-.73a1.221,1.221,0,0,0-.945.694v3.187h-.64V19.43h.64v.621a1.5,1.5,0,0,1,1.188-.73.917.917,0,0,1,.982.775,1.5,1.5,0,0,1,1.224-.775c.639,0,1.008.352,1.008,1.135v3.322h-.648Z" transform="translate(0 -2.179)" fill="#0b79bf"/>
      <path d="M87.965,19.321c1.143,0,1.72,1.027,1.72,2.3v.2H86.866c.028.873.478,1.531,1.252,1.531a1.338,1.338,0,0,0,1.035-.532l.342.379a1.808,1.808,0,0,1-1.432.693c-1.161,0-1.863-.954-1.863-2.286C86.2,20.339,86.866,19.321,87.965,19.321Zm-1.1,2.017h2.179c-.009-.666-.3-1.476-1.089-1.476C87.19,19.862,86.885,20.7,86.866,21.338Z" transform="translate(0 -2.179)" fill="#0b79bf"/>
      <path d="M91.25,22.905V20h-.576V19.43h.576V18.241H91.9V19.43h.739V20H91.9v2.791c0,.333.1.522.352.522a.486.486,0,0,0,.378-.171l.2.486a.935.935,0,0,1-.7.261C91.528,23.886,91.25,23.553,91.25,22.905Z" transform="translate(0 -2.179)" fill="#0b79bf"/>
      <path d="M95.534,19.321c1.144,0,1.72,1.027,1.72,2.3v.2H94.436c.027.873.477,1.531,1.252,1.531a1.341,1.341,0,0,0,1.035-.532l.341.379a1.806,1.806,0,0,1-1.431.693c-1.161,0-1.863-.954-1.863-2.286C93.77,20.339,94.436,19.321,95.534,19.321Zm-1.1,2.017h2.178c-.009-.666-.3-1.476-1.089-1.476C94.76,19.862,94.454,20.7,94.436,21.338Z" transform="translate(0 -2.179)" fill="#0b79bf"/>
      <path d="M98.692,19.43h.64v.693a1.458,1.458,0,0,1,1.233-.783v.666a.886.886,0,0,0-.215-.027,1.3,1.3,0,0,0-1.018.711v3.088h-.64Z" transform="translate(0 -2.179)" fill="#0b79bf"/>
      <path d="M104.235,19.43h.64v.693a1.458,1.458,0,0,1,1.233-.783v.666a.886.886,0,0,0-.215-.027,1.3,1.3,0,0,0-1.018.711v3.088h-.64Z" transform="translate(0 -2.179)" fill="#0b79bf"/>
      <path d="M108.9,19.321c1.144,0,1.72,1.027,1.72,2.3v.2H107.8c.027.873.477,1.531,1.252,1.531a1.34,1.34,0,0,0,1.035-.532l.342.379a1.809,1.809,0,0,1-1.432.693c-1.161,0-1.863-.954-1.863-2.286C107.134,20.339,107.8,19.321,108.9,19.321Zm-1.1,2.017h2.179c-.009-.666-.3-1.476-1.089-1.476C108.124,19.862,107.818,20.7,107.8,21.338Z" transform="translate(0 -2.179)" fill="#0b79bf"/>
      <path d="M114.29,23.31a1.36,1.36,0,0,1-1.144.576,1.335,1.335,0,0,1-1.314-1.449,1.315,1.315,0,0,1,1.314-1.432,1.358,1.358,0,0,1,1.144.558v-.755a.826.826,0,0,0-.892-.928,1.381,1.381,0,0,0-1.088.531l-.289-.459a1.993,1.993,0,0,1,1.476-.631,1.281,1.281,0,0,1,1.441,1.414v3.043h-.648Zm0-1.269a1.046,1.046,0,0,0-.936-.559.974.974,0,0,0,0,1.936,1.053,1.053,0,0,0,.936-.549Z" transform="translate(0 -2.179)" fill="#0b79bf"/>
      <path d="M119.1,23.157a1.359,1.359,0,0,1-1.144.729c-.973,0-1.557-.909-1.557-2.278,0-1.35.576-2.287,1.557-2.287a1.313,1.313,0,0,1,1.144.739V17.773h.648v6H119.1Zm0-2.548a1.165,1.165,0,0,0-.982-.712c-.711,0-1.044.766-1.044,1.711s.333,1.7,1.044,1.7a1.154,1.154,0,0,0,.982-.7Z" transform="translate(0 -2.179)" fill="#0b79bf"/>
      <path d="M3.079,33.957a1.359,1.359,0,0,1-1.143.729c-.973,0-1.558-.91-1.558-2.278,0-1.35.576-2.287,1.558-2.287a1.314,1.314,0,0,1,1.143.738V28.573h.649v6.005H3.079Zm0-2.548A1.164,1.164,0,0,0,2.1,30.7c-.711,0-1.044.766-1.044,1.711s.333,1.7,1.044,1.7a1.152,1.152,0,0,0,.981-.7Z" transform="translate(0 -2.179)" fill="#0b79bf"/>
      <path d="M7.643,34.109a1.361,1.361,0,0,1-1.144.577,1.336,1.336,0,0,1-1.314-1.45A1.315,1.315,0,0,1,6.5,31.805a1.36,1.36,0,0,1,1.144.558v-.756a.826.826,0,0,0-.892-.927,1.383,1.383,0,0,0-1.089.531l-.288-.459a1.987,1.987,0,0,1,1.476-.631,1.28,1.28,0,0,1,1.44,1.414v3.043H7.643Zm0-1.268a1.047,1.047,0,0,0-.937-.559.974.974,0,0,0,0,1.936,1.057,1.057,0,0,0,.937-.549Z" transform="translate(0 -2.179)" fill="#0b79bf"/>
      <path d="M10.09,33.705V30.8H9.514v-.568h.576V29.041h.647v1.188h.739V30.8h-.739v2.791c0,.333.1.521.352.521a.483.483,0,0,0,.378-.171l.2.487a.935.935,0,0,1-.7.261C10.368,34.686,10.09,34.353,10.09,33.705Z" transform="translate(0 -2.179)" fill="#0b79bf"/>
      <path d="M14.373,30.121c1.144,0,1.72,1.026,1.72,2.3v.2H13.274c.028.873.478,1.531,1.252,1.531a1.342,1.342,0,0,0,1.036-.532l.341.379a1.806,1.806,0,0,1-1.431.693c-1.161,0-1.864-.955-1.864-2.287C12.608,31.139,13.274,30.121,14.373,30.121Zm-1.1,2.017h2.179c-.009-.666-.3-1.476-1.089-1.476C13.6,30.662,13.293,31.5,13.274,32.138Z" transform="translate(0 -2.179)" fill="#0b79bf"/>
      <path d="M19.835,29.06a.448.448,0,0,1,.441-.442.441.441,0,1,1,0,.882A.447.447,0,0,1,19.835,29.06Zm.126,1.169h.64v4.349h-.64Z" transform="translate(0 -2.179)" fill="#0b79bf"/>
      <path d="M22.257,33.614a1.5,1.5,0,0,0,1.134.55c.505,0,.838-.27.838-.685,0-.467-.433-.657-.91-.855-.594-.233-1.26-.5-1.26-1.332a1.233,1.233,0,0,1,1.386-1.171,1.745,1.745,0,0,1,1.324.559l-.307.441a1.252,1.252,0,0,0-1.008-.477c-.477,0-.774.261-.774.612,0,.414.405.594.864.783.6.243,1.306.514,1.306,1.4a1.285,1.285,0,0,1-1.45,1.243,1.846,1.846,0,0,1-1.467-.612Z" transform="translate(0 -2.179)" fill="#0b79bf"/>
      <path d="M28.476,32.4c0-1.224.612-2.278,1.764-2.278,1.17,0,1.774,1.054,1.774,2.278s-.6,2.287-1.774,2.287C29.088,34.686,28.476,33.624,28.476,32.4Zm2.863,0c0-.873-.333-1.7-1.1-1.7-.747,0-1.089.829-1.089,1.7s.342,1.71,1.089,1.71C31.006,34.109,31.339,33.281,31.339,32.4Z" transform="translate(0 -2.179)" fill="#0b79bf"/>
      <path d="M35.83,31.481c0-.576-.262-.784-.693-.784a1.271,1.271,0,0,0-1.018.694v3.187h-.64V30.229h.64v.622a1.615,1.615,0,0,1,1.261-.73c.738,0,1.1.4,1.1,1.18v3.277H35.83Z" transform="translate(0 -2.179)" fill="#0b79bf"/>
      <path d="M40.373,32.4c0-1.224.612-2.278,1.765-2.278,1.171,0,1.773,1.054,1.773,2.278s-.6,2.287-1.773,2.287C40.985,34.686,40.373,33.624,40.373,32.4Zm2.863,0c0-.873-.333-1.7-1.1-1.7-.747,0-1.089.829-1.089,1.7s.342,1.71,1.089,1.71C42.9,34.109,43.236,33.281,43.236,32.4Z" transform="translate(0 -2.179)" fill="#0b79bf"/>
      <path d="M45.377,30.229h.64v.694a1.458,1.458,0,0,1,1.233-.783v.666a.9.9,0,0,0-.216-.028,1.3,1.3,0,0,0-1.017.712v3.088h-.64Z" transform="translate(0 -2.179)" fill="#0b79bf"/>
      <path d="M53.154,34.109a1.358,1.358,0,0,1-1.143.577,1.336,1.336,0,0,1-1.315-1.45,1.315,1.315,0,0,1,1.315-1.431,1.357,1.357,0,0,1,1.143.558v-.756a.825.825,0,0,0-.891-.927,1.381,1.381,0,0,0-1.089.531l-.288-.459a1.985,1.985,0,0,1,1.475-.631A1.281,1.281,0,0,1,53.8,31.535v3.043h-.648Zm0-1.268a1.045,1.045,0,0,0-.936-.559.974.974,0,0,0,0,1.936,1.054,1.054,0,0,0,.936-.549Z" transform="translate(0 -2.179)" fill="#0b79bf"/>
      <path d="M55.475,30.229h.639v.694a1.46,1.46,0,0,1,1.234-.783v.666a.9.9,0,0,0-.216-.028,1.3,1.3,0,0,0-1.018.712v3.088h-.639Z" transform="translate(0 -2.179)" fill="#0b79bf"/>
      <path d="M58.373,32.4c0-1.224.612-2.278,1.765-2.278,1.171,0,1.773,1.054,1.773,2.278s-.6,2.287-1.773,2.287C58.985,34.686,58.373,33.624,58.373,32.4Zm2.863,0c0-.873-.333-1.7-1.1-1.7-.747,0-1.089.829-1.089,1.7s.342,1.71,1.089,1.71C60.9,34.109,61.236,33.281,61.236,32.4Z" transform="translate(0 -2.179)" fill="#0b79bf"/>
      <path d="M65.727,33.975a1.586,1.586,0,0,1-1.261.711c-.738,0-1.09-.37-1.09-1.162v-3.3h.64v3.107c0,.576.27.773.693.773a1.227,1.227,0,0,0,1.018-.674V30.229h.647v4.349h-.647Z" transform="translate(0 -2.179)" fill="#0b79bf"/>
      <path d="M70.407,31.481c0-.576-.261-.784-.693-.784a1.272,1.272,0,0,0-1.018.694v3.187h-.639V30.229H68.7v.622a1.616,1.616,0,0,1,1.261-.73c.738,0,1.1.4,1.1,1.18v3.277h-.648Z" transform="translate(0 -2.179)" fill="#0b79bf"/>
      <path d="M75.222,33.957a1.361,1.361,0,0,1-1.144.729c-.973,0-1.557-.91-1.557-2.278,0-1.35.576-2.287,1.557-2.287a1.314,1.314,0,0,1,1.144.738V28.573h.648v6.005h-.648Zm0-2.548a1.165,1.165,0,0,0-.982-.712c-.711,0-1.044.766-1.044,1.711s.333,1.7,1.044,1.7a1.153,1.153,0,0,0,.982-.7Z" transform="translate(0 -2.179)" fill="#0b79bf"/>
      <path d="M81.692,28.483c1.405,0,1.882,1.558,1.882,3.1s-.477,3.106-1.882,3.106-1.881-1.567-1.881-3.106S80.288,28.483,81.692,28.483Zm0,.639c-.918,0-1.143,1.27-1.143,2.458s.216,2.467,1.143,2.467,1.153-1.287,1.153-2.467S82.62,29.122,81.692,29.122Z" transform="translate(0 -2.179)" fill="#0b79bf"/>
      <path d="M87.074,33.038H84.7v-.621l2.17-3.844h.918v3.835h.657v.63h-.657v1.54h-.711Zm-1.72-.63h1.72v-3.06Z" transform="translate(0 -2.179)" fill="#0b79bf"/>
      <path d="M90.872,28.393h.5l-1.729,6.365h-.5Z" transform="translate(0 -2.179)" fill="#0b79bf"/>
      <path d="M92.348,33.993c1.962-2.26,2.637-2.989,2.637-3.862a.943.943,0,0,0-.964-1.009,1.42,1.42,0,0,0-1.269.757l-.468-.433a1.992,1.992,0,0,1,1.747-.963,1.584,1.584,0,0,1,1.683,1.638c0,1.009-.756,1.909-2.35,3.817h2.377v.64H92.348Z" transform="translate(0 -2.179)" fill="#0b79bf"/>
      <path d="M97.739,33.426a1.074,1.074,0,0,0,1,.612c.973,0,1.306-1.269,1.306-2.395v-.189a1.547,1.547,0,0,1-1.324.892c-.873,0-1.575-.64-1.575-1.918a1.79,1.79,0,0,1,1.728-1.954c1.432,0,1.9,1.5,1.9,3.106s-.584,3.1-2.034,3.1a1.609,1.609,0,0,1-1.395-.747Zm1.17-4.313c-.72,0-1.035.675-1.035,1.3,0,.955.459,1.315,1.026,1.315a1.36,1.36,0,0,0,1.125-.918C99.989,30.131,99.756,29.113,98.909,29.113Z" transform="translate(0 -2.179)" fill="#0b79bf"/>
      <path d="M103.418,28.393h.5l-1.729,6.365h-.5Z" transform="translate(0 -2.179)" fill="#0b79bf"/>
      <path d="M106.712,32.093l-1.4,2.485h-.828l1.791-3.07-1.692-2.935h.837l1.288,2.359L108,28.573h.837l-1.692,2.935,1.792,3.07h-.829Z" transform="translate(0 -2.179)" fill="#0b79bf"/>
      <path d="M111.8,32.093l-1.4,2.485h-.828l1.791-3.07-1.692-2.935h.838l1.287,2.359,1.287-2.359h.837l-1.692,2.935,1.792,3.07h-.829Z" transform="translate(0 -2.179)" fill="#0b79bf"/>
    </g>
    <g>
      <path d="M.531,51.331H3.97v1.054H1.737v1.377h2.17v1.045H1.737v1.476H3.97v1.053H.531Z" transform="translate(0 -2.179)"/>
      <path d="M5.355,51.331H6.436v6H5.355Z" transform="translate(0 -2.179)"/>
      <path d="M9.667,52.88c1.2,0,1.872.973,1.872,2.322v.307H8.812a1.033,1.033,0,0,0,1.052,1.062,1.315,1.315,0,0,0,.946-.424l.495.649a2.119,2.119,0,0,1-1.557.648,2.3,2.3,0,0,1-.081-4.564Zm-.855,1.891H10.5c-.018-.451-.217-1.018-.847-1.018C9.045,53.753,8.829,54.32,8.812,54.771Z" transform="translate(0 -2.179)"/>
      <path d="M14.562,52.88a1.732,1.732,0,0,1,1.386.585l-.54.747a.907.907,0,0,0-.728-.378c-.622,0-.992.567-.992,1.323s.37,1.333.992,1.333a.908.908,0,0,0,.728-.379l.54.748a1.732,1.732,0,0,1-1.386.585,2.3,2.3,0,0,1,0-4.564Z" transform="translate(0 -2.179)"/>
      <path d="M17.315,56.292V53.934h-.566v-.946h.566V51.8H18.4v1.188h.72v.946H18.4V56.04c0,.279.108.45.315.45a.43.43,0,0,0,.324-.126l.226.828a1.253,1.253,0,0,1-.838.252C17.667,57.444,17.315,57.057,17.315,56.292Z" transform="translate(0 -2.179)"/>
      <path d="M20.349,52.988h1.08v.6a1.479,1.479,0,0,1,1.188-.7v1.053a1.108,1.108,0,0,0-.261-.027,1.2,1.2,0,0,0-.927.523v2.9h-1.08Z" transform="translate(0 -2.179)"/>
      <path d="M23.66,51.7a.649.649,0,1,1,1.3,0,.649.649,0,1,1-1.3,0Zm.109,1.288h1.08v4.348h-1.08Z" transform="translate(0 -2.179)"/>
      <path d="M28.125,52.88a1.732,1.732,0,0,1,1.386.585l-.54.747a.91.91,0,0,0-.729-.378c-.622,0-.991.567-.991,1.323s.369,1.333.991,1.333a.911.911,0,0,0,.729-.379l.54.748a1.732,1.732,0,0,1-1.386.585,2.3,2.3,0,0,1,0-4.564Z" transform="translate(0 -2.179)"/>
      <path d="M33.371,55.743a1.968,1.968,0,0,0,1.441.639c.54,0,.828-.3.828-.666,0-.459-.432-.657-.982-.892-.756-.3-1.7-.657-1.7-1.845a1.8,1.8,0,0,1,1.981-1.747,2.6,2.6,0,0,1,1.818.666l-.576.9a1.839,1.839,0,0,0-1.27-.5c-.45,0-.72.252-.72.612,0,.405.414.594.955.82.774.3,1.719.7,1.719,1.889a1.806,1.806,0,0,1-2.035,1.828,2.774,2.774,0,0,1-2.052-.774Z" transform="translate(0 -2.179)"/>
      <path d="M39.861,52.88c1.2,0,1.872.973,1.872,2.322v.307H39.006a1.034,1.034,0,0,0,1.053,1.062A1.31,1.31,0,0,0,41,56.147l.5.649a2.119,2.119,0,0,1-1.557.648,2.3,2.3,0,0,1-.081-4.564Zm-.855,1.891h1.683c-.018-.451-.216-1.018-.846-1.018C39.24,53.753,39.023,54.32,39.006,54.771Z" transform="translate(0 -2.179)"/>
      <path d="M42.992,52.988h1.08v.6a1.481,1.481,0,0,1,1.189-.7v1.053A1.114,1.114,0,0,0,45,53.915a1.2,1.2,0,0,0-.928.523v2.9h-1.08Z" transform="translate(0 -2.179)"/>
      <path d="M45.908,52.988h1.153l.873,3.052.881-3.052h1.153l-1.449,4.348H47.357Z" transform="translate(0 -2.179)"/>
      <path d="M50.858,51.7a.649.649,0,1,1,1.3,0,.649.649,0,1,1-1.3,0Zm.109,1.288h1.08v4.348h-1.08Z" transform="translate(0 -2.179)"/>
      <path d="M55.323,52.88a1.732,1.732,0,0,1,1.386.585l-.54.747a.909.909,0,0,0-.729-.378c-.622,0-.991.567-.991,1.323s.369,1.333.991,1.333a.91.91,0,0,0,.729-.379l.54.748a1.732,1.732,0,0,1-1.386.585,2.3,2.3,0,0,1,0-4.564Z" transform="translate(0 -2.179)"/>
      <path d="M59.606,52.88c1.2,0,1.873.973,1.873,2.322v.307H58.751A1.034,1.034,0,0,0,59.8,56.571a1.311,1.311,0,0,0,.945-.424l.495.649a2.119,2.119,0,0,1-1.556.648,2.3,2.3,0,0,1-.082-4.564Zm-.855,1.891h1.684c-.019-.451-.217-1.018-.847-1.018C58.984,53.753,58.769,54.32,58.751,54.771Z" transform="translate(0 -2.179)"/>
      <path d="M63.387,52.925a.7.7,0,0,1,.692.693.706.706,0,0,1-.692.7.715.715,0,0,1-.7-.7A.707.707,0,0,1,63.387,52.925Zm0,3.115a.7.7,0,1,1-.7.7A.715.715,0,0,1,63.387,56.04Z" transform="translate(0 -2.179)"/>
      <path d="M68.183,56.021a1.886,1.886,0,0,0,1.414.658.9.9,0,0,0,1.026-.891c0-.6-.54-.864-1.144-1.143-.729-.333-1.566-.694-1.566-1.783a1.66,1.66,0,0,1,1.8-1.63,2.286,2.286,0,0,1,1.656.639l-.432.649A1.665,1.665,0,0,0,69.687,52a.822.822,0,0,0-.9.818c0,.514.514.748,1.08,1.018.757.352,1.621.757,1.621,1.9a1.685,1.685,0,0,1-1.882,1.711,2.443,2.443,0,0,1-1.863-.756Z" transform="translate(0 -2.179)"/>
      <path d="M72.943,56.418V53.663h-.576v-.675h.576V51.8h.766v1.188h.729v.675h-.729v2.6c0,.306.107.495.342.495a.5.5,0,0,0,.369-.153l.2.577a1,1,0,0,1-.738.26C73.24,57.444,72.943,57.093,72.943,56.418Z" transform="translate(0 -2.179)"/>
      <path d="M78.029,56.886a1.4,1.4,0,0,1-1.143.558A1.338,1.338,0,0,1,75.562,56a1.314,1.314,0,0,1,1.324-1.423,1.362,1.362,0,0,1,1.143.54v-.693a.791.791,0,0,0-.864-.882,1.477,1.477,0,0,0-1.089.513l-.315-.54a2.087,2.087,0,0,1,1.53-.63A1.332,1.332,0,0,1,78.8,54.329v3.007h-.775Zm0-1.242a.993.993,0,0,0-.873-.523.9.9,0,0,0,0,1.783.992.992,0,0,0,.873-.522Z" transform="translate(0 -2.179)"/>
      <path d="M82.845,54.312c0-.55-.253-.748-.657-.748a1.169,1.169,0,0,0-.956.648v3.124h-.773V52.988h.773v.6a1.617,1.617,0,0,1,1.261-.711c.756,0,1.116.414,1.116,1.18v3.276h-.764Z" transform="translate(0 -2.179)"/>
      <path d="M87.768,56.742a1.369,1.369,0,0,1-1.134.7c-.973,0-1.576-.891-1.576-2.277,0-1.36.594-2.287,1.576-2.287a1.325,1.325,0,0,1,1.134.711v-2.26h.765v6h-.765Zm0-2.52a1.111,1.111,0,0,0-.918-.658c-.666,0-.991.711-.991,1.6s.325,1.593.991,1.593a1.1,1.1,0,0,0,.918-.649Z" transform="translate(0 -2.179)"/>
      <path d="M92.438,56.886a1.4,1.4,0,0,1-1.143.558A1.337,1.337,0,0,1,89.972,56,1.314,1.314,0,0,1,91.3,54.572a1.362,1.362,0,0,1,1.143.54v-.693a.791.791,0,0,0-.864-.882,1.477,1.477,0,0,0-1.089.513l-.315-.54a2.087,2.087,0,0,1,1.53-.63,1.332,1.332,0,0,1,1.513,1.449v3.007h-.775Zm0-1.242a.993.993,0,0,0-.873-.523.9.9,0,0,0,0,1.783.992.992,0,0,0,.873-.522Z" transform="translate(0 -2.179)"/>
      <path d="M94.868,52.988h.774v.666a1.461,1.461,0,0,1,1.215-.765v.783a.907.907,0,0,0-.225-.026,1.251,1.251,0,0,0-.99.657v3.033h-.774Z" transform="translate(0 -2.179)"/>
      <path d="M100.593,56.742a1.369,1.369,0,0,1-1.134.7c-.973,0-1.576-.891-1.576-2.277,0-1.36.595-2.287,1.576-2.287a1.324,1.324,0,0,1,1.134.711v-2.26h.765v6h-.765Zm0-2.52a1.109,1.109,0,0,0-.918-.658c-.666,0-.99.711-.99,1.6s.324,1.593.99,1.593a1.1,1.1,0,0,0,.918-.649Z" transform="translate(0 -2.179)"/>
      <path d="M109.764,52.727l-1.522,4.609H107.9l-1.512-4.609v4.609h-.855v-6h1.179l1.359,4.142,1.378-4.142h1.161v6h-.846Z" transform="translate(0 -2.179)"/>
      <path d="M113.912,52.88c1.162,0,1.765,1.017,1.765,2.3v.224h-2.79c.035.793.449,1.4,1.2,1.4a1.325,1.325,0,0,0,1-.5l.4.468a1.921,1.921,0,0,1-1.467.675c-1.18,0-1.918-.945-1.918-2.287C112.094,53.9,112.778,52.88,113.912,52.88Zm-1.035,1.98h2.044c-.009-.6-.279-1.341-1.018-1.341C113.184,53.519,112.9,54.275,112.877,54.86Z" transform="translate(0 -2.179)"/>
      <path d="M117.241,56.418V53.663h-.576v-.675h.576V51.8h.766v1.188h.729v.675h-.729v2.6c0,.306.108.495.342.495a.5.5,0,0,0,.369-.153l.2.577a1,1,0,0,1-.738.26C117.539,57.444,117.241,57.093,117.241,56.418Z" transform="translate(0 -2.179)"/>
      <path d="M121.688,52.88c1.162,0,1.764,1.017,1.764,2.3v.224h-2.79c.035.793.449,1.4,1.2,1.4a1.323,1.323,0,0,0,1-.5l.4.468a1.923,1.923,0,0,1-1.468.675c-1.18,0-1.918-.945-1.918-2.287C119.869,53.9,120.554,52.88,121.688,52.88Zm-1.036,1.98H122.7c-.008-.6-.279-1.341-1.017-1.341C120.959,53.519,120.68,54.275,120.652,54.86Z" transform="translate(0 -2.179)"/>
      <path d="M124.865,52.988h.774v.666a1.461,1.461,0,0,1,1.215-.765v.783a.907.907,0,0,0-.225-.026,1.251,1.251,0,0,0-.99.657v3.033h-.774Z" transform="translate(0 -2.179)"/>
      <path d="M4.834,63.727,3.312,68.336H2.971L1.458,63.727v4.609H.6v-6H1.782l1.36,4.142L4.52,62.331H5.681v6H4.834Z" transform="translate(0 -2.179)"/>
      <path d="M8.982,63.88c1.163,0,1.765,1.017,1.765,2.3v.224H7.957c.035.793.449,1.4,1.2,1.4a1.323,1.323,0,0,0,1-.5l.4.468a1.923,1.923,0,0,1-1.468.675c-1.18,0-1.918-.945-1.918-2.287C7.164,64.9,7.849,63.88,8.982,63.88ZM7.947,65.86H9.991c-.009-.6-.279-1.341-1.017-1.341C8.254,64.519,7.975,65.275,7.947,65.86Z" transform="translate(0 -2.179)"/>
      <path d="M12.312,67.418V64.663h-.577v-.675h.577V62.8h.765v1.188h.73v.675h-.73v2.6c0,.306.109.5.342.5a.5.5,0,0,0,.369-.153l.2.577a1,1,0,0,1-.738.26C12.609,68.444,12.312,68.093,12.312,67.418Z" transform="translate(0 -2.179)"/>
      <path d="M16.758,63.88c1.162,0,1.764,1.017,1.764,2.3v.224h-2.79c.036.793.45,1.4,1.2,1.4a1.327,1.327,0,0,0,1-.5l.4.468a1.923,1.923,0,0,1-1.468.675c-1.179,0-1.918-.945-1.918-2.287C14.939,64.9,15.624,63.88,16.758,63.88Zm-1.035,1.98h2.044c-.009-.6-.28-1.341-1.018-1.341C16.029,64.519,15.75,65.275,15.723,65.86Z" transform="translate(0 -2.179)"/>
      <path d="M19.936,63.988h.773v.666a1.461,1.461,0,0,1,1.216-.765v.783a.915.915,0,0,0-.226-.026,1.252,1.252,0,0,0-.99.657v3.033h-.773Z" transform="translate(0 -2.179)"/>
      <path d="M26.531,63.942v4.394h-.854v-6h.864l2.313,4.259V62.331h.856v6h-.819Z" transform="translate(0 -2.179)"/>
      <path d="M33.8,67.751a1.6,1.6,0,0,1-1.27.693c-.756,0-1.116-.387-1.116-1.171V63.988h.774v3.043c0,.54.252.729.657.729a1.175,1.175,0,0,0,.955-.63V63.988h.765v4.348H33.8Z" transform="translate(0 -2.179)"/>
      <path d="M40.7,65.248c0-.441-.179-.684-.576-.684a1.114,1.114,0,0,0-.891.648v3.124h-.765V65.248c0-.432-.18-.684-.585-.684a1.148,1.148,0,0,0-.883.648v3.124h-.773V63.988H37v.6a1.5,1.5,0,0,1,1.2-.711.926.926,0,0,1,1,.774,1.5,1.5,0,0,1,1.234-.774c.657,0,1.035.35,1.035,1.135v3.321H40.7Z" transform="translate(0 -2.179)"/>
      <path d="M43.128,62.331H43.9v2.26a1.3,1.3,0,0,1,1.126-.711c.982,0,1.576.927,1.576,2.287,0,1.386-.594,2.277-1.576,2.277a1.345,1.345,0,0,1-1.126-.7v.594h-.773Zm1.683,5.429c.675,0,.991-.7.991-1.593s-.316-1.6-.991-1.6a1.1,1.1,0,0,0-.91.666v1.881A1.1,1.1,0,0,0,44.811,67.76Z" transform="translate(0 -2.179)"/>
      <path d="M49.652,63.88c1.162,0,1.765,1.017,1.765,2.3v.224h-2.79c.035.793.449,1.4,1.2,1.4a1.325,1.325,0,0,0,1-.5l.4.468a1.923,1.923,0,0,1-1.468.675c-1.18,0-1.918-.945-1.918-2.287C47.834,64.9,48.519,63.88,49.652,63.88Zm-1.035,1.98h2.044c-.009-.6-.279-1.341-1.017-1.341C48.924,64.519,48.645,65.275,48.617,65.86Z" transform="translate(0 -2.179)"/>
      <path d="M52.83,63.988H53.6v.666a1.461,1.461,0,0,1,1.215-.765v.783a.907.907,0,0,0-.225-.026,1.251,1.251,0,0,0-.99.657v3.033H52.83Z" transform="translate(0 -2.179)"/>
      <path d="M56.564,63.925a.54.54,0,1,1-.549.54A.547.547,0,0,1,56.564,63.925Zm0,3.421a.54.54,0,1,1-.549.54A.547.547,0,0,1,56.564,67.346Z" transform="translate(0 -2.179)"/>
      <path d="M61.6,66.94a1.4,1.4,0,0,0,1.26.739,1.088,1.088,0,0,0,1.027-1.2c0-.783-.378-1.214-.981-1.214a1.246,1.246,0,0,0-1.054.54l-.629-.2V62.331H64.44v.757H62.081v1.944a1.418,1.418,0,0,1,1.107-.513c.874,0,1.577.684,1.577,1.936a1.853,1.853,0,0,1-1.873,1.989,2.01,2.01,0,0,1-1.837-.972Z" transform="translate(0 -2.179)"/>
      <path d="M66.653,66.94a1.4,1.4,0,0,0,1.26.739,1.087,1.087,0,0,0,1.026-1.2c0-.783-.377-1.214-.98-1.214a1.246,1.246,0,0,0-1.054.54l-.63-.2V62.331h3.214v.757H67.13v1.944a1.416,1.416,0,0,1,1.107-.513c.874,0,1.576.684,1.576,1.936a1.852,1.852,0,0,1-1.873,1.989,2.01,2.01,0,0,1-1.836-.972Z" transform="translate(0 -2.179)"/>
      <path d="M71.7,66.94a1.4,1.4,0,0,0,1.26.739,1.087,1.087,0,0,0,1.026-1.2c0-.783-.378-1.214-.98-1.214a1.246,1.246,0,0,0-1.054.54l-.63-.2V62.331h3.214v.757H72.179v1.944a1.416,1.416,0,0,1,1.107-.513c.874,0,1.576.684,1.576,1.936a1.853,1.853,0,0,1-1.873,1.989,2.013,2.013,0,0,1-1.837-.972Z" transform="translate(0 -2.179)"/>
      <path d="M76.751,66.94a1.4,1.4,0,0,0,1.26.739,1.088,1.088,0,0,0,1.026-1.2c0-.783-.378-1.214-.98-1.214a1.244,1.244,0,0,0-1.054.54l-.63-.2V62.331h3.214v.757H77.228v1.944a1.415,1.415,0,0,1,1.107-.513c.874,0,1.576.684,1.576,1.936a1.853,1.853,0,0,1-1.873,1.989,2.013,2.013,0,0,1-1.837-.972Z" transform="translate(0 -2.179)"/>
      <path d="M81.8,66.94a1.4,1.4,0,0,0,1.26.739,1.088,1.088,0,0,0,1.026-1.2c0-.783-.378-1.214-.981-1.214a1.243,1.243,0,0,0-1.053.54l-.63-.2V62.331h3.214v.757h-2.36v1.944a1.418,1.418,0,0,1,1.108-.513c.874,0,1.576.684,1.576,1.936a1.853,1.853,0,0,1-1.873,1.989,2.012,2.012,0,0,1-1.837-.972Z" transform="translate(0 -2.179)"/>
      <path d="M86.849,66.94a1.4,1.4,0,0,0,1.259.739,1.088,1.088,0,0,0,1.027-1.2c0-.783-.378-1.214-.981-1.214a1.243,1.243,0,0,0-1.053.54l-.63-.2V62.331h3.214v.757h-2.36v1.944a1.418,1.418,0,0,1,1.108-.513c.874,0,1.576.684,1.576,1.936a1.853,1.853,0,0,1-1.873,1.989,2.01,2.01,0,0,1-1.837-.972Z" transform="translate(0 -2.179)"/>
      <path d="M91.9,66.94a1.4,1.4,0,0,0,1.26.739,1.088,1.088,0,0,0,1.027-1.2c0-.783-.378-1.214-.981-1.214a1.244,1.244,0,0,0-1.054.54l-.629-.2V62.331h3.213v.757H92.375v1.944a1.418,1.418,0,0,1,1.107-.513c.874,0,1.577.684,1.577,1.936a1.853,1.853,0,0,1-1.873,1.989,2.008,2.008,0,0,1-1.836-.972Z" transform="translate(0 -2.179)"/>
      <path d="M96.947,66.94a1.4,1.4,0,0,0,1.26.739,1.087,1.087,0,0,0,1.026-1.2c0-.783-.378-1.214-.98-1.214a1.244,1.244,0,0,0-1.054.54l-.63-.2V62.331h3.214v.757H97.424v1.944a1.416,1.416,0,0,1,1.107-.513c.874,0,1.576.684,1.576,1.936a1.852,1.852,0,0,1-1.873,1.989,2.01,2.01,0,0,1-1.836-.972Z" transform="translate(0 -2.179)"/>
      <path d="M.6,73.331H2.539a1.841,1.841,0,0,1,0,3.674H1.458v2.331H.6Zm1.835.757H1.458v2.16h.981a1.091,1.091,0,0,0,0-2.16Z" transform="translate(0 -2.179)"/>
      <path d="M7.759,73.232c1.494,0,2.349,1.351,2.349,3.106s-.855,3.106-2.349,3.106-2.332-1.35-2.332-3.106S6.273,73.232,7.759,73.232Zm0,.766C6.813,74,6.3,75.015,6.3,76.338c0,1.306.512,2.341,1.458,2.341s1.468-1.035,1.468-2.341C9.227,75.015,8.7,74,7.759,74Z" transform="translate(0 -2.179)"/>
      <path d="M11.638,73.331H13.33c1.584,0,2.476,1.278,2.476,3.007s-.882,3-2.467,3h-1.7ZM13.33,78.58c1.053,0,1.594-.954,1.594-2.242,0-1.3-.531-2.25-1.594-2.25h-.838V78.58Z" transform="translate(0 -2.179)"/>
      <path d="M20.654,74.942v4.394H19.8v-6h.864l2.314,4.259V73.331h.855v6h-.819Z" transform="translate(0 -2.179)"/>
      <path d="M27.919,78.751a1.6,1.6,0,0,1-1.27.693c-.756,0-1.116-.387-1.116-1.171V74.988h.774v3.043c0,.54.252.729.657.729a1.175,1.175,0,0,0,.955-.63V74.988h.765v4.348h-.765Z" transform="translate(0 -2.179)"/>
      <path d="M34.822,76.248c0-.441-.179-.684-.576-.684a1.114,1.114,0,0,0-.891.648v3.124H32.59V76.248c0-.432-.18-.684-.585-.684a1.148,1.148,0,0,0-.883.648v3.124h-.773V74.988h.773v.6a1.5,1.5,0,0,1,1.2-.711.926.926,0,0,1,1,.774,1.5,1.5,0,0,1,1.234-.774c.657,0,1.035.35,1.035,1.135v3.321h-.766Z" transform="translate(0 -2.179)"/>
      <path d="M37.251,73.331h.773v2.26a1.3,1.3,0,0,1,1.126-.711c.982,0,1.576.927,1.576,2.287,0,1.386-.594,2.277-1.576,2.277a1.345,1.345,0,0,1-1.126-.7v.594h-.773Zm1.683,5.429c.675,0,.991-.7.991-1.593s-.316-1.6-.991-1.6a1.1,1.1,0,0,0-.91.666v1.881A1.1,1.1,0,0,0,38.934,78.76Z" transform="translate(0 -2.179)"/>
      <path d="M43.775,74.88c1.163,0,1.765,1.017,1.765,2.305v.224H42.75c.035.793.449,1.4,1.2,1.4a1.323,1.323,0,0,0,1-.5l.4.468a1.923,1.923,0,0,1-1.468.675c-1.18,0-1.918-.945-1.918-2.287C41.957,75.9,42.642,74.88,43.775,74.88ZM42.74,76.86h2.044c-.009-.6-.279-1.341-1.017-1.341C43.047,75.519,42.768,76.275,42.74,76.86Z" transform="translate(0 -2.179)"/>
      <path d="M46.953,74.988h.774v.666a1.461,1.461,0,0,1,1.215-.765v.783a.907.907,0,0,0-.225-.026,1.251,1.251,0,0,0-.99.657v3.033h-.774Z" transform="translate(0 -2.179)"/>
      <path d="M50.688,74.925a.54.54,0,1,1-.55.54A.548.548,0,0,1,50.688,74.925Zm0,3.421a.54.54,0,1,1-.55.54A.548.548,0,0,1,50.688,78.346Z" transform="translate(0 -2.179)"/>
      <path d="M57.339,77.869H54.944V77.14L57.1,73.331h1.1v3.781h.639v.757h-.639v1.467h-.855Zm-1.611-.757h1.611V74.24Z" transform="translate(0 -2.179)"/>
      <path d="M62.172,77.869H59.777V77.14l2.152-3.809h1.1v3.781h.639v.757h-.639v1.467h-.855Zm-1.611-.757h1.611V74.24Z" transform="translate(0 -2.179)"/>
      <path d="M67.005,77.869H64.61V77.14l2.152-3.809h1.1v3.781H68.5v.757H67.86v1.467h-.855Zm-1.611-.757h1.611V74.24Z" transform="translate(0 -2.179)"/>
      <path d="M71.838,77.869H69.443V77.14L71.6,73.331h1.1v3.781h.639v.757h-.639v1.467h-.855Zm-1.611-.757h1.611V74.24Z" transform="translate(0 -2.179)"/>
      <path d="M76.671,77.869h-2.4V77.14l2.152-3.809h1.1v3.781h.639v.757h-.639v1.467h-.855Zm-1.611-.757h1.611V74.24Z" transform="translate(0 -2.179)"/>
      <path d="M81.5,77.869H79.108V77.14l2.152-3.809h1.1v3.781H83v.757h-.639v1.467H81.5Zm-1.611-.757H81.5V74.24Z" transform="translate(0 -2.179)"/>
      <path d="M86.336,77.869H83.941V77.14l2.152-3.809h1.1v3.781h.639v.757h-.639v1.467h-.855Zm-1.611-.757h1.611V74.24Z" transform="translate(0 -2.179)"/>
      <path d="M91.169,77.869H88.774V77.14l2.152-3.809h1.1v3.781h.639v.757h-.639v1.467h-.855Zm-1.611-.757h1.611V74.24Z" transform="translate(0 -2.179)"/>
      <path d="M96,77.869H93.607V77.14l2.152-3.809h1.1v3.781H97.5v.757h-.639v1.467H96Zm-1.611-.757H96V74.24Z" transform="translate(0 -2.179)"/>
      <path d="M100.835,77.869H98.44V77.14l2.152-3.809h1.1v3.781h.639v.757h-.639v1.467h-.855Zm-1.611-.757h1.611V74.24Z" transform="translate(0 -2.179)"/>
      <path d="M105.668,77.869h-2.4V77.14l2.152-3.809h1.1v3.781h.639v.757h-.639v1.467h-.855Zm-1.611-.757h1.611V74.24Z" transform="translate(0 -2.179)"/>
      <path d="M110.5,77.869h-2.4V77.14l2.152-3.809h1.1v3.781H112v.757h-.639v1.467H110.5Zm-1.611-.757H110.5V74.24Z" transform="translate(0 -2.179)"/>
      <path d="M115.334,77.869h-2.4V77.14l2.152-3.809h1.1v3.781h.639v.757h-.639v1.467h-.855Zm-1.611-.757h1.611V74.24Z" transform="translate(0 -2.179)"/>
      <path d="M2.26,88.005h-.8v2.331H.6v-6H2.557a1.676,1.676,0,0,1,1.7,1.828A1.576,1.576,0,0,1,3.1,87.86l1.215,2.476H3.349Zm.179-2.917H1.458v2.16h.981a1.091,1.091,0,0,0,0-2.16Z" transform="translate(0 -2.179)"/>
      <path d="M7.164,85.88c1.162,0,1.765,1.017,1.765,2.305v.224H6.139c.035.793.449,1.4,1.2,1.4a1.325,1.325,0,0,0,1-.5l.4.468a1.921,1.921,0,0,1-1.467.675c-1.18,0-1.918-.945-1.918-2.287C5.346,86.9,6.03,85.88,7.164,85.88ZM6.129,87.86H8.173c-.009-.6-.279-1.341-1.018-1.341C6.436,86.519,6.156,87.275,6.129,87.86Z" transform="translate(0 -2.179)"/>
      <path d="M12.583,89.886a1.4,1.4,0,0,1-1.144.558A1.337,1.337,0,0,1,10.116,89a1.314,1.314,0,0,1,1.323-1.423,1.364,1.364,0,0,1,1.144.54v-.693a.792.792,0,0,0-.864-.882,1.476,1.476,0,0,0-1.089.513l-.316-.54a2.089,2.089,0,0,1,1.531-.63,1.331,1.331,0,0,1,1.512,1.449v3.007h-.774Zm0-1.242a.994.994,0,0,0-.873-.523.9.9,0,0,0,0,1.783.993.993,0,0,0,.873-.522Z" transform="translate(0 -2.179)"/>
      <path d="M17.506,89.742a1.369,1.369,0,0,1-1.134.7c-.973,0-1.576-.891-1.576-2.277,0-1.36.6-2.287,1.576-2.287a1.324,1.324,0,0,1,1.134.711v-2.26h.765v6h-.765Zm0-2.52a1.109,1.109,0,0,0-.918-.658c-.666,0-.99.711-.99,1.6s.324,1.593.99,1.593a1.1,1.1,0,0,0,.918-.649Z" transform="translate(0 -2.179)"/>
      <path d="M22.446,84.331h1.693c1.584,0,2.475,1.278,2.475,3.007s-.882,3-2.467,3h-1.7Zm1.693,5.249c1.052,0,1.593-.954,1.593-2.242,0-1.3-.531-2.25-1.593-2.25H23.3V89.58Z" transform="translate(0 -2.179)"/>
      <path d="M30.34,89.886a1.4,1.4,0,0,1-1.144.558A1.337,1.337,0,0,1,27.873,89,1.314,1.314,0,0,1,29.2,87.572a1.365,1.365,0,0,1,1.144.54v-.693a.792.792,0,0,0-.864-.882,1.476,1.476,0,0,0-1.089.513l-.316-.54a2.089,2.089,0,0,1,1.531-.63,1.331,1.331,0,0,1,1.512,1.449v3.007H30.34Zm0-1.242a1,1,0,0,0-.873-.523.9.9,0,0,0,0,1.783.994.994,0,0,0,.873-.522Z" transform="translate(0 -2.179)"/>
      <path d="M32.922,89.418V86.663h-.576v-.675h.576V84.8h.766v1.188h.729v.675h-.729v2.6c0,.306.107.5.341.5a.5.5,0,0,0,.369-.153l.2.577a1,1,0,0,1-.739.26C33.219,90.444,32.922,90.093,32.922,89.418Z" transform="translate(0 -2.179)"/>
      <path d="M37.369,85.88c1.161,0,1.764,1.017,1.764,2.305v.224h-2.79c.035.793.45,1.4,1.2,1.4a1.325,1.325,0,0,0,1-.5l.4.468a1.924,1.924,0,0,1-1.468.675c-1.18,0-1.918-.945-1.918-2.287C35.55,86.9,36.234,85.88,37.369,85.88Zm-1.036,1.98h2.044c-.009-.6-.279-1.341-1.018-1.341C36.64,86.519,36.36,87.275,36.333,87.86Z" transform="translate(0 -2.179)"/>
      <path d="M41.049,85.925a.54.54,0,1,1-.55.54A.548.548,0,0,1,41.049,85.925Zm0,3.421a.54.54,0,1,1-.55.54A.548.548,0,0,1,41.049,89.346Z" transform="translate(0 -2.179)"/>
      <path d="M45.891,88.932a1.513,1.513,0,0,0,1.287.747.945.945,0,0,0,1.035-1.044c0-.747-.495-.99-1.1-.99-.189,0-.414,0-.5.008v-.774c.081.009.324.009.477.009.594,0,1.036-.3,1.036-.918a.889.889,0,0,0-.982-.963,1.479,1.479,0,0,0-1.215.675l-.513-.487a2.069,2.069,0,0,1,1.782-.954,1.569,1.569,0,0,1,1.782,1.6A1.415,1.415,0,0,1,47.9,87.23a1.473,1.473,0,0,1,1.17,1.477,1.689,1.689,0,0,1-1.863,1.737,2.126,2.126,0,0,1-1.863-.99Z" transform="translate(0 -2.179)"/>
      <path d="M51.741,84.151h.585L50.6,90.517h-.585Z" transform="translate(0 -2.179)"/>
      <path d="M53.648,88.932a1.516,1.516,0,0,0,1.288.747.945.945,0,0,0,1.035-1.044c0-.747-.495-.99-1.1-.99-.189,0-.414,0-.495.008v-.774c.081.009.324.009.476.009.595,0,1.037-.3,1.037-.918a.89.89,0,0,0-.982-.963,1.482,1.482,0,0,0-1.216.675l-.512-.487a2.067,2.067,0,0,1,1.782-.954,1.569,1.569,0,0,1,1.782,1.6,1.415,1.415,0,0,1-1.089,1.386,1.473,1.473,0,0,1,1.17,1.477,1.689,1.689,0,0,1-1.863,1.737,2.126,2.126,0,0,1-1.863-.99Z" transform="translate(0 -2.179)"/>
      <path d="M60.111,84.241c1.422,0,1.945,1.494,1.945,3.1s-.513,3.106-1.945,3.106-1.954-1.5-1.954-3.106S58.68,84.241,60.111,84.241Zm0,.766c-.864,0-1.08,1.152-1.08,2.331s.216,2.341,1.08,2.341,1.072-1.17,1.072-2.341S60.967,85.007,60.111,85.007Z" transform="translate(0 -2.179)"/>
      <path d="M64.71,84.151H65.3l-1.729,6.366h-.585Z" transform="translate(0 -2.179)"/>
      <path d="M68.184,87.95l-1.315,2.386h-.99l1.782-3.069-1.682-2.936h.99l1.215,2.26,1.206-2.26h1l-1.675,2.936,1.773,3.069H69.5Z" transform="translate(0 -2.179)"/>
      <path d="M73.422,87.95l-1.315,2.386h-.99L72.9,87.267l-1.682-2.936h.99l1.215,2.26,1.206-2.26h1l-1.675,2.936,1.774,3.069h-.991Z" transform="translate(0 -2.179)"/>
      <path d="M.6,95.331H2.539a1.841,1.841,0,0,1,0,3.674H1.458v2.331H.6Zm1.835.757H1.458v2.16h.981a1.091,1.091,0,0,0,0-2.16Z" transform="translate(0 -2.179)"/>
      <path d="M5.6,96.988h.773v.666a1.463,1.463,0,0,1,1.216-.765v.783a.915.915,0,0,0-.226-.026,1.254,1.254,0,0,0-.99.657v3.033H5.6Z" transform="translate(0 -2.179)"/>
      <path d="M10.432,96.88c1.161,0,1.763,1.017,1.763,2.305v.224H9.4c.035.793.45,1.4,1.2,1.4a1.327,1.327,0,0,0,1-.5l.4.468a1.923,1.923,0,0,1-1.468.675c-1.179,0-1.918-.945-1.918-2.287C8.612,97.9,9.3,96.88,10.432,96.88ZM9.4,98.86h2.043c-.008-.6-.279-1.341-1.017-1.341C9.7,97.519,9.423,98.275,9.4,98.86Z" transform="translate(0 -2.179)"/>
      <path d="M13.086,96.988h.828l1.018,3.43,1.035-3.43h.819l-1.432,4.348h-.836Z" transform="translate(0 -2.179)"/>
      <path d="M17.8,95.764a.508.508,0,0,1,.5-.5.5.5,0,0,1,.5.5.5.5,0,0,1-.5.5A.5.5,0,0,1,17.8,95.764Zm.117,1.224h.773v4.348h-.773Z" transform="translate(0 -2.179)"/>
      <path d="M20.133,99.157c0-1.223.631-2.277,1.828-2.277s1.827,1.054,1.827,2.277-.63,2.287-1.827,2.287S20.133,100.382,20.133,99.157Zm2.854,0c0-.828-.315-1.593-1.026-1.593s-1.018.765-1.018,1.593.316,1.6,1.018,1.6S22.987,100,22.987,99.157Z" transform="translate(0 -2.179)"/>
      <path d="M27.613,100.751a1.593,1.593,0,0,1-1.269.693c-.757,0-1.116-.387-1.116-1.171V96.988H26v3.043c0,.54.253.729.657.729a1.174,1.174,0,0,0,.955-.63V96.988h.765v4.348h-.765Z" transform="translate(0 -2.179)"/>
      <path d="M30.06,100.283a1.6,1.6,0,0,0,1.161.54c.477,0,.774-.234.774-.6,0-.414-.405-.594-.864-.775-.6-.224-1.3-.486-1.3-1.359a1.271,1.271,0,0,1,1.44-1.206,1.876,1.876,0,0,1,1.377.558l-.341.531a1.3,1.3,0,0,0-1.027-.468c-.432,0-.721.226-.721.54,0,.369.388.531.829.711.612.226,1.341.505,1.341,1.423a1.327,1.327,0,0,1-1.5,1.269,1.976,1.976,0,0,1-1.53-.612Z" transform="translate(0 -2.179)"/>
      <path d="M34.632,96.925a.54.54,0,1,1-.55.54A.548.548,0,0,1,34.632,96.925Zm0,3.421a.54.54,0,1,1-.55.54A.548.548,0,0,1,34.632,100.346Z" transform="translate(0 -2.179)"/>
      <path d="M41.211,95.241a1.731,1.731,0,0,1,1.44.721l-.45.621a1.059,1.059,0,0,0-.981-.576c-.891,0-1.279,1.134-1.279,2.223v.153a1.547,1.547,0,0,1,1.315-.846c.883,0,1.6.649,1.6,1.927a1.826,1.826,0,0,1-1.791,1.98c-1.485,0-1.99-1.485-1.99-3.106C39.077,96.682,39.734,95.241,41.211,95.241Zm-.2,3.034a1.319,1.319,0,0,0-1.062.829c.045.648.27,1.575,1.071,1.575.666,0,.963-.621.963-1.189C41.985,98.608,41.544,98.275,41.013,98.275Z" transform="translate(0 -2.179)"/>
      <path d="M45.3,98.239a1.569,1.569,0,0,1-1.09-1.458,1.794,1.794,0,1,1,2.458,1.458,1.811,1.811,0,0,1,1.189,1.6,1.645,1.645,0,0,1-1.865,1.6c-1.1,0-1.872-.594-1.872-1.6A1.8,1.8,0,0,1,45.3,98.239Zm.692.352a1.278,1.278,0,0,0-1.008,1.142,1.006,1.006,0,0,0,2.008,0A1.29,1.29,0,0,0,45.989,98.591Zm0-2.584a.854.854,0,0,0-.927.9c0,.675.694.954.927,1.017.226-.063.919-.342.919-1.017A.855.855,0,0,0,45.989,96.007Z" transform="translate(0 -2.179)"/>
      <path d="M50.311,98.239a1.569,1.569,0,0,1-1.09-1.458,1.794,1.794,0,1,1,2.458,1.458,1.811,1.811,0,0,1,1.188,1.6,1.644,1.644,0,0,1-1.864,1.6c-1.1,0-1.872-.594-1.872-1.6A1.8,1.8,0,0,1,50.311,98.239Zm.692.352A1.277,1.277,0,0,0,50,99.733a1.006,1.006,0,0,0,2.008,0A1.29,1.29,0,0,0,51,98.591Zm0-2.584a.853.853,0,0,0-.927.9c0,.675.694.954.927,1.017.226-.063.919-.342.919-1.017A.855.855,0,0,0,51,96.007Z" transform="translate(0 -2.179)"/>
      <path d="M54.773,100.1a1.1,1.1,0,0,0,.982.567c.918,0,1.278-1.144,1.278-2.215v-.171a1.55,1.55,0,0,1-1.3.856c-.882,0-1.612-.649-1.612-1.927a1.832,1.832,0,0,1,1.792-1.981c1.477,0,2,1.486,2,3.106,0,1.657-.666,3.1-2.142,3.1a1.685,1.685,0,0,1-1.431-.721ZM55.962,96c-.675,0-.972.621-.972,1.188,0,.882.449,1.215.963,1.215a1.27,1.27,0,0,0,1.063-.828C56.988,96.925,56.754,96,55.962,96Z" transform="translate(0 -2.179)"/>
      <path d="M59.615,99.932a1.516,1.516,0,0,0,1.287.747.945.945,0,0,0,1.036-1.044c0-.747-.5-.99-1.1-.99-.19,0-.414,0-.5.008v-.774c.081.009.324.009.476.009.595,0,1.036-.3,1.036-.918a.889.889,0,0,0-.981-.963,1.481,1.481,0,0,0-1.216.675l-.513-.487a2.069,2.069,0,0,1,1.783-.954,1.569,1.569,0,0,1,1.782,1.6,1.416,1.416,0,0,1-1.089,1.386,1.473,1.473,0,0,1,1.17,1.477,1.69,1.69,0,0,1-1.863,1.737,2.128,2.128,0,0,1-1.864-.99Z" transform="translate(0 -2.179)"/>
      <path d="M66.608,99.148a7.646,7.646,0,0,1,1.1-3.979l.513.3a9.208,9.208,0,0,0,0,7.354l-.513.307A7.647,7.647,0,0,1,66.608,99.148Z" transform="translate(0 -2.179)"/>
      <path d="M72.351,100.066H70.217l-.351,1.27h-.891l1.792-6h1.026l1.8,6H72.7ZM70.4,99.311h1.774l-.892-3.187Z" transform="translate(0 -2.179)"/>
      <path d="M76.355,96.88a1.537,1.537,0,0,1,1.289.585l-.406.522a.957.957,0,0,0-.81-.423c-.73,0-1.125.72-1.125,1.593s.395,1.6,1.125,1.6a.98.98,0,0,0,.81-.423l.406.522a1.513,1.513,0,0,1-1.289.585c-1.133,0-1.854-.981-1.854-2.287S75.222,96.88,76.355,96.88Z" transform="translate(0 -2.179)"/>
      <path d="M79.108,100.418V97.663h-.576v-.675h.576V95.8h.766v1.188h.73v.675h-.73v2.6c0,.306.108.5.342.5a.5.5,0,0,0,.369-.153l.2.577a1,1,0,0,1-.738.26C79.406,101.444,79.108,101.093,79.108,100.418Z" transform="translate(0 -2.179)"/>
      <path d="M84.339,100.751a1.6,1.6,0,0,1-1.27.693c-.757,0-1.116-.387-1.116-1.171V96.988h.774v3.043c0,.54.252.729.657.729a1.175,1.175,0,0,0,.955-.63V96.988H85.1v4.348h-.765Z" transform="translate(0 -2.179)"/>
      <path d="M89.01,100.886a1.4,1.4,0,0,1-1.144.558A1.337,1.337,0,0,1,86.543,100a1.314,1.314,0,0,1,1.323-1.423,1.365,1.365,0,0,1,1.144.54v-.693a.792.792,0,0,0-.864-.882,1.474,1.474,0,0,0-1.089.513l-.316-.54a2.088,2.088,0,0,1,1.53-.63,1.332,1.332,0,0,1,1.513,1.449v3.007H89.01Zm0-1.242a1,1,0,0,0-.873-.523.9.9,0,0,0,0,1.783.994.994,0,0,0,.873-.522Z" transform="translate(0 -2.179)"/>
      <path d="M91.439,95.331h.774v6h-.774Z" transform="translate(0 -2.179)"/>
      <path d="M93.473,95.467l.5-.3a7.653,7.653,0,0,1,0,7.959l-.5-.307a9.121,9.121,0,0,0,0-7.354Z" transform="translate(0 -2.179)"/>
      <path d="M.6,106.331H2.539a1.841,1.841,0,0,1,0,3.674H1.458v2.331H.6Zm1.835.757H1.458v2.16h.981a1.091,1.091,0,0,0,0-2.16Z" transform="translate(0 -2.179)"/>
      <path d="M5.6,107.988h.773v.666a1.463,1.463,0,0,1,1.216-.765v.783a.915.915,0,0,0-.226-.026,1.254,1.254,0,0,0-.99.657v3.033H5.6Z" transform="translate(0 -2.179)"/>
      <path d="M10.432,107.88c1.161,0,1.763,1.017,1.763,2.305v.224H9.4c.035.793.45,1.4,1.2,1.4a1.327,1.327,0,0,0,1-.5l.4.468a1.923,1.923,0,0,1-1.468.675c-1.179,0-1.918-.945-1.918-2.287C8.612,108.9,9.3,107.88,10.432,107.88ZM9.4,109.86h2.043c-.008-.6-.279-1.341-1.017-1.341C9.7,108.519,9.423,109.275,9.4,109.86Z" transform="translate(0 -2.179)"/>
      <path d="M13.626,111.283a1.6,1.6,0,0,0,1.161.54c.478,0,.775-.234.775-.6,0-.414-.406-.594-.865-.775-.6-.224-1.3-.486-1.3-1.359a1.272,1.272,0,0,1,1.441-1.206,1.876,1.876,0,0,1,1.377.558l-.342.531a1.3,1.3,0,0,0-1.026-.468c-.433,0-.721.226-.721.54,0,.369.388.531.828.711.612.226,1.342.505,1.342,1.423a1.327,1.327,0,0,1-1.5,1.269,1.973,1.973,0,0,1-1.53-.612Z" transform="translate(0 -2.179)"/>
      <path d="M19.3,107.88c1.161,0,1.764,1.017,1.764,2.305v.224h-2.79c.035.793.45,1.4,1.2,1.4a1.327,1.327,0,0,0,1-.5l.4.468a1.922,1.922,0,0,1-1.467.675c-1.18,0-1.918-.945-1.918-2.287C17.478,108.9,18.162,107.88,19.3,107.88Zm-1.036,1.98h2.044c-.009-.6-.28-1.341-1.018-1.341C18.567,108.519,18.288,109.275,18.261,109.86Z" transform="translate(0 -2.179)"/>
      <path d="M24.859,109.312c0-.55-.253-.748-.657-.748a1.167,1.167,0,0,0-.955.648v3.124h-.773v-4.348h.773v.6a1.616,1.616,0,0,1,1.261-.711c.756,0,1.116.414,1.116,1.18v3.276h-.765Z" transform="translate(0 -2.179)"/>
      <path d="M27.44,111.418v-2.755h-.576v-.675h.576V106.8h.766v1.188h.73v.675h-.73v2.6c0,.306.108.5.342.5a.5.5,0,0,0,.369-.153l.2.577a1,1,0,0,1-.738.26C27.738,112.444,27.44,112.093,27.44,111.418Z" transform="translate(0 -2.179)"/>
      <path d="M30.789,107.925a.54.54,0,1,1-.55.54A.548.548,0,0,1,30.789,107.925Zm0,3.421a.54.54,0,1,1-.55.54A.548.548,0,0,1,30.789,111.346Z" transform="translate(0 -2.179)"/>
      <path d="M37.368,106.241a1.734,1.734,0,0,1,1.441.721l-.451.621a1.059,1.059,0,0,0-.981-.576c-.891,0-1.278,1.134-1.278,2.223v.153a1.545,1.545,0,0,1,1.314-.846c.883,0,1.6.649,1.6,1.927a1.826,1.826,0,0,1-1.791,1.98c-1.486,0-1.991-1.485-1.991-3.106C35.234,107.682,35.892,106.241,37.368,106.241Zm-.2,3.034a1.319,1.319,0,0,0-1.062.829c.045.648.27,1.575,1.072,1.575.666,0,.963-.621.963-1.189C38.143,109.608,37.7,109.275,37.17,109.275Z" transform="translate(0 -2.179)"/>
      <path d="M40.9,111.1a1.1,1.1,0,0,0,.982.567c.918,0,1.278-1.144,1.278-2.215v-.171a1.551,1.551,0,0,1-1.306.856c-.881,0-1.611-.649-1.611-1.927a1.832,1.832,0,0,1,1.792-1.981c1.477,0,2,1.486,2,3.106,0,1.657-.666,3.1-2.142,3.1a1.685,1.685,0,0,1-1.431-.721Zm1.189-4.1c-.675,0-.972.621-.972,1.188,0,.882.449,1.215.963,1.215a1.269,1.269,0,0,0,1.062-.828C43.119,107.925,42.885,107,42.093,107Z" transform="translate(0 -2.179)"/>
      <path d="M45.747,110.932a1.514,1.514,0,0,0,1.287.747.945.945,0,0,0,1.035-1.044c0-.747-.5-.99-1.1-.99-.19,0-.414,0-.5.008v-.774c.081.009.324.009.476.009.595,0,1.035-.3,1.035-.918a.888.888,0,0,0-.98-.963,1.481,1.481,0,0,0-1.216.675l-.513-.487a2.069,2.069,0,0,1,1.783-.954,1.569,1.569,0,0,1,1.782,1.6,1.416,1.416,0,0,1-1.089,1.386,1.473,1.473,0,0,1,1.17,1.477,1.69,1.69,0,0,1-1.863,1.737,2.128,2.128,0,0,1-1.864-.99Z" transform="translate(0 -2.179)"/>
      <path d="M52.389,106.241a1.731,1.731,0,0,1,1.44.721l-.45.621a1.06,1.06,0,0,0-.982-.576c-.89,0-1.278,1.134-1.278,2.223v.153a1.547,1.547,0,0,1,1.315-.846c.882,0,1.6.649,1.6,1.927a1.826,1.826,0,0,1-1.791,1.98c-1.485,0-1.99-1.485-1.99-3.106C50.255,107.682,50.912,106.241,52.389,106.241Zm-.2,3.034a1.317,1.317,0,0,0-1.061.829c.045.648.269,1.575,1.071,1.575.666,0,.963-.621.963-1.189C53.163,109.608,52.722,109.275,52.19,109.275Z" transform="translate(0 -2.179)"/>
      <path d="M56.476,107.447l-.928.982-.5-.532,1.53-1.566h.747v6h-.845Z" transform="translate(0 -2.179)"/>
      <path d="M61.344,110.148a7.645,7.645,0,0,1,1.1-3.979l.513.3a9.208,9.208,0,0,0,0,7.354l-.513.307A7.646,7.646,0,0,1,61.344,110.148Z" transform="translate(0 -2.179)"/>
      <path d="M67.086,111.066H64.952l-.35,1.27H63.71l1.792-6h1.026l1.8,6h-.89Zm-1.953-.755h1.773l-.891-3.187Z" transform="translate(0 -2.179)"/>
      <path d="M71.091,107.88a1.535,1.535,0,0,1,1.288.585l-.405.522a.96.96,0,0,0-.811-.423c-.729,0-1.125.72-1.125,1.593s.4,1.6,1.125,1.6a.983.983,0,0,0,.811-.423l.405.522a1.511,1.511,0,0,1-1.288.585c-1.134,0-1.855-.981-1.855-2.287S69.957,107.88,71.091,107.88Z" transform="translate(0 -2.179)"/>
      <path d="M73.844,111.418v-2.755h-.576v-.675h.576V106.8h.765v1.188h.73v.675h-.73v2.6c0,.306.108.5.342.5a.5.5,0,0,0,.369-.153l.2.577a1,1,0,0,1-.739.26C74.141,112.444,73.844,112.093,73.844,111.418Z" transform="translate(0 -2.179)"/>
      <path d="M79.074,111.751a1.6,1.6,0,0,1-1.269.693c-.757,0-1.117-.387-1.117-1.171v-3.285h.774v3.043c0,.54.253.729.657.729a1.174,1.174,0,0,0,.955-.63v-3.142h.765v4.348h-.765Z" transform="translate(0 -2.179)"/>
      <path d="M83.745,111.886a1.4,1.4,0,0,1-1.143.558A1.337,1.337,0,0,1,81.278,111a1.314,1.314,0,0,1,1.324-1.423,1.363,1.363,0,0,1,1.143.54v-.693a.792.792,0,0,0-.864-.882,1.476,1.476,0,0,0-1.089.513l-.315-.54a2.085,2.085,0,0,1,1.53-.63,1.332,1.332,0,0,1,1.513,1.449v3.007h-.775Zm0-1.242a.994.994,0,0,0-.873-.523.9.9,0,0,0,0,1.783.993.993,0,0,0,.873-.522Z" transform="translate(0 -2.179)"/>
      <path d="M86.175,106.331h.773v6h-.773Z" transform="translate(0 -2.179)"/>
      <path d="M88.208,106.467l.5-.3a7.653,7.653,0,0,1,0,7.959l-.5-.307a9.121,9.121,0,0,0,0-7.354Z" transform="translate(0 -2.179)"/>
      <path d="M.387,120.338c0-1.8.919-3.106,2.368-3.106a1.989,1.989,0,0,1,1.854,1.251l-.711.325A1.256,1.256,0,0,0,2.755,118c-.909,0-1.494.99-1.494,2.34s.585,2.341,1.494,2.341A1.248,1.248,0,0,0,3.9,121.8l.72.324a1.99,1.99,0,0,1-1.863,1.323C1.306,123.444.387,122.139.387,120.338Z" transform="translate(0 -2.179)"/>
      <path d="M5.742,121.157c0-1.223.631-2.277,1.828-2.277S9.4,119.934,9.4,121.157s-.629,2.287-1.827,2.287S5.742,122.382,5.742,121.157Zm2.855,0c0-.828-.316-1.593-1.027-1.593s-1.017.765-1.017,1.593.315,1.6,1.017,1.6S8.6,122,8.6,121.157Z" transform="translate(0 -2.179)"/>
      <path d="M10.837,118.988h.773v.666a1.463,1.463,0,0,1,1.216-.765v.783a.907.907,0,0,0-.225-.026,1.254,1.254,0,0,0-.991.657v3.033h-.773Z" transform="translate(0 -2.179)"/>
      <path d="M14.067,118.988h.774v.666a1.461,1.461,0,0,1,1.216-.765v.783a.921.921,0,0,0-.226-.026,1.251,1.251,0,0,0-.99.657v3.033h-.774Z" transform="translate(0 -2.179)"/>
      <path d="M18.9,118.88c1.162,0,1.765,1.017,1.765,2.305v.224h-2.79c.035.793.449,1.4,1.2,1.4a1.323,1.323,0,0,0,1-.5l.4.468a1.923,1.923,0,0,1-1.468.675c-1.18,0-1.918-.945-1.918-2.287C17.082,119.9,17.767,118.88,18.9,118.88Zm-1.035,1.98h2.044c-.009-.6-.279-1.341-1.017-1.341C18.172,119.519,17.893,120.275,17.865,120.86Z" transform="translate(0 -2.179)"/>
      <path d="M23.715,118.88a1.535,1.535,0,0,1,1.288.585l-.405.522a.96.96,0,0,0-.811-.423c-.729,0-1.125.72-1.125,1.593s.4,1.6,1.125,1.6a.983.983,0,0,0,.811-.423l.405.522a1.511,1.511,0,0,1-1.288.585c-1.134,0-1.855-.981-1.855-2.287S22.581,118.88,23.715,118.88Z" transform="translate(0 -2.179)"/>
      <path d="M26.469,122.418v-2.755h-.576v-.675h.576V117.8h.765v1.188h.73v.675h-.73v2.6c0,.306.108.5.342.5a.5.5,0,0,0,.369-.153l.2.577a1,1,0,0,1-.739.26C26.766,123.444,26.469,123.093,26.469,122.418Z" transform="translate(0 -2.179)"/>
      <path d="M29.2,117.764a.508.508,0,0,1,.5-.5.5.5,0,0,1,.5.5.5.5,0,0,1-.5.5A.5.5,0,0,1,29.2,117.764Zm.117,1.224h.774v4.348h-.774Z" transform="translate(0 -2.179)"/>
      <path d="M31.526,121.157c0-1.223.631-2.277,1.828-2.277s1.828,1.054,1.828,2.277-.63,2.287-1.828,2.287S31.526,122.382,31.526,121.157Zm2.855,0c0-.828-.316-1.593-1.027-1.593s-1.017.765-1.017,1.593.315,1.6,1.017,1.6S34.381,122,34.381,121.157Z" transform="translate(0 -2.179)"/>
      <path d="M39.007,120.312c0-.55-.253-.748-.657-.748a1.167,1.167,0,0,0-.955.648v3.124h-.774v-4.348H37.4v.6a1.614,1.614,0,0,1,1.26-.711c.756,0,1.116.414,1.116,1.18v3.276h-.764Z" transform="translate(0 -2.179)"/>
      <path d="M43.947,117.331h3.187v.757H44.8V119.9h2.269v.756H44.8v2.683h-.855Z" transform="translate(0 -2.179)"/>
      <path d="M50.8,122.886a1.4,1.4,0,0,1-1.144.558A1.337,1.337,0,0,1,48.329,122a1.314,1.314,0,0,1,1.323-1.423,1.364,1.364,0,0,1,1.144.54v-.693a.792.792,0,0,0-.864-.882,1.476,1.476,0,0,0-1.089.513l-.316-.54a2.089,2.089,0,0,1,1.531-.63,1.331,1.331,0,0,1,1.512,1.449v3.007H50.8Zm0-1.242a1,1,0,0,0-.873-.523.9.9,0,0,0,0,1.783.994.994,0,0,0,.873-.522Z" transform="translate(0 -2.179)"/>
      <path d="M54.863,118.88a1.533,1.533,0,0,1,1.288.585l-.405.522a.957.957,0,0,0-.81-.423c-.73,0-1.125.72-1.125,1.593s.4,1.6,1.125,1.6a.98.98,0,0,0,.81-.423l.405.522a1.51,1.51,0,0,1-1.288.585c-1.134,0-1.854-.981-1.854-2.287S53.729,118.88,54.863,118.88Z" transform="translate(0 -2.179)"/>
      <path d="M57.617,122.418v-2.755h-.576v-.675h.576V117.8h.766v1.188h.729v.675h-.729v2.6c0,.306.107.5.342.5a.5.5,0,0,0,.369-.153l.2.577a1,1,0,0,1-.738.26C57.914,123.444,57.617,123.093,57.617,122.418Z" transform="translate(0 -2.179)"/>
      <path d="M60.245,121.157c0-1.223.631-2.277,1.828-2.277s1.827,1.054,1.827,2.277-.629,2.287-1.827,2.287S60.245,122.382,60.245,121.157Zm2.855,0c0-.828-.316-1.593-1.027-1.593s-1.017.765-1.017,1.593.315,1.6,1.017,1.6S63.1,122,63.1,121.157Z" transform="translate(0 -2.179)"/>
      <path d="M65.34,118.988h.773v.666a1.463,1.463,0,0,1,1.216-.765v.783a.907.907,0,0,0-.225-.026,1.254,1.254,0,0,0-.991.657v3.033H65.34Z" transform="translate(0 -2.179)"/>
      <path d="M69.074,118.925a.54.54,0,1,1-.55.54A.548.548,0,0,1,69.074,118.925Zm0,3.421a.54.54,0,1,1-.55.54A.548.548,0,0,1,69.074,122.346Z" transform="translate(0 -2.179)"/>
      <path d="M74.682,118.447l-.928.982-.5-.532,1.53-1.566h.747v6h-.845Z" transform="translate(0 -2.179)"/>
      <path d="M.6,128.331h.854v4.033c0,.865.424,1.324,1.152,1.324s1.153-.459,1.153-1.324v-4.033h.855v4.024a1.87,1.87,0,0,1-2.008,2.089A1.869,1.869,0,0,1,.6,132.355Z" transform="translate(0 -2.179)"/>
      <path d="M6.336,133.283a1.6,1.6,0,0,0,1.161.54c.478,0,.774-.234.774-.6,0-.414-.405-.594-.864-.775-.6-.224-1.3-.486-1.3-1.359a1.272,1.272,0,0,1,1.441-1.206,1.878,1.878,0,0,1,1.377.558l-.342.531a1.3,1.3,0,0,0-1.026-.468c-.433,0-.721.226-.721.54,0,.369.388.531.828.711.612.226,1.342.5,1.342,1.423a1.327,1.327,0,0,1-1.5,1.269,1.973,1.973,0,0,1-1.53-.612Z" transform="translate(0 -2.179)"/>
      <path d="M12.646,133.886a1.406,1.406,0,0,1-1.144.558A1.337,1.337,0,0,1,10.179,133a1.314,1.314,0,0,1,1.323-1.423,1.365,1.365,0,0,1,1.144.54v-.693a.792.792,0,0,0-.865-.882,1.477,1.477,0,0,0-1.089.513l-.315-.54a2.087,2.087,0,0,1,1.53-.63,1.332,1.332,0,0,1,1.513,1.449v3.007h-.774Zm0-1.242a1,1,0,0,0-.874-.523.9.9,0,0,0,0,1.783,1,1,0,0,0,.874-.522Z" transform="translate(0 -2.179)"/>
      <path d="M15.381,134.948a1.4,1.4,0,0,0,1.125.5,1,1,0,0,0,1.054-1.133v-.667a1.344,1.344,0,0,1-1.125.72c-.973,0-1.577-.855-1.577-2.242,0-1.359.595-2.241,1.577-2.241a1.3,1.3,0,0,1,1.125.711v-.6h.774v4.267a1.638,1.638,0,0,1-1.8,1.846,1.983,1.983,0,0,1-1.494-.549Zm2.179-3.726a1.087,1.087,0,0,0-.91-.658c-.666,0-.99.675-.99,1.557s.324,1.558.99,1.558a1.087,1.087,0,0,0,.91-.658Z" transform="translate(0 -2.179)"/>
      <path d="M21.592,129.88c1.161,0,1.763,1.017,1.763,2.305v.224h-2.79c.036.793.451,1.4,1.2,1.4a1.327,1.327,0,0,0,1-.5l.4.468a1.923,1.923,0,0,1-1.468.675c-1.179,0-1.918-.945-1.918-2.287C19.772,130.9,20.457,129.88,21.592,129.88Zm-1.036,1.98H22.6c-.009-.6-.28-1.341-1.018-1.341C20.862,130.519,20.583,131.275,20.556,131.86Z" transform="translate(0 -2.179)"/>
      <path d="M25.272,129.925a.54.54,0,1,1-.549.54A.547.547,0,0,1,25.272,129.925Zm0,3.421a.54.54,0,1,1-.549.54A.547.547,0,0,1,25.272,133.346Z" transform="translate(0 -2.179)"/>
      <path d="M31.923,132.869H29.528v-.729l2.152-3.809h1.1v3.781h.639v.757h-.639v1.467h-.855Zm-1.611-.757h1.611V129.24Z" transform="translate(0 -2.179)"/>
      <path d="M36.684,128.241a1.732,1.732,0,0,1,1.44.721l-.45.621a1.061,1.061,0,0,0-.982-.576c-.89,0-1.278,1.134-1.278,2.223v.153a1.547,1.547,0,0,1,1.315-.846c.882,0,1.6.649,1.6,1.927a1.826,1.826,0,0,1-1.791,1.98c-1.485,0-1.99-1.485-1.99-3.106C34.55,129.682,35.207,128.241,36.684,128.241Zm-.2,3.034a1.316,1.316,0,0,0-1.061.829c.045.648.269,1.575,1.071,1.575.666,0,.963-.621.963-1.189C37.458,131.608,37.017,131.275,36.485,131.275Z" transform="translate(0 -2.179)"/>
      <path d="M40.771,131.239a1.569,1.569,0,0,1-1.09-1.458,1.794,1.794,0,1,1,2.458,1.458,1.811,1.811,0,0,1,1.188,1.6,1.644,1.644,0,0,1-1.864,1.6c-1.1,0-1.872-.594-1.872-1.6A1.8,1.8,0,0,1,40.771,131.239Zm.692.352a1.277,1.277,0,0,0-1.008,1.142,1.006,1.006,0,0,0,2.008,0A1.29,1.29,0,0,0,41.463,131.591Zm0-2.584a.853.853,0,0,0-.927.9c0,.675.693.954.927,1.017.225-.063.919-.342.919-1.017A.855.855,0,0,0,41.463,129.007Z" transform="translate(0 -2.179)"/>
      <path d="M48.6,132.445l-.568.747v1.144h-.773v-6.005h.773v3.907l1.666-2.25h.909l-1.476,1.953,1.485,2.4h-.909Z" transform="translate(0 -2.179)"/>
      <path d="M54.405,129.808l-.918,4.528h-.9l-1.351-6.005h.918l.928,4.69.972-4.69h.7l.981,4.69.919-4.69h.918l-1.342,6.005h-.909Z" transform="translate(0 -2.179)"/>
      <path d="M61.174,131.293c0-.54-.253-.729-.657-.729a1.179,1.179,0,0,0-.955.648v3.124h-.774v-6.005h.774v2.26a1.631,1.631,0,0,1,1.269-.711c.757,0,1.116.387,1.116,1.17v3.286h-.773Z" transform="translate(0 -2.179)"/>
    </g>
    <line y1="40.716" x2="131.556" y2="40.716" fill="none" stroke="#328aca" stroke-miterlimit="10"/>
  </g>
</svg>
