<svg xmlns="http://www.w3.org/2000/svg" width="135.934" height="63.849" viewBox="0 0 135.934 63.849">
  <g>
    <g>
      <path d="M5.281,9.547h-3.4l-.6,2.115H.112l2.8-9.343h1.33l2.8,9.343H5.883ZM2.115,8.566H5.043L3.572,3.384Z" transform="translate(0 -2.18)" fill="#0b79bf"/>
      <path d="M11.355,4.729a2.313,2.313,0,0,1,1.934.9l-.547.687a1.52,1.52,0,0,0-1.3-.687c-1.2,0-1.835,1.205-1.835,2.647s.631,2.662,1.835,2.662a1.555,1.555,0,0,0,1.3-.686l.547.686a2.279,2.279,0,0,1-1.934.9c-1.736,0-2.8-1.555-2.8-3.558S9.619,4.729,11.355,4.729Z" transform="translate(0 -2.18)" fill="#0b79bf"/>
      <path d="M17.879,4.729a2.311,2.311,0,0,1,1.933.9l-.546.687a1.522,1.522,0,0,0-1.3-.687c-1.2,0-1.835,1.205-1.835,2.647s.631,2.662,1.835,2.662a1.558,1.558,0,0,0,1.3-.686l.546.686a2.277,2.277,0,0,1-1.933.9c-1.736,0-2.8-1.555-2.8-3.558S16.143,4.729,17.879,4.729Z" transform="translate(0 -2.18)" fill="#0b79bf"/>
      <path d="M21.6,8.272c0-1.905.953-3.543,2.746-3.543,1.82,0,2.759,1.638,2.759,3.543s-.939,3.558-2.759,3.558C22.555,11.83,21.6,10.178,21.6,8.272Zm4.455,0c0-1.358-.519-2.647-1.709-2.647-1.163,0-1.7,1.289-1.7,2.647,0,1.374.533,2.662,1.7,2.662C25.538,10.934,26.057,9.646,26.057,8.272Z" transform="translate(0 -2.18)" fill="#0b79bf"/>
      <path d="M33.111,10.724A2.462,2.462,0,0,1,31.15,11.83c-1.148,0-1.694-.574-1.694-1.807V4.9h.994V9.729c0,.9.42,1.205,1.079,1.205a1.907,1.907,0,0,0,1.582-1.05V4.9H34.12v6.766H33.111Z" transform="translate(0 -2.18)" fill="#0b79bf"/>
      <path d="M40.462,6.844c0-.9-.406-1.219-1.078-1.219A1.978,1.978,0,0,0,37.8,6.7v4.958h-.994V4.9H37.8v.967a2.508,2.508,0,0,1,1.961-1.134c1.148,0,1.709.616,1.709,1.834v5.1H40.462Z" transform="translate(0 -2.18)" fill="#0b79bf"/>
      <path d="M44.352,10.3V5.779h-.9V4.9h.9V3.048H45.36V4.9h1.149v.883H45.36v4.342c0,.519.155.813.547.813a.756.756,0,0,0,.588-.266l.309.756a1.458,1.458,0,0,1-1.093.406C44.786,11.83,44.352,11.312,44.352,10.3Z" transform="translate(0 -2.18)" fill="#0b79bf"/>
      <path d="M52.584,2.319h1.121v9.343H52.584Z" transform="translate(0 -2.18)" fill="#0b79bf"/>
      <path d="M60.1,6.844c0-.9-.407-1.219-1.079-1.219A1.979,1.979,0,0,0,57.441,6.7v4.958h-.994V4.9h.994v.967A2.511,2.511,0,0,1,59.4,4.729c1.149,0,1.709.616,1.709,1.834v5.1H60.1Z" transform="translate(0 -2.18)" fill="#0b79bf"/>
      <path d="M64.036,5.779h-.9V4.9h.9V4.07a1.661,1.661,0,0,1,1.652-1.89,1.89,1.89,0,0,1,.869.195l-.238.785a.965.965,0,0,0-.448-.112c-.533,0-.827.364-.827,1.022V4.9h1.148v.883H65.044v5.883H64.036Z" transform="translate(0 -2.18)" fill="#0b79bf"/>
      <path d="M67.856,8.272c0-1.905.954-3.543,2.747-3.543,1.821,0,2.759,1.638,2.759,3.543S72.424,11.83,70.6,11.83C68.81,11.83,67.856,10.178,67.856,8.272Zm4.456,0c0-1.358-.519-2.647-1.709-2.647-1.164,0-1.7,1.289-1.7,2.647,0,1.374.532,2.662,1.7,2.662C71.793,10.934,72.312,9.646,72.312,8.272Z" transform="translate(0 -2.18)" fill="#0b79bf"/>
      <path d="M75.712,4.9h.994v1.08a2.271,2.271,0,0,1,1.919-1.219V5.793a1.432,1.432,0,0,0-.336-.042,2.032,2.032,0,0,0-1.583,1.106v4.805h-.994Z" transform="translate(0 -2.18)" fill="#0b79bf"/>
      <path d="M87.46,6.76c0-.729-.294-1.135-.939-1.135A1.853,1.853,0,0,0,85.051,6.7v4.958H84.043V6.76c0-.729-.3-1.135-.953-1.135A1.894,1.894,0,0,0,81.619,6.7v4.958h-.994V4.9h.994v.967a2.34,2.34,0,0,1,1.849-1.134A1.424,1.424,0,0,1,85,5.934a2.327,2.327,0,0,1,1.905-1.2c.995,0,1.569.545,1.569,1.764v5.169H87.46Z" transform="translate(0 -2.18)" fill="#0b79bf"/>
      <path d="M94.627,10.934a2.118,2.118,0,0,1-1.779.9A2.078,2.078,0,0,1,90.8,9.575a2.045,2.045,0,0,1,2.045-2.227,2.107,2.107,0,0,1,1.779.869V7.04A1.284,1.284,0,0,0,93.24,5.6a2.149,2.149,0,0,0-1.695.827L91.1,5.709a3.1,3.1,0,0,1,2.3-.98,1.992,1.992,0,0,1,2.241,2.2v4.734H94.627Zm0-1.975a1.625,1.625,0,0,0-1.457-.868,1.361,1.361,0,0,0-1.345,1.5A1.373,1.373,0,0,0,93.17,11.1a1.639,1.639,0,0,0,1.457-.854Z" transform="translate(0 -2.18)" fill="#0b79bf"/>
      <path d="M98.5,10.3V5.779h-.9V4.9h.9V3.048h1.009V4.9h1.148v.883H99.511v4.342c0,.519.154.813.547.813a.756.756,0,0,0,.588-.266l.308.756a1.455,1.455,0,0,1-1.093.406C98.937,11.83,98.5,11.312,98.5,10.3Z" transform="translate(0 -2.18)" fill="#0b79bf"/>
      <path d="M102.633,3.076a.7.7,0,0,1,.686-.686.686.686,0,1,1,0,1.372A.7.7,0,0,1,102.633,3.076Zm.2,1.82h.994v6.766h-.994Z" transform="translate(0 -2.18)" fill="#0b79bf"/>
      <path d="M106.174,8.272c0-1.905.953-3.543,2.746-3.543,1.82,0,2.76,1.638,2.76,3.543s-.94,3.558-2.76,3.558C107.127,11.83,106.174,10.178,106.174,8.272Zm4.455,0c0-1.358-.519-2.647-1.709-2.647-1.163,0-1.7,1.289-1.7,2.647,0,1.374.532,2.662,1.7,2.662C110.11,10.934,110.629,9.646,110.629,8.272Z" transform="translate(0 -2.18)" fill="#0b79bf"/>
      <path d="M117.684,6.844c0-.9-.407-1.219-1.079-1.219A1.979,1.979,0,0,0,115.022,6.7v4.958h-.994V4.9h.994v.967a2.511,2.511,0,0,1,1.961-1.134c1.149,0,1.709.616,1.709,1.834v5.1h-1.008Z" transform="translate(0 -2.18)" fill="#0b79bf"/>
    </g>
    <line y1="16.366" x2="131.556" y2="16.366" fill="none" stroke="#328aca" stroke-miterlimit="10"/>
    <g>
      <path d="M.6,26.844H2.736a1.422,1.422,0,0,1,1.513,1.53,1.324,1.324,0,0,1-.927,1.378,1.427,1.427,0,0,1,1.027,1.476A1.458,1.458,0,0,1,2.8,32.848H.6Zm1.953,2.565c.558,0,.81-.388.81-.9s-.252-.909-.81-.909h-1.1v1.809Zm.036,2.683c.576,0,.873-.36.873-.963a.86.86,0,0,0-.873-.963H1.458v1.926Z" transform="translate(0 -2.18)"/>
      <path d="M5.733,27.275a.509.509,0,0,1,.5-.5.5.5,0,0,1,.5.5.5.5,0,0,1-.5.5A.5.5,0,0,1,5.733,27.275ZM5.851,28.5h.773v4.348H5.851Z" transform="translate(0 -2.18)"/>
      <path d="M8.28,26.844h.774v6H8.28Z" transform="translate(0 -2.18)"/>
      <path d="M10.71,26.844h.773v6H10.71Z" transform="translate(0 -2.18)"/>
      <path d="M19.882,28.238l-1.521,4.61h-.342l-1.513-4.61v4.61h-.855v-6H16.83l1.359,4.14,1.378-4.14h1.162v6h-.847Z" transform="translate(0 -2.18)"/>
      <path d="M22.212,30.67c0-1.225.631-2.278,1.828-2.278s1.827,1.053,1.827,2.278-.63,2.286-1.827,2.286S22.212,31.9,22.212,30.67Zm2.854,0c0-.828-.315-1.594-1.026-1.594s-1.018.766-1.018,1.594.316,1.6,1.018,1.6S25.066,31.507,25.066,30.67Z" transform="translate(0 -2.18)"/>
      <path d="M27.09,30.67c0-1.225.631-2.278,1.828-2.278s1.827,1.053,1.827,2.278-.63,2.286-1.827,2.286S27.09,31.9,27.09,30.67Zm2.854,0c0-.828-.315-1.594-1.026-1.594S27.9,29.842,27.9,30.67s.316,1.6,1.018,1.6S29.944,31.507,29.944,30.67Z" transform="translate(0 -2.18)"/>
      <path d="M34.57,29.823c0-.55-.253-.747-.657-.747a1.166,1.166,0,0,0-.955.649v3.123h-.773V28.5h.773v.6a1.614,1.614,0,0,1,1.261-.712c.756,0,1.116.415,1.116,1.179v3.277H34.57Z" transform="translate(0 -2.18)"/>
      <path d="M37.151,31.93V29.176h-.576V28.5h.576V27.312h.766V28.5h.729v.676h-.729v2.6c0,.306.108.494.342.494a.5.5,0,0,0,.369-.152l.2.576a1,1,0,0,1-.738.261C37.449,32.956,37.151,32.6,37.151,31.93Z" transform="translate(0 -2.18)"/>
      <path d="M42.382,29.805c0-.539-.253-.729-.657-.729a1.178,1.178,0,0,0-.955.649v3.123H40v-6h.774V29.1a1.629,1.629,0,0,1,1.269-.712c.757,0,1.116.387,1.116,1.17v3.286h-.773Z" transform="translate(0 -2.18)"/>
      <path d="M50.139,31.578H48.005l-.351,1.27h-.891l1.792-6h1.026l1.8,6H50.49Zm-1.953-.756h1.773l-.892-3.186Z" transform="translate(0 -2.18)"/>
      <path d="M52.523,34.5v-6H53.3v.594a1.342,1.342,0,0,1,1.126-.7c.981,0,1.575.891,1.575,2.278s-.594,2.286-1.575,2.286a1.294,1.294,0,0,1-1.126-.72V34.5Zm1.683-5.428a1.1,1.1,0,0,0-.909.649v1.89a1.109,1.109,0,0,0,.909.656c.667,0,.991-.71.991-1.6S54.873,29.076,54.206,29.076Z" transform="translate(0 -2.18)"/>
      <path d="M57.438,28.5h.773v.666a1.462,1.462,0,0,1,1.216-.766v.784a.921.921,0,0,0-.226-.027,1.257,1.257,0,0,0-.99.657v3.034h-.773Z" transform="translate(0 -2.18)"/>
      <path d="M60.552,27.275a.508.508,0,0,1,.5-.5.5.5,0,0,1,.5.5.5.5,0,0,1-.5.5A.5.5,0,0,1,60.552,27.275Zm.117,1.225h.773v4.348h-.773Z" transform="translate(0 -2.18)"/>
      <path d="M63.1,26.844h.773v6H63.1Z" transform="translate(0 -2.18)"/>
      <path d="M.675,42.533a1.889,1.889,0,0,0,1.414.658A.9.9,0,0,0,3.115,42.3c0-.6-.54-.864-1.143-1.144-.73-.333-1.567-.693-1.567-1.782a1.66,1.66,0,0,1,1.8-1.63,2.285,2.285,0,0,1,1.656.639l-.432.648a1.67,1.67,0,0,0-1.251-.521.822.822,0,0,0-.9.818c0,.514.514.748,1.08,1.018.757.351,1.621.757,1.621,1.9A1.685,1.685,0,0,1,2.1,43.956,2.441,2.441,0,0,1,.234,43.2Z" transform="translate(0 -2.18)"/>
      <path d="M7,39.392c1.162,0,1.765,1.017,1.765,2.3v.226H5.977c.035.792.449,1.394,1.2,1.394a1.323,1.323,0,0,0,1-.5l.4.469a1.921,1.921,0,0,1-1.467.675c-1.18,0-1.918-.945-1.918-2.286C5.184,40.409,5.868,39.392,7,39.392ZM5.967,41.373H8.011c-.009-.6-.28-1.342-1.018-1.342C6.273,40.031,5.994,40.787,5.967,41.373Z" transform="translate(0 -2.18)"/>
      <path d="M10.18,39.5h.773v.666a1.464,1.464,0,0,1,1.216-.766v.784a.915.915,0,0,0-.226-.027,1.258,1.258,0,0,0-.99.657v3.034H10.18Z" transform="translate(0 -2.18)"/>
      <path d="M12.888,39.5h.828l1.017,3.43,1.036-3.43h.819l-1.432,4.348h-.837Z" transform="translate(0 -2.18)"/>
      <path d="M17.6,38.275a.509.509,0,0,1,.5-.5.5.5,0,0,1,.5.5.5.5,0,0,1-.5.5A.5.5,0,0,1,17.6,38.275Zm.118,1.225H18.5v4.348h-.773Z" transform="translate(0 -2.18)"/>
      <path d="M21.789,39.392a1.537,1.537,0,0,1,1.288.585l-.405.522a.959.959,0,0,0-.811-.423c-.729,0-1.125.721-1.125,1.594s.4,1.6,1.125,1.6a.98.98,0,0,0,.811-.422l.405.522a1.511,1.511,0,0,1-1.288.585c-1.134,0-1.854-.981-1.854-2.286S20.655,39.392,21.789,39.392Z" transform="translate(0 -2.18)"/>
      <path d="M25.992,39.392c1.162,0,1.765,1.017,1.765,2.3v.226h-2.79c.035.792.449,1.394,1.2,1.394a1.322,1.322,0,0,0,1-.5l.4.469a1.924,1.924,0,0,1-1.468.675c-1.18,0-1.918-.945-1.918-2.286C24.174,40.409,24.858,39.392,25.992,39.392Zm-1.035,1.981H27c-.009-.6-.279-1.342-1.018-1.342C25.264,40.031,24.984,40.787,24.957,41.373Z" transform="translate(0 -2.18)"/>
      <path d="M31.68,37.844h1.692c1.584,0,2.476,1.277,2.476,3.006s-.883,3-2.467,3h-1.7Zm1.692,5.248c1.053,0,1.593-.954,1.593-2.242,0-1.3-.53-2.25-1.593-2.25h-.838v4.492Z" transform="translate(0 -2.18)"/>
      <path d="M39.573,43.4a1.4,1.4,0,0,1-1.143.558,1.338,1.338,0,0,1-1.324-1.449,1.314,1.314,0,0,1,1.324-1.423,1.364,1.364,0,0,1,1.143.541v-.693a.792.792,0,0,0-.864-.883,1.476,1.476,0,0,0-1.089.513l-.315-.541a2.09,2.09,0,0,1,1.53-.629,1.331,1.331,0,0,1,1.513,1.45v3.006h-.775Zm0-1.242a.991.991,0,0,0-.873-.523.9.9,0,0,0,0,1.783.993.993,0,0,0,.873-.521Z" transform="translate(0 -2.18)"/>
      <path d="M42.155,42.93V40.176h-.576V39.5h.576V38.312h.766V39.5h.729v.676h-.729v2.6c0,.306.108.494.342.494a.5.5,0,0,0,.369-.152l.2.576a1,1,0,0,1-.738.261C42.453,43.956,42.155,43.605,42.155,42.93Z" transform="translate(0 -2.18)"/>
      <path d="M46.6,39.392c1.162,0,1.764,1.017,1.764,2.3v.226h-2.79c.035.792.449,1.394,1.2,1.394a1.32,1.32,0,0,0,1-.5l.4.469a1.923,1.923,0,0,1-1.468.675c-1.18,0-1.918-.945-1.918-2.286C44.783,40.409,45.468,39.392,46.6,39.392Zm-1.036,1.981H47.61c-.008-.6-.279-1.342-1.017-1.342C45.873,40.031,45.594,40.787,45.566,41.373Z" transform="translate(0 -2.18)"/>
      <path d="M49.8,42.8a1.6,1.6,0,0,0,1.161.54c.478,0,.774-.233.774-.6,0-.414-.405-.594-.864-.775-.6-.225-1.3-.486-1.3-1.359a1.272,1.272,0,0,1,1.441-1.206,1.882,1.882,0,0,1,1.377.558l-.342.53a1.3,1.3,0,0,0-1.027-.466c-.432,0-.72.224-.72.539,0,.369.387.531.828.711.612.225,1.342.5,1.342,1.424a1.327,1.327,0,0,1-1.5,1.268,1.973,1.973,0,0,1-1.53-.612Z" transform="translate(0 -2.18)"/>
      <path d="M58.113,37.754c1.422,0,1.945,1.494,1.945,3.1s-.513,3.106-1.945,3.106-1.954-1.5-1.954-3.106S56.682,37.754,58.113,37.754Zm0,.765c-.864,0-1.08,1.152-1.08,2.331s.216,2.341,1.08,2.341,1.072-1.17,1.072-2.341S58.969,38.519,58.113,38.519Z" transform="translate(0 -2.18)"/>
      <path d="M61.434,43.154c2.034-2.222,2.646-2.881,2.646-3.709a.885.885,0,0,0-.918-.926,1.45,1.45,0,0,0-1.269.729l-.54-.522a2.106,2.106,0,0,1,1.818-.972,1.658,1.658,0,0,1,1.782,1.691c0,.973-.72,1.837-2.277,3.647h2.3v.756H61.434Z" transform="translate(0 -2.18)"/>
      <path d="M67.733,37.663h.585L66.59,44.028h-.585Z" transform="translate(0 -2.18)"/>
      <path d="M69.309,43.154c2.034-2.222,2.646-2.881,2.646-3.709a.885.885,0,0,0-.918-.926,1.45,1.45,0,0,0-1.269.729l-.54-.522a2.106,2.106,0,0,1,1.818-.972,1.658,1.658,0,0,1,1.782,1.691c0,.973-.72,1.837-2.277,3.647h2.3v.756H69.309Z" transform="translate(0 -2.18)"/>
      <path d="M75.429,40.752a1.57,1.57,0,0,1-1.09-1.459A1.794,1.794,0,1,1,76.8,40.752a1.807,1.807,0,0,1,1.188,1.6,1.644,1.644,0,0,1-1.864,1.6c-1.1,0-1.872-.6-1.872-1.6A1.8,1.8,0,0,1,75.429,40.752Zm.692.351a1.278,1.278,0,0,0-1.008,1.143,1.006,1.006,0,0,0,2.008,0A1.291,1.291,0,0,0,76.121,41.1Zm0-2.584a.853.853,0,0,0-.927.9c0,.675.694.954.927,1.017.226-.063.919-.342.919-1.017A.855.855,0,0,0,76.121,38.519Z" transform="translate(0 -2.18)"/>
      <path d="M80.621,37.663h.585l-1.728,6.365h-.585Z" transform="translate(0 -2.18)"/>
      <path d="M84.1,41.463l-1.315,2.385h-.99l1.782-3.07-1.682-2.934h.99L84.1,40.1l1.206-2.26h1l-1.675,2.934,1.773,3.07h-.99Z" transform="translate(0 -2.18)"/>
      <path d="M89.333,41.463l-1.314,2.385h-.991l1.783-3.07-1.684-2.934h.991l1.215,2.26,1.206-2.26h1l-1.675,2.934,1.774,3.07h-.991Z" transform="translate(0 -2.18)"/>
      <path d="M94.958,41.336H96.83V42H94.958Z" transform="translate(0 -2.18)"/>
      <path d="M102.446,37.754c1.422,0,1.945,1.494,1.945,3.1s-.513,3.106-1.945,3.106-1.954-1.5-1.954-3.106S101.015,37.754,102.446,37.754Zm0,.765c-.864,0-1.08,1.152-1.08,2.331s.216,2.341,1.08,2.341,1.072-1.17,1.072-2.341S103.3,38.519,102.446,38.519Z" transform="translate(0 -2.18)"/>
      <path d="M106.1,42.443a1.512,1.512,0,0,0,1.287.748.945.945,0,0,0,1.035-1.045c0-.747-.495-.99-1.1-.99-.189,0-.414,0-.5.01v-.775c.081.009.324.009.477.009.594,0,1.036-.3,1.036-.918a.89.89,0,0,0-.982-.963,1.478,1.478,0,0,0-1.215.674l-.513-.486a2.07,2.07,0,0,1,1.782-.953,1.569,1.569,0,0,1,1.782,1.6,1.415,1.415,0,0,1-1.089,1.387,1.474,1.474,0,0,1,1.17,1.477,1.689,1.689,0,0,1-1.863,1.737,2.124,2.124,0,0,1-1.863-.99Z" transform="translate(0 -2.18)"/>
      <path d="M111.949,37.663h.585l-1.728,6.365h-.585Z" transform="translate(0 -2.18)"/>
      <path d="M113.857,42.443a1.515,1.515,0,0,0,1.288.748.945.945,0,0,0,1.035-1.045c0-.747-.5-.99-1.1-.99-.189,0-.414,0-.495.01v-.775c.081.009.324.009.476.009.595,0,1.037-.3,1.037-.918a.89.89,0,0,0-.982-.963,1.48,1.48,0,0,0-1.216.674l-.512-.486a2.069,2.069,0,0,1,1.782-.953,1.569,1.569,0,0,1,1.782,1.6,1.415,1.415,0,0,1-1.089,1.387,1.474,1.474,0,0,1,1.17,1.477,1.689,1.689,0,0,1-1.863,1.737,2.124,2.124,0,0,1-1.863-.99Z" transform="translate(0 -2.18)"/>
      <path d="M120.319,37.754c1.422,0,1.945,1.494,1.945,3.1s-.513,3.106-1.945,3.106-1.954-1.5-1.954-3.106S118.888,37.754,120.319,37.754Zm0,.765c-.864,0-1.08,1.152-1.08,2.331s.216,2.341,1.08,2.341,1.072-1.17,1.072-2.341S121.175,38.519,120.319,38.519Z" transform="translate(0 -2.18)"/>
      <path d="M124.918,37.663h.585l-1.729,6.365h-.585Z" transform="translate(0 -2.18)"/>
      <path d="M128.393,41.463l-1.315,2.385h-.99l1.782-3.07-1.682-2.934h.99l1.215,2.26,1.206-2.26h1l-1.675,2.934,1.773,3.07h-.99Z" transform="translate(0 -2.18)"/>
      <path d="M133.63,41.463l-1.315,2.385h-.99l1.782-3.07-1.683-2.934h.991l1.215,2.26,1.206-2.26h1l-1.675,2.934,1.774,3.07h-.991Z" transform="translate(0 -2.18)"/>
      <path d="M.6,48.844H2.3c1.584,0,2.475,1.277,2.475,3.006s-.882,3-2.466,3H.6ZM2.3,54.092c1.053,0,1.593-.954,1.593-2.242,0-1.3-.531-2.25-1.593-2.25H1.458v4.492Z" transform="translate(0 -2.18)"/>
      <path d="M8.5,54.4a1.4,1.4,0,0,1-1.143.558A1.337,1.337,0,0,1,6.03,53.507a1.314,1.314,0,0,1,1.324-1.423,1.364,1.364,0,0,1,1.143.541v-.693a.792.792,0,0,0-.864-.883,1.476,1.476,0,0,0-1.089.513l-.315-.541a2.088,2.088,0,0,1,1.53-.629,1.331,1.331,0,0,1,1.512,1.45v3.006H8.5Zm0-1.242a.992.992,0,0,0-.873-.523.9.9,0,0,0,0,1.783A.994.994,0,0,0,8.5,53.9Z" transform="translate(0 -2.18)"/>
      <path d="M11.143,55.928c.252,0,.395-.1.5-.4l.208-.594L10.4,50.5h.828l1.018,3.412L13.285,50.5H14.1l-1.728,5.213a1.115,1.115,0,0,1-1.18.9,1.89,1.89,0,0,1-.459-.063l.126-.685A.658.658,0,0,0,11.143,55.928Z" transform="translate(0 -2.18)"/>
      <path d="M15.255,53.8a1.6,1.6,0,0,0,1.161.54c.478,0,.774-.233.774-.6,0-.414-.405-.594-.864-.775-.6-.225-1.3-.486-1.3-1.359a1.272,1.272,0,0,1,1.441-1.206,1.882,1.882,0,0,1,1.377.558l-.342.53a1.3,1.3,0,0,0-1.027-.466c-.432,0-.72.224-.72.539,0,.369.387.531.828.711.612.225,1.342.5,1.342,1.424a1.327,1.327,0,0,1-1.5,1.268,1.973,1.973,0,0,1-1.53-.612Z" transform="translate(0 -2.18)"/>
      <path d="M21.834,48.844h2.133a1.422,1.422,0,0,1,1.512,1.53,1.324,1.324,0,0,1-.926,1.378,1.426,1.426,0,0,1,1.026,1.476,1.458,1.458,0,0,1-1.549,1.62h-2.2Zm1.953,2.565c.559,0,.811-.388.811-.9s-.252-.909-.811-.909h-1.1v1.809Zm.036,2.683c.576,0,.873-.36.873-.963a.86.86,0,0,0-.873-.963H22.688v1.926Z" transform="translate(0 -2.18)"/>
      <path d="M26.964,49.275a.508.508,0,0,1,.5-.5.5.5,0,0,1,.5.5.5.5,0,0,1-.5.5A.5.5,0,0,1,26.964,49.275Zm.117,1.225h.773v4.348h-.773Z" transform="translate(0 -2.18)"/>
      <path d="M29.512,48.844h.773v6h-.773Z" transform="translate(0 -2.18)"/>
      <path d="M31.941,48.844h.774v6h-.774Z" transform="translate(0 -2.18)"/>
      <path d="M35.973,50.392c1.162,0,1.764,1.017,1.764,2.3v.226h-2.79c.035.792.449,1.394,1.2,1.394a1.323,1.323,0,0,0,1-.5l.4.469a1.923,1.923,0,0,1-1.468.675c-1.179,0-1.918-.945-1.918-2.286C34.154,51.409,34.839,50.392,35.973,50.392Zm-1.035,1.981h2.043c-.008-.6-.279-1.342-1.017-1.342C35.244,51.031,34.965,51.787,34.938,52.373Z" transform="translate(0 -2.18)"/>
      <path d="M41.644,54.254a1.369,1.369,0,0,1-1.134.7c-.973,0-1.576-.892-1.576-2.277,0-1.361.594-2.287,1.576-2.287a1.324,1.324,0,0,1,1.134.712v-2.26h.765v6h-.765Zm0-2.521a1.113,1.113,0,0,0-.918-.657c-.666,0-.991.711-.991,1.6s.325,1.592.991,1.592a1.1,1.1,0,0,0,.918-.648Z" transform="translate(0 -2.18)"/>
      <path d="M44.577,50.438a.54.54,0,1,1-.55.539A.547.547,0,0,1,44.577,50.438Zm0,3.419a.541.541,0,1,1-.55.541A.549.549,0,0,1,44.577,53.857Z" transform="translate(0 -2.18)"/>
      <path d="M49.418,53.443a1.512,1.512,0,0,0,1.287.748.945.945,0,0,0,1.035-1.045c0-.747-.5-.99-1.1-.99-.19,0-.414,0-.5.01v-.775c.082.009.325.009.477.009.595,0,1.036-.3,1.036-.918a.89.89,0,0,0-.981-.963,1.48,1.48,0,0,0-1.216.674l-.513-.486a2.07,2.07,0,0,1,1.782-.953,1.569,1.569,0,0,1,1.783,1.6,1.416,1.416,0,0,1-1.089,1.387,1.474,1.474,0,0,1,1.17,1.477,1.69,1.69,0,0,1-1.864,1.737,2.125,2.125,0,0,1-1.863-.99Z" transform="translate(0 -2.18)"/>
      <path d="M55.089,49.959l-.928.982-.5-.531,1.531-1.566h.747v6h-.846Z" transform="translate(0 -2.18)"/>
      <path d="M.6,59.844H2.539a1.841,1.841,0,0,1,0,3.673H1.458v2.331H.6Zm1.835.756H1.458v2.16h.981a1.091,1.091,0,0,0,0-2.16Z" transform="translate(0 -2.18)"/>
      <path d="M5.229,63.67c0-1.225.63-2.278,1.828-2.278s1.827,1.053,1.827,2.278-.63,2.286-1.827,2.286S5.229,64.9,5.229,63.67Zm2.854,0c0-.828-.315-1.594-1.026-1.594s-1.018.766-1.018,1.594.315,1.6,1.018,1.6S8.083,64.507,8.083,63.67Z" transform="translate(0 -2.18)"/>
      <path d="M10.323,61.5H11.1v.666a1.462,1.462,0,0,1,1.215-.766v.784a.907.907,0,0,0-.225-.027,1.255,1.255,0,0,0-.99.657v3.034h-.774Z" transform="translate(0 -2.18)"/>
      <path d="M13.707,64.93V62.176h-.576V61.5h.576V60.312h.766V61.5H15.2v.676h-.729v2.6c0,.306.107.494.341.494a.5.5,0,0,0,.37-.152l.2.576a1,1,0,0,1-.738.261C14,65.956,13.707,65.605,13.707,64.93Z" transform="translate(0 -2.18)"/>
      <path d="M16.435,60.275a.508.508,0,0,1,.5-.5.5.5,0,0,1,.5.5.5.5,0,0,1-.5.5A.5.5,0,0,1,16.435,60.275Zm.117,1.225h.773v4.348h-.773Z" transform="translate(0 -2.18)"/>
      <path d="M18.765,63.67c0-1.225.631-2.278,1.828-2.278s1.827,1.053,1.827,2.278-.63,2.286-1.827,2.286S18.765,64.9,18.765,63.67Zm2.854,0c0-.828-.315-1.594-1.026-1.594s-1.018.766-1.018,1.594.316,1.6,1.018,1.6S21.619,64.507,21.619,63.67Z" transform="translate(0 -2.18)"/>
      <path d="M26.245,62.823c0-.55-.253-.747-.657-.747a1.166,1.166,0,0,0-.955.649v3.123h-.774V61.5h.774v.6a1.612,1.612,0,0,1,1.261-.712c.755,0,1.116.415,1.116,1.179v3.277h-.765Z" transform="translate(0 -2.18)"/>
      <path d="M29.178,61.438a.54.54,0,1,1-.55.539A.547.547,0,0,1,29.178,61.438Zm0,3.419a.541.541,0,1,1-.55.541A.549.549,0,0,1,29.178,64.857Z" transform="translate(0 -2.18)"/>
      <path d="M34.785,60.959l-.928.982-.5-.531,1.53-1.566h.747v6h-.846Z" transform="translate(0 -2.18)"/>
      <path d="M37.781,64.615a1.1,1.1,0,0,0,.982.567c.918,0,1.278-1.143,1.278-2.215V62.8a1.551,1.551,0,0,1-1.306.854c-.881,0-1.611-.647-1.611-1.926a1.833,1.833,0,0,1,1.792-1.981c1.477,0,2,1.486,2,3.106,0,1.657-.666,3.1-2.143,3.1a1.682,1.682,0,0,1-1.43-.72Zm1.189-4.1c-.675,0-.972.621-.972,1.187,0,.883.449,1.216.963,1.216a1.272,1.272,0,0,0,1.062-.828C40,61.438,39.762,60.51,38.97,60.51Z" transform="translate(0 -2.18)"/>
      <path d="M46.647,59.754c1.422,0,1.945,1.494,1.945,3.1s-.513,3.106-1.945,3.106-1.954-1.5-1.954-3.106S45.216,59.754,46.647,59.754Zm0,.765c-.864,0-1.08,1.152-1.08,2.331s.216,2.341,1.08,2.341,1.072-1.17,1.072-2.341S47.5,60.519,46.647,60.519Z" transform="translate(0 -2.18)"/>
      <path d="M52.11,64.381H49.716v-.73l2.151-3.807h1.1v3.781H53.6v.756h-.638v1.467H52.11ZM50.5,63.625H52.11V60.752Z" transform="translate(0 -2.18)"/>
      <path d="M56.079,59.663h.585l-1.728,6.365h-.585Z" transform="translate(0 -2.18)"/>
      <path d="M59.553,63.463l-1.315,2.385h-.99l1.782-3.07-1.682-2.934h.99l1.215,2.26,1.206-2.26h1l-1.675,2.934,1.773,3.07h-.99Z" transform="translate(0 -2.18)"/>
      <path d="M64.791,63.463l-1.314,2.385h-.991l1.783-3.07-1.683-2.934h.99l1.215,2.26L66,59.844h1l-1.675,2.934,1.774,3.07h-.991Z" transform="translate(0 -2.18)"/>
    </g>
  </g>
</svg>
