<svg xmlns="http://www.w3.org/2000/svg" width="383.638" height="213.887" viewBox="0 0 383.638 213.887">
  <g>
    <path d="M0,0H383.638a0,0,0,0,1,0,0V213.887a0,0,0,0,1,0,0H20a20,20,0,0,1-20-20V0A0,0,0,0,1,0,0Z" fill="#f2f0ec"/>
    <g>
      <path d="M20.7,12.383H18.734V10.45h6.132v1.933H22.918V19.6H20.7Z" fill="#0b79bf"/>
      <path d="M24.8,16.28c0-1.853,1.084-3.471,3.142-3.471a3.168,3.168,0,0,1,3.155,3.471,3.179,3.179,0,0,1-3.155,3.484C25.879,19.764,24.8,18.132,24.8,16.28Zm4.253,0c0-.961-.343-1.715-1.111-1.715s-1.1.754-1.1,1.715.343,1.728,1.1,1.728S29.048,17.254,29.048,16.28Z" fill="#0b79bf"/>
      <path d="M32.681,17.884V14.7h-.837V12.973h.837v-1.81h1.988v1.81H35.74V14.7H34.669V17.39c0,.385.151.618.453.618a.685.685,0,0,0,.453-.151l.357,1.536a2.217,2.217,0,0,1-1.372.371A1.654,1.654,0,0,1,32.681,17.884Z" fill="#0b79bf"/>
      <path d="M40.416,18.955a2.228,2.228,0,0,1-1.743.809,2.058,2.058,0,0,1-2.071-2.2,1.964,1.964,0,0,1,2.071-2.112,2.188,2.188,0,0,1,1.743.754v-.768a1.022,1.022,0,0,0-1.166-1.029,2.529,2.529,0,0,0-1.633.686l-.7-1.331a4.125,4.125,0,0,1,2.716-.96c1.509,0,2.757.645,2.757,2.428V19.6H40.416Zm0-1.688a1.087,1.087,0,0,0-.96-.521.858.858,0,1,0,0,1.715,1.087,1.087,0,0,0,.96-.522Z" fill="#0b79bf"/>
      <path d="M43.993,10.45h1.989V19.6H43.993Z" fill="#0b79bf"/>
      <path d="M50.781,10.45H56.3v1.906H53V14h3.2v1.906H53v1.783H56.3V19.6H50.781Z" fill="#0b79bf"/>
      <path d="M57.733,10.45h1.99V19.6h-1.99Z" fill="#0b79bf"/>
      <path d="M64.084,12.809c1.865,0,2.963,1.441,2.963,3.567v.548H62.973A1.355,1.355,0,0,0,64.427,18.2a1.974,1.974,0,0,0,1.358-.576l.878,1.193a3.523,3.523,0,0,1-2.47.947,3.161,3.161,0,0,1-3.21-3.484A3.17,3.17,0,0,1,64.084,12.809Zm-1.125,2.784h2.195c-.028-.535-.275-1.22-1.1-1.22C63.261,14.373,63,15.058,62.959,15.593Z" fill="#0b79bf"/>
      <path d="M71.064,12.809a2.788,2.788,0,0,1,2.222.906l-.96,1.358a1.28,1.28,0,0,0-1.029-.508c-.809,0-1.358.686-1.358,1.715s.549,1.728,1.358,1.728a1.256,1.256,0,0,0,1.029-.521l.96,1.371a2.791,2.791,0,0,1-2.222.906,3.179,3.179,0,0,1-3.155-3.484A3.168,3.168,0,0,1,71.064,12.809Z" fill="#0b79bf"/>
      <path d="M74.724,17.884V14.7h-.837V12.973h.837v-1.81h1.989v1.81h1.07V14.7h-1.07V17.39c0,.385.151.618.453.618a.689.689,0,0,0,.453-.151l.356,1.536a2.215,2.215,0,0,1-1.371.371A1.655,1.655,0,0,1,74.724,17.884Z" fill="#0b79bf"/>
      <path d="M79,12.973h1.989v.851a2.309,2.309,0,0,1,1.769-1.015v1.92a1.8,1.8,0,0,0-.425-.055,1.751,1.751,0,0,0-1.344.659V19.6H79Z" fill="#0b79bf"/>
      <path d="M83.733,10.985a1.146,1.146,0,1,1,2.291,0,1.146,1.146,0,1,1-2.291,0Zm.151,1.988h1.989V19.6H83.884Z" fill="#0b79bf"/>
      <path d="M90.29,12.809a2.789,2.789,0,0,1,2.222.906l-.961,1.358a1.278,1.278,0,0,0-1.028-.508c-.81,0-1.358.686-1.358,1.715s.548,1.728,1.358,1.728a1.254,1.254,0,0,0,1.028-.521l.961,1.371a2.792,2.792,0,0,1-2.222.906,3.179,3.179,0,0,1-3.156-3.484A3.168,3.168,0,0,1,90.29,12.809Z" fill="#0b79bf"/>
      <path d="M96.815,10.45h2.236v5.912c0,.919.439,1.454,1.317,1.454s1.3-.535,1.3-1.454V10.45h2.236v5.9a3.548,3.548,0,0,1-7.092,0Z" fill="#0b79bf"/>
      <path d="M105.88,17.46a3.18,3.18,0,0,0,1.879.781c.549,0,.823-.2.823-.534s-.412-.481-.988-.632c-.946-.261-2.277-.59-2.277-2.181,0-1.111.892-2.085,2.579-2.085a3.968,3.968,0,0,1,2.442.837l-.768,1.33a2.494,2.494,0,0,0-1.66-.658c-.425,0-.727.179-.727.467s.357.438.933.59c.974.259,2.359.617,2.359,2.249,0,1.249-1.042,2.14-2.675,2.14a3.93,3.93,0,0,1-2.716-.947Z" fill="#0b79bf"/>
      <path d="M114.438,12.809c1.865,0,2.963,1.441,2.963,3.567v.548h-4.074a1.355,1.355,0,0,0,1.454,1.276,1.974,1.974,0,0,0,1.358-.576l.878,1.193a3.523,3.523,0,0,1-2.47.947,3.161,3.161,0,0,1-3.21-3.484A3.17,3.17,0,0,1,114.438,12.809Zm-1.125,2.784h2.195c-.028-.535-.275-1.22-1.1-1.22C113.615,14.373,113.354,15.058,113.313,15.593Z" fill="#0b79bf"/>
      <path d="M121.62,16.874a9.529,9.529,0,0,1,1.368-4.957l.639.37a11.088,11.088,0,0,0-.953,4.587,11,11,0,0,0,.953,4.576l-.639.381A9.534,9.534,0,0,1,121.62,16.874Z" fill="#0b79bf"/>
      <path d="M126.443,17.244l-.707.93V19.6h-.964v-7.48h.964v4.867l2.076-2.8h1.132l-1.839,2.434,1.85,2.983h-1.132Z" fill="#0b79bf"/>
      <path d="M133.242,13.958,132.1,19.6h-1.122l-1.682-7.48h1.144l1.155,5.843,1.211-5.843h.875l1.222,5.843,1.144-5.843h1.145l-1.672,7.48h-1.133Z" fill="#0b79bf"/>
      <path d="M141.242,15.808c0-.673-.314-.908-.819-.908a1.47,1.47,0,0,0-1.189.808V19.6h-.964v-7.48h.964v2.815a2.036,2.036,0,0,1,1.581-.886c.942,0,1.391.482,1.391,1.458V19.6h-.964Z" fill="#0b79bf"/>
      <path d="M146.112,16.47h2.333v.83h-2.333Z" fill="#0b79bf"/>
      <path d="M154.021,17.244l-.706.93V19.6h-.965v-7.48h.965v4.867l2.075-2.8h1.132l-1.839,2.434,1.85,2.983H155.4Z" fill="#0b79bf"/>
      <path d="M157.455,12.657a.634.634,0,0,1,.628-.628.627.627,0,0,1,.628.628.617.617,0,0,1-.628.617A.625.625,0,0,1,157.455,12.657Zm.146,1.525h.964V19.6H157.6Z" fill="#0b79bf"/>
      <path d="M160.192,12.119h.965V19.6h-.965Z" fill="#0b79bf"/>
      <path d="M162.515,16.885c0-1.525.785-2.837,2.277-2.837s2.276,1.312,2.276,2.837-.785,2.849-2.276,2.849S162.515,18.411,162.515,16.885Zm3.555,0c0-1.032-.392-1.985-1.278-1.985s-1.268.953-1.268,1.985.393,2,1.268,2S166.07,17.928,166.07,16.885Z" fill="#0b79bf"/>
      <path d="M171.389,15.438l-1.1,4.161h-1l-1.447-5.417h1l1,4.139,1.088-4.139h.9l1.1,4.139,1.01-4.139h1.009L173.486,19.6h-1Z" fill="#0b79bf"/>
      <path d="M178.771,19.039a1.745,1.745,0,0,1-1.424.7,1.666,1.666,0,0,1-1.649-1.806,1.637,1.637,0,0,1,1.649-1.772,1.7,1.7,0,0,1,1.424.673v-.864a.986.986,0,0,0-1.077-1.1,1.84,1.84,0,0,0-1.357.639l-.392-.673a2.6,2.6,0,0,1,1.907-.785,1.659,1.659,0,0,1,1.884,1.8V19.6h-.965Zm0-1.548a1.237,1.237,0,0,0-1.088-.651,1.012,1.012,0,0,0-1.009,1.111,1.012,1.012,0,0,0,1.009,1.11,1.236,1.236,0,0,0,1.088-.65Z" fill="#0b79bf"/>
      <path d="M181.555,18.456V15.023h-.718v-.841h.718V12.7h.953v1.48h.909v.841h-.909v3.241c0,.382.135.618.427.618a.621.621,0,0,0,.459-.191l.247.718a1.244,1.244,0,0,1-.92.325C181.925,19.734,181.555,19.3,181.555,18.456Z" fill="#0b79bf"/>
      <path d="M184.854,18.456V15.023h-.718v-.841h.718V12.7h.953v1.48h.908v.841h-.908v3.241c0,.382.134.618.426.618a.621.621,0,0,0,.459-.191l.248.718a1.246,1.246,0,0,1-.92.325C185.224,19.734,184.854,19.3,184.854,18.456Z" fill="#0b79bf"/>
      <path d="M187.6,16.47h2.333v.83H187.6Z" fill="#0b79bf"/>
      <path d="M194.176,15.808c0-.673-.314-.908-.819-.908a1.47,1.47,0,0,0-1.189.808V19.6H191.2v-7.48h.964v2.815a2.036,2.036,0,0,1,1.582-.886c.941,0,1.39.482,1.39,1.458V19.6h-.964Z" fill="#0b79bf"/>
      <path d="M196.5,16.885c0-1.525.785-2.837,2.276-2.837s2.277,1.312,2.277,2.837-.785,2.849-2.277,2.849S196.5,18.411,196.5,16.885Zm3.555,0c0-1.032-.393-1.985-1.279-1.985s-1.267.953-1.267,1.985.392,2,1.267,2S200.055,17.928,200.055,16.885Z" fill="#0b79bf"/>
      <path d="M205.384,18.871a1.986,1.986,0,0,1-1.581.863c-.942,0-1.391-.482-1.391-1.458V14.182h.965v3.791c0,.673.313.909.818.909a1.461,1.461,0,0,0,1.189-.786V14.182h.953V19.6h-.953Z" fill="#0b79bf"/>
      <path d="M207.977,14.182h.964v.83a1.823,1.823,0,0,1,1.515-.953v.976a1.11,1.11,0,0,0-.281-.034,1.562,1.562,0,0,0-1.234.819V19.6h-.964Z" fill="#0b79bf"/>
      <path d="M211.074,12.287l.628-.37a9.528,9.528,0,0,1,0,9.914l-.628-.381a10.812,10.812,0,0,0,.965-4.576A10.9,10.9,0,0,0,211.074,12.287Z" fill="#0b79bf"/>
    </g>
    <g>
      <path d="M322.412,202.483h-1.846l-.225.937h-1.5l1.774-6h1.756l1.773,6h-1.5Zm-1.558-1.251h1.278l-.638-2.539Z" fill="#0b79bf"/>
      <path d="M324.3,200.422c0-1.836,1.018-3.106,2.62-3.106a2.2,2.2,0,0,1,2.152,1.575l-1.2.513a1.02,1.02,0,0,0-.955-.8c-.71,0-1.134.766-1.134,1.819s.424,1.818,1.134,1.818a1.038,1.038,0,0,0,.955-.864l1.206.513a2.237,2.237,0,0,1-2.161,1.639C325.318,203.528,324.3,202.25,324.3,200.422Z" fill="#0b79bf"/>
      <path d="M330.862,198.684h-1.287v-1.269H333.6v1.269h-1.278v4.736h-1.459Z" fill="#0b79bf"/>
      <path d="M334.444,197.415h1.467v3.88c0,.6.288.955.864.955s.855-.352.855-.955v-3.88H339.1v3.871a2.329,2.329,0,0,1-4.654,0Z" fill="#0b79bf"/>
      <path d="M343.076,202.483H341.23l-.225.937h-1.5l1.773-6h1.756l1.773,6h-1.5Zm-1.558-1.251H342.8l-.638-2.539Z" fill="#0b79bf"/>
      <path d="M345.406,197.415h1.458v4.735H348.8v1.27h-3.393Z" fill="#0b79bf"/>
    </g>
    <polygon points="353.65 203.419 363.904 203.419 358.777 195.156 353.65 203.419" fill="#0b79bf"/>
    <g>
      <path d="M21.034,183.973a1.021,1.021,0,0,0,.751.335.736.736,0,0,0,.788-.814v-4.253h1.212v4.289a1.7,1.7,0,0,1-1.882,1.854,1.864,1.864,0,0,1-1.3-.461Z" fill="#2f2e2c"/>
      <path d="M27.252,184.841a1.435,1.435,0,0,1-1.149.543,1.354,1.354,0,0,1-1.349-1.447,1.308,1.308,0,0,1,1.349-1.412,1.387,1.387,0,0,1,1.149.516v-.579a.718.718,0,0,0-.806-.76,1.527,1.527,0,0,0-1.076.471l-.408-.743a2.482,2.482,0,0,1,1.684-.632c.95,0,1.7.424,1.7,1.546v2.932h-1.1Zm0-1.167a.845.845,0,0,0-.733-.424.7.7,0,0,0,0,1.4.818.818,0,0,0,.733-.417Z" fill="#2f2e2c"/>
      <path d="M31.967,182.4c0-.462-.208-.642-.57-.642a.987.987,0,0,0-.8.542v2.977H29.515v-4.37H30.6v.569a1.623,1.623,0,0,1,1.285-.677,1.061,1.061,0,0,1,1.167,1.194v3.284H31.967Z" fill="#2f2e2c"/>
    </g>
    <g>
      <path d="M47.665,179.241h3.457V180.3H48.878v1.385h2.181v1.049H48.878v2.543H47.665Z" fill="#2f2e2c"/>
      <path d="M53.819,180.8c1.2,0,1.883.976,1.883,2.334v.307H52.96a1.039,1.039,0,0,0,1.059,1.068,1.325,1.325,0,0,0,.95-.425l.5.651a2.127,2.127,0,0,1-1.565.651,2.316,2.316,0,0,1-.082-4.586Zm-.859,1.9h1.692c-.018-.452-.217-1.023-.851-1.023C53.2,181.674,52.978,182.245,52.96,182.7Z" fill="#2f2e2c"/>
      <path d="M56.617,179.241H57.7v2.217a1.266,1.266,0,0,1,1.1-.66c.987,0,1.62.9,1.62,2.3,0,1.43-.642,2.289-1.62,2.289a1.313,1.313,0,0,1-1.1-.66v.552H56.617Zm1.845,5.184c.552,0,.842-.57.842-1.33s-.29-1.338-.842-1.338a.935.935,0,0,0-.76.524v1.629A.925.925,0,0,0,58.462,184.425Z" fill="#2f2e2c"/>
    </g>
    <g>
      <path d="M81.654,181.132,80.3,185.276h-.5l-1.339-4.144v4.144h-1.2v-6.035h1.629l1.167,3.619,1.177-3.619h1.619v6.035H81.654Z" fill="#2f2e2c"/>
      <path d="M86.315,184.841a1.433,1.433,0,0,1-1.149.543,1.354,1.354,0,0,1-1.348-1.447,1.308,1.308,0,0,1,1.348-1.412,1.386,1.386,0,0,1,1.149.516v-.579a.717.717,0,0,0-.8-.76,1.531,1.531,0,0,0-1.077.471l-.407-.743a2.478,2.478,0,0,1,1.683-.632c.95,0,1.7.424,1.7,1.546v2.932H86.315Zm0-1.167a.843.843,0,0,0-.733-.424.7.7,0,0,0,0,1.4.817.817,0,0,0,.733-.417Z" fill="#2f2e2c"/>
      <path d="M88.579,180.906h1.086v.6a1.489,1.489,0,0,1,1.194-.7v1.059a1.066,1.066,0,0,0-.262-.027,1.211,1.211,0,0,0-.932.524v2.914H88.579Z" fill="#2f2e2c"/>
    </g>
    <g>
      <path d="M107.959,184.2h-1.973l-.28,1.077h-1.258l1.792-6.035h1.466l1.791,6.035H108.24Zm-1.728-1.059h1.484l-.742-2.823Z" fill="#2f2e2c"/>
      <path d="M110.159,186.941v-6.035h1.086v.552a1.3,1.3,0,0,1,1.1-.66c.986,0,1.619.859,1.619,2.289s-.633,2.3-1.619,2.3a1.275,1.275,0,0,1-1.1-.66v2.217ZM112,181.757a.911.911,0,0,0-.751.506v1.647a.943.943,0,0,0,.751.515c.561,0,.85-.57.85-1.338S112.557,181.757,112,181.757Z" fill="#2f2e2c"/>
      <path d="M114.911,180.906H116v.6a1.489,1.489,0,0,1,1.194-.7v1.059a1.066,1.066,0,0,0-.262-.027,1.211,1.211,0,0,0-.932.524v2.914h-1.086Z" fill="#2f2e2c"/>
    </g>
    <g>
      <path d="M161.657,183.973a1.02,1.02,0,0,0,.751.335.736.736,0,0,0,.787-.814v-4.253h1.213v4.289a1.7,1.7,0,0,1-1.883,1.854,1.863,1.863,0,0,1-1.3-.461Z" fill="#2f2e2c"/>
      <path d="M168.065,184.724a1.6,1.6,0,0,1-1.286.66,1.045,1.045,0,0,1-1.167-1.175v-3.3H166.7v2.886c0,.462.217.633.579.633a.96.96,0,0,0,.788-.534v-2.985h1.085v4.37h-1.085Z" fill="#2f2e2c"/>
      <path d="M172.771,182.4c0-.462-.208-.642-.57-.642a.99.99,0,0,0-.8.542v2.977h-1.085v-4.37H171.4v.569a1.625,1.625,0,0,1,1.286-.677,1.061,1.061,0,0,1,1.167,1.194v3.284h-1.086Z" fill="#2f2e2c"/>
    </g>
    <g>
      <path d="M138.428,181.132l-1.357,4.144h-.5l-1.339-4.144v4.144h-1.2v-6.035h1.629l1.168,3.619L138,179.241h1.62v6.035h-1.195Z" fill="#2f2e2c"/>
      <path d="M143.089,184.841a1.432,1.432,0,0,1-1.149.543,1.354,1.354,0,0,1-1.348-1.447,1.308,1.308,0,0,1,1.348-1.412,1.385,1.385,0,0,1,1.149.516v-.579a.717.717,0,0,0-.805-.76,1.527,1.527,0,0,0-1.076.471l-.408-.743a2.479,2.479,0,0,1,1.683-.632c.951,0,1.7.424,1.7,1.546v2.932h-1.1Zm0-1.167a.842.842,0,0,0-.732-.424.7.7,0,0,0,0,1.4.815.815,0,0,0,.732-.417Z" fill="#2f2e2c"/>
      <path d="M145.7,186.09a.448.448,0,0,0,.48-.316l.145-.417-1.475-4.451h1.158l.877,3.058.888-3.058h1.158l-1.711,5.112a1.331,1.331,0,0,1-1.438,1.031,2.466,2.466,0,0,1-.525-.063l.163-.959A.747.747,0,0,0,145.7,186.09Z" fill="#2f2e2c"/>
    </g>
    <g>
      <path d="M187.872,183.973a1.02,1.02,0,0,0,.751.335.736.736,0,0,0,.787-.814v-4.253h1.213v4.289a1.7,1.7,0,0,1-1.883,1.854,1.862,1.862,0,0,1-1.3-.461Z" fill="#2f2e2c"/>
      <path d="M194.279,184.724a1.593,1.593,0,0,1-1.285.66,1.045,1.045,0,0,1-1.167-1.175v-3.3h1.086v2.886c0,.462.217.633.579.633a.957.957,0,0,0,.787-.534v-2.985h1.086v4.37h-1.086Z" fill="#2f2e2c"/>
      <path d="M196.534,179.241h1.085v6.035h-1.085Z" fill="#2f2e2c"/>
    </g>
    <g>
      <path d="M219.417,184.2h-1.973l-.28,1.077h-1.258l1.791-6.035h1.466l1.792,6.035H219.7Zm-1.728-1.059h1.483l-.742-2.823Z" fill="#2f2e2c"/>
      <path d="M224.006,184.724a1.594,1.594,0,0,1-1.285.66,1.045,1.045,0,0,1-1.167-1.175v-3.3h1.085v2.886c0,.462.218.633.579.633a.96.96,0,0,0,.788-.534v-2.985h1.085v4.37h-1.085Z" fill="#2f2e2c"/>
      <path d="M226.649,185.656a1.459,1.459,0,0,0,1.122.479.916.916,0,0,0,.978-1.031v-.534a1.313,1.313,0,0,1-1.1.67c-.977,0-1.611-.787-1.611-2.217,0-1.4.634-2.225,1.611-2.225a1.256,1.256,0,0,1,1.1.66v-.552h1.086v4.143a1.806,1.806,0,0,1-2.009,2,2.253,2.253,0,0,1-1.611-.56Zm2.1-3.384a.9.9,0,0,0-.751-.515c-.553,0-.842.506-.842,1.266s.289,1.258.842,1.258a.908.908,0,0,0,.751-.507Z" fill="#2f2e2c"/>
    </g>
    <g>
      <path d="M243.27,183.674a1.969,1.969,0,0,0,1.448.643c.542,0,.832-.3.832-.67,0-.461-.434-.66-.986-.895-.76-.3-1.71-.661-1.71-1.856a1.807,1.807,0,0,1,1.99-1.755,2.612,2.612,0,0,1,1.828.67l-.579.9a1.848,1.848,0,0,0-1.276-.506c-.452,0-.724.254-.724.615,0,.407.416.6.959.823.779.309,1.729.706,1.729,1.9a1.815,1.815,0,0,1-2.045,1.836,2.79,2.79,0,0,1-2.064-.778Z" fill="#2f2e2c"/>
      <path d="M249.442,180.8c1.2,0,1.882.976,1.882,2.334v.307h-2.741a1.039,1.039,0,0,0,1.058,1.068,1.322,1.322,0,0,0,.95-.425l.5.651a2.128,2.128,0,0,1-1.565.651,2.316,2.316,0,0,1-.082-4.586Zm-.859,1.9h1.691c-.018-.452-.217-1.023-.85-1.023C248.818,181.674,248.6,182.245,248.583,182.7Z" fill="#2f2e2c"/>
      <path d="M252.239,186.941v-6.035h1.086v.552a1.3,1.3,0,0,1,1.1-.66c.986,0,1.619.859,1.619,2.289s-.633,2.3-1.619,2.3a1.275,1.275,0,0,1-1.1-.66v2.217Zm1.837-5.184a.911.911,0,0,0-.751.506v1.647a.943.943,0,0,0,.751.515c.561,0,.85-.57.85-1.338S254.637,181.757,254.076,181.757Z" fill="#2f2e2c"/>
    </g>
    <g>
      <path d="M273.213,179.141c1.583,0,2.524,1.33,2.524,3.122s-.941,3.121-2.524,3.121-2.516-1.321-2.516-3.121S271.638,179.141,273.213,179.141Zm0,1.077c-.824,0-1.267.877-1.267,2.045,0,1.149.443,2.045,1.267,2.045s1.285-.9,1.285-2.045C274.5,181.1,274.045,180.218,273.213,180.218Z" fill="#2f2e2c"/>
      <path d="M278.49,180.8a1.742,1.742,0,0,1,1.393.587l-.543.751a.913.913,0,0,0-.733-.379c-.624,0-1,.569-1,1.33s.371,1.338,1,1.338a.913.913,0,0,0,.733-.379l.543.751a1.742,1.742,0,0,1-1.393.587,2.314,2.314,0,0,1,0-4.586Z" fill="#2f2e2c"/>
      <path d="M280.907,184.226v-2.37h-.571v-.95h.571v-1.194h1.086v1.194h.723v.95h-.723v2.117c0,.281.108.452.316.452a.431.431,0,0,0,.326-.127l.226.834a1.26,1.26,0,0,1-.841.252C281.26,185.384,280.907,185,280.907,184.226Z" fill="#2f2e2c"/>
    </g>
    <g>
      <path d="M301.075,181.43v3.846h-1.2v-6.035h1.23l1.982,3.691v-3.691H304.3v6.035h-1.158Z" fill="#2f2e2c"/>
      <path d="M305.275,183.087a2,2,0,1,1,1.973,2.3A2.05,2.05,0,0,1,305.275,183.087Zm2.832,0c0-.715-.263-1.33-.859-1.33-.579,0-.842.615-.842,1.33s.263,1.338.842,1.338C307.844,184.425,308.107,183.81,308.107,183.087Z" fill="#2f2e2c"/>
      <path d="M309.665,180.906h1.158l.878,3.067.886-3.067h1.159l-1.456,4.37h-1.168Z" fill="#2f2e2c"/>
    </g>
    <g>
      <path d="M327.6,179.241h1.946c1.665,0,2.624,1.248,2.624,3.022s-.951,3.013-2.624,3.013H327.6Zm1.946,4.968c.9,0,1.383-.8,1.383-1.946,0-1.195-.469-1.955-1.383-1.955h-.734v3.9Z" fill="#2f2e2c"/>
      <path d="M334.875,180.8c1.2,0,1.881.976,1.881,2.334v.307h-2.741a1.04,1.04,0,0,0,1.059,1.068,1.322,1.322,0,0,0,.95-.425l.5.651a2.127,2.127,0,0,1-1.565.651,2.316,2.316,0,0,1-.081-4.586Zm-.86,1.9h1.693c-.019-.452-.218-1.023-.851-1.023C334.251,181.674,334.033,182.245,334.015,182.7Z" fill="#2f2e2c"/>
      <path d="M339.445,180.8a1.739,1.739,0,0,1,1.393.587l-.543.751a.91.91,0,0,0-.732-.379c-.624,0-1,.569-1,1.33s.371,1.338,1,1.338a.91.91,0,0,0,.732-.379l.543.751a1.739,1.739,0,0,1-1.393.587,2.315,2.315,0,0,1,0-4.586Z" fill="#2f2e2c"/>
    </g>
    <g>
      <path d="M354.582,183.973a1.018,1.018,0,0,0,.751.335.736.736,0,0,0,.787-.814v-4.253h1.212v4.289a1.7,1.7,0,0,1-1.882,1.854,1.862,1.862,0,0,1-1.3-.461Z" fill="#0b79bf"/>
      <path d="M360.8,184.841a1.433,1.433,0,0,1-1.149.543,1.354,1.354,0,0,1-1.349-1.447,1.308,1.308,0,0,1,1.349-1.412,1.387,1.387,0,0,1,1.149.516v-.579a.717.717,0,0,0-.805-.76,1.527,1.527,0,0,0-1.076.471l-.408-.743a2.476,2.476,0,0,1,1.683-.632c.95,0,1.7.424,1.7,1.546v2.932H360.8Zm0-1.167a.843.843,0,0,0-.733-.424.7.7,0,0,0,0,1.4.817.817,0,0,0,.733-.417Z" fill="#0b79bf"/>
      <path d="M365.514,182.4c0-.462-.208-.642-.569-.642a.99.99,0,0,0-.8.542v2.977h-1.086v-4.37h1.086v.569a1.623,1.623,0,0,1,1.285-.677,1.061,1.061,0,0,1,1.167,1.194v3.284h-1.086Z" fill="#0b79bf"/>
    </g>
    <g>
      <path d="M22.087,54.669a1.64,1.64,0,0,1-1.15-1.55c0-1.19,1.082-1.7,2.154-1.7,1.053,0,2.155.506,2.155,1.7a1.649,1.649,0,0,1-1.16,1.55,1.894,1.894,0,0,1,1.248,1.687c0,1.16-.956,1.784-2.243,1.784s-2.252-.624-2.252-1.774A1.9,1.9,0,0,1,22.087,54.669Zm1,.527a1.124,1.124,0,0,0-.926.994.819.819,0,0,0,.926.81.829.829,0,0,0,.927-.81A1.134,1.134,0,0,0,23.091,55.2Zm0-2.633a.755.755,0,0,0-.848.771c0,.565.6.818.848.877.244-.059.839-.312.839-.877A.752.752,0,0,0,23.091,52.563Z" fill="#2f2e2c"/>
      <path d="M28.687,56.638H26.034V55.547l2.282-4.028h1.677v3.969h.654v1.15h-.654v1.385H28.687Zm-1.473-1.15h1.473V52.845Z" fill="#2f2e2c"/>
      <path d="M33.969,51.423a2.2,2.2,0,0,1,1.667.7L35,53.08a1.176,1.176,0,0,0-1.014-.507c-.81,0-1.3.916-1.3,1.96v.106a1.606,1.606,0,0,1,1.384-.818A1.869,1.869,0,0,1,35.9,55.926a2.1,2.1,0,0,1-2.135,2.214c-1.725,0-2.4-1.55-2.4-3.354C31.366,52.836,32.292,51.423,33.969,51.423Zm-.3,3.5a1.2,1.2,0,0,0-.975.672c.049.605.273,1.4,1,1.4a.925.925,0,0,0,.878-1.015C34.574,55.206,34.135,54.923,33.667,54.923Z" fill="#2f2e2c"/>
    </g>
    <g>
      <path d="M51.86,61.672H49.169V60.52h4.173v.907l-2.018,5.6H49.91Z" fill="#2f2e2c"/>
      <path d="M55.272,63.67a1.639,1.639,0,0,1-1.151-1.55c0-1.19,1.082-1.7,2.155-1.7,1.053,0,2.155.507,2.155,1.7a1.649,1.649,0,0,1-1.16,1.55,1.894,1.894,0,0,1,1.248,1.687c0,1.16-.956,1.784-2.243,1.784s-2.252-.624-2.252-1.774A1.894,1.894,0,0,1,55.272,63.67Zm1,.527a1.124,1.124,0,0,0-.926.994.819.819,0,0,0,.926.81.828.828,0,0,0,.926-.81A1.134,1.134,0,0,0,56.276,64.2Zm0-2.633a.755.755,0,0,0-.848.771c0,.565.6.818.848.877.244-.059.838-.312.838-.877A.751.751,0,0,0,56.276,61.564Z" fill="#2f2e2c"/>
      <path d="M60.837,62.208l-.985,1.023-.75-.79,1.911-1.921h1.14v6.5H60.837Z" fill="#2f2e2c"/>
    </g>
    <g>
      <path d="M77.973,67.671H75.282V66.519h4.173v.907l-2.018,5.6H76.023Z" fill="#2f2e2c"/>
      <path d="M80.994,71.288a1.646,1.646,0,0,0,1.356.7.971.971,0,0,0,.985-1.034c0-.644-.342-1.033-.927-1.033a1.294,1.294,0,0,0-1.072.536l-.946-.244v-3.7h3.9v1.142h-2.6v1.677a1.6,1.6,0,0,1,1.2-.527c.985,0,1.775.761,1.775,2.106a2.122,2.122,0,0,1-2.272,2.223,2.536,2.536,0,0,1-2.184-1.024Z" fill="#2f2e2c"/>
      <path d="M87.789,66.423c1.618,0,2.3,1.5,2.3,3.353s-.672,3.364-2.3,3.364c-1.609,0-2.3-1.521-2.3-3.364S86.18,66.423,87.789,66.423Zm0,1.16c-.751,0-.966.935-.966,2.193s.215,2.2.966,2.2.974-.956.974-2.2S88.549,67.583,87.789,67.583Z" fill="#2f2e2c"/>
    </g>
    <g>
      <path d="M104.61,53.669a1.64,1.64,0,0,1-1.15-1.55c0-1.19,1.082-1.7,2.154-1.7,1.053,0,2.155.506,2.155,1.7a1.649,1.649,0,0,1-1.16,1.55,1.894,1.894,0,0,1,1.248,1.687c0,1.16-.956,1.784-2.243,1.784s-2.252-.624-2.252-1.774A1.9,1.9,0,0,1,104.61,53.669Zm1,.527a1.124,1.124,0,0,0-.926.994.818.818,0,0,0,.926.81.829.829,0,0,0,.927-.81A1.134,1.134,0,0,0,105.614,54.2Zm0-2.633a.755.755,0,0,0-.848.771c0,.565.595.818.848.877.244-.059.839-.312.839-.877A.752.752,0,0,0,105.614,51.563Z" fill="#2f2e2c"/>
      <path d="M111.21,55.638h-2.653V54.547l2.282-4.028h1.677v3.969h.653v1.15h-.653v1.385H111.21Zm-1.473-1.15h1.473V51.845Z" fill="#2f2e2c"/>
      <path d="M116.492,50.423a2.2,2.2,0,0,1,1.667.7l-.634.956a1.173,1.173,0,0,0-1.013-.507c-.81,0-1.3.916-1.3,1.96v.106a1.606,1.606,0,0,1,1.384-.818,1.869,1.869,0,0,1,1.823,2.105,2.1,2.1,0,0,1-2.135,2.214c-1.725,0-2.4-1.55-2.4-3.354C113.889,51.836,114.815,50.423,116.492,50.423Zm-.3,3.5a1.2,1.2,0,0,0-.975.672c.049.605.273,1.4,1,1.4a.925.925,0,0,0,.878-1.015C117.1,54.206,116.658,53.923,116.19,53.923Z" fill="#2f2e2c"/>
    </g>
    <g>
      <path d="M162.166,81.671h-2.691V80.519h4.173v.907l-2.019,5.6h-1.413Z" fill="#2f2e2c"/>
      <path d="M166.923,81.671h-2.691V80.519h4.173v.907l-2.019,5.6h-1.413Z" fill="#2f2e2c"/>
      <path d="M169.943,85.288a1.646,1.646,0,0,0,1.356.7.971.971,0,0,0,.985-1.034c0-.644-.342-1.033-.927-1.033a1.3,1.3,0,0,0-1.072.536l-.946-.244v-3.7h3.9v1.142h-2.6v1.677a1.6,1.6,0,0,1,1.2-.527c.985,0,1.775.761,1.775,2.106a2.122,2.122,0,0,1-2.272,2.223,2.537,2.537,0,0,1-2.184-1.024Z" fill="#2f2e2c"/>
    </g>
    <g>
      <path d="M134.06,71.671h-2.692V70.519h4.174v.907l-2.019,5.6h-1.414Z" fill="#2f2e2c"/>
      <path d="M136.9,75.278a1.792,1.792,0,0,0,1.394.712c.682,0,.994-.361.994-.868,0-.615-.419-.839-1.052-.839-.215,0-.508.01-.6.019v-1.16c.1.01.419.01.575.01.595,0,1-.253,1-.77,0-.546-.39-.809-.956-.809a1.663,1.663,0,0,0-1.3.653l-.741-.751a2.546,2.546,0,0,1,2.145-1.052c1.287,0,2.135.614,2.135,1.764a1.535,1.535,0,0,1-1.228,1.482,1.568,1.568,0,0,1,1.326,1.56,1.969,1.969,0,0,1-2.233,1.911,2.647,2.647,0,0,1-2.233-1.052Z" fill="#2f2e2c"/>
      <path d="M143.972,75.638H141.32V74.547l2.282-4.028h1.677v3.969h.653v1.15h-.653v1.385h-1.307Zm-1.472-1.15h1.472V71.845Z" fill="#2f2e2c"/>
    </g>
    <g>
      <path d="M188.847,84.669a1.64,1.64,0,0,1-1.15-1.55c0-1.19,1.082-1.7,2.155-1.7,1.052,0,2.154.506,2.154,1.7a1.647,1.647,0,0,1-1.16,1.55,1.894,1.894,0,0,1,1.248,1.687c0,1.16-.955,1.784-2.242,1.784s-2.253-.624-2.253-1.774A1.9,1.9,0,0,1,188.847,84.669Zm1,.527a1.125,1.125,0,0,0-.927.994.819.819,0,0,0,.927.81.829.829,0,0,0,.926-.81A1.134,1.134,0,0,0,189.852,85.2Zm0-2.633a.755.755,0,0,0-.849.771c0,.565.6.818.849.877.243-.059.838-.312.838-.877A.752.752,0,0,0,189.852,82.563Z" fill="#2f2e2c"/>
      <path d="M194.413,83.207l-.985,1.023-.75-.79,1.911-1.921h1.141v6.5h-1.317Z" fill="#2f2e2c"/>
      <path d="M199.4,82.671h-2.692V81.519h4.174v.907l-2.019,5.6h-1.413Z" fill="#2f2e2c"/>
    </g>
    <g>
      <path d="M215.275,51.288a1.645,1.645,0,0,0,1.355.7.971.971,0,0,0,.985-1.034c0-.644-.341-1.033-.926-1.033a1.3,1.3,0,0,0-1.073.536l-.946-.244v-3.7h3.9v1.142h-2.6v1.677a1.607,1.607,0,0,1,1.2-.527c.984,0,1.774.761,1.774,2.106a2.122,2.122,0,0,1-2.272,2.223,2.538,2.538,0,0,1-2.184-1.024Z" fill="#2f2e2c"/>
      <path d="M222.352,47.671h-2.691V46.519h4.173v.907l-2.019,5.6H220.4Z" fill="#2f2e2c"/>
      <path d="M227.06,51.638h-2.652V50.547l2.282-4.028h1.677v3.969h.653v1.15h-.653v1.385H227.06Zm-1.472-1.15h1.472V47.845Z" fill="#2f2e2c"/>
    </g>
    <g>
      <path d="M244.724,71.423a2.2,2.2,0,0,1,1.667.7l-.634.956a1.173,1.173,0,0,0-1.013-.507c-.81,0-1.3.916-1.3,1.96v.106a1.605,1.605,0,0,1,1.384-.818,1.869,1.869,0,0,1,1.823,2.105,2.1,2.1,0,0,1-2.135,2.214c-1.725,0-2.4-1.55-2.4-3.354C242.121,72.836,243.047,71.423,244.724,71.423Zm-.3,3.5a1.2,1.2,0,0,0-.975.672c.049.605.273,1.395,1,1.395a.925.925,0,0,0,.878-1.015C245.329,75.206,244.89,74.923,244.422,74.923Z" fill="#2f2e2c"/>
      <path d="M248.681,74.669a1.639,1.639,0,0,1-1.151-1.55c0-1.19,1.082-1.7,2.155-1.7,1.053,0,2.155.506,2.155,1.7a1.649,1.649,0,0,1-1.16,1.55,1.9,1.9,0,0,1,1.248,1.687c0,1.16-.956,1.784-2.243,1.784s-2.252-.624-2.252-1.774A1.9,1.9,0,0,1,248.681,74.669Zm1,.527a1.124,1.124,0,0,0-.926.994.819.819,0,0,0,.926.81.828.828,0,0,0,.926-.81A1.134,1.134,0,0,0,249.685,75.2Zm0-2.633a.755.755,0,0,0-.848.771c0,.565.595.818.848.877.244-.059.839-.312.839-.877A.752.752,0,0,0,249.685,72.563Z" fill="#2f2e2c"/>
      <path d="M253.593,76.472a1.207,1.207,0,0,0,1.024.508c.819,0,1.3-.907,1.3-1.95v-.117a1.632,1.632,0,0,1-1.385.819,1.869,1.869,0,0,1-1.823-2.106,2.094,2.094,0,0,1,2.135-2.213c1.717,0,2.39,1.55,2.39,3.363,0,1.94-.927,3.355-2.6,3.355a2.2,2.2,0,0,1-1.658-.7Zm1.317-3.909a.924.924,0,0,0-.878,1.014c0,.77.449,1.053.907,1.053a1.181,1.181,0,0,0,.965-.664C255.865,73.352,255.651,72.563,254.91,72.563Z" fill="#2f2e2c"/>
    </g>
    <g>
      <path d="M273.721,89.423a2.2,2.2,0,0,1,1.667.7l-.634.956a1.173,1.173,0,0,0-1.013-.507c-.81,0-1.3.916-1.3,1.96v.106a1.606,1.606,0,0,1,1.384-.818,1.869,1.869,0,0,1,1.823,2.105,2.1,2.1,0,0,1-2.135,2.214c-1.725,0-2.4-1.55-2.4-3.354C271.118,90.836,272.044,89.423,273.721,89.423Zm-.3,3.5a1.2,1.2,0,0,0-.975.672c.049.605.273,1.395,1,1.395a.925.925,0,0,0,.878-1.015C274.326,93.206,273.887,92.923,273.419,92.923Z" fill="#2f2e2c"/>
      <path d="M279.024,90.671h-2.692V89.519h4.173v.907l-2.018,5.6h-1.414Z" fill="#2f2e2c"/>
      <path d="M282.7,91.207l-.985,1.023-.751-.79,1.912-1.921h1.14v6.5H282.7Z" fill="#2f2e2c"/>
    </g>
    <g>
      <path d="M299.745,84.423a2.207,2.207,0,0,1,1.668.7l-.634.956a1.177,1.177,0,0,0-1.015-.507c-.808,0-1.3.916-1.3,1.96v.106a1.608,1.608,0,0,1,1.385-.818,1.869,1.869,0,0,1,1.823,2.105,2.094,2.094,0,0,1-2.134,2.214c-1.727,0-2.4-1.55-2.4-3.354C297.141,85.836,298.068,84.423,299.745,84.423Zm-.3,3.5a1.2,1.2,0,0,0-.976.672c.049.605.274,1.395,1,1.395a.924.924,0,0,0,.877-1.015C300.349,88.206,299.911,87.923,299.443,87.923Z" fill="#2f2e2c"/>
      <path d="M303.127,89.278a1.794,1.794,0,0,0,1.394.712c.683,0,1-.361,1-.868,0-.615-.42-.839-1.054-.839-.213,0-.506.01-.6.019v-1.16c.1.01.42.01.575.01.6,0,1-.253,1-.77,0-.546-.39-.809-.956-.809a1.663,1.663,0,0,0-1.3.653l-.74-.751a2.546,2.546,0,0,1,2.145-1.052c1.287,0,2.135.614,2.135,1.764a1.535,1.535,0,0,1-1.228,1.482,1.568,1.568,0,0,1,1.326,1.56,1.969,1.969,0,0,1-2.233,1.911,2.645,2.645,0,0,1-2.233-1.052Z" fill="#2f2e2c"/>
      <path d="M309.97,84.423c1.618,0,2.3,1.5,2.3,3.353s-.673,3.364-2.3,3.364c-1.609,0-2.3-1.521-2.3-3.364S308.361,84.423,309.97,84.423Zm0,1.16c-.751,0-.966.935-.966,2.193s.215,2.2.966,2.2.975-.956.975-2.2S310.731,85.583,309.97,85.583Z" fill="#2f2e2c"/>
    </g>
    <g>
      <path d="M326.063,72.669a1.639,1.639,0,0,1-1.151-1.55c0-1.19,1.083-1.7,2.155-1.7,1.053,0,2.154.506,2.154,1.7a1.649,1.649,0,0,1-1.16,1.55,1.894,1.894,0,0,1,1.248,1.687c0,1.16-.955,1.784-2.242,1.784s-2.252-.624-2.252-1.774A1.9,1.9,0,0,1,326.063,72.669Zm1,.527a1.125,1.125,0,0,0-.927.994.819.819,0,0,0,.927.81.828.828,0,0,0,.926-.81A1.134,1.134,0,0,0,327.067,73.2Zm0-2.633a.755.755,0,0,0-.849.771c0,.565.595.818.849.877.244-.059.839-.312.839-.877A.752.752,0,0,0,327.067,70.563Z" fill="#2f2e2c"/>
      <path d="M331.366,72.669a1.64,1.64,0,0,1-1.152-1.55c0-1.19,1.083-1.7,2.156-1.7,1.052,0,2.154.506,2.154,1.7a1.649,1.649,0,0,1-1.16,1.55,1.894,1.894,0,0,1,1.248,1.687c0,1.16-.955,1.784-2.242,1.784s-2.252-.624-2.252-1.774A1.9,1.9,0,0,1,331.366,72.669Zm1,.527a1.124,1.124,0,0,0-.927.994.819.819,0,0,0,.927.81.827.827,0,0,0,.925-.81A1.135,1.135,0,0,0,332.37,73.2Zm0-2.633a.755.755,0,0,0-.849.771c0,.565.595.818.849.877.244-.059.839-.312.839-.877A.752.752,0,0,0,332.37,70.563Z" fill="#2f2e2c"/>
      <path d="M338.033,69.423a2.207,2.207,0,0,1,1.668.7l-.634.956a1.177,1.177,0,0,0-1.015-.507c-.808,0-1.3.916-1.3,1.96v.106a1.609,1.609,0,0,1,1.385-.818,1.869,1.869,0,0,1,1.823,2.105,2.094,2.094,0,0,1-2.134,2.214c-1.727,0-2.4-1.55-2.4-3.354C335.43,70.836,336.356,69.423,338.033,69.423Zm-.3,3.5a1.2,1.2,0,0,0-.976.672c.049.605.274,1.395,1,1.395a.924.924,0,0,0,.877-1.015C338.637,73.206,338.2,72.923,337.731,72.923Z" fill="#2f2e2c"/>
    </g>
    <g>
      <path d="M355.49,65.638h-2.652V64.547l2.282-4.028H356.8v3.969h.654v1.15H356.8v1.385H355.49Zm-1.472-1.15h1.472V61.845Z" fill="#0b79bf"/>
      <path d="M360.773,60.423a2.207,2.207,0,0,1,1.668.7l-.634.956a1.175,1.175,0,0,0-1.014-.507c-.809,0-1.3.916-1.3,1.96v.106a1.606,1.606,0,0,1,1.384-.818,1.869,1.869,0,0,1,1.824,2.105,2.1,2.1,0,0,1-2.135,2.214c-1.727,0-2.4-1.55-2.4-3.354C358.17,61.836,359.1,60.423,360.773,60.423Zm-.3,3.5a1.2,1.2,0,0,0-.975.672c.048.605.273,1.395,1,1.395a.924.924,0,0,0,.877-1.015C361.378,64.206,360.939,63.923,360.471,63.923Z" fill="#0b79bf"/>
      <path d="M364.731,63.669a1.639,1.639,0,0,1-1.151-1.55c0-1.19,1.083-1.7,2.155-1.7,1.053,0,2.154.506,2.154,1.7a1.649,1.649,0,0,1-1.16,1.55,1.894,1.894,0,0,1,1.248,1.687c0,1.16-.955,1.784-2.242,1.784s-2.252-.624-2.252-1.774A1.9,1.9,0,0,1,364.731,63.669Zm1,.527a1.124,1.124,0,0,0-.927.994.819.819,0,0,0,.927.81.828.828,0,0,0,.926-.81A1.134,1.134,0,0,0,365.735,64.2Zm0-2.633a.755.755,0,0,0-.849.771c0,.565.595.818.849.877.244-.059.839-.312.839-.877A.752.752,0,0,0,365.735,61.563Z" fill="#0b79bf"/>
    </g>
    <rect x="18.46" y="61.848" width="18.232" height="111.865" fill="#32b44a"/>
    <rect x="46.396" y="71.224" width="18.232" height="102.488" fill="#32b44a"/>
    <rect x="73.794" y="76.67" width="18.232" height="97.043" fill="#32b44a"/>
    <rect x="101.436" y="60.855" width="18.232" height="112.858" fill="#32b44a"/>
    <rect x="129.371" y="81.42" width="18.232" height="92.293" fill="#32b44a"/>
    <rect x="157.013" y="89.654" width="18.232" height="84.059" fill="#32b44a"/>
    <rect x="184.956" y="91.616" width="18.232" height="82.097" fill="#32b44a"/>
    <rect x="212.597" y="56.918" width="18.232" height="116.795" fill="#32b44a"/>
    <rect x="240.533" y="81.42" width="18.232" height="92.293" fill="#32b44a"/>
    <rect x="268.469" y="99.083" width="18.232" height="74.63" fill="#32b44a"/>
    <rect x="295.817" y="94.682" width="18.232" height="79.031" fill="#32b44a"/>
    <rect x="323.459" y="79.886" width="18.232" height="93.827" fill="#32b44a"/>
    <rect x="351.395" y="70.19" width="18.232" height="103.523" fill="#0b79bf"/>
    <g>
      <path d="M21.884,202.141l-.664.85v1.279h-.693v-6.513h.693v4.355l1.963-2.559h.83l-1.65,2.12,1.65,2.6h-.83Z" fill="#2f2e2c"/>
      <path d="M27.714,199.133l-1.055,5.137h-.83l-1.445-6.513h.83l1.064,5.312,1.114-5.312h.654l1.113,5.312,1.065-5.312h.83l-1.446,6.513h-.83Z" fill="#2f2e2c"/>
      <path d="M34.618,200.9c0-.625-.293-.84-.762-.84a1.377,1.377,0,0,0-1.1.752v3.457h-.694v-6.513h.694v2.47a1.768,1.768,0,0,1,1.376-.791c.8,0,1.182.4,1.182,1.26v3.574h-.693Z" fill="#2f2e2c"/>
      <path d="M38.748,199.817h3.721v.5H38.748Zm0,1.895h3.721v.488H38.748Z" fill="#2f2e2c"/>
      <path d="M48.943,202.8H46.57l-.42,1.474h-.811l1.954-6.513h.927l1.953,6.513h-.81Zm-2.207-.684h2.041L47.752,198.5Z" fill="#2f2e2c"/>
      <path d="M54.382,198.782l-1.006,1.074-.469-.488,1.563-1.611h.683v6.513h-.771Z" fill="#2f2e2c"/>
      <path d="M58.542,197.659c1.523,0,2.041,1.689,2.041,3.359s-.518,3.369-2.041,3.369-2.041-1.7-2.041-3.369S57.018,197.659,58.542,197.659Zm0,.693c-1,0-1.241,1.377-1.241,2.666s.235,2.676,1.241,2.676,1.25-1.4,1.25-2.676S59.547,198.352,58.542,198.352Z" fill="#2f2e2c"/>
      <path d="M63.746,197.659c1.524,0,2.041,1.689,2.041,3.359s-.517,3.369-2.041,3.369-2.041-1.7-2.041-3.369S62.223,197.659,63.746,197.659Zm0,.693c-1,0-1.24,1.377-1.24,2.666s.234,2.676,1.24,2.676S65,202.3,65,201.018,64.752,198.352,63.746,198.352Z" fill="#2f2e2c"/>
      <path d="M66.744,201.594h2.022v.625H66.744Z" fill="#2f2e2c"/>
      <path d="M72.378,200.481l-1.015,3.789H70.65l-1.26-4.717h.733l.918,3.77,1-3.77H72.7l1.006,3.77.927-3.77h.733l-1.26,4.717h-.723Z" fill="#2f2e2c"/>
      <path d="M78.765,203.762a1.476,1.476,0,0,1-1.241.625,1.449,1.449,0,0,1-1.425-1.572,1.427,1.427,0,0,1,1.425-1.553,1.471,1.471,0,0,1,1.241.606v-.82a.9.9,0,0,0-.967-1.006,1.5,1.5,0,0,0-1.182.576l-.312-.5a2.158,2.158,0,0,1,1.6-.684,1.389,1.389,0,0,1,1.563,1.533v3.3h-.7Zm0-1.377a1.134,1.134,0,0,0-1.016-.6,1.057,1.057,0,0,0,0,2.1,1.144,1.144,0,0,0,1.016-.6Z" fill="#2f2e2c"/>
      <path d="M81.088,203.323v-3.154h-.625v-.616h.625v-1.289h.7v1.289h.8v.616h-.8V203.2c0,.361.107.566.38.566a.53.53,0,0,0,.411-.185l.214.527a1.013,1.013,0,0,1-.761.283C81.391,204.387,81.088,204.026,81.088,203.323Z" fill="#2f2e2c"/>
      <path d="M83.862,203.323v-3.154h-.625v-.616h.625v-1.289h.7v1.289h.8v.616h-.8V203.2c0,.361.107.566.381.566a.528.528,0,0,0,.41-.185l.215.527a1.015,1.015,0,0,1-.762.283C84.165,204.387,83.862,204.026,83.862,203.323Z" fill="#2f2e2c"/>
      <path d="M88.8,197.757H89.5v2.48a1.434,1.434,0,0,1,1.24-.8c1.065,0,1.69,1.016,1.69,2.481,0,1.484-.625,2.47-1.69,2.47a1.472,1.472,0,0,1-1.24-.791v.674H88.8Zm1.758,6c.771,0,1.132-.83,1.132-1.845s-.361-1.856-1.132-1.856a1.3,1.3,0,0,0-1.065.781V203A1.277,1.277,0,0,0,90.561,203.762Z" fill="#2f2e2c"/>
      <path d="M96.244,203.616a1.718,1.718,0,0,1-1.367.771c-.8,0-1.182-.4-1.182-1.259v-3.575h.693v3.37c0,.625.293.839.752.839a1.328,1.328,0,0,0,1.1-.732v-3.477h.7v4.717h-.7Z" fill="#2f2e2c"/>
      <path d="M98.44,197.757h.694v6.513H98.44Z" fill="#2f2e2c"/>
      <path d="M100.628,197.757h.693v2.48a1.435,1.435,0,0,1,1.241-.8c1.064,0,1.689,1.016,1.689,2.481,0,1.484-.625,2.47-1.689,2.47a1.474,1.474,0,0,1-1.241-.791v.674h-.693Zm1.758,6c.771,0,1.133-.83,1.133-1.845s-.362-1.856-1.133-1.856a1.3,1.3,0,0,0-1.065.781V203A1.277,1.277,0,0,0,102.386,203.762Z" fill="#2f2e2c"/>
      <path d="M107.825,197.757h.693v2.48a1.434,1.434,0,0,1,1.24-.8c1.065,0,1.69,1.016,1.69,2.481,0,1.484-.625,2.47-1.69,2.47a1.472,1.472,0,0,1-1.24-.791v.674h-.693Zm1.758,6c.771,0,1.132-.83,1.132-1.845s-.361-1.856-1.132-1.856a1.3,1.3,0,0,0-1.065.781V203A1.277,1.277,0,0,0,109.583,203.762Z" fill="#2f2e2c"/>
      <path d="M115.266,203.616a1.719,1.719,0,0,1-1.367.771c-.8,0-1.182-.4-1.182-1.259v-3.575h.693v3.37c0,.625.293.839.752.839a1.328,1.328,0,0,0,1.1-.732v-3.477h.7v4.717h-.7Z" fill="#2f2e2c"/>
      <path d="M117.462,199.553h.694v.752a1.583,1.583,0,0,1,1.338-.849v.722a1,1,0,0,0-.235-.029,1.414,1.414,0,0,0-1.1.772v3.349h-.694Z" fill="#2f2e2c"/>
      <path d="M123.058,200.911c0-.625-.283-.85-.752-.85a1.378,1.378,0,0,0-1.1.752v3.457h-.694v-4.717h.694v.674a1.749,1.749,0,0,1,1.367-.791c.8,0,1.191.43,1.191,1.279v3.555h-.7Z" fill="#2f2e2c"/>
      <path d="M125.118,198.284a.486.486,0,0,1,.479-.479.479.479,0,0,1,0,.957A.485.485,0,0,1,125.118,198.284Zm.137,1.269h.693v4.717h-.693Z" fill="#2f2e2c"/>
      <path d="M129.991,200.911c0-.625-.283-.85-.752-.85a1.38,1.38,0,0,0-1.1.752v3.457h-.693v-4.717h.693v.674a1.753,1.753,0,0,1,1.368-.791c.8,0,1.191.43,1.191,1.279v3.555h-.7Z" fill="#2f2e2c"/>
      <path d="M132.471,205.042a1.541,1.541,0,0,0,1.231.547,1.127,1.127,0,0,0,1.181-1.28v-.791a1.493,1.493,0,0,1-1.24.811c-1.055,0-1.689-.957-1.689-2.442,0-1.464.625-2.451,1.689-2.451a1.433,1.433,0,0,1,1.24.8v-.684h.7v4.707a1.7,1.7,0,0,1-1.865,1.924,2.03,2.03,0,0,1-1.572-.595Zm2.412-4.209a1.261,1.261,0,0,0-1.064-.772c-.772,0-1.133.811-1.133,1.826s.361,1.817,1.133,1.817a1.271,1.271,0,0,0,1.064-.781Z" fill="#2f2e2c"/>
      <path d="M139.541,200.169h-.625v-.616h.625v-.576a1.158,1.158,0,0,1,1.152-1.318,1.318,1.318,0,0,1,.606.137l-.166.546a.684.684,0,0,0-.313-.078c-.371,0-.576.254-.576.713v.576h.8v.616h-.8v4.1h-.7Z" fill="#2f2e2c"/>
      <path d="M141.826,201.907c0-1.328.664-2.471,1.914-2.471,1.269,0,1.924,1.143,1.924,2.471s-.655,2.48-1.924,2.48C142.49,204.387,141.826,203.235,141.826,201.907Zm3.105,0c0-.947-.361-1.846-1.191-1.846-.811,0-1.182.9-1.182,1.846s.371,1.855,1.182,1.855C144.57,203.762,144.931,202.864,144.931,201.907Z" fill="#2f2e2c"/>
      <path d="M146.923,199.553h.693v.752a1.583,1.583,0,0,1,1.338-.849v.722a.986.986,0,0,0-.234-.029,1.416,1.416,0,0,0-1.1.772v3.349h-.693Z" fill="#2f2e2c"/>
      <path d="M153.251,198.782l-1.006,1.074-.469-.488,1.562-1.611h.684v6.513h-.771Z" fill="#2f2e2c"/>
      <path d="M157.411,197.659c1.523,0,2.041,1.689,2.041,3.359s-.518,3.369-2.041,3.369-2.041-1.7-2.041-3.369S155.887,197.659,157.411,197.659Zm0,.693c-1,0-1.241,1.377-1.241,2.666s.235,2.676,1.241,2.676,1.25-1.4,1.25-2.676S158.417,198.352,157.411,198.352Z" fill="#2f2e2c"/>
      <path d="M165.623,200.9c0-.625-.293-.84-.762-.84a1.38,1.38,0,0,0-1.1.752v3.457h-.693v-6.513h.693v2.47a1.771,1.771,0,0,1,1.377-.791c.8,0,1.182.4,1.182,1.26v3.574h-.693Z" fill="#2f2e2c"/>
      <path d="M167.576,201.907c0-1.328.664-2.471,1.914-2.471,1.27,0,1.924,1.143,1.924,2.471s-.654,2.48-1.924,2.48C168.24,204.387,167.576,203.235,167.576,201.907Zm3.106,0c0-.947-.362-1.846-1.192-1.846-.81,0-1.181.9-1.181,1.846s.371,1.855,1.181,1.855C170.32,203.762,170.682,202.864,170.682,201.907Z" fill="#2f2e2c"/>
      <path d="M175.222,203.616a1.718,1.718,0,0,1-1.367.771c-.8,0-1.182-.4-1.182-1.259v-3.575h.693v3.37c0,.625.293.839.752.839a1.328,1.328,0,0,0,1.1-.732v-3.477h.7v4.717h-.7Z" fill="#2f2e2c"/>
      <path d="M177.419,199.553h.693v.752a1.583,1.583,0,0,1,1.338-.849v.722a.986.986,0,0,0-.234-.029,1.416,1.416,0,0,0-1.1.772v3.349h-.693Z" fill="#2f2e2c"/>
      <path d="M180.436,203.225a1.625,1.625,0,0,0,1.23.6c.547,0,.908-.293.908-.742,0-.508-.468-.713-.986-.928-.645-.254-1.367-.537-1.367-1.445a1.337,1.337,0,0,1,1.5-1.27,1.885,1.885,0,0,1,1.435.606l-.332.478a1.359,1.359,0,0,0-1.094-.517c-.517,0-.839.283-.839.664,0,.449.439.644.937.849.654.264,1.416.557,1.416,1.524a1.393,1.393,0,0,1-1.572,1.347,2,2,0,0,1-1.592-.664Z" fill="#2f2e2c"/>
      <path d="M189.3,203.616a1.716,1.716,0,0,1-1.367.771c-.8,0-1.182-.4-1.182-1.259v-3.575h.693v3.37c0,.625.293.839.752.839a1.328,1.328,0,0,0,1.1-.732v-3.477h.7v4.717h-.7Z" fill="#2f2e2c"/>
      <path d="M191.47,203.225a1.625,1.625,0,0,0,1.23.6c.547,0,.908-.293.908-.742,0-.508-.468-.713-.986-.928-.644-.254-1.367-.537-1.367-1.445a1.337,1.337,0,0,1,1.5-1.27,1.885,1.885,0,0,1,1.435.606l-.332.478a1.357,1.357,0,0,0-1.093-.517c-.518,0-.84.283-.84.664,0,.449.439.644.937.849.655.264,1.416.557,1.416,1.524a1.393,1.393,0,0,1-1.572,1.347,2,2,0,0,1-1.592-.664Z" fill="#2f2e2c"/>
      <path d="M197.163,199.436c1.24,0,1.865,1.113,1.865,2.49v.215h-3.056c.029.948.517,1.66,1.357,1.66a1.455,1.455,0,0,0,1.123-.576l.371.41a1.962,1.962,0,0,1-1.552.752c-1.26,0-2.022-1.035-2.022-2.48C195.249,200.54,195.972,199.436,197.163,199.436Zm-1.191,2.188h2.363c-.01-.723-.322-1.6-1.182-1.6C196.323,200.022,195.991,200.93,195.972,201.624Z" fill="#2f2e2c"/>
      <path d="M200.23,203.225a1.625,1.625,0,0,0,1.23.6c.547,0,.908-.293.908-.742,0-.508-.469-.713-.986-.928-.645-.254-1.367-.537-1.367-1.445a1.337,1.337,0,0,1,1.5-1.27,1.885,1.885,0,0,1,1.435.606l-.332.478a1.359,1.359,0,0,0-1.094-.517c-.517,0-.839.283-.839.664,0,.449.439.644.937.849.654.264,1.416.557,1.416,1.524a1.393,1.393,0,0,1-1.572,1.347,2,2,0,0,1-1.592-.664Z" fill="#2f2e2c"/>
      <path d="M207.524,198.782l-1.006,1.074-.469-.488,1.562-1.611h.684v6.513h-.771Z" fill="#2f2e2c"/>
      <path d="M213.49,202.141l-.664.85v1.279h-.693v-6.513h.693v4.355l1.963-2.559h.83l-1.65,2.12,1.65,2.6h-.83Z" fill="#2f2e2c"/>
      <path d="M216.478,198.284a.485.485,0,0,1,.478-.479.479.479,0,1,1,0,.957A.485.485,0,0,1,216.478,198.284Zm.136,1.269h.694v4.717h-.694Z" fill="#2f2e2c"/>
      <path d="M218.8,197.757h.693v6.513H218.8Z" fill="#2f2e2c"/>
      <path d="M220.755,201.907c0-1.328.664-2.471,1.914-2.471,1.27,0,1.924,1.143,1.924,2.471s-.654,2.48-1.924,2.48C221.419,204.387,220.755,203.235,220.755,201.907Zm3.105,0c0-.947-.361-1.846-1.191-1.846-.811,0-1.182.9-1.182,1.846s.371,1.855,1.182,1.855C223.5,203.762,223.86,202.864,223.86,201.907Z" fill="#2f2e2c"/>
      <path d="M228.322,200.481l-1.015,3.789h-.713l-1.26-4.717h.732l.918,3.77,1-3.77h.664l1,3.77.928-3.77h.733l-1.26,4.717h-.723Z" fill="#2f2e2c"/>
      <path d="M234.709,203.762a1.475,1.475,0,0,1-1.24.625,1.449,1.449,0,0,1-1.426-1.572,1.427,1.427,0,0,1,1.426-1.553,1.47,1.47,0,0,1,1.24.606v-.82a.9.9,0,0,0-.967-1.006,1.5,1.5,0,0,0-1.181.576l-.313-.5a2.159,2.159,0,0,1,1.6-.684,1.388,1.388,0,0,1,1.562,1.533v3.3h-.7Zm0-1.377a1.133,1.133,0,0,0-1.016-.6,1.057,1.057,0,0,0,0,2.1,1.143,1.143,0,0,0,1.016-.6Z" fill="#2f2e2c"/>
      <path d="M237.032,203.323v-3.154h-.625v-.616h.625v-1.289h.7v1.289h.8v.616h-.8V203.2c0,.361.108.566.381.566a.526.526,0,0,0,.41-.185l.215.527a1.013,1.013,0,0,1-.761.283C237.335,204.387,237.032,204.026,237.032,203.323Z" fill="#2f2e2c"/>
      <path d="M239.806,203.323v-3.154h-.625v-.616h.625v-1.289h.7v1.289h.8v.616h-.8V203.2c0,.361.107.566.381.566a.529.529,0,0,0,.41-.185l.215.527a1.015,1.015,0,0,1-.762.283C240.108,204.387,239.806,204.026,239.806,203.323Z" fill="#2f2e2c"/>
      <path d="M242.091,201.594h2.021v.625h-2.021Z" fill="#2f2e2c"/>
      <path d="M247.813,200.9c0-.625-.293-.84-.762-.84a1.38,1.38,0,0,0-1.1.752v3.457h-.693v-6.513h.693v2.47a1.771,1.771,0,0,1,1.377-.791c.8,0,1.182.4,1.182,1.26v3.574h-.693Z" fill="#2f2e2c"/>
      <path d="M249.766,201.907c0-1.328.664-2.471,1.914-2.471,1.269,0,1.924,1.143,1.924,2.471s-.655,2.48-1.924,2.48C250.43,204.387,249.766,203.235,249.766,201.907Zm3.105,0c0-.947-.361-1.846-1.191-1.846-.811,0-1.182.9-1.182,1.846s.371,1.855,1.182,1.855C252.51,203.762,252.871,202.864,252.871,201.907Z" fill="#2f2e2c"/>
      <path d="M257.412,203.616a1.716,1.716,0,0,1-1.367.771c-.8,0-1.182-.4-1.182-1.259v-3.575h.694v3.37c0,.625.293.839.752.839a1.328,1.328,0,0,0,1.1-.732v-3.477h.7v4.717h-.7Z" fill="#2f2e2c"/>
      <path d="M259.608,199.553h.694v.752a1.583,1.583,0,0,1,1.338-.849v.722a1,1,0,0,0-.235-.029,1.414,1.414,0,0,0-1.1.772v3.349h-.694Z" fill="#2f2e2c"/>
      <path d="M262.411,203.323a.523.523,0,1,1,0,1.045.523.523,0,0,1,0-1.045Z" fill="#2f2e2c"/>
    </g>
  </g>
</svg>
