<svg xmlns="http://www.w3.org/2000/svg" width="543.83" height="247.373" viewBox="0 0 543.83 247.373">
  <g>
    <rect y="32.349" width="543.83" height="215.024" fill="#f2f0ec"/>
    <path d="M527.847,0H15.984C7.156,0,0,6.433,0,14.369v14.7H543.83v-14.7C543.83,6.433,536.674,0,527.847,0Z" fill="#f2f0ec"/>
    <g>
      <path d="M26.037,20.286h-3.49l-.5,1.9H19.826L23,11.514h2.593L28.757,22.19H26.533Zm-3.058-1.873H25.6l-1.313-4.994Z" fill="#0b79bf"/>
      <path d="M29.922,25.135V14.46h1.921v.975A2.306,2.306,0,0,1,33.8,14.267c1.745,0,2.866,1.521,2.866,4.05,0,2.513-1.121,4.066-2.866,4.066a2.256,2.256,0,0,1-1.952-1.169v3.921Zm3.249-9.171a1.612,1.612,0,0,0-1.328.9v2.913a1.666,1.666,0,0,0,1.328.913c.993,0,1.505-1.009,1.505-2.369C34.676,16.972,34.164,15.964,33.171,15.964Z" fill="#0b79bf"/>
      <path d="M38.322,14.46h1.921v1.072a2.631,2.631,0,0,1,2.112-1.249v1.873a1.97,1.97,0,0,0-.464-.048,2.14,2.14,0,0,0-1.648.928V22.19H38.322Z" fill="#0b79bf"/>
      <path d="M43.586,12.171a1.153,1.153,0,1,1,2.3,0,1.153,1.153,0,0,1-2.3,0Zm.192,2.289H45.7v7.73H43.778Z" fill="#0b79bf"/>
      <path d="M47.762,11.514h1.921V22.19H47.762Z" fill="#0b79bf"/>
      <path d="M55.521,11.514h6.115v1.872h-3.97v2.45h3.858v1.856H57.666v2.626h3.97V22.19H55.521Z" fill="#0b79bf"/>
      <path d="M67.811,17.1c0-.816-.368-1.136-1.008-1.136a1.749,1.749,0,0,0-1.409.96V22.19H63.473V14.46h1.921v1.007a2.869,2.869,0,0,1,2.273-1.2,1.879,1.879,0,0,1,2.065,2.113v5.81H67.811Z" fill="#0b79bf"/>
      <path d="M74.867,14.267C77,14.267,78.2,16,78.2,18.4v.544h-4.85a1.839,1.839,0,0,0,1.873,1.889,2.343,2.343,0,0,0,1.681-.752l.88,1.152a3.77,3.77,0,0,1-2.769,1.153c-2.177,0-3.6-1.633-3.6-4.066C71.41,16.076,72.722,14.267,74.867,14.267Zm-1.521,3.362h2.993c-.031-.8-.383-1.809-1.5-1.809C73.763,15.82,73.378,16.828,73.346,17.629Z" fill="#0b79bf"/>
      <path d="M79.809,14.46H81.73v1.072a2.631,2.631,0,0,1,2.113-1.249v1.873a1.973,1.973,0,0,0-.465-.048,2.14,2.14,0,0,0-1.648.928V22.19H79.809Z" fill="#0b79bf"/>
      <path d="M85.954,22.863a2.58,2.58,0,0,0,1.984.848,1.621,1.621,0,0,0,1.729-1.825v-.944a2.322,2.322,0,0,1-1.953,1.185c-1.729,0-2.849-1.393-2.849-3.922,0-2.482,1.12-3.938,2.849-3.938a2.22,2.22,0,0,1,1.953,1.168V14.46h1.921v7.33c0,2.817-1.841,3.538-3.554,3.538a3.989,3.989,0,0,1-2.849-.992Zm3.713-5.986a1.587,1.587,0,0,0-1.329-.913c-.976,0-1.488.9-1.488,2.241s.512,2.224,1.488,2.224a1.6,1.6,0,0,0,1.329-.9Z" fill="#0b79bf"/>
      <path d="M94.273,23.631a.793.793,0,0,0,.849-.56l.256-.736-2.61-7.875h2.049l1.553,5.41,1.569-5.41h2.049L96.962,23.5a2.359,2.359,0,0,1-2.545,1.825,4.334,4.334,0,0,1-.928-.112l.288-1.7A1.319,1.319,0,0,0,94.273,23.631Z" fill="#0b79bf"/>
      <path d="M104.913,11.514h4.418a2.6,2.6,0,0,1,2.817,2.721,2.333,2.333,0,0,1-1.713,2.449,2.523,2.523,0,0,1,1.889,2.625,2.646,2.646,0,0,1-2.849,2.881h-4.562Zm3.906,4.338a1.1,1.1,0,0,0,1.136-1.249,1.112,1.112,0,0,0-1.136-1.264h-1.761v2.513Zm.08,4.514a1.178,1.178,0,0,0,1.232-1.345,1.215,1.215,0,0,0-1.232-1.345h-1.841v2.69Z" fill="#0b79bf"/>
      <path d="M113.889,12.171a1.152,1.152,0,1,1,2.3,0,1.152,1.152,0,1,1-2.3,0Zm.192,2.289H116v7.73h-1.92Z" fill="#0b79bf"/>
      <path d="M118.064,11.514h1.921V22.19h-1.921Z" fill="#0b79bf"/>
      <path d="M122.049,11.514h1.921V22.19h-1.921Z" fill="#0b79bf"/>
    </g>
    <g>
      <path d="M22.094,45.421H20.132V43.487h6.132v1.934H24.316v7.215H22.094Z" fill="#0b79bf"/>
      <path d="M26.194,49.317c0-1.852,1.084-3.471,3.141-3.471a3.168,3.168,0,0,1,3.155,3.471A3.179,3.179,0,0,1,29.335,52.8C27.278,52.8,26.194,51.169,26.194,49.317Zm4.252,0c0-.961-.343-1.715-1.111-1.715s-1.1.754-1.1,1.715.343,1.729,1.1,1.729S30.446,50.291,30.446,49.317Z" fill="#0b79bf"/>
      <path d="M34.079,50.922V47.739h-.837V46.01h.837V44.2h1.989v1.81h1.07v1.729h-1.07v2.688c0,.385.151.619.452.619a.69.69,0,0,0,.454-.152l.356,1.536a2.217,2.217,0,0,1-1.372.371A1.654,1.654,0,0,1,34.079,50.922Z" fill="#0b79bf"/>
      <path d="M41.814,51.992a2.228,2.228,0,0,1-1.742.809A2.057,2.057,0,0,1,38,50.606a1.964,1.964,0,0,1,2.072-2.112,2.186,2.186,0,0,1,1.742.754V48.48a1.022,1.022,0,0,0-1.166-1.029,2.524,2.524,0,0,0-1.632.686l-.7-1.331a4.127,4.127,0,0,1,2.716-.96c1.509,0,2.757.645,2.757,2.428v4.362H41.814Zm0-1.688a1.088,1.088,0,0,0-.96-.521.858.858,0,1,0,0,1.715,1.086,1.086,0,0,0,.96-.522Z" fill="#0b79bf"/>
      <path d="M45.392,43.487h1.989v9.149H45.392Z" fill="#0b79bf"/>
      <path d="M52.18,43.487h5.514v1.906H54.4V47.04h3.2v1.906H54.4v1.783h3.292v1.907H52.18Z" fill="#0b79bf"/>
      <path d="M59.132,43.487h1.989v9.149H59.132Z" fill="#0b79bf"/>
      <path d="M65.482,45.846c1.866,0,2.963,1.441,2.963,3.567v.549H64.371a1.356,1.356,0,0,0,1.454,1.275,1.974,1.974,0,0,0,1.358-.576l.878,1.193a3.52,3.52,0,0,1-2.469.947,3.161,3.161,0,0,1-3.21-3.484A3.169,3.169,0,0,1,65.482,45.846Zm-1.125,2.785h2.2c-.028-.536-.274-1.221-1.1-1.221C64.659,47.41,64.4,48.1,64.357,48.631Z" fill="#0b79bf"/>
      <path d="M72.462,45.846a2.793,2.793,0,0,1,2.223.906l-.961,1.358a1.278,1.278,0,0,0-1.029-.508c-.809,0-1.358.686-1.358,1.715s.549,1.729,1.358,1.729a1.255,1.255,0,0,0,1.029-.522l.961,1.371a2.793,2.793,0,0,1-2.223.906,3.179,3.179,0,0,1-3.155-3.484A3.168,3.168,0,0,1,72.462,45.846Z" fill="#0b79bf"/>
      <path d="M76.122,50.922V47.739h-.836V46.01h.836V44.2h1.989v1.81h1.071v1.729H78.111v2.688c0,.385.151.619.453.619a.687.687,0,0,0,.453-.152l.356,1.536A2.215,2.215,0,0,1,78,52.8,1.654,1.654,0,0,1,76.122,50.922Z" fill="#0b79bf"/>
      <path d="M80.4,46.01H82.39v.851a2.309,2.309,0,0,1,1.77-1.015v1.92a1.816,1.816,0,0,0-.426-.054,1.75,1.75,0,0,0-1.344.658v4.266H80.4Z" fill="#0b79bf"/>
      <path d="M85.131,44.022a1.146,1.146,0,1,1,2.291,0,1.146,1.146,0,1,1-2.291,0Zm.151,1.988h1.989v6.626H85.282Z" fill="#0b79bf"/>
      <path d="M91.688,45.846a2.791,2.791,0,0,1,2.222.906l-.96,1.358a1.28,1.28,0,0,0-1.029-.508c-.809,0-1.358.686-1.358,1.715s.549,1.729,1.358,1.729a1.257,1.257,0,0,0,1.029-.522l.96,1.371a2.791,2.791,0,0,1-2.222.906,3.179,3.179,0,0,1-3.155-3.484A3.168,3.168,0,0,1,91.688,45.846Z" fill="#0b79bf"/>
      <path d="M98.214,43.487h2.236V49.4c0,.919.439,1.454,1.317,1.454s1.3-.535,1.3-1.454V43.487h2.236v5.9a3.548,3.548,0,0,1-7.092,0Z" fill="#0b79bf"/>
      <path d="M107.278,50.5a3.183,3.183,0,0,0,1.879.781c.549,0,.823-.2.823-.534s-.411-.481-.987-.632c-.947-.261-2.277-.59-2.277-2.181,0-1.111.891-2.085,2.578-2.085a3.968,3.968,0,0,1,2.442.837l-.768,1.33a2.494,2.494,0,0,0-1.66-.658c-.425,0-.727.179-.727.467s.357.438.933.59c.974.26,2.359.617,2.359,2.249,0,1.249-1.042,2.14-2.674,2.14a3.93,3.93,0,0,1-2.717-.947Z" fill="#0b79bf"/>
      <path d="M115.836,45.846c1.866,0,2.963,1.441,2.963,3.567v.549h-4.074a1.356,1.356,0,0,0,1.454,1.275,1.974,1.974,0,0,0,1.358-.576l.878,1.193a3.52,3.52,0,0,1-2.469.947,3.161,3.161,0,0,1-3.21-3.484A3.169,3.169,0,0,1,115.836,45.846Zm-1.125,2.785h2.2c-.028-.536-.274-1.221-1.1-1.221C115.013,47.41,114.752,48.1,114.711,48.631Z" fill="#0b79bf"/>
      <path d="M123.018,49.911a9.529,9.529,0,0,1,1.368-4.957l.639.37a11.489,11.489,0,0,0,0,9.163l-.639.381A9.534,9.534,0,0,1,123.018,49.911Z" fill="#0b79bf"/>
      <path d="M127.886,49.44l-.594.886v2.31h-1.065v-7.48h1.065V48.9l2.467-3.746h1.257L128.548,48.7l2.669,3.936h-1.278Z" fill="#0b79bf"/>
      <path d="M135.661,47l-1.144,5.641H133.4l-1.682-7.48h1.144L134.012,51l1.212-5.843h.874L137.321,51l1.144-5.843h1.144l-1.672,7.48h-1.132Z" fill="#0b79bf"/>
      <path d="M143.661,48.845c0-.672-.314-.908-.819-.908a1.468,1.468,0,0,0-1.189.808v3.891h-.965v-7.48h.965v2.815a2.036,2.036,0,0,1,1.581-.886c.942,0,1.391.482,1.391,1.458v4.093h-.964Z" fill="#0b79bf"/>
      <path d="M145.894,49.508h2.333v.83h-2.333Z" fill="#0b79bf"/>
      <path d="M153.849,49.44l-.595.886v2.31h-1.065v-7.48h1.065V48.9l2.468-3.746h1.256L154.51,48.7l2.67,3.936H155.9Z" fill="#0b79bf"/>
      <path d="M158.079,45.694a.634.634,0,0,1,.628-.628.627.627,0,0,1,.628.628.617.617,0,0,1-.628.617A.625.625,0,0,1,158.079,45.694Zm.146,1.525h.964v5.417h-.964Z" fill="#0b79bf"/>
      <path d="M160.816,45.156h.965v7.48h-.965Z" fill="#0b79bf"/>
      <path d="M163.139,49.923c0-1.526.785-2.838,2.276-2.838s2.277,1.312,2.277,2.838-.785,2.848-2.277,2.848S163.139,51.448,163.139,49.923Zm3.555,0c0-1.033-.392-1.986-1.279-1.986s-1.267.953-1.267,1.986.393,2,1.267,2S166.694,50.966,166.694,49.923Z" fill="#0b79bf"/>
      <path d="M172.013,48.475l-1.1,4.161h-1l-1.446-5.417h1l1,4.139,1.088-4.139h.9l1.1,4.139,1.01-4.139h1.009l-1.458,5.417h-1Z" fill="#0b79bf"/>
      <path d="M179.4,52.076a1.746,1.746,0,0,1-1.424.7,1.666,1.666,0,0,1-1.649-1.8,1.637,1.637,0,0,1,1.649-1.773,1.7,1.7,0,0,1,1.424.673V49a.986.986,0,0,0-1.077-1.1,1.84,1.84,0,0,0-1.357.639l-.392-.673a2.6,2.6,0,0,1,1.907-.785,1.659,1.659,0,0,1,1.884,1.8v3.746H179.4Zm0-1.548a1.236,1.236,0,0,0-1.088-.65,1.115,1.115,0,0,0,0,2.22,1.236,1.236,0,0,0,1.088-.65Z" fill="#0b79bf"/>
      <path d="M182.179,51.493V48.06h-.718v-.841h.718v-1.48h.953v1.48h.908v.841h-.908V51.3c0,.382.135.618.427.618a.619.619,0,0,0,.459-.191l.247.718a1.244,1.244,0,0,1-.92.325C182.549,52.771,182.179,52.334,182.179,51.493Z" fill="#0b79bf"/>
      <path d="M185.478,51.493V48.06h-.718v-.841h.718v-1.48h.953v1.48h.908v.841h-.908V51.3c0,.382.134.618.426.618a.62.62,0,0,0,.46-.191l.247.718a1.246,1.246,0,0,1-.92.325C185.848,52.771,185.478,52.334,185.478,51.493Z" fill="#0b79bf"/>
      <path d="M195.248,49.26h-2.9v3.376h-1.066v-7.48h1.066v3.163h2.9V45.156h1.077v7.48h-1.077Z" fill="#0b79bf"/>
      <path d="M197.729,49.923c0-1.526.786-2.838,2.277-2.838s2.277,1.312,2.277,2.838-.786,2.848-2.277,2.848S197.729,51.448,197.729,49.923Zm3.556,0c0-1.033-.393-1.986-1.279-1.986s-1.267.953-1.267,1.986.392,2,1.267,2S201.285,50.966,201.285,49.923Z" fill="#0b79bf"/>
      <path d="M206.614,51.908a1.986,1.986,0,0,1-1.581.863c-.942,0-1.391-.482-1.391-1.458V47.219h.964V51.01c0,.673.315.909.819.909a1.46,1.46,0,0,0,1.189-.786V47.219h.953v5.417h-.953Z" fill="#0b79bf"/>
      <path d="M209.207,47.219h.964v.83a1.822,1.822,0,0,1,1.514-.953v.976a1.1,1.1,0,0,0-.28-.034,1.562,1.562,0,0,0-1.234.819v3.779h-.964Z" fill="#0b79bf"/>
      <path d="M212.3,45.324l.628-.37a9.528,9.528,0,0,1,0,9.914l-.628-.381a11.369,11.369,0,0,0,0-9.163Z" fill="#0b79bf"/>
    </g>
    <g>
      <path d="M476.086,237.49H474.24l-.224.936h-1.5l1.773-6h1.756l1.773,6h-1.5Zm-1.558-1.251h1.279l-.639-2.539Z" fill="#0b79bf"/>
      <path d="M477.975,235.428c0-1.836,1.017-3.1,2.62-3.1a2.195,2.195,0,0,1,2.151,1.575l-1.2.513a1.02,1.02,0,0,0-.954-.8c-.711,0-1.135.766-1.135,1.818s.424,1.819,1.135,1.819a1.037,1.037,0,0,0,.954-.864l1.206.513a2.237,2.237,0,0,1-2.16,1.639C478.992,238.535,477.975,237.257,477.975,235.428Z" fill="#0b79bf"/>
      <path d="M484.536,233.691h-1.287v-1.269h4.024v1.269H486v4.735h-1.459Z" fill="#0b79bf"/>
      <path d="M488.118,232.422h1.467V236.3c0,.6.288.956.864.956s.856-.352.856-.956v-3.879h1.467v3.871a2.329,2.329,0,0,1-4.654,0Z" fill="#0b79bf"/>
      <path d="M496.75,237.49H494.9l-.224.936h-1.5l1.773-6h1.756l1.773,6h-1.5Zm-1.558-1.251h1.279l-.639-2.539Z" fill="#0b79bf"/>
      <path d="M499.08,232.422h1.458v4.735h1.936v1.269H499.08Z" fill="#0b79bf"/>
    </g>
    <g>
      <path d="M241.652,19.4a2.46,2.46,0,0,0,1.783.781c.528,0,.847-.274.847-.637,0-.441-.43-.65-1.046-.88-.945-.342-2.211-.748-2.211-2.3a2.313,2.313,0,0,1,2.575-2.233,3.5,3.5,0,0,1,2.354.836l-.825,1.32a2.309,2.309,0,0,0-1.551-.605c-.5,0-.737.253-.737.583,0,.4.418.594,1.045.826.946.34,2.2.8,2.2,2.288a2.321,2.321,0,0,1-2.629,2.342,3.626,3.626,0,0,1-2.651-.957Z" fill="#0b79bf"/>
      <path d="M249.286,16.14c1.5,0,2.377,1.156,2.377,2.861v.439H248.4a1.088,1.088,0,0,0,1.166,1.024A1.58,1.58,0,0,0,250.65,20l.7.957a2.82,2.82,0,0,1-1.98.758,2.534,2.534,0,0,1-2.574-2.793A2.542,2.542,0,0,1,249.286,16.14Zm-.9,2.234h1.76c-.022-.43-.219-.98-.879-.98C248.626,17.394,248.417,17.944,248.384,18.374Z" fill="#0b79bf"/>
      <path d="M252.631,16.272h1.595v.682a1.853,1.853,0,0,1,1.419-.814v1.54a1.437,1.437,0,0,0-.341-.044,1.4,1.4,0,0,0-1.078.529v3.421h-1.595Z" fill="#0b79bf"/>
      <path d="M255.951,16.272h1.684l.935,3.41.957-3.41h1.683l-1.782,5.314h-1.695Z" fill="#0b79bf"/>
      <path d="M261.782,14.676a.919.919,0,1,1,.924.925A.922.922,0,0,1,261.782,14.676Zm.121,1.6H263.5v5.314H261.9Z" fill="#0b79bf"/>
      <path d="M267.04,16.14a2.24,2.24,0,0,1,1.782.726l-.769,1.09a1.026,1.026,0,0,0-.826-.407c-.649,0-1.089.549-1.089,1.375s.44,1.385,1.089,1.385a1,1,0,0,0,.826-.418l.769,1.1a2.237,2.237,0,0,1-1.782.725,2.549,2.549,0,0,1-2.53-2.793A2.54,2.54,0,0,1,267.04,16.14Z" fill="#0b79bf"/>
      <path d="M271.924,16.14c1.5,0,2.377,1.156,2.377,2.861v.439h-3.268a1.088,1.088,0,0,0,1.166,1.024A1.58,1.58,0,0,0,273.288,20l.7.957a2.821,2.821,0,0,1-1.98.758,2.535,2.535,0,0,1-2.575-2.793A2.543,2.543,0,0,1,271.924,16.14Zm-.9,2.234h1.761c-.022-.43-.22-.98-.88-.98C271.264,17.394,271.055,17.944,271.021,18.374Z" fill="#0b79bf"/>
      <path d="M280.811,20.959a1.563,1.563,0,0,1-1.32.758c-1.188,0-1.991-1.011-1.991-2.793,0-1.716.792-2.784,1.991-2.784a1.54,1.54,0,0,1,1.32.759V14.248H282.4v7.338h-1.584Zm0-2.927a.975.975,0,0,0-.781-.483c-.583,0-.9.56-.9,1.375s.319,1.385.9,1.385a.986.986,0,0,0,.781-.5Z" fill="#0b79bf"/>
      <path d="M286.455,21.069a1.783,1.783,0,0,1-1.4.648,1.65,1.65,0,0,1-1.662-1.759,1.576,1.576,0,0,1,1.662-1.695,1.752,1.752,0,0,1,1.4.606v-.616a.821.821,0,0,0-.936-.826,2.027,2.027,0,0,0-1.308.55l-.562-1.067a3.309,3.309,0,0,1,2.179-.77c1.21,0,2.211.517,2.211,1.948v3.5h-1.584Zm0-1.353a.869.869,0,0,0-.77-.418.688.688,0,1,0,0,1.375.871.871,0,0,0,.77-.418Z" fill="#0b79bf"/>
      <path d="M289.589,20.211V17.658h-.671V16.272h.671V14.82h1.6v1.452h.857v1.386h-.857v2.156c0,.309.121.5.362.5a.547.547,0,0,0,.363-.12l.286,1.232a1.778,1.778,0,0,1-1.1.3A1.326,1.326,0,0,1,289.589,20.211Z" fill="#0b79bf"/>
      <path d="M295.232,16.14c1.5,0,2.377,1.156,2.377,2.861v.439h-3.267a1.086,1.086,0,0,0,1.166,1.024A1.582,1.582,0,0,0,296.6,20l.7.957a2.822,2.822,0,0,1-1.981.758,2.534,2.534,0,0,1-2.574-2.793A2.542,2.542,0,0,1,295.232,16.14Zm-.9,2.234h1.761c-.023-.43-.22-.98-.88-.98C294.572,17.394,294.363,17.944,294.33,18.374Z" fill="#0b79bf"/>
      <path d="M298.818,19.87a2.551,2.551,0,0,0,1.507.627c.441,0,.66-.165.66-.429s-.33-.386-.792-.507c-.759-.209-1.826-.472-1.826-1.749,0-.89.715-1.672,2.068-1.672a3.181,3.181,0,0,1,1.958.671l-.616,1.068a1.993,1.993,0,0,0-1.331-.529c-.341,0-.583.143-.583.374s.286.353.748.473c.782.209,1.893.5,1.893,1.8,0,1-.837,1.715-2.146,1.715a3.151,3.151,0,0,1-2.178-.758Z" fill="#0b79bf"/>
      <path d="M304.4,16.2a.985.985,0,1,1-.99.979A1,1,0,0,1,304.4,16.2Zm0,3.554a.979.979,0,1,1-.99.979A1,1,0,0,1,304.4,19.749Z" fill="#0b79bf"/>
      <path d="M309.113,14.248h4.423v1.529H310.9V17.1h2.564v1.53H310.9v2.959h-1.782Z" fill="#0b79bf"/>
      <path d="M316.836,16.14c1.5,0,2.377,1.156,2.377,2.861v.439h-3.268a1.088,1.088,0,0,0,1.166,1.024A1.58,1.58,0,0,0,318.2,20l.7.957a2.82,2.82,0,0,1-1.98.758,2.534,2.534,0,0,1-2.574-2.793A2.542,2.542,0,0,1,316.836,16.14Zm-.9,2.234h1.76c-.022-.43-.219-.98-.88-.98C316.176,17.394,315.967,17.944,315.934,18.374Z" fill="#0b79bf"/>
      <path d="M320.18,14.248h1.594V16.9a1.514,1.514,0,0,1,1.31-.759c1.2,0,2,1.068,2,2.784,0,1.782-.814,2.793-2,2.793a1.562,1.562,0,0,1-1.31-.758v.627H320.18Zm2.376,6.061c.572,0,.9-.56.9-1.385s-.33-1.375-.9-1.375a.958.958,0,0,0-.782.5v1.77A.932.932,0,0,0,322.556,20.309Z" fill="#0b79bf"/>
      <path d="M326.087,16.272h1.6v.682a1.853,1.853,0,0,1,1.42-.814v1.54a1.446,1.446,0,0,0-.342-.044,1.4,1.4,0,0,0-1.078.529v3.421h-1.6Z" fill="#0b79bf"/>
      <path d="M333.039,20.948a1.981,1.981,0,0,1-1.573.769A1.3,1.3,0,0,1,330,20.277V16.272h1.6v3.366c0,.485.22.671.616.671a.982.982,0,0,0,.825-.55V16.272h1.584v5.314h-1.584Z" fill="#0b79bf"/>
      <path d="M338.693,21.069a1.783,1.783,0,0,1-1.4.648,1.649,1.649,0,0,1-1.661-1.759,1.575,1.575,0,0,1,1.661-1.695,1.751,1.751,0,0,1,1.4.606v-.616a.82.82,0,0,0-.935-.826,2.03,2.03,0,0,0-1.309.55l-.561-1.067a3.3,3.3,0,0,1,2.178-.77c1.21,0,2.211.517,2.211,1.948v3.5h-1.584Zm0-1.353a.869.869,0,0,0-.77-.418.688.688,0,1,0,0,1.375.871.871,0,0,0,.77-.418Z" fill="#0b79bf"/>
      <path d="M341.563,16.272h1.6v.682a1.856,1.856,0,0,1,1.42-.814v1.54a1.446,1.446,0,0,0-.342-.044,1.406,1.406,0,0,0-1.078.529v3.421h-1.6Z" fill="#0b79bf"/>
      <path d="M346.018,22.334c.275,0,.473-.088.55-.308l.121-.341-1.8-5.413h1.683l.936,3.4.957-3.4h1.682l-2.056,6.106a1.773,1.773,0,0,1-1.947,1.364,2.807,2.807,0,0,1-.694-.088l.22-1.4A.722.722,0,0,0,346.018,22.334Z" fill="#0b79bf"/>
      <path d="M353.256,20.156c2.816-2.53,3.245-2.96,3.245-3.664a.8.8,0,0,0-.88-.781,1.978,1.978,0,0,0-1.562.781l-1.035-1.133a3.338,3.338,0,0,1,2.641-1.222,2.365,2.365,0,0,1,2.629,2.333c0,1.056-.649,1.925-2.464,3.565h2.52v1.551h-5.094Z" fill="#0b79bf"/>
      <path d="M360.593,17.8a1.81,1.81,0,0,1-1.277-1.727c0-1.375,1.331-1.937,2.608-1.937s2.607.562,2.607,1.937a1.818,1.818,0,0,1-1.287,1.727,2.1,2.1,0,0,1,1.386,1.871c0,1.353-1.166,2.045-2.706,2.045s-2.706-.681-2.706-2.035A2.089,2.089,0,0,1,360.593,17.8Zm1.331.705c-.308.043-.924.363-.924.934,0,.495.395.76.924.76s.924-.265.924-.76C362.848,18.869,362.221,18.549,361.924,18.506Zm0-2.85c-.518,0-.825.275-.825.727,0,.5.549.758.825.813.275-.055.825-.318.825-.813A.723.723,0,0,0,361.924,15.656Z" fill="#0b79bf"/>
      <path d="M365.752,22.587a2,2,0,0,0,.9-1.023,1.06,1.06,0,0,1-.242.033.839.839,0,0,1-.814-.891.964.964,0,0,1,.957-.957,1.106,1.106,0,0,1,1.078,1.22,2.653,2.653,0,0,1-1.21,2.157Z" fill="#0b79bf"/>
      <path d="M371.219,20.156c2.816-2.53,3.245-2.96,3.245-3.664a.8.8,0,0,0-.88-.781,1.981,1.981,0,0,0-1.563.781l-1.034-1.133a3.337,3.337,0,0,1,2.641-1.222,2.365,2.365,0,0,1,2.629,2.333c0,1.056-.649,1.925-2.464,3.565h2.519v1.551h-5.093Z" fill="#0b79bf"/>
      <path d="M379.931,14.137c1.88,0,2.739,1.629,2.739,3.786s-.859,3.794-2.739,3.794-2.75-1.649-2.75-3.794S378.05,14.137,379.931,14.137Zm0,1.574c-.715,0-.947.8-.947,2.212s.232,2.221.947,2.221.935-.824.935-2.221S380.635,15.711,379.931,15.711Z" fill="#0b79bf"/>
      <path d="M386.332,19.2l-1.2,2.387H383.1l2.123-3.751-2-3.587h2.035l1.078,2.244,1.067-2.244h2.046l-1.991,3.575,2.124,3.763h-2.036Z" fill="#0b79bf"/>
      <path d="M392.889,19.2l-1.2,2.387h-2.035l2.123-3.751-2-3.587h2.035l1.079,2.244,1.067-2.244H396l-1.991,3.575,2.124,3.763H394.1Z" fill="#0b79bf"/>
      <path d="M399.125,18.253h2.332v1.341h-2.332Z" fill="#0b79bf"/>
      <path d="M410.587,16.888l-1.5,4.7h-.759l-1.475-4.7v4.7h-1.749V14.248h2.366l1.243,4.015,1.254-4.015h2.343v7.338h-1.727Z" fill="#0b79bf"/>
      <path d="M416.429,21.069a1.785,1.785,0,0,1-1.4.648,1.649,1.649,0,0,1-1.661-1.759,1.575,1.575,0,0,1,1.661-1.695,1.754,1.754,0,0,1,1.4.606v-.616a.821.821,0,0,0-.936-.826,2.032,2.032,0,0,0-1.309.55l-.561-1.067a3.309,3.309,0,0,1,2.179-.77c1.21,0,2.211.517,2.211,1.948v3.5h-1.584Zm0-1.353a.871.871,0,0,0-.771-.418.688.688,0,1,0,0,1.375.873.873,0,0,0,.771-.418Z" fill="#0b79bf"/>
      <path d="M419.3,16.272h1.594v.682a1.856,1.856,0,0,1,1.42-.814v1.54a1.437,1.437,0,0,0-.341-.044,1.406,1.406,0,0,0-1.079.529v3.421H419.3Z" fill="#0b79bf"/>
      <path d="M425.47,16.14a2.242,2.242,0,0,1,1.782.726l-.77,1.09a1.024,1.024,0,0,0-.825-.407c-.649,0-1.09.549-1.09,1.375s.441,1.385,1.09,1.385a1,1,0,0,0,.825-.418l.77,1.1a2.238,2.238,0,0,1-1.782.725,2.549,2.549,0,0,1-2.531-2.793A2.541,2.541,0,0,1,425.47,16.14Z" fill="#0b79bf"/>
      <path d="M431.189,18.209c0-.485-.23-.66-.627-.66a1,1,0,0,0-.825.56v3.477h-1.584V14.248h1.584v2.684a1.965,1.965,0,0,1,1.573-.792,1.306,1.306,0,0,1,1.464,1.442v4h-1.585Z" fill="#0b79bf"/>
      <path d="M437.25,19.44a2.17,2.17,0,0,0,1.584.737c.7,0,1.013-.351,1.013-.792,0-.528-.386-.748-1.079-.748-.252,0-.616.011-.737.023V17.1c.121.011.517.011.694.011.637,0,1.022-.23,1.022-.693,0-.484-.4-.737-.99-.737a1.98,1.98,0,0,0-1.463.682l-.968-1.023a3.094,3.094,0,0,1,2.585-1.2c1.584,0,2.574.716,2.574,2a1.726,1.726,0,0,1-1.419,1.661,1.768,1.768,0,0,1,1.53,1.749c0,1.288-1.068,2.167-2.685,2.167a3.323,3.323,0,0,1-2.684-1.166Z" fill="#0b79bf"/>
      <path d="M445.17,14.137c1.881,0,2.739,1.629,2.739,3.786s-.858,3.794-2.739,3.794-2.75-1.649-2.75-3.794S443.289,14.137,445.17,14.137Zm0,1.574c-.715,0-.946.8-.946,2.212s.231,2.221.946,2.221.935-.824.935-2.221S445.874,15.711,445.17,15.711Z" fill="#0b79bf"/>
      <path d="M448.833,22.587a2,2,0,0,0,.9-1.023,1.06,1.06,0,0,1-.242.033.839.839,0,0,1-.814-.891.964.964,0,0,1,.957-.957,1.106,1.106,0,0,1,1.078,1.22,2.653,2.653,0,0,1-1.21,2.157Z" fill="#0b79bf"/>
      <path d="M454.3,20.156c2.816-2.53,3.245-2.96,3.245-3.664a.8.8,0,0,0-.88-.781,1.981,1.981,0,0,0-1.563.781l-1.034-1.133a3.337,3.337,0,0,1,2.641-1.222,2.365,2.365,0,0,1,2.629,2.333c0,1.056-.649,1.925-2.464,3.565h2.519v1.551H454.3Z" fill="#0b79bf"/>
      <path d="M463.012,14.137c1.881,0,2.739,1.629,2.739,3.786s-.858,3.794-2.739,3.794-2.75-1.649-2.75-3.794S461.131,14.137,463.012,14.137Zm0,1.574c-.715,0-.947.8-.947,2.212s.232,2.221.947,2.221.935-.824.935-2.221S463.716,15.711,463.012,15.711Z" fill="#0b79bf"/>
      <path d="M469.414,19.2l-1.2,2.387H466.18l2.123-3.751-2-3.587h2.035l1.078,2.244,1.067-2.244h2.046l-1.991,3.575,2.124,3.763h-2.036Z" fill="#0b79bf"/>
      <path d="M475.97,19.2l-1.2,2.387h-2.035l2.123-3.751-2-3.587h2.036l1.078,2.244,1.067-2.244h2.046l-1.991,3.575,2.124,3.763H477.18Z" fill="#0b79bf"/>
      <path d="M482.349,18.913a8.294,8.294,0,0,1,1.551-4.864l1.078.65a9.654,9.654,0,0,0-.913,4.214,9.6,9.6,0,0,0,.913,4.2l-1.078.66A8.29,8.29,0,0,1,482.349,18.913Z" fill="#0b79bf"/>
      <path d="M486.629,19.44a2.17,2.17,0,0,0,1.584.737c.7,0,1.013-.351,1.013-.792,0-.528-.386-.748-1.079-.748-.253,0-.616.011-.737.023V17.1c.121.011.517.011.693.011.638,0,1.023-.23,1.023-.693,0-.484-.4-.737-.99-.737a1.98,1.98,0,0,0-1.463.682l-.968-1.023a3.094,3.094,0,0,1,2.585-1.2c1.584,0,2.574.716,2.574,2a1.726,1.726,0,0,1-1.419,1.661,1.768,1.768,0,0,1,1.53,1.749c0,1.288-1.068,2.167-2.685,2.167a3.327,3.327,0,0,1-2.685-1.166Z" fill="#0b79bf"/>
      <path d="M493.69,16.525l-1.1,1.122-1.013-1.056,2.355-2.343h1.54v7.338H493.69Z" fill="#0b79bf"/>
      <path d="M502.358,20.959a1.563,1.563,0,0,1-1.32.758c-1.188,0-1.991-1.011-1.991-2.793,0-1.716.792-2.784,1.991-2.784a1.541,1.541,0,0,1,1.32.759V14.248h1.584v7.338h-1.584Zm0-2.927a.975.975,0,0,0-.781-.483c-.583,0-.9.56-.9,1.375s.319,1.385.9,1.385a.986.986,0,0,0,.781-.5Z" fill="#0b79bf"/>
      <path d="M508,21.069a1.785,1.785,0,0,1-1.4.648,1.649,1.649,0,0,1-1.661-1.759,1.575,1.575,0,0,1,1.661-1.695,1.753,1.753,0,0,1,1.4.606v-.616a.821.821,0,0,0-.936-.826,2.027,2.027,0,0,0-1.308.55L505.2,16.91a3.309,3.309,0,0,1,2.179-.77c1.21,0,2.211.517,2.211,1.948v3.5H508Zm0-1.353a.869.869,0,0,0-.771-.418.688.688,0,1,0,0,1.375.871.871,0,0,0,.771-.418Z" fill="#0b79bf"/>
      <path d="M511.411,22.334a.511.511,0,0,0,.55-.308l.121-.341-1.805-5.413h1.684l.935,3.4.957-3.4h1.683l-2.057,6.106a1.773,1.773,0,0,1-1.947,1.364,2.793,2.793,0,0,1-.693-.088l.22-1.4A.72.72,0,0,0,511.411,22.334Z" fill="#0b79bf"/>
      <path d="M516.471,19.87a2.545,2.545,0,0,0,1.506.627c.441,0,.661-.165.661-.429s-.33-.386-.792-.507c-.76-.209-1.827-.472-1.827-1.749,0-.89.715-1.672,2.069-1.672a3.186,3.186,0,0,1,1.958.671l-.616,1.068a2,2,0,0,0-1.331-.529c-.341,0-.583.143-.583.374s.286.353.748.473c.781.209,1.892.5,1.892,1.8,0,1-.837,1.715-2.145,1.715a3.154,3.154,0,0,1-2.179-.758Z" fill="#0b79bf"/>
      <path d="M520.8,14.7l1.088-.65a8.395,8.395,0,0,1,0,9.726l-1.088-.66a9.457,9.457,0,0,0,.923-4.2A9.506,9.506,0,0,0,520.8,14.7Z" fill="#0b79bf"/>
    </g>
    <polygon points="507.324 238.427 517.579 238.427 512.451 230.163 507.324 238.427" fill="#0b79bf"/>
    <g>
      <g>
        <path d="M23.608,208.221h4.966v1.522H25.35v1.988h3.133v1.508H25.35v3.654H23.608Z" fill="#2f2e2c"/>
        <path d="M30.03,208.221H35v1.522H31.772v1.988h3.133v1.508H31.772v2.133H35v1.521H30.03Z" fill="#2f2e2c"/>
        <path d="M36.556,208.221h3.587a2.108,2.108,0,0,1,2.289,2.21,1.9,1.9,0,0,1-1.392,1.99,2.047,2.047,0,0,1,1.535,2.132,2.149,2.149,0,0,1-2.314,2.34H36.556Zm3.171,3.524a.894.894,0,0,0,.924-1.014.9.9,0,0,0-.924-1.027H38.3v2.041Zm.065,3.666a.957.957,0,0,0,1-1.092.987.987,0,0,0-1-1.092H38.3v2.184Z" fill="#2f2e2c"/>
      </g>
      <g>
        <path d="M68.124,210.938l-1.95,5.955h-.715l-1.924-5.955v5.955H61.806v-8.672h2.34l1.677,5.2,1.69-5.2H69.84v8.672H68.124Z" fill="#2f2e2c"/>
        <path d="M75.885,215.346H73.051l-.4,1.547H70.841l2.573-8.672h2.107l2.574,8.672H76.288ZM73.4,213.825h2.132l-1.066-4.057Z" fill="#2f2e2c"/>
        <path d="M81.787,213.747h-.936v3.146H79.109v-8.672h3.237a2.568,2.568,0,0,1,2.639,2.744,2.4,2.4,0,0,1-1.508,2.483l1.573,3.445H83.113Zm.3-4H80.851v2.5h1.235a1.124,1.124,0,0,0,1.118-1.248A1.11,1.11,0,0,0,82.086,209.743Z" fill="#2f2e2c"/>
      </g>
      <g>
        <path d="M108.558,215.346h-2.834l-.4,1.547h-1.807l2.574-8.672h2.106l2.574,8.672h-1.807Zm-2.483-1.521h2.132l-1.066-4.057Z" fill="#2f2e2c"/>
        <path d="M111.782,208.221h3.2a2.764,2.764,0,0,1,0,5.526h-1.456v3.146h-1.742Zm2.99,1.522h-1.248v2.5h1.248a1.257,1.257,0,0,0,0-2.5Z" fill="#2f2e2c"/>
        <path d="M121.662,213.747h-.936v3.146h-1.742v-8.672h3.237a2.568,2.568,0,0,1,2.639,2.744,2.4,2.4,0,0,1-1.508,2.483l1.573,3.445h-1.937Zm.3-4h-1.235v2.5h1.235a1.124,1.124,0,0,0,1.118-1.248A1.11,1.11,0,0,0,121.961,209.743Z" fill="#2f2e2c"/>
      </g>
      <g>
        <path d="M150.475,210.938l-1.951,5.955h-.714l-1.925-5.955v5.955h-1.729v-8.672h2.34l1.677,5.2,1.69-5.2h2.327v8.672h-1.715Z" fill="#2f2e2c"/>
        <path d="M158.235,215.346H155.4l-.4,1.547h-1.807l2.574-8.672h2.106l2.574,8.672h-1.807Zm-2.483-1.521h2.132l-1.066-4.057Z" fill="#2f2e2c"/>
        <path d="M162.707,213.317l-2.678-5.1h1.924l1.625,3.485,1.625-3.485h1.924l-2.678,5.1v3.576h-1.742Z" fill="#2f2e2c"/>
      </g>
      <g>
        <path d="M225.531,215.02a1.468,1.468,0,0,0,1.079.482,1.057,1.057,0,0,0,1.131-1.17v-6.111h1.742v6.162a2.439,2.439,0,0,1-2.7,2.666,2.671,2.671,0,0,1-1.872-.664Z" fill="#2f2e2c"/>
        <path d="M231.277,208.221h1.755v5.695c0,1.026.494,1.6,1.417,1.6s1.417-.572,1.417-1.6v-5.695h1.755V213.9a3.172,3.172,0,0,1-6.344,0Z" fill="#2f2e2c"/>
        <path d="M239.428,208.221h1.742v7.137h2.912v1.535h-4.654Z" fill="#2f2e2c"/>
      </g>
      <g>
        <path d="M185.8,215.02a1.468,1.468,0,0,0,1.079.482,1.057,1.057,0,0,0,1.131-1.17v-6.111h1.742v6.162a2.439,2.439,0,0,1-2.7,2.666,2.671,2.671,0,0,1-1.872-.664Z" fill="#2f2e2c"/>
        <path d="M191.545,208.221H193.3v5.695c0,1.026.494,1.6,1.417,1.6s1.417-.572,1.417-1.6v-5.695h1.755V213.9a3.172,3.172,0,0,1-6.344,0Z" fill="#2f2e2c"/>
        <path d="M201.425,211.368v5.525H199.7v-8.672h1.768l2.847,5.305v-5.305h1.742v8.672h-1.664Z" fill="#2f2e2c"/>
      </g>
      <g>
        <path d="M267.486,215.346h-2.834l-.4,1.547h-1.807l2.575-8.672h2.105l2.574,8.672H267.89ZM265,213.825h2.132l-1.066-4.057Z" fill="#2f2e2c"/>
        <path d="M270.463,208.221h1.755v5.695c0,1.026.494,1.6,1.417,1.6s1.418-.572,1.418-1.6v-5.695h1.755V213.9a3.173,3.173,0,0,1-6.345,0Z" fill="#2f2e2c"/>
        <path d="M281.929,208.079a3.028,3.028,0,0,1,2.886,1.975l-1.417.65a1.609,1.609,0,0,0-1.469-1.078c-1.1,0-1.872,1.078-1.872,2.937s.767,2.939,1.872,2.939a1.831,1.831,0,0,0,1.326-.521v-1.326h-1.638v-1.508h3.276v3.524a3.721,3.721,0,0,1-2.964,1.378c-2.2,0-3.666-1.794-3.666-4.486S279.732,208.079,281.929,208.079Z" fill="#2f2e2c"/>
      </g>
      <g>
        <path d="M304.54,214.591a2.829,2.829,0,0,0,2.08.923c.78,0,1.2-.428,1.2-.961,0-.664-.624-.949-1.417-1.287-1.092-.429-2.457-.949-2.457-2.666a2.6,2.6,0,0,1,2.86-2.521,3.754,3.754,0,0,1,2.626.961l-.832,1.3a2.647,2.647,0,0,0-1.833-.729c-.65,0-1.04.365-1.04.885,0,.585.6.857,1.378,1.182,1.118.443,2.483,1.015,2.483,2.731,0,1.52-1.04,2.639-2.938,2.639a4,4,0,0,1-2.964-1.119Z" fill="#2f2e2c"/>
        <path d="M310.987,208.221h4.967v1.522h-3.225v1.988h3.133v1.508h-3.133v2.133h3.225v1.521h-4.967Z" fill="#2f2e2c"/>
        <path d="M317.514,208.221h3.2a2.764,2.764,0,0,1,0,5.526h-1.456v3.146h-1.742Zm2.99,1.522h-1.248v2.5H320.5a1.257,1.257,0,0,0,0-2.5Z" fill="#2f2e2c"/>
      </g>
      <g>
        <path d="M345.715,208.079c2.275,0,3.627,1.91,3.627,4.484s-1.352,4.486-3.627,4.486-3.613-1.9-3.613-4.486S343.453,208.079,345.715,208.079Zm0,1.547c-1.183,0-1.821,1.26-1.821,2.937,0,1.652.638,2.939,1.821,2.939s1.846-1.287,1.846-2.939C347.561,210.886,346.911,209.626,345.715,209.626Z" fill="#2f2e2c"/>
        <path d="M350.46,212.563c0-2.625,1.417-4.484,3.64-4.484a3.059,3.059,0,0,1,2.925,2.08l-1.443.637a1.6,1.6,0,0,0-1.482-1.17c-1.144,0-1.846,1.234-1.846,2.937s.7,2.939,1.846,2.939a1.636,1.636,0,0,0,1.5-1.261l1.442.623a3.072,3.072,0,0,1-2.938,2.185C351.877,217.049,350.46,215.19,350.46,212.563Z" fill="#2f2e2c"/>
        <path d="M359.781,209.756h-1.937v-1.535h5.6v1.535h-1.924v7.137h-1.742Z" fill="#2f2e2c"/>
      </g>
      <g>
        <path d="M384.225,211.368v5.525H382.5v-8.672h1.768l2.847,5.305v-5.305h1.742v8.672h-1.664Z" fill="#2f2e2c"/>
        <path d="M393.91,208.079c2.275,0,3.627,1.91,3.627,4.484s-1.352,4.486-3.627,4.486-3.614-1.9-3.614-4.486S391.647,208.079,393.91,208.079Zm0,1.547c-1.183,0-1.82,1.26-1.82,2.937,0,1.652.637,2.939,1.82,2.939s1.846-1.287,1.846-2.939C395.756,210.886,395.105,209.626,393.91,209.626Z" fill="#2f2e2c"/>
        <path d="M398.044,208.221h1.885l1.742,6.618,1.728-6.618h1.9l-2.574,8.672h-2.106Z" fill="#2f2e2c"/>
      </g>
      <g>
        <path d="M424.048,208.221h2.8c2.391,0,3.77,1.794,3.77,4.342s-1.365,4.33-3.77,4.33h-2.8Zm2.8,7.137c1.287,0,1.989-1.143,1.989-2.8,0-1.716-.677-2.807-1.989-2.807H425.79v5.6Z" fill="#2f2e2c"/>
        <path d="M432.081,208.221h4.967v1.522h-3.225v1.988h3.133v1.508h-3.133v2.133h3.225v1.521h-4.967Z" fill="#2f2e2c"/>
        <path d="M438.256,212.563c0-2.625,1.417-4.484,3.64-4.484a3.059,3.059,0,0,1,2.925,2.08l-1.443.637a1.6,1.6,0,0,0-1.482-1.17c-1.144,0-1.846,1.234-1.846,2.937s.7,2.939,1.846,2.939a1.636,1.636,0,0,0,1.5-1.261l1.442.623a3.072,3.072,0,0,1-2.938,2.185C439.673,217.049,438.256,215.19,438.256,212.563Z" fill="#2f2e2c"/>
      </g>
      <g>
        <path d="M463.818,215.02a1.468,1.468,0,0,0,1.079.482,1.057,1.057,0,0,0,1.131-1.17v-6.111h1.742v6.162a2.439,2.439,0,0,1-2.7,2.666,2.671,2.671,0,0,1-1.872-.664Z" fill="#2f2e2c"/>
        <path d="M473.568,215.346h-2.834l-.4,1.547h-1.807l2.574-8.672H473.2l2.574,8.672h-1.806Zm-2.483-1.521h2.132l-1.066-4.057Z" fill="#2f2e2c"/>
        <path d="M478.521,211.368v5.525h-1.729v-8.672h1.768l2.847,5.305v-5.305h1.742v8.672h-1.664Z" fill="#2f2e2c"/>
      </g>
      <g>
        <path d="M502.679,208.221h4.966v1.522h-3.224v1.988h3.133v1.508h-3.133v3.654h-1.742Z" fill="#0b79bf"/>
        <path d="M509.1,208.221h4.966v1.522h-3.224v1.988h3.133v1.508h-3.133v2.133h3.224v1.521H509.1Z" fill="#0b79bf"/>
        <path d="M515.627,208.221h3.588a2.108,2.108,0,0,1,2.288,2.21,1.9,1.9,0,0,1-1.392,1.99,2.047,2.047,0,0,1,1.534,2.132,2.148,2.148,0,0,1-2.313,2.34h-3.705Zm3.172,3.524a.894.894,0,0,0,.923-1.014.9.9,0,0,0-.923-1.027h-1.43v2.041Zm.064,3.666a.957.957,0,0,0,1-1.092.987.987,0,0,0-1-1.092h-1.494v2.184Z" fill="#0b79bf"/>
      </g>
      <g>
        <path d="M27.029,104.229a3.167,3.167,0,0,1,2.395,1.008l-.91,1.373a1.688,1.688,0,0,0-1.457-.728c-1.163,0-1.863,1.316-1.863,2.815v.154a2.309,2.309,0,0,1,1.989-1.177c1.4,0,2.62,1.038,2.62,3.026a3.01,3.01,0,0,1-3.068,3.18c-2.48,0-3.446-2.227-3.446-4.819C23.289,106.259,24.62,104.229,27.029,104.229Zm-.434,5.029a1.728,1.728,0,0,0-1.4.966c.07.868.392,2,1.443,2a1.327,1.327,0,0,0,1.26-1.457C27.9,109.664,27.267,109.258,26.6,109.258Z" fill="#2f2e2c"/>
        <path d="M33.09,106.792l-1.415,1.471L30.6,107.129l2.745-2.76h1.639v9.343H33.09Z" fill="#2f2e2c"/>
        <path d="M40.287,104.229a3.167,3.167,0,0,1,2.4,1.008l-.911,1.373a1.685,1.685,0,0,0-1.456-.728c-1.163,0-1.863,1.316-1.863,2.815v.154a2.309,2.309,0,0,1,1.989-1.177c1.4,0,2.619,1.038,2.619,3.026a3.009,3.009,0,0,1-3.067,3.18c-2.48,0-3.446-2.227-3.446-4.819C36.547,106.259,37.877,104.229,40.287,104.229Zm-.435,5.029a1.726,1.726,0,0,0-1.4.966c.07.868.392,2,1.442,2a1.327,1.327,0,0,0,1.261-1.457C41.155,109.664,40.525,109.258,39.852,109.258Z" fill="#2f2e2c"/>
      </g>
      <g>
        <path d="M67.762,135.9h-3.81v-1.568l3.278-5.785h2.409v5.7h.939V135.9h-.939v1.99H67.762Zm-2.115-1.652h2.115v-3.8Z" fill="#2f2e2c"/>
        <path d="M75.252,135.9h-3.81v-1.568l3.278-5.785h2.409v5.7h.938V135.9h-.938v1.99H75.252Zm-2.115-1.652h2.115v-3.8Z" fill="#2f2e2c"/>
        <path d="M82.742,135.9h-3.81v-1.568l3.278-5.785h2.409v5.7h.939V135.9h-.939v1.99H82.742Zm-2.115-1.652h2.115v-3.8Z" fill="#2f2e2c"/>
      </g>
      <g>
        <path d="M106.7,138.282h-3.81v-1.569l3.278-5.786h2.409v5.7h.938v1.653h-.938v1.989H106.7Zm-2.115-1.653H106.7v-3.8Z" fill="#2f2e2c"/>
        <path d="M110.72,138.758c3.418-3.32,4.132-4.062,4.132-5.126a1.167,1.167,0,0,0-1.247-1.177,2.4,2.4,0,0,0-1.989,1.051l-1.12-1.177a3.8,3.8,0,0,1,3.137-1.541,2.836,2.836,0,0,1,3.124,2.829c0,1.415-.952,2.62-3.306,5H116.8v1.653H110.72Z" fill="#2f2e2c"/>
        <path d="M121.852,132.581h-3.867v-1.654h6v1.3l-2.9,8.041H119.05Z" fill="#2f2e2c"/>
      </g>
      <g>
        <path d="M145.907,126.058a2.359,2.359,0,0,0,1.947,1.009,1.394,1.394,0,0,0,1.415-1.485c0-.925-.49-1.485-1.331-1.485a1.861,1.861,0,0,0-1.541.771l-1.358-.351v-5.308h5.6v1.638H146.9v2.41a2.3,2.3,0,0,1,1.722-.756c1.415,0,2.55,1.091,2.55,3.025a3.048,3.048,0,0,1-3.264,3.193,3.646,3.646,0,0,1-3.138-1.47Z" fill="#2f2e2c"/>
        <path d="M154.518,121.632,153.1,123.1l-1.078-1.135,2.745-2.758h1.64v9.342h-1.891Z" fill="#2f2e2c"/>
        <path d="M159.193,126.058a2.358,2.358,0,0,0,1.947,1.009,1.394,1.394,0,0,0,1.415-1.485c0-.925-.491-1.485-1.331-1.485a1.861,1.861,0,0,0-1.541.771l-1.359-.351v-5.308h5.6v1.638h-3.74v2.41a2.307,2.307,0,0,1,1.723-.756c1.415,0,2.549,1.091,2.549,3.025a3.047,3.047,0,0,1-3.263,3.193,3.646,3.646,0,0,1-3.138-1.47Z" fill="#2f2e2c"/>
      </g>
      <g>
        <path d="M227.7,86.8h-3.866V85.15h6v1.3l-2.9,8.04H224.9Z" fill="#2f2e2c"/>
        <path d="M234.531,86.8h-3.866V85.15h6v1.3l-2.9,8.04H231.73Z" fill="#2f2e2c"/>
        <path d="M238.87,92a2.359,2.359,0,0,0,1.947,1.008,1.394,1.394,0,0,0,1.415-1.485c0-.925-.49-1.484-1.331-1.484a1.86,1.86,0,0,0-1.541.77L238,90.459V85.15h5.6v1.639h-3.739V89.2a2.3,2.3,0,0,1,1.722-.756c1.415,0,2.55,1.092,2.55,3.025a3.048,3.048,0,0,1-3.264,3.194,3.643,3.643,0,0,1-3.138-1.471Z" fill="#2f2e2c"/>
      </g>
      <g>
        <path d="M184.836,119.966a2.361,2.361,0,0,0,1.947,1.008,1.393,1.393,0,0,0,1.415-1.485c0-.925-.49-1.484-1.331-1.484a1.858,1.858,0,0,0-1.54.77l-1.359-.351v-5.308h5.6v1.639h-3.74v2.409a2.305,2.305,0,0,1,1.723-.756c1.415,0,2.549,1.092,2.549,3.025a3.048,3.048,0,0,1-3.264,3.194,3.643,3.643,0,0,1-3.137-1.471Z" fill="#2f2e2c"/>
        <path d="M193.068,117.64a2.358,2.358,0,0,1-1.653-2.227c0-1.709,1.556-2.438,3.1-2.438,1.513,0,3.1.729,3.1,2.438a2.369,2.369,0,0,1-1.667,2.227,2.72,2.72,0,0,1,1.793,2.423c0,1.667-1.373,2.564-3.222,2.564s-3.236-.9-3.236-2.549A2.725,2.725,0,0,1,193.068,117.64Zm1.443.756a1.618,1.618,0,0,0-1.33,1.429,1.174,1.174,0,0,0,1.33,1.163,1.189,1.189,0,0,0,1.331-1.163A1.633,1.633,0,0,0,194.511,118.4Zm0-3.781a1.085,1.085,0,0,0-1.219,1.106c0,.813.855,1.177,1.219,1.261.35-.084,1.205-.448,1.205-1.261A1.08,1.08,0,0,0,194.511,114.615Z" fill="#2f2e2c"/>
        <path d="M199.858,119.951a2.575,2.575,0,0,0,2,1.023c.98,0,1.428-.518,1.428-1.247,0-.883-.6-1.2-1.512-1.2-.308,0-.729.015-.869.028v-1.667c.14.015.6.015.827.015.854,0,1.429-.364,1.429-1.107,0-.784-.561-1.162-1.373-1.162a2.386,2.386,0,0,0-1.863.938l-1.065-1.079a3.658,3.658,0,0,1,3.082-1.513c1.849,0,3.068.883,3.068,2.536a2.207,2.207,0,0,1-1.766,2.129,2.254,2.254,0,0,1,1.906,2.242c0,1.625-1.247,2.745-3.208,2.745a3.8,3.8,0,0,1-3.208-1.513Z" fill="#2f2e2c"/>
      </g>
      <g>
        <path d="M266.02,84.324a2.358,2.358,0,0,1-1.652-2.228c0-1.709,1.555-2.437,3.1-2.437,1.513,0,3.1.728,3.1,2.437a2.37,2.37,0,0,1-1.667,2.228,2.719,2.719,0,0,1,1.793,2.423c0,1.667-1.373,2.563-3.222,2.563s-3.236-.9-3.236-2.549A2.724,2.724,0,0,1,266.02,84.324Zm1.443.756a1.617,1.617,0,0,0-1.33,1.428,1.175,1.175,0,0,0,1.33,1.164,1.189,1.189,0,0,0,1.331-1.164A1.631,1.631,0,0,0,267.463,85.08Zm0-3.781a1.084,1.084,0,0,0-1.218,1.106c0,.812.854,1.177,1.218,1.261.35-.084,1.2-.449,1.2-1.261A1.079,1.079,0,0,0,267.463,81.3Z" fill="#2f2e2c"/>
        <path d="M274.015,82.222,272.6,83.693l-1.079-1.135,2.746-2.759H275.9v9.343h-1.89Z" fill="#2f2e2c"/>
        <path d="M281.184,81.452h-3.867V79.8h6v1.3l-2.9,8.04h-2.031Z" fill="#2f2e2c"/>
      </g>
      <g>
        <path d="M303.978,118.966a2.361,2.361,0,0,0,1.948,1.007,1.393,1.393,0,0,0,1.415-1.484c0-.924-.49-1.484-1.331-1.484a1.862,1.862,0,0,0-1.541.769l-1.359-.35v-5.308h5.6v1.639h-3.739v2.409a2.3,2.3,0,0,1,1.722-.757c1.415,0,2.549,1.094,2.549,3.026a3.048,3.048,0,0,1-3.264,3.194,3.646,3.646,0,0,1-3.137-1.471Z" fill="#2f2e2c"/>
        <path d="M314.143,113.768h-3.866v-1.652h6v1.3l-2.9,8.04h-2.03Z" fill="#2f2e2c"/>
        <path d="M320.906,119.469H317.1V117.9l3.278-5.785h2.409v5.7h.939v1.652h-.939v1.99h-1.877Zm-2.115-1.652h2.115v-3.8Z" fill="#2f2e2c"/>
      </g>
      <g>
        <path d="M346.275,95.567a3.172,3.172,0,0,1,2.4,1.009l-.911,1.372a1.689,1.689,0,0,0-1.456-.728c-1.163,0-1.864,1.317-1.864,2.816v.154a2.311,2.311,0,0,1,1.99-1.177c1.4,0,2.619,1.036,2.619,3.026a3.009,3.009,0,0,1-3.068,3.179c-2.479,0-3.446-2.227-3.446-4.818C342.535,97.6,343.866,95.567,346.275,95.567Zm-.434,5.029a1.728,1.728,0,0,0-1.4.967c.071.867.393,2,1.443,2a1.326,1.326,0,0,0,1.26-1.456C347.143,101,346.514,100.6,345.841,100.6Z" fill="#2f2e2c"/>
        <path d="M351.958,100.232a2.358,2.358,0,0,1-1.652-2.227c0-1.709,1.554-2.438,3.1-2.438,1.513,0,3.1.729,3.1,2.438a2.369,2.369,0,0,1-1.667,2.227,2.719,2.719,0,0,1,1.793,2.423c0,1.667-1.373,2.563-3.222,2.563s-3.236-.9-3.236-2.549A2.722,2.722,0,0,1,351.958,100.232Zm1.443.757a1.616,1.616,0,0,0-1.331,1.428,1.175,1.175,0,0,0,1.331,1.163,1.188,1.188,0,0,0,1.33-1.163A1.629,1.629,0,0,0,353.4,100.989Zm0-3.783a1.085,1.085,0,0,0-1.218,1.107c0,.813.854,1.176,1.218,1.26.35-.084,1.2-.447,1.2-1.26A1.08,1.08,0,0,0,353.4,97.206Z" fill="#2f2e2c"/>
        <path d="M359.014,102.823a1.731,1.731,0,0,0,1.47.728c1.177,0,1.864-1.3,1.864-2.8v-.168a2.348,2.348,0,0,1-1.99,1.175c-1.4,0-2.619-1.036-2.619-3.025a3.01,3.01,0,0,1,3.068-3.18c2.465,0,3.431,2.227,3.431,4.832,0,2.789-1.33,4.82-3.739,4.82a3.161,3.161,0,0,1-2.382-1.009Zm1.891-5.617a1.328,1.328,0,0,0-1.261,1.457c0,1.107.644,1.513,1.3,1.513a1.7,1.7,0,0,0,1.387-.953C362.277,98.341,361.97,97.206,360.905,97.206Z" fill="#2f2e2c"/>
      </g>
      <g>
        <path d="M385.053,98.247a3.162,3.162,0,0,1,2.394,1.009l-.91,1.372a1.691,1.691,0,0,0-1.457-.728c-1.162,0-1.863,1.316-1.863,2.816v.154a2.307,2.307,0,0,1,1.989-1.177c1.4,0,2.62,1.036,2.62,3.025a3.01,3.01,0,0,1-3.068,3.18c-2.48,0-3.446-2.227-3.446-4.818C381.312,100.278,382.643,98.247,385.053,98.247Zm-.435,5.029a1.727,1.727,0,0,0-1.4.967c.07.867.392,2,1.443,2a1.327,1.327,0,0,0,1.261-1.456C385.921,103.682,385.29,103.276,384.618,103.276Z" fill="#2f2e2c"/>
        <path d="M392.668,100.04H388.8V98.387h6v1.3l-2.9,8.04h-2.03Z" fill="#2f2e2c"/>
        <path d="M397.945,100.81l-1.415,1.472-1.078-1.135,2.745-2.76h1.64v9.343h-1.892Z" fill="#2f2e2c"/>
      </g>
      <g>
        <path d="M423.866,104.229a3.175,3.175,0,0,1,2.4,1.008l-.911,1.373a1.688,1.688,0,0,0-1.457-.728c-1.163,0-1.863,1.316-1.863,2.816v.153a2.311,2.311,0,0,1,1.988-1.177c1.4,0,2.621,1.038,2.621,3.026a3.01,3.01,0,0,1-3.068,3.18c-2.48,0-3.446-2.227-3.446-4.819C420.126,106.26,421.457,104.229,423.866,104.229Zm-.434,5.029a1.728,1.728,0,0,0-1.4.966c.071.868.393,2,1.443,2a1.327,1.327,0,0,0,1.26-1.457C424.734,109.664,424.1,109.258,423.432,109.258Z" fill="#2f2e2c"/>
        <path d="M428.723,111.205a2.575,2.575,0,0,0,2,1.022c.98,0,1.428-.517,1.428-1.246,0-.883-.6-1.2-1.512-1.2-.308,0-.729.014-.869.027v-1.666c.14.014.6.014.827.014.854,0,1.428-.364,1.428-1.106,0-.785-.559-1.163-1.372-1.163a2.389,2.389,0,0,0-1.863.939l-1.065-1.079a3.657,3.657,0,0,1,3.082-1.513c1.848,0,3.067.883,3.067,2.535a2.2,2.2,0,0,1-1.765,2.129,2.256,2.256,0,0,1,1.906,2.242c0,1.624-1.248,2.745-3.208,2.745a3.8,3.8,0,0,1-3.208-1.512Z" fill="#2f2e2c"/>
        <path d="M438.551,104.229c2.326,0,3.306,2.156,3.306,4.819,0,2.647-.966,4.832-3.306,4.832-2.311,0-3.305-2.185-3.305-4.832C435.246,106.385,436.24,104.229,438.551,104.229Zm0,1.666c-1.078,0-1.387,1.346-1.387,3.153s.309,3.166,1.387,3.166c1.093,0,1.4-1.373,1.4-3.166S439.644,105.9,438.551,105.9Z" fill="#2f2e2c"/>
      </g>
      <g>
        <path d="M460.229,74.846a2.358,2.358,0,0,1-1.652-2.227c0-1.709,1.555-2.437,3.1-2.437,1.512,0,3.095.728,3.095,2.437a2.369,2.369,0,0,1-1.666,2.227,2.72,2.72,0,0,1,1.792,2.423c0,1.667-1.373,2.564-3.221,2.564s-3.237-.9-3.237-2.549A2.725,2.725,0,0,1,460.229,74.846Zm1.444.757a1.617,1.617,0,0,0-1.331,1.429,1.174,1.174,0,0,0,1.331,1.162A1.188,1.188,0,0,0,463,77.032,1.632,1.632,0,0,0,461.673,75.6Zm0-3.782a1.085,1.085,0,0,0-1.219,1.106c0,.813.855,1.177,1.219,1.261.349-.084,1.2-.448,1.2-1.261A1.079,1.079,0,0,0,461.673,71.821Z" fill="#2f2e2c"/>
        <path d="M467.846,74.846a2.357,2.357,0,0,1-1.654-2.227c0-1.709,1.555-2.437,3.1-2.437,1.513,0,3.1.728,3.1,2.437a2.368,2.368,0,0,1-1.667,2.227,2.72,2.72,0,0,1,1.793,2.423c0,1.667-1.372,2.564-3.222,2.564s-3.235-.9-3.235-2.549A2.723,2.723,0,0,1,467.846,74.846Zm1.442.757a1.617,1.617,0,0,0-1.33,1.429,1.174,1.174,0,0,0,1.33,1.162,1.188,1.188,0,0,0,1.331-1.162A1.631,1.631,0,0,0,469.288,75.6Zm0-3.782a1.085,1.085,0,0,0-1.219,1.106c0,.813.855,1.177,1.219,1.261.351-.084,1.2-.448,1.2-1.261A1.08,1.08,0,0,0,469.288,71.821Z" fill="#2f2e2c"/>
        <path d="M477.423,70.182a3.169,3.169,0,0,1,2.395,1.008l-.911,1.373a1.688,1.688,0,0,0-1.456-.728c-1.163,0-1.863,1.316-1.863,2.815V74.8a2.307,2.307,0,0,1,1.989-1.176c1.4,0,2.619,1.037,2.619,3.025a3.009,3.009,0,0,1-3.067,3.18c-2.48,0-3.446-2.227-3.446-4.819C473.683,72.213,475.014,70.182,477.423,70.182Zm-.435,5.029a1.728,1.728,0,0,0-1.4.966c.07.869.392,2,1.442,2a1.327,1.327,0,0,0,1.261-1.457C478.291,75.617,477.661,75.211,476.988,75.211Z" fill="#2f2e2c"/>
      </g>
      <g>
        <path d="M503.932,132.637h-3.81v-1.568l3.277-5.785h2.41v5.7h.938v1.652h-.938v1.99h-1.877Zm-2.116-1.652h2.116v-3.8Z" fill="#0b79bf"/>
        <path d="M511.519,125.143a3.17,3.17,0,0,1,2.4,1.009L513,127.524a1.689,1.689,0,0,0-1.456-.727c-1.163,0-1.863,1.316-1.863,2.815v.154a2.307,2.307,0,0,1,1.989-1.176c1.4,0,2.619,1.036,2.619,3.025a3.009,3.009,0,0,1-3.067,3.18c-2.48,0-3.447-2.228-3.447-4.819C507.779,127.174,509.11,125.143,511.519,125.143Zm-.434,5.03a1.724,1.724,0,0,0-1.4.966c.07.868.392,2,1.442,2a1.327,1.327,0,0,0,1.261-1.456C512.388,130.579,511.758,130.173,511.085,130.173Z" fill="#0b79bf"/>
        <path d="M517.2,129.808a2.358,2.358,0,0,1-1.652-2.227c0-1.709,1.554-2.438,3.1-2.438,1.513,0,3.1.729,3.1,2.438a2.369,2.369,0,0,1-1.667,2.227,2.72,2.72,0,0,1,1.793,2.423c0,1.667-1.373,2.564-3.222,2.564s-3.236-.9-3.236-2.55A2.724,2.724,0,0,1,517.2,129.808Zm1.443.757a1.616,1.616,0,0,0-1.331,1.428,1.175,1.175,0,0,0,1.331,1.163,1.189,1.189,0,0,0,1.331-1.163A1.63,1.63,0,0,0,518.645,130.565Zm0-3.783a1.085,1.085,0,0,0-1.218,1.107c0,.813.854,1.176,1.218,1.26.35-.084,1.205-.447,1.205-1.26A1.08,1.08,0,0,0,518.645,126.782Z" fill="#0b79bf"/>
      </g>
      <rect x="19.858" y="118.505" width="26.186" height="81.779" fill="#32b44a"/>
      <rect x="59.982" y="141.271" width="26.186" height="59.013" fill="#32b44a"/>
      <rect x="99.333" y="143.967" width="26.186" height="56.317" fill="#32b44a"/>
      <rect x="139.035" y="132.21" width="26.186" height="68.074" fill="#32b44a"/>
      <rect x="179.159" y="126.261" width="26.186" height="74.022" fill="#32b44a"/>
      <rect x="218.861" y="98.452" width="26.186" height="101.832" fill="#32b44a"/>
      <rect x="258.994" y="92.493" width="26.186" height="107.791" fill="#32b44a"/>
      <rect x="298.696" y="125.263" width="26.186" height="75.021" fill="#32b44a"/>
      <rect x="338.82" y="109.518" width="26.186" height="90.766" fill="#32b44a"/>
      <rect x="378.944" y="112.121" width="26.186" height="88.163" fill="#32b44a"/>
      <rect x="418.223" y="117.605" width="26.186" height="82.679" fill="#32b44a"/>
      <rect x="457.925" y="83.341" width="26.186" height="116.943" fill="#32b44a"/>
      <rect x="498.049" y="137.889" width="26.186" height="62.395" fill="#0b79bf"/>
    </g>
  </g>
</svg>
