<svg xmlns="http://www.w3.org/2000/svg" width="131.556" height="40.451" viewBox="0 0 131.556 40.451">
  <g>
    <g>
      <path d="M3.446,7.922H2.1v3.74H.98V2.319H3.838A2.535,2.535,0,0,1,6.4,5.106,2.42,2.42,0,0,1,4.538,7.754L6.5,11.662H5.239ZM3.712,3.3H2.1V6.941h1.61c.967,0,1.541-.755,1.541-1.82S4.679,3.3,3.712,3.3Z" transform="translate(0 -2.18)" fill="#0b79bf"/>
      <path d="M12.084,10.934a2.118,2.118,0,0,1-1.779.9A2.078,2.078,0,0,1,8.26,9.575a2.045,2.045,0,0,1,2.045-2.227,2.107,2.107,0,0,1,1.779.869V7.04A1.284,1.284,0,0,0,10.7,5.6,2.151,2.151,0,0,0,9,6.424l-.448-.715a3.1,3.1,0,0,1,2.3-.98,1.992,1.992,0,0,1,2.241,2.2v4.734H12.084Zm0-1.975a1.625,1.625,0,0,0-1.457-.868,1.361,1.361,0,0,0-1.345,1.5A1.373,1.373,0,0,0,10.627,11.1a1.639,1.639,0,0,0,1.457-.854Z" transform="translate(0 -2.18)" fill="#0b79bf"/>
      <path d="M15.891,10.3V5.779h-.9V4.9h.9V3.048H16.9V4.9h1.149v.883H16.9v4.342c0,.519.155.813.547.813a.756.756,0,0,0,.588-.266l.309.756a1.455,1.455,0,0,1-1.093.406C16.324,11.83,15.891,11.312,15.891,10.3Z" transform="translate(0 -2.18)" fill="#0b79bf"/>
      <path d="M22.556,4.729c1.778,0,2.674,1.6,2.674,3.572v.307H20.847c.042,1.36.742,2.382,1.947,2.382a2.083,2.083,0,0,0,1.61-.827l.533.589A2.816,2.816,0,0,1,22.71,11.83c-1.808,0-2.9-1.484-2.9-3.558C19.81,6.312,20.847,4.729,22.556,4.729ZM20.847,7.866h3.389c-.013-1.036-.462-2.3-1.7-2.3C21.351,5.569,20.875,6.872,20.847,7.866Z" transform="translate(0 -2.18)" fill="#0b79bf"/>
      <path d="M31.3,2.319h1.121v9.343H31.3Z" transform="translate(0 -2.18)" fill="#0b79bf"/>
      <path d="M38.753,6.844c0-.9-.406-1.219-1.078-1.219A1.978,1.978,0,0,0,36.092,6.7v4.958H35.1V4.9h.994v.967a2.508,2.508,0,0,1,1.961-1.134c1.148,0,1.709.616,1.709,1.834v5.1H38.753Z" transform="translate(0 -2.18)" fill="#0b79bf"/>
      <path d="M42.616,5.779h-.9V4.9h.9V4.07a1.661,1.661,0,0,1,1.653-1.89,1.889,1.889,0,0,1,.868.195L44.9,3.16a.965.965,0,0,0-.448-.112c-.533,0-.827.364-.827,1.022V4.9h1.148v.883H43.624v5.883H42.616Z" transform="translate(0 -2.18)" fill="#0b79bf"/>
      <path d="M46.367,8.272c0-1.905.953-3.543,2.746-3.543,1.821,0,2.76,1.638,2.76,3.543s-.939,3.558-2.76,3.558C47.32,11.83,46.367,10.178,46.367,8.272Zm4.455,0c0-1.358-.518-2.647-1.709-2.647-1.163,0-1.7,1.289-1.7,2.647,0,1.374.532,2.662,1.7,2.662C50.3,10.934,50.822,9.646,50.822,8.272Z" transform="translate(0 -2.18)" fill="#0b79bf"/>
      <path d="M54.151,4.9h.995v1.08a2.268,2.268,0,0,1,1.918-1.219V5.793a1.423,1.423,0,0,0-.335-.042,2.03,2.03,0,0,0-1.583,1.106v4.805h-.995Z" transform="translate(0 -2.18)" fill="#0b79bf"/>
      <path d="M65.83,6.76c0-.729-.294-1.135-.938-1.135A1.855,1.855,0,0,0,63.421,6.7v4.958H62.413V6.76c0-.729-.295-1.135-.953-1.135A1.894,1.894,0,0,0,59.989,6.7v4.958H59V4.9h.994v.967a2.342,2.342,0,0,1,1.849-1.134,1.424,1.424,0,0,1,1.527,1.205,2.327,2.327,0,0,1,1.906-1.2c.994,0,1.568.545,1.568,1.764v5.169H65.83Z" transform="translate(0 -2.18)" fill="#0b79bf"/>
      <path d="M72.927,10.934a2.119,2.119,0,0,1-1.78.9A2.078,2.078,0,0,1,69.1,9.575a2.045,2.045,0,0,1,2.044-2.227,2.108,2.108,0,0,1,1.78.869V7.04A1.284,1.284,0,0,0,71.54,5.6a2.149,2.149,0,0,0-1.7.827L69.4,5.709a3.1,3.1,0,0,1,2.3-.98,1.992,1.992,0,0,1,2.242,2.2v4.734H72.927Zm0-1.975a1.625,1.625,0,0,0-1.457-.868,1.361,1.361,0,0,0-1.345,1.5A1.373,1.373,0,0,0,71.47,11.1a1.639,1.639,0,0,0,1.457-.854Z" transform="translate(0 -2.18)" fill="#0b79bf"/>
      <path d="M76.732,10.3V5.779h-.9V4.9h.9V3.048h1.009V4.9H78.89v.883H77.741v4.342c0,.519.155.813.547.813a.756.756,0,0,0,.588-.266l.309.756a1.458,1.458,0,0,1-1.093.406C77.167,11.83,76.732,11.312,76.732,10.3Z" transform="translate(0 -2.18)" fill="#0b79bf"/>
      <path d="M80.793,3.076a.7.7,0,0,1,.686-.686.686.686,0,1,1,0,1.372A.7.7,0,0,1,80.793,3.076Zm.2,1.82h.994v6.766h-.994Z" transform="translate(0 -2.18)" fill="#0b79bf"/>
      <path d="M84.264,8.272c0-1.905.953-3.543,2.746-3.543,1.82,0,2.76,1.638,2.76,3.543s-.94,3.558-2.76,3.558C85.217,11.83,84.264,10.178,84.264,8.272Zm4.455,0c0-1.358-.519-2.647-1.709-2.647-1.163,0-1.7,1.289-1.7,2.647,0,1.374.533,2.662,1.7,2.662C88.2,10.934,88.719,9.646,88.719,8.272Z" transform="translate(0 -2.18)" fill="#0b79bf"/>
      <path d="M95.7,6.844c0-.9-.406-1.219-1.078-1.219A1.979,1.979,0,0,0,93.043,6.7v4.958h-.994V4.9h.994v.967A2.509,2.509,0,0,1,95,4.729c1.148,0,1.709.616,1.709,1.834v5.1H95.7Z" transform="translate(0 -2.18)" fill="#0b79bf"/>
    </g>
    <line y1="15.366" x2="131.556" y2="15.366" fill="none" stroke="#328aca" stroke-miterlimit="10"/>
    <g>
      <path d="M.6,25.518H3.79v.756H1.458v1.81h2.27v.756H1.458v1.927H3.79v.755H.6Z" transform="translate(0 -2.18)"/>
      <path d="M5.293,25.518h.773v6H5.293Z" transform="translate(0 -2.18)"/>
      <path d="M9.324,27.066c1.162,0,1.765,1.018,1.765,2.3V29.6H8.3c.035.793.449,1.395,1.2,1.395a1.322,1.322,0,0,0,1-.5l.4.468a1.922,1.922,0,0,1-1.468.676c-1.18,0-1.918-.945-1.918-2.287C7.506,28.084,8.19,27.066,9.324,27.066ZM8.289,29.047h2.044c-.009-.6-.279-1.342-1.018-1.342C8.6,27.705,8.316,28.462,8.289,29.047Z" transform="translate(0 -2.18)"/>
      <path d="M14.139,27.066a1.535,1.535,0,0,1,1.288.585l-.406.523a.957.957,0,0,0-.81-.423c-.73,0-1.125.72-1.125,1.593s.395,1.6,1.125,1.6a.977.977,0,0,0,.81-.423l.406.523a1.511,1.511,0,0,1-1.288.585c-1.134,0-1.855-.982-1.855-2.287S13.005,27.066,14.139,27.066Z" transform="translate(0 -2.18)"/>
      <path d="M16.893,30.6V27.85h-.577v-.675h.577V25.986h.765v1.189h.73v.675h-.73v2.6c0,.307.108.5.342.5a.5.5,0,0,0,.369-.152l.2.576a1,1,0,0,1-.738.261C17.189,31.631,16.893,31.279,16.893,30.6Z" transform="translate(0 -2.18)"/>
      <path d="M19.737,27.175h.774v.666a1.46,1.46,0,0,1,1.216-.766v.783a.972.972,0,0,0-.226-.026,1.251,1.251,0,0,0-.99.657v3.033h-.774Z" transform="translate(0 -2.18)"/>
      <path d="M22.851,25.95a.508.508,0,0,1,.5-.5.5.5,0,0,1,.5.5.5.5,0,0,1-.5.5A.5.5,0,0,1,22.851,25.95Zm.117,1.225h.773v4.347h-.773Z" transform="translate(0 -2.18)"/>
      <path d="M27.036,27.066a1.535,1.535,0,0,1,1.288.585l-.405.523a.959.959,0,0,0-.811-.423c-.729,0-1.125.72-1.125,1.593s.4,1.6,1.125,1.6a.979.979,0,0,0,.811-.423l.405.523a1.511,1.511,0,0,1-1.288.585c-1.134,0-1.854-.982-1.854-2.287S25.9,27.066,27.036,27.066Z" transform="translate(0 -2.18)"/>
      <path d="M33.8,29.191H33v2.331h-.855v-6H34.1a1.676,1.676,0,0,1,1.7,1.828,1.577,1.577,0,0,1-1.161,1.7l1.215,2.475h-.963Zm.179-2.917H33v2.161h.981a1.091,1.091,0,0,0,0-2.161Z" transform="translate(0 -2.18)"/>
      <path d="M38.709,27.066c1.162,0,1.765,1.018,1.765,2.3V29.6h-2.79c.035.793.449,1.395,1.2,1.395a1.323,1.323,0,0,0,1-.5l.4.468a1.918,1.918,0,0,1-1.467.676c-1.18,0-1.918-.945-1.918-2.287C36.891,28.084,37.575,27.066,38.709,27.066Zm-1.035,1.981h2.044c-.009-.6-.28-1.342-1.018-1.342C37.98,27.705,37.7,28.462,37.674,29.047Z" transform="translate(0 -2.18)"/>
      <path d="M41.9,30.47a1.6,1.6,0,0,0,1.161.54c.478,0,.775-.235.775-.6,0-.414-.405-.594-.864-.774-.6-.225-1.3-.486-1.3-1.36a1.271,1.271,0,0,1,1.44-1.206,1.877,1.877,0,0,1,1.377.559l-.342.53a1.3,1.3,0,0,0-1.026-.467c-.433,0-.721.225-.721.54,0,.369.388.531.828.71.613.226,1.342.505,1.342,1.423a1.327,1.327,0,0,1-1.5,1.27,1.974,1.974,0,0,1-1.53-.612Z" transform="translate(0 -2.18)"/>
      <path d="M45.854,25.95a.509.509,0,0,1,.5-.5.5.5,0,0,1,.5.5.5.5,0,0,1-.5.5A.5.5,0,0,1,45.854,25.95Zm.118,1.225h.773v4.347h-.773Z" transform="translate(0 -2.18)"/>
      <path d="M50.9,30.929a1.371,1.371,0,0,1-1.134.7c-.973,0-1.576-.892-1.576-2.277,0-1.361.594-2.288,1.576-2.288a1.327,1.327,0,0,1,1.134.711V25.518h.765v6H50.9Zm0-2.521a1.113,1.113,0,0,0-.918-.657c-.666,0-.991.711-.991,1.6s.325,1.592.991,1.592A1.1,1.1,0,0,0,50.9,30.3Z" transform="translate(0 -2.18)"/>
      <path d="M54.928,27.066c1.161,0,1.763,1.018,1.763,2.3V29.6H53.9c.036.793.451,1.395,1.2,1.395a1.323,1.323,0,0,0,1-.5l.4.468a1.92,1.92,0,0,1-1.468.676c-1.179,0-1.918-.945-1.918-2.287C53.108,28.084,53.793,27.066,54.928,27.066Zm-1.036,1.981h2.044c-.009-.6-.28-1.342-1.018-1.342C54.2,27.705,53.919,28.462,53.892,29.047Z" transform="translate(0 -2.18)"/>
      <path d="M60.489,28.5c0-.55-.253-.747-.657-.747a1.168,1.168,0,0,0-.955.647v3.124H58.1V27.175h.773v.6a1.617,1.617,0,0,1,1.261-.711c.756,0,1.116.414,1.116,1.18v3.276h-.765Z" transform="translate(0 -2.18)"/>
      <path d="M63.071,30.6V27.85H62.5v-.675h.576V25.986h.766v1.189h.729v.675h-.729v2.6c0,.307.108.5.342.5a.5.5,0,0,0,.369-.152l.2.576a1,1,0,0,1-.738.261C63.369,31.631,63.071,31.279,63.071,30.6Z" transform="translate(0 -2.18)"/>
      <path d="M65.8,25.95a.508.508,0,0,1,.5-.5.5.5,0,0,1,.5.5.5.5,0,0,1-.5.5A.5.5,0,0,1,65.8,25.95Zm.117,1.225h.773v4.347h-.773Z" transform="translate(0 -2.18)"/>
      <path d="M70.587,31.072a1.405,1.405,0,0,1-1.144.559,1.337,1.337,0,0,1-1.323-1.449,1.314,1.314,0,0,1,1.323-1.423,1.364,1.364,0,0,1,1.144.54v-.694a.792.792,0,0,0-.864-.881,1.478,1.478,0,0,0-1.089.512l-.316-.54a2.093,2.093,0,0,1,1.531-.63,1.331,1.331,0,0,1,1.512,1.45v3.006h-.774Zm0-1.242a.994.994,0,0,0-.873-.522.9.9,0,0,0,0,1.783,1,1,0,0,0,.873-.523Z" transform="translate(0 -2.18)"/>
      <path d="M73.017,25.518h.773v6h-.773Z" transform="translate(0 -2.18)"/>
      <path d="M78.028,30.208a1.89,1.89,0,0,0,1.414.657.9.9,0,0,0,1.027-.89c0-.6-.54-.865-1.144-1.144-.729-.333-1.566-.693-1.566-1.782a1.659,1.659,0,0,1,1.8-1.63,2.282,2.282,0,0,1,1.656.639l-.433.648a1.665,1.665,0,0,0-1.251-.521.821.821,0,0,0-.9.818c0,.514.514.748,1.08,1.018.757.351,1.621.756,1.621,1.9a1.685,1.685,0,0,1-1.882,1.711,2.44,2.44,0,0,1-1.863-.757Z" transform="translate(0 -2.18)"/>
      <path d="M84.355,27.066c1.163,0,1.765,1.018,1.765,2.3V29.6H83.33c.035.793.449,1.395,1.2,1.395a1.32,1.32,0,0,0,1-.5l.4.468a1.92,1.92,0,0,1-1.468.676c-1.18,0-1.918-.945-1.918-2.287C82.537,28.084,83.222,27.066,84.355,27.066ZM83.32,29.047h2.044c-.009-.6-.279-1.342-1.017-1.342C83.627,27.705,83.348,28.462,83.32,29.047Z" transform="translate(0 -2.18)"/>
      <path d="M87.533,27.175h.774v.666a1.46,1.46,0,0,1,1.215-.766v.783a.957.957,0,0,0-.225-.026,1.251,1.251,0,0,0-.99.657v3.033h-.774Z" transform="translate(0 -2.18)"/>
      <path d="M90.242,27.175h.828L92.088,30.6l1.035-3.429h.819l-1.431,4.347h-.837Z" transform="translate(0 -2.18)"/>
      <path d="M94.958,25.95a.508.508,0,0,1,.5-.5.5.5,0,0,1,.5.5.5.5,0,0,1-.5.5A.5.5,0,0,1,94.958,25.95Zm.117,1.225h.774v4.347h-.774Z" transform="translate(0 -2.18)"/>
      <path d="M99.143,27.066a1.536,1.536,0,0,1,1.288.585l-.406.523a.957.957,0,0,0-.81-.423c-.73,0-1.125.72-1.125,1.593s.395,1.6,1.125,1.6a.977.977,0,0,0,.81-.423l.406.523a1.512,1.512,0,0,1-1.288.585c-1.134,0-1.855-.982-1.855-2.287S98.009,27.066,99.143,27.066Z" transform="translate(0 -2.18)"/>
      <path d="M103.346,27.066c1.162,0,1.764,1.018,1.764,2.3V29.6h-2.79c.035.793.45,1.395,1.2,1.395a1.323,1.323,0,0,0,1-.5l.4.468a1.92,1.92,0,0,1-1.468.676c-1.179,0-1.918-.945-1.918-2.287C101.527,28.084,102.212,27.066,103.346,27.066Zm-1.035,1.981h2.043c-.008-.6-.279-1.342-1.017-1.342C102.617,27.705,102.338,28.462,102.311,29.047Z" transform="translate(0 -2.18)"/>
      <path d="M2.26,40.191h-.8v2.331H.6v-6H2.557a1.676,1.676,0,0,1,1.7,1.828,1.577,1.577,0,0,1-1.161,1.7l1.215,2.475H3.349Zm.179-2.917H1.458v2.161h.981a1.091,1.091,0,0,0,0-2.161Z" transform="translate(0 -2.18)"/>
      <path d="M7.894,42.072a1.407,1.407,0,0,1-1.144.559,1.337,1.337,0,0,1-1.323-1.449A1.314,1.314,0,0,1,6.75,39.759a1.365,1.365,0,0,1,1.144.54V39.6a.792.792,0,0,0-.865-.881,1.48,1.48,0,0,0-1.089.512l-.315-.54a2.091,2.091,0,0,1,1.53-.63,1.332,1.332,0,0,1,1.513,1.45v3.006H7.894Zm0-1.242a.994.994,0,0,0-.873-.522.9.9,0,0,0,0,1.783,1,1,0,0,0,.873-.523Z" transform="translate(0 -2.18)"/>
      <path d="M10.476,41.6V38.85H9.9v-.675h.577V36.986h.765v1.189h.73v.675h-.73v2.6c0,.307.109.495.342.495a.5.5,0,0,0,.369-.152l.2.576a1,1,0,0,1-.738.261C10.773,42.631,10.476,42.279,10.476,41.6Z" transform="translate(0 -2.18)"/>
      <path d="M14.922,38.066c1.162,0,1.765,1.018,1.765,2.3V40.6H13.9c.036.793.45,1.4,1.2,1.4a1.323,1.323,0,0,0,1-.5l.4.468a1.92,1.92,0,0,1-1.468.676c-1.179,0-1.917-.945-1.917-2.287C13.1,39.084,13.788,38.066,14.922,38.066Zm-1.035,1.981h2.044c-.009-.6-.28-1.342-1.018-1.342C14.193,38.705,13.914,39.462,13.887,40.047Z" transform="translate(0 -2.18)"/>
      <path d="M20.394,39.524c0-1.8.918-3.105,2.368-3.105a1.988,1.988,0,0,1,1.854,1.251l-.711.324a1.256,1.256,0,0,0-1.143-.809c-.909,0-1.494.99-1.494,2.339s.585,2.341,1.494,2.341a1.247,1.247,0,0,0,1.143-.882l.72.325a1.991,1.991,0,0,1-1.863,1.323C21.312,42.631,20.394,41.325,20.394,39.524Z" transform="translate(0 -2.18)"/>
      <path d="M25.748,40.344c0-1.224.631-2.278,1.828-2.278S29.4,39.12,29.4,40.344s-.63,2.287-1.827,2.287S25.748,41.568,25.748,40.344Zm2.855,0c0-.828-.316-1.593-1.027-1.593s-1.017.765-1.017,1.593.315,1.6,1.017,1.6S28.6,41.182,28.6,40.344Z" transform="translate(0 -2.18)"/>
      <path d="M33.336,41.929a1.37,1.37,0,0,1-1.134.7c-.973,0-1.576-.892-1.576-2.277,0-1.361.595-2.288,1.576-2.288a1.326,1.326,0,0,1,1.134.711V36.518H34.1v6h-.766Zm0-2.521a1.11,1.11,0,0,0-.918-.657c-.666,0-.99.711-.99,1.6s.324,1.592.99,1.592a1.1,1.1,0,0,0,.918-.648Z" transform="translate(0 -2.18)"/>
      <path d="M37.369,38.066c1.161,0,1.764,1.018,1.764,2.3V40.6h-2.79c.035.793.45,1.4,1.2,1.4a1.322,1.322,0,0,0,1-.5l.4.468a1.922,1.922,0,0,1-1.468.676c-1.18,0-1.918-.945-1.918-2.287C35.55,39.084,36.234,38.066,37.369,38.066Zm-1.036,1.981h2.044c-.009-.6-.279-1.342-1.018-1.342C36.64,38.705,36.36,39.462,36.333,40.047Z" transform="translate(0 -2.18)"/>
      <path d="M41.049,38.111a.54.54,0,1,1-.55.54A.548.548,0,0,1,41.049,38.111Zm0,3.421a.54.54,0,1,1-.55.54A.548.548,0,0,1,41.049,41.532Z" transform="translate(0 -2.18)"/>
      <path d="M46.656,37.634l-.927.981-.5-.531,1.53-1.566H47.5v6h-.846Z" transform="translate(0 -2.18)"/>
      <path d="M50.994,36.428c1.422,0,1.944,1.494,1.944,3.1s-.512,3.107-1.944,3.107-1.954-1.5-1.954-3.107S49.562,36.428,50.994,36.428Zm0,.765c-.864,0-1.08,1.153-1.08,2.331s.216,2.341,1.08,2.341,1.071-1.17,1.071-2.341S51.85,37.193,50.994,37.193Z" transform="translate(0 -2.18)"/>
      <path d="M56.205,36.428c1.422,0,1.944,1.494,1.944,3.1s-.512,3.107-1.944,3.107-1.954-1.5-1.954-3.107S54.773,36.428,56.205,36.428Zm0,.765c-.864,0-1.08,1.153-1.08,2.331s.216,2.341,1.08,2.341,1.071-1.17,1.071-2.341S57.061,37.193,56.205,37.193Z" transform="translate(0 -2.18)"/>
      <path d="M60.624,37.634l-.928.981-.5-.531,1.531-1.566h.747v6h-.846Z" transform="translate(0 -2.18)"/>
    </g>
  </g>
</svg>
