<svg xmlns="http://www.w3.org/2000/svg" width="131.556" height="40.451" viewBox="0 0 131.556 40.451">
  <g>
    <g>
      <path d="M3.446,7.922H2.1v3.74H.98V2.318H3.838A2.536,2.536,0,0,1,6.4,5.106,2.42,2.42,0,0,1,4.538,7.754L6.5,11.662H5.239ZM3.712,3.3H2.1V6.941h1.61c.967,0,1.541-.756,1.541-1.821S4.679,3.3,3.712,3.3Z" transform="translate(0 -2.179)" fill="#0b79bf"/>
      <path d="M12.084,10.934a2.118,2.118,0,0,1-1.779.9A2.078,2.078,0,0,1,8.26,9.575a2.045,2.045,0,0,1,2.045-2.227,2.107,2.107,0,0,1,1.779.868V7.039A1.284,1.284,0,0,0,10.7,5.6,2.153,2.153,0,0,0,9,6.423l-.448-.714a3.1,3.1,0,0,1,2.3-.98,1.992,1.992,0,0,1,2.241,2.2v4.734H12.084Zm0-1.976a1.625,1.625,0,0,0-1.457-.868,1.361,1.361,0,0,0-1.345,1.5A1.373,1.373,0,0,0,10.627,11.1a1.638,1.638,0,0,0,1.457-.855Z" transform="translate(0 -2.179)" fill="#0b79bf"/>
      <path d="M15.891,10.3V5.778h-.9V4.9h.9V3.047H16.9V4.9h1.149v.882H16.9v4.343c0,.519.155.813.547.813a.757.757,0,0,0,.588-.267l.309.757a1.455,1.455,0,0,1-1.093.406C16.324,11.83,15.891,11.312,15.891,10.3Z" transform="translate(0 -2.179)" fill="#0b79bf"/>
      <path d="M22.556,4.729c1.778,0,2.674,1.6,2.674,3.571v.308H20.847c.042,1.359.742,2.381,1.947,2.381a2.085,2.085,0,0,0,1.61-.826l.533.588A2.814,2.814,0,0,1,22.71,11.83c-1.808,0-2.9-1.485-2.9-3.558C19.81,6.311,20.847,4.729,22.556,4.729ZM20.847,7.866h3.389c-.013-1.037-.462-2.3-1.7-2.3C21.351,5.568,20.875,6.871,20.847,7.866Z" transform="translate(0 -2.179)" fill="#0b79bf"/>
      <path d="M31.3,2.318h1.121v9.344H31.3Z" transform="translate(0 -2.179)" fill="#0b79bf"/>
      <path d="M38.753,6.844c0-.9-.406-1.219-1.078-1.219A1.976,1.976,0,0,0,36.092,6.7v4.959H35.1V4.9h.994v.966a2.509,2.509,0,0,1,1.961-1.133c1.148,0,1.709.616,1.709,1.834v5.1H38.753Z" transform="translate(0 -2.179)" fill="#0b79bf"/>
      <path d="M42.616,5.778h-.9V4.9h.9V4.069a1.661,1.661,0,0,1,1.653-1.89,1.889,1.889,0,0,1,.868.2l-.238.784a.965.965,0,0,0-.448-.112c-.533,0-.827.364-.827,1.022V4.9h1.148v.882H43.624v5.884H42.616Z" transform="translate(0 -2.179)" fill="#0b79bf"/>
      <path d="M46.367,8.272c0-1.905.953-3.543,2.746-3.543,1.821,0,2.76,1.638,2.76,3.543s-.939,3.558-2.76,3.558C47.32,11.83,46.367,10.177,46.367,8.272Zm4.455,0c0-1.359-.518-2.647-1.709-2.647-1.163,0-1.7,1.288-1.7,2.647s.532,2.662,1.7,2.662C50.3,10.934,50.822,9.645,50.822,8.272Z" transform="translate(0 -2.179)" fill="#0b79bf"/>
      <path d="M54.151,4.9h.995V5.975a2.27,2.27,0,0,1,1.918-1.219V5.793a1.373,1.373,0,0,0-.335-.042,2.028,2.028,0,0,0-1.583,1.106v4.805h-.995Z" transform="translate(0 -2.179)" fill="#0b79bf"/>
      <path d="M65.83,6.759c0-.728-.294-1.134-.938-1.134A1.856,1.856,0,0,0,63.421,6.7v4.959H62.413v-4.9c0-.728-.295-1.134-.953-1.134A1.9,1.9,0,0,0,59.989,6.7v4.959H59V4.9h.994v.966a2.341,2.341,0,0,1,1.849-1.133,1.424,1.424,0,0,1,1.527,1.2,2.327,2.327,0,0,1,1.906-1.2c.994,0,1.568.545,1.568,1.764v5.169H65.83Z" transform="translate(0 -2.179)" fill="#0b79bf"/>
      <path d="M72.927,10.934a2.119,2.119,0,0,1-1.78.9A2.078,2.078,0,0,1,69.1,9.575a2.045,2.045,0,0,1,2.044-2.227,2.107,2.107,0,0,1,1.78.868V7.039A1.284,1.284,0,0,0,71.54,5.6a2.151,2.151,0,0,0-1.7.826L69.4,5.709a3.1,3.1,0,0,1,2.3-.98,1.992,1.992,0,0,1,2.242,2.2v4.734H72.927Zm0-1.976A1.625,1.625,0,0,0,71.47,8.09a1.361,1.361,0,0,0-1.345,1.5A1.373,1.373,0,0,0,71.47,11.1a1.638,1.638,0,0,0,1.457-.855Z" transform="translate(0 -2.179)" fill="#0b79bf"/>
      <path d="M76.732,10.3V5.778h-.9V4.9h.9V3.047h1.009V4.9H78.89v.882H77.741v4.343c0,.519.155.813.547.813a.757.757,0,0,0,.588-.267l.309.757a1.458,1.458,0,0,1-1.093.406C77.167,11.83,76.732,11.312,76.732,10.3Z" transform="translate(0 -2.179)" fill="#0b79bf"/>
      <path d="M80.793,3.075a.7.7,0,0,1,.686-.686.687.687,0,1,1,0,1.373A.7.7,0,0,1,80.793,3.075Zm.2,1.821h.994v6.766h-.994Z" transform="translate(0 -2.179)" fill="#0b79bf"/>
      <path d="M84.264,8.272c0-1.905.953-3.543,2.746-3.543,1.82,0,2.76,1.638,2.76,3.543s-.94,3.558-2.76,3.558C85.217,11.83,84.264,10.177,84.264,8.272Zm4.455,0c0-1.359-.519-2.647-1.709-2.647-1.163,0-1.7,1.288-1.7,2.647s.533,2.662,1.7,2.662C88.2,10.934,88.719,9.645,88.719,8.272Z" transform="translate(0 -2.179)" fill="#0b79bf"/>
      <path d="M95.7,6.844c0-.9-.406-1.219-1.078-1.219A1.978,1.978,0,0,0,93.043,6.7v4.959h-.994V4.9h.994v.966A2.511,2.511,0,0,1,95,4.729c1.148,0,1.709.616,1.709,1.834v5.1H95.7Z" transform="translate(0 -2.179)" fill="#0b79bf"/>
    </g>
    <line y1="15.367" x2="131.556" y2="15.367" fill="none" stroke="#328aca" stroke-miterlimit="10"/>
    <g>
      <path d="M2.26,29.19h-.8v2.331H.6v-6H2.557a1.675,1.675,0,0,1,1.7,1.827,1.579,1.579,0,0,1-1.161,1.7l1.215,2.474H3.349Zm.179-2.917H1.458v2.161h.981a1.091,1.091,0,0,0,0-2.161Z" transform="translate(0 -2.179)"/>
      <path d="M7.164,27.065c1.162,0,1.765,1.018,1.765,2.3V29.6H6.139c.035.792.449,1.394,1.2,1.394a1.322,1.322,0,0,0,1-.5l.4.469a1.921,1.921,0,0,1-1.467.675c-1.18,0-1.918-.945-1.918-2.286C5.346,28.083,6.03,27.065,7.164,27.065ZM6.129,29.047H8.173c-.009-.6-.279-1.342-1.018-1.342C6.436,27.705,6.156,28.461,6.129,29.047Z" transform="translate(0 -2.179)"/>
      <path d="M10.359,30.469a1.6,1.6,0,0,0,1.162.54c.477,0,.774-.234.774-.6,0-.414-.4-.594-.864-.775-.6-.225-1.3-.486-1.3-1.36a1.271,1.271,0,0,1,1.44-1.206,1.881,1.881,0,0,1,1.377.559l-.342.53a1.3,1.3,0,0,0-1.026-.466c-.433,0-.721.224-.721.539,0,.369.388.531.828.711.613.225,1.342.5,1.342,1.423a1.327,1.327,0,0,1-1.5,1.269A1.974,1.974,0,0,1,10,31.018Z" transform="translate(0 -2.179)"/>
      <path d="M14.311,25.949a.508.508,0,0,1,.5-.5.5.5,0,0,1,.5.5.494.494,0,0,1-.5.495A.5.5,0,0,1,14.311,25.949Zm.117,1.225H15.2v4.347h-.773Z" transform="translate(0 -2.179)"/>
      <path d="M19.351,30.928a1.371,1.371,0,0,1-1.134.7c-.973,0-1.576-.892-1.576-2.277,0-1.361.594-2.288,1.576-2.288a1.326,1.326,0,0,1,1.134.712V25.518h.765v6h-.765Zm0-2.521a1.113,1.113,0,0,0-.918-.657c-.666,0-.991.711-.991,1.6s.325,1.592.991,1.592a1.1,1.1,0,0,0,.918-.648Z" transform="translate(0 -2.179)"/>
      <path d="M23.383,27.065c1.161,0,1.763,1.018,1.763,2.3V29.6h-2.79c.036.792.451,1.394,1.2,1.394a1.323,1.323,0,0,0,1-.5l.4.469a1.923,1.923,0,0,1-1.468.675c-1.179,0-1.918-.945-1.918-2.286C21.563,28.083,22.248,27.065,23.383,27.065Zm-1.036,1.982h2.044c-.009-.6-.28-1.342-1.018-1.342C22.653,27.705,22.374,28.461,22.347,29.047Z" transform="translate(0 -2.179)"/>
      <path d="M28.945,28.5c0-.55-.253-.747-.657-.747a1.165,1.165,0,0,0-.955.648v3.123H26.56V27.174h.773v.6a1.615,1.615,0,0,1,1.261-.712c.756,0,1.116.415,1.116,1.18v3.276h-.765Z" transform="translate(0 -2.179)"/>
      <path d="M31.526,30.6V27.85H30.95v-.676h.576V25.985h.766v1.189h.729v.676h-.729v2.6c0,.306.108.494.342.494A.5.5,0,0,0,33,30.793l.2.576a1,1,0,0,1-.738.261C31.824,31.63,31.526,31.279,31.526,30.6Z" transform="translate(0 -2.179)"/>
      <path d="M34.254,25.949a.508.508,0,0,1,.5-.5.5.5,0,0,1,.5.5.5.5,0,0,1-.5.495A.5.5,0,0,1,34.254,25.949Zm.117,1.225h.774v4.347h-.774Z" transform="translate(0 -2.179)"/>
      <path d="M39.042,31.072a1.4,1.4,0,0,1-1.144.558,1.337,1.337,0,0,1-1.323-1.449A1.314,1.314,0,0,1,37.9,28.758a1.365,1.365,0,0,1,1.144.541v-.694a.792.792,0,0,0-.864-.882,1.476,1.476,0,0,0-1.089.513l-.316-.541a2.093,2.093,0,0,1,1.531-.63,1.332,1.332,0,0,1,1.512,1.451v3.005h-.774Zm0-1.242a.992.992,0,0,0-.873-.523.9.9,0,0,0,0,1.783,1,1,0,0,0,.873-.522Z" transform="translate(0 -2.179)"/>
      <path d="M41.473,25.518h.773v6h-.773Z" transform="translate(0 -2.179)"/>
      <path d="M46.413,25.518H49.6v.755H47.268v1.81h2.269v.757H47.268v1.926H49.6v.755H46.413Z" transform="translate(0 -2.179)"/>
      <path d="M51.1,25.518h.773v6H51.1Z" transform="translate(0 -2.179)"/>
      <path d="M55.135,27.065c1.161,0,1.763,1.018,1.763,2.3V29.6h-2.79c.036.792.451,1.394,1.2,1.394a1.323,1.323,0,0,0,1-.5l.4.469a1.923,1.923,0,0,1-1.468.675c-1.179,0-1.918-.945-1.918-2.286C53.315,28.083,54,27.065,55.135,27.065ZM54.1,29.047h2.044c-.009-.6-.28-1.342-1.018-1.342C54.405,27.705,54.126,28.461,54.1,29.047Z" transform="translate(0 -2.179)"/>
      <path d="M59.948,27.065a1.536,1.536,0,0,1,1.288.585l-.4.523a.958.958,0,0,0-.81-.423c-.73,0-1.125.721-1.125,1.594s.395,1.6,1.125,1.6a.978.978,0,0,0,.81-.423l.4.523a1.51,1.51,0,0,1-1.288.585c-1.134,0-1.854-.982-1.854-2.286S58.814,27.065,59.948,27.065Z" transform="translate(0 -2.179)"/>
      <path d="M62.7,30.6V27.85h-.576v-.676H62.7V25.985h.766v1.189H64.2v.676h-.729v2.6c0,.306.108.494.342.494a.5.5,0,0,0,.369-.152l.2.576a1,1,0,0,1-.738.261C63,31.63,62.7,31.279,62.7,30.6Z" transform="translate(0 -2.179)"/>
      <path d="M65.547,27.174h.773v.666a1.461,1.461,0,0,1,1.216-.766v.783a.957.957,0,0,0-.225-.026,1.256,1.256,0,0,0-.991.657v3.033h-.773Z" transform="translate(0 -2.179)"/>
      <path d="M68.66,25.949a.509.509,0,0,1,.5-.5.5.5,0,0,1,.5.5.5.5,0,0,1-.5.495A.5.5,0,0,1,68.66,25.949Zm.117,1.225h.774v4.347h-.774Z" transform="translate(0 -2.179)"/>
      <path d="M72.846,27.065a1.537,1.537,0,0,1,1.288.585l-.405.523a.96.96,0,0,0-.811-.423c-.73,0-1.125.721-1.125,1.594s.395,1.6,1.125,1.6a.98.98,0,0,0,.811-.423l.405.523a1.511,1.511,0,0,1-1.288.585c-1.134,0-1.855-.982-1.855-2.286S71.712,27.065,72.846,27.065Z" transform="translate(0 -2.179)"/>
      <path d="M79.613,29.19h-.8v2.331h-.855v-6H79.91a1.675,1.675,0,0,1,1.7,1.827,1.578,1.578,0,0,1-1.161,1.7l1.216,2.474H80.7Zm.18-2.917h-.981v2.161h.981a1.092,1.092,0,0,0,0-2.161Z" transform="translate(0 -2.179)"/>
      <path d="M85.248,31.072a1.4,1.4,0,0,1-1.144.558,1.337,1.337,0,0,1-1.323-1.449A1.314,1.314,0,0,1,84.1,28.758a1.365,1.365,0,0,1,1.144.541v-.694a.792.792,0,0,0-.864-.882,1.476,1.476,0,0,0-1.089.513l-.316-.541a2.093,2.093,0,0,1,1.531-.63,1.332,1.332,0,0,1,1.512,1.451v3.005h-.774Zm0-1.242a.992.992,0,0,0-.873-.523.9.9,0,0,0,0,1.783,1,1,0,0,0,.873-.522Z" transform="translate(0 -2.179)"/>
      <path d="M87.83,30.6V27.85h-.576v-.676h.576V25.985H88.6v1.189h.729v.676H88.6v2.6c0,.306.107.494.342.494a.5.5,0,0,0,.369-.152l.2.576a1,1,0,0,1-.738.261C88.127,31.63,87.83,31.279,87.83,30.6Z" transform="translate(0 -2.179)"/>
      <path d="M92.277,27.065c1.161,0,1.764,1.018,1.764,2.3V29.6h-2.79c.035.792.45,1.394,1.2,1.394a1.32,1.32,0,0,0,1-.5l.4.469a1.923,1.923,0,0,1-1.468.675c-1.18,0-1.918-.945-1.918-2.286C90.458,28.083,91.143,27.065,92.277,27.065Zm-1.036,1.982h2.044c-.009-.6-.279-1.342-1.017-1.342C91.548,27.705,91.269,28.461,91.241,29.047Z" transform="translate(0 -2.179)"/>
      <path d="M99.62,29.19h-.8v2.331h-.854v-6h1.953a1.675,1.675,0,0,1,1.7,1.827,1.579,1.579,0,0,1-1.161,1.7l1.216,2.474h-.964Zm.18-2.917h-.982v2.161H99.8a1.092,1.092,0,0,0,0-2.161Z" transform="translate(0 -2.179)"/>
      <path d="M103.265,30.207a1.889,1.889,0,0,0,1.414.658.9.9,0,0,0,1.026-.891c0-.6-.54-.865-1.143-1.144-.73-.333-1.567-.693-1.567-1.782a1.66,1.66,0,0,1,1.8-1.63,2.282,2.282,0,0,1,1.656.639l-.432.648a1.67,1.67,0,0,0-1.251-.521.822.822,0,0,0-.9.818c0,.514.514.748,1.08,1.018.757.351,1.621.756,1.621,1.9a1.685,1.685,0,0,1-1.881,1.71,2.441,2.441,0,0,1-1.864-.757Z" transform="translate(0 -2.179)"/>
      <path d="M2.26,40.19h-.8v2.331H.6v-6H2.557a1.675,1.675,0,0,1,1.7,1.827,1.579,1.579,0,0,1-1.161,1.7l1.215,2.474H3.349Zm.179-2.917H1.458v2.161h.981a1.091,1.091,0,0,0,0-2.161Z" transform="translate(0 -2.179)"/>
      <path d="M7.894,42.072a1.406,1.406,0,0,1-1.144.558,1.337,1.337,0,0,1-1.323-1.449A1.314,1.314,0,0,1,6.75,39.758a1.366,1.366,0,0,1,1.144.541V39.6a.792.792,0,0,0-.865-.882,1.477,1.477,0,0,0-1.089.513L5.625,38.7a2.091,2.091,0,0,1,1.53-.63,1.332,1.332,0,0,1,1.513,1.451v3.005H7.894Zm0-1.242a.993.993,0,0,0-.873-.523.9.9,0,0,0,0,1.783,1,1,0,0,0,.873-.522Z" transform="translate(0 -2.179)"/>
      <path d="M10.476,41.6V38.85H9.9v-.676h.577V36.985h.765v1.189h.73v.676h-.73v2.6c0,.306.109.494.342.494a.5.5,0,0,0,.369-.152l.2.576a1,1,0,0,1-.738.261C10.773,42.63,10.476,42.279,10.476,41.6Z" transform="translate(0 -2.179)"/>
      <path d="M14.922,38.065c1.162,0,1.765,1.018,1.765,2.3V40.6H13.9c.036.792.45,1.394,1.2,1.394a1.323,1.323,0,0,0,1-.5l.4.469a1.923,1.923,0,0,1-1.468.675c-1.179,0-1.917-.945-1.917-2.286C13.1,39.083,13.788,38.065,14.922,38.065Zm-1.035,1.982h2.044c-.009-.6-.28-1.342-1.018-1.342C14.193,38.705,13.914,39.461,13.887,40.047Z" transform="translate(0 -2.179)"/>
      <path d="M18.6,38.111a.54.54,0,1,1-.55.539A.547.547,0,0,1,18.6,38.111Zm0,3.42a.54.54,0,1,1-.55.541A.548.548,0,0,1,18.6,41.531Z" transform="translate(0 -2.179)"/>
      <path d="M24.211,37.633l-.928.982-.5-.531,1.531-1.566h.747v6h-.846Z" transform="translate(0 -2.179)"/>
      <path d="M28.549,36.428c1.422,0,1.944,1.494,1.944,3.1s-.513,3.107-1.944,3.107-1.954-1.5-1.954-3.107S27.117,36.428,28.549,36.428Zm0,.764c-.864,0-1.08,1.153-1.08,2.331s.216,2.342,1.08,2.342,1.071-1.171,1.071-2.342S29.4,37.192,28.549,37.192Z" transform="translate(0 -2.179)"/>
      <path d="M33.76,36.428c1.422,0,1.944,1.494,1.944,3.1s-.513,3.107-1.944,3.107-1.954-1.5-1.954-3.107S32.328,36.428,33.76,36.428Zm0,.764c-.864,0-1.08,1.153-1.08,2.331s.216,2.342,1.08,2.342,1.071-1.171,1.071-2.342S34.615,37.192,33.76,37.192Z" transform="translate(0 -2.179)"/>
      <path d="M38.971,36.428c1.422,0,1.944,1.494,1.944,3.1S40.4,42.63,38.971,42.63s-1.954-1.5-1.954-3.107S37.539,36.428,38.971,36.428Zm0,.764c-.865,0-1.08,1.153-1.08,2.331s.215,2.342,1.08,2.342,1.071-1.171,1.071-2.342S39.826,37.192,38.971,37.192Z" transform="translate(0 -2.179)"/>
      <path d="M45.127,37.994l-.918,4.527h-.9l-1.351-6h.918l.928,4.689.971-4.689h.7l.981,4.689.919-4.689H48.3l-1.342,6h-.909Z" transform="translate(0 -2.179)"/>
    </g>
  </g>
</svg>
