<svg xmlns="http://www.w3.org/2000/svg" width="178.451" height="48.107" viewBox="0 0 178.451 48.107">
  <g>
    <g>
      <path d="M2.079,3.853V8.33H.659V1.664h1.46L5.207,5.981V1.664H6.626V8.33H5.257Z" transform="translate(0 -1.554)" fill="#0b79bf"/>
      <path d="M8.7,1.664h4.718v1.22h-3.3V4.332h3.228v1.22H10.119V7.1h3.3V8.33H8.7Z" transform="translate(0 -1.554)" fill="#0b79bf"/>
      <path d="M19.208,3.753,18.048,8.33H16.539L14.63,1.664h1.589l1.17,4.817,1.269-4.817h1.11l1.258,4.817,1.16-4.817h1.6l-1.9,6.666H20.377Z" transform="translate(0 -1.554)" fill="#0b79bf"/>
      <path d="M25.529,6.312a2.927,2.927,0,0,0,2.119.9c.78,0,1.16-.37,1.16-.75,0-.5-.58-.669-1.35-.85-1.089-.249-2.488-.549-2.488-2.038,0-1.109.959-2.009,2.528-2.009a3.71,3.71,0,0,1,2.6.929l-.789,1.04A2.844,2.844,0,0,0,27.4,2.8c-.639,0-.979.279-.979.679,0,.45.56.589,1.329.77,1.1.249,2.5.579,2.5,2.059,0,1.218-.87,2.138-2.669,2.138A3.838,3.838,0,0,1,24.75,7.391Z" transform="translate(0 -1.554)" fill="#0b79bf"/>
      <path d="M39.517,7.181H36.538l-.42,1.149H34.56l2.578-6.666h1.779L41.485,8.33H39.937Zm-2.6-1.23h2.209l-1.1-3.057Z" transform="translate(0 -1.554)" fill="#0b79bf"/>
      <path d="M44.278,3.853V8.33h-1.42V1.664h1.46l3.088,4.317V1.664h1.419V8.33H47.456Z" transform="translate(0 -1.554)" fill="#0b79bf"/>
      <path d="M50.9,1.664h2.629A3.266,3.266,0,0,1,57.065,5,3.259,3.259,0,0,1,53.527,8.33H50.9Zm2.629,5.417A2,2,0,0,0,55.616,5a1.951,1.951,0,0,0-2.089-2.089H52.318V7.081Z" transform="translate(0 -1.554)" fill="#0b79bf"/>
      <path d="M62.139,1.664h1.42V8.33h-1.42Z" transform="translate(0 -1.554)" fill="#0b79bf"/>
      <path d="M67.048,3.853V8.33h-1.42V1.664h1.46l3.088,4.317V1.664H71.6V8.33H70.226Z" transform="translate(0 -1.554)" fill="#0b79bf"/>
      <path d="M73.668,1.664h4.718v1.22h-3.3V4.332h3.227v1.22H75.088V8.33h-1.42Z" transform="translate(0 -1.554)" fill="#0b79bf"/>
      <path d="M83.287,1.554A3.348,3.348,0,0,1,86.774,5a3.483,3.483,0,0,1-6.965,0A3.346,3.346,0,0,1,83.287,1.554Zm0,1.259A2.017,2.017,0,0,0,81.268,5a2.03,2.03,0,1,0,4.047,0A2.023,2.023,0,0,0,83.287,2.813Z" transform="translate(0 -1.554)" fill="#0b79bf"/>
      <path d="M90.987,5.941H89.948V8.33h-1.42V1.664h3.119a2.076,2.076,0,0,1,2.239,2.148,1.914,1.914,0,0,1-1.459,1.98l1.5,2.538H92.3Zm.451-3.057h-1.49V4.723h1.49a.923.923,0,1,0,0-1.839Z" transform="translate(0 -1.554)" fill="#0b79bf"/>
      <path d="M101.505,3.533l-1.879,4.8h-.619l-1.879-4.8v4.8h-1.42V1.664H97.7l1.619,4.157,1.62-4.157h2V8.33h-1.43Z" transform="translate(0 -1.554)" fill="#0b79bf"/>
      <path d="M109.256,7.181h-2.979l-.42,1.149H104.3l2.578-6.666h1.779l2.569,6.666h-1.549Zm-2.6-1.23h2.209l-1.1-3.057Z" transform="translate(0 -1.554)" fill="#0b79bf"/>
      <path d="M113.5,2.913h-1.949V1.664h5.317V2.913h-1.939V8.33H113.5Z" transform="translate(0 -1.554)" fill="#0b79bf"/>
      <path d="M118.528,1.664h1.42V8.33h-1.42Z" transform="translate(0 -1.554)" fill="#0b79bf"/>
      <path d="M125.177,1.554A3.349,3.349,0,0,1,128.664,5,3.483,3.483,0,0,1,121.7,5,3.347,3.347,0,0,1,125.177,1.554Zm0,1.259A2.017,2.017,0,0,0,123.157,5a2.03,2.03,0,1,0,4.048,0A2.024,2.024,0,0,0,125.177,2.813Z" transform="translate(0 -1.554)" fill="#0b79bf"/>
      <path d="M131.838,3.853V8.33h-1.42V1.664h1.46l3.088,4.317V1.664h1.419V8.33h-1.369Z" transform="translate(0 -1.554)" fill="#0b79bf"/>
    </g>
    <g>
      <path d="M3.488,20.581H1.548l-.238.708H0l1.758-4.672H3.271l1.765,4.672H3.727ZM1.863,19.565h1.31l-.658-1.9Z" transform="translate(0 -1.554)"/>
      <path d="M5.446,16.617H6.651v3.621H8.528v1.051H5.446Z" transform="translate(0 -1.554)"/>
      <path d="M9.219,16.617h3.425v1.016h-2.22v.777H12.6v1.023H10.424v.84h2.22v1.016H9.219Z" transform="translate(0 -1.554)"/>
      <path d="M15.233,19.706h-.616v1.583h-1.2V16.617h2.34a1.505,1.505,0,0,1,1.625,1.555,1.417,1.417,0,0,1-.932,1.4l.952,1.716H16.018Zm.336-2.073h-.952v1.051h.952a.528.528,0,1,0,0-1.051Z" transform="translate(0 -1.554)"/>
      <path d="M19.083,17.668h-1.31V16.617H21.59v1.051h-1.3v3.621h-1.2Z" transform="translate(0 -1.554)"/>
      <path d="M23.884,19.139h1.68v.9h-1.68Z" transform="translate(0 -1.554)"/>
      <path d="M28.126,16.617h2.647a1.228,1.228,0,0,1,1.367,1.191,1.045,1.045,0,0,1-.8,1.072,1.118,1.118,0,0,1,.889,1.141,1.243,1.243,0,0,1-1.373,1.268H28.126ZM30.5,18.424a.4.4,0,0,0,.413-.406.39.39,0,0,0-.413-.4h-1.17v.8Zm.042,1.863a.418.418,0,0,0,.462-.427.432.432,0,0,0-.462-.441H29.331v.868Z" transform="translate(0 -1.554)"/>
      <path d="M34.5,17.822a1.722,1.722,0,0,1,1.73,1.884v.232H33.825a.808.808,0,0,0,.862.6,1.343,1.343,0,0,0,.826-.287l.455.673a2.207,2.207,0,0,1-1.414.448,1.776,1.776,0,1,1-.05-3.551Zm-.693,1.414H35.2a.65.65,0,0,0-.7-.581A.668.668,0,0,0,33.811,19.236Z" transform="translate(0 -1.554)"/>
      <path d="M39.194,19.194l-.631,2.1H37.4l-1-3.383h1.107l.547,2.073.665-2.073h.959l.666,2.073.539-2.073H42l-1,3.383H39.831Z" transform="translate(0 -1.554)"/>
      <path d="M44.409,20.953a1.4,1.4,0,0,1-1.051.42A1.118,1.118,0,0,1,42.2,20.259a1.044,1.044,0,0,1,1.163-1.065,1.352,1.352,0,0,1,1.051.393V19.16c0-.3-.253-.491-.686-.491a1.516,1.516,0,0,0-.96.357l-.385-.678a2.382,2.382,0,0,1,1.533-.526c.813,0,1.576.3,1.576,1.352v2.115H44.409Zm0-.834a.769.769,0,0,0-.6-.238c-.287,0-.539.126-.539.392s.252.392.539.392a.75.75,0,0,0,.6-.245Z" transform="translate(0 -1.554)"/>
      <path d="M46.34,17.906h1.078v.427a1.48,1.48,0,0,1,1.058-.511v1.043a.91.91,0,0,0-.266-.035,1.075,1.075,0,0,0-.792.316v2.143H46.34Z" transform="translate(0 -1.554)"/>
      <path d="M50.61,17.822a1.722,1.722,0,0,1,1.731,1.884v.232H49.932a.806.806,0,0,0,.861.6,1.338,1.338,0,0,0,.826-.287l.455.673a2.206,2.206,0,0,1-1.415.448,1.776,1.776,0,1,1-.049-3.551Zm-.693,1.414h1.394a.651.651,0,0,0-.7-.581A.669.669,0,0,0,49.917,19.236Z" transform="translate(0 -1.554)"/>
      <path d="M54.578,19.594a1.847,1.847,0,1,1,1.842,1.779A1.744,1.744,0,0,1,54.578,19.594Zm2.585,0a.741.741,0,1,0-.743.826A.747.747,0,0,0,57.163,19.594Z" transform="translate(0 -1.554)"/>
      <path d="M59.136,18.845h-.56v-.939h.56v-.168a1.146,1.146,0,0,1,1.212-1.191,1.544,1.544,0,0,1,.714.154l-.2.736a.555.555,0,0,0-.28-.07.354.354,0,0,0-.371.4v.14H60.9v.939h-.686v2.444H59.136Z" transform="translate(0 -1.554)"/>
      <path d="M63.28,22.577V17.906h1.078V18.3a1.265,1.265,0,0,1,1-.476c.847,0,1.485.63,1.485,1.772s-.638,1.779-1.485,1.779a1.258,1.258,0,0,1-1-.483v1.687ZM65,18.774a.859.859,0,0,0-.645.309v1.029A.886.886,0,0,0,65,20.42a.827.827,0,0,0,0-1.646Z" transform="translate(0 -1.554)"/>
      <path d="M69.776,19.32c0-.413-.216-.546-.56-.546a.831.831,0,0,0-.652.33v2.185H67.486V16.617h1.078v1.7a1.532,1.532,0,0,1,1.17-.5.987.987,0,0,1,1.12,1.058v2.409H69.776Z" transform="translate(0 -1.554)"/>
      <path d="M71.483,19.594a1.847,1.847,0,1,1,1.842,1.779A1.745,1.745,0,0,1,71.483,19.594Zm2.585,0a.74.74,0,1,0-.743.826A.746.746,0,0,0,74.068,19.594Z" transform="translate(0 -1.554)"/>
      <path d="M78.1,19.335a.49.49,0,0,0-.554-.561.832.832,0,0,0-.658.33v2.185H75.81V17.906h1.078v.413a1.529,1.529,0,0,1,1.17-.5,1,1,0,0,1,1.12,1.072v2.4H78.1Z" transform="translate(0 -1.554)"/>
      <path d="M81.605,17.822a1.722,1.722,0,0,1,1.731,1.884v.232H80.927a.806.806,0,0,0,.861.6,1.338,1.338,0,0,0,.826-.287l.455.673a2.205,2.205,0,0,1-1.414.448,1.776,1.776,0,1,1-.05-3.551Zm-.693,1.414h1.394a.651.651,0,0,0-.7-.581A.669.669,0,0,0,80.912,19.236Z" transform="translate(0 -1.554)"/>
      <path d="M85.96,20.112a2.109,2.109,0,0,0,1.19.449c.323,0,.455-.106.455-.252,0-.176-.231-.239-.581-.3-.574-.1-1.386-.217-1.386-1.078,0-.6.51-1.114,1.449-1.114a2.378,2.378,0,0,1,1.415.449l-.413.713a1.514,1.514,0,0,0-1-.371c-.252,0-.427.084-.427.232s.182.21.539.272c.574.1,1.429.238,1.429,1.135,0,.644-.568,1.121-1.541,1.121a2.513,2.513,0,0,1-1.582-.519Z" transform="translate(0 -1.554)"/>
      <path d="M93.521,19.229a.407.407,0,0,0-.448-.455.783.783,0,0,0-.609.33v2.185H91.386v-2.06a.4.4,0,0,0-.448-.455.792.792,0,0,0-.6.33v2.185H89.257V17.906h1.078v.413a1.5,1.5,0,0,1,1.113-.5.917.917,0,0,1,.96.6,1.457,1.457,0,0,1,1.17-.6.914.914,0,0,1,1.016,1.016v2.451H93.521Z" transform="translate(0 -1.554)"/>
      <path d="M97.447,20.953a1.4,1.4,0,0,1-1.051.42,1.118,1.118,0,0,1-1.163-1.114A1.044,1.044,0,0,1,96.4,19.194a1.352,1.352,0,0,1,1.051.393V19.16c0-.3-.253-.491-.686-.491a1.516,1.516,0,0,0-.96.357l-.385-.678a2.382,2.382,0,0,1,1.533-.526c.813,0,1.576.3,1.576,1.352v2.115H97.447Zm0-.834a.769.769,0,0,0-.6-.238c-.287,0-.539.126-.539.392s.252.392.539.392a.75.75,0,0,0,.6-.245Z" transform="translate(0 -1.554)"/>
      <path d="M99.379,16.617h1.078v4.672H99.379Z" transform="translate(0 -1.554)"/>
      <path d="M101.311,16.617h1.078v4.672h-1.078Z" transform="translate(0 -1.554)"/>
      <path d="M106.68,17.822a1.722,1.722,0,0,1,1.73,1.884v.232H106a.806.806,0,0,0,.861.6,1.338,1.338,0,0,0,.826-.287l.456.673a2.208,2.208,0,0,1-1.415.448,1.776,1.776,0,1,1-.049-3.551Zm-.694,1.414h1.394a.65.65,0,0,0-.7-.581A.669.669,0,0,0,105.986,19.236Z" transform="translate(0 -1.554)"/>
      <path d="M113.274,19.229a.408.408,0,0,0-.448-.455.783.783,0,0,0-.609.33v2.185h-1.078v-2.06a.4.4,0,0,0-.449-.455.792.792,0,0,0-.6.33v2.185H109.01V17.906h1.078v.413a1.5,1.5,0,0,1,1.113-.5.918.918,0,0,1,.96.6,1.457,1.457,0,0,1,1.17-.6.914.914,0,0,1,1.016,1.016v2.451h-1.073Z" transform="translate(0 -1.554)"/>
      <path d="M117.2,20.953a1.4,1.4,0,0,1-1.051.42,1.118,1.118,0,0,1-1.163-1.114,1.044,1.044,0,0,1,1.163-1.065,1.352,1.352,0,0,1,1.051.393V19.16c0-.3-.253-.491-.686-.491a1.516,1.516,0,0,0-.96.357l-.385-.678a2.382,2.382,0,0,1,1.533-.526c.813,0,1.576.3,1.576,1.352v2.115H117.2Zm0-.834a.769.769,0,0,0-.6-.238c-.287,0-.539.126-.539.392s.252.392.539.392a.75.75,0,0,0,.6-.245Z" transform="translate(0 -1.554)"/>
      <path d="M119.055,16.862a.616.616,0,1,1,.616.617A.612.612,0,0,1,119.055,16.862Zm.077,1.044h1.078v3.383h-1.078Z" transform="translate(0 -1.554)"/>
      <path d="M121.064,16.617h1.079v4.672h-1.079Z" transform="translate(0 -1.554)"/>
      <path d="M125.02,20.112a2.106,2.106,0,0,0,1.19.449c.322,0,.455-.106.455-.252,0-.176-.231-.239-.581-.3-.574-.1-1.387-.217-1.387-1.078,0-.6.511-1.114,1.449-1.114a2.381,2.381,0,0,1,1.416.449l-.414.713a1.512,1.512,0,0,0-.995-.371c-.252,0-.426.084-.426.232s.181.21.539.272c.574.1,1.428.238,1.428,1.135,0,.644-.567,1.121-1.541,1.121a2.518,2.518,0,0,1-1.582-.519Z" transform="translate(0 -1.554)"/>
      <path d="M129.94,17.822a1.626,1.626,0,0,1,1.388.623l-.7.652a.737.737,0,0,0-.637-.323.823.823,0,1,0,.637,1.317l.7.659a1.642,1.642,0,0,1-1.388.623,1.777,1.777,0,1,1,0-3.551Z" transform="translate(0 -1.554)"/>
      <path d="M133.882,20.953a1.4,1.4,0,0,1-1.051.42,1.117,1.117,0,0,1-1.163-1.114,1.043,1.043,0,0,1,1.163-1.065,1.354,1.354,0,0,1,1.051.393V19.16c0-.3-.253-.491-.687-.491a1.518,1.518,0,0,0-.96.357l-.384-.678a2.378,2.378,0,0,1,1.533-.526c.812,0,1.576.3,1.576,1.352v2.115h-1.078Zm0-.834a.77.77,0,0,0-.6-.238c-.287,0-.539.126-.539.392s.252.392.539.392a.751.751,0,0,0,.6-.245Z" transform="translate(0 -1.554)"/>
      <path d="M140.077,19.229a.408.408,0,0,0-.448-.455.783.783,0,0,0-.609.33v2.185h-1.079v-2.06a.4.4,0,0,0-.448-.455.792.792,0,0,0-.6.33v2.185h-1.079V17.906h1.079v.413a1.5,1.5,0,0,1,1.113-.5.918.918,0,0,1,.96.6,1.457,1.457,0,0,1,1.17-.6.913.913,0,0,1,1.015,1.016v2.451h-1.072Z" transform="translate(0 -1.554)"/>
      <path d="M142.169,20.112a2.109,2.109,0,0,0,1.19.449c.323,0,.455-.106.455-.252,0-.176-.231-.239-.581-.3-.574-.1-1.386-.217-1.386-1.078,0-.6.51-1.114,1.449-1.114a2.378,2.378,0,0,1,1.415.449l-.413.713a1.514,1.514,0,0,0-1-.371c-.252,0-.427.084-.427.232s.182.21.539.272c.574.1,1.429.238,1.429,1.135,0,.644-.568,1.121-1.541,1.121a2.513,2.513,0,0,1-1.582-.519Z" transform="translate(0 -1.554)"/>
      <path d="M147.328,17.906h1.078v.427a1.481,1.481,0,0,1,1.058-.511v1.043a.905.905,0,0,0-.266-.035,1.075,1.075,0,0,0-.792.316v2.143h-1.078Z" transform="translate(0 -1.554)"/>
      <path d="M151.6,17.822a1.722,1.722,0,0,1,1.73,1.884v.232h-2.409a.806.806,0,0,0,.861.6,1.338,1.338,0,0,0,.826-.287l.456.673a2.208,2.208,0,0,1-1.415.448,1.776,1.776,0,1,1-.049-3.551Zm-.694,1.414H152.3a.65.65,0,0,0-.7-.581A.669.669,0,0,0,150.9,19.236Z" transform="translate(0 -1.554)"/>
      <path d="M154.307,21.387a1.364,1.364,0,0,0,1.029.392A.763.763,0,0,0,156.2,21v-.26a1.275,1.275,0,0,1-1,.49,1.5,1.5,0,0,1-1.492-1.709,1.5,1.5,0,0,1,1.492-1.7,1.243,1.243,0,0,1,1,.484v-.4h1.073v3.081c0,1.38-1.093,1.674-1.934,1.674a2.231,2.231,0,0,1-1.5-.5Zm1.89-2.312a.869.869,0,0,0-.643-.3.753.753,0,0,0,0,1.506.866.866,0,0,0,.643-.3Z" transform="translate(0 -1.554)"/>
      <path d="M160.125,20.953a1.4,1.4,0,0,1-1.051.42,1.118,1.118,0,0,1-1.163-1.114,1.044,1.044,0,0,1,1.163-1.065,1.354,1.354,0,0,1,1.051.393V19.16c0-.3-.253-.491-.687-.491a1.516,1.516,0,0,0-.959.357l-.385-.678a2.378,2.378,0,0,1,1.533-.526c.812,0,1.576.3,1.576,1.352v2.115h-1.078Zm0-.834a.77.77,0,0,0-.6-.238c-.287,0-.539.126-.539.392s.252.392.539.392a.751.751,0,0,0,.6-.245Z" transform="translate(0 -1.554)"/>
      <path d="M162.056,17.906h1.078v.427a1.477,1.477,0,0,1,1.057-.511v1.043a.9.9,0,0,0-.265-.035,1.074,1.074,0,0,0-.792.316v2.143h-1.078Z" transform="translate(0 -1.554)"/>
      <path d="M167.026,20.9a1.288,1.288,0,0,1-1,.477c-.834,0-1.5-.631-1.5-1.779a1.566,1.566,0,0,1,1.5-1.772,1.253,1.253,0,0,1,1,.484V16.617H168.1v4.672h-1.073Zm0-1.821a.883.883,0,0,0-.65-.3.827.827,0,0,0,0,1.646.886.886,0,0,0,.65-.308Z" transform="translate(0 -1.554)"/>
      <path d="M168.881,16.862a.616.616,0,1,1,.616.617A.612.612,0,0,1,168.881,16.862Zm.077,1.044h1.078v3.383h-1.078Z" transform="translate(0 -1.554)"/>
      <path d="M173.18,19.335a.49.49,0,0,0-.554-.561.832.832,0,0,0-.658.33v2.185H170.89V17.906h1.078v.413a1.529,1.529,0,0,1,1.17-.5,1,1,0,0,1,1.12,1.072v2.4H173.18Z" transform="translate(0 -1.554)"/>
      <path d="M175.488,21.387a1.368,1.368,0,0,0,1.03.392.763.763,0,0,0,.861-.777v-.26a1.275,1.275,0,0,1-1,.49,1.5,1.5,0,0,1-1.492-1.709,1.5,1.5,0,0,1,1.492-1.7,1.245,1.245,0,0,1,1,.484v-.4h1.072v3.081c0,1.38-1.093,1.674-1.933,1.674a2.231,2.231,0,0,1-1.5-.5Zm1.891-2.312a.87.87,0,0,0-.644-.3.753.753,0,0,0,0,1.506.866.866,0,0,0,.644-.3Z" transform="translate(0 -1.554)"/>
      <path d="M2.753,29.883a1.542,1.542,0,0,1-1.17.49A.982.982,0,0,1,.47,29.315V26.906H1.548v1.968c0,.406.21.546.56.546a.809.809,0,0,0,.645-.329V26.906H3.831v3.383H2.753Z" transform="translate(0 -1.554)"/>
      <path d="M4.907,29.378V27.845h-.56v-.939h.56v-.925H5.979v.925h.686v.939H5.979v1.232a.306.306,0,0,0,.3.343.422.422,0,0,0,.274-.084l.21.812a1.181,1.181,0,0,1-.8.225C5.278,30.373,4.907,30.029,4.907,29.378Z" transform="translate(0 -1.554)"/>
      <path d="M7.2,25.862a.617.617,0,1,1,.616.617A.613.613,0,0,1,7.2,25.862Zm.077,1.044H8.352v3.383H7.273Z" transform="translate(0 -1.554)"/>
      <path d="M9.205,25.617h1.078v4.672H9.205Z" transform="translate(0 -1.554)"/>
      <path d="M11.061,25.862a.616.616,0,1,1,.616.617A.612.612,0,0,1,11.061,25.862Zm.077,1.044h1.078v3.383H11.138Z" transform="translate(0 -1.554)"/>
      <path d="M13.293,29.378V27.845h-.561v-.939h.561v-.925h1.071v.925h.687v.939h-.687v1.232a.307.307,0,0,0,.3.343.419.419,0,0,0,.273-.084l.21.812a1.176,1.176,0,0,1-.8.225C13.664,30.373,13.293,30.029,13.293,29.378Z" transform="translate(0 -1.554)"/>
      <path d="M16.009,30.709c.245,0,.4-.049.455-.189l.077-.182L15.2,26.906h1.135l.764,2.143.77-2.143h1.142l-1.528,3.866a1.34,1.34,0,0,1-1.428.889,2.125,2.125,0,0,1-.462-.056l.154-.959A.594.594,0,0,0,16.009,30.709Z" transform="translate(0 -1.554)"/>
      <path d="M21.259,31.577V26.906h1.078V27.3a1.263,1.263,0,0,1,1-.476c.847,0,1.484.63,1.484,1.772s-.637,1.779-1.484,1.779a1.256,1.256,0,0,1-1-.483v1.687Zm1.722-3.8a.859.859,0,0,0-.644.309v1.029a.886.886,0,0,0,.644.308.827.827,0,0,0,0-1.646Z" transform="translate(0 -1.554)"/>
      <path d="M27.455,29.953a1.4,1.4,0,0,1-1.051.42,1.118,1.118,0,0,1-1.163-1.114A1.044,1.044,0,0,1,26.4,28.194a1.352,1.352,0,0,1,1.051.393V28.16c0-.3-.253-.491-.686-.491a1.516,1.516,0,0,0-.96.357l-.385-.678a2.378,2.378,0,0,1,1.533-.526c.813,0,1.576.3,1.576,1.352v2.115H27.455Zm0-.834a.769.769,0,0,0-.6-.238c-.288,0-.54.126-.54.392s.252.392.54.392a.75.75,0,0,0,.6-.245Z" transform="translate(0 -1.554)"/>
      <path d="M29.735,30.709c.245,0,.4-.049.455-.189l.078-.182-1.345-3.432h1.135l.763,2.143.771-2.143h1.141l-1.527,3.866a1.341,1.341,0,0,1-1.429.889,2.139,2.139,0,0,1-.462-.056l.155-.959A.59.59,0,0,0,29.735,30.709Z" transform="translate(0 -1.554)"/>
      <path d="M37.389,28.229a.408.408,0,0,0-.449-.455.784.784,0,0,0-.609.33v2.185H35.253v-2.06a.4.4,0,0,0-.448-.455.794.794,0,0,0-.6.33v2.185H33.124V26.906H34.2v.413a1.5,1.5,0,0,1,1.113-.5.917.917,0,0,1,.96.6,1.459,1.459,0,0,1,1.17-.6.914.914,0,0,1,1.016,1.016v2.451H37.389Z" transform="translate(0 -1.554)"/>
      <path d="M40.9,26.822a1.722,1.722,0,0,1,1.73,1.884v.232H40.216a.806.806,0,0,0,.861.6,1.338,1.338,0,0,0,.826-.287l.455.673a2.205,2.205,0,0,1-1.414.448,1.776,1.776,0,1,1-.049-3.551ZM40.2,28.236H41.6a.65.65,0,0,0-.7-.581A.669.669,0,0,0,40.2,28.236Z" transform="translate(0 -1.554)"/>
      <path d="M45.515,28.335a.49.49,0,0,0-.554-.561.832.832,0,0,0-.658.33v2.185H43.225V26.906H44.3v.413a1.529,1.529,0,0,1,1.17-.5,1,1,0,0,1,1.12,1.072v2.4H45.515Z" transform="translate(0 -1.554)"/>
      <path d="M47.67,29.378V27.845h-.561v-.939h.561v-.925h1.071v.925h.687v.939h-.687v1.232a.307.307,0,0,0,.3.343.419.419,0,0,0,.273-.084l.21.812a1.176,1.176,0,0,1-.8.225C48.041,30.373,47.67,30.029,47.67,29.378Z" transform="translate(0 -1.554)"/>
      <path d="M50.2,29.112a2.109,2.109,0,0,0,1.191.449c.322,0,.455-.106.455-.252,0-.176-.232-.239-.581-.3-.574-.1-1.387-.217-1.387-1.078,0-.6.511-1.114,1.449-1.114a2.375,2.375,0,0,1,1.415.449l-.413.713a1.514,1.514,0,0,0-.995-.371c-.252,0-.427.084-.427.232s.182.21.539.272c.575.1,1.429.238,1.429,1.135,0,.644-.567,1.121-1.541,1.121a2.513,2.513,0,0,1-1.582-.519Z" transform="translate(0 -1.554)"/>
      <path d="M54.04,26.857a.659.659,0,1,1-.658.659A.667.667,0,0,1,54.04,26.857Zm0,2.2a.658.658,0,1,1-.658.658A.666.666,0,0,1,54.04,29.057Z" transform="translate(0 -1.554)"/>
      <path d="M57.2,27.957a2.333,2.333,0,0,1,2.381-2.417,2.1,2.1,0,0,1,1.793.925l-.49.273a1.585,1.585,0,0,0-1.3-.679,1.9,1.9,0,0,0,0,3.795,1.567,1.567,0,0,0,1.3-.679l.5.273a2.124,2.124,0,0,1-1.8.925A2.332,2.332,0,0,1,57.2,27.957Z" transform="translate(0 -1.554)"/>
      <path d="M61.978,28.594a1.677,1.677,0,1,1,1.673,1.779A1.659,1.659,0,0,1,61.978,28.594Zm2.794,0A1.138,1.138,0,1,0,63.651,29.9,1.176,1.176,0,0,0,64.772,28.594Z" transform="translate(0 -1.554)"/>
      <path d="M68.53,28.075c0-.595-.3-.784-.757-.784a1.307,1.307,0,0,0-1,.525v2.473h-.525V26.906h.525v.49a1.681,1.681,0,0,1,1.2-.574.961.961,0,0,1,1.079,1.092v2.375H68.53Z" transform="translate(0 -1.554)"/>
      <path d="M70.152,29.462a1.533,1.533,0,0,0,1.115.483c.517,0,.8-.23.8-.559,0-.372-.413-.49-.868-.6-.574-.133-1.225-.287-1.225-.987,0-.525.455-.974,1.26-.974a1.712,1.712,0,0,1,1.254.49l-.245.365a1.32,1.32,0,0,0-1.009-.428c-.462,0-.75.21-.75.512,0,.329.386.433.828.539.587.133,1.267.3,1.267,1.051,0,.567-.455,1.022-1.331,1.022a1.8,1.8,0,0,1-1.365-.532Z" transform="translate(0 -1.554)"/>
      <path d="M75.782,29.812a1.655,1.655,0,0,1-1.2.561A.952.952,0,0,1,73.5,29.294V26.906h.525v2.227c0,.6.3.77.756.77a1.3,1.3,0,0,0,1-.51V26.906h.526v3.383h-.526Z" transform="translate(0 -1.554)"/>
      <path d="M81.509,27.991c0-.427-.19-.7-.623-.7a1.181,1.181,0,0,0-.9.519v2.479h-.525v-2.3c0-.427-.183-.7-.623-.7a1.181,1.181,0,0,0-.89.525v2.473h-.525V26.906h.525v.49a1.462,1.462,0,0,1,1.093-.574.869.869,0,0,1,.91.63,1.429,1.429,0,0,1,1.135-.63c.616,0,.945.343.945,1.023v2.444h-.525Z" transform="translate(0 -1.554)"/>
      <path d="M84.623,26.822a1.643,1.643,0,0,1,1.625,1.814v.133H83.51a1.192,1.192,0,0,0,1.219,1.169,1.479,1.479,0,0,0,1.042-.426l.252.342a1.836,1.836,0,0,1-1.344.519,1.778,1.778,0,0,1-.056-3.551ZM83.51,28.384h2.219a1.1,1.1,0,0,0-1.113-1.128A1.128,1.128,0,0,0,83.51,28.384Z" transform="translate(0 -1.554)"/>
      <path d="M87.163,26.906h.525v.546a1.439,1.439,0,0,1,1.127-.616v.539a.919.919,0,0,0-.21-.021,1.237,1.237,0,0,0-.917.54v2.4h-.525Z" transform="translate(0 -1.554)"/>
      <path d="M89.521,29.462a1.533,1.533,0,0,0,1.115.483c.517,0,.8-.23.8-.559,0-.372-.413-.49-.869-.6-.574-.133-1.225-.287-1.225-.987,0-.525.455-.974,1.261-.974a1.711,1.711,0,0,1,1.253.49l-.245.365a1.319,1.319,0,0,0-1.008-.428c-.463,0-.75.21-.75.512,0,.329.385.433.827.539.588.133,1.267.3,1.267,1.051,0,.567-.455,1.022-1.331,1.022a1.8,1.8,0,0,1-1.365-.532Z" transform="translate(0 -1.554)"/>
      <path d="M94.765,25.617h3.061v.519H95.347v1.506h2.429v.518H95.347v1.611h2.479v.518H94.765Z" transform="translate(0 -1.554)"/>
      <path d="M101.08,28.075c0-.595-.3-.784-.757-.784a1.307,1.307,0,0,0-1,.525v2.473H98.8V26.906h.525v.49a1.679,1.679,0,0,1,1.2-.574.961.961,0,0,1,1.079,1.092v2.375h-.525Z" transform="translate(0 -1.554)"/>
      <path d="M104.194,26.822a1.643,1.643,0,0,1,1.625,1.814v.133h-2.738a1.192,1.192,0,0,0,1.219,1.169,1.481,1.481,0,0,0,1.043-.426l.252.342a1.838,1.838,0,0,1-1.345.519,1.778,1.778,0,0,1-.056-3.551Zm-1.113,1.562h2.22a1.1,1.1,0,0,0-1.113-1.128A1.128,1.128,0,0,0,103.081,28.384Z" transform="translate(0 -1.554)"/>
      <path d="M106.734,26.906h.526v.546a1.436,1.436,0,0,1,1.127-.616v.539a.925.925,0,0,0-.21-.021,1.233,1.233,0,0,0-.917.54v2.4h-.526Z" transform="translate(0 -1.554)"/>
      <path d="M109.373,30.765a1.29,1.29,0,0,0,1.1.463.97.97,0,0,0,1.086-1.016v-.483a1.418,1.418,0,0,1-1.135.6,1.54,1.54,0,0,1-1.506-1.751c0-1.086.616-1.758,1.506-1.758a1.4,1.4,0,0,1,1.135.6v-.511h.525V30.19c0,1.122-.784,1.471-1.611,1.471a1.726,1.726,0,0,1-1.366-.5Zm2.186-2.927a1.247,1.247,0,0,0-1.009-.547c-.68,0-1.086.539-1.086,1.289s.406,1.288,1.086,1.288a1.255,1.255,0,0,0,1.009-.553Z" transform="translate(0 -1.554)"/>
      <path d="M113.384,31.192a.487.487,0,0,0,.5-.357l.223-.511L112.7,26.906h.567l1.128,2.774,1.121-2.774h.574l-1.695,4.07a1,1,0,0,1-1,.685,1.649,1.649,0,0,1-.385-.049l.084-.475A.827.827,0,0,0,113.384,31.192Z" transform="translate(0 -1.554)"/>
      <path d="M120.861,28.075c0-.595-.3-.784-.757-.784a1.3,1.3,0,0,0-1,.525v2.473h-.526V26.906h.526v.49a1.677,1.677,0,0,1,1.2-.574.961.961,0,0,1,1.079,1.092v2.375h-.526Z" transform="translate(0 -1.554)"/>
      <path d="M123.977,26.822a1.643,1.643,0,0,1,1.625,1.814v.133h-2.739a1.192,1.192,0,0,0,1.219,1.169,1.481,1.481,0,0,0,1.043-.426l.252.342a1.838,1.838,0,0,1-1.345.519,1.778,1.778,0,0,1-.055-3.551Zm-1.114,1.562h2.22a1.1,1.1,0,0,0-1.113-1.128A1.128,1.128,0,0,0,122.863,28.384Z" transform="translate(0 -1.554)"/>
      <path d="M126.013,26.906h.566l1.128,2.774,1.121-2.774h.574l-1.408,3.383h-.574Z" transform="translate(0 -1.554)"/>
      <path d="M131.487,26.822a1.643,1.643,0,0,1,1.625,1.814v.133h-2.738a1.192,1.192,0,0,0,1.219,1.169,1.481,1.481,0,0,0,1.043-.426l.252.342a1.838,1.838,0,0,1-1.345.519,1.778,1.778,0,0,1-.056-3.551Zm-1.113,1.562h2.22a1.1,1.1,0,0,0-1.114-1.128A1.128,1.128,0,0,0,130.374,28.384Z" transform="translate(0 -1.554)"/>
      <path d="M134.027,26.906h.526v.546a1.436,1.436,0,0,1,1.127-.616v.539a.925.925,0,0,0-.21-.021,1.233,1.233,0,0,0-.917.54v2.4h-.526Z" transform="translate(0 -1.554)"/>
      <path d="M140.734,29.784a1.422,1.422,0,0,1-1.141.589c-.883,0-1.506-.673-1.506-1.772,0-1.079.616-1.779,1.506-1.779a1.414,1.414,0,0,1,1.141.6v-1.8h.526v4.672h-.526Zm0-1.946a1.267,1.267,0,0,0-1.015-.547c-.68,0-1.086.561-1.086,1.31s.406,1.3,1.086,1.3a1.258,1.258,0,0,0,1.015-.532Z" transform="translate(0 -1.554)"/>
      <path d="M143.849,26.822a1.643,1.643,0,0,1,1.625,1.814v.133h-2.739a1.192,1.192,0,0,0,1.219,1.169A1.481,1.481,0,0,0,145,29.512l.252.342a1.838,1.838,0,0,1-1.345.519,1.778,1.778,0,0,1-.055-3.551Zm-1.114,1.562h2.22a1.1,1.1,0,0,0-1.113-1.128A1.128,1.128,0,0,0,142.735,28.384Z" transform="translate(0 -1.554)"/>
      <path d="M150.472,27.991c0-.427-.19-.7-.623-.7a1.181,1.181,0,0,0-.9.519v2.479h-.525v-2.3c0-.427-.183-.7-.623-.7a1.181,1.181,0,0,0-.89.525v2.473h-.525V26.906h.525v.49a1.462,1.462,0,0,1,1.093-.574.87.87,0,0,1,.91.63,1.428,1.428,0,0,1,1.135-.63c.616,0,.945.343.945,1.023v2.444h-.525Z" transform="translate(0 -1.554)"/>
      <path d="M154.23,29.9a1.462,1.462,0,0,1-1.121.47,1.127,1.127,0,0,1-1.183-1.121,1.107,1.107,0,0,1,1.183-1.113,1.414,1.414,0,0,1,1.121.462v-.61c0-.455-.364-.714-.854-.714a1.346,1.346,0,0,0-1.037.469l-.245-.364a1.772,1.772,0,0,1,1.352-.56c.714,0,1.31.323,1.31,1.142v2.325h-.526Zm0-.965a1.13,1.13,0,0,0-.931-.421.744.744,0,1,0,0,1.478,1.133,1.133,0,0,0,.931-.421Z" transform="translate(0 -1.554)"/>
      <path d="M158.157,28.075c0-.595-.3-.784-.757-.784a1.307,1.307,0,0,0-1,.525v2.473h-.525V26.906h.525v.49a1.681,1.681,0,0,1,1.205-.574.961.961,0,0,1,1.079,1.092v2.375h-.526Z" transform="translate(0 -1.554)"/>
      <path d="M162.252,29.784a1.422,1.422,0,0,1-1.142.589c-.882,0-1.506-.673-1.506-1.772a1.569,1.569,0,0,1,1.506-1.779,1.415,1.415,0,0,1,1.142.6v-1.8h.525v4.672h-.525Zm0-1.946a1.271,1.271,0,0,0-1.016-.547c-.679,0-1.086.561-1.086,1.31s.407,1.3,1.086,1.3a1.261,1.261,0,0,0,1.016-.532Z" transform="translate(0 -1.554)"/>
      <path d="M163.874,29.462a1.53,1.53,0,0,0,1.114.483c.518,0,.8-.23.8-.559,0-.372-.413-.49-.868-.6-.574-.133-1.226-.287-1.226-.987,0-.525.455-.974,1.261-.974a1.713,1.713,0,0,1,1.254.49l-.245.365a1.318,1.318,0,0,0-1.009-.428c-.462,0-.75.21-.75.512,0,.329.386.433.827.539.588.133,1.268.3,1.268,1.051,0,.567-.455,1.022-1.331,1.022a1.8,1.8,0,0,1-1.365-.532Z" transform="translate(0 -1.554)"/>
      <path d="M.6,40.577V35.906h.525v.5a1.414,1.414,0,0,1,1.142-.588c.889,0,1.505.672,1.505,1.772s-.616,1.779-1.5,1.779a1.386,1.386,0,0,1-1.142-.6v1.8Zm1.534-4.286a1.25,1.25,0,0,0-1.009.539v1.527a1.256,1.256,0,0,0,1.009.546c.678,0,1.085-.559,1.085-1.309S2.815,36.291,2.137,36.291Z" transform="translate(0 -1.554)"/>
      <path d="M6.806,38.9a1.463,1.463,0,0,1-1.121.47A1.127,1.127,0,0,1,4.5,38.252a1.108,1.108,0,0,1,1.184-1.113,1.417,1.417,0,0,1,1.121.462v-.61c0-.455-.365-.714-.855-.714a1.346,1.346,0,0,0-1.037.469l-.245-.364a1.772,1.772,0,0,1,1.352-.56c.714,0,1.31.323,1.31,1.142v2.325H6.806Zm0-.965a1.132,1.132,0,0,0-.932-.421.744.744,0,1,0,0,1.478,1.135,1.135,0,0,0,.932-.421Z" transform="translate(0 -1.554)"/>
      <path d="M8.631,40.192a.487.487,0,0,0,.5-.357l.223-.511L7.945,35.906h.567L9.64,38.68l1.121-2.774h.574l-1.7,4.07a1,1,0,0,1-.994.685,1.651,1.651,0,0,1-.386-.049l.084-.475A.827.827,0,0,0,8.631,40.192Z" transform="translate(0 -1.554)"/>
      <path d="M16.032,36.991c0-.427-.189-.7-.623-.7a1.181,1.181,0,0,0-.9.519v2.479h-.526v-2.3c0-.427-.182-.7-.623-.7a1.179,1.179,0,0,0-.889.525v2.473h-.526V35.906h.526v.49a1.458,1.458,0,0,1,1.092-.574.87.87,0,0,1,.911.63,1.426,1.426,0,0,1,1.134-.63c.617,0,.946.343.946,1.023v2.444h-.526Z" transform="translate(0 -1.554)"/>
      <path d="M19.146,35.822a1.643,1.643,0,0,1,1.625,1.814v.133H18.033a1.192,1.192,0,0,0,1.219,1.169,1.481,1.481,0,0,0,1.043-.426l.252.342a1.838,1.838,0,0,1-1.345.519,1.778,1.778,0,0,1-.056-3.551Zm-1.113,1.562h2.22a1.1,1.1,0,0,0-1.113-1.128A1.128,1.128,0,0,0,18.033,37.384Z" transform="translate(0 -1.554)"/>
      <path d="M23.97,37.075c0-.6-.3-.784-.757-.784a1.305,1.305,0,0,0-1,.525v2.473h-.525V35.906h.525v.49a1.677,1.677,0,0,1,1.2-.574A.961.961,0,0,1,24.5,36.914v2.375H23.97Z" transform="translate(0 -1.554)"/>
      <path d="M25.718,38.581V36.368h-.56v-.462h.56v-.925h.525v.925h.687v.462h-.687v2.1c0,.252.112.433.344.433a.508.508,0,0,0,.357-.139l.154.391a.856.856,0,0,1-.63.218A.693.693,0,0,1,25.718,38.581Z" transform="translate(0 -1.554)"/>
      <path d="M31.9,38.812a1.653,1.653,0,0,1-1.2.561.952.952,0,0,1-1.078-1.079V35.906h.526v2.227c0,.6.3.77.755.77a1.3,1.3,0,0,0,1-.51V35.906h.526v3.383H31.9Z" transform="translate(0 -1.554)"/>
      <path d="M33.522,38.462a1.533,1.533,0,0,0,1.115.483c.517,0,.8-.23.8-.559,0-.372-.414-.49-.869-.6-.574-.133-1.225-.287-1.225-.987,0-.525.455-.974,1.261-.974a1.711,1.711,0,0,1,1.253.49l-.245.365a1.318,1.318,0,0,0-1.008-.428c-.462,0-.75.21-.75.512,0,.329.385.433.827.539.588.133,1.267.3,1.267,1.051,0,.567-.455,1.022-1.331,1.022a1.8,1.8,0,0,1-1.365-.532Z" transform="translate(0 -1.554)"/>
      <path d="M36.778,34.981a.354.354,0,0,1,.707,0,.354.354,0,1,1-.707,0Zm.091.925H37.4v3.383h-.526Z" transform="translate(0 -1.554)"/>
      <path d="M40.8,37.075c0-.6-.3-.784-.757-.784a1.305,1.305,0,0,0-1,.525v2.473h-.525V35.906h.525v.49a1.677,1.677,0,0,1,1.2-.574.961.961,0,0,1,1.079,1.092v2.375H40.8Z" transform="translate(0 -1.554)"/>
      <path d="M42.7,39.765a1.29,1.29,0,0,0,1.1.463.97.97,0,0,0,1.086-1.016v-.483a1.415,1.415,0,0,1-1.135.6,1.54,1.54,0,0,1-1.506-1.751c0-1.086.616-1.758,1.506-1.758a1.4,1.4,0,0,1,1.135.595v-.511h.525V39.19c0,1.122-.784,1.471-1.611,1.471a1.724,1.724,0,0,1-1.365-.5Zm2.186-2.927a1.247,1.247,0,0,0-1.009-.547c-.68,0-1.086.539-1.086,1.289s.406,1.288,1.086,1.288a1.255,1.255,0,0,0,1.009-.553Z" transform="translate(0 -1.554)"/>
      <path d="M48.209,37.594a1.677,1.677,0,1,1,1.674,1.779A1.66,1.66,0,0,1,48.209,37.594Zm2.795,0A1.138,1.138,0,1,0,49.883,38.9,1.176,1.176,0,0,0,51,37.594Z" transform="translate(0 -1.554)"/>
      <path d="M54.762,37.075c0-.6-.3-.784-.757-.784a1.305,1.305,0,0,0-1,.525v2.473h-.525V35.906H53v.49a1.677,1.677,0,0,1,1.2-.574.961.961,0,0,1,1.079,1.092v2.375h-.525Z" transform="translate(0 -1.554)"/>
      <path d="M56.406,34.617h.526v4.672h-.526Z" transform="translate(0 -1.554)"/>
      <path d="M58.232,40.192a.487.487,0,0,0,.505-.357l.224-.511-1.414-3.418h.566l1.128,2.774,1.121-2.774h.575l-1.7,4.07a1,1,0,0,1-.994.685,1.665,1.665,0,0,1-.386-.049l.084-.475A.827.827,0,0,0,58.232,40.192Z" transform="translate(0 -1.554)"/>
      <path d="M65.542,38.9a1.462,1.462,0,0,1-1.121.47,1.128,1.128,0,0,1-1.184-1.121,1.108,1.108,0,0,1,1.184-1.113,1.414,1.414,0,0,1,1.121.462v-.61c0-.455-.364-.714-.854-.714a1.347,1.347,0,0,0-1.038.469l-.245-.364a1.774,1.774,0,0,1,1.353-.56c.714,0,1.309.323,1.309,1.142v2.325h-.525Zm0-.965a1.132,1.132,0,0,0-.932-.421.744.744,0,1,0,0,1.478,1.135,1.135,0,0,0,.932-.421Z" transform="translate(0 -1.554)"/>
      <path d="M69.062,40.577V35.906h.525v.5a1.414,1.414,0,0,1,1.142-.588c.889,0,1.5.672,1.5,1.772s-.616,1.779-1.5,1.779a1.386,1.386,0,0,1-1.142-.6v1.8ZM70.6,36.291a1.25,1.25,0,0,0-1.009.539v1.527A1.256,1.256,0,0,0,70.6,38.9c.678,0,1.085-.559,1.085-1.309S71.274,36.291,70.6,36.291Z" transform="translate(0 -1.554)"/>
      <path d="M73.149,35.906h.526v.546a1.436,1.436,0,0,1,1.127-.616v.539a.925.925,0,0,0-.21-.021,1.235,1.235,0,0,0-.917.54v2.4h-.526Z" transform="translate(0 -1.554)"/>
      <path d="M77,35.822a1.643,1.643,0,0,1,1.625,1.814v.133H75.887a1.191,1.191,0,0,0,1.218,1.169,1.479,1.479,0,0,0,1.043-.426l.252.342a1.837,1.837,0,0,1-1.344.519A1.778,1.778,0,0,1,77,35.822Zm-1.113,1.562h2.219a1.1,1.1,0,0,0-1.113-1.128A1.127,1.127,0,0,0,75.887,37.384Z" transform="translate(0 -1.554)"/>
      <path d="M79.54,40.577V35.906h.525v.5a1.415,1.415,0,0,1,1.142-.588c.89,0,1.506.672,1.506,1.772s-.616,1.779-1.506,1.779a1.387,1.387,0,0,1-1.142-.6v1.8Zm1.534-4.286a1.25,1.25,0,0,0-1.009.539v1.527a1.256,1.256,0,0,0,1.009.546c.679,0,1.085-.559,1.085-1.309S81.753,36.291,81.074,36.291Z" transform="translate(0 -1.554)"/>
      <path d="M85.743,38.9a1.462,1.462,0,0,1-1.121.47,1.128,1.128,0,0,1-1.184-1.121,1.108,1.108,0,0,1,1.184-1.113,1.414,1.414,0,0,1,1.121.462v-.61c0-.455-.364-.714-.854-.714a1.344,1.344,0,0,0-1.037.469l-.246-.364a1.774,1.774,0,0,1,1.353-.56c.714,0,1.31.323,1.31,1.142v2.325h-.526Zm0-.965a1.13,1.13,0,0,0-.931-.421.744.744,0,1,0,0,1.478,1.133,1.133,0,0,0,.931-.421Z" transform="translate(0 -1.554)"/>
      <path d="M87.3,34.981a.354.354,0,0,1,.707,0,.354.354,0,1,1-.707,0Zm.091.925h.525v3.383h-.525Z" transform="translate(0 -1.554)"/>
      <path d="M91.483,38.784a1.422,1.422,0,0,1-1.141.589c-.883,0-1.506-.673-1.506-1.772,0-1.079.616-1.779,1.506-1.779a1.414,1.414,0,0,1,1.141.595v-1.8h.526v4.672h-.526Zm0-1.946a1.267,1.267,0,0,0-1.015-.547c-.68,0-1.086.561-1.086,1.31s.406,1.3,1.086,1.3a1.258,1.258,0,0,0,1.015-.532Z" transform="translate(0 -1.554)"/>
      <path d="M96.5,35.822a1.446,1.446,0,0,1,1.239.588l-.35.322a1,1,0,0,0-.862-.441,1.314,1.314,0,0,0,0,2.612,1.018,1.018,0,0,0,.862-.441l.35.322a1.444,1.444,0,0,1-1.239.589,1.778,1.778,0,0,1,0-3.551Z" transform="translate(0 -1.554)"/>
      <path d="M100.653,38.9a1.462,1.462,0,0,1-1.121.47,1.127,1.127,0,0,1-1.183-1.121,1.107,1.107,0,0,1,1.183-1.113,1.414,1.414,0,0,1,1.121.462v-.61c0-.455-.364-.714-.854-.714a1.345,1.345,0,0,0-1.037.469l-.245-.364a1.771,1.771,0,0,1,1.352-.56c.714,0,1.31.323,1.31,1.142v2.325h-.526Zm0-.965a1.13,1.13,0,0,0-.931-.421.744.744,0,1,0,0,1.478,1.133,1.133,0,0,0,.931-.421Z" transform="translate(0 -1.554)"/>
      <path d="M102.3,35.906h.525v.546a1.437,1.437,0,0,1,1.127-.616v.539a.919.919,0,0,0-.21-.021,1.237,1.237,0,0,0-.917.54v2.4H102.3Z" transform="translate(0 -1.554)"/>
      <path d="M107.128,38.784a1.422,1.422,0,0,1-1.142.589c-.882,0-1.506-.673-1.506-1.772a1.569,1.569,0,0,1,1.506-1.779,1.417,1.417,0,0,1,1.142.595v-1.8h.525v4.672h-.525Zm0-1.946a1.271,1.271,0,0,0-1.016-.547c-.679,0-1.086.561-1.086,1.31s.407,1.3,1.086,1.3a1.261,1.261,0,0,0,1.016-.532Z" transform="translate(0 -1.554)"/>
      <path d="M109.052,38.589a.385.385,0,1,1-.386.385A.388.388,0,0,1,109.052,38.589Z" transform="translate(0 -1.554)"/>
      <path d="M116.341,35.4l-1.59,3.888h-.237L112.931,35.4v3.888h-.582V34.617h.834l1.449,3.558,1.457-3.558h.834v4.672h-.582Z" transform="translate(0 -1.554)"/>
      <path d="M120.176,38.9a1.462,1.462,0,0,1-1.121.47,1.127,1.127,0,0,1-1.184-1.121,1.108,1.108,0,0,1,1.184-1.113,1.416,1.416,0,0,1,1.121.462v-.61c0-.455-.364-.714-.855-.714a1.346,1.346,0,0,0-1.037.469l-.245-.364a1.773,1.773,0,0,1,1.353-.56c.713,0,1.309.323,1.309,1.142v2.325h-.525Zm0-.965a1.132,1.132,0,0,0-.932-.421.744.744,0,1,0,0,1.478,1.135,1.135,0,0,0,.932-.421Z" transform="translate(0 -1.554)"/>
      <path d="M124.1,37.075c0-.6-.3-.784-.757-.784a1.305,1.305,0,0,0-1,.525v2.473h-.526V35.906h.526v.49a1.677,1.677,0,0,1,1.2-.574.961.961,0,0,1,1.079,1.092v2.375H124.1Z" transform="translate(0 -1.554)"/>
      <path d="M125.929,40.192a.488.488,0,0,0,.5-.357l.223-.511-1.414-3.418h.567l1.128,2.774,1.121-2.774h.574l-1.7,4.07a1,1,0,0,1-1,.685,1.649,1.649,0,0,1-.385-.049l.084-.475A.827.827,0,0,0,125.929,40.192Z" transform="translate(0 -1.554)"/>
      <path d="M130.926,37.594a1.677,1.677,0,1,1,1.674,1.779A1.659,1.659,0,0,1,130.926,37.594Zm2.8,0A1.138,1.138,0,1,0,132.6,38.9,1.176,1.176,0,0,0,133.721,37.594Z" transform="translate(0 -1.554)"/>
      <path d="M135.2,40.577V35.906h.526v.5a1.413,1.413,0,0,1,1.141-.588c.89,0,1.506.672,1.506,1.772s-.616,1.779-1.506,1.779a1.384,1.384,0,0,1-1.141-.6v1.8Zm1.534-4.286a1.247,1.247,0,0,0-1.008.539v1.527a1.253,1.253,0,0,0,1.008.546c.679,0,1.085-.559,1.085-1.309S137.409,36.291,136.73,36.291Z" transform="translate(0 -1.554)"/>
      <path d="M139.389,38.581V36.368h-.56v-.462h.56v-.925h.525v.925h.687v.462h-.687v2.1c0,.252.112.433.344.433a.508.508,0,0,0,.357-.139l.154.391a.856.856,0,0,1-.63.218A.693.693,0,0,1,139.389,38.581Z" transform="translate(0 -1.554)"/>
      <path d="M141.321,34.981a.354.354,0,0,1,.707,0,.354.354,0,1,1-.707,0Zm.091.925h.526v3.383h-.526Z" transform="translate(0 -1.554)"/>
      <path d="M142.861,37.594a1.677,1.677,0,1,1,1.674,1.779A1.66,1.66,0,0,1,142.861,37.594Zm2.8,0a1.138,1.138,0,1,0-1.121,1.309A1.176,1.176,0,0,0,145.656,37.594Z" transform="translate(0 -1.554)"/>
      <path d="M149.414,37.075c0-.6-.3-.784-.757-.784a1.307,1.307,0,0,0-1,.525v2.473h-.525V35.906h.525v.49a1.679,1.679,0,0,1,1.2-.574.961.961,0,0,1,1.079,1.092v2.375h-.525Z" transform="translate(0 -1.554)"/>
      <path d="M151.037,38.462a1.53,1.53,0,0,0,1.114.483c.518,0,.8-.23.8-.559,0-.372-.413-.49-.868-.6-.574-.133-1.226-.287-1.226-.987,0-.525.456-.974,1.261-.974a1.713,1.713,0,0,1,1.254.49l-.245.365a1.32,1.32,0,0,0-1.009-.428c-.463,0-.75.21-.75.512,0,.329.386.433.827.539.588.133,1.268.3,1.268,1.051,0,.567-.455,1.022-1.331,1.022a1.8,1.8,0,0,1-1.365-.532Z" transform="translate(0 -1.554)"/>
      <path d="M158.374,38.9a1.462,1.462,0,0,1-1.121.47,1.128,1.128,0,0,1-1.184-1.121,1.108,1.108,0,0,1,1.184-1.113,1.414,1.414,0,0,1,1.121.462v-.61c0-.455-.364-.714-.854-.714a1.347,1.347,0,0,0-1.038.469l-.245-.364a1.774,1.774,0,0,1,1.353-.56c.714,0,1.309.323,1.309,1.142v2.325h-.525Zm0-.965a1.132,1.132,0,0,0-.932-.421.744.744,0,1,0,0,1.478,1.135,1.135,0,0,0,.932-.421Z" transform="translate(0 -1.554)"/>
      <path d="M160.123,38.581V36.368h-.56v-.462h.56v-.925h.525v.925h.687v.462h-.687v2.1c0,.252.113.433.344.433a.511.511,0,0,0,.358-.139l.153.391a.854.854,0,0,1-.63.218A.693.693,0,0,1,160.123,38.581Z" transform="translate(0 -1.554)"/>
      <path d="M2.647,45.571l-.882,2.718H1.24L.161,44.906H.707l.827,2.7.89-2.7h.448l.889,2.7.827-2.7h.546L4.056,48.289H3.53Z" transform="translate(0 -1.554)"/>
      <path d="M7.855,45.571l-.882,2.718H6.448L5.369,44.906h.546l.827,2.7.89-2.7H8.08l.889,2.7.827-2.7h.546L9.264,48.289H8.738Z" transform="translate(0 -1.554)"/>
      <path d="M13.063,45.571l-.882,2.718h-.525l-1.079-3.383h.546l.827,2.7.89-2.7h.448l.889,2.7.827-2.7h.546l-1.078,3.383h-.526Z" transform="translate(0 -1.554)"/>
      <path d="M16.2,47.589a.385.385,0,1,1-.386.385A.388.388,0,0,1,16.2,47.589Z" transform="translate(0 -1.554)"/>
      <path d="M17.431,45.957a2.332,2.332,0,0,1,2.381-2.417,2.1,2.1,0,0,1,1.792.925l-.49.273a1.583,1.583,0,0,0-1.3-.679,1.9,1.9,0,0,0,0,3.8,1.566,1.566,0,0,0,1.3-.679l.5.273a2.123,2.123,0,0,1-1.8.925A2.331,2.331,0,0,1,17.431,45.957Z" transform="translate(0 -1.554)"/>
      <path d="M22.2,46.594a1.677,1.677,0,1,1,1.674,1.779A1.66,1.66,0,0,1,22.2,46.594Zm2.795,0A1.138,1.138,0,1,0,23.878,47.9,1.176,1.176,0,0,0,25,46.594Z" transform="translate(0 -1.554)"/>
      <path d="M28.758,46.075c0-.6-.3-.784-.757-.784a1.305,1.305,0,0,0-1,.525v2.473h-.525V44.906H27v.49a1.677,1.677,0,0,1,1.2-.574.961.961,0,0,1,1.079,1.092v2.375h-.525Z" transform="translate(0 -1.554)"/>
      <path d="M30.38,47.462a1.529,1.529,0,0,0,1.114.483c.518,0,.8-.23.8-.559,0-.372-.413-.49-.868-.6C30.85,46.65,30.2,46.5,30.2,45.8c0-.525.455-.974,1.261-.974a1.715,1.715,0,0,1,1.254.49l-.245.365a1.318,1.318,0,0,0-1.009-.428c-.462,0-.75.21-.75.512,0,.329.386.433.827.539.588.133,1.268.3,1.268,1.051,0,.567-.455,1.022-1.331,1.022a1.8,1.8,0,0,1-1.366-.532Z" transform="translate(0 -1.554)"/>
      <path d="M36.01,47.812a1.655,1.655,0,0,1-1.2.561.952.952,0,0,1-1.078-1.079V44.906h.525v2.227c0,.6.3.77.756.77a1.3,1.3,0,0,0,1-.51V44.906h.525v3.383H36.01Z" transform="translate(0 -1.554)"/>
      <path d="M41.736,45.991c0-.427-.189-.7-.623-.7a1.181,1.181,0,0,0-.9.519v2.479h-.526v-2.3c0-.427-.182-.7-.623-.7a1.179,1.179,0,0,0-.889.525v2.473h-.526V44.906h.526v.49a1.458,1.458,0,0,1,1.092-.574.87.87,0,0,1,.911.63,1.426,1.426,0,0,1,1.134-.63c.617,0,.946.343.946,1.023v2.444h-.526Z" transform="translate(0 -1.554)"/>
      <path d="M44.85,44.822a1.643,1.643,0,0,1,1.625,1.814v.133H43.736a1.192,1.192,0,0,0,1.219,1.169A1.481,1.481,0,0,0,46,47.512l.252.342a1.838,1.838,0,0,1-1.345.519,1.778,1.778,0,0,1-.055-3.551Zm-1.114,1.562h2.22a1.1,1.1,0,0,0-1.113-1.128A1.128,1.128,0,0,0,43.736,46.384Z" transform="translate(0 -1.554)"/>
      <path d="M47.391,44.906h.525v.546a1.436,1.436,0,0,1,1.127-.616v.539a.925.925,0,0,0-.21-.021,1.235,1.235,0,0,0-.917.54v2.4h-.525Z" transform="translate(0 -1.554)"/>
      <path d="M49.749,47.462a1.53,1.53,0,0,0,1.114.483c.518,0,.8-.23.8-.559,0-.372-.413-.49-.868-.6-.574-.133-1.226-.287-1.226-.987,0-.525.455-.974,1.261-.974a1.713,1.713,0,0,1,1.254.49l-.245.365a1.318,1.318,0,0,0-1.009-.428c-.462,0-.75.21-.75.512,0,.329.386.433.827.539.588.133,1.268.3,1.268,1.051,0,.567-.455,1.022-1.331,1.022a1.8,1.8,0,0,1-1.365-.532Z" transform="translate(0 -1.554)"/>
      <path d="M53.115,43.617h3.062v.519H53.7v1.506h2.43v.518H53.7v1.611h2.48v.518H53.115Z" transform="translate(0 -1.554)"/>
      <path d="M59.431,46.075c0-.6-.3-.784-.757-.784a1.305,1.305,0,0,0-1,.525v2.473h-.526V44.906h.526v.49a1.677,1.677,0,0,1,1.2-.574.961.961,0,0,1,1.079,1.092v2.375h-.525Z" transform="translate(0 -1.554)"/>
      <path d="M62.546,44.822a1.643,1.643,0,0,1,1.625,1.814v.133H61.433a1.191,1.191,0,0,0,1.218,1.169,1.479,1.479,0,0,0,1.043-.426l.252.342a1.837,1.837,0,0,1-1.344.519,1.778,1.778,0,0,1-.056-3.551Zm-1.113,1.562h2.219a1.1,1.1,0,0,0-1.113-1.128A1.127,1.127,0,0,0,61.433,46.384Z" transform="translate(0 -1.554)"/>
      <path d="M65.086,44.906h.525v.546a1.437,1.437,0,0,1,1.127-.616v.539a.919.919,0,0,0-.21-.021,1.237,1.237,0,0,0-.917.54v2.4h-.525Z" transform="translate(0 -1.554)"/>
      <path d="M67.725,48.765a1.289,1.289,0,0,0,1.1.463.969.969,0,0,0,1.086-1.016v-.483a1.415,1.415,0,0,1-1.135.6A1.54,1.54,0,0,1,67.27,46.58c0-1.086.616-1.758,1.505-1.758a1.4,1.4,0,0,1,1.135.595v-.511h.526V48.19c0,1.122-.785,1.471-1.612,1.471a1.724,1.724,0,0,1-1.365-.5Zm2.185-2.927a1.246,1.246,0,0,0-1.009-.547c-.679,0-1.086.539-1.086,1.289s.407,1.288,1.086,1.288a1.253,1.253,0,0,0,1.009-.553Z" transform="translate(0 -1.554)"/>
      <path d="M71.735,49.192a.487.487,0,0,0,.5-.357l.224-.511L71.05,44.906h.566l1.128,2.774,1.121-2.774h.574l-1.695,4.07a1,1,0,0,1-.994.685,1.665,1.665,0,0,1-.386-.049l.084-.475A.827.827,0,0,0,71.735,49.192Z" transform="translate(0 -1.554)"/>
      <path d="M74.935,47.589a.385.385,0,1,1-.386.385A.388.388,0,0,1,74.935,47.589Z" transform="translate(0 -1.554)"/>
      <path d="M77.778,44.822a1.448,1.448,0,0,1,1.24.588l-.351.322a1,1,0,0,0-.861-.441,1.314,1.314,0,0,0,0,2.612,1.017,1.017,0,0,0,.861-.441l.351.322a1.446,1.446,0,0,1-1.24.589,1.778,1.778,0,0,1,0-3.551Z" transform="translate(0 -1.554)"/>
      <path d="M79.624,46.594A1.677,1.677,0,1,1,81.3,48.373,1.66,1.66,0,0,1,79.624,46.594Zm2.8,0A1.138,1.138,0,1,0,81.3,47.9,1.176,1.176,0,0,0,82.419,46.594Z" transform="translate(0 -1.554)"/>
      <path d="M87.978,45.991c0-.427-.19-.7-.624-.7a1.181,1.181,0,0,0-.9.519v2.479h-.525v-2.3c0-.427-.183-.7-.623-.7a1.181,1.181,0,0,0-.89.525v2.473H83.9V44.906h.525v.49a1.462,1.462,0,0,1,1.093-.574.87.87,0,0,1,.91.63,1.426,1.426,0,0,1,1.135-.63c.616,0,.945.343.945,1.023v2.444h-.525Z" transform="translate(0 -1.554)"/>
      <path d="M90.755,43.478h.413l-1.66,4.951H89.1Z" transform="translate(0 -1.554)"/>
      <path d="M93.808,45.571l-.883,2.718H92.4l-1.079-3.383h.546l.827,2.7.89-2.7h.448l.889,2.7.827-2.7h.546l-1.078,3.383H94.69Z" transform="translate(0 -1.554)"/>
      <path d="M99.086,47.9a1.462,1.462,0,0,1-1.121.47,1.128,1.128,0,0,1-1.184-1.121,1.108,1.108,0,0,1,1.184-1.113,1.416,1.416,0,0,1,1.121.462v-.61c0-.455-.364-.714-.855-.714a1.346,1.346,0,0,0-1.037.469l-.245-.364a1.773,1.773,0,0,1,1.353-.56c.714,0,1.309.323,1.309,1.142v2.325h-.525Zm0-.965a1.132,1.132,0,0,0-.932-.421.744.744,0,1,0,0,1.478,1.135,1.135,0,0,0,.932-.421Z" transform="translate(0 -1.554)"/>
      <path d="M100.911,49.192a.487.487,0,0,0,.5-.357l.224-.511-1.414-3.418h.566l1.128,2.774,1.121-2.774h.574l-1.695,4.07a1,1,0,0,1-.994.685,1.658,1.658,0,0,1-.386-.049l.084-.475A.827.827,0,0,0,100.911,49.192Z" transform="translate(0 -1.554)"/>
      <path d="M104.334,47.581V45.368h-.56v-.462h.56v-.925h.525v.925h.687v.462h-.687v2.1c0,.252.113.433.344.433a.511.511,0,0,0,.358-.139l.153.391a.854.854,0,0,1-.63.218A.693.693,0,0,1,104.334,47.581Z" transform="translate(0 -1.554)"/>
      <path d="M106.161,46.594a1.677,1.677,0,1,1,1.674,1.779A1.66,1.66,0,0,1,106.161,46.594Zm2.8,0a1.138,1.138,0,1,0-1.121,1.309A1.176,1.176,0,0,0,108.956,46.594Z" transform="translate(0 -1.554)"/>
      <path d="M110.432,49.577V44.906h.525v.5a1.414,1.414,0,0,1,1.142-.588c.889,0,1.5.672,1.5,1.772s-.616,1.779-1.5,1.779a1.386,1.386,0,0,1-1.142-.6v1.8Zm1.534-4.286a1.25,1.25,0,0,0-1.009.539v1.527a1.256,1.256,0,0,0,1.009.546c.679,0,1.085-.559,1.085-1.309S112.645,45.291,111.966,45.291Z" transform="translate(0 -1.554)"/>
      <path d="M116.635,47.9a1.463,1.463,0,0,1-1.121.47,1.127,1.127,0,0,1-1.184-1.121,1.108,1.108,0,0,1,1.184-1.113,1.416,1.416,0,0,1,1.121.462v-.61c0-.455-.364-.714-.855-.714a1.346,1.346,0,0,0-1.037.469l-.245-.364a1.773,1.773,0,0,1,1.353-.56c.713,0,1.309.323,1.309,1.142v2.325h-.525Zm0-.965a1.132,1.132,0,0,0-.932-.421.744.744,0,1,0,0,1.478,1.135,1.135,0,0,0,.932-.421Z" transform="translate(0 -1.554)"/>
      <path d="M118.46,49.192a.487.487,0,0,0,.505-.357l.223-.511-1.414-3.418h.567l1.128,2.774,1.121-2.774h.574l-1.7,4.07a1,1,0,0,1-.994.685,1.658,1.658,0,0,1-.386-.049l.084-.475A.827.827,0,0,0,118.46,49.192Z" transform="translate(0 -1.554)"/>
    </g>
  </g>
</svg>
