<svg xmlns="http://www.w3.org/2000/svg" width="138.302" height="177.922" viewBox="0 0 138.302 177.922">
  <g>
    <g>
      <path d="M7.494,4.111,5,11.662H4.566L2.1,4.111v7.551H.98V2.318H2.535L4.791,9.169,7.06,2.318H8.587v9.344H7.494Z" transform="translate(0 -2.179)" fill="#0b79bf"/>
      <path d="M13.666,4.729c1.778,0,2.675,1.6,2.675,3.571v.308H11.957C12,9.967,12.7,10.989,13.9,10.989a2.087,2.087,0,0,0,1.611-.826l.532.588A2.814,2.814,0,0,1,13.82,11.83c-1.807,0-2.9-1.485-2.9-3.558C10.92,6.311,11.957,4.729,13.666,4.729ZM11.957,7.866h3.39c-.014-1.037-.462-2.3-1.7-2.3C12.461,5.568,11.985,6.871,11.957,7.866Z" transform="translate(0 -2.179)" fill="#0b79bf"/>
      <path d="M18.773,10.3V5.778h-.9V4.9h.9V3.047h1.009V4.9h1.149v.882H19.782v4.343c0,.519.155.813.547.813a.757.757,0,0,0,.588-.267l.309.757a1.458,1.458,0,0,1-1.093.406C19.208,11.83,18.773,11.312,18.773,10.3Z" transform="translate(0 -2.179)" fill="#0b79bf"/>
      <path d="M25.439,4.729c1.779,0,2.675,1.6,2.675,3.571v.308H23.73c.042,1.359.743,2.381,1.948,2.381a2.085,2.085,0,0,0,1.61-.826l.532.588a2.812,2.812,0,0,1-2.226,1.079c-1.808,0-2.9-1.485-2.9-3.558C22.693,6.311,23.73,4.729,25.439,4.729ZM23.73,7.866h3.39c-.014-1.037-.462-2.3-1.7-2.3C24.234,5.568,23.759,6.871,23.73,7.866Z" transform="translate(0 -2.179)" fill="#0b79bf"/>
      <path d="M30.353,4.9h.994V5.975a2.27,2.27,0,0,1,1.919-1.219V5.793a1.387,1.387,0,0,0-.336-.042,2.028,2.028,0,0,0-1.583,1.106v4.805h-.994Z" transform="translate(0 -2.179)" fill="#0b79bf"/>
      <path d="M39.031,2.318h1.121v9.344H39.031Z" transform="translate(0 -2.179)" fill="#0b79bf"/>
      <path d="M46.481,6.844c0-.9-.406-1.219-1.078-1.219A1.978,1.978,0,0,0,43.82,6.7v4.959h-.994V4.9h.994v.966a2.512,2.512,0,0,1,1.961-1.133c1.149,0,1.709.616,1.709,1.834v5.1H46.481Z" transform="translate(0 -2.179)" fill="#0b79bf"/>
      <path d="M50.344,5.778h-.9V4.9h.9V4.069A1.661,1.661,0,0,1,52,2.179a1.886,1.886,0,0,1,.868.2l-.237.784a.968.968,0,0,0-.448-.112c-.533,0-.827.364-.827,1.022V4.9H52.5v.882H51.352v5.884H50.344Z" transform="translate(0 -2.179)" fill="#0b79bf"/>
      <path d="M54.1,8.272c0-1.905.953-3.543,2.746-3.543,1.821,0,2.76,1.638,2.76,3.543s-.939,3.558-2.76,3.558C55.048,11.83,54.1,10.177,54.1,8.272Zm4.455,0c0-1.359-.519-2.647-1.709-2.647-1.163,0-1.7,1.288-1.7,2.647s.532,2.662,1.7,2.662C58.031,10.934,58.55,9.645,58.55,8.272Z" transform="translate(0 -2.179)" fill="#0b79bf"/>
      <path d="M61.88,4.9h.994V5.975a2.273,2.273,0,0,1,1.919-1.219V5.793a1.381,1.381,0,0,0-.336-.042,2.03,2.03,0,0,0-1.583,1.106v4.805H61.88Z" transform="translate(0 -2.179)" fill="#0b79bf"/>
      <path d="M73.559,6.759c0-.728-.294-1.134-.939-1.134A1.857,1.857,0,0,0,71.149,6.7v4.959H70.142v-4.9c0-.728-.3-1.134-.954-1.134A1.9,1.9,0,0,0,67.718,6.7v4.959h-.994V4.9h.994v.966a2.339,2.339,0,0,1,1.848-1.133,1.424,1.424,0,0,1,1.528,1.2A2.326,2.326,0,0,1,73,4.729c.994,0,1.568.545,1.568,1.764v5.169H73.559Z" transform="translate(0 -2.179)" fill="#0b79bf"/>
      <path d="M80.654,10.934a2.116,2.116,0,0,1-1.779.9A2.078,2.078,0,0,1,76.83,9.575a2.046,2.046,0,0,1,2.045-2.227,2.105,2.105,0,0,1,1.779.868V7.039A1.284,1.284,0,0,0,79.268,5.6a2.155,2.155,0,0,0-1.7.826l-.448-.714a3.1,3.1,0,0,1,2.3-.98,1.991,1.991,0,0,1,2.241,2.2v4.734H80.654Zm0-1.976A1.624,1.624,0,0,0,79.2,8.09a1.36,1.36,0,0,0-1.344,1.5A1.372,1.372,0,0,0,79.2,11.1a1.636,1.636,0,0,0,1.457-.855Z" transform="translate(0 -2.179)" fill="#0b79bf"/>
      <path d="M84.461,10.3V5.778h-.9V4.9h.9V3.047h1.008V4.9h1.148v.882H85.469v4.343c0,.519.154.813.547.813a.757.757,0,0,0,.588-.267l.308.757a1.455,1.455,0,0,1-1.093.406C84.9,11.83,84.461,11.312,84.461,10.3Z" transform="translate(0 -2.179)" fill="#0b79bf"/>
      <path d="M88.521,3.075a.7.7,0,0,1,.686-.686.687.687,0,1,1,0,1.373A.7.7,0,0,1,88.521,3.075Zm.2,1.821h.994v6.766h-.994Z" transform="translate(0 -2.179)" fill="#0b79bf"/>
      <path d="M91.991,8.272c0-1.905.953-3.543,2.746-3.543,1.822,0,2.76,1.638,2.76,3.543s-.938,3.558-2.76,3.558C92.944,11.83,91.991,10.177,91.991,8.272Zm4.455,0c0-1.359-.518-2.647-1.709-2.647-1.163,0-1.695,1.288-1.695,2.647s.532,2.662,1.695,2.662C95.928,10.934,96.446,9.645,96.446,8.272Z" transform="translate(0 -2.179)" fill="#0b79bf"/>
      <path d="M103.432,6.844c0-.9-.407-1.219-1.078-1.219A1.975,1.975,0,0,0,100.771,6.7v4.959h-1V4.9h1v.966a2.509,2.509,0,0,1,1.96-1.133c1.149,0,1.709.616,1.709,1.834v5.1h-1.008Z" transform="translate(0 -2.179)" fill="#0b79bf"/>
    </g>
    <g>
      <path d="M1.891,21.239.036,17.773h.8l1.414,2.773,1.413-2.773h.792L2.6,21.239v2.539H1.891Z" transform="translate(0 -2.179)" fill="#0b79bf"/>
      <path d="M4.536,21.6c0-1.225.612-2.279,1.765-2.279,1.17,0,1.773,1.054,1.773,2.279s-.6,2.286-1.773,2.286C5.148,23.886,4.536,22.824,4.536,21.6Zm2.863,0c0-.873-.333-1.7-1.1-1.7-.747,0-1.089.83-1.089,1.7s.342,1.71,1.089,1.71C7.066,23.31,7.4,22.481,7.4,21.6Z" transform="translate(0 -2.179)" fill="#0b79bf"/>
      <path d="M11.891,23.175a1.586,1.586,0,0,1-1.261.711c-.738,0-1.09-.369-1.09-1.161v-3.3h.64v3.106c0,.576.27.774.693.774a1.228,1.228,0,0,0,1.018-.675V19.43h.647v4.348h-.647Z" transform="translate(0 -2.179)" fill="#0b79bf"/>
      <path d="M14.22,19.43h.639v.693a1.461,1.461,0,0,1,1.234-.783v.666a.894.894,0,0,0-.216-.027,1.3,1.3,0,0,0-1.018.711v3.088H14.22Z" transform="translate(0 -2.179)" fill="#0b79bf"/>
      <path d="M22.114,20.682c0-.577-.261-.785-.693-.785a1.272,1.272,0,0,0-1.018.694v3.187h-.639V19.43H20.4v.621a1.616,1.616,0,0,1,1.261-.73c.738,0,1.1.4,1.1,1.18v3.277h-.648Z" transform="translate(0 -2.179)" fill="#0b79bf"/>
      <path d="M25.992,19.321c1.144,0,1.72,1.027,1.72,2.3v.2H24.894c.027.873.477,1.531,1.252,1.531a1.341,1.341,0,0,0,1.035-.532l.341.379a1.806,1.806,0,0,1-1.431.693c-1.161,0-1.863-.954-1.863-2.286C24.228,20.339,24.894,19.321,25.992,19.321Zm-1.1,2.017h2.178c-.009-.666-.3-1.476-1.089-1.476C25.218,19.862,24.912,20.7,24.894,21.338Z" transform="translate(0 -2.179)" fill="#0b79bf"/>
      <path d="M30.2,22.031l-1,1.747h-.72l1.324-2.215L28.557,19.43h.72l.927,1.656.928-1.656h.72L30.6,21.563l1.323,2.215H31.2Z" transform="translate(0 -2.179)" fill="#0b79bf"/>
      <path d="M33.246,22.905V20H32.67V19.43h.576V18.241h.648V19.43h.738V20h-.738v2.791c0,.333.1.522.351.522a.486.486,0,0,0,.378-.171l.2.486a.935.935,0,0,1-.7.261C33.524,23.886,33.246,23.553,33.246,22.905Z" transform="translate(0 -2.179)" fill="#0b79bf"/>
      <path d="M38.385,22.814a1.5,1.5,0,0,0,1.134.55c.5,0,.837-.27.837-.684,0-.468-.432-.658-.909-.856-.594-.233-1.26-.5-1.26-1.332a1.233,1.233,0,0,1,1.386-1.171,1.741,1.741,0,0,1,1.323.559l-.306.441a1.252,1.252,0,0,0-1.008-.477c-.478,0-.774.261-.774.612,0,.414.405.594.864.783.6.243,1.306.514,1.306,1.4a1.285,1.285,0,0,1-1.45,1.242,1.846,1.846,0,0,1-1.467-.612Z" transform="translate(0 -2.179)" fill="#0b79bf"/>
      <path d="M43.974,19.321a1.486,1.486,0,0,1,1.242.576l-.351.442a.98.98,0,0,0-.838-.442c-.774,0-1.178.775-1.178,1.7s.4,1.71,1.178,1.71a1,1,0,0,0,.838-.441l.351.441a1.463,1.463,0,0,1-1.242.576c-1.117,0-1.8-1-1.8-2.286S42.857,19.321,43.974,19.321Z" transform="translate(0 -2.179)" fill="#0b79bf"/>
      <path d="M48.9,20.672c0-.576-.27-.775-.7-.775a1.269,1.269,0,0,0-1.017.694v3.187h-.64v-6h.64v2.278a1.631,1.631,0,0,1,1.269-.73c.739,0,1.089.369,1.089,1.162v3.295H48.9Z" transform="translate(0 -2.179)" fill="#0b79bf"/>
      <path d="M52.767,19.321c1.143,0,1.719,1.027,1.719,2.3v.2H51.668c.027.873.478,1.531,1.252,1.531a1.338,1.338,0,0,0,1.035-.532l.342.379a1.809,1.809,0,0,1-1.432.693C51.7,23.886,51,22.932,51,21.6,51,20.339,51.668,19.321,52.767,19.321Zm-1.1,2.017h2.179c-.009-.666-.3-1.476-1.089-1.476C51.992,19.862,51.687,20.7,51.668,21.338Z" transform="translate(0 -2.179)" fill="#0b79bf"/>
      <path d="M58.41,23.157a1.357,1.357,0,0,1-1.143.729c-.973,0-1.558-.909-1.558-2.278,0-1.35.576-2.287,1.558-2.287a1.313,1.313,0,0,1,1.143.739V17.773h.649v6H58.41Zm0-2.548a1.164,1.164,0,0,0-.981-.712c-.711,0-1.044.766-1.044,1.711s.333,1.7,1.044,1.7a1.153,1.153,0,0,0,.981-.7Z" transform="translate(0 -2.179)" fill="#0b79bf"/>
      <path d="M63.091,23.175a1.586,1.586,0,0,1-1.261.711c-.738,0-1.09-.369-1.09-1.161v-3.3h.64v3.106c0,.576.27.774.693.774a1.228,1.228,0,0,0,1.018-.675V19.43h.647v4.348h-.647Z" transform="translate(0 -2.179)" fill="#0b79bf"/>
      <path d="M65.42,17.773h.64v6h-.64Z" transform="translate(0 -2.179)" fill="#0b79bf"/>
      <path d="M69.29,19.321c1.144,0,1.72,1.027,1.72,2.3v.2H68.191c.028.873.478,1.531,1.252,1.531a1.342,1.342,0,0,0,1.036-.532l.341.379a1.806,1.806,0,0,1-1.431.693c-1.161,0-1.864-.954-1.864-2.286C67.525,20.339,68.191,19.321,69.29,19.321Zm-1.1,2.017H70.37c-.009-.666-.3-1.476-1.089-1.476C68.516,19.862,68.21,20.7,68.191,21.338Z" transform="translate(0 -2.179)" fill="#0b79bf"/>
      <path d="M74.934,23.157a1.359,1.359,0,0,1-1.144.729c-.973,0-1.558-.909-1.558-2.278,0-1.35.577-2.287,1.558-2.287a1.314,1.314,0,0,1,1.144.739V17.773h.648v6h-.648Zm0-2.548a1.167,1.167,0,0,0-.982-.712c-.711,0-1.044.766-1.044,1.711s.333,1.7,1.044,1.7a1.155,1.155,0,0,0,.982-.7Z" transform="translate(0 -2.179)" fill="#0b79bf"/>
      <path d="M84.087,20.627c0-.468-.189-.73-.6-.73a1.192,1.192,0,0,0-.945.694v3.187h-.648V20.627c0-.468-.19-.73-.613-.73a1.221,1.221,0,0,0-.945.694v3.187h-.64V19.43h.64v.621a1.5,1.5,0,0,1,1.188-.73.917.917,0,0,1,.982.775,1.5,1.5,0,0,1,1.224-.775c.639,0,1.008.352,1.008,1.135v3.322h-.648Z" transform="translate(0 -2.179)" fill="#0b79bf"/>
      <path d="M87.965,19.321c1.143,0,1.72,1.027,1.72,2.3v.2H86.866c.028.873.478,1.531,1.252,1.531a1.338,1.338,0,0,0,1.035-.532l.342.379a1.808,1.808,0,0,1-1.432.693c-1.161,0-1.863-.954-1.863-2.286C86.2,20.339,86.866,19.321,87.965,19.321Zm-1.1,2.017h2.179c-.009-.666-.3-1.476-1.089-1.476C87.19,19.862,86.885,20.7,86.866,21.338Z" transform="translate(0 -2.179)" fill="#0b79bf"/>
      <path d="M91.25,22.905V20h-.576V19.43h.576V18.241H91.9V19.43h.739V20H91.9v2.791c0,.333.1.522.352.522a.486.486,0,0,0,.378-.171l.2.486a.935.935,0,0,1-.7.261C91.528,23.886,91.25,23.553,91.25,22.905Z" transform="translate(0 -2.179)" fill="#0b79bf"/>
      <path d="M95.534,19.321c1.144,0,1.72,1.027,1.72,2.3v.2H94.436c.027.873.477,1.531,1.252,1.531a1.341,1.341,0,0,0,1.035-.532l.341.379a1.806,1.806,0,0,1-1.431.693c-1.161,0-1.863-.954-1.863-2.286C93.77,20.339,94.436,19.321,95.534,19.321Zm-1.1,2.017h2.178c-.009-.666-.3-1.476-1.089-1.476C94.76,19.862,94.454,20.7,94.436,21.338Z" transform="translate(0 -2.179)" fill="#0b79bf"/>
      <path d="M98.692,19.43h.64v.693a1.458,1.458,0,0,1,1.233-.783v.666a.886.886,0,0,0-.215-.027,1.3,1.3,0,0,0-1.018.711v3.088h-.64Z" transform="translate(0 -2.179)" fill="#0b79bf"/>
      <path d="M104.235,19.43h.64v.693a1.458,1.458,0,0,1,1.233-.783v.666a.886.886,0,0,0-.215-.027,1.3,1.3,0,0,0-1.018.711v3.088h-.64Z" transform="translate(0 -2.179)" fill="#0b79bf"/>
      <path d="M108.9,19.321c1.144,0,1.72,1.027,1.72,2.3v.2H107.8c.027.873.477,1.531,1.252,1.531a1.34,1.34,0,0,0,1.035-.532l.342.379a1.809,1.809,0,0,1-1.432.693c-1.161,0-1.863-.954-1.863-2.286C107.134,20.339,107.8,19.321,108.9,19.321Zm-1.1,2.017h2.179c-.009-.666-.3-1.476-1.089-1.476C108.124,19.862,107.818,20.7,107.8,21.338Z" transform="translate(0 -2.179)" fill="#0b79bf"/>
      <path d="M114.29,23.31a1.36,1.36,0,0,1-1.144.576,1.335,1.335,0,0,1-1.314-1.449,1.315,1.315,0,0,1,1.314-1.432,1.358,1.358,0,0,1,1.144.558v-.755a.826.826,0,0,0-.892-.928,1.381,1.381,0,0,0-1.088.531l-.289-.459a1.993,1.993,0,0,1,1.476-.631,1.281,1.281,0,0,1,1.441,1.414v3.043h-.648Zm0-1.269a1.046,1.046,0,0,0-.936-.559.974.974,0,0,0,0,1.936,1.053,1.053,0,0,0,.936-.549Z" transform="translate(0 -2.179)" fill="#0b79bf"/>
      <path d="M119.1,23.157a1.359,1.359,0,0,1-1.144.729c-.973,0-1.557-.909-1.557-2.278,0-1.35.576-2.287,1.557-2.287a1.313,1.313,0,0,1,1.144.739V17.773h.648v6H119.1Zm0-2.548a1.165,1.165,0,0,0-.982-.712c-.711,0-1.044.766-1.044,1.711s.333,1.7,1.044,1.7a1.154,1.154,0,0,0,.982-.7Z" transform="translate(0 -2.179)" fill="#0b79bf"/>
      <path d="M3.079,33.957a1.359,1.359,0,0,1-1.143.729c-.973,0-1.558-.91-1.558-2.278,0-1.35.576-2.287,1.558-2.287a1.314,1.314,0,0,1,1.143.738V28.573h.649v6.005H3.079Zm0-2.548A1.164,1.164,0,0,0,2.1,30.7c-.711,0-1.044.766-1.044,1.711s.333,1.7,1.044,1.7a1.152,1.152,0,0,0,.981-.7Z" transform="translate(0 -2.179)" fill="#0b79bf"/>
      <path d="M7.643,34.109a1.361,1.361,0,0,1-1.144.577,1.336,1.336,0,0,1-1.314-1.45A1.315,1.315,0,0,1,6.5,31.805a1.36,1.36,0,0,1,1.144.558v-.756a.826.826,0,0,0-.892-.927,1.383,1.383,0,0,0-1.089.531l-.288-.459a1.987,1.987,0,0,1,1.476-.631,1.28,1.28,0,0,1,1.44,1.414v3.043H7.643Zm0-1.268a1.047,1.047,0,0,0-.937-.559.974.974,0,0,0,0,1.936,1.057,1.057,0,0,0,.937-.549Z" transform="translate(0 -2.179)" fill="#0b79bf"/>
      <path d="M10.09,33.705V30.8H9.514v-.568h.576V29.041h.647v1.188h.739V30.8h-.739v2.791c0,.333.1.521.352.521a.483.483,0,0,0,.378-.171l.2.487a.935.935,0,0,1-.7.261C10.368,34.686,10.09,34.353,10.09,33.705Z" transform="translate(0 -2.179)" fill="#0b79bf"/>
      <path d="M14.373,30.121c1.144,0,1.72,1.026,1.72,2.3v.2H13.274c.028.873.478,1.531,1.252,1.531a1.342,1.342,0,0,0,1.036-.532l.341.379a1.806,1.806,0,0,1-1.431.693c-1.161,0-1.864-.955-1.864-2.287C12.608,31.139,13.274,30.121,14.373,30.121Zm-1.1,2.017h2.179c-.009-.666-.3-1.476-1.089-1.476C13.6,30.662,13.293,31.5,13.274,32.138Z" transform="translate(0 -2.179)" fill="#0b79bf"/>
      <path d="M19.835,29.06a.448.448,0,0,1,.441-.442.441.441,0,1,1,0,.882A.447.447,0,0,1,19.835,29.06Zm.126,1.169h.64v4.349h-.64Z" transform="translate(0 -2.179)" fill="#0b79bf"/>
      <path d="M22.257,33.614a1.5,1.5,0,0,0,1.134.55c.505,0,.838-.27.838-.685,0-.467-.433-.657-.91-.855-.594-.233-1.26-.5-1.26-1.332a1.233,1.233,0,0,1,1.386-1.171,1.745,1.745,0,0,1,1.324.559l-.307.441a1.252,1.252,0,0,0-1.008-.477c-.477,0-.774.261-.774.612,0,.414.405.594.864.783.6.243,1.306.514,1.306,1.4a1.285,1.285,0,0,1-1.45,1.243,1.846,1.846,0,0,1-1.467-.612Z" transform="translate(0 -2.179)" fill="#0b79bf"/>
      <path d="M28.476,32.4c0-1.224.612-2.278,1.764-2.278,1.17,0,1.774,1.054,1.774,2.278s-.6,2.287-1.774,2.287C29.088,34.686,28.476,33.624,28.476,32.4Zm2.863,0c0-.873-.333-1.7-1.1-1.7-.747,0-1.089.829-1.089,1.7s.342,1.71,1.089,1.71C31.006,34.109,31.339,33.281,31.339,32.4Z" transform="translate(0 -2.179)" fill="#0b79bf"/>
      <path d="M35.83,31.481c0-.576-.262-.784-.693-.784a1.271,1.271,0,0,0-1.018.694v3.187h-.64V30.229h.64v.622a1.615,1.615,0,0,1,1.261-.73c.738,0,1.1.4,1.1,1.18v3.277H35.83Z" transform="translate(0 -2.179)" fill="#0b79bf"/>
      <path d="M40.373,32.4c0-1.224.612-2.278,1.765-2.278,1.171,0,1.773,1.054,1.773,2.278s-.6,2.287-1.773,2.287C40.985,34.686,40.373,33.624,40.373,32.4Zm2.863,0c0-.873-.333-1.7-1.1-1.7-.747,0-1.089.829-1.089,1.7s.342,1.71,1.089,1.71C42.9,34.109,43.236,33.281,43.236,32.4Z" transform="translate(0 -2.179)" fill="#0b79bf"/>
      <path d="M45.377,30.229h.64v.694a1.458,1.458,0,0,1,1.233-.783v.666a.9.9,0,0,0-.216-.028,1.3,1.3,0,0,0-1.017.712v3.088h-.64Z" transform="translate(0 -2.179)" fill="#0b79bf"/>
      <path d="M53.154,34.109a1.358,1.358,0,0,1-1.143.577,1.336,1.336,0,0,1-1.315-1.45,1.315,1.315,0,0,1,1.315-1.431,1.357,1.357,0,0,1,1.143.558v-.756a.825.825,0,0,0-.891-.927,1.381,1.381,0,0,0-1.089.531l-.288-.459a1.985,1.985,0,0,1,1.475-.631A1.281,1.281,0,0,1,53.8,31.535v3.043h-.648Zm0-1.268a1.045,1.045,0,0,0-.936-.559.974.974,0,0,0,0,1.936,1.054,1.054,0,0,0,.936-.549Z" transform="translate(0 -2.179)" fill="#0b79bf"/>
      <path d="M55.475,30.229h.639v.694a1.46,1.46,0,0,1,1.234-.783v.666a.9.9,0,0,0-.216-.028,1.3,1.3,0,0,0-1.018.712v3.088h-.639Z" transform="translate(0 -2.179)" fill="#0b79bf"/>
      <path d="M58.373,32.4c0-1.224.612-2.278,1.765-2.278,1.171,0,1.773,1.054,1.773,2.278s-.6,2.287-1.773,2.287C58.985,34.686,58.373,33.624,58.373,32.4Zm2.863,0c0-.873-.333-1.7-1.1-1.7-.747,0-1.089.829-1.089,1.7s.342,1.71,1.089,1.71C60.9,34.109,61.236,33.281,61.236,32.4Z" transform="translate(0 -2.179)" fill="#0b79bf"/>
      <path d="M65.727,33.975a1.586,1.586,0,0,1-1.261.711c-.738,0-1.09-.37-1.09-1.162v-3.3h.64v3.107c0,.576.27.773.693.773a1.227,1.227,0,0,0,1.018-.674V30.229h.647v4.349h-.647Z" transform="translate(0 -2.179)" fill="#0b79bf"/>
      <path d="M70.407,31.481c0-.576-.261-.784-.693-.784a1.272,1.272,0,0,0-1.018.694v3.187h-.639V30.229H68.7v.622a1.616,1.616,0,0,1,1.261-.73c.738,0,1.1.4,1.1,1.18v3.277h-.648Z" transform="translate(0 -2.179)" fill="#0b79bf"/>
      <path d="M75.222,33.957a1.361,1.361,0,0,1-1.144.729c-.973,0-1.557-.91-1.557-2.278,0-1.35.576-2.287,1.557-2.287a1.314,1.314,0,0,1,1.144.738V28.573h.648v6.005h-.648Zm0-2.548a1.165,1.165,0,0,0-.982-.712c-.711,0-1.044.766-1.044,1.711s.333,1.7,1.044,1.7a1.153,1.153,0,0,0,.982-.7Z" transform="translate(0 -2.179)" fill="#0b79bf"/>
      <path d="M81.692,28.483c1.405,0,1.882,1.558,1.882,3.1s-.477,3.106-1.882,3.106-1.881-1.567-1.881-3.106S80.288,28.483,81.692,28.483Zm0,.639c-.918,0-1.143,1.27-1.143,2.458s.216,2.467,1.143,2.467,1.153-1.287,1.153-2.467S82.62,29.122,81.692,29.122Z" transform="translate(0 -2.179)" fill="#0b79bf"/>
      <path d="M87.074,33.038H84.7v-.621l2.17-3.844h.918v3.835h.657v.63h-.657v1.54h-.711Zm-1.72-.63h1.72v-3.06Z" transform="translate(0 -2.179)" fill="#0b79bf"/>
      <path d="M90.872,28.393h.5l-1.729,6.365h-.5Z" transform="translate(0 -2.179)" fill="#0b79bf"/>
      <path d="M92.348,33.993c1.962-2.26,2.637-2.989,2.637-3.862a.943.943,0,0,0-.964-1.009,1.42,1.42,0,0,0-1.269.757l-.468-.433a1.992,1.992,0,0,1,1.747-.963,1.584,1.584,0,0,1,1.683,1.638c0,1.009-.756,1.909-2.35,3.817h2.377v.64H92.348Z" transform="translate(0 -2.179)" fill="#0b79bf"/>
      <path d="M97.739,33.426a1.074,1.074,0,0,0,1,.612c.973,0,1.306-1.269,1.306-2.395v-.189a1.547,1.547,0,0,1-1.324.892c-.873,0-1.575-.64-1.575-1.918a1.79,1.79,0,0,1,1.728-1.954c1.432,0,1.9,1.5,1.9,3.106s-.584,3.1-2.034,3.1a1.609,1.609,0,0,1-1.395-.747Zm1.17-4.313c-.72,0-1.035.675-1.035,1.3,0,.955.459,1.315,1.026,1.315a1.36,1.36,0,0,0,1.125-.918C99.989,30.131,99.756,29.113,98.909,29.113Z" transform="translate(0 -2.179)" fill="#0b79bf"/>
      <path d="M103.418,28.393h.5l-1.729,6.365h-.5Z" transform="translate(0 -2.179)" fill="#0b79bf"/>
      <path d="M106.712,32.093l-1.4,2.485h-.828l1.791-3.07-1.692-2.935h.837l1.288,2.359L108,28.573h.837l-1.692,2.935,1.792,3.07h-.829Z" transform="translate(0 -2.179)" fill="#0b79bf"/>
      <path d="M111.8,32.093l-1.4,2.485h-.828l1.791-3.07-1.692-2.935h.838l1.287,2.359,1.287-2.359h.837l-1.692,2.935,1.792,3.07h-.829Z" transform="translate(0 -2.179)" fill="#0b79bf"/>
    </g>
    <g>
      <path d="M2.827,51.232a2.1,2.1,0,0,1,2,1.369l-.981.45A1.115,1.115,0,0,0,2.827,52.3c-.765,0-1.3.747-1.3,2.034s.532,2.035,1.3,2.035a1.27,1.27,0,0,0,.918-.36V55.1H2.61V54.05H4.88v2.44a2.578,2.578,0,0,1-2.053.954C1.306,57.444.288,56.2.288,54.338S1.306,51.232,2.827,51.232Z" transform="translate(0 -2.179)"/>
      <path d="M8.551,56.9a1.425,1.425,0,0,1-1.143.54A1.348,1.348,0,0,1,6.066,56a1.3,1.3,0,0,1,1.342-1.4,1.382,1.382,0,0,1,1.143.512v-.576a.713.713,0,0,0-.8-.756,1.527,1.527,0,0,0-1.071.468l-.406-.738a2.467,2.467,0,0,1,1.675-.63c.946,0,1.693.423,1.693,1.539v2.917H8.551Zm0-1.161a.838.838,0,0,0-.729-.424.655.655,0,0,0-.676.7.648.648,0,0,0,.676.694.813.813,0,0,0,.729-.414Z" transform="translate(0 -2.179)"/>
      <path d="M11.277,56.066a1.781,1.781,0,0,0,1.2.532c.414,0,.638-.171.638-.451,0-.3-.333-.422-.747-.557-.612-.2-1.4-.433-1.4-1.4,0-.7.567-1.306,1.585-1.306a2.247,2.247,0,0,1,1.512.558l-.432.729a1.475,1.475,0,0,0-1.063-.45c-.341,0-.576.162-.576.405,0,.261.3.388.7.514.631.2,1.459.459,1.459,1.458,0,.783-.639,1.35-1.657,1.35a2.3,2.3,0,0,1-1.674-.621Z" transform="translate(0 -2.179)"/>
      <path d="M18.081,55.743a1.968,1.968,0,0,0,1.44.639c.541,0,.829-.3.829-.666,0-.459-.432-.657-.982-.892-.756-.3-1.7-.657-1.7-1.845a1.8,1.8,0,0,1,1.98-1.747,2.6,2.6,0,0,1,1.819.666l-.576.9a1.839,1.839,0,0,0-1.27-.5c-.45,0-.72.252-.72.612,0,.405.414.594.954.82.775.3,1.72.7,1.72,1.889a1.806,1.806,0,0,1-2.035,1.828,2.778,2.778,0,0,1-2.053-.774Z" transform="translate(0 -2.179)"/>
      <path d="M24.57,52.88c1.2,0,1.872.973,1.872,2.322v.307H23.715a1.034,1.034,0,0,0,1.053,1.062,1.31,1.31,0,0,0,.945-.424l.495.649a2.119,2.119,0,0,1-1.557.648,2.3,2.3,0,0,1-.081-4.564Zm-.855,1.891H25.4c-.018-.451-.216-1.018-.846-1.018C23.949,53.753,23.732,54.32,23.715,54.771Z" transform="translate(0 -2.179)"/>
      <path d="M27.7,52.988h1.08v.6a1.481,1.481,0,0,1,1.189-.7v1.053a1.114,1.114,0,0,0-.261-.027,1.2,1.2,0,0,0-.928.523v2.9H27.7Z" transform="translate(0 -2.179)"/>
      <path d="M30.618,52.988h1.153l.873,3.052.881-3.052h1.153l-1.449,4.348H32.067Z" transform="translate(0 -2.179)"/>
      <path d="M35.567,51.7a.649.649,0,1,1,1.3,0,.649.649,0,1,1-1.3,0Zm.109,1.288h1.08v4.348h-1.08Z" transform="translate(0 -2.179)"/>
      <path d="M40.032,52.88a1.732,1.732,0,0,1,1.386.585l-.54.747a.909.909,0,0,0-.729-.378c-.622,0-.991.567-.991,1.323s.369,1.333.991,1.333a.91.91,0,0,0,.729-.379l.54.748a1.732,1.732,0,0,1-1.386.585,2.3,2.3,0,0,1,0-4.564Z" transform="translate(0 -2.179)"/>
      <path d="M44.316,52.88c1.2,0,1.872.973,1.872,2.322v.307H43.461a1.034,1.034,0,0,0,1.053,1.062,1.31,1.31,0,0,0,.945-.424l.495.649a2.119,2.119,0,0,1-1.557.648,2.3,2.3,0,0,1-.081-4.564Zm-.855,1.891h1.684c-.019-.451-.217-1.018-.847-1.018C43.7,53.753,43.479,54.32,43.461,54.771Z" transform="translate(0 -2.179)"/>
      <path d="M48.1,52.925a.7.7,0,0,1,.692.693.706.706,0,0,1-.692.7.715.715,0,0,1-.7-.7A.707.707,0,0,1,48.1,52.925Zm0,3.115a.7.7,0,1,1-.7.7A.715.715,0,0,1,48.1,56.04Z" transform="translate(0 -2.179)"/>
      <path d="M52.919,55.743a1.966,1.966,0,0,0,1.44.639c.54,0,.829-.3.829-.666,0-.459-.432-.657-.982-.892-.756-.3-1.7-.657-1.7-1.845a1.8,1.8,0,0,1,1.98-1.747A2.6,2.6,0,0,1,56.3,51.9l-.576.9a1.839,1.839,0,0,0-1.27-.5c-.45,0-.72.252-.72.612,0,.405.414.594.954.82.775.3,1.72.7,1.72,1.889a1.807,1.807,0,0,1-2.035,1.828,2.778,2.778,0,0,1-2.053-.774Z" transform="translate(0 -2.179)"/>
      <path d="M57.788,56.292V53.934h-.566v-.946h.566V51.8h1.081v1.188h.72v.946h-.72V56.04c0,.279.108.45.315.45a.431.431,0,0,0,.324-.126l.225.828a1.25,1.25,0,0,1-.837.252C58.14,57.444,57.788,57.057,57.788,56.292Z" transform="translate(0 -2.179)"/>
      <path d="M63.072,56.9a1.427,1.427,0,0,1-1.143.54A1.347,1.347,0,0,1,60.587,56a1.3,1.3,0,0,1,1.342-1.4,1.382,1.382,0,0,1,1.143.512v-.576a.714.714,0,0,0-.8-.756,1.529,1.529,0,0,0-1.072.468l-.405-.738a2.465,2.465,0,0,1,1.675-.63c.945,0,1.692.423,1.692,1.539v2.917H63.072Zm0-1.161a.838.838,0,0,0-.729-.424.655.655,0,0,0-.676.7.648.648,0,0,0,.676.694.813.813,0,0,0,.729-.414Z" transform="translate(0 -2.179)"/>
      <path d="M68.111,54.474c0-.459-.207-.64-.567-.64a.985.985,0,0,0-.792.54v2.962h-1.08V52.988h1.08v.567a1.615,1.615,0,0,1,1.278-.675,1.056,1.056,0,0,1,1.161,1.188v3.268h-1.08Z" transform="translate(0 -2.179)"/>
      <path d="M73.2,56.787a1.3,1.3,0,0,1-1.1.657c-.981,0-1.612-.855-1.612-2.277,0-1.4.631-2.287,1.612-2.287a1.266,1.266,0,0,1,1.1.657V51.331h1.08v6H73.2Zm0-2.439a.918.918,0,0,0-.756-.514c-.549,0-.837.567-.837,1.333s.288,1.323.837,1.323a.917.917,0,0,0,.756-.513Z" transform="translate(0 -2.179)"/>
      <path d="M78.039,56.9a1.427,1.427,0,0,1-1.143.54A1.347,1.347,0,0,1,75.554,56,1.3,1.3,0,0,1,76.9,54.6a1.382,1.382,0,0,1,1.143.512v-.576a.714.714,0,0,0-.8-.756,1.527,1.527,0,0,0-1.071.468l-.405-.738a2.465,2.465,0,0,1,1.675-.63c.945,0,1.692.423,1.692,1.539v2.917H78.039Zm0-1.161a.839.839,0,0,0-.729-.424.655.655,0,0,0-.676.7.648.648,0,0,0,.676.694.814.814,0,0,0,.729-.414Z" transform="translate(0 -2.179)"/>
      <path d="M80.639,52.988h1.08v.6a1.479,1.479,0,0,1,1.188-.7v1.053a1.108,1.108,0,0,0-.261-.027,1.2,1.2,0,0,0-.927.523v2.9h-1.08Z" transform="translate(0 -2.179)"/>
      <path d="M86.543,56.787a1.307,1.307,0,0,1-1.1.657c-.981,0-1.612-.855-1.612-2.277,0-1.4.631-2.287,1.612-2.287a1.268,1.268,0,0,1,1.1.657V51.331h1.08v6h-1.08Zm0-2.439a.919.919,0,0,0-.756-.514c-.55,0-.838.567-.838,1.333s.288,1.323.838,1.323a.918.918,0,0,0,.756-.513Z" transform="translate(0 -2.179)"/>
      <path d="M95.984,53.213l-1.35,4.123h-.5l-1.332-4.123v4.123h-1.2v-6h1.62l1.162,3.6,1.171-3.6h1.611v6H95.984Z" transform="translate(0 -2.179)"/>
      <path d="M100.439,52.88c1.2,0,1.873.973,1.873,2.322v.307H99.584a1.034,1.034,0,0,0,1.053,1.062,1.31,1.31,0,0,0,.945-.424l.5.649a2.119,2.119,0,0,1-1.556.648,2.3,2.3,0,0,1-.082-4.564Zm-.855,1.891h1.684c-.019-.451-.217-1.018-.847-1.018C99.818,53.753,99.6,54.32,99.584,54.771Z" transform="translate(0 -2.179)"/>
      <path d="M103.759,56.292V53.934h-.567v-.946h.567V51.8h1.081v1.188h.72v.946h-.72V56.04c0,.279.107.45.314.45a.432.432,0,0,0,.325-.126l.225.828a1.251,1.251,0,0,1-.838.252C104.11,57.444,103.759,57.057,103.759,56.292Z" transform="translate(0 -2.179)"/>
      <path d="M108.513,52.88c1.2,0,1.872.973,1.872,2.322v.307h-2.728a1.034,1.034,0,0,0,1.053,1.062,1.311,1.311,0,0,0,.945-.424l.5.649a2.115,2.115,0,0,1-1.556.648,2.3,2.3,0,0,1-.081-4.564Zm-.856,1.891h1.684c-.019-.451-.217-1.018-.847-1.018C107.891,53.753,107.675,54.32,107.657,54.771Z" transform="translate(0 -2.179)"/>
      <path d="M111.644,52.988h1.08v.6a1.479,1.479,0,0,1,1.188-.7v1.053a1.108,1.108,0,0,0-.261-.027,1.2,1.2,0,0,0-.927.523v2.9h-1.08Z" transform="translate(0 -2.179)"/>
      <path d="M4.906,64.213l-1.35,4.123h-.5L1.729,64.213v4.123H.531v-6h1.62l1.161,3.6,1.171-3.6H6.1v6H4.906Z" transform="translate(0 -2.179)"/>
      <path d="M9.361,63.88c1.2,0,1.872.973,1.872,2.322v.307H8.506a1.034,1.034,0,0,0,1.053,1.062,1.31,1.31,0,0,0,.945-.424l.5.649a2.119,2.119,0,0,1-1.557.648,2.3,2.3,0,0,1-.081-4.564Zm-.855,1.891h1.683c-.018-.451-.216-1.018-.846-1.018C8.74,64.753,8.523,65.32,8.506,65.771Z" transform="translate(0 -2.179)"/>
      <path d="M12.681,67.292V64.934h-.567v-.946h.567V62.8h1.081v1.188h.719v.946h-.719V67.04c0,.279.107.45.314.45a.428.428,0,0,0,.324-.126l.226.828a1.251,1.251,0,0,1-.838.252C13.032,68.444,12.681,68.057,12.681,67.292Z" transform="translate(0 -2.179)"/>
      <path d="M17.434,63.88c1.2,0,1.872.973,1.872,2.322v.307H16.578a1.034,1.034,0,0,0,1.053,1.062,1.31,1.31,0,0,0,.945-.424l.5.649a2.115,2.115,0,0,1-1.556.648,2.3,2.3,0,0,1-.081-4.564Zm-.856,1.891h1.684c-.019-.451-.217-1.018-.847-1.018C16.812,64.753,16.6,65.32,16.578,65.771Z" transform="translate(0 -2.179)"/>
      <path d="M20.564,63.988h1.081v.6a1.479,1.479,0,0,1,1.188-.7v1.053a1.108,1.108,0,0,0-.261-.027,1.2,1.2,0,0,0-.927.523v2.9H20.564Z" transform="translate(0 -2.179)"/>
      <path d="M27.657,64.51v3.826h-1.2v-6h1.225l1.971,3.674V62.331h1.206v6H29.71Z" transform="translate(0 -2.179)"/>
      <path d="M34.848,67.787a1.588,1.588,0,0,1-1.279.657,1.04,1.04,0,0,1-1.161-1.171V63.988h1.08v2.871c0,.46.216.631.576.631a.956.956,0,0,0,.784-.531V63.988h1.08v4.348h-1.08Z" transform="translate(0 -2.179)"/>
      <path d="M42.085,65.41c0-.36-.153-.576-.495-.576a.951.951,0,0,0-.748.54v2.962h-1.08V65.41c0-.35-.144-.576-.495-.576a.962.962,0,0,0-.747.54v2.962H37.439V63.988H38.52v.567a1.538,1.538,0,0,1,1.224-.675.978.978,0,0,1,1.053.756,1.547,1.547,0,0,1,1.269-.756,1.009,1.009,0,0,1,1.1,1.152v3.3h-1.08Z" transform="translate(0 -2.179)"/>
      <path d="M44.676,62.331h1.08v2.206a1.258,1.258,0,0,1,1.1-.657c.982,0,1.612.891,1.612,2.287,0,1.422-.64,2.277-1.612,2.277a1.307,1.307,0,0,1-1.1-.657v.549h-1.08Zm1.836,5.159c.55,0,.838-.567.838-1.323s-.288-1.333-.838-1.333a.929.929,0,0,0-.756.522v1.621A.918.918,0,0,0,46.512,67.49Z" transform="translate(0 -2.179)"/>
      <path d="M51.471,63.88c1.2,0,1.872.973,1.872,2.322v.307H50.615a1.034,1.034,0,0,0,1.053,1.062,1.31,1.31,0,0,0,.945-.424l.495.649a2.115,2.115,0,0,1-1.556.648,2.3,2.3,0,0,1-.081-4.564Zm-.856,1.891H52.3c-.019-.451-.217-1.018-.847-1.018C50.85,64.753,50.633,65.32,50.615,65.771Z" transform="translate(0 -2.179)"/>
      <path d="M54.6,63.988h1.08v.6a1.479,1.479,0,0,1,1.188-.7v1.053a1.108,1.108,0,0,0-.261-.027,1.2,1.2,0,0,0-.927.523v2.9H54.6Z" transform="translate(0 -2.179)"/>
      <path d="M58.671,63.925a.7.7,0,0,1,.692.693.706.706,0,0,1-.692.7.714.714,0,0,1-.7-.7A.706.706,0,0,1,58.671,63.925Zm0,3.115a.7.7,0,1,1-.7.7A.714.714,0,0,1,58.671,67.04Z" transform="translate(0 -2.179)"/>
      <path d="M65.447,62.241a2.032,2.032,0,0,1,1.54.649l-.585.881a1.087,1.087,0,0,0-.936-.467c-.747,0-1.2.846-1.2,1.809v.1a1.48,1.48,0,0,1,1.278-.756A1.726,1.726,0,0,1,67.23,66.4a1.934,1.934,0,0,1-1.971,2.044c-1.594,0-2.215-1.431-2.215-3.1C63.044,63.547,63.9,62.241,65.447,62.241Zm-.278,3.233a1.106,1.106,0,0,0-.9.621c.044.557.252,1.287.926,1.287a.853.853,0,0,0,.811-.937C66.006,65.734,65.6,65.474,65.169,65.474Z" transform="translate(0 -2.179)"/>
      <path d="M70.712,62.241a2.034,2.034,0,0,1,1.54.649l-.585.881a1.089,1.089,0,0,0-.937-.467c-.747,0-1.2.846-1.2,1.809v.1a1.483,1.483,0,0,1,1.279-.756A1.726,1.726,0,0,1,72.5,66.4a1.935,1.935,0,0,1-1.972,2.044c-1.593,0-2.214-1.431-2.214-3.1C68.309,63.547,69.164,62.241,70.712,62.241Zm-.278,3.233a1.108,1.108,0,0,0-.9.621c.045.557.252,1.287.927,1.287a.853.853,0,0,0,.811-.937C71.271,65.734,70.865,65.474,70.434,65.474Z" transform="translate(0 -2.179)"/>
      <path d="M75.978,62.241a2.036,2.036,0,0,1,1.54.649l-.585.881A1.09,1.09,0,0,0,76,63.3c-.747,0-1.2.846-1.2,1.809v.1a1.482,1.482,0,0,1,1.278-.756A1.726,1.726,0,0,1,77.761,66.4a1.935,1.935,0,0,1-1.972,2.044c-1.594,0-2.215-1.431-2.215-3.1C73.574,63.547,74.43,62.241,75.978,62.241ZM75.7,65.474a1.108,1.108,0,0,0-.9.621c.045.557.252,1.287.927,1.287a.853.853,0,0,0,.81-.937C76.536,65.734,76.131,65.474,75.7,65.474Z" transform="translate(0 -2.179)"/>
      <path d="M81.242,62.241a2.032,2.032,0,0,1,1.54.649l-.585.881a1.087,1.087,0,0,0-.936-.467c-.747,0-1.2.846-1.2,1.809v.1a1.483,1.483,0,0,1,1.279-.756A1.726,1.726,0,0,1,83.025,66.4a1.935,1.935,0,0,1-1.971,2.044c-1.594,0-2.215-1.431-2.215-3.1C78.839,63.547,79.694,62.241,81.242,62.241Zm-.278,3.233a1.109,1.109,0,0,0-.9.621c.045.557.252,1.287.927,1.287a.853.853,0,0,0,.811-.937C81.8,65.734,81.4,65.474,80.964,65.474Z" transform="translate(0 -2.179)"/>
      <path d="M86.507,62.241a2.036,2.036,0,0,1,1.54.649l-.585.881a1.089,1.089,0,0,0-.937-.467c-.747,0-1.2.846-1.2,1.809v.1a1.483,1.483,0,0,1,1.278-.756A1.726,1.726,0,0,1,88.29,66.4a1.935,1.935,0,0,1-1.972,2.044c-1.593,0-2.214-1.431-2.214-3.1C84.1,63.547,84.959,62.241,86.507,62.241Zm-.278,3.233a1.108,1.108,0,0,0-.9.621c.045.557.252,1.287.927,1.287a.852.852,0,0,0,.81-.937C87.065,65.734,86.66,65.474,86.229,65.474Z" transform="translate(0 -2.179)"/>
      <path d="M91.772,62.241a2.032,2.032,0,0,1,1.54.649l-.584.881a1.09,1.09,0,0,0-.937-.467c-.747,0-1.2.846-1.2,1.809v.1a1.482,1.482,0,0,1,1.278-.756A1.726,1.726,0,0,1,93.556,66.4a1.935,1.935,0,0,1-1.972,2.044c-1.594,0-2.215-1.431-2.215-3.1C89.369,63.547,90.225,62.241,91.772,62.241Zm-.278,3.233a1.106,1.106,0,0,0-.9.621c.045.557.252,1.287.927,1.287a.853.853,0,0,0,.81-.937C92.331,65.734,91.926,65.474,91.494,65.474Z" transform="translate(0 -2.179)"/>
      <path d="M97.037,62.241a2.032,2.032,0,0,1,1.54.649l-.585.881a1.087,1.087,0,0,0-.936-.467c-.747,0-1.2.846-1.2,1.809v.1a1.483,1.483,0,0,1,1.279-.756A1.726,1.726,0,0,1,98.82,66.4a1.935,1.935,0,0,1-1.971,2.044c-1.594,0-2.215-1.431-2.215-3.1C94.634,63.547,95.489,62.241,97.037,62.241Zm-.278,3.233a1.108,1.108,0,0,0-.9.621c.045.557.252,1.287.927,1.287a.853.853,0,0,0,.811-.937C97.6,65.734,97.19,65.474,96.759,65.474Z" transform="translate(0 -2.179)"/>
      <path d="M102.3,62.241a2.036,2.036,0,0,1,1.54.649l-.585.881a1.09,1.09,0,0,0-.937-.467c-.747,0-1.2.846-1.2,1.809v.1a1.483,1.483,0,0,1,1.278-.756,1.726,1.726,0,0,1,1.684,1.944,1.935,1.935,0,0,1-1.972,2.044c-1.593,0-2.215-1.431-2.215-3.1C99.9,63.547,100.754,62.241,102.3,62.241Zm-.279,3.233a1.108,1.108,0,0,0-.9.621c.045.557.252,1.287.927,1.287a.852.852,0,0,0,.81-.937C102.86,65.734,102.455,65.474,102.023,65.474Z" transform="translate(0 -2.179)"/>
      <path d="M.531,73.331H2.746a1.914,1.914,0,0,1,0,3.826H1.737v2.179H.531ZM2.6,74.385H1.737v1.728H2.6a.87.87,0,0,0,0-1.728Z" transform="translate(0 -2.179)"/>
      <path d="M8.128,73.232c1.575,0,2.512,1.324,2.512,3.106S9.7,79.444,8.128,79.444s-2.5-1.314-2.5-3.106S6.562,73.232,8.128,73.232Zm0,1.072c-.819,0-1.261.873-1.261,2.034,0,1.143.442,2.035,1.261,2.035s1.278-.892,1.278-2.035C9.406,75.177,8.956,74.3,8.128,74.3Z" transform="translate(0 -2.179)"/>
      <path d="M12.006,73.331h1.935c1.657,0,2.611,1.243,2.611,3.007s-.946,3-2.611,3H12.006Zm1.935,4.942c.892,0,1.377-.792,1.377-1.935,0-1.188-.467-1.944-1.377-1.944h-.729v3.879Z" transform="translate(0 -2.179)"/>
      <path d="M21.546,75.51v3.826h-1.2v-6h1.224l1.972,3.674V73.331h1.206v6H23.6Z" transform="translate(0 -2.179)"/>
      <path d="M28.737,78.787a1.587,1.587,0,0,1-1.278.657A1.04,1.04,0,0,1,26.3,78.273V74.988h1.08v2.871c0,.46.216.631.576.631a.953.953,0,0,0,.783-.531V74.988h1.08v4.348h-1.08Z" transform="translate(0 -2.179)"/>
      <path d="M35.975,76.41c0-.36-.154-.576-.5-.576a.949.949,0,0,0-.747.54v2.962H33.651V76.41c0-.35-.143-.576-.5-.576a.964.964,0,0,0-.747.54v2.962h-1.08V74.988h1.08v.567a1.542,1.542,0,0,1,1.225-.675.978.978,0,0,1,1.053.756,1.546,1.546,0,0,1,1.269-.756,1.009,1.009,0,0,1,1.1,1.152v3.3h-1.08Z" transform="translate(0 -2.179)"/>
      <path d="M38.564,73.331h1.081v2.206a1.257,1.257,0,0,1,1.1-.657c.982,0,1.611.891,1.611,2.287,0,1.422-.639,2.277-1.611,2.277a1.307,1.307,0,0,1-1.1-.657v.549H38.564ZM40.4,78.49c.55,0,.838-.567.838-1.323s-.288-1.333-.838-1.333a.928.928,0,0,0-.755.522v1.621A.918.918,0,0,0,40.4,78.49Z" transform="translate(0 -2.179)"/>
      <path d="M45.36,74.88c1.2,0,1.872.973,1.872,2.322v.307H44.505a1.034,1.034,0,0,0,1.053,1.062,1.311,1.311,0,0,0,.945-.424L47,78.8a2.119,2.119,0,0,1-1.557.648,2.3,2.3,0,0,1-.081-4.564Zm-.855,1.891h1.683c-.018-.451-.216-1.018-.846-1.018C44.738,75.753,44.522,76.32,44.505,76.771Z" transform="translate(0 -2.179)"/>
      <path d="M48.491,74.988h1.08v.6a1.481,1.481,0,0,1,1.189-.7v1.053a1.108,1.108,0,0,0-.261-.027,1.2,1.2,0,0,0-.928.523v2.9h-1.08Z" transform="translate(0 -2.179)"/>
      <path d="M52.56,74.925a.7.7,0,0,1,.692.693.706.706,0,0,1-.692.7.715.715,0,0,1-.7-.7A.707.707,0,0,1,52.56,74.925Zm0,3.115a.7.7,0,1,1-.7.7A.715.715,0,0,1,52.56,78.04Z" transform="translate(0 -2.179)"/>
      <path d="M59.274,78.058H56.825V77.05l2.108-3.719H60.48V77h.6v1.063h-.6v1.278H59.274ZM57.915,77h1.359V74.556Z" transform="translate(0 -2.179)"/>
      <path d="M64.439,78.058H61.99V77.05L64.1,73.331h1.548V77h.6v1.063h-.6v1.278H64.439ZM63.08,77h1.359V74.556Z" transform="translate(0 -2.179)"/>
      <path d="M69.605,78.058H67.156V77.05l2.108-3.719h1.548V77h.6v1.063h-.6v1.278H69.605ZM68.246,77h1.359V74.556Z" transform="translate(0 -2.179)"/>
      <path d="M74.771,78.058H72.322V77.05l2.108-3.719h1.548V77h.6v1.063h-.6v1.278H74.771ZM73.412,77h1.359V74.556Z" transform="translate(0 -2.179)"/>
      <path d="M79.938,78.058h-2.45V77.05L79.6,73.331h1.548V77h.6v1.063h-.6v1.278H79.938ZM78.578,77h1.36V74.556Z" transform="translate(0 -2.179)"/>
      <path d="M85.1,78.058h-2.45V77.05l2.108-3.719H86.31V77h.6v1.063h-.6v1.278H85.1ZM83.744,77H85.1V74.556Z" transform="translate(0 -2.179)"/>
      <path d="M90.27,78.058H87.82V77.05l2.108-3.719h1.548V77h.6v1.063h-.6v1.278H90.27ZM88.91,77h1.36V74.556Z" transform="translate(0 -2.179)"/>
      <path d="M95.436,78.058h-2.45V77.05l2.108-3.719h1.548V77h.6v1.063h-.6v1.278H95.436ZM94.076,77h1.36V74.556Z" transform="translate(0 -2.179)"/>
      <path d="M100.6,78.058h-2.45V77.05l2.108-3.719h1.548V77h.6v1.063h-.6v1.278H100.6ZM99.242,77h1.36V74.556Z" transform="translate(0 -2.179)"/>
      <path d="M105.768,78.058h-2.45V77.05l2.108-3.719h1.548V77h.6v1.063h-.6v1.278h-1.206ZM104.408,77h1.36V74.556Z" transform="translate(0 -2.179)"/>
      <path d="M110.934,78.058h-2.45V77.05l2.108-3.719h1.548V77h.6v1.063h-.6v1.278h-1.206ZM109.574,77h1.36V74.556Z" transform="translate(0 -2.179)"/>
      <path d="M116.1,78.058h-2.45V77.05l2.108-3.719h1.548V77h.6v1.063h-.6v1.278H116.1ZM114.74,77h1.36V74.556Z" transform="translate(0 -2.179)"/>
      <path d="M121.266,78.058h-2.45V77.05l2.108-3.719h1.548V77h.6v1.063h-.6v1.278h-1.206ZM119.906,77h1.36V74.556Z" transform="translate(0 -2.179)"/>
      <path d="M.531,84.331H3.016A1.46,1.46,0,0,1,4.6,85.862a1.312,1.312,0,0,1-.964,1.377A1.42,1.42,0,0,1,4.7,88.716a1.487,1.487,0,0,1-1.6,1.62H.531Zm2.2,2.44a.618.618,0,0,0,.639-.7.626.626,0,0,0-.639-.712H1.737v1.414Zm.044,2.539a.663.663,0,0,0,.694-.756.683.683,0,0,0-.694-.756H1.737V89.31Z" transform="translate(0 -2.179)"/>
      <path d="M7.759,85.88c1.2,0,1.872.973,1.872,2.322v.307H6.9a1.034,1.034,0,0,0,1.053,1.062,1.311,1.311,0,0,0,.945-.424l.5.649a2.115,2.115,0,0,1-1.556.648,2.3,2.3,0,0,1-.081-4.564ZM6.9,87.771H8.587c-.019-.451-.217-1.018-.847-1.018C7.137,86.753,6.921,87.32,6.9,87.771Z" transform="translate(0 -2.179)"/>
      <path d="M11.277,90.714a1.454,1.454,0,0,0,1.117.477.911.911,0,0,0,.972-1.026v-.531a1.306,1.306,0,0,1-1.1.666c-.972,0-1.6-.783-1.6-2.2,0-1.4.631-2.215,1.6-2.215a1.248,1.248,0,0,1,1.1.657v-.549h1.08v4.123a1.8,1.8,0,0,1-2,1.99,2.244,2.244,0,0,1-1.6-.558Zm2.089-3.366a.894.894,0,0,0-.747-.514c-.55,0-.838.5-.838,1.261s.288,1.251.838,1.251a.9.9,0,0,0,.747-.5Z" transform="translate(0 -2.179)"/>
      <path d="M15.857,84.7a.649.649,0,1,1,1.3,0,.649.649,0,1,1-1.3,0Zm.109,1.288h1.08v4.348h-1.08Z" transform="translate(0 -2.179)"/>
      <path d="M21,87.474c0-.459-.207-.64-.567-.64a.984.984,0,0,0-.792.54v2.962h-1.08V85.988h1.08v.567a1.614,1.614,0,0,1,1.278-.675,1.056,1.056,0,0,1,1.161,1.188v3.268H21Z" transform="translate(0 -2.179)"/>
      <path d="M26.037,87.474c0-.459-.207-.64-.567-.64a.984.984,0,0,0-.792.54v2.962H23.6V85.988h1.08v.567a1.614,1.614,0,0,1,1.278-.675,1.056,1.056,0,0,1,1.161,1.188v3.268h-1.08Z" transform="translate(0 -2.179)"/>
      <path d="M28.529,84.7a.649.649,0,1,1,1.3,0,.649.649,0,1,1-1.3,0Zm.109,1.288h1.08v4.348h-1.08Z" transform="translate(0 -2.179)"/>
      <path d="M33.67,87.474c0-.459-.207-.64-.567-.64a.984.984,0,0,0-.792.54v2.962H31.23V85.988h1.081v.567a1.614,1.614,0,0,1,1.278-.675,1.056,1.056,0,0,1,1.161,1.188v3.268H33.67Z" transform="translate(0 -2.179)"/>
      <path d="M36.657,90.714a1.453,1.453,0,0,0,1.116.477.912.912,0,0,0,.973-1.026v-.531a1.306,1.306,0,0,1-1.1.666c-.971,0-1.6-.783-1.6-2.2,0-1.4.631-2.215,1.6-2.215a1.248,1.248,0,0,1,1.1.657v-.549h1.08v4.123a1.8,1.8,0,0,1-2,1.99,2.243,2.243,0,0,1-1.6-.558Zm2.089-3.366A.894.894,0,0,0,38,86.834c-.55,0-.838.5-.838,1.261s.288,1.251.838,1.251a.9.9,0,0,0,.747-.5Z" transform="translate(0 -2.179)"/>
      <path d="M45.676,88.157h-.649v2.179H43.821v-6h2.241a1.779,1.779,0,0,1,1.829,1.9,1.662,1.662,0,0,1-1.045,1.72l1.09,2.386H46.594Zm.207-2.772h-.856v1.728h.856a.778.778,0,0,0,.774-.864A.769.769,0,0,0,45.883,85.385Z" transform="translate(0 -2.179)"/>
      <path d="M50.77,85.88c1.2,0,1.872.973,1.872,2.322v.307H49.914a1.034,1.034,0,0,0,1.053,1.062,1.31,1.31,0,0,0,.945-.424l.495.649a2.115,2.115,0,0,1-1.556.648,2.3,2.3,0,0,1-.081-4.564Zm-.856,1.891H51.6c-.019-.451-.217-1.018-.847-1.018C50.148,86.753,49.932,87.32,49.914,87.771Z" transform="translate(0 -2.179)"/>
      <path d="M56.152,89.9a1.427,1.427,0,0,1-1.143.54A1.347,1.347,0,0,1,53.667,89a1.3,1.3,0,0,1,1.342-1.4,1.382,1.382,0,0,1,1.143.512v-.576a.714.714,0,0,0-.8-.756,1.531,1.531,0,0,0-1.072.468l-.405-.738a2.465,2.465,0,0,1,1.675-.63c.945,0,1.692.423,1.692,1.539v2.917H56.152Zm0-1.161a.838.838,0,0,0-.729-.424.655.655,0,0,0-.676.7.648.648,0,0,0,.676.694.813.813,0,0,0,.729-.414Z" transform="translate(0 -2.179)"/>
      <path d="M61.236,89.787a1.3,1.3,0,0,1-1.1.657c-.982,0-1.613-.855-1.613-2.277,0-1.4.631-2.287,1.613-2.287a1.266,1.266,0,0,1,1.1.657V84.331h1.08v6h-1.08Zm0-2.439a.918.918,0,0,0-.756-.514c-.549,0-.837.567-.837,1.333s.288,1.323.837,1.323a.917.917,0,0,0,.756-.513Z" transform="translate(0 -2.179)"/>
      <path d="M66.3,84.331h1.935c1.657,0,2.611,1.243,2.611,3.007s-.946,3-2.611,3H66.3Zm1.935,4.942c.892,0,1.377-.792,1.377-1.935,0-1.188-.468-1.944-1.377-1.944h-.729v3.879Z" transform="translate(0 -2.179)"/>
      <path d="M74.422,89.9a1.428,1.428,0,0,1-1.144.54A1.347,1.347,0,0,1,71.937,89a1.3,1.3,0,0,1,1.341-1.4,1.383,1.383,0,0,1,1.144.512v-.576a.714.714,0,0,0-.8-.756,1.527,1.527,0,0,0-1.071.468l-.405-.738a2.465,2.465,0,0,1,1.674-.63c.946,0,1.693.423,1.693,1.539v2.917H74.422Zm0-1.161a.841.841,0,0,0-.73-.424.655.655,0,0,0-.675.7.648.648,0,0,0,.675.694.816.816,0,0,0,.73-.414Z" transform="translate(0 -2.179)"/>
      <path d="M77.21,89.292V86.934h-.566v-.946h.566V84.8h1.081v1.188h.72v.946h-.72V89.04c0,.279.107.45.314.45a.432.432,0,0,0,.325-.126l.225.828a1.251,1.251,0,0,1-.838.252C77.562,90.444,77.21,90.057,77.21,89.292Z" transform="translate(0 -2.179)"/>
      <path d="M81.963,85.88c1.2,0,1.872.973,1.872,2.322v.307H81.107a1.034,1.034,0,0,0,1.053,1.062,1.31,1.31,0,0,0,.945-.424l.5.649a2.119,2.119,0,0,1-1.557.648,2.3,2.3,0,0,1-.081-4.564Zm-.856,1.891h1.684c-.019-.451-.217-1.018-.847-1.018C81.342,86.753,81.125,87.32,81.107,87.771Z" transform="translate(0 -2.179)"/>
      <path d="M85.743,85.925a.7.7,0,0,1,.693.693.707.707,0,0,1-.693.7.714.714,0,0,1-.7-.7A.706.706,0,0,1,85.743,85.925Zm0,3.115a.7.7,0,1,1-.7.7A.714.714,0,0,1,85.743,89.04Z" transform="translate(0 -2.179)"/>
      <path d="M90.225,89.364c2.2-2.134,2.655-2.611,2.655-3.3a.75.75,0,0,0-.8-.757,1.545,1.545,0,0,0-1.278.676l-.721-.757a2.445,2.445,0,0,1,2.017-.99A1.822,1.822,0,0,1,94.1,86.06c0,.909-.612,1.683-2.125,3.213h2.153v1.063H90.225Z" transform="translate(0 -2.179)"/>
      <path d="M96.785,84.151h.775l-1.729,6.366h-.774Z" transform="translate(0 -2.179)"/>
      <path d="M99,88.725a1.655,1.655,0,0,0,1.287.657c.63,0,.918-.333.918-.8,0-.567-.387-.774-.972-.774-.2,0-.468.008-.558.017V86.753c.09.009.388.009.531.009.55,0,.918-.234.918-.711,0-.5-.359-.747-.882-.747a1.533,1.533,0,0,0-1.2.6l-.685-.693a2.352,2.352,0,0,1,1.981-.973c1.188,0,1.972.568,1.972,1.63a1.418,1.418,0,0,1-1.134,1.368A1.448,1.448,0,0,1,102.4,88.68a1.818,1.818,0,0,1-2.062,1.764,2.444,2.444,0,0,1-2.062-.972Z" transform="translate(0 -2.179)"/>
      <path d="M105.669,84.241c1.494,0,2.124,1.387,2.124,3.1s-.621,3.106-2.124,3.106c-1.485,0-2.125-1.4-2.125-3.106S104.184,84.241,105.669,84.241Zm0,1.071c-.693,0-.892.865-.892,2.026s.2,2.035.892,2.035.9-.883.9-2.035S106.371,85.312,105.669,85.312Z" transform="translate(0 -2.179)"/>
      <path d="M.531,95.331H3.97v1.054H1.737v1.377h2.17v1.045H1.737v1.476H3.97v1.053H.531Z" transform="translate(0 -2.179)"/>
      <path d="M7.8,98.474c0-.459-.207-.64-.567-.64a.984.984,0,0,0-.792.54v2.962H5.355V96.988H6.436v.567a1.614,1.614,0,0,1,1.278-.675,1.056,1.056,0,0,1,1.161,1.188v3.268H7.8Z" transform="translate(0 -2.179)"/>
      <path d="M12.88,100.787a1.308,1.308,0,0,1-1.1.657c-.98,0-1.611-.855-1.611-2.277,0-1.4.631-2.287,1.611-2.287a1.269,1.269,0,0,1,1.1.657V95.331h1.08v6H12.88Zm0-2.439a.919.919,0,0,0-.756-.514c-.55,0-.838.567-.838,1.333s.288,1.323.838,1.323a.918.918,0,0,0,.756-.513Z" transform="translate(0 -2.179)"/>
      <path d="M15.363,95.7a.649.649,0,1,1,1.3,0,.649.649,0,1,1-1.3,0Zm.109,1.288h1.08v4.348h-1.08Z" transform="translate(0 -2.179)"/>
      <path d="M20.5,98.474c0-.459-.207-.64-.567-.64a.984.984,0,0,0-.792.54v2.962H18.063V96.988h1.081v.567a1.614,1.614,0,0,1,1.278-.675,1.056,1.056,0,0,1,1.161,1.188v3.268H20.5Z" transform="translate(0 -2.179)"/>
      <path d="M23.49,101.714a1.453,1.453,0,0,0,1.116.477.912.912,0,0,0,.973-1.026v-.531a1.306,1.306,0,0,1-1.1.666c-.971,0-1.6-.783-1.6-2.2,0-1.4.631-2.215,1.6-2.215a1.248,1.248,0,0,1,1.1.657v-.549h1.08v4.123a1.8,1.8,0,0,1-2,1.99,2.243,2.243,0,0,1-1.6-.558Zm2.089-3.366a.894.894,0,0,0-.747-.514c-.55,0-.838.5-.838,1.261s.288,1.251.838,1.251a.9.9,0,0,0,.747-.5Z" transform="translate(0 -2.179)"/>
      <path d="M32.509,99.157H31.86v2.179H30.654v-6H32.9a1.778,1.778,0,0,1,1.828,1.9,1.662,1.662,0,0,1-1.045,1.72l1.09,2.386H33.427Zm.207-2.772H31.86v1.728h.856a.778.778,0,0,0,.774-.864A.769.769,0,0,0,32.716,96.385Z" transform="translate(0 -2.179)"/>
      <path d="M37.6,96.88c1.2,0,1.872.973,1.872,2.322v.307H36.747a1.034,1.034,0,0,0,1.053,1.062,1.311,1.311,0,0,0,.945-.424l.5.649a2.115,2.115,0,0,1-1.556.648A2.3,2.3,0,0,1,37.6,96.88Zm-.856,1.891h1.684c-.019-.451-.217-1.018-.847-1.018C36.98,97.753,36.765,98.32,36.747,98.771Z" transform="translate(0 -2.179)"/>
      <path d="M42.984,100.9a1.424,1.424,0,0,1-1.142.54A1.347,1.347,0,0,1,40.5,100a1.3,1.3,0,0,1,1.342-1.4,1.379,1.379,0,0,1,1.142.512v-.576a.713.713,0,0,0-.8-.756,1.531,1.531,0,0,0-1.072.468l-.405-.738a2.465,2.465,0,0,1,1.675-.63c.945,0,1.692.423,1.692,1.539v2.917h-1.09Zm0-1.161a.835.835,0,0,0-.728-.424.655.655,0,0,0-.676.7.648.648,0,0,0,.676.694.81.81,0,0,0,.728-.414Z" transform="translate(0 -2.179)"/>
      <path d="M48.069,100.787a1.3,1.3,0,0,1-1.1.657c-.981,0-1.612-.855-1.612-2.277,0-1.4.631-2.287,1.612-2.287a1.266,1.266,0,0,1,1.1.657V95.331h1.08v6h-1.08Zm0-2.439a.918.918,0,0,0-.756-.514c-.549,0-.837.567-.837,1.333s.288,1.323.837,1.323a.917.917,0,0,0,.756-.513Z" transform="translate(0 -2.179)"/>
      <path d="M53.136,95.331h1.935c1.657,0,2.611,1.243,2.611,3.007s-.946,3-2.611,3H53.136Zm1.935,4.942c.892,0,1.377-.792,1.377-1.935,0-1.188-.468-1.944-1.377-1.944h-.729v3.879Z" transform="translate(0 -2.179)"/>
      <path d="M61.254,100.9a1.425,1.425,0,0,1-1.143.54A1.347,1.347,0,0,1,58.77,100a1.3,1.3,0,0,1,1.341-1.4,1.38,1.38,0,0,1,1.143.512v-.576a.713.713,0,0,0-.8-.756,1.527,1.527,0,0,0-1.071.468l-.405-.738a2.465,2.465,0,0,1,1.674-.63c.946,0,1.693.423,1.693,1.539v2.917h-1.09Zm0-1.161a.838.838,0,0,0-.729-.424.655.655,0,0,0-.675.7.648.648,0,0,0,.675.694.813.813,0,0,0,.729-.414Z" transform="translate(0 -2.179)"/>
      <path d="M64.043,100.292V97.934h-.566v-.946h.566V95.8h1.081v1.188h.72v.946h-.72v2.106c0,.279.107.45.314.45a.432.432,0,0,0,.325-.126l.225.828a1.251,1.251,0,0,1-.838.252C64.4,101.444,64.043,101.057,64.043,100.292Z" transform="translate(0 -2.179)"/>
      <path d="M68.8,96.88c1.2,0,1.872.973,1.872,2.322v.307H67.94a1.034,1.034,0,0,0,1.053,1.062,1.311,1.311,0,0,0,.945-.424l.5.649a2.119,2.119,0,0,1-1.557.648A2.3,2.3,0,0,1,68.8,96.88Zm-.856,1.891h1.684c-.019-.451-.217-1.018-.847-1.018C68.174,97.753,67.958,98.32,67.94,98.771Z" transform="translate(0 -2.179)"/>
      <path d="M76.257,99.157h-.649v2.179H74.4v-6h2.242a1.778,1.778,0,0,1,1.828,1.9,1.662,1.662,0,0,1-1.045,1.72l1.09,2.386H77.175Zm.207-2.772h-.856v1.728h.856a.778.778,0,0,0,.774-.864A.769.769,0,0,0,76.464,96.385Z" transform="translate(0 -2.179)"/>
      <path d="M81.351,96.88c1.2,0,1.872.973,1.872,2.322v.307H80.5a1.034,1.034,0,0,0,1.053,1.062,1.311,1.311,0,0,0,.945-.424l.5.649a2.115,2.115,0,0,1-1.556.648,2.3,2.3,0,0,1-.081-4.564ZM80.5,98.771h1.684c-.019-.451-.217-1.018-.847-1.018C80.729,97.753,80.513,98.32,80.5,98.771Z" transform="translate(0 -2.179)"/>
      <path d="M86.732,100.9a1.424,1.424,0,0,1-1.142.54A1.347,1.347,0,0,1,84.248,100a1.3,1.3,0,0,1,1.342-1.4,1.379,1.379,0,0,1,1.142.512v-.576a.713.713,0,0,0-.8-.756,1.531,1.531,0,0,0-1.072.468l-.405-.738a2.465,2.465,0,0,1,1.675-.63c.945,0,1.692.423,1.692,1.539v2.917h-1.09Zm0-1.161A.835.835,0,0,0,86,99.319a.655.655,0,0,0-.676.7.648.648,0,0,0,.676.694.81.81,0,0,0,.728-.414Z" transform="translate(0 -2.179)"/>
      <path d="M91.817,100.787a1.3,1.3,0,0,1-1.1.657c-.981,0-1.612-.855-1.612-2.277,0-1.4.631-2.287,1.612-2.287a1.266,1.266,0,0,1,1.1.657V95.331H92.9v6h-1.08Zm0-2.439a.918.918,0,0,0-.755-.514c-.55,0-.838.567-.838,1.333s.288,1.323.838,1.323a.917.917,0,0,0,.755-.513Z" transform="translate(0 -2.179)"/>
      <path d="M96.884,95.331h1.935c1.657,0,2.611,1.243,2.611,3.007s-.946,3-2.611,3H96.884Zm1.935,4.942c.892,0,1.377-.792,1.377-1.935,0-1.188-.467-1.944-1.377-1.944H98.09v3.879Z" transform="translate(0 -2.179)"/>
      <path d="M105,100.9a1.425,1.425,0,0,1-1.143.54,1.347,1.347,0,0,1-1.341-1.44,1.3,1.3,0,0,1,1.341-1.4,1.38,1.38,0,0,1,1.143.512v-.576a.713.713,0,0,0-.8-.756,1.527,1.527,0,0,0-1.071.468l-.405-.738a2.465,2.465,0,0,1,1.674-.63c.946,0,1.693.423,1.693,1.539v2.917H105Zm0-1.161a.838.838,0,0,0-.729-.424.655.655,0,0,0-.675.7.648.648,0,0,0,.675.694A.813.813,0,0,0,105,100.3Z" transform="translate(0 -2.179)"/>
      <path d="M107.791,100.292V97.934h-.566v-.946h.566V95.8h1.081v1.188h.72v.946h-.72v2.106c0,.279.107.45.315.45a.431.431,0,0,0,.324-.126l.225.828a1.251,1.251,0,0,1-.838.252C108.143,101.444,107.791,101.057,107.791,100.292Z" transform="translate(0 -2.179)"/>
      <path d="M112.544,96.88c1.2,0,1.872.973,1.872,2.322v.307h-2.728a1.034,1.034,0,0,0,1.053,1.062,1.315,1.315,0,0,0,.946-.424l.5.649a2.119,2.119,0,0,1-1.557.648,2.3,2.3,0,0,1-.081-4.564Zm-.856,1.891h1.684c-.018-.451-.217-1.018-.847-1.018C111.922,97.753,111.706,98.32,111.688,98.771Z" transform="translate(0 -2.179)"/>
      <path d="M116.324,96.925a.7.7,0,0,1,.693.693.707.707,0,0,1-.693.7.715.715,0,0,1-.7-.7A.707.707,0,0,1,116.324,96.925Zm0,3.115a.7.7,0,1,1-.7.7A.715.715,0,0,1,116.324,100.04Z" transform="translate(0 -2.179)"/>
      <path d="M121.31,99.725a1.654,1.654,0,0,0,1.287.657c.63,0,.918-.333.918-.8,0-.567-.387-.774-.972-.774-.2,0-.469.008-.559.017V97.753c.09.009.388.009.532.009.549,0,.918-.234.918-.711,0-.5-.36-.747-.882-.747a1.534,1.534,0,0,0-1.2.6l-.684-.693a2.35,2.35,0,0,1,1.98-.973c1.189,0,1.972.568,1.972,1.63a1.418,1.418,0,0,1-1.134,1.368,1.448,1.448,0,0,1,1.225,1.441,1.819,1.819,0,0,1-2.063,1.764,2.443,2.443,0,0,1-2.061-.972Z" transform="translate(0 -2.179)"/>
      <path d="M127.3,95.151h.774l-1.728,6.366h-.775Z" transform="translate(0 -2.179)"/>
      <path d="M129.509,99.725a1.654,1.654,0,0,0,1.287.657c.63,0,.918-.333.918-.8,0-.567-.387-.774-.972-.774-.2,0-.469.008-.558.017V97.753c.089.009.387.009.531.009.55,0,.918-.234.918-.711,0-.5-.36-.747-.882-.747a1.531,1.531,0,0,0-1.2.6l-.685-.693a2.35,2.35,0,0,1,1.981-.973c1.188,0,1.971.568,1.971,1.63a1.417,1.417,0,0,1-1.133,1.368,1.448,1.448,0,0,1,1.224,1.441,1.819,1.819,0,0,1-2.062,1.764,2.444,2.444,0,0,1-2.062-.972Z" transform="translate(0 -2.179)"/>
      <path d="M136.178,95.241c1.494,0,2.124,1.387,2.124,3.1s-.621,3.106-2.124,3.106c-1.486,0-2.125-1.4-2.125-3.106S134.692,95.241,136.178,95.241Zm0,1.071c-.694,0-.892.865-.892,2.026s.2,2.035.892,2.035.9-.883.9-2.035S136.88,96.312,136.178,96.312Z" transform="translate(0 -2.179)"/>
      <path d="M.531,106.331H3.016A1.46,1.46,0,0,1,4.6,107.862a1.312,1.312,0,0,1-.964,1.377A1.42,1.42,0,0,1,4.7,110.716a1.487,1.487,0,0,1-1.6,1.62H.531Zm2.2,2.44a.618.618,0,0,0,.639-.7.626.626,0,0,0-.639-.712H1.737v1.414Zm.044,2.539a.663.663,0,0,0,.694-.756.683.683,0,0,0-.694-.756H1.737v1.512Z" transform="translate(0 -2.179)"/>
      <path d="M7.759,107.88c1.2,0,1.872.973,1.872,2.322v.307H6.9a1.034,1.034,0,0,0,1.053,1.062,1.311,1.311,0,0,0,.945-.424l.5.649a2.115,2.115,0,0,1-1.556.648,2.3,2.3,0,0,1-.081-4.564ZM6.9,109.771H8.587c-.019-.451-.217-1.018-.847-1.018C7.137,108.753,6.921,109.32,6.9,109.771Z" transform="translate(0 -2.179)"/>
      <path d="M11.277,112.714a1.454,1.454,0,0,0,1.117.477.911.911,0,0,0,.972-1.026v-.531a1.306,1.306,0,0,1-1.1.666c-.972,0-1.6-.783-1.6-2.2,0-1.4.631-2.215,1.6-2.215a1.248,1.248,0,0,1,1.1.657v-.549h1.08v4.123a1.8,1.8,0,0,1-2,1.99,2.244,2.244,0,0,1-1.6-.558Zm2.089-3.366a.894.894,0,0,0-.747-.514c-.55,0-.838.5-.838,1.261s.288,1.251.838,1.251a.9.9,0,0,0,.747-.5Z" transform="translate(0 -2.179)"/>
      <path d="M15.857,106.7a.649.649,0,1,1,1.3,0,.649.649,0,1,1-1.3,0Zm.109,1.288h1.08v4.348h-1.08Z" transform="translate(0 -2.179)"/>
      <path d="M21,109.474c0-.459-.207-.64-.567-.64a.984.984,0,0,0-.792.54v2.962h-1.08v-4.348h1.08v.567a1.614,1.614,0,0,1,1.278-.675,1.056,1.056,0,0,1,1.161,1.188v3.268H21Z" transform="translate(0 -2.179)"/>
      <path d="M26.037,109.474c0-.459-.207-.64-.567-.64a.984.984,0,0,0-.792.54v2.962H23.6v-4.348h1.08v.567a1.614,1.614,0,0,1,1.278-.675,1.056,1.056,0,0,1,1.161,1.188v3.268h-1.08Z" transform="translate(0 -2.179)"/>
      <path d="M28.529,106.7a.649.649,0,1,1,1.3,0,.649.649,0,1,1-1.3,0Zm.109,1.288h1.08v4.348h-1.08Z" transform="translate(0 -2.179)"/>
      <path d="M33.67,109.474c0-.459-.207-.64-.567-.64a.984.984,0,0,0-.792.54v2.962H31.23v-4.348h1.081v.567a1.614,1.614,0,0,1,1.278-.675,1.056,1.056,0,0,1,1.161,1.188v3.268H33.67Z" transform="translate(0 -2.179)"/>
      <path d="M36.657,112.714a1.453,1.453,0,0,0,1.116.477.912.912,0,0,0,.973-1.026v-.531a1.306,1.306,0,0,1-1.1.666c-.971,0-1.6-.783-1.6-2.2,0-1.4.631-2.215,1.6-2.215a1.248,1.248,0,0,1,1.1.657v-.549h1.08v4.123a1.8,1.8,0,0,1-2,1.99,2.243,2.243,0,0,1-1.6-.558Zm2.089-3.366a.894.894,0,0,0-.747-.514c-.55,0-.838.5-.838,1.261s.288,1.251.838,1.251a.9.9,0,0,0,.747-.5Z" transform="translate(0 -2.179)"/>
      <path d="M45.676,110.157h-.649v2.179H43.821v-6h2.241a1.779,1.779,0,0,1,1.829,1.9,1.662,1.662,0,0,1-1.045,1.72l1.09,2.386H46.594Zm.207-2.772h-.856v1.728h.856a.778.778,0,0,0,.774-.864A.769.769,0,0,0,45.883,107.385Z" transform="translate(0 -2.179)"/>
      <path d="M50.77,107.88c1.2,0,1.872.973,1.872,2.322v.307H49.914a1.034,1.034,0,0,0,1.053,1.062,1.31,1.31,0,0,0,.945-.424l.495.649a2.115,2.115,0,0,1-1.556.648,2.3,2.3,0,0,1-.081-4.564Zm-.856,1.891H51.6c-.019-.451-.217-1.018-.847-1.018C50.148,108.753,49.932,109.32,49.914,109.771Z" transform="translate(0 -2.179)"/>
      <path d="M56.152,111.9a1.427,1.427,0,0,1-1.143.54A1.347,1.347,0,0,1,53.667,111a1.3,1.3,0,0,1,1.342-1.4,1.382,1.382,0,0,1,1.143.512v-.576a.714.714,0,0,0-.8-.756,1.531,1.531,0,0,0-1.072.468l-.405-.738a2.465,2.465,0,0,1,1.675-.63c.945,0,1.692.423,1.692,1.539v2.917H56.152Zm0-1.161a.838.838,0,0,0-.729-.424.655.655,0,0,0-.676.7.648.648,0,0,0,.676.694.813.813,0,0,0,.729-.414Z" transform="translate(0 -2.179)"/>
      <path d="M61.236,111.787a1.3,1.3,0,0,1-1.1.657c-.982,0-1.613-.855-1.613-2.277,0-1.4.631-2.287,1.613-2.287a1.266,1.266,0,0,1,1.1.657v-2.206h1.08v6h-1.08Zm0-2.439a.918.918,0,0,0-.756-.514c-.549,0-.837.567-.837,1.333s.288,1.323.837,1.323a.917.917,0,0,0,.756-.513Z" transform="translate(0 -2.179)"/>
      <path d="M64.477,107.925a.7.7,0,0,1,.692.693.707.707,0,0,1-.692.7.716.716,0,0,1-.7-.7A.708.708,0,0,1,64.477,107.925Zm0,3.115a.7.7,0,1,1-.7.7A.716.716,0,0,1,64.477,111.04Z" transform="translate(0 -2.179)"/>
      <path d="M71.253,106.241a2.034,2.034,0,0,1,1.54.649l-.585.881a1.089,1.089,0,0,0-.937-.467c-.747,0-1.2.846-1.2,1.809v.1a1.483,1.483,0,0,1,1.279-.756,1.726,1.726,0,0,1,1.683,1.944,1.935,1.935,0,0,1-1.972,2.044c-1.593,0-2.214-1.431-2.214-3.1C68.85,107.547,69.705,106.241,71.253,106.241Zm-.278,3.233a1.108,1.108,0,0,0-.9.621c.045.557.252,1.287.927,1.287a.853.853,0,0,0,.811-.937C71.812,109.734,71.406,109.474,70.975,109.474Z" transform="translate(0 -2.179)"/>
      <path d="M76.5,107.394H74.016v-1.063h3.852v.838l-1.863,5.167H74.7Z" transform="translate(0 -2.179)"/>
      <path d="M81.261,106.241a2.036,2.036,0,0,1,1.54.649l-.585.881a1.09,1.09,0,0,0-.937-.467c-.747,0-1.2.846-1.2,1.809v.1a1.483,1.483,0,0,1,1.278-.756,1.726,1.726,0,0,1,1.684,1.944,1.935,1.935,0,0,1-1.972,2.044c-1.593,0-2.215-1.431-2.215-3.1C78.857,107.547,79.713,106.241,81.261,106.241Zm-.279,3.233a1.108,1.108,0,0,0-.9.621c.045.557.252,1.287.927,1.287a.852.852,0,0,0,.81-.937C81.819,109.734,81.414,109.474,80.982,109.474Z" transform="translate(0 -2.179)"/>
      <path d="M85.509,107.889l-.909.945-.694-.73,1.765-1.773h1.053v6H85.509Z" transform="translate(0 -2.179)"/>
      <path d="M.531,117.331H3.97v1.054H1.737v1.377h2.17v1.045H1.737v1.476H3.97v1.053H.531Z" transform="translate(0 -2.179)"/>
      <path d="M7.8,120.474c0-.459-.207-.64-.567-.64a.984.984,0,0,0-.792.54v2.962H5.355v-4.348H6.436v.567a1.614,1.614,0,0,1,1.278-.675,1.056,1.056,0,0,1,1.161,1.188v3.268H7.8Z" transform="translate(0 -2.179)"/>
      <path d="M12.88,122.787a1.308,1.308,0,0,1-1.1.657c-.98,0-1.611-.855-1.611-2.277,0-1.4.631-2.287,1.611-2.287a1.269,1.269,0,0,1,1.1.657v-2.206h1.08v6H12.88Zm0-2.439a.919.919,0,0,0-.756-.514c-.55,0-.838.567-.838,1.333s.288,1.323.838,1.323a.918.918,0,0,0,.756-.513Z" transform="translate(0 -2.179)"/>
      <path d="M15.363,117.7a.649.649,0,1,1,1.3,0,.649.649,0,1,1-1.3,0Zm.109,1.288h1.08v4.348h-1.08Z" transform="translate(0 -2.179)"/>
      <path d="M20.5,120.474c0-.459-.207-.64-.567-.64a.984.984,0,0,0-.792.54v2.962H18.063v-4.348h1.081v.567a1.614,1.614,0,0,1,1.278-.675,1.056,1.056,0,0,1,1.161,1.188v3.268H20.5Z" transform="translate(0 -2.179)"/>
      <path d="M23.49,123.714a1.453,1.453,0,0,0,1.116.477.912.912,0,0,0,.973-1.026v-.531a1.306,1.306,0,0,1-1.1.666c-.971,0-1.6-.783-1.6-2.2,0-1.4.631-2.215,1.6-2.215a1.248,1.248,0,0,1,1.1.657v-.549h1.08v4.123a1.8,1.8,0,0,1-2,1.99,2.243,2.243,0,0,1-1.6-.558Zm2.089-3.366a.894.894,0,0,0-.747-.514c-.55,0-.838.5-.838,1.261s.288,1.251.838,1.251a.9.9,0,0,0,.747-.5Z" transform="translate(0 -2.179)"/>
      <path d="M32.509,121.157H31.86v2.179H30.654v-6H32.9a1.778,1.778,0,0,1,1.828,1.9,1.662,1.662,0,0,1-1.045,1.72l1.09,2.386H33.427Zm.207-2.772H31.86v1.728h.856a.778.778,0,0,0,.774-.864A.769.769,0,0,0,32.716,118.385Z" transform="translate(0 -2.179)"/>
      <path d="M37.6,118.88c1.2,0,1.872.973,1.872,2.322v.307H36.747a1.034,1.034,0,0,0,1.053,1.062,1.311,1.311,0,0,0,.945-.424l.5.649a2.115,2.115,0,0,1-1.556.648,2.3,2.3,0,0,1-.081-4.564Zm-.856,1.891h1.684c-.019-.451-.217-1.018-.847-1.018C36.98,119.753,36.765,120.32,36.747,120.771Z" transform="translate(0 -2.179)"/>
      <path d="M42.984,122.9a1.424,1.424,0,0,1-1.142.54A1.347,1.347,0,0,1,40.5,122a1.3,1.3,0,0,1,1.342-1.4,1.379,1.379,0,0,1,1.142.512v-.576a.713.713,0,0,0-.8-.756,1.531,1.531,0,0,0-1.072.468l-.405-.738a2.465,2.465,0,0,1,1.675-.63c.945,0,1.692.423,1.692,1.539v2.917h-1.09Zm0-1.161a.835.835,0,0,0-.728-.424.655.655,0,0,0-.676.7.648.648,0,0,0,.676.694.81.81,0,0,0,.728-.414Z" transform="translate(0 -2.179)"/>
      <path d="M48.069,122.787a1.3,1.3,0,0,1-1.1.657c-.981,0-1.612-.855-1.612-2.277,0-1.4.631-2.287,1.612-2.287a1.266,1.266,0,0,1,1.1.657v-2.206h1.08v6h-1.08Zm0-2.439a.918.918,0,0,0-.756-.514c-.549,0-.837.567-.837,1.333s.288,1.323.837,1.323a.917.917,0,0,0,.756-.513Z" transform="translate(0 -2.179)"/>
      <path d="M51.31,118.925a.7.7,0,0,1,.692.693.706.706,0,0,1-.692.7.715.715,0,0,1-.7-.7A.707.707,0,0,1,51.31,118.925Zm0,3.115a.7.7,0,1,1-.7.7A.715.715,0,0,1,51.31,122.04Z" transform="translate(0 -2.179)"/>
      <path d="M58.086,117.241a2.034,2.034,0,0,1,1.54.649l-.585.881a1.089,1.089,0,0,0-.937-.467c-.747,0-1.2.846-1.2,1.809v.1a1.483,1.483,0,0,1,1.279-.756,1.726,1.726,0,0,1,1.683,1.944,1.935,1.935,0,0,1-1.972,2.044c-1.593,0-2.214-1.431-2.214-3.1C55.683,118.547,56.538,117.241,58.086,117.241Zm-.278,3.233a1.108,1.108,0,0,0-.9.621c.045.557.252,1.287.927,1.287a.853.853,0,0,0,.811-.937C58.645,120.734,58.239,120.474,57.808,120.474Z" transform="translate(0 -2.179)"/>
      <path d="M62.091,120.239a1.514,1.514,0,0,1-1.063-1.431c0-1.1,1-1.567,1.99-1.567.972,0,1.99.469,1.99,1.567a1.524,1.524,0,0,1-1.071,1.431,1.749,1.749,0,0,1,1.152,1.558c0,1.071-.883,1.647-2.071,1.647s-2.08-.576-2.08-1.638A1.752,1.752,0,0,1,62.091,120.239Zm.927.487a1.038,1.038,0,0,0-.855.918.754.754,0,0,0,.855.747.764.764,0,0,0,.855-.747A1.048,1.048,0,0,0,63.018,120.726Zm0-2.431a.7.7,0,0,0-.784.711c0,.522.55.756.784.81.225-.054.774-.288.774-.81A.693.693,0,0,0,63.018,118.3Z" transform="translate(0 -2.179)"/>
      <path d="M68.58,118.394H66.1v-1.063h3.852v.838l-1.863,5.167H66.779Z" transform="translate(0 -2.179)"/>
      <path d="M72.324,118.889l-.909.945-.693-.73,1.764-1.773h1.053v6H72.324Z" transform="translate(0 -2.179)"/>
      <path d="M77.436,121.148a7.141,7.141,0,0,1,1.2-3.979l.728.433a8.678,8.678,0,0,0,0,7.085l-.728.441A7.122,7.122,0,0,1,77.436,121.148Z" transform="translate(0 -2.179)"/>
      <path d="M80.6,117.331h3.438v1.054H81.81v1.377h2.169v1.045H81.81v1.476h2.232v1.053H80.6Z" transform="translate(0 -2.179)"/>
      <path d="M85.554,122.066a1.779,1.779,0,0,0,1.2.532c.414,0,.64-.171.64-.451,0-.3-.334-.422-.748-.557-.613-.2-1.405-.433-1.405-1.4,0-.7.568-1.306,1.585-1.306a2.247,2.247,0,0,1,1.512.558l-.432.729a1.473,1.473,0,0,0-1.062-.45c-.342,0-.576.162-.576.405,0,.261.3.388.7.514.631.2,1.459.459,1.459,1.458,0,.783-.64,1.35-1.657,1.35a2.3,2.3,0,0,1-1.674-.621Z" transform="translate(0 -2.179)"/>
      <path d="M89.863,122.292v-2.358H89.3v-.946h.566V117.8h1.081v1.188h.72v.946h-.72v2.106c0,.279.108.45.315.45a.43.43,0,0,0,.324-.126l.226.828a1.255,1.255,0,0,1-.838.252C90.215,123.444,89.863,123.057,89.863,122.292Z" transform="translate(0 -2.179)"/>
      <path d="M92.789,117.7a.649.649,0,1,1,1.3,0,.649.649,0,1,1-1.3,0Zm.108,1.288h1.081v4.348H92.9Z" transform="translate(0 -2.179)"/>
      <path d="M100.135,120.41c0-.36-.154-.576-.5-.576a.946.946,0,0,0-.747.54v2.962H97.812V120.41c0-.35-.144-.576-.5-.576a.964.964,0,0,0-.747.54v2.962h-1.08v-4.348h1.08v.567a1.542,1.542,0,0,1,1.225-.675.978.978,0,0,1,1.053.756,1.546,1.546,0,0,1,1.269-.756,1.009,1.009,0,0,1,1.1,1.152v3.3h-1.08Z" transform="translate(0 -2.179)"/>
      <path d="M104.975,122.9a1.427,1.427,0,0,1-1.143.54A1.347,1.347,0,0,1,102.49,122a1.3,1.3,0,0,1,1.342-1.4,1.382,1.382,0,0,1,1.143.512v-.576a.713.713,0,0,0-.8-.756,1.527,1.527,0,0,0-1.071.468l-.406-.738a2.465,2.465,0,0,1,1.675-.63c.945,0,1.692.423,1.692,1.539v2.917h-1.089Zm0-1.161a.838.838,0,0,0-.729-.424.655.655,0,0,0-.676.7.648.648,0,0,0,.676.694.813.813,0,0,0,.729-.414Z" transform="translate(0 -2.179)"/>
      <path d="M107.765,122.292v-2.358H107.2v-.946h.567V117.8h1.081v1.188h.719v.946h-.719v2.106c0,.279.107.45.314.45a.428.428,0,0,0,.324-.126l.226.828a1.251,1.251,0,0,1-.838.252C108.116,123.444,107.765,123.057,107.765,122.292Z" transform="translate(0 -2.179)"/>
      <path d="M112.518,118.88c1.2,0,1.872.973,1.872,2.322v.307h-2.728a1.034,1.034,0,0,0,1.053,1.062,1.31,1.31,0,0,0,.945-.424l.5.649a2.115,2.115,0,0,1-1.556.648,2.3,2.3,0,0,1-.081-4.564Zm-.856,1.891h1.684c-.019-.451-.217-1.018-.847-1.018C111.9,119.753,111.68,120.32,111.662,120.771Z" transform="translate(0 -2.179)"/>
      <path d="M115.333,117.6l.729-.433a7.164,7.164,0,0,1,0,7.959l-.729-.441a8.667,8.667,0,0,0,0-7.085Z" transform="translate(0 -2.179)"/>
      <path d="M.531,128.331H2.467c1.656,0,2.61,1.243,2.61,3.007s-.945,3-2.61,3H.531Zm1.936,4.942c.891,0,1.377-.792,1.377-1.935,0-1.188-.468-1.944-1.377-1.944h-.73v3.879Z" transform="translate(0 -2.179)"/>
      <path d="M6.291,128.7a.649.649,0,1,1,1.3,0,.649.649,0,1,1-1.3,0Zm.108,1.288h1.08v4.348H6.4Z" transform="translate(0 -2.179)"/>
      <path d="M9.189,130.934H8.631v-.946h.558v-.342a1.248,1.248,0,0,1,1.279-1.4,1.656,1.656,0,0,1,.711.145l-.19.819a.57.57,0,0,0-.278-.072c-.262,0-.433.179-.433.521v.334h.711v.946h-.711v3.4H9.189Zm2.593,0h-.558v-.946h.558v-.342a1.248,1.248,0,0,1,1.279-1.4,1.648,1.648,0,0,1,.71.145l-.189.819a.572.572,0,0,0-.278-.072c-.262,0-.433.179-.433.521v.334h.711v.946h-.711v3.4H11.782Z" transform="translate(0 -2.179)"/>
      <path d="M16.444,129.88c1.2,0,1.872.973,1.872,2.322v.307H15.589a1.034,1.034,0,0,0,1.053,1.062,1.311,1.311,0,0,0,.945-.424l.5.649a2.119,2.119,0,0,1-1.557.648,2.3,2.3,0,0,1-.081-4.564Zm-.855,1.891h1.683c-.018-.451-.216-1.018-.846-1.018C15.822,130.753,15.606,131.32,15.589,131.771Z" transform="translate(0 -2.179)"/>
      <path d="M19.575,129.988h1.08v.6a1.481,1.481,0,0,1,1.189-.7v1.053a1.114,1.114,0,0,0-.261-.027,1.2,1.2,0,0,0-.928.523v2.9h-1.08Z" transform="translate(0 -2.179)"/>
      <path d="M24.715,129.88c1.2,0,1.872.973,1.872,2.322v.307H23.859a1.034,1.034,0,0,0,1.053,1.062,1.31,1.31,0,0,0,.945-.424l.5.649a2.119,2.119,0,0,1-1.557.648,2.3,2.3,0,0,1-.081-4.564Zm-.856,1.891h1.684c-.019-.451-.217-1.018-.847-1.018C24.094,130.753,23.877,131.32,23.859,131.771Z" transform="translate(0 -2.179)"/>
      <path d="M30.285,131.474c0-.459-.207-.64-.567-.64a.984.984,0,0,0-.792.54v2.962h-1.08v-4.348h1.08v.567a1.614,1.614,0,0,1,1.278-.675,1.056,1.056,0,0,1,1.161,1.188v3.268h-1.08Z" transform="translate(0 -2.179)"/>
      <path d="M33.074,133.292v-2.358h-.566v-.946h.566V128.8h1.081v1.188h.72v.946h-.72v2.106c0,.279.108.45.315.45a.431.431,0,0,0,.324-.126l.226.828a1.255,1.255,0,0,1-.838.252C33.426,134.444,33.074,134.057,33.074,133.292Z" transform="translate(0 -2.179)"/>
      <path d="M36,128.7a.649.649,0,1,1,1.3,0,.649.649,0,1,1-1.3,0Zm.108,1.288h1.081v4.348H36.107Z" transform="translate(0 -2.179)"/>
      <path d="M40.951,133.9a1.427,1.427,0,0,1-1.143.54A1.347,1.347,0,0,1,38.466,133a1.3,1.3,0,0,1,1.342-1.4,1.382,1.382,0,0,1,1.143.512v-.576a.714.714,0,0,0-.8-.756,1.527,1.527,0,0,0-1.071.468l-.405-.738a2.465,2.465,0,0,1,1.675-.63c.945,0,1.692.423,1.692,1.539v2.917H40.951Zm0-1.161a.838.838,0,0,0-.729-.424.655.655,0,0,0-.676.7.648.648,0,0,0,.676.694.813.813,0,0,0,.729-.414Z" transform="translate(0 -2.179)"/>
      <path d="M43.551,128.331h1.08v6.005h-1.08Z" transform="translate(0 -2.179)"/>
      <path d="M46.791,129.925a.7.7,0,0,1,.692.693.706.706,0,0,1-.692.7.715.715,0,0,1-.7-.7A.707.707,0,0,1,46.791,129.925Zm0,3.115a.7.7,0,1,1-.7.7A.715.715,0,0,1,46.791,133.04Z" transform="translate(0 -2.179)"/>
      <path d="M51.272,133.364c2.2-2.134,2.656-2.611,2.656-3.3a.75.75,0,0,0-.8-.757,1.544,1.544,0,0,0-1.278.676l-.721-.757a2.445,2.445,0,0,1,2.017-.99,1.822,1.822,0,0,1,2.007,1.819c0,.909-.612,1.683-2.125,3.213H55.18v1.063H51.272Z" transform="translate(0 -2.179)"/>
      <path d="M58.519,128.241c1.494,0,2.124,1.387,2.124,3.1s-.622,3.106-2.124,3.106c-1.486,0-2.125-1.4-2.125-3.106S57.033,128.241,58.519,128.241Zm0,1.071c-.694,0-.892.865-.892,2.026s.2,2.035.892,2.035.9-.883.9-2.035S59.221,129.312,58.519,129.312Z" transform="translate(0 -2.179)"/>
      <path d="M64.107,133.058H61.658V132.05l2.108-3.719h1.547V132h.6v1.063h-.6v1.278H64.107ZM62.748,132h1.359v-2.439Z" transform="translate(0 -2.179)"/>
      <path d="M.288,142.338c0-1.818.982-3.106,2.521-3.106a2.118,2.118,0,0,1,2.025,1.441l-1,.441a1.106,1.106,0,0,0-1.026-.81c-.792,0-1.279.855-1.279,2.034s.487,2.035,1.279,2.035a1.132,1.132,0,0,0,1.035-.873l1,.432a2.129,2.129,0,0,1-2.035,1.512C1.27,145.444.288,144.157.288,142.338Z" transform="translate(0 -2.179)"/>
      <path d="M5.822,143.157a2.04,2.04,0,0,1,1.963-2.277,2.306,2.306,0,0,1,0,4.564A2.044,2.044,0,0,1,5.822,143.157Zm2.819,0c0-.711-.262-1.323-.856-1.323-.576,0-.837.612-.837,1.323s.261,1.333.837,1.333C8.379,144.49,8.641,143.878,8.641,143.157Z" transform="translate(0 -2.179)"/>
      <path d="M13.482,142.474c0-.459-.207-.64-.567-.64a.985.985,0,0,0-.792.54v2.962h-1.08v-4.348h1.08v.567a1.615,1.615,0,0,1,1.278-.675,1.056,1.056,0,0,1,1.161,1.188v3.268h-1.08Z" transform="translate(0 -2.179)"/>
      <path d="M16.209,144.066a1.781,1.781,0,0,0,1.2.532c.414,0,.639-.171.639-.451,0-.3-.333-.422-.747-.557-.612-.2-1.4-.433-1.4-1.4,0-.7.567-1.306,1.585-1.306a2.245,2.245,0,0,1,1.511.558l-.431.729a1.475,1.475,0,0,0-1.063-.45c-.342,0-.576.162-.576.405,0,.261.3.388.7.514.631.2,1.459.459,1.459,1.458,0,.783-.64,1.35-1.657,1.35a2.3,2.3,0,0,1-1.674-.621Z" transform="translate(0 -2.179)"/>
      <path d="M20.52,144.292v-2.358h-.567v-.946h.567V139.8H21.6v1.188h.719v.946H21.6v2.106c0,.279.107.45.314.45a.428.428,0,0,0,.324-.126l.226.828a1.253,1.253,0,0,1-.838.252C20.871,145.444,20.52,145.057,20.52,144.292Z" transform="translate(0 -2.179)"/>
      <path d="M25.8,144.9a1.425,1.425,0,0,1-1.143.54A1.348,1.348,0,0,1,23.318,144a1.3,1.3,0,0,1,1.342-1.4,1.382,1.382,0,0,1,1.143.512v-.576a.713.713,0,0,0-.8-.756,1.527,1.527,0,0,0-1.071.468l-.406-.738a2.467,2.467,0,0,1,1.675-.63c.946,0,1.693.423,1.693,1.539v2.917H25.8Zm0-1.161a.838.838,0,0,0-.729-.424.655.655,0,0,0-.676.7.648.648,0,0,0,.676.694.813.813,0,0,0,.729-.414Z" transform="translate(0 -2.179)"/>
      <path d="M30.844,142.474c0-.459-.207-.64-.568-.64a.987.987,0,0,0-.792.54v2.962H28.4v-4.348h1.08v.567a1.617,1.617,0,0,1,1.279-.675,1.056,1.056,0,0,1,1.161,1.188v3.268h-1.08Z" transform="translate(0 -2.179)"/>
      <path d="M33.633,144.292v-2.358h-.567v-.946h.567V139.8h1.081v1.188h.72v.946h-.72v2.106c0,.279.107.45.314.45a.432.432,0,0,0,.325-.126l.225.828a1.251,1.251,0,0,1-.838.252C33.984,145.444,33.633,145.057,33.633,144.292Z" transform="translate(0 -2.179)"/>
      <path d="M37.314,140.925a.7.7,0,0,1,.693.693.707.707,0,0,1-.693.7.716.716,0,0,1-.7-.7A.708.708,0,0,1,37.314,140.925Zm0,3.115a.7.7,0,1,1-.7.7A.716.716,0,0,1,37.314,144.04Z" transform="translate(0 -2.179)"/>
      <path d="M43.812,139.241c1.5,0,2.125,1.387,2.125,3.1s-.622,3.106-2.125,3.106c-1.485,0-2.124-1.4-2.124-3.106S42.327,139.241,43.812,139.241Zm0,1.071c-.693,0-.891.865-.891,2.026s.2,2.035.891,2.035.9-.883.9-2.035S44.515,140.312,43.812,140.312Z" transform="translate(0 -2.179)"/>
      <path d="M47.728,144.04a.7.7,0,1,1-.7.7A.715.715,0,0,1,47.728,144.04Z" transform="translate(0 -2.179)"/>
      <path d="M50.185,140.889l-.91.945-.693-.73,1.765-1.773H51.4v6.005H50.185Z" transform="translate(0 -2.179)"/>
      <path d="M.288,153.338c0-1.818.982-3.106,2.521-3.106a2.118,2.118,0,0,1,2.025,1.441l-1,.441a1.106,1.106,0,0,0-1.026-.81c-.792,0-1.279.855-1.279,2.034s.487,2.035,1.279,2.035a1.132,1.132,0,0,0,1.035-.873l1,.432a2.129,2.129,0,0,1-2.035,1.512C1.27,156.444.288,155.157.288,153.338Z" transform="translate(0 -2.179)"/>
      <path d="M5.822,154.157a2.04,2.04,0,0,1,1.963-2.277,2.306,2.306,0,0,1,0,4.564A2.044,2.044,0,0,1,5.822,154.157Zm2.819,0c0-.711-.262-1.323-.856-1.323-.576,0-.837.612-.837,1.323s.261,1.333.837,1.333C8.379,155.49,8.641,154.878,8.641,154.157Z" transform="translate(0 -2.179)"/>
      <path d="M11.043,151.988h1.08v.6a1.481,1.481,0,0,1,1.189-.7v1.053a1.12,1.12,0,0,0-.261-.027,1.2,1.2,0,0,0-.928.523v2.9h-1.08Z" transform="translate(0 -2.179)"/>
      <path d="M14.463,151.988h1.08v.6a1.481,1.481,0,0,1,1.188-.7v1.053a1.1,1.1,0,0,0-.26-.027,1.2,1.2,0,0,0-.928.523v2.9h-1.08Z" transform="translate(0 -2.179)"/>
      <path d="M19.6,151.88c1.2,0,1.872.973,1.872,2.322v.307H18.747a1.034,1.034,0,0,0,1.053,1.062,1.311,1.311,0,0,0,.945-.424l.495.649a2.115,2.115,0,0,1-1.556.648,2.3,2.3,0,0,1-.081-4.564Zm-.856,1.891h1.684c-.019-.451-.217-1.018-.847-1.018C18.98,152.753,18.765,153.32,18.747,153.771Z" transform="translate(0 -2.179)"/>
      <path d="M24.5,151.88a1.732,1.732,0,0,1,1.386.585l-.54.747a.91.91,0,0,0-.729-.378c-.622,0-.991.567-.991,1.323s.369,1.333.991,1.333a.911.911,0,0,0,.729-.379l.54.748a1.732,1.732,0,0,1-1.386.585,2.3,2.3,0,0,1,0-4.564Z" transform="translate(0 -2.179)"/>
      <path d="M27.251,155.292v-2.358h-.566v-.946h.566V150.8h1.081v1.188h.72v.946h-.72v2.106c0,.279.107.45.314.45a.432.432,0,0,0,.325-.126l.225.828a1.251,1.251,0,0,1-.838.252C27.6,156.444,27.251,156.057,27.251,155.292Z" transform="translate(0 -2.179)"/>
      <path d="M30.177,150.7a.649.649,0,1,1,1.3,0,.649.649,0,1,1-1.3,0Zm.108,1.288h1.08v4.348h-1.08Z" transform="translate(0 -2.179)"/>
      <path d="M32.651,154.157a1.99,1.99,0,1,1,1.963,2.287A2.04,2.04,0,0,1,32.651,154.157Zm2.819,0c0-.711-.262-1.323-.856-1.323-.576,0-.837.612-.837,1.323s.261,1.333.837,1.333C35.208,155.49,35.47,154.878,35.47,154.157Z" transform="translate(0 -2.179)"/>
      <path d="M40.312,153.474c0-.459-.208-.64-.568-.64a.985.985,0,0,0-.792.54v2.962h-1.08v-4.348h1.08v.567a1.617,1.617,0,0,1,1.278-.675,1.057,1.057,0,0,1,1.162,1.188v3.268h-1.08Z" transform="translate(0 -2.179)"/>
      <path d="M45.54,152.934h-.559v-.946h.559v-.342a1.248,1.248,0,0,1,1.278-1.4,1.65,1.65,0,0,1,.711.145l-.189.819a.572.572,0,0,0-.278-.072c-.262,0-.433.179-.433.521v.334h.711v.946h-.711v3.4H45.54Z" transform="translate(0 -2.179)"/>
      <path d="M50.725,155.9a1.431,1.431,0,0,1-1.144.54A1.347,1.347,0,0,1,48.239,155a1.3,1.3,0,0,1,1.342-1.4,1.386,1.386,0,0,1,1.144.512v-.576a.714.714,0,0,0-.8-.756,1.527,1.527,0,0,0-1.071.468l-.406-.738a2.465,2.465,0,0,1,1.675-.63c.945,0,1.692.423,1.692,1.539v2.917H50.725Zm0-1.161a.841.841,0,0,0-.73-.424.655.655,0,0,0-.676.7.648.648,0,0,0,.676.694.816.816,0,0,0,.73-.414Z" transform="translate(0 -2.179)"/>
      <path d="M55.089,151.88a1.733,1.733,0,0,1,1.386.585l-.54.747a.91.91,0,0,0-.729-.378c-.622,0-.991.567-.991,1.323s.369,1.333.991,1.333a.911.911,0,0,0,.729-.379l.54.748a1.733,1.733,0,0,1-1.386.585,2.3,2.3,0,0,1,0-4.564Z" transform="translate(0 -2.179)"/>
      <path d="M57.842,155.292v-2.358h-.567v-.946h.567V150.8h1.081v1.188h.72v.946h-.72v2.106c0,.279.107.45.314.45a.432.432,0,0,0,.325-.126l.225.828a1.251,1.251,0,0,1-.838.252C58.193,156.444,57.842,156.057,57.842,155.292Z" transform="translate(0 -2.179)"/>
      <path d="M60.649,154.157a1.99,1.99,0,1,1,1.963,2.287A2.04,2.04,0,0,1,60.649,154.157Zm2.819,0c0-.711-.262-1.323-.856-1.323-.576,0-.837.612-.837,1.323s.261,1.333.837,1.333C63.206,155.49,63.468,154.878,63.468,154.157Z" transform="translate(0 -2.179)"/>
      <path d="M65.87,151.988h1.08v.6a1.481,1.481,0,0,1,1.189-.7v1.053a1.114,1.114,0,0,0-.261-.027,1.2,1.2,0,0,0-.928.523v2.9H65.87Z" transform="translate(0 -2.179)"/>
      <path d="M69.335,150.331h1.206v4.942h2.017v1.063H69.335Z" transform="translate(0 -2.179)"/>
      <path d="M77.444,151.889l-.909.945-.693-.73,1.764-1.773h1.053v6.005H77.444Z" transform="translate(0 -2.179)"/>
      <path d="M80.864,155.04a.7.7,0,1,1-.7.7A.714.714,0,0,1,80.864,155.04Z" transform="translate(0 -2.179)"/>
      <path d="M84.95,150.241c1.494,0,2.124,1.387,2.124,3.1s-.621,3.106-2.124,3.106c-1.485,0-2.125-1.4-2.125-3.106S83.465,150.241,84.95,150.241Zm0,1.071c-.693,0-.891.865-.891,2.026s.2,2.035.891,2.035.9-.883.9-2.035S85.652,151.312,84.95,151.312Z" transform="translate(0 -2.179)"/>
      <path d="M89.585,151.889l-.909.945-.694-.73,1.765-1.773H90.8v6.005H89.585Z" transform="translate(0 -2.179)"/>
      <path d="M94.283,150.241c1.494,0,2.124,1.387,2.124,3.1s-.621,3.106-2.124,3.106c-1.485,0-2.125-1.4-2.125-3.106S92.8,150.241,94.283,150.241Zm0,1.071c-.693,0-.891.865-.891,2.026s.2,2.035.891,2.035.9-.883.9-2.035S94.985,151.312,94.283,151.312Z" transform="translate(0 -2.179)"/>
      <path d="M97.64,155.364c2.2-2.134,2.655-2.611,2.655-3.3a.75.75,0,0,0-.8-.757,1.544,1.544,0,0,0-1.278.676l-.721-.757a2.445,2.445,0,0,1,2.017-.99,1.823,1.823,0,0,1,2.008,1.819c0,.909-.613,1.683-2.125,3.213h2.152v1.063H97.64Z" transform="translate(0 -2.179)"/>
      <path d="M103.9,153.239a1.515,1.515,0,0,1-1.062-1.431c0-1.1,1-1.567,1.989-1.567.973,0,1.99.469,1.99,1.567a1.524,1.524,0,0,1-1.071,1.431A1.75,1.75,0,0,1,106.9,154.8c0,1.071-.882,1.647-2.071,1.647s-2.079-.576-2.079-1.638A1.751,1.751,0,0,1,103.9,153.239Zm.927.487a1.038,1.038,0,0,0-.854.918.754.754,0,0,0,.854.747.764.764,0,0,0,.856-.747A1.049,1.049,0,0,0,104.831,153.726Zm0-2.431a.7.7,0,0,0-.783.711c0,.522.55.756.783.81.226-.054.774-.288.774-.81A.693.693,0,0,0,104.831,151.295Z" transform="translate(0 -2.179)"/>
      <path d="M.531,161.331H1.746v3.943c0,.711.343,1.108.982,1.108s.981-.4.981-1.108v-3.943H4.925v3.935a2.007,2.007,0,0,1-2.2,2.178,2.007,2.007,0,0,1-2.2-2.178Z" transform="translate(0 -2.179)"/>
      <path d="M6.606,166.066a1.781,1.781,0,0,0,1.2.532c.414,0,.639-.171.639-.451,0-.3-.334-.422-.748-.557-.612-.2-1.4-.433-1.4-1.4,0-.7.567-1.306,1.585-1.306a2.247,2.247,0,0,1,1.512.558l-.432.729a1.475,1.475,0,0,0-1.062-.45c-.342,0-.577.162-.577.405,0,.261.3.388.7.514.63.2,1.459.459,1.459,1.458,0,.783-.64,1.35-1.658,1.35a2.3,2.3,0,0,1-1.674-.621Z" transform="translate(0 -2.179)"/>
      <path d="M12.979,166.9a1.427,1.427,0,0,1-1.143.54A1.347,1.347,0,0,1,10.494,166a1.3,1.3,0,0,1,1.342-1.4,1.382,1.382,0,0,1,1.143.512v-.576a.713.713,0,0,0-.8-.756,1.531,1.531,0,0,0-1.072.468l-.4-.738a2.465,2.465,0,0,1,1.675-.63c.945,0,1.692.423,1.692,1.539v2.917H12.979Zm0-1.161a.838.838,0,0,0-.729-.424.655.655,0,0,0-.676.7.648.648,0,0,0,.676.694.813.813,0,0,0,.729-.414Z" transform="translate(0 -2.179)"/>
      <path d="M15.966,167.714a1.453,1.453,0,0,0,1.116.477.912.912,0,0,0,.973-1.026v-.531a1.308,1.308,0,0,1-1.1.666c-.972,0-1.6-.783-1.6-2.205,0-1.4.63-2.215,1.6-2.215a1.248,1.248,0,0,1,1.1.657v-.549h1.08v4.123a1.8,1.8,0,0,1-2,1.99,2.245,2.245,0,0,1-1.6-.558Zm2.089-3.366a.9.9,0,0,0-.747-.514c-.55,0-.838.5-.838,1.261s.288,1.251.838,1.251a.9.9,0,0,0,.747-.5Z" transform="translate(0 -2.179)"/>
      <path d="M22.375,162.88c1.2,0,1.872.973,1.872,2.322v.307H21.52a1.033,1.033,0,0,0,1.052,1.062,1.314,1.314,0,0,0,.946-.424l.5.649a2.119,2.119,0,0,1-1.557.648,2.3,2.3,0,0,1-.081-4.564Zm-.855,1.891H23.2c-.018-.451-.217-1.018-.847-1.018C21.754,163.753,21.537,164.32,21.52,164.771Z" transform="translate(0 -2.179)"/>
      <path d="M26.154,162.925a.7.7,0,0,1,.693.693.707.707,0,0,1-.693.7.715.715,0,0,1-.7-.7A.707.707,0,0,1,26.154,162.925Zm0,3.115a.7.7,0,1,1-.7.7A.715.715,0,0,1,26.154,166.04Z" transform="translate(0 -2.179)"/>
      <path d="M31.914,162.889l-.909.945-.693-.73,1.764-1.773h1.053v6.005H31.914Z" transform="translate(0 -2.179)"/>
      <path d="M35.874,162.889l-.909.945-.694-.73,1.765-1.773h1.053v6.005H35.874Z" transform="translate(0 -2.179)"/>
      <path d="M39.294,166.04a.7.7,0,1,1-.7.7A.714.714,0,0,1,39.294,166.04Z" transform="translate(0 -2.179)"/>
      <path d="M43.38,161.241c1.494,0,2.124,1.387,2.124,3.1s-.621,3.106-2.124,3.106c-1.485,0-2.125-1.4-2.125-3.106S41.9,161.241,43.38,161.241Zm0,1.071c-.693,0-.892.865-.892,2.026s.2,2.035.892,2.035.9-.883.9-2.035S44.082,162.312,43.38,162.312Z" transform="translate(0 -2.179)"/>
      <path d="M53.677,163.213l-1.351,4.123h-.495L50.5,163.213v4.123H49.3v-6.005h1.62l1.162,3.6,1.17-3.6h1.611v6.005H53.677Z" transform="translate(0 -2.179)"/>
      <path d="M58.176,162.88a1.733,1.733,0,0,1,1.386.585l-.541.747a.907.907,0,0,0-.728-.378c-.622,0-.991.567-.991,1.323s.369,1.333.991,1.333a.908.908,0,0,0,.728-.379l.541.748a1.733,1.733,0,0,1-1.386.585,2.3,2.3,0,0,1,0-4.564Z" transform="translate(0 -2.179)"/>
      <path d="M60.938,163.934H60.38v-.946h.558v-.342a1.248,1.248,0,0,1,1.279-1.4,1.656,1.656,0,0,1,.711.145l-.19.819a.57.57,0,0,0-.278-.072c-.262,0-.433.179-.433.521v.334h.711v.946h-.711v3.4H60.938Z" transform="translate(0 -2.179)"/>
      <path d="M1.53,173.394H.189v-1.063h3.88v1.063H2.736v4.942H1.53Z" transform="translate(0 -2.179)"/>
      <path d="M4.392,176.157a2.039,2.039,0,0,1,1.962-2.277,2.306,2.306,0,0,1,0,4.564A2.043,2.043,0,0,1,4.392,176.157Zm2.818,0c0-.711-.262-1.323-.856-1.323-.576,0-.836.612-.836,1.323s.26,1.333.836,1.333C6.948,177.49,7.21,176.878,7.21,176.157Z" transform="translate(0 -2.179)"/>
      <path d="M9.8,177.292v-2.358H9.234v-.946H9.8V172.8h1.081v1.188h.72v.946h-.72v2.106c0,.279.107.45.314.45a.432.432,0,0,0,.325-.126l.225.828a1.251,1.251,0,0,1-.838.252C10.152,178.444,9.8,178.057,9.8,177.292Z" transform="translate(0 -2.179)"/>
      <path d="M15.084,177.9a1.425,1.425,0,0,1-1.143.54A1.347,1.347,0,0,1,12.6,177a1.3,1.3,0,0,1,1.341-1.4,1.38,1.38,0,0,1,1.143.512v-.576a.713.713,0,0,0-.8-.756,1.527,1.527,0,0,0-1.071.468l-.4-.738a2.465,2.465,0,0,1,1.674-.63c.946,0,1.693.423,1.693,1.539v2.917h-1.09Zm0-1.161a.838.838,0,0,0-.729-.424.655.655,0,0,0-.675.7.648.648,0,0,0,.675.694.813.813,0,0,0,.729-.414Z" transform="translate(0 -2.179)"/>
      <path d="M17.686,172.331h1.08v6.005h-1.08Z" transform="translate(0 -2.179)"/>
      <path d="M27.127,174.213l-1.351,4.123h-.5l-1.332-4.123v4.123h-1.2v-6.005h1.62l1.161,3.6,1.171-3.6h1.611v6.005H27.127Z" transform="translate(0 -2.179)"/>
      <path d="M31.582,173.88c1.2,0,1.872.973,1.872,2.322v.307H30.727a1.033,1.033,0,0,0,1.052,1.062,1.314,1.314,0,0,0,.946-.424l.495.649a2.119,2.119,0,0,1-1.557.648,2.3,2.3,0,0,1-.081-4.564Zm-.855,1.891H32.41c-.018-.451-.217-1.018-.847-1.018C30.961,174.753,30.744,175.32,30.727,175.771Z" transform="translate(0 -2.179)"/>
      <path d="M34.9,177.292v-2.358h-.566v-.946H34.9V172.8h1.081v1.188h.72v.946h-.72v2.106c0,.279.108.45.315.45a.43.43,0,0,0,.324-.126l.226.828a1.253,1.253,0,0,1-.838.252C35.253,178.444,34.9,178.057,34.9,177.292Z" transform="translate(0 -2.179)"/>
      <path d="M39.654,173.88c1.2,0,1.872.973,1.872,2.322v.307H38.8a1.034,1.034,0,0,0,1.053,1.062,1.31,1.31,0,0,0,.945-.424l.5.649a2.119,2.119,0,0,1-1.557.648,2.3,2.3,0,0,1-.081-4.564Zm-.855,1.891h1.683c-.018-.451-.216-1.018-.846-1.018C39.033,174.753,38.816,175.32,38.8,175.771Z" transform="translate(0 -2.179)"/>
      <path d="M42.785,173.988h1.08v.6a1.481,1.481,0,0,1,1.189-.7v1.053a1.114,1.114,0,0,0-.261-.027,1.2,1.2,0,0,0-.928.523v2.9h-1.08Z" transform="translate(0 -2.179)"/>
      <path d="M47.925,173.88c1.2,0,1.872.973,1.872,2.322v.307H47.069a1.034,1.034,0,0,0,1.053,1.062,1.311,1.311,0,0,0,.945-.424l.495.649a2.115,2.115,0,0,1-1.556.648,2.3,2.3,0,0,1-.081-4.564Zm-.856,1.891h1.684c-.019-.451-.217-1.018-.847-1.018C47.3,174.753,47.087,175.32,47.069,175.771Z" transform="translate(0 -2.179)"/>
      <path d="M53.541,177.787a1.307,1.307,0,0,1-1.1.657c-.981,0-1.612-.855-1.612-2.277,0-1.4.631-2.287,1.612-2.287a1.268,1.268,0,0,1,1.1.657v-2.206h1.08v6.005h-1.08Zm0-2.439a.919.919,0,0,0-.756-.514c-.55,0-.838.567-.838,1.333s.288,1.323.838,1.323a.918.918,0,0,0,.756-.513Z" transform="translate(0 -2.179)"/>
      <path d="M58.607,172.331h3.439v1.054H59.813v1.377h2.17v1.045h-2.17v1.476h2.233v1.053H58.607Z" transform="translate(0 -2.179)"/>
      <path d="M65.871,175.474c0-.459-.207-.64-.567-.64a.984.984,0,0,0-.792.54v2.962h-1.08v-4.348h1.08v.567a1.614,1.614,0,0,1,1.278-.675,1.056,1.056,0,0,1,1.161,1.188v3.268h-1.08Z" transform="translate(0 -2.179)"/>
      <path d="M70.19,173.88c1.2,0,1.872.973,1.872,2.322v.307H69.335a1.034,1.034,0,0,0,1.053,1.062,1.311,1.311,0,0,0,.945-.424l.5.649a2.119,2.119,0,0,1-1.557.648,2.3,2.3,0,0,1-.081-4.564Zm-.855,1.891h1.684c-.019-.451-.217-1.018-.847-1.018C69.568,174.753,69.353,175.32,69.335,175.771Z" transform="translate(0 -2.179)"/>
      <path d="M73.322,173.988H74.4v.6a1.482,1.482,0,0,1,1.189-.7v1.053a1.108,1.108,0,0,0-.261-.027,1.2,1.2,0,0,0-.928.523v2.9h-1.08Z" transform="translate(0 -2.179)"/>
      <path d="M77.129,178.714a1.453,1.453,0,0,0,1.116.477.912.912,0,0,0,.973-1.026v-.531a1.308,1.308,0,0,1-1.1.666c-.972,0-1.6-.783-1.6-2.205,0-1.4.63-2.215,1.6-2.215a1.248,1.248,0,0,1,1.1.657v-.549H80.3v4.123a1.8,1.8,0,0,1-2,1.99,2.245,2.245,0,0,1-1.6-.558Zm2.089-3.366a.894.894,0,0,0-.747-.514c-.55,0-.838.5-.838,1.261s.288,1.251.838,1.251a.9.9,0,0,0,.747-.5Z" transform="translate(0 -2.179)"/>
      <path d="M82.16,179.146a.445.445,0,0,0,.478-.315l.143-.414-1.467-4.429h1.153l.873,3.043.882-3.043h1.152l-1.7,5.086a1.327,1.327,0,0,1-1.432,1.027,2.5,2.5,0,0,1-.522-.063l.162-.955A.742.742,0,0,0,82.16,179.146Z" transform="translate(0 -2.179)"/>
      <path d="M88.847,172.331h1.215v3.943c0,.711.342,1.108.981,1.108s.981-.4.981-1.108v-3.943H93.24v3.935a2.2,2.2,0,0,1-4.393,0Z" transform="translate(0 -2.179)"/>
      <path d="M94.922,177.066a1.779,1.779,0,0,0,1.2.532c.414,0,.639-.171.639-.451,0-.3-.333-.422-.747-.557-.613-.2-1.405-.433-1.405-1.4,0-.7.568-1.306,1.585-1.306a2.247,2.247,0,0,1,1.512.558l-.432.729a1.473,1.473,0,0,0-1.062-.45c-.342,0-.576.162-.576.405,0,.261.3.388.7.514.631.2,1.459.459,1.459,1.458,0,.783-.64,1.35-1.657,1.35a2.3,2.3,0,0,1-1.674-.621Z" transform="translate(0 -2.179)"/>
      <path d="M100.764,173.88c1.2,0,1.872.973,1.872,2.322v.307H99.908a1.034,1.034,0,0,0,1.053,1.062,1.31,1.31,0,0,0,.945-.424l.495.649a2.115,2.115,0,0,1-1.556.648,2.3,2.3,0,0,1-.081-4.564Zm-.856,1.891h1.684c-.019-.451-.217-1.018-.847-1.018C100.143,174.753,99.926,175.32,99.908,175.771Z" transform="translate(0 -2.179)"/>
      <path d="M104.543,173.925a.7.7,0,0,1,.692.693.706.706,0,0,1-.692.7.715.715,0,0,1-.7-.7A.707.707,0,0,1,104.543,173.925Zm0,3.115a.7.7,0,1,1-.7.7A.715.715,0,0,1,104.543,177.04Z" transform="translate(0 -2.179)"/>
      <path d="M110.3,173.889l-.909.945-.694-.73,1.765-1.773h1.053v6.005H110.3Z" transform="translate(0 -2.179)"/>
      <path d="M114.263,173.889l-.909.945-.694-.73,1.765-1.773h1.053v6.005h-1.215Z" transform="translate(0 -2.179)"/>
      <path d="M121.454,174.213l-1.35,4.123h-.5l-1.332-4.123v4.123h-1.2v-6.005h1.62l1.162,3.6,1.17-3.6h1.612v6.005h-1.189Z" transform="translate(0 -2.179)"/>
      <path d="M125.954,173.88a1.732,1.732,0,0,1,1.386.585l-.54.747a.909.909,0,0,0-.729-.378c-.622,0-.991.567-.991,1.323s.369,1.333.991,1.333a.91.91,0,0,0,.729-.379l.54.748a1.732,1.732,0,0,1-1.386.585,2.3,2.3,0,0,1,0-4.564Z" transform="translate(0 -2.179)"/>
      <path d="M128.717,174.934h-.559v-.946h.559v-.342a1.248,1.248,0,0,1,1.278-1.4,1.653,1.653,0,0,1,.711.145l-.189.819a.573.573,0,0,0-.279-.072c-.261,0-.432.179-.432.521v.334h.711v.946h-.711v3.4h-1.089Z" transform="translate(0 -2.179)"/>
    </g>
    <line y1="40.715" x2="131.556" y2="40.715" fill="none" stroke="#328aca" stroke-miterlimit="10"/>
  </g>
</svg>
