<svg xmlns="http://www.w3.org/2000/svg" width="136.583" height="177.922" viewBox="0 0 136.583 177.922">
  <g>
    <g>
      <path d="M7.494,4.112,5,11.662H4.566L2.1,4.112v7.55H.98V2.319H2.535l2.256,6.85L7.06,2.319H8.587v9.343H7.494Z" transform="translate(0 -2.18)" fill="#0b79bf"/>
      <path d="M13.666,4.729c1.778,0,2.675,1.6,2.675,3.572v.307H11.957C12,9.968,12.7,10.99,13.9,10.99a2.085,2.085,0,0,0,1.611-.827l.532.589A2.816,2.816,0,0,1,13.82,11.83c-1.807,0-2.9-1.484-2.9-3.558C10.92,6.312,11.957,4.729,13.666,4.729ZM11.957,7.866h3.39c-.014-1.036-.462-2.3-1.7-2.3C12.461,5.569,11.985,6.872,11.957,7.866Z" transform="translate(0 -2.18)" fill="#0b79bf"/>
      <path d="M18.773,10.3V5.779h-.9V4.9h.9V3.048h1.009V4.9h1.149v.883H19.782v4.342c0,.519.155.813.547.813a.756.756,0,0,0,.588-.266l.309.756a1.458,1.458,0,0,1-1.093.406C19.208,11.83,18.773,11.312,18.773,10.3Z" transform="translate(0 -2.18)" fill="#0b79bf"/>
      <path d="M25.439,4.729c1.779,0,2.675,1.6,2.675,3.572v.307H23.73c.042,1.36.743,2.382,1.948,2.382a2.083,2.083,0,0,0,1.61-.827l.532.589a2.814,2.814,0,0,1-2.226,1.078c-1.808,0-2.9-1.484-2.9-3.558C22.693,6.312,23.73,4.729,25.439,4.729ZM23.73,7.866h3.39c-.014-1.036-.462-2.3-1.7-2.3C24.234,5.569,23.759,6.872,23.73,7.866Z" transform="translate(0 -2.18)" fill="#0b79bf"/>
      <path d="M30.353,4.9h.994v1.08a2.268,2.268,0,0,1,1.919-1.219V5.793a1.438,1.438,0,0,0-.336-.042,2.03,2.03,0,0,0-1.583,1.106v4.805h-.994Z" transform="translate(0 -2.18)" fill="#0b79bf"/>
      <path d="M39.031,2.319h1.121v9.343H39.031Z" transform="translate(0 -2.18)" fill="#0b79bf"/>
      <path d="M46.481,6.844c0-.9-.406-1.219-1.078-1.219A1.979,1.979,0,0,0,43.82,6.7v4.958h-.994V4.9h.994v.967a2.511,2.511,0,0,1,1.961-1.134c1.149,0,1.709.616,1.709,1.834v5.1H46.481Z" transform="translate(0 -2.18)" fill="#0b79bf"/>
      <path d="M50.344,5.779h-.9V4.9h.9V4.07A1.661,1.661,0,0,1,52,2.18a1.886,1.886,0,0,1,.868.195l-.237.785a.968.968,0,0,0-.448-.112c-.533,0-.827.364-.827,1.022V4.9H52.5v.883H51.352v5.883H50.344Z" transform="translate(0 -2.18)" fill="#0b79bf"/>
      <path d="M54.1,8.272c0-1.905.953-3.543,2.746-3.543,1.821,0,2.76,1.638,2.76,3.543s-.939,3.558-2.76,3.558C55.048,11.83,54.1,10.178,54.1,8.272Zm4.455,0c0-1.358-.519-2.647-1.709-2.647-1.163,0-1.7,1.289-1.7,2.647,0,1.374.532,2.662,1.7,2.662C58.031,10.934,58.55,9.646,58.55,8.272Z" transform="translate(0 -2.18)" fill="#0b79bf"/>
      <path d="M61.88,4.9h.994v1.08a2.271,2.271,0,0,1,1.919-1.219V5.793a1.432,1.432,0,0,0-.336-.042,2.032,2.032,0,0,0-1.583,1.106v4.805H61.88Z" transform="translate(0 -2.18)" fill="#0b79bf"/>
      <path d="M73.559,6.76c0-.729-.294-1.135-.939-1.135A1.856,1.856,0,0,0,71.149,6.7v4.958H70.142V6.76c0-.729-.3-1.135-.954-1.135A1.894,1.894,0,0,0,67.718,6.7v4.958h-.994V4.9h.994v.967a2.34,2.34,0,0,1,1.848-1.134,1.424,1.424,0,0,1,1.528,1.205A2.327,2.327,0,0,1,73,4.729c.994,0,1.568.545,1.568,1.764v5.169H73.559Z" transform="translate(0 -2.18)" fill="#0b79bf"/>
      <path d="M80.654,10.934a2.116,2.116,0,0,1-1.779.9A2.078,2.078,0,0,1,76.83,9.575a2.046,2.046,0,0,1,2.045-2.227,2.106,2.106,0,0,1,1.779.869V7.04A1.284,1.284,0,0,0,79.268,5.6a2.153,2.153,0,0,0-1.7.827l-.448-.715a3.1,3.1,0,0,1,2.3-.98,1.991,1.991,0,0,1,2.241,2.2v4.734H80.654Zm0-1.975A1.624,1.624,0,0,0,79.2,8.091a1.36,1.36,0,0,0-1.344,1.5A1.372,1.372,0,0,0,79.2,11.1a1.637,1.637,0,0,0,1.457-.854Z" transform="translate(0 -2.18)" fill="#0b79bf"/>
      <path d="M84.461,10.3V5.779h-.9V4.9h.9V3.048h1.008V4.9h1.148v.883H85.469v4.342c0,.519.154.813.547.813a.756.756,0,0,0,.588-.266l.308.756a1.455,1.455,0,0,1-1.093.406C84.9,11.83,84.461,11.312,84.461,10.3Z" transform="translate(0 -2.18)" fill="#0b79bf"/>
      <path d="M88.521,3.076a.7.7,0,0,1,.686-.686.686.686,0,1,1,0,1.372A.7.7,0,0,1,88.521,3.076Zm.2,1.82h.994v6.766h-.994Z" transform="translate(0 -2.18)" fill="#0b79bf"/>
      <path d="M91.991,8.272c0-1.905.953-3.543,2.746-3.543,1.822,0,2.76,1.638,2.76,3.543s-.938,3.558-2.76,3.558C92.944,11.83,91.991,10.178,91.991,8.272Zm4.455,0c0-1.358-.518-2.647-1.709-2.647-1.163,0-1.695,1.289-1.695,2.647,0,1.374.532,2.662,1.695,2.662C95.928,10.934,96.446,9.646,96.446,8.272Z" transform="translate(0 -2.18)" fill="#0b79bf"/>
      <path d="M103.432,6.844c0-.9-.407-1.219-1.078-1.219A1.976,1.976,0,0,0,100.771,6.7v4.958h-1V4.9h1v.967a2.507,2.507,0,0,1,1.96-1.134c1.149,0,1.709.616,1.709,1.834v5.1h-1.008Z" transform="translate(0 -2.18)" fill="#0b79bf"/>
    </g>
    <g>
      <path d="M1.891,21.24.036,17.773h.8l1.414,2.774,1.413-2.774h.792L2.6,21.24v2.538H1.891Z" transform="translate(0 -2.18)" fill="#0b79bf"/>
      <path d="M4.536,21.6c0-1.224.612-2.278,1.765-2.278,1.17,0,1.773,1.054,1.773,2.278s-.6,2.287-1.773,2.287C5.148,23.887,4.536,22.824,4.536,21.6Zm2.863,0c0-.873-.333-1.7-1.1-1.7-.747,0-1.089.829-1.089,1.7s.342,1.711,1.089,1.711C7.066,23.311,7.4,22.482,7.4,21.6Z" transform="translate(0 -2.18)" fill="#0b79bf"/>
      <path d="M11.891,23.176a1.586,1.586,0,0,1-1.261.711c-.738,0-1.09-.369-1.09-1.161V19.431h.64v3.105c0,.576.27.775.693.775a1.229,1.229,0,0,0,1.018-.676v-3.2h.647v4.347h-.647Z" transform="translate(0 -2.18)" fill="#0b79bf"/>
      <path d="M14.22,19.431h.639v.692a1.461,1.461,0,0,1,1.234-.783v.667a.848.848,0,0,0-.216-.028,1.3,1.3,0,0,0-1.018.711v3.088H14.22Z" transform="translate(0 -2.18)" fill="#0b79bf"/>
      <path d="M22.114,20.682c0-.577-.261-.784-.693-.784a1.27,1.27,0,0,0-1.018.694v3.186h-.639V19.431H20.4v.621a1.614,1.614,0,0,1,1.261-.73c.738,0,1.1.4,1.1,1.18v3.276h-.648Z" transform="translate(0 -2.18)" fill="#0b79bf"/>
      <path d="M25.992,19.322c1.144,0,1.72,1.027,1.72,2.3v.2H24.894c.027.873.477,1.531,1.252,1.531a1.344,1.344,0,0,0,1.035-.532l.341.378a1.8,1.8,0,0,1-1.431.694c-1.161,0-1.863-.954-1.863-2.287C24.228,20.34,24.894,19.322,25.992,19.322Zm-1.1,2.017h2.178c-.009-.666-.3-1.477-1.089-1.477C25.218,19.862,24.912,20.7,24.894,21.339Z" transform="translate(0 -2.18)" fill="#0b79bf"/>
      <path d="M30.2,22.032l-1,1.746h-.72l1.324-2.215-1.252-2.132h.72l.927,1.656.928-1.656h.72L30.6,21.563l1.323,2.215H31.2Z" transform="translate(0 -2.18)" fill="#0b79bf"/>
      <path d="M33.246,22.905V20H32.67v-.566h.576V18.242h.648v1.189h.738V20h-.738v2.791c0,.333.1.523.351.523a.489.489,0,0,0,.378-.171l.2.486a.938.938,0,0,1-.7.261C33.524,23.887,33.246,23.554,33.246,22.905Z" transform="translate(0 -2.18)" fill="#0b79bf"/>
      <path d="M38.385,22.815a1.5,1.5,0,0,0,1.134.549c.5,0,.837-.269.837-.683,0-.469-.432-.658-.909-.856-.594-.234-1.26-.5-1.26-1.333a1.233,1.233,0,0,1,1.386-1.17,1.737,1.737,0,0,1,1.323.559l-.306.44a1.251,1.251,0,0,0-1.008-.476c-.478,0-.774.26-.774.612,0,.414.405.594.864.783.6.242,1.306.513,1.306,1.405a1.286,1.286,0,0,1-1.45,1.242,1.847,1.847,0,0,1-1.467-.613Z" transform="translate(0 -2.18)" fill="#0b79bf"/>
      <path d="M43.974,19.322a1.486,1.486,0,0,1,1.242.576l-.351.442a.978.978,0,0,0-.838-.442c-.774,0-1.178.775-1.178,1.7s.4,1.711,1.178,1.711a1,1,0,0,0,.838-.442l.351.442a1.465,1.465,0,0,1-1.242.576c-1.117,0-1.8-1-1.8-2.287S42.857,19.322,43.974,19.322Z" transform="translate(0 -2.18)" fill="#0b79bf"/>
      <path d="M48.9,20.673c0-.576-.27-.775-.7-.775a1.267,1.267,0,0,0-1.017.694v3.186h-.64v-6h.64v2.279a1.629,1.629,0,0,1,1.269-.73c.739,0,1.089.369,1.089,1.161v3.295H48.9Z" transform="translate(0 -2.18)" fill="#0b79bf"/>
      <path d="M52.767,19.322c1.143,0,1.719,1.027,1.719,2.3v.2H51.668c.027.873.478,1.531,1.252,1.531a1.341,1.341,0,0,0,1.035-.532l.342.378a1.807,1.807,0,0,1-1.432.694C51.7,23.887,51,22.933,51,21.6,51,20.34,51.668,19.322,52.767,19.322Zm-1.1,2.017h2.179c-.009-.666-.3-1.477-1.089-1.477C51.992,19.862,51.687,20.7,51.668,21.339Z" transform="translate(0 -2.18)" fill="#0b79bf"/>
      <path d="M58.41,23.157a1.356,1.356,0,0,1-1.143.73c-.973,0-1.558-.909-1.558-2.278,0-1.35.576-2.287,1.558-2.287a1.311,1.311,0,0,1,1.143.739V17.773h.649v6H58.41Zm0-2.548a1.163,1.163,0,0,0-.981-.711c-.711,0-1.044.766-1.044,1.711s.333,1.7,1.044,1.7a1.154,1.154,0,0,0,.981-.7Z" transform="translate(0 -2.18)" fill="#0b79bf"/>
      <path d="M63.091,23.176a1.586,1.586,0,0,1-1.261.711c-.738,0-1.09-.369-1.09-1.161V19.431h.64v3.105c0,.576.27.775.693.775a1.229,1.229,0,0,0,1.018-.676v-3.2h.647v4.347h-.647Z" transform="translate(0 -2.18)" fill="#0b79bf"/>
      <path d="M65.42,17.773h.64v6h-.64Z" transform="translate(0 -2.18)" fill="#0b79bf"/>
      <path d="M69.29,19.322c1.144,0,1.72,1.027,1.72,2.3v.2H68.191c.028.873.478,1.531,1.252,1.531a1.345,1.345,0,0,0,1.036-.532l.341.378a1.8,1.8,0,0,1-1.431.694c-1.161,0-1.864-.954-1.864-2.287C67.525,20.34,68.191,19.322,69.29,19.322Zm-1.1,2.017H70.37c-.009-.666-.3-1.477-1.089-1.477C68.516,19.862,68.21,20.7,68.191,21.339Z" transform="translate(0 -2.18)" fill="#0b79bf"/>
      <path d="M74.934,23.157a1.358,1.358,0,0,1-1.144.73c-.973,0-1.558-.909-1.558-2.278,0-1.35.577-2.287,1.558-2.287a1.312,1.312,0,0,1,1.144.739V17.773h.648v6h-.648Zm0-2.548a1.166,1.166,0,0,0-.982-.711c-.711,0-1.044.766-1.044,1.711s.333,1.7,1.044,1.7a1.157,1.157,0,0,0,.982-.7Z" transform="translate(0 -2.18)" fill="#0b79bf"/>
      <path d="M84.087,20.628c0-.469-.189-.73-.6-.73a1.19,1.19,0,0,0-.945.694v3.186h-.648v-3.15c0-.469-.19-.73-.613-.73a1.219,1.219,0,0,0-.945.694v3.186h-.64V19.431h.64v.621a1.5,1.5,0,0,1,1.188-.73.917.917,0,0,1,.982.775,1.5,1.5,0,0,1,1.224-.775c.639,0,1.008.351,1.008,1.135v3.321h-.648Z" transform="translate(0 -2.18)" fill="#0b79bf"/>
      <path d="M87.965,19.322c1.143,0,1.72,1.027,1.72,2.3v.2H86.866c.028.873.478,1.531,1.252,1.531a1.341,1.341,0,0,0,1.035-.532l.342.378a1.806,1.806,0,0,1-1.432.694c-1.161,0-1.863-.954-1.863-2.287C86.2,20.34,86.866,19.322,87.965,19.322Zm-1.1,2.017h2.179c-.009-.666-.3-1.477-1.089-1.477C87.19,19.862,86.885,20.7,86.866,21.339Z" transform="translate(0 -2.18)" fill="#0b79bf"/>
      <path d="M91.25,22.905V20h-.576v-.566h.576V18.242H91.9v1.189h.739V20H91.9v2.791c0,.333.1.523.352.523a.489.489,0,0,0,.378-.171l.2.486a.938.938,0,0,1-.7.261C91.528,23.887,91.25,23.554,91.25,22.905Z" transform="translate(0 -2.18)" fill="#0b79bf"/>
      <path d="M95.534,19.322c1.144,0,1.72,1.027,1.72,2.3v.2H94.436c.027.873.477,1.531,1.252,1.531a1.344,1.344,0,0,0,1.035-.532l.341.378a1.8,1.8,0,0,1-1.431.694c-1.161,0-1.863-.954-1.863-2.287C93.77,20.34,94.436,19.322,95.534,19.322Zm-1.1,2.017h2.178c-.009-.666-.3-1.477-1.089-1.477C94.76,19.862,94.454,20.7,94.436,21.339Z" transform="translate(0 -2.18)" fill="#0b79bf"/>
      <path d="M98.692,19.431h.64v.692a1.458,1.458,0,0,1,1.233-.783v.667a.841.841,0,0,0-.215-.028,1.3,1.3,0,0,0-1.018.711v3.088h-.64Z" transform="translate(0 -2.18)" fill="#0b79bf"/>
      <path d="M104.235,19.431h.64v.692a1.458,1.458,0,0,1,1.233-.783v.667a.841.841,0,0,0-.215-.028,1.3,1.3,0,0,0-1.018.711v3.088h-.64Z" transform="translate(0 -2.18)" fill="#0b79bf"/>
      <path d="M108.9,19.322c1.144,0,1.72,1.027,1.72,2.3v.2H107.8c.027.873.477,1.531,1.252,1.531a1.343,1.343,0,0,0,1.035-.532l.342.378a1.807,1.807,0,0,1-1.432.694c-1.161,0-1.863-.954-1.863-2.287C107.134,20.34,107.8,19.322,108.9,19.322Zm-1.1,2.017h2.179c-.009-.666-.3-1.477-1.089-1.477C108.124,19.862,107.818,20.7,107.8,21.339Z" transform="translate(0 -2.18)" fill="#0b79bf"/>
      <path d="M114.29,23.311a1.363,1.363,0,0,1-1.144.576,1.335,1.335,0,0,1-1.314-1.449,1.315,1.315,0,0,1,1.314-1.432,1.357,1.357,0,0,1,1.144.557v-.755a.826.826,0,0,0-.892-.927,1.38,1.38,0,0,0-1.088.53l-.289-.459a2,2,0,0,1,1.476-.63,1.28,1.28,0,0,1,1.441,1.413v3.043h-.648Zm0-1.27a1.046,1.046,0,0,0-.936-.559.974.974,0,0,0,0,1.936,1.053,1.053,0,0,0,.936-.549Z" transform="translate(0 -2.18)" fill="#0b79bf"/>
      <path d="M119.1,23.157a1.358,1.358,0,0,1-1.144.73c-.973,0-1.557-.909-1.557-2.278,0-1.35.576-2.287,1.557-2.287a1.311,1.311,0,0,1,1.144.739V17.773h.648v6H119.1Zm0-2.548a1.164,1.164,0,0,0-.982-.711c-.711,0-1.044.766-1.044,1.711s.333,1.7,1.044,1.7a1.156,1.156,0,0,0,.982-.7Z" transform="translate(0 -2.18)" fill="#0b79bf"/>
      <path d="M3.079,33.957a1.358,1.358,0,0,1-1.143.73c-.973,0-1.558-.91-1.558-2.278,0-1.35.576-2.287,1.558-2.287a1.312,1.312,0,0,1,1.143.738V28.573h.649v6.005H3.079Zm0-2.548A1.163,1.163,0,0,0,2.1,30.7c-.711,0-1.044.766-1.044,1.711s.333,1.7,1.044,1.7a1.153,1.153,0,0,0,.981-.7Z" transform="translate(0 -2.18)" fill="#0b79bf"/>
      <path d="M7.643,34.11a1.364,1.364,0,0,1-1.144.577,1.336,1.336,0,0,1-1.314-1.45A1.315,1.315,0,0,1,6.5,31.806a1.359,1.359,0,0,1,1.144.557v-.756a.826.826,0,0,0-.892-.926,1.382,1.382,0,0,0-1.089.53l-.288-.459a1.99,1.99,0,0,1,1.476-.63,1.28,1.28,0,0,1,1.44,1.413v3.043H7.643Zm0-1.269a1.047,1.047,0,0,0-.937-.559.974.974,0,0,0,0,1.936,1.055,1.055,0,0,0,.937-.549Z" transform="translate(0 -2.18)" fill="#0b79bf"/>
      <path d="M10.09,33.705V30.8H9.514V30.23h.576V29.042h.647V30.23h.739V30.8h-.739v2.791c0,.333.1.522.352.522a.486.486,0,0,0,.378-.171l.2.487a.938.938,0,0,1-.7.261C10.368,34.687,10.09,34.354,10.09,33.705Z" transform="translate(0 -2.18)" fill="#0b79bf"/>
      <path d="M14.373,30.122c1.144,0,1.72,1.026,1.72,2.3v.2H13.274c.028.873.478,1.53,1.252,1.53a1.344,1.344,0,0,0,1.036-.531l.341.378a1.8,1.8,0,0,1-1.431.694c-1.161,0-1.864-.955-1.864-2.288C12.608,31.14,13.274,30.122,14.373,30.122Zm-1.1,2.017h2.179c-.009-.666-.3-1.477-1.089-1.477C13.6,30.662,13.293,31.5,13.274,32.139Z" transform="translate(0 -2.18)" fill="#0b79bf"/>
      <path d="M19.835,29.06a.448.448,0,0,1,.441-.442.442.442,0,1,1,0,.883A.448.448,0,0,1,19.835,29.06Zm.126,1.17h.64v4.348h-.64Z" transform="translate(0 -2.18)" fill="#0b79bf"/>
      <path d="M22.257,33.615a1.5,1.5,0,0,0,1.134.549c.505,0,.838-.269.838-.684,0-.468-.433-.657-.91-.855-.594-.234-1.26-.495-1.26-1.333a1.233,1.233,0,0,1,1.386-1.17,1.741,1.741,0,0,1,1.324.559l-.307.44a1.251,1.251,0,0,0-1.008-.476c-.477,0-.774.26-.774.612,0,.414.405.594.864.783.6.242,1.306.513,1.306,1.4a1.286,1.286,0,0,1-1.45,1.243,1.847,1.847,0,0,1-1.467-.613Z" transform="translate(0 -2.18)" fill="#0b79bf"/>
      <path d="M28.476,32.4c0-1.223.612-2.277,1.764-2.277,1.17,0,1.774,1.054,1.774,2.277s-.6,2.288-1.774,2.288C29.088,34.687,28.476,33.624,28.476,32.4Zm2.863,0c0-.873-.333-1.7-1.1-1.7-.747,0-1.089.828-1.089,1.7s.342,1.711,1.089,1.711C31.006,34.11,31.339,33.282,31.339,32.4Z" transform="translate(0 -2.18)" fill="#0b79bf"/>
      <path d="M35.83,31.481c0-.576-.262-.783-.693-.783a1.269,1.269,0,0,0-1.018.694v3.186h-.64V30.23h.64v.622a1.612,1.612,0,0,1,1.261-.73c.738,0,1.1.4,1.1,1.18v3.276H35.83Z" transform="translate(0 -2.18)" fill="#0b79bf"/>
      <path d="M40.373,32.4c0-1.223.612-2.277,1.765-2.277,1.171,0,1.773,1.054,1.773,2.277s-.6,2.288-1.773,2.288C40.985,34.687,40.373,33.624,40.373,32.4Zm2.863,0c0-.873-.333-1.7-1.1-1.7-.747,0-1.089.828-1.089,1.7s.342,1.711,1.089,1.711C42.9,34.11,43.236,33.282,43.236,32.4Z" transform="translate(0 -2.18)" fill="#0b79bf"/>
      <path d="M45.377,30.23h.64v.693a1.458,1.458,0,0,1,1.233-.783v.667a.848.848,0,0,0-.216-.028,1.3,1.3,0,0,0-1.017.711v3.088h-.64Z" transform="translate(0 -2.18)" fill="#0b79bf"/>
      <path d="M53.154,34.11a1.361,1.361,0,0,1-1.143.577,1.337,1.337,0,0,1-1.315-1.45,1.315,1.315,0,0,1,1.315-1.431,1.356,1.356,0,0,1,1.143.557v-.756a.825.825,0,0,0-.891-.926,1.38,1.38,0,0,0-1.089.53l-.288-.459a1.988,1.988,0,0,1,1.475-.63A1.28,1.28,0,0,1,53.8,31.535v3.043h-.648Zm0-1.269a1.045,1.045,0,0,0-.936-.559.974.974,0,0,0,0,1.936,1.052,1.052,0,0,0,.936-.549Z" transform="translate(0 -2.18)" fill="#0b79bf"/>
      <path d="M55.475,30.23h.639v.693a1.46,1.46,0,0,1,1.234-.783v.667a.854.854,0,0,0-.216-.028,1.3,1.3,0,0,0-1.018.711v3.088h-.639Z" transform="translate(0 -2.18)" fill="#0b79bf"/>
      <path d="M58.373,32.4c0-1.223.612-2.277,1.765-2.277,1.171,0,1.773,1.054,1.773,2.277s-.6,2.288-1.773,2.288C58.985,34.687,58.373,33.624,58.373,32.4Zm2.863,0c0-.873-.333-1.7-1.1-1.7-.747,0-1.089.828-1.089,1.7s.342,1.711,1.089,1.711C60.9,34.11,61.236,33.282,61.236,32.4Z" transform="translate(0 -2.18)" fill="#0b79bf"/>
      <path d="M65.727,33.976a1.586,1.586,0,0,1-1.261.711c-.738,0-1.09-.37-1.09-1.162V30.23h.64v3.106c0,.576.27.774.693.774a1.228,1.228,0,0,0,1.018-.675V30.23h.647v4.348h-.647Z" transform="translate(0 -2.18)" fill="#0b79bf"/>
      <path d="M70.407,31.481c0-.576-.261-.783-.693-.783a1.27,1.27,0,0,0-1.018.694v3.186h-.639V30.23H68.7v.622a1.614,1.614,0,0,1,1.261-.73c.738,0,1.1.4,1.1,1.18v3.276h-.648Z" transform="translate(0 -2.18)" fill="#0b79bf"/>
      <path d="M75.222,33.957a1.36,1.36,0,0,1-1.144.73c-.973,0-1.557-.91-1.557-2.278,0-1.35.576-2.287,1.557-2.287a1.312,1.312,0,0,1,1.144.738V28.573h.648v6.005h-.648Zm0-2.548a1.164,1.164,0,0,0-.982-.711c-.711,0-1.044.766-1.044,1.711s.333,1.7,1.044,1.7a1.155,1.155,0,0,0,.982-.7Z" transform="translate(0 -2.18)" fill="#0b79bf"/>
      <path d="M81.692,28.483c1.405,0,1.882,1.558,1.882,3.1s-.477,3.107-1.882,3.107-1.881-1.567-1.881-3.107S80.288,28.483,81.692,28.483Zm0,.64c-.918,0-1.143,1.27-1.143,2.457s.216,2.467,1.143,2.467,1.153-1.287,1.153-2.467S82.62,29.123,81.692,29.123Z" transform="translate(0 -2.18)" fill="#0b79bf"/>
      <path d="M85.984,29.519l-.926.99-.433-.45,1.44-1.486H86.7v6.005h-.712Z" transform="translate(0 -2.18)" fill="#0b79bf"/>
      <path d="M89.549,28.394h.5l-1.729,6.365h-.5Z" transform="translate(0 -2.18)" fill="#0b79bf"/>
      <path d="M91.024,33.993c1.962-2.26,2.638-2.989,2.638-3.862a.943.943,0,0,0-.964-1.008,1.418,1.418,0,0,0-1.269.756l-.468-.432a1.99,1.99,0,0,1,1.746-.964,1.585,1.585,0,0,1,1.684,1.639c0,1.008-.756,1.908-2.35,3.817h2.377v.639H91.024Z" transform="translate(0 -2.18)" fill="#0b79bf"/>
      <path d="M96.389,33.273a1.382,1.382,0,0,0,1.269.774,1.173,1.173,0,0,0,1.071-1.3c0-.855-.405-1.324-1.026-1.324a1.315,1.315,0,0,0-1.09.559l-.53-.18V28.573h3.061V29.2h-2.35v2.107a1.431,1.431,0,0,1,1.107-.523c.865,0,1.558.685,1.558,1.936a1.813,1.813,0,0,1-1.783,1.963,1.89,1.89,0,0,1-1.765-.982Z" transform="translate(0 -2.18)" fill="#0b79bf"/>
      <path d="M102.086,28.394h.5l-1.729,6.365h-.5Z" transform="translate(0 -2.18)" fill="#0b79bf"/>
      <path d="M105.38,32.094l-1.4,2.484h-.828l1.791-3.069-1.692-2.936h.837l1.288,2.36,1.287-2.36h.837l-1.692,2.936,1.792,3.069h-.829Z" transform="translate(0 -2.18)" fill="#0b79bf"/>
      <path d="M110.465,32.094l-1.4,2.484h-.828l1.791-3.069-1.692-2.936h.838l1.287,2.36,1.287-2.36h.837L110.9,31.509l1.792,3.069h-.828Z" transform="translate(0 -2.18)" fill="#0b79bf"/>
    </g>
    <g>
      <path d="M2.872,51.232A2.184,2.184,0,0,1,4.97,52.7l-1.189.54a1,1,0,0,0-.909-.719c-.676,0-1.161.621-1.161,1.818s.485,1.818,1.161,1.818a1.144,1.144,0,0,0,.81-.288v-.675H2.691V53.952h2.35v2.493a2.763,2.763,0,0,1-2.169,1c-1.594,0-2.647-1.233-2.647-3.105S1.278,51.232,2.872,51.232Z" transform="translate(0 -2.18)"/>
      <path d="M8.623,56.913a1.46,1.46,0,0,1-1.144.531A1.35,1.35,0,0,1,6.12,56a1.289,1.289,0,0,1,1.359-1.386,1.437,1.437,0,0,1,1.144.495v-.505c0-.4-.279-.674-.766-.674a1.658,1.658,0,0,0-1.071.45l-.459-.873a2.706,2.706,0,0,1,1.782-.631c.991,0,1.81.424,1.81,1.594v2.863h-1.3Zm0-1.106a.713.713,0,0,0-.631-.343.563.563,0,1,0,0,1.126.713.713,0,0,0,.631-.343Z" transform="translate(0 -2.18)"/>
      <path d="M11.52,55.933a2.09,2.09,0,0,0,1.233.512c.36,0,.54-.134.54-.35s-.27-.316-.647-.414c-.622-.172-1.5-.388-1.5-1.432,0-.729.586-1.369,1.693-1.369a2.6,2.6,0,0,1,1.6.55l-.5.873a1.631,1.631,0,0,0-1.088-.432c-.28,0-.478.116-.478.306s.234.288.612.386c.64.172,1.549.406,1.549,1.477,0,.819-.684,1.4-1.756,1.4A2.579,2.579,0,0,1,11,56.823Z" transform="translate(0 -2.18)"/>
      <path d="M18.432,55.545a2.015,2.015,0,0,0,1.458.64c.432,0,.693-.226.693-.523,0-.36-.351-.531-.854-.72-.775-.279-1.81-.612-1.81-1.881a1.893,1.893,0,0,1,2.106-1.829,2.863,2.863,0,0,1,1.927.685L21.276,53a1.887,1.887,0,0,0-1.269-.495c-.405,0-.6.207-.6.477,0,.325.342.487.855.675.774.28,1.8.658,1.8,1.873a1.9,1.9,0,0,1-2.152,1.917,2.974,2.974,0,0,1-2.17-.783Z" transform="translate(0 -2.18)"/>
      <path d="M25.028,52.88c1.225,0,1.946.945,1.946,2.341v.36H24.3a.889.889,0,0,0,.954.837,1.3,1.3,0,0,0,.892-.378l.576.783a2.313,2.313,0,0,1-1.621.621,2.293,2.293,0,0,1-.073-4.564Zm-.737,1.828h1.44c-.018-.352-.18-.8-.72-.8C24.488,53.906,24.317,54.356,24.291,54.708Z" transform="translate(0 -2.18)"/>
      <path d="M28.115,52.988h1.306v.559a1.517,1.517,0,0,1,1.161-.667v1.261a1.105,1.105,0,0,0-1.161.4v2.8H28.115Z" transform="translate(0 -2.18)"/>
      <path d="M31.185,52.988h1.377l.765,2.791.783-2.791h1.377l-1.458,4.349H32.643Z" transform="translate(0 -2.18)"/>
      <path d="M36.306,51.683a.752.752,0,1,1,.756.756A.755.755,0,0,1,36.306,51.683Zm.1,1.3H37.71v4.349H36.4Z" transform="translate(0 -2.18)"/>
      <path d="M40.959,52.88a1.834,1.834,0,0,1,1.459.595l-.631.891a.841.841,0,0,0-.675-.334c-.531,0-.891.45-.891,1.126s.36,1.134.891,1.134a.823.823,0,0,0,.675-.342l.631.9a1.837,1.837,0,0,1-1.459.593,2.293,2.293,0,0,1,0-4.564Z" transform="translate(0 -2.18)"/>
      <path d="M45.306,52.88c1.224,0,1.945.945,1.945,2.341v.36H44.577a.89.89,0,0,0,.954.837,1.3,1.3,0,0,0,.892-.378l.576.783a2.312,2.312,0,0,1-1.621.621,2.293,2.293,0,0,1-.072-4.564Zm-.738,1.828h1.441c-.019-.352-.181-.8-.721-.8C44.766,53.906,44.6,54.356,44.568,54.708Z" transform="translate(0 -2.18)"/>
      <path d="M49.022,52.926a.54.54,0,1,1-.549.54A.546.546,0,0,1,49.022,52.926Zm0,3.421a.54.54,0,1,1-.549.54A.547.547,0,0,1,49.022,56.347Z" transform="translate(0 -2.18)"/>
      <path d="M56.5,56.067H54.368l-.35,1.27h-.892l1.792-6.005h1.026l1.8,6.005h-.89Zm-1.953-.755h1.773l-.891-3.188Z" transform="translate(0 -2.18)"/>
      <path d="M63.162,52.728l-1.521,4.609H61.3l-1.513-4.609v4.609h-.854V51.332H60.11l1.36,4.141,1.378-4.141h1.161v6.005h-.847Z" transform="translate(0 -2.18)"/>
      <path d="M67.409,55.005h-.8v2.332h-.854V51.332h1.953a1.675,1.675,0,0,1,1.7,1.827,1.577,1.577,0,0,1-1.161,1.7l1.216,2.476H68.5Zm.18-2.917h-.982v2.161h.982a1.092,1.092,0,0,0,0-2.161Z" transform="translate(0 -2.18)"/>
      <path d="M77.679,52.728l-1.521,4.609h-.343L74.3,52.728v4.609h-.855V51.332h1.179l1.359,4.141,1.378-4.141h1.161v6.005h-.846Z" transform="translate(0 -2.18)"/>
      <path d="M81.828,52.88c1.161,0,1.764,1.017,1.764,2.3v.225H80.8c.035.792.45,1.4,1.2,1.4a1.328,1.328,0,0,0,1-.5l.4.468a1.927,1.927,0,0,1-1.468.674c-1.18,0-1.918-.945-1.918-2.286C80.009,53.9,80.693,52.88,81.828,52.88Zm-1.036,1.981h2.044c-.009-.6-.279-1.341-1.018-1.341C81.1,53.52,80.819,54.275,80.792,54.861Z" transform="translate(0 -2.18)"/>
      <path d="M85.156,56.418V53.664H84.58v-.676h.576V51.8h.766v1.188h.729v.676h-.729v2.6c0,.3.107.5.342.5a.5.5,0,0,0,.369-.154l.2.577a1,1,0,0,1-.738.26C85.453,57.444,85.156,57.094,85.156,56.418Z" transform="translate(0 -2.18)"/>
      <path d="M89.6,52.88c1.161,0,1.763,1.017,1.763,2.3v.225h-2.79c.035.792.45,1.4,1.2,1.4a1.327,1.327,0,0,0,1-.5l.4.468a1.925,1.925,0,0,1-1.468.674c-1.18,0-1.918-.945-1.918-2.286C87.784,53.9,88.469,52.88,89.6,52.88Zm-1.037,1.981h2.044c-.008-.6-.279-1.341-1.017-1.341C88.874,53.52,88.6,54.275,88.567,54.861Z" transform="translate(0 -2.18)"/>
      <path d="M92.78,52.988h.774v.666a1.462,1.462,0,0,1,1.216-.764v.783a.875.875,0,0,0-.226-.027,1.253,1.253,0,0,0-.99.657v3.034H92.78Z" transform="translate(0 -2.18)"/>
      <path d="M4.834,63.728,3.312,68.337H2.971L1.458,63.728v4.609H.6V62.332H1.782l1.36,4.141L4.52,62.332H5.681v6.005H4.834Z" transform="translate(0 -2.18)"/>
      <path d="M8.982,63.88c1.163,0,1.765,1.017,1.765,2.3v.225H7.957c.035.792.449,1.4,1.2,1.4a1.327,1.327,0,0,0,1-.5l.4.468a1.925,1.925,0,0,1-1.468.674c-1.18,0-1.918-.945-1.918-2.286C7.164,64.9,7.849,63.88,8.982,63.88ZM7.947,65.861H9.991c-.009-.6-.279-1.341-1.017-1.341C8.254,64.52,7.975,65.275,7.947,65.861Z" transform="translate(0 -2.18)"/>
      <path d="M12.312,67.418V64.664h-.577v-.676h.577V62.8h.765v1.188h.73v.676h-.73v2.6c0,.3.109.495.342.495a.5.5,0,0,0,.369-.154l.2.577a.994.994,0,0,1-.738.26C12.609,68.444,12.312,68.094,12.312,67.418Z" transform="translate(0 -2.18)"/>
      <path d="M16.758,63.88c1.162,0,1.764,1.017,1.764,2.3v.225h-2.79c.036.792.45,1.4,1.2,1.4a1.33,1.33,0,0,0,1-.5l.4.468a1.925,1.925,0,0,1-1.468.674c-1.179,0-1.918-.945-1.918-2.286C14.939,64.9,15.624,63.88,16.758,63.88Zm-1.035,1.981h2.044c-.009-.6-.28-1.341-1.018-1.341C16.029,64.52,15.75,65.275,15.723,65.861Z" transform="translate(0 -2.18)"/>
      <path d="M19.936,63.988h.773v.666a1.462,1.462,0,0,1,1.216-.764v.783a.87.87,0,0,0-.226-.027,1.254,1.254,0,0,0-.99.657v3.034h-.773Z" transform="translate(0 -2.18)"/>
      <path d="M26.531,63.943v4.394h-.854V62.332h.864l2.313,4.258V62.332h.856v6.005h-.819Z" transform="translate(0 -2.18)"/>
      <path d="M33.8,67.752a1.6,1.6,0,0,1-1.27.692c-.756,0-1.116-.386-1.116-1.17V63.988h.774v3.043c0,.54.252.73.657.73a1.174,1.174,0,0,0,.955-.631V63.988h.765v4.349H33.8Z" transform="translate(0 -2.18)"/>
      <path d="M40.7,65.249c0-.441-.179-.685-.576-.685a1.115,1.115,0,0,0-.891.649v3.124h-.765V65.249c0-.433-.18-.685-.585-.685a1.147,1.147,0,0,0-.883.649v3.124h-.773V63.988H37v.6a1.5,1.5,0,0,1,1.2-.712.926.926,0,0,1,1,.774,1.5,1.5,0,0,1,1.234-.774c.657,0,1.035.351,1.035,1.135v3.322H40.7Z" transform="translate(0 -2.18)"/>
      <path d="M43.128,62.332H43.9v2.26a1.3,1.3,0,0,1,1.126-.712c.982,0,1.576.928,1.576,2.287,0,1.387-.594,2.277-1.576,2.277a1.343,1.343,0,0,1-1.126-.7v.595h-.773Zm1.683,5.429c.675,0,.991-.7.991-1.594s-.316-1.6-.991-1.6a1.1,1.1,0,0,0-.91.666v1.882A1.1,1.1,0,0,0,44.811,67.761Z" transform="translate(0 -2.18)"/>
      <path d="M49.652,63.88c1.162,0,1.765,1.017,1.765,2.3v.225h-2.79c.035.792.449,1.4,1.2,1.4a1.328,1.328,0,0,0,1-.5l.4.468a1.925,1.925,0,0,1-1.468.674c-1.18,0-1.918-.945-1.918-2.286C47.834,64.9,48.519,63.88,49.652,63.88Zm-1.035,1.981h2.044c-.009-.6-.279-1.341-1.017-1.341C48.924,64.52,48.645,65.275,48.617,65.861Z" transform="translate(0 -2.18)"/>
      <path d="M52.83,63.988H53.6v.666a1.462,1.462,0,0,1,1.215-.764v.783a.862.862,0,0,0-.225-.027,1.253,1.253,0,0,0-.99.657v3.034H52.83Z" transform="translate(0 -2.18)"/>
      <path d="M56.564,63.926a.54.54,0,1,1-.549.54A.546.546,0,0,1,56.564,63.926Zm0,3.421a.54.54,0,1,1-.549.54A.547.547,0,0,1,56.564,67.347Z" transform="translate(0 -2.18)"/>
      <path d="M63.144,62.242a1.734,1.734,0,0,1,1.44.72l-.45.621a1.061,1.061,0,0,0-.982-.576c-.89,0-1.278,1.135-1.278,2.223v.154a1.547,1.547,0,0,1,1.314-.847c.883,0,1.6.649,1.6,1.927A1.826,1.826,0,0,1,63,68.444c-1.485,0-1.99-1.485-1.99-3.105C61.01,63.683,61.667,62.242,63.144,62.242Zm-.2,3.033a1.318,1.318,0,0,0-1.061.829c.045.648.269,1.576,1.071,1.576.666,0,.963-.621.963-1.189C63.918,65.608,63.477,65.275,62.945,65.275Z" transform="translate(0 -2.18)"/>
      <path d="M68.2,62.242a1.736,1.736,0,0,1,1.441.72l-.451.621a1.058,1.058,0,0,0-.981-.576c-.891,0-1.278,1.135-1.278,2.223v.154a1.546,1.546,0,0,1,1.314-.847c.883,0,1.6.649,1.6,1.927a1.826,1.826,0,0,1-1.791,1.98c-1.486,0-1.991-1.485-1.991-3.105C66.067,63.683,66.725,62.242,68.2,62.242ZM68,65.275a1.32,1.32,0,0,0-1.062.829c.045.648.27,1.576,1.072,1.576.666,0,.963-.621.963-1.189C68.976,65.608,68.534,65.275,68,65.275Z" transform="translate(0 -2.18)"/>
      <path d="M73.26,62.242a1.732,1.732,0,0,1,1.44.72l-.45.621a1.059,1.059,0,0,0-.981-.576c-.891,0-1.279,1.135-1.279,2.223v.154a1.548,1.548,0,0,1,1.315-.847c.883,0,1.6.649,1.6,1.927a1.826,1.826,0,0,1-1.791,1.98c-1.485,0-1.99-1.485-1.99-3.105C71.126,63.683,71.783,62.242,73.26,62.242Zm-.2,3.033A1.32,1.32,0,0,0,72,66.1c.045.648.27,1.576,1.071,1.576.666,0,.963-.621.963-1.189C74.034,65.608,73.593,65.275,73.062,65.275Z" transform="translate(0 -2.18)"/>
      <path d="M78.317,62.242a1.736,1.736,0,0,1,1.441.72l-.45.621a1.061,1.061,0,0,0-.982-.576c-.89,0-1.278,1.135-1.278,2.223v.154a1.547,1.547,0,0,1,1.314-.847c.883,0,1.6.649,1.6,1.927a1.826,1.826,0,0,1-1.791,1.98c-1.486,0-1.99-1.485-1.99-3.105C76.184,63.683,76.841,62.242,78.317,62.242Zm-.2,3.033a1.318,1.318,0,0,0-1.061.829c.045.648.269,1.576,1.071,1.576.666,0,.963-.621.963-1.189C79.092,65.608,78.65,65.275,78.119,65.275Z" transform="translate(0 -2.18)"/>
      <path d="M83.375,62.242a1.732,1.732,0,0,1,1.44.72l-.45.621a1.059,1.059,0,0,0-.981-.576c-.891,0-1.279,1.135-1.279,2.223v.154a1.548,1.548,0,0,1,1.315-.847c.883,0,1.6.649,1.6,1.927a1.826,1.826,0,0,1-1.791,1.98c-1.485,0-1.99-1.485-1.99-3.105C81.241,63.683,81.9,62.242,83.375,62.242Zm-.2,3.033a1.32,1.32,0,0,0-1.062.829c.045.648.27,1.576,1.072,1.576.666,0,.962-.621.962-1.189C84.149,65.608,83.708,65.275,83.177,65.275Z" transform="translate(0 -2.18)"/>
      <path d="M88.434,62.242a1.734,1.734,0,0,1,1.44.72l-.45.621a1.061,1.061,0,0,0-.982-.576c-.89,0-1.278,1.135-1.278,2.223v.154a1.548,1.548,0,0,1,1.315-.847c.882,0,1.6.649,1.6,1.927a1.826,1.826,0,0,1-1.791,1.98c-1.485,0-1.99-1.485-1.99-3.105C86.3,63.683,86.957,62.242,88.434,62.242Zm-.2,3.033a1.318,1.318,0,0,0-1.061.829c.045.648.269,1.576,1.071,1.576.666,0,.963-.621.963-1.189C89.208,65.608,88.767,65.275,88.235,65.275Z" transform="translate(0 -2.18)"/>
      <path d="M93.491,62.242a1.736,1.736,0,0,1,1.441.72l-.451.621a1.058,1.058,0,0,0-.981-.576c-.891,0-1.278,1.135-1.278,2.223v.154a1.546,1.546,0,0,1,1.314-.847c.883,0,1.6.649,1.6,1.927a1.826,1.826,0,0,1-1.791,1.98c-1.486,0-1.991-1.485-1.991-3.105C91.357,63.683,92.015,62.242,93.491,62.242Zm-.2,3.033a1.32,1.32,0,0,0-1.062.829c.045.648.27,1.576,1.072,1.576.666,0,.963-.621.963-1.189C94.266,65.608,93.824,65.275,93.293,65.275Z" transform="translate(0 -2.18)"/>
      <path d="M98.55,62.242a1.732,1.732,0,0,1,1.44.72l-.45.621a1.059,1.059,0,0,0-.981-.576c-.891,0-1.279,1.135-1.279,2.223v.154a1.548,1.548,0,0,1,1.315-.847c.883,0,1.6.649,1.6,1.927a1.826,1.826,0,0,1-1.791,1.98c-1.485,0-1.99-1.485-1.99-3.105C96.416,63.683,97.073,62.242,98.55,62.242Zm-.2,3.033a1.32,1.32,0,0,0-1.062.829c.045.648.27,1.576,1.071,1.576.666,0,.963-.621.963-1.189C99.324,65.608,98.883,65.275,98.352,65.275Z" transform="translate(0 -2.18)"/>
      <path d="M.6,73.332H2.539a1.841,1.841,0,0,1,0,3.673H1.458v2.332H.6Zm1.835.756H1.458v2.161h.981a1.091,1.091,0,0,0,0-2.161Z" transform="translate(0 -2.18)"/>
      <path d="M7.759,73.232c1.494,0,2.349,1.351,2.349,3.107s-.855,3.105-2.349,3.105S5.427,78.1,5.427,76.339,6.273,73.232,7.759,73.232Zm0,.766C6.813,74,6.3,75.016,6.3,76.339c0,1.306.512,2.341,1.458,2.341s1.468-1.035,1.468-2.341C9.227,75.016,8.7,74,7.759,74Z" transform="translate(0 -2.18)"/>
      <path d="M11.638,73.332H13.33c1.584,0,2.476,1.278,2.476,3.007s-.882,3-2.467,3h-1.7ZM13.33,78.58c1.053,0,1.594-.954,1.594-2.241,0-1.306-.531-2.251-1.594-2.251h-.838V78.58Z" transform="translate(0 -2.18)"/>
      <path d="M20.654,74.943v4.394H19.8V73.332h.864l2.314,4.258V73.332h.855v6.005h-.819Z" transform="translate(0 -2.18)"/>
      <path d="M27.919,78.752a1.6,1.6,0,0,1-1.27.692c-.756,0-1.116-.386-1.116-1.17V74.988h.774v3.043c0,.54.252.73.657.73a1.174,1.174,0,0,0,.955-.631V74.988h.765v4.349h-.765Z" transform="translate(0 -2.18)"/>
      <path d="M34.822,76.249c0-.441-.179-.685-.576-.685a1.115,1.115,0,0,0-.891.649v3.124H32.59V76.249c0-.433-.18-.685-.585-.685a1.147,1.147,0,0,0-.883.649v3.124h-.773V74.988h.773v.6a1.5,1.5,0,0,1,1.2-.712.926.926,0,0,1,1,.774,1.5,1.5,0,0,1,1.234-.774c.657,0,1.035.351,1.035,1.135v3.322h-.766Z" transform="translate(0 -2.18)"/>
      <path d="M37.251,73.332h.773v2.26a1.3,1.3,0,0,1,1.126-.712c.982,0,1.576.928,1.576,2.287,0,1.387-.594,2.277-1.576,2.277a1.343,1.343,0,0,1-1.126-.7v.595h-.773Zm1.683,5.429c.675,0,.991-.7.991-1.594s-.316-1.6-.991-1.6a1.105,1.105,0,0,0-.91.666v1.882A1.1,1.1,0,0,0,38.934,78.761Z" transform="translate(0 -2.18)"/>
      <path d="M43.775,74.88c1.163,0,1.765,1.017,1.765,2.305v.225H42.75c.035.792.449,1.4,1.2,1.4a1.327,1.327,0,0,0,1-.5l.4.468a1.925,1.925,0,0,1-1.468.674c-1.18,0-1.918-.945-1.918-2.286C41.957,75.9,42.642,74.88,43.775,74.88ZM42.74,76.861h2.044c-.009-.6-.279-1.341-1.017-1.341C43.047,75.52,42.768,76.275,42.74,76.861Z" transform="translate(0 -2.18)"/>
      <path d="M46.953,74.988h.774v.666a1.462,1.462,0,0,1,1.215-.764v.783a.862.862,0,0,0-.225-.027,1.253,1.253,0,0,0-.99.657v3.034h-.774Z" transform="translate(0 -2.18)"/>
      <path d="M50.688,74.926a.54.54,0,1,1-.55.54A.547.547,0,0,1,50.688,74.926Zm0,3.421a.54.54,0,1,1-.55.54A.548.548,0,0,1,50.688,78.347Z" transform="translate(0 -2.18)"/>
      <path d="M57.339,77.869H54.944V77.14L57.1,73.332h1.1v3.781h.639v.756h-.639v1.468h-.855Zm-1.611-.756h1.611V74.241Z" transform="translate(0 -2.18)"/>
      <path d="M62.172,77.869H59.777V77.14l2.152-3.808h1.1v3.781h.639v.756h-.639v1.468h-.855Zm-1.611-.756h1.611V74.241Z" transform="translate(0 -2.18)"/>
      <path d="M67.005,77.869H64.61V77.14l2.152-3.808h1.1v3.781H68.5v.756H67.86v1.468h-.855Zm-1.611-.756h1.611V74.241Z" transform="translate(0 -2.18)"/>
      <path d="M71.838,77.869H69.443V77.14L71.6,73.332h1.1v3.781h.639v.756h-.639v1.468h-.855Zm-1.611-.756h1.611V74.241Z" transform="translate(0 -2.18)"/>
      <path d="M76.671,77.869h-2.4V77.14l2.152-3.808h1.1v3.781h.639v.756h-.639v1.468h-.855Zm-1.611-.756h1.611V74.241Z" transform="translate(0 -2.18)"/>
      <path d="M81.5,77.869H79.108V77.14l2.152-3.808h1.1v3.781H83v.756h-.639v1.468H81.5Zm-1.611-.756H81.5V74.241Z" transform="translate(0 -2.18)"/>
      <path d="M86.336,77.869H83.941V77.14l2.152-3.808h1.1v3.781h.639v.756h-.639v1.468h-.855Zm-1.611-.756h1.611V74.241Z" transform="translate(0 -2.18)"/>
      <path d="M91.169,77.869H88.774V77.14l2.152-3.808h1.1v3.781h.639v.756h-.639v1.468h-.855Zm-1.611-.756h1.611V74.241Z" transform="translate(0 -2.18)"/>
      <path d="M96,77.869H93.607V77.14l2.152-3.808h1.1v3.781H97.5v.756h-.639v1.468H96Zm-1.611-.756H96V74.241Z" transform="translate(0 -2.18)"/>
      <path d="M100.835,77.869H98.44V77.14l2.152-3.808h1.1v3.781h.639v.756h-.639v1.468h-.855Zm-1.611-.756h1.611V74.241Z" transform="translate(0 -2.18)"/>
      <path d="M105.668,77.869h-2.4V77.14l2.152-3.808h1.1v3.781h.639v.756h-.639v1.468h-.855Zm-1.611-.756h1.611V74.241Z" transform="translate(0 -2.18)"/>
      <path d="M110.5,77.869h-2.4V77.14l2.152-3.808h1.1v3.781H112v.756h-.639v1.468H110.5Zm-1.611-.756H110.5V74.241Z" transform="translate(0 -2.18)"/>
      <path d="M115.334,77.869h-2.4V77.14l2.152-3.808h1.1v3.781h.639v.756h-.639v1.468h-.855Zm-1.611-.756h1.611V74.241Z" transform="translate(0 -2.18)"/>
      <path d="M.6,84.332H2.736a1.422,1.422,0,0,1,1.513,1.53,1.323,1.323,0,0,1-.927,1.378,1.427,1.427,0,0,1,1.027,1.476A1.458,1.458,0,0,1,2.8,90.337H.6ZM2.557,86.9c.558,0,.81-.386.81-.9s-.252-.909-.81-.909h-1.1V86.9Zm.036,2.683c.576,0,.873-.359.873-.963a.86.86,0,0,0-.873-.963H1.458V89.58Z" transform="translate(0 -2.18)"/>
      <path d="M7.453,85.88c1.161,0,1.764,1.017,1.764,2.305v.225H6.427c.035.792.45,1.4,1.2,1.4a1.328,1.328,0,0,0,1-.5l.4.468a1.927,1.927,0,0,1-1.468.674c-1.18,0-1.918-.945-1.918-2.286C5.634,86.9,6.318,85.88,7.453,85.88ZM6.417,87.861H8.461c-.009-.6-.279-1.341-1.018-1.341C6.724,86.52,6.444,87.275,6.417,87.861Z" transform="translate(0 -2.18)"/>
      <path d="M10.936,90.949a1.4,1.4,0,0,0,1.125.5,1,1,0,0,0,1.053-1.134v-.666a1.342,1.342,0,0,1-1.125.719c-.972,0-1.576-.854-1.576-2.241,0-1.359.595-2.242,1.576-2.242a1.3,1.3,0,0,1,1.125.712v-.6h.775v4.268a1.639,1.639,0,0,1-1.8,1.846,1.983,1.983,0,0,1-1.494-.55Zm2.178-3.727a1.086,1.086,0,0,0-.909-.658c-.666,0-.99.676-.99,1.558s.324,1.558.99,1.558a1.086,1.086,0,0,0,.909-.658Z" transform="translate(0 -2.18)"/>
      <path d="M15.427,84.764a.508.508,0,0,1,.5-.5.5.5,0,0,1,.5.5.5.5,0,0,1-.5.5A.5.5,0,0,1,15.427,84.764Zm.117,1.224h.773v4.349h-.773Z" transform="translate(0 -2.18)"/>
      <path d="M20.359,87.312c0-.549-.253-.748-.657-.748a1.168,1.168,0,0,0-.955.649v3.124h-.773V85.988h.773v.6a1.617,1.617,0,0,1,1.261-.712c.756,0,1.116.415,1.116,1.18v3.277h-.765Z" transform="translate(0 -2.18)"/>
      <path d="M25.174,87.312c0-.549-.253-.748-.657-.748a1.167,1.167,0,0,0-.955.649v3.124h-.774V85.988h.774v.6a1.615,1.615,0,0,1,1.26-.712c.756,0,1.116.415,1.116,1.18v3.277h-.764Z" transform="translate(0 -2.18)"/>
      <path d="M27.486,84.764a.509.509,0,0,1,.5-.5.5.5,0,0,1,.5.5.5.5,0,0,1-.5.5A.5.5,0,0,1,27.486,84.764Zm.118,1.224h.773v4.349H27.6Z" transform="translate(0 -2.18)"/>
      <path d="M32.419,87.312c0-.549-.253-.748-.657-.748a1.168,1.168,0,0,0-.955.649v3.124h-.774V85.988h.774v.6a1.615,1.615,0,0,1,1.26-.712c.756,0,1.117.415,1.117,1.18v3.277h-.765Z" transform="translate(0 -2.18)"/>
      <path d="M35.153,90.949a1.406,1.406,0,0,0,1.125.5,1,1,0,0,0,1.054-1.134v-.666a1.343,1.343,0,0,1-1.125.719c-.973,0-1.576-.854-1.576-2.241,0-1.359.595-2.242,1.576-2.242a1.3,1.3,0,0,1,1.125.712v-.6h.774v4.268a1.639,1.639,0,0,1-1.8,1.846,1.983,1.983,0,0,1-1.494-.55Zm2.179-3.727a1.086,1.086,0,0,0-.909-.658c-.666,0-.99.676-.99,1.558s.324,1.558.99,1.558a1.086,1.086,0,0,0,.909-.658Z" transform="translate(0 -2.18)"/>
      <path d="M43.929,88.005h-.8v2.332h-.855V84.332h1.954a1.675,1.675,0,0,1,1.7,1.827,1.577,1.577,0,0,1-1.161,1.7l1.215,2.476h-.963Zm.179-2.917h-.981v2.161h.981a1.091,1.091,0,0,0,0-2.161Z" transform="translate(0 -2.18)"/>
      <path d="M48.834,85.88C50,85.88,50.6,86.9,50.6,88.185v.225h-2.79c.035.792.45,1.4,1.2,1.4a1.33,1.33,0,0,0,1-.5l.4.468a1.923,1.923,0,0,1-1.467.674c-1.18,0-1.918-.945-1.918-2.286C47.015,86.9,47.7,85.88,48.834,85.88ZM47.8,87.861h2.044c-.009-.6-.28-1.341-1.018-1.341C48.1,86.52,47.825,87.275,47.8,87.861Z" transform="translate(0 -2.18)"/>
      <path d="M54.252,89.887a1.4,1.4,0,0,1-1.144.557A1.337,1.337,0,0,1,51.785,89a1.313,1.313,0,0,1,1.323-1.422,1.364,1.364,0,0,1,1.144.54V87.42a.792.792,0,0,0-.864-.883,1.473,1.473,0,0,0-1.089.514l-.316-.54a2.086,2.086,0,0,1,1.531-.631,1.332,1.332,0,0,1,1.512,1.45v3.007h-.774Zm0-1.242a1,1,0,0,0-.873-.523.895.895,0,0,0,0,1.782.993.993,0,0,0,.873-.521Z" transform="translate(0 -2.18)"/>
      <path d="M59.175,89.742a1.367,1.367,0,0,1-1.134.7c-.973,0-1.576-.89-1.576-2.277,0-1.359.595-2.287,1.576-2.287a1.323,1.323,0,0,1,1.134.712v-2.26h.765v6.005h-.765Zm0-2.52a1.111,1.111,0,0,0-.918-.658c-.666,0-.99.711-.99,1.6s.324,1.594.99,1.594a1.1,1.1,0,0,0,.918-.649Z" transform="translate(0 -2.18)"/>
      <path d="M64.115,84.332h1.693c1.584,0,2.475,1.278,2.475,3.007s-.883,3-2.467,3h-1.7Zm1.693,5.248c1.052,0,1.592-.954,1.592-2.241,0-1.306-.53-2.251-1.592-2.251H64.97V89.58Z" transform="translate(0 -2.18)"/>
      <path d="M72.009,89.887a1.4,1.4,0,0,1-1.144.557A1.337,1.337,0,0,1,69.542,89a1.313,1.313,0,0,1,1.323-1.422,1.365,1.365,0,0,1,1.144.54V87.42a.792.792,0,0,0-.864-.883,1.472,1.472,0,0,0-1.089.514l-.316-.54a2.086,2.086,0,0,1,1.531-.631,1.332,1.332,0,0,1,1.512,1.45v3.007h-.774Zm0-1.242a1,1,0,0,0-.873-.523.895.895,0,0,0,0,1.782.993.993,0,0,0,.873-.521Z" transform="translate(0 -2.18)"/>
      <path d="M74.591,89.418V86.664h-.576v-.676h.576V84.8h.765v1.188h.73v.676h-.73v2.6c0,.3.109.495.342.495a.5.5,0,0,0,.369-.154l.2.577a1,1,0,0,1-.739.26C74.889,90.444,74.591,90.094,74.591,89.418Z" transform="translate(0 -2.18)"/>
      <path d="M79.037,85.88c1.162,0,1.765,1.017,1.765,2.305v.225h-2.79c.035.792.449,1.4,1.2,1.4a1.328,1.328,0,0,0,1-.5l.4.468a1.923,1.923,0,0,1-1.467.674c-1.18,0-1.918-.945-1.918-2.286C77.219,86.9,77.9,85.88,79.037,85.88ZM78,87.861h2.044c-.009-.6-.279-1.341-1.018-1.341C78.309,86.52,78.029,87.275,78,87.861Z" transform="translate(0 -2.18)"/>
      <path d="M82.719,85.926a.54.54,0,1,1-.55.54A.547.547,0,0,1,82.719,85.926Zm0,3.421a.54.54,0,1,1-.55.54A.548.548,0,0,1,82.719,89.347Z" transform="translate(0 -2.18)"/>
      <path d="M88.325,85.448l-.928.982-.5-.532,1.53-1.566h.747v6.005h-.846Z" transform="translate(0 -2.18)"/>
      <path d="M91.872,85.448l-.928.982-.5-.532,1.531-1.566h.747v6.005h-.846Z" transform="translate(0 -2.18)"/>
      <path d="M95.6,84.151h.585l-1.729,6.366h-.585Z" transform="translate(0 -2.18)"/>
      <path d="M97.172,89.644c2.034-2.224,2.646-2.881,2.646-3.709a.886.886,0,0,0-.918-.928,1.451,1.451,0,0,0-1.269.729l-.54-.522a2.109,2.109,0,0,1,1.818-.972,1.659,1.659,0,0,1,1.782,1.693c0,.971-.719,1.836-2.277,3.645h2.3v.757H97.172Z" transform="translate(0 -2.18)"/>
      <path d="M104.336,88.869h-2.395V88.14l2.152-3.808h1.1v3.781h.639v.756h-.639v1.468h-.855Zm-1.611-.756h1.611V85.241Z" transform="translate(0 -2.18)"/>
      <path d="M.6,95.332H3.79v.756H1.458V97.9h2.27v.757H1.458v1.926H3.79v.757H.6Z" transform="translate(0 -2.18)"/>
      <path d="M7.679,98.312c0-.549-.253-.748-.658-.748a1.17,1.17,0,0,0-.955.649v3.124H5.293V96.988h.773v.6a1.618,1.618,0,0,1,1.261-.712c.756,0,1.116.415,1.116,1.18v3.277H7.679Z" transform="translate(0 -2.18)"/>
      <path d="M12.6,100.742a1.367,1.367,0,0,1-1.134.7c-.973,0-1.576-.89-1.576-2.277,0-1.359.594-2.287,1.576-2.287a1.324,1.324,0,0,1,1.134.712v-2.26h.765v6.005H12.6Zm0-2.52a1.112,1.112,0,0,0-.918-.658c-.666,0-.991.711-.991,1.6s.325,1.594.991,1.594a1.1,1.1,0,0,0,.918-.649Z" transform="translate(0 -2.18)"/>
      <path d="M14.913,95.764a.508.508,0,0,1,.5-.5.5.5,0,0,1,.5.5.5.5,0,0,1-.5.5A.5.5,0,0,1,14.913,95.764Zm.117,1.224H15.8v4.349H15.03Z" transform="translate(0 -2.18)"/>
      <path d="M19.846,98.312c0-.549-.253-.748-.658-.748a1.168,1.168,0,0,0-.955.649v3.124H17.46V96.988h.773v.6a1.618,1.618,0,0,1,1.261-.712c.756,0,1.116.415,1.116,1.18v3.277h-.764Z" transform="translate(0 -2.18)"/>
      <path d="M22.581,101.949a1.4,1.4,0,0,0,1.125.5,1,1,0,0,0,1.054-1.134v-.666a1.343,1.343,0,0,1-1.125.719c-.973,0-1.576-.854-1.576-2.241,0-1.359.594-2.242,1.576-2.242a1.3,1.3,0,0,1,1.125.712v-.6h.774v4.268a1.639,1.639,0,0,1-1.8,1.846,1.985,1.985,0,0,1-1.494-.55Zm2.179-3.727a1.088,1.088,0,0,0-.909-.658c-.666,0-.991.676-.991,1.558s.325,1.558.991,1.558a1.088,1.088,0,0,0,.909-.658Z" transform="translate(0 -2.18)"/>
      <path d="M31.356,99.005h-.8v2.332H29.7V95.332h1.953a1.675,1.675,0,0,1,1.7,1.827,1.576,1.576,0,0,1-1.161,1.7l1.216,2.476h-.964Zm.18-2.917h-.981v2.161h.981a1.091,1.091,0,0,0,0-2.161Z" transform="translate(0 -2.18)"/>
      <path d="M36.262,96.88c1.161,0,1.763,1.017,1.763,2.305v.225h-2.79c.036.792.451,1.4,1.2,1.4a1.33,1.33,0,0,0,1-.5l.4.468a1.925,1.925,0,0,1-1.468.674c-1.179,0-1.918-.945-1.918-2.286C34.442,97.9,35.127,96.88,36.262,96.88Zm-1.036,1.981H37.27c-.009-.6-.28-1.341-1.018-1.341C35.532,97.52,35.253,98.275,35.226,98.861Z" transform="translate(0 -2.18)"/>
      <path d="M41.68,100.887a1.4,1.4,0,0,1-1.144.557A1.337,1.337,0,0,1,39.213,100a1.313,1.313,0,0,1,1.323-1.422,1.365,1.365,0,0,1,1.144.54V98.42a.792.792,0,0,0-.865-.883,1.471,1.471,0,0,0-1.088.514l-.316-.54a2.086,2.086,0,0,1,1.53-.631,1.332,1.332,0,0,1,1.513,1.45v3.007H41.68Zm0-1.242a1,1,0,0,0-.873-.523.895.895,0,0,0,0,1.782.993.993,0,0,0,.873-.521Z" transform="translate(0 -2.18)"/>
      <path d="M46.6,100.742a1.367,1.367,0,0,1-1.134.7c-.973,0-1.576-.89-1.576-2.277,0-1.359.594-2.287,1.576-2.287a1.324,1.324,0,0,1,1.134.712v-2.26h.765v6.005H46.6Zm0-2.52a1.114,1.114,0,0,0-.918-.658c-.666,0-.991.711-.991,1.6s.325,1.594.991,1.594a1.1,1.1,0,0,0,.918-.649Z" transform="translate(0 -2.18)"/>
      <path d="M51.543,95.332h1.692c1.584,0,2.476,1.278,2.476,3.007s-.883,3-2.467,3h-1.7Zm1.692,5.248c1.053,0,1.593-.954,1.593-2.241,0-1.306-.53-2.251-1.593-2.251H52.4v4.492Z" transform="translate(0 -2.18)"/>
      <path d="M59.437,100.887a1.4,1.4,0,0,1-1.144.557A1.337,1.337,0,0,1,56.97,100a1.313,1.313,0,0,1,1.323-1.422,1.365,1.365,0,0,1,1.144.54V98.42a.792.792,0,0,0-.865-.883,1.475,1.475,0,0,0-1.089.514l-.315-.54a2.084,2.084,0,0,1,1.53-.631,1.332,1.332,0,0,1,1.513,1.45v3.007h-.774Zm0-1.242a1,1,0,0,0-.874-.523.9.9,0,0,0,0,1.782.994.994,0,0,0,.874-.521Z" transform="translate(0 -2.18)"/>
      <path d="M62.019,100.418V97.664h-.577v-.676h.577V95.8h.765v1.188h.73v.676h-.73v2.6c0,.3.109.495.342.495a.5.5,0,0,0,.369-.154l.2.577a.994.994,0,0,1-.738.26C62.316,101.444,62.019,101.094,62.019,100.418Z" transform="translate(0 -2.18)"/>
      <path d="M66.465,96.88c1.162,0,1.764,1.017,1.764,2.305v.225h-2.79c.036.792.45,1.4,1.2,1.4a1.33,1.33,0,0,0,1-.5l.4.468a1.925,1.925,0,0,1-1.468.674c-1.179,0-1.918-.945-1.918-2.286C64.646,97.9,65.331,96.88,66.465,96.88ZM65.43,98.861h2.044c-.009-.6-.28-1.341-1.018-1.341C65.736,97.52,65.457,98.275,65.43,98.861Z" transform="translate(0 -2.18)"/>
      <path d="M70.146,96.926a.54.54,0,1,1-.55.54A.547.547,0,0,1,70.146,96.926Zm0,3.421a.54.54,0,1,1-.55.54A.548.548,0,0,1,70.146,100.347Z" transform="translate(0 -2.18)"/>
      <path d="M75.753,96.448l-.928.982-.5-.532,1.531-1.566H76.6v6.005h-.846Z" transform="translate(0 -2.18)"/>
      <path d="M78.2,100.644c2.034-2.224,2.647-2.881,2.647-3.709a.886.886,0,0,0-.918-.928,1.452,1.452,0,0,0-1.27.729l-.54-.522a2.11,2.11,0,0,1,1.819-.972,1.659,1.659,0,0,1,1.782,1.693c0,.971-.72,1.836-2.278,3.645h2.305v.757H78.2Z" transform="translate(0 -2.18)"/>
      <path d="M84.5,95.151h.585l-1.729,6.366h-.585Z" transform="translate(0 -2.18)"/>
      <path d="M86.075,100.644c2.034-2.224,2.647-2.881,2.647-3.709a.886.886,0,0,0-.918-.928,1.452,1.452,0,0,0-1.27.729l-.54-.522a2.109,2.109,0,0,1,1.818-.972A1.659,1.659,0,0,1,89.6,96.935c0,.971-.72,1.836-2.278,3.645h2.305v.757H86.075Z" transform="translate(0 -2.18)"/>
      <path d="M91.1,100.644c2.034-2.224,2.646-2.881,2.646-3.709a.886.886,0,0,0-.918-.928,1.451,1.451,0,0,0-1.269.729l-.54-.522a2.108,2.108,0,0,1,1.818-.972,1.659,1.659,0,0,1,1.782,1.693c0,.971-.72,1.836-2.277,3.645h2.305v.757H91.1Z" transform="translate(0 -2.18)"/>
      <path d="M.6,106.332H2.736a1.422,1.422,0,0,1,1.513,1.53,1.323,1.323,0,0,1-.927,1.378,1.427,1.427,0,0,1,1.027,1.476A1.458,1.458,0,0,1,2.8,112.337H.6ZM2.557,108.9c.558,0,.81-.386.81-.9s-.252-.909-.81-.909h-1.1V108.9Zm.036,2.683c.576,0,.873-.359.873-.963a.86.86,0,0,0-.873-.963H1.458v1.926Z" transform="translate(0 -2.18)"/>
      <path d="M7.453,107.88c1.161,0,1.764,1.017,1.764,2.305v.225H6.427c.035.792.45,1.4,1.2,1.4a1.328,1.328,0,0,0,1-.5l.4.468a1.927,1.927,0,0,1-1.468.674c-1.18,0-1.918-.945-1.918-2.286C5.634,108.9,6.318,107.88,7.453,107.88Zm-1.036,1.981H8.461c-.009-.6-.279-1.341-1.018-1.341C6.724,108.52,6.444,109.275,6.417,109.861Z" transform="translate(0 -2.18)"/>
      <path d="M10.936,112.949a1.4,1.4,0,0,0,1.125.5,1,1,0,0,0,1.053-1.134v-.666a1.342,1.342,0,0,1-1.125.719c-.972,0-1.576-.854-1.576-2.241,0-1.359.595-2.242,1.576-2.242a1.3,1.3,0,0,1,1.125.712v-.6h.775v4.268a1.639,1.639,0,0,1-1.8,1.846,1.983,1.983,0,0,1-1.494-.55Zm2.178-3.727a1.086,1.086,0,0,0-.909-.658c-.666,0-.99.676-.99,1.558s.324,1.558.99,1.558a1.086,1.086,0,0,0,.909-.658Z" transform="translate(0 -2.18)"/>
      <path d="M15.427,106.764a.508.508,0,0,1,.5-.5.5.5,0,0,1,.5.5.5.5,0,0,1-.5.5A.5.5,0,0,1,15.427,106.764Zm.117,1.224h.773v4.349h-.773Z" transform="translate(0 -2.18)"/>
      <path d="M20.359,109.312c0-.549-.253-.748-.657-.748a1.168,1.168,0,0,0-.955.649v3.124h-.773v-4.349h.773v.6a1.617,1.617,0,0,1,1.261-.712c.756,0,1.116.415,1.116,1.18v3.277h-.765Z" transform="translate(0 -2.18)"/>
      <path d="M25.174,109.312c0-.549-.253-.748-.657-.748a1.167,1.167,0,0,0-.955.649v3.124h-.774v-4.349h.774v.6a1.615,1.615,0,0,1,1.26-.712c.756,0,1.116.415,1.116,1.18v3.277h-.764Z" transform="translate(0 -2.18)"/>
      <path d="M27.486,106.764a.509.509,0,0,1,.5-.5.5.5,0,0,1,.5.5.5.5,0,0,1-.5.5A.5.5,0,0,1,27.486,106.764Zm.118,1.224h.773v4.349H27.6Z" transform="translate(0 -2.18)"/>
      <path d="M32.419,109.312c0-.549-.253-.748-.657-.748a1.168,1.168,0,0,0-.955.649v3.124h-.774v-4.349h.774v.6a1.615,1.615,0,0,1,1.26-.712c.756,0,1.117.415,1.117,1.18v3.277h-.765Z" transform="translate(0 -2.18)"/>
      <path d="M35.153,112.949a1.406,1.406,0,0,0,1.125.5,1,1,0,0,0,1.054-1.134v-.666a1.343,1.343,0,0,1-1.125.719c-.973,0-1.576-.854-1.576-2.241,0-1.359.595-2.242,1.576-2.242a1.3,1.3,0,0,1,1.125.712v-.6h.774v4.268a1.639,1.639,0,0,1-1.8,1.846,1.983,1.983,0,0,1-1.494-.55Zm2.179-3.727a1.086,1.086,0,0,0-.909-.658c-.666,0-.99.676-.99,1.558s.324,1.558.99,1.558a1.086,1.086,0,0,0,.909-.658Z" transform="translate(0 -2.18)"/>
      <path d="M43.929,110.005h-.8v2.332h-.855v-6.005h1.954a1.675,1.675,0,0,1,1.7,1.827,1.577,1.577,0,0,1-1.161,1.7l1.215,2.476h-.963Zm.179-2.917h-.981v2.161h.981a1.091,1.091,0,0,0,0-2.161Z" transform="translate(0 -2.18)"/>
      <path d="M48.834,107.88c1.161,0,1.764,1.017,1.764,2.305v.225h-2.79c.035.792.45,1.4,1.2,1.4a1.33,1.33,0,0,0,1-.5l.4.468a1.923,1.923,0,0,1-1.467.674c-1.18,0-1.918-.945-1.918-2.286C47.015,108.9,47.7,107.88,48.834,107.88ZM47.8,109.861h2.044c-.009-.6-.28-1.341-1.018-1.341C48.1,108.52,47.825,109.275,47.8,109.861Z" transform="translate(0 -2.18)"/>
      <path d="M54.252,111.887a1.4,1.4,0,0,1-1.144.557A1.337,1.337,0,0,1,51.785,111a1.313,1.313,0,0,1,1.323-1.422,1.364,1.364,0,0,1,1.144.54v-.693a.792.792,0,0,0-.864-.883,1.473,1.473,0,0,0-1.089.514l-.316-.54a2.086,2.086,0,0,1,1.531-.631,1.332,1.332,0,0,1,1.512,1.45v3.007h-.774Zm0-1.242a1,1,0,0,0-.873-.523.895.895,0,0,0,0,1.782.993.993,0,0,0,.873-.521Z" transform="translate(0 -2.18)"/>
      <path d="M59.175,111.742a1.367,1.367,0,0,1-1.134.7c-.973,0-1.576-.89-1.576-2.277,0-1.359.595-2.287,1.576-2.287a1.323,1.323,0,0,1,1.134.712v-2.26h.765v6.005h-.765Zm0-2.52a1.111,1.111,0,0,0-.918-.658c-.666,0-.99.711-.99,1.6s.324,1.594.99,1.594a1.1,1.1,0,0,0,.918-.649Z" transform="translate(0 -2.18)"/>
      <path d="M62.108,107.926a.54.54,0,1,1-.549.54A.547.547,0,0,1,62.108,107.926Zm0,3.421a.54.54,0,1,1-.549.54A.548.548,0,0,1,62.108,111.347Z" transform="translate(0 -2.18)"/>
      <path d="M68.76,110.869h-2.4v-.729l2.152-3.808h1.1v3.781h.639v.756h-.639v1.468H68.76Zm-1.612-.756H68.76v-2.872Z" transform="translate(0 -2.18)"/>
      <path d="M73.746,107.088h-2.53v-.756h3.493v.594l-1.9,5.411h-.928Z" transform="translate(0 -2.18)"/>
      <path d="M78.048,110.869H75.653v-.729l2.152-3.808h1.1v3.781h.639v.756H78.9v1.468h-.855Zm-1.611-.756h1.611v-2.872Z" transform="translate(0 -2.18)"/>
      <path d="M82.629,106.242c1.422,0,1.944,1.494,1.944,3.1s-.512,3.105-1.944,3.105-1.954-1.5-1.954-3.105S81.2,106.242,82.629,106.242Zm0,.765c-.864,0-1.08,1.152-1.08,2.332s.216,2.341,1.08,2.341,1.071-1.171,1.071-2.341S83.484,107.007,82.629,107.007Z" transform="translate(0 -2.18)"/>
      <path d="M.6,117.332H3.79v.756H1.458V119.9h2.27v.757H1.458v1.926H3.79v.757H.6Z" transform="translate(0 -2.18)"/>
      <path d="M7.679,120.312c0-.549-.253-.748-.658-.748a1.17,1.17,0,0,0-.955.649v3.124H5.293v-4.349h.773v.6a1.618,1.618,0,0,1,1.261-.712c.756,0,1.116.415,1.116,1.18v3.277H7.679Z" transform="translate(0 -2.18)"/>
      <path d="M12.6,122.742a1.367,1.367,0,0,1-1.134.7c-.973,0-1.576-.89-1.576-2.277,0-1.359.594-2.287,1.576-2.287a1.324,1.324,0,0,1,1.134.712v-2.26h.765v6.005H12.6Zm0-2.52a1.112,1.112,0,0,0-.918-.658c-.666,0-.991.711-.991,1.6s.325,1.594.991,1.594a1.1,1.1,0,0,0,.918-.649Z" transform="translate(0 -2.18)"/>
      <path d="M14.913,117.764a.508.508,0,0,1,.5-.5.5.5,0,0,1,.5.5.5.5,0,0,1-.5.5A.5.5,0,0,1,14.913,117.764Zm.117,1.224H15.8v4.349H15.03Z" transform="translate(0 -2.18)"/>
      <path d="M19.846,120.312c0-.549-.253-.748-.658-.748a1.168,1.168,0,0,0-.955.649v3.124H17.46v-4.349h.773v.6a1.618,1.618,0,0,1,1.261-.712c.756,0,1.116.415,1.116,1.18v3.277h-.764Z" transform="translate(0 -2.18)"/>
      <path d="M22.581,123.949a1.4,1.4,0,0,0,1.125.5,1,1,0,0,0,1.054-1.134v-.666a1.343,1.343,0,0,1-1.125.719c-.973,0-1.576-.854-1.576-2.241,0-1.359.594-2.242,1.576-2.242a1.3,1.3,0,0,1,1.125.712v-.6h.774v4.268a1.639,1.639,0,0,1-1.8,1.846,1.985,1.985,0,0,1-1.494-.55Zm2.179-3.727a1.088,1.088,0,0,0-.909-.658c-.666,0-.991.676-.991,1.558s.325,1.558.991,1.558a1.088,1.088,0,0,0,.909-.658Z" transform="translate(0 -2.18)"/>
      <path d="M31.356,121.005h-.8v2.332H29.7v-6.005h1.953a1.675,1.675,0,0,1,1.7,1.827,1.576,1.576,0,0,1-1.161,1.7l1.216,2.476h-.964Zm.18-2.917h-.981v2.161h.981a1.091,1.091,0,0,0,0-2.161Z" transform="translate(0 -2.18)"/>
      <path d="M36.262,118.88c1.161,0,1.763,1.017,1.763,2.305v.225h-2.79c.036.792.451,1.4,1.2,1.4a1.33,1.33,0,0,0,1-.5l.4.468a1.925,1.925,0,0,1-1.468.674c-1.179,0-1.918-.945-1.918-2.286C34.442,119.9,35.127,118.88,36.262,118.88Zm-1.036,1.981H37.27c-.009-.6-.28-1.341-1.018-1.341C35.532,119.52,35.253,120.275,35.226,120.861Z" transform="translate(0 -2.18)"/>
      <path d="M41.68,122.887a1.4,1.4,0,0,1-1.144.557A1.337,1.337,0,0,1,39.213,122a1.313,1.313,0,0,1,1.323-1.422,1.365,1.365,0,0,1,1.144.54v-.693a.792.792,0,0,0-.865-.883,1.471,1.471,0,0,0-1.088.514l-.316-.54a2.086,2.086,0,0,1,1.53-.631,1.332,1.332,0,0,1,1.513,1.45v3.007H41.68Zm0-1.242a1,1,0,0,0-.873-.523.895.895,0,0,0,0,1.782.993.993,0,0,0,.873-.521Z" transform="translate(0 -2.18)"/>
      <path d="M46.6,122.742a1.367,1.367,0,0,1-1.134.7c-.973,0-1.576-.89-1.576-2.277,0-1.359.594-2.287,1.576-2.287a1.324,1.324,0,0,1,1.134.712v-2.26h.765v6.005H46.6Zm0-2.52a1.114,1.114,0,0,0-.918-.658c-.666,0-.991.711-.991,1.6s.325,1.594.991,1.594a1.1,1.1,0,0,0,.918-.649Z" transform="translate(0 -2.18)"/>
      <path d="M49.536,118.926a.54.54,0,1,1-.55.54A.547.547,0,0,1,49.536,118.926Zm0,3.421a.54.54,0,1,1-.55.54A.548.548,0,0,1,49.536,122.347Z" transform="translate(0 -2.18)"/>
      <path d="M54.575,121.941a1.4,1.4,0,0,0,1.26.739,1.088,1.088,0,0,0,1.026-1.2c0-.783-.378-1.215-.98-1.215a1.248,1.248,0,0,0-1.054.54l-.63-.2v-3.276h3.214v.756H55.052v1.944a1.415,1.415,0,0,1,1.107-.512c.874,0,1.576.684,1.576,1.935a1.852,1.852,0,0,1-1.873,1.989,2.014,2.014,0,0,1-1.837-.971Z" transform="translate(0 -2.18)"/>
      <path d="M60.984,117.242c1.422,0,1.945,1.494,1.945,3.1s-.513,3.105-1.945,3.105-1.954-1.5-1.954-3.105S59.553,117.242,60.984,117.242Zm0,.765c-.864,0-1.08,1.152-1.08,2.332s.216,2.341,1.08,2.341,1.072-1.171,1.072-2.341S61.84,118.007,60.984,118.007Z" transform="translate(0 -2.18)"/>
      <path d="M64.305,122.644c2.034-2.224,2.646-2.881,2.646-3.709a.886.886,0,0,0-.918-.928,1.451,1.451,0,0,0-1.269.729l-.54-.522a2.108,2.108,0,0,1,1.818-.972,1.659,1.659,0,0,1,1.782,1.693c0,.971-.72,1.836-2.277,3.645h2.305v.757H64.305Z" transform="translate(0 -2.18)"/>
      <path d="M70.425,118.448l-.928.982-.5-.532,1.53-1.566h.748v6.005h-.846Z" transform="translate(0 -2.18)"/>
      <path d="M75.293,121.149a7.634,7.634,0,0,1,1.1-3.979l.512.3a9.222,9.222,0,0,0,0,7.355l-.512.306A7.634,7.634,0,0,1,75.293,121.149Z" transform="translate(0 -2.18)"/>
      <path d="M81.036,122.067H78.9l-.35,1.27H77.66l1.792-6.005h1.027l1.8,6.005h-.89Zm-1.953-.755h1.773l-.891-3.188Z" transform="translate(0 -2.18)"/>
      <path d="M85.04,118.88a1.535,1.535,0,0,1,1.288.586l-.405.521a.959.959,0,0,0-.811-.423c-.729,0-1.125.721-1.125,1.594s.4,1.6,1.125,1.6a.982.982,0,0,0,.811-.424l.405.522a1.511,1.511,0,0,1-1.288.585c-1.134,0-1.854-.98-1.854-2.286S83.906,118.88,85.04,118.88Z" transform="translate(0 -2.18)"/>
      <path d="M87.794,122.418v-2.754h-.576v-.676h.576V117.8h.766v1.188h.729v.676H88.56v2.6c0,.3.108.495.341.495a.5.5,0,0,0,.37-.154l.2.577a1,1,0,0,1-.739.26C88.092,123.444,87.794,123.094,87.794,122.418Z" transform="translate(0 -2.18)"/>
      <path d="M93.024,122.752a1.592,1.592,0,0,1-1.269.692c-.757,0-1.116-.386-1.116-1.17v-3.286h.773v3.043c0,.54.252.73.657.73a1.171,1.171,0,0,0,.955-.631v-3.142h.765v4.349h-.765Z" transform="translate(0 -2.18)"/>
      <path d="M97.694,122.887a1.4,1.4,0,0,1-1.143.557A1.337,1.337,0,0,1,95.228,122a1.313,1.313,0,0,1,1.323-1.422,1.362,1.362,0,0,1,1.143.54v-.693a.792.792,0,0,0-.864-.883,1.475,1.475,0,0,0-1.089.514l-.315-.54a2.084,2.084,0,0,1,1.53-.631,1.332,1.332,0,0,1,1.513,1.45v3.007h-.775Zm0-1.242a.993.993,0,0,0-.873-.523.9.9,0,0,0,0,1.782.991.991,0,0,0,.873-.521Z" transform="translate(0 -2.18)"/>
      <path d="M100.124,117.332h.773v6.005h-.773Z" transform="translate(0 -2.18)"/>
      <path d="M102.157,117.467l.5-.3a7.651,7.651,0,0,1,0,7.958l-.5-.306a9.113,9.113,0,0,0,0-7.355Z" transform="translate(0 -2.18)"/>
      <path d="M.6,128.332H2.3c1.584,0,2.475,1.278,2.475,3.007s-.882,3-2.466,3H.6ZM2.3,133.58c1.053,0,1.593-.954,1.593-2.241,0-1.306-.531-2.251-1.593-2.251H1.458v4.492Z" transform="translate(0 -2.18)"/>
      <path d="M6.139,128.764a.508.508,0,0,1,.5-.5.5.5,0,0,1,.5.5.5.5,0,0,1-.5.495A.5.5,0,0,1,6.139,128.764Zm.117,1.224h.773v4.349H6.256Z" transform="translate(0 -2.18)"/>
      <path d="M8.856,130.664H8.289v-.676h.567v-.467a1.123,1.123,0,0,1,1.117-1.279,1.306,1.306,0,0,1,.612.135l-.171.594a.588.588,0,0,0-.279-.072c-.316,0-.5.225-.5.622v.467h.728v.676H9.631v3.673H8.856Zm2.376,0h-.566v-.676h.566v-.467a1.124,1.124,0,0,1,1.118-1.279,1.3,1.3,0,0,1,.611.135l-.171.594a.584.584,0,0,0-.278-.072c-.316,0-.505.225-.505.622v.467h.729v.676h-.729v3.673h-.775Z" transform="translate(0 -2.18)"/>
      <path d="M15.57,129.88c1.162,0,1.765,1.017,1.765,2.305v.225h-2.79c.035.792.449,1.4,1.2,1.4a1.328,1.328,0,0,0,1-.5l.4.468a1.925,1.925,0,0,1-1.468.674c-1.18,0-1.918-.945-1.918-2.286C13.752,130.9,14.437,129.88,15.57,129.88Zm-1.035,1.981h2.044c-.009-.6-.279-1.341-1.017-1.341C14.842,130.52,14.562,131.275,14.535,131.861Z" transform="translate(0 -2.18)"/>
      <path d="M18.747,129.988h.774v.666a1.462,1.462,0,0,1,1.215-.764v.783a.862.862,0,0,0-.225-.027,1.253,1.253,0,0,0-.99.657v3.034h-.774Z" transform="translate(0 -2.18)"/>
      <path d="M23.58,129.88c1.162,0,1.765,1.017,1.765,2.305v.225h-2.79c.035.792.449,1.4,1.2,1.4a1.328,1.328,0,0,0,1-.5l.4.468a1.923,1.923,0,0,1-1.467.674c-1.18,0-1.918-.945-1.918-2.286C21.762,130.9,22.446,129.88,23.58,129.88Zm-1.035,1.981h2.044c-.009-.6-.279-1.341-1.018-1.341C22.852,130.52,22.572,131.275,22.545,131.861Z" transform="translate(0 -2.18)"/>
      <path d="M29.143,131.312c0-.549-.253-.748-.658-.748a1.168,1.168,0,0,0-.955.649v3.124h-.773v-4.349h.773v.6a1.617,1.617,0,0,1,1.261-.712c.756,0,1.116.415,1.116,1.18v3.277h-.764Z" transform="translate(0 -2.18)"/>
      <path d="M31.725,133.418v-2.754h-.577v-.676h.577V128.8h.765v1.188h.73v.676h-.73v2.6c0,.305.108.5.342.5a.5.5,0,0,0,.369-.154l.2.577a.994.994,0,0,1-.738.26C32.021,134.444,31.725,134.094,31.725,133.418Z" transform="translate(0 -2.18)"/>
      <path d="M34.452,128.764a.509.509,0,0,1,.5-.5.5.5,0,0,1,.5.5.5.5,0,0,1-.5.495A.5.5,0,0,1,34.452,128.764Zm.117,1.224h.774v4.349h-.774Z" transform="translate(0 -2.18)"/>
      <path d="M39.24,133.887a1.4,1.4,0,0,1-1.143.557A1.338,1.338,0,0,1,36.773,133a1.314,1.314,0,0,1,1.324-1.422,1.363,1.363,0,0,1,1.143.54v-.693a.792.792,0,0,0-.864-.883,1.473,1.473,0,0,0-1.089.514l-.315-.54a2.084,2.084,0,0,1,1.53-.631,1.332,1.332,0,0,1,1.513,1.45v3.007H39.24Zm0-1.242a.993.993,0,0,0-.873-.523.9.9,0,0,0,0,1.782.991.991,0,0,0,.873-.521Z" transform="translate(0 -2.18)"/>
      <path d="M41.67,128.332h.773v6H41.67Z" transform="translate(0 -2.18)"/>
      <path d="M44.6,129.926a.54.54,0,1,1-.55.54A.547.547,0,0,1,44.6,129.926Zm0,3.421a.54.54,0,1,1-.55.54A.548.548,0,0,1,44.6,133.347Z" transform="translate(0 -2.18)"/>
      <path d="M49.112,133.644c2.034-2.224,2.647-2.881,2.647-3.709a.886.886,0,0,0-.918-.928,1.452,1.452,0,0,0-1.27.729l-.54-.522a2.11,2.11,0,0,1,1.819-.972,1.659,1.659,0,0,1,1.782,1.693c0,.971-.72,1.836-2.278,3.645h2.3v.757H49.112Z" transform="translate(0 -2.18)"/>
      <path d="M55.232,131.24a1.57,1.57,0,0,1-1.089-1.459A1.794,1.794,0,1,1,56.6,131.24a1.81,1.81,0,0,1,1.188,1.6,1.643,1.643,0,0,1-1.864,1.6c-1.1,0-1.872-.593-1.872-1.6A1.8,1.8,0,0,1,55.232,131.24Zm.693.351a1.278,1.278,0,0,0-1.008,1.143,1.006,1.006,0,0,0,2.008,0A1.291,1.291,0,0,0,55.925,131.591Zm0-2.584a.854.854,0,0,0-.927.9c0,.676.693.954.927,1.018.225-.064.919-.342.919-1.018A.856.856,0,0,0,55.925,129.007Z" transform="translate(0 -2.18)"/>
      <path d="M60.246,129.448l-.928.982-.5-.532,1.531-1.566h.747v6h-.846Z" transform="translate(0 -2.18)"/>
      <path d="M.387,142.339c0-1.8.919-3.107,2.368-3.107a1.989,1.989,0,0,1,1.854,1.252l-.711.325A1.257,1.257,0,0,0,2.755,140c-.909,0-1.494.99-1.494,2.341s.585,2.341,1.494,2.341A1.248,1.248,0,0,0,3.9,143.8l.72.324a1.989,1.989,0,0,1-1.863,1.323C1.306,145.444.387,144.14.387,142.339Z" transform="translate(0 -2.18)"/>
      <path d="M5.742,143.158c0-1.224.631-2.278,1.828-2.278S9.4,141.934,9.4,143.158s-.629,2.286-1.827,2.286S5.742,144.383,5.742,143.158Zm2.855,0c0-.828-.316-1.594-1.027-1.594s-1.017.766-1.017,1.594.315,1.6,1.017,1.6S8.6,144,8.6,143.158Z" transform="translate(0 -2.18)"/>
      <path d="M13.223,142.312c0-.549-.253-.748-.658-.748a1.168,1.168,0,0,0-.955.649v3.124h-.773v-4.349h.773v.6a1.618,1.618,0,0,1,1.261-.712c.756,0,1.116.415,1.116,1.18v3.277h-.764Z" transform="translate(0 -2.18)"/>
      <path d="M15.669,144.283a1.6,1.6,0,0,0,1.161.54c.478,0,.774-.233.774-.6,0-.414-.4-.595-.864-.775-.6-.225-1.3-.486-1.3-1.359a1.273,1.273,0,0,1,1.441-1.207,1.88,1.88,0,0,1,1.377.558l-.342.532a1.3,1.3,0,0,0-1.026-.468c-.433,0-.721.225-.721.54,0,.369.388.531.828.711.612.225,1.342.5,1.342,1.423a1.327,1.327,0,0,1-1.5,1.268,1.976,1.976,0,0,1-1.53-.611Z" transform="translate(0 -2.18)"/>
      <path d="M19.89,144.418v-2.754h-.577v-.676h.577V139.8h.765v1.188h.73v.676h-.73v2.6c0,.305.109.5.342.5a.5.5,0,0,0,.369-.154l.2.577a.994.994,0,0,1-.738.26C20.188,145.444,19.89,145.094,19.89,144.418Z" transform="translate(0 -2.18)"/>
      <path d="M24.976,144.887a1.4,1.4,0,0,1-1.144.557A1.337,1.337,0,0,1,22.509,144a1.313,1.313,0,0,1,1.323-1.422,1.365,1.365,0,0,1,1.144.54v-.693a.792.792,0,0,0-.865-.883,1.475,1.475,0,0,0-1.089.514l-.315-.54a2.084,2.084,0,0,1,1.53-.631,1.332,1.332,0,0,1,1.513,1.45v3.007h-.774Zm0-1.242a1,1,0,0,0-.873-.523.895.895,0,0,0,0,1.782.993.993,0,0,0,.873-.521Z" transform="translate(0 -2.18)"/>
      <path d="M29.791,142.312c0-.549-.253-.748-.657-.748a1.167,1.167,0,0,0-.955.649v3.124h-.774v-4.349h.774v.6a1.615,1.615,0,0,1,1.26-.712c.756,0,1.117.415,1.117,1.18v3.277h-.765Z" transform="translate(0 -2.18)"/>
      <path d="M32.373,144.418v-2.754H31.8v-.676h.576V139.8h.766v1.188h.729v.676h-.729v2.6c0,.305.107.5.341.5a.5.5,0,0,0,.37-.154l.2.577a1,1,0,0,1-.738.26C32.67,145.444,32.373,145.094,32.373,144.418Z" transform="translate(0 -2.18)"/>
      <path d="M35.721,140.926a.54.54,0,1,1-.55.54A.547.547,0,0,1,35.721,140.926Zm0,3.421a.54.54,0,1,1-.55.54A.548.548,0,0,1,35.721,144.347Z" transform="translate(0 -2.18)"/>
      <path d="M42.12,139.242c1.422,0,1.944,1.494,1.944,3.1s-.512,3.1-1.944,3.1-1.954-1.5-1.954-3.1S40.688,139.242,42.12,139.242Zm0,.765c-.864,0-1.08,1.152-1.08,2.332s.216,2.341,1.08,2.341,1.071-1.171,1.071-2.341S42.976,140.007,42.12,140.007Z" transform="translate(0 -2.18)"/>
      <path d="M45.837,144.347a.54.54,0,1,1-.55.54A.548.548,0,0,1,45.837,144.347Z" transform="translate(0 -2.18)"/>
      <path d="M48.223,140.448l-.928.982-.5-.532,1.53-1.566h.747v6h-.845Z" transform="translate(0 -2.18)"/>
      <path d="M.387,153.339c0-1.8.919-3.107,2.368-3.107a1.989,1.989,0,0,1,1.854,1.252l-.711.325A1.257,1.257,0,0,0,2.755,151c-.909,0-1.494.99-1.494,2.341s.585,2.341,1.494,2.341A1.248,1.248,0,0,0,3.9,154.8l.72.324a1.989,1.989,0,0,1-1.863,1.323C1.306,156.444.387,155.14.387,153.339Z" transform="translate(0 -2.18)"/>
      <path d="M5.742,154.158c0-1.224.631-2.278,1.828-2.278S9.4,152.934,9.4,154.158s-.629,2.286-1.827,2.286S5.742,155.383,5.742,154.158Zm2.855,0c0-.828-.316-1.594-1.027-1.594s-1.017.766-1.017,1.594.315,1.6,1.017,1.6S8.6,155,8.6,154.158Z" transform="translate(0 -2.18)"/>
      <path d="M10.837,151.988h.773v.666a1.464,1.464,0,0,1,1.216-.764v.783a.862.862,0,0,0-.225-.027,1.256,1.256,0,0,0-.991.657v3.034h-.773Z" transform="translate(0 -2.18)"/>
      <path d="M14.067,151.988h.774v.666a1.462,1.462,0,0,1,1.216-.764v.783a.875.875,0,0,0-.226-.027,1.253,1.253,0,0,0-.99.657v3.034h-.774Z" transform="translate(0 -2.18)"/>
      <path d="M18.9,151.88c1.162,0,1.765,1.017,1.765,2.305v.225h-2.79c.035.792.449,1.4,1.2,1.4a1.327,1.327,0,0,0,1-.5l.4.468a1.925,1.925,0,0,1-1.468.674c-1.18,0-1.918-.945-1.918-2.286C17.082,152.9,17.767,151.88,18.9,151.88Zm-1.035,1.981h2.044c-.009-.6-.279-1.341-1.017-1.341C18.172,152.52,17.893,153.275,17.865,153.861Z" transform="translate(0 -2.18)"/>
      <path d="M23.715,151.88a1.535,1.535,0,0,1,1.288.586l-.405.521a.96.96,0,0,0-.811-.423c-.729,0-1.125.721-1.125,1.594s.4,1.6,1.125,1.6a.984.984,0,0,0,.811-.424l.405.522a1.511,1.511,0,0,1-1.288.585c-1.134,0-1.855-.98-1.855-2.286S22.581,151.88,23.715,151.88Z" transform="translate(0 -2.18)"/>
      <path d="M26.469,155.418v-2.754h-.576v-.676h.576V150.8h.765v1.188h.73v.676h-.73v2.6c0,.305.108.5.342.5a.5.5,0,0,0,.369-.154l.2.577a1,1,0,0,1-.739.26C26.766,156.444,26.469,156.094,26.469,155.418Z" transform="translate(0 -2.18)"/>
      <path d="M29.2,150.764a.509.509,0,0,1,.5-.5.5.5,0,0,1,.5.5.5.5,0,0,1-.5.495A.5.5,0,0,1,29.2,150.764Zm.117,1.224h.774v4.349h-.774Z" transform="translate(0 -2.18)"/>
      <path d="M31.526,154.158c0-1.224.631-2.278,1.828-2.278s1.828,1.054,1.828,2.278-.63,2.286-1.828,2.286S31.526,155.383,31.526,154.158Zm2.855,0c0-.828-.316-1.594-1.027-1.594s-1.017.766-1.017,1.594.315,1.6,1.017,1.6S34.381,155,34.381,154.158Z" transform="translate(0 -2.18)"/>
      <path d="M39.007,153.312c0-.549-.253-.748-.657-.748a1.168,1.168,0,0,0-.955.649v3.124h-.774v-4.349H37.4v.6a1.615,1.615,0,0,1,1.26-.712c.756,0,1.116.415,1.116,1.18v3.277h-.764Z" transform="translate(0 -2.18)"/>
      <path d="M44.073,152.664h-.567v-.676h.567v-.467a1.123,1.123,0,0,1,1.116-1.279,1.308,1.308,0,0,1,.613.135l-.171.594a.588.588,0,0,0-.279-.072c-.316,0-.5.225-.5.622v.467h.728v.676h-.728v3.673h-.775Z" transform="translate(0 -2.18)"/>
      <path d="M49.06,155.887a1.4,1.4,0,0,1-1.144.557A1.337,1.337,0,0,1,46.593,155a1.313,1.313,0,0,1,1.323-1.422,1.365,1.365,0,0,1,1.144.54v-.693a.792.792,0,0,0-.865-.883,1.475,1.475,0,0,0-1.089.514l-.315-.54a2.084,2.084,0,0,1,1.53-.631,1.332,1.332,0,0,1,1.513,1.45v3.007H49.06Zm0-1.242a1,1,0,0,0-.873-.523.895.895,0,0,0,0,1.782.993.993,0,0,0,.873-.521Z" transform="translate(0 -2.18)"/>
      <path d="M53.127,151.88a1.535,1.535,0,0,1,1.288.586l-.405.521a.96.96,0,0,0-.811-.423c-.729,0-1.125.721-1.125,1.594s.4,1.6,1.125,1.6a.984.984,0,0,0,.811-.424l.405.522a1.511,1.511,0,0,1-1.288.585c-1.134,0-1.855-.98-1.855-2.286S51.993,151.88,53.127,151.88Z" transform="translate(0 -2.18)"/>
      <path d="M55.88,155.418v-2.754H55.3v-.676h.576V150.8h.766v1.188h.729v.676h-.729v2.6c0,.305.108.5.341.5a.5.5,0,0,0,.369-.154l.2.577a1,1,0,0,1-.739.26C56.178,156.444,55.88,156.094,55.88,155.418Z" transform="translate(0 -2.18)"/>
      <path d="M58.508,154.158c0-1.224.631-2.278,1.828-2.278s1.827,1.054,1.827,2.278-.63,2.286-1.827,2.286S58.508,155.383,58.508,154.158Zm2.854,0c0-.828-.315-1.594-1.026-1.594s-1.018.766-1.018,1.594.316,1.6,1.018,1.6S61.362,155,61.362,154.158Z" transform="translate(0 -2.18)"/>
      <path d="M63.6,151.988h.773v.666a1.462,1.462,0,0,1,1.216-.764v.783a.87.87,0,0,0-.226-.027,1.254,1.254,0,0,0-.99.657v3.034H63.6Z" transform="translate(0 -2.18)"/>
      <path d="M66.879,150.332h.854v5.248h2.134v.757H66.879Z" transform="translate(0 -2.18)"/>
      <path d="M74.682,151.448l-.928.982-.5-.532,1.53-1.566h.747v6h-.845Z" transform="translate(0 -2.18)"/>
      <path d="M77.741,155.347a.54.54,0,1,1-.55.54A.548.548,0,0,1,77.741,155.347Z" transform="translate(0 -2.18)"/>
      <path d="M81.675,150.242c1.422,0,1.944,1.494,1.944,3.1s-.513,3.1-1.944,3.1-1.954-1.5-1.954-3.1S80.243,150.242,81.675,150.242Zm0,.765c-.864,0-1.08,1.152-1.08,2.332s.216,2.341,1.08,2.341,1.071-1.171,1.071-2.341S82.53,151.007,81.675,151.007Z" transform="translate(0 -2.18)"/>
      <path d="M86.886,150.242c1.422,0,1.944,1.494,1.944,3.1s-.513,3.1-1.944,3.1-1.954-1.5-1.954-3.1S85.454,150.242,86.886,150.242Zm0,.765c-.865,0-1.08,1.152-1.08,2.332s.215,2.341,1.08,2.341,1.071-1.171,1.071-2.341S87.741,151.007,86.886,151.007Z" transform="translate(0 -2.18)"/>
      <path d="M92.1,150.242c1.422,0,1.944,1.494,1.944,3.1s-.513,3.1-1.944,3.1-1.954-1.5-1.954-3.1S90.665,150.242,92.1,150.242Zm0,.765c-.865,0-1.08,1.152-1.08,2.332s.215,2.341,1.08,2.341,1.071-1.171,1.071-2.341S92.952,151.007,92.1,151.007Z" transform="translate(0 -2.18)"/>
      <path d="M97.308,150.242c1.421,0,1.944,1.494,1.944,3.1s-.513,3.1-1.944,3.1-1.954-1.5-1.954-3.1S95.876,150.242,97.308,150.242Zm0,.765c-.865,0-1.08,1.152-1.08,2.332s.215,2.341,1.08,2.341,1.071-1.171,1.071-2.341S98.163,151.007,97.308,151.007Z" transform="translate(0 -2.18)"/>
      <path d="M102.519,150.242c1.421,0,1.944,1.494,1.944,3.1s-.513,3.1-1.944,3.1-1.955-1.5-1.955-3.1S101.087,150.242,102.519,150.242Zm0,.765c-.865,0-1.081,1.152-1.081,2.332s.216,2.341,1.081,2.341,1.071-1.171,1.071-2.341S103.374,151.007,102.519,151.007Z" transform="translate(0 -2.18)"/>
      <path d="M.6,161.332h.854v4.033c0,.864.424,1.323,1.152,1.323s1.153-.459,1.153-1.323v-4.033h.855v4.024a1.87,1.87,0,0,1-2.008,2.088A1.869,1.869,0,0,1,.6,165.356Z" transform="translate(0 -2.18)"/>
      <path d="M6.336,166.283a1.6,1.6,0,0,0,1.161.54c.478,0,.774-.233.774-.6,0-.414-.405-.595-.864-.775-.6-.225-1.3-.486-1.3-1.359a1.273,1.273,0,0,1,1.441-1.207,1.882,1.882,0,0,1,1.377.558l-.342.532a1.3,1.3,0,0,0-1.026-.468c-.433,0-.721.225-.721.54,0,.369.388.531.828.711.612.225,1.342.5,1.342,1.423a1.327,1.327,0,0,1-1.5,1.268,1.976,1.976,0,0,1-1.53-.611Z" transform="translate(0 -2.18)"/>
      <path d="M12.646,166.887a1.4,1.4,0,0,1-1.144.557A1.337,1.337,0,0,1,10.179,166a1.313,1.313,0,0,1,1.323-1.422,1.365,1.365,0,0,1,1.144.54v-.693a.792.792,0,0,0-.865-.883,1.475,1.475,0,0,0-1.089.514l-.315-.54a2.084,2.084,0,0,1,1.53-.631,1.332,1.332,0,0,1,1.513,1.45v3.007h-.774Zm0-1.242a1,1,0,0,0-.874-.523.9.9,0,0,0,0,1.782.994.994,0,0,0,.874-.521Z" transform="translate(0 -2.18)"/>
      <path d="M15.381,167.949a1.4,1.4,0,0,0,1.125.495,1,1,0,0,0,1.054-1.134v-.666a1.343,1.343,0,0,1-1.125.719c-.973,0-1.577-.854-1.577-2.241,0-1.359.595-2.242,1.577-2.242a1.3,1.3,0,0,1,1.125.712v-.6h.774v4.268a1.639,1.639,0,0,1-1.8,1.846,1.984,1.984,0,0,1-1.494-.55Zm2.179-3.727a1.089,1.089,0,0,0-.91-.658c-.666,0-.99.676-.99,1.558s.324,1.558.99,1.558a1.089,1.089,0,0,0,.91-.658Z" transform="translate(0 -2.18)"/>
      <path d="M21.592,162.88c1.161,0,1.763,1.017,1.763,2.305v.225h-2.79c.036.792.451,1.4,1.2,1.4a1.33,1.33,0,0,0,1-.5l.4.468a1.925,1.925,0,0,1-1.468.674c-1.179,0-1.918-.945-1.918-2.286C19.772,163.9,20.457,162.88,21.592,162.88Zm-1.036,1.981H22.6c-.009-.6-.28-1.341-1.018-1.341C20.862,163.52,20.583,164.275,20.556,164.861Z" transform="translate(0 -2.18)"/>
      <path d="M25.272,162.926a.54.54,0,1,1-.549.54A.546.546,0,0,1,25.272,162.926Zm0,3.421a.54.54,0,1,1-.549.54A.547.547,0,0,1,25.272,166.347Z" transform="translate(0 -2.18)"/>
      <path d="M29.78,166.644c2.034-2.224,2.647-2.881,2.647-3.709a.886.886,0,0,0-.918-.928,1.452,1.452,0,0,0-1.27.729l-.54-.522a2.11,2.11,0,0,1,1.819-.972,1.659,1.659,0,0,1,1.782,1.693c0,.971-.72,1.836-2.278,3.645h2.3v.757H29.78Z" transform="translate(0 -2.18)"/>
      <path d="M35.9,164.24a1.57,1.57,0,0,1-1.089-1.459,1.589,1.589,0,0,1,1.782-1.539,1.54,1.54,0,0,1,.676,3,1.81,1.81,0,0,1,1.188,1.6,1.643,1.643,0,0,1-1.864,1.6c-1.1,0-1.872-.593-1.872-1.6A1.8,1.8,0,0,1,35.9,164.24Zm.693.351a1.278,1.278,0,0,0-1.008,1.143,1.006,1.006,0,0,0,2.008,0A1.291,1.291,0,0,0,36.594,164.591Zm0-2.584a.854.854,0,0,0-.927.9c0,.676.693.954.927,1.018.225-.064.919-.342.919-1.018A.856.856,0,0,0,36.594,162.007Z" transform="translate(0 -2.18)"/>
      <path d="M40.428,166.347a.54.54,0,1,1-.55.54A.548.548,0,0,1,40.428,166.347Z" transform="translate(0 -2.18)"/>
      <path d="M42.813,162.448l-.927.982-.5-.532,1.53-1.566h.747v6h-.846Z" transform="translate(0 -2.18)"/>
      <path d="M52.11,162.728l-1.52,4.609h-.343l-1.513-4.609v4.609H47.88v-6h1.179l1.359,4.141,1.378-4.141h1.161v6H52.11Z" transform="translate(0 -2.18)"/>
      <path d="M56.294,162.88a1.535,1.535,0,0,1,1.288.586l-.405.521a.96.96,0,0,0-.811-.423c-.729,0-1.125.721-1.125,1.594s.4,1.6,1.125,1.6a.984.984,0,0,0,.811-.424l.405.522a1.511,1.511,0,0,1-1.288.585c-1.134,0-1.855-.98-1.855-2.286S55.16,162.88,56.294,162.88Z" transform="translate(0 -2.18)"/>
      <path d="M59.066,163.664H58.5v-.676h.567v-.467a1.123,1.123,0,0,1,1.117-1.279,1.306,1.306,0,0,1,.612.135l-.171.594a.588.588,0,0,0-.279-.072c-.316,0-.5.225-.5.622v.467h.728v.676h-.728v3.673h-.775Z" transform="translate(0 -2.18)"/>
      <path d="M1.611,173.088H.216v-.756H3.871v.756h-1.4v5.249H1.611Z" transform="translate(0 -2.18)"/>
      <path d="M4.248,176.158c0-1.224.631-2.278,1.828-2.278S7.9,174.934,7.9,176.158s-.63,2.286-1.827,2.286S4.248,177.383,4.248,176.158Zm2.855,0c0-.828-.316-1.594-1.027-1.594s-1.017.766-1.017,1.594.315,1.6,1.017,1.6S7.1,177,7.1,176.158Z" transform="translate(0 -2.18)"/>
      <path d="M9.495,177.418v-2.754H8.919v-.676h.576V172.8h.766v1.188h.729v.676h-.729v2.6c0,.305.108.5.342.5a.5.5,0,0,0,.369-.154l.2.577a1,1,0,0,1-.738.26C9.793,178.444,9.495,178.094,9.495,177.418Z" transform="translate(0 -2.18)"/>
      <path d="M14.581,177.887a1.4,1.4,0,0,1-1.143.557A1.337,1.337,0,0,1,12.114,177a1.313,1.313,0,0,1,1.324-1.422,1.363,1.363,0,0,1,1.143.54v-.693a.792.792,0,0,0-.864-.883,1.473,1.473,0,0,0-1.089.514l-.316-.54a2.086,2.086,0,0,1,1.531-.631,1.332,1.332,0,0,1,1.512,1.45v3.007h-.774Zm0-1.242a.994.994,0,0,0-.873-.523.895.895,0,0,0,0,1.782.992.992,0,0,0,.873-.521Z" transform="translate(0 -2.18)"/>
      <path d="M17.011,172.332h.773v6h-.773Z" transform="translate(0 -2.18)"/>
      <path d="M26.182,173.728l-1.522,4.609h-.342l-1.512-4.609v4.609h-.855v-6H23.13l1.359,4.141,1.378-4.141h1.161v6h-.846Z" transform="translate(0 -2.18)"/>
      <path d="M30.33,173.88c1.162,0,1.765,1.017,1.765,2.305v.225h-2.79c.035.792.449,1.4,1.2,1.4a1.328,1.328,0,0,0,1-.5l.4.468a1.923,1.923,0,0,1-1.467.674c-1.18,0-1.918-.945-1.918-2.286C28.512,174.9,29.2,173.88,30.33,173.88ZM29.3,175.861h2.044c-.009-.6-.279-1.341-1.018-1.341C29.6,174.52,29.322,175.275,29.3,175.861Z" transform="translate(0 -2.18)"/>
      <path d="M33.659,177.418v-2.754h-.576v-.676h.576V172.8h.766v1.188h.729v.676h-.729v2.6c0,.305.108.5.342.5a.5.5,0,0,0,.369-.154l.2.577a1,1,0,0,1-.738.26C33.957,178.444,33.659,178.094,33.659,177.418Z" transform="translate(0 -2.18)"/>
      <path d="M38.1,173.88c1.163,0,1.765,1.017,1.765,2.305v.225H37.08c.035.792.449,1.4,1.2,1.4a1.327,1.327,0,0,0,1-.5l.4.468a1.925,1.925,0,0,1-1.468.674c-1.18,0-1.918-.945-1.918-2.286C36.287,174.9,36.972,173.88,38.1,173.88Zm-1.035,1.981h2.044c-.009-.6-.279-1.341-1.017-1.341C37.377,174.52,37.1,175.275,37.07,175.861Z" transform="translate(0 -2.18)"/>
      <path d="M41.283,173.988h.774v.666a1.462,1.462,0,0,1,1.215-.764v.783a.862.862,0,0,0-.225-.027,1.253,1.253,0,0,0-.99.657v3.034h-.774Z" transform="translate(0 -2.18)"/>
      <path d="M46.117,173.88c1.161,0,1.764,1.017,1.764,2.305v.225h-2.79c.035.792.45,1.4,1.2,1.4a1.328,1.328,0,0,0,1-.5l.4.468a1.927,1.927,0,0,1-1.468.674c-1.18,0-1.918-.945-1.918-2.286C44.3,174.9,44.982,173.88,46.117,173.88Zm-1.036,1.981h2.044c-.009-.6-.279-1.341-1.018-1.341C45.388,174.52,45.108,175.275,45.081,175.861Z" transform="translate(0 -2.18)"/>
      <path d="M51.786,177.742a1.366,1.366,0,0,1-1.134.7c-.972,0-1.576-.89-1.576-2.277,0-1.359.595-2.287,1.576-2.287a1.322,1.322,0,0,1,1.134.712v-2.26h.766v6h-.766Zm0-2.52a1.111,1.111,0,0,0-.918-.658c-.666,0-.99.711-.99,1.6s.324,1.594.99,1.594a1.1,1.1,0,0,0,.918-.649Z" transform="translate(0 -2.18)"/>
      <path d="M56.727,172.332h3.186v.756H57.581V174.9h2.27v.757h-2.27v1.926h2.332v.757H56.727Z" transform="translate(0 -2.18)"/>
      <path d="M63.8,175.312c0-.549-.253-.748-.657-.748a1.17,1.17,0,0,0-.956.649v3.124h-.773v-4.349h.773v.6a1.618,1.618,0,0,1,1.261-.712c.756,0,1.116.415,1.116,1.18v3.277H63.8Z" transform="translate(0 -2.18)"/>
      <path d="M67.832,173.88c1.162,0,1.765,1.017,1.765,2.305v.225h-2.79c.035.792.449,1.4,1.2,1.4a1.33,1.33,0,0,0,1-.5l.4.468a1.923,1.923,0,0,1-1.467.674c-1.18,0-1.918-.945-1.918-2.286C66.014,174.9,66.7,173.88,67.832,173.88ZM66.8,175.861h2.044c-.009-.6-.279-1.341-1.018-1.341C67.1,174.52,66.824,175.275,66.8,175.861Z" transform="translate(0 -2.18)"/>
      <path d="M71.01,173.988h.773v.666A1.464,1.464,0,0,1,73,173.89v.783a.87.87,0,0,0-.226-.027,1.256,1.256,0,0,0-.99.657v3.034H71.01Z" transform="translate(0 -2.18)"/>
      <path d="M74.546,178.949a1.4,1.4,0,0,0,1.125.495,1,1,0,0,0,1.054-1.134v-.666a1.343,1.343,0,0,1-1.125.719c-.973,0-1.577-.854-1.577-2.241,0-1.359.595-2.242,1.577-2.242a1.3,1.3,0,0,1,1.125.712v-.6H77.5v4.268a1.639,1.639,0,0,1-1.8,1.846,1.984,1.984,0,0,1-1.494-.55Zm2.179-3.727a1.089,1.089,0,0,0-.91-.658c-.666,0-.99.676-.99,1.558s.324,1.558.99,1.558a1.089,1.089,0,0,0,.91-.658Z" transform="translate(0 -2.18)"/>
      <path d="M79.37,179.417c.252,0,.4-.1.5-.4l.207-.594-1.449-4.439h.828l1.018,3.412,1.035-3.412h.819L80.6,179.2a1.116,1.116,0,0,1-1.18.9,1.883,1.883,0,0,1-.459-.064l.126-.684A.657.657,0,0,0,79.37,179.417Z" transform="translate(0 -2.18)"/>
      <path d="M85.977,172.332h.854v4.033c0,.864.424,1.323,1.152,1.323s1.153-.459,1.153-1.323v-4.033h.855v4.024a2.009,2.009,0,1,1-4.014,0Z" transform="translate(0 -2.18)"/>
      <path d="M91.709,177.283a1.6,1.6,0,0,0,1.161.54c.478,0,.775-.233.775-.6,0-.414-.406-.595-.865-.775-.6-.225-1.3-.486-1.3-1.359a1.273,1.273,0,0,1,1.441-1.207,1.88,1.88,0,0,1,1.377.558l-.342.532a1.3,1.3,0,0,0-1.026-.468c-.433,0-.721.225-.721.54,0,.369.388.531.828.711.612.225,1.342.5,1.342,1.423a1.327,1.327,0,0,1-1.5,1.268,1.976,1.976,0,0,1-1.53-.611Z" transform="translate(0 -2.18)"/>
      <path d="M97.379,173.88c1.162,0,1.765,1.017,1.765,2.305v.225h-2.79c.035.792.449,1.4,1.2,1.4a1.33,1.33,0,0,0,1-.5l.4.468a1.924,1.924,0,0,1-1.467.674c-1.18,0-1.918-.945-1.918-2.286C95.561,174.9,96.245,173.88,97.379,173.88Zm-1.035,1.981h2.044c-.009-.6-.28-1.341-1.018-1.341C96.65,174.52,96.371,175.275,96.344,175.861Z" transform="translate(0 -2.18)"/>
      <path d="M101.061,173.926a.54.54,0,1,1-.55.54A.547.547,0,0,1,101.061,173.926Zm0,3.421a.54.54,0,1,1-.55.54A.548.548,0,0,1,101.061,177.347Z" transform="translate(0 -2.18)"/>
      <path d="M105.568,177.644c2.035-2.224,2.647-2.881,2.647-3.709a.886.886,0,0,0-.918-.928,1.452,1.452,0,0,0-1.27.729l-.54-.522a2.11,2.11,0,0,1,1.819-.972,1.659,1.659,0,0,1,1.782,1.693c0,.971-.72,1.836-2.277,3.645h2.3v.757h-3.547Z" transform="translate(0 -2.18)"/>
      <path d="M111.689,175.24a1.57,1.57,0,0,1-1.089-1.459,1.794,1.794,0,1,1,2.458,1.459,1.81,1.81,0,0,1,1.188,1.6,1.643,1.643,0,0,1-1.864,1.6c-1.1,0-1.872-.593-1.872-1.6A1.8,1.8,0,0,1,111.689,175.24Zm.693.351a1.278,1.278,0,0,0-1.008,1.143,1.006,1.006,0,0,0,2.008,0A1.291,1.291,0,0,0,112.382,175.591Zm0-2.584a.854.854,0,0,0-.927.9c0,.676.693.954.927,1.018.225-.064.919-.342.919-1.018A.856.856,0,0,0,112.382,173.007Z" transform="translate(0 -2.18)"/>
      <path d="M116.216,177.347a.54.54,0,1,1-.55.54A.548.548,0,0,1,116.216,177.347Z" transform="translate(0 -2.18)"/>
      <path d="M118.6,173.448l-.928.982-.5-.532,1.53-1.566h.747v6H118.6Z" transform="translate(0 -2.18)"/>
      <path d="M127.9,173.728l-1.521,4.609h-.342l-1.513-4.609v4.609h-.854v-6h1.179l1.359,4.141,1.378-4.141h1.161v6H127.9Z" transform="translate(0 -2.18)"/>
      <path d="M132.082,173.88a1.535,1.535,0,0,1,1.288.586l-.405.521a.959.959,0,0,0-.811-.423c-.729,0-1.125.721-1.125,1.594s.4,1.6,1.125,1.6a.982.982,0,0,0,.811-.424l.405.522a1.511,1.511,0,0,1-1.288.585c-1.134,0-1.854-.98-1.854-2.286S130.948,173.88,132.082,173.88Z" transform="translate(0 -2.18)"/>
      <path d="M134.854,174.664h-.567v-.676h.567v-.467a1.123,1.123,0,0,1,1.117-1.279,1.306,1.306,0,0,1,.612.135l-.171.594a.588.588,0,0,0-.279-.072c-.316,0-.5.225-.5.622v.467h.728v.676h-.728v3.673h-.775Z" transform="translate(0 -2.18)"/>
    </g>
    <line y1="40.715" x2="131.556" y2="40.715" fill="none" stroke="#328aca" stroke-miterlimit="10"/>
  </g>
</svg>
