<svg xmlns="http://www.w3.org/2000/svg" width="131.556" height="40.46" viewBox="0 0 131.556 40.46">
  <g>
    <g>
      <path d="M3.446,7.922H2.1v3.74H.98V2.318H3.838A2.536,2.536,0,0,1,6.4,5.106,2.42,2.42,0,0,1,4.538,7.754L6.5,11.662H5.239ZM3.712,3.3H2.1V6.941h1.61c.967,0,1.541-.756,1.541-1.821S4.679,3.3,3.712,3.3Z" transform="translate(0 -2.179)" fill="#0b79bf"/>
      <path d="M12.084,10.934a2.118,2.118,0,0,1-1.779.9A2.078,2.078,0,0,1,8.26,9.575a2.045,2.045,0,0,1,2.045-2.227,2.107,2.107,0,0,1,1.779.868V7.039A1.284,1.284,0,0,0,10.7,5.6,2.153,2.153,0,0,0,9,6.423l-.448-.714a3.1,3.1,0,0,1,2.3-.98,1.992,1.992,0,0,1,2.241,2.2v4.734H12.084Zm0-1.976a1.625,1.625,0,0,0-1.457-.868,1.361,1.361,0,0,0-1.345,1.5A1.373,1.373,0,0,0,10.627,11.1a1.638,1.638,0,0,0,1.457-.855Z" transform="translate(0 -2.179)" fill="#0b79bf"/>
      <path d="M15.891,10.3V5.778h-.9V4.9h.9V3.047H16.9V4.9h1.149v.882H16.9v4.343c0,.519.155.813.547.813a.757.757,0,0,0,.588-.267l.309.757a1.455,1.455,0,0,1-1.093.406C16.324,11.83,15.891,11.312,15.891,10.3Z" transform="translate(0 -2.179)" fill="#0b79bf"/>
      <path d="M22.556,4.729c1.778,0,2.674,1.6,2.674,3.571v.308H20.847c.042,1.359.742,2.381,1.947,2.381a2.085,2.085,0,0,0,1.61-.826l.533.588A2.814,2.814,0,0,1,22.71,11.83c-1.808,0-2.9-1.485-2.9-3.558C19.81,6.311,20.847,4.729,22.556,4.729ZM20.847,7.866h3.389c-.013-1.037-.462-2.3-1.7-2.3C21.351,5.568,20.875,6.871,20.847,7.866Z" transform="translate(0 -2.179)" fill="#0b79bf"/>
      <path d="M31.3,2.318h1.121v9.344H31.3Z" transform="translate(0 -2.179)" fill="#0b79bf"/>
      <path d="M38.753,6.844c0-.9-.406-1.219-1.078-1.219A1.976,1.976,0,0,0,36.092,6.7v4.959H35.1V4.9h.994v.966a2.509,2.509,0,0,1,1.961-1.133c1.148,0,1.709.616,1.709,1.834v5.1H38.753Z" transform="translate(0 -2.179)" fill="#0b79bf"/>
      <path d="M42.616,5.778h-.9V4.9h.9V4.069a1.661,1.661,0,0,1,1.653-1.89,1.889,1.889,0,0,1,.868.2l-.238.784a.965.965,0,0,0-.448-.112c-.533,0-.827.364-.827,1.022V4.9h1.148v.882H43.624v5.884H42.616Z" transform="translate(0 -2.179)" fill="#0b79bf"/>
      <path d="M46.367,8.272c0-1.905.953-3.543,2.746-3.543,1.821,0,2.76,1.638,2.76,3.543s-.939,3.558-2.76,3.558C47.32,11.83,46.367,10.177,46.367,8.272Zm4.455,0c0-1.359-.518-2.647-1.709-2.647-1.163,0-1.7,1.288-1.7,2.647s.532,2.662,1.7,2.662C50.3,10.934,50.822,9.645,50.822,8.272Z" transform="translate(0 -2.179)" fill="#0b79bf"/>
      <path d="M54.151,4.9h.995V5.975a2.27,2.27,0,0,1,1.918-1.219V5.793a1.373,1.373,0,0,0-.335-.042,2.028,2.028,0,0,0-1.583,1.106v4.805h-.995Z" transform="translate(0 -2.179)" fill="#0b79bf"/>
      <path d="M65.83,6.759c0-.728-.294-1.134-.938-1.134A1.856,1.856,0,0,0,63.421,6.7v4.959H62.413v-4.9c0-.728-.295-1.134-.953-1.134A1.9,1.9,0,0,0,59.989,6.7v4.959H59V4.9h.994v.966a2.341,2.341,0,0,1,1.849-1.133,1.424,1.424,0,0,1,1.527,1.2,2.327,2.327,0,0,1,1.906-1.2c.994,0,1.568.545,1.568,1.764v5.169H65.83Z" transform="translate(0 -2.179)" fill="#0b79bf"/>
      <path d="M72.927,10.934a2.119,2.119,0,0,1-1.78.9A2.078,2.078,0,0,1,69.1,9.575a2.045,2.045,0,0,1,2.044-2.227,2.107,2.107,0,0,1,1.78.868V7.039A1.284,1.284,0,0,0,71.54,5.6a2.151,2.151,0,0,0-1.7.826L69.4,5.709a3.1,3.1,0,0,1,2.3-.98,1.992,1.992,0,0,1,2.242,2.2v4.734H72.927Zm0-1.976A1.625,1.625,0,0,0,71.47,8.09a1.361,1.361,0,0,0-1.345,1.5A1.373,1.373,0,0,0,71.47,11.1a1.638,1.638,0,0,0,1.457-.855Z" transform="translate(0 -2.179)" fill="#0b79bf"/>
      <path d="M76.732,10.3V5.778h-.9V4.9h.9V3.047h1.009V4.9H78.89v.882H77.741v4.343c0,.519.155.813.547.813a.757.757,0,0,0,.588-.267l.309.757a1.458,1.458,0,0,1-1.093.406C77.167,11.83,76.732,11.312,76.732,10.3Z" transform="translate(0 -2.179)" fill="#0b79bf"/>
      <path d="M80.793,3.075a.7.7,0,0,1,.686-.686.687.687,0,1,1,0,1.373A.7.7,0,0,1,80.793,3.075Zm.2,1.821h.994v6.766h-.994Z" transform="translate(0 -2.179)" fill="#0b79bf"/>
      <path d="M84.264,8.272c0-1.905.953-3.543,2.746-3.543,1.82,0,2.76,1.638,2.76,3.543s-.94,3.558-2.76,3.558C85.217,11.83,84.264,10.177,84.264,8.272Zm4.455,0c0-1.359-.519-2.647-1.709-2.647-1.163,0-1.7,1.288-1.7,2.647s.533,2.662,1.7,2.662C88.2,10.934,88.719,9.645,88.719,8.272Z" transform="translate(0 -2.179)" fill="#0b79bf"/>
      <path d="M95.7,6.844c0-.9-.406-1.219-1.078-1.219A1.978,1.978,0,0,0,93.043,6.7v4.959h-.994V4.9h.994v.966A2.511,2.511,0,0,1,95,4.729c1.148,0,1.709.616,1.709,1.834v5.1H95.7Z" transform="translate(0 -2.179)" fill="#0b79bf"/>
    </g>
    <line y1="15.367" x2="131.556" y2="15.367" fill="none" stroke="#328aca" stroke-miterlimit="10"/>
    <g>
      <path d="M2.772,25.418a2.008,2.008,0,0,1,1.846,1.207l-.693.342a1.277,1.277,0,0,0-1.153-.783c-.9,0-1.511.927-1.511,2.339s.612,2.35,1.511,2.35a1.446,1.446,0,0,0,1.072-.467V29.145H2.494v-.756h2.16V30.73a2.342,2.342,0,0,1-1.882.909c-1.43,0-2.385-1.26-2.385-3.116S1.342,25.418,2.772,25.418Z" transform="translate(0 -2.179)"/>
      <path d="M8.461,31.072a1.4,1.4,0,0,1-1.144.558,1.337,1.337,0,0,1-1.323-1.449,1.314,1.314,0,0,1,1.323-1.423,1.365,1.365,0,0,1,1.144.541v-.694a.792.792,0,0,0-.864-.882,1.476,1.476,0,0,0-1.089.513L6.192,27.7a2.093,2.093,0,0,1,1.531-.63,1.332,1.332,0,0,1,1.512,1.451v3.005H8.461Zm0-1.242a.993.993,0,0,0-.873-.523.9.9,0,0,0,0,1.783,1,1,0,0,0,.873-.522Z" transform="translate(0 -2.179)"/>
      <path d="M10.908,30.469a1.6,1.6,0,0,0,1.161.54c.478,0,.775-.234.775-.6,0-.414-.406-.594-.865-.775-.6-.225-1.295-.486-1.295-1.36a1.271,1.271,0,0,1,1.44-1.206,1.881,1.881,0,0,1,1.377.559l-.342.53a1.3,1.3,0,0,0-1.026-.466c-.433,0-.721.224-.721.539,0,.369.388.531.828.711.613.225,1.342.5,1.342,1.423a1.327,1.327,0,0,1-1.5,1.269,1.973,1.973,0,0,1-1.53-.612Z" transform="translate(0 -2.179)"/>
      <path d="M21.447,29.19h-.8v2.331h-.855v-6h1.953a1.675,1.675,0,0,1,1.7,1.827,1.578,1.578,0,0,1-1.161,1.7L23.5,31.521h-.964Zm.18-2.917h-.981v2.161h.981a1.092,1.092,0,0,0,0-2.161Z" transform="translate(0 -2.179)"/>
      <path d="M26.352,27.065c1.162,0,1.764,1.018,1.764,2.3V29.6h-2.79c.035.792.449,1.394,1.2,1.394a1.32,1.32,0,0,0,1-.5l.4.469a1.923,1.923,0,0,1-1.468.675c-1.18,0-1.918-.945-1.918-2.286C24.533,28.083,25.218,27.065,26.352,27.065Zm-1.036,1.982H27.36c-.008-.6-.279-1.342-1.017-1.342C25.623,27.705,25.344,28.461,25.316,29.047Z" transform="translate(0 -2.179)"/>
      <path d="M29.547,30.469a1.6,1.6,0,0,0,1.161.54c.478,0,.774-.234.774-.6,0-.414-.4-.594-.864-.775-.6-.225-1.3-.486-1.3-1.36a1.272,1.272,0,0,1,1.441-1.206,1.882,1.882,0,0,1,1.377.559l-.342.53a1.3,1.3,0,0,0-1.027-.466c-.432,0-.72.224-.72.539,0,.369.387.531.828.711.612.225,1.342.5,1.342,1.423a1.327,1.327,0,0,1-1.5,1.269,1.973,1.973,0,0,1-1.53-.612Z" transform="translate(0 -2.179)"/>
      <path d="M33.5,25.949a.508.508,0,0,1,.5-.5.5.5,0,0,1,.5.5.5.5,0,0,1-.5.495A.5.5,0,0,1,33.5,25.949Zm.117,1.225h.774v4.347h-.774Z" transform="translate(0 -2.179)"/>
      <path d="M38.538,30.928a1.37,1.37,0,0,1-1.134.7c-.972,0-1.576-.892-1.576-2.277,0-1.361.595-2.288,1.576-2.288a1.324,1.324,0,0,1,1.134.712V25.518H39.3v6h-.766Zm0-2.521a1.112,1.112,0,0,0-.918-.657c-.666,0-.99.711-.99,1.6s.324,1.592.99,1.592a1.1,1.1,0,0,0,.918-.648Z" transform="translate(0 -2.179)"/>
      <path d="M42.57,27.065c1.162,0,1.765,1.018,1.765,2.3V29.6h-2.79c.035.792.449,1.394,1.2,1.394a1.322,1.322,0,0,0,1-.5l.4.469a1.923,1.923,0,0,1-1.468.675c-1.18,0-1.918-.945-1.918-2.286C40.752,28.083,41.437,27.065,42.57,27.065Zm-1.035,1.982h2.044c-.009-.6-.279-1.342-1.017-1.342C41.842,27.705,41.562,28.461,41.535,29.047Z" transform="translate(0 -2.179)"/>
      <path d="M48.133,28.5c0-.55-.253-.747-.657-.747a1.164,1.164,0,0,0-.955.648v3.123h-.774V27.174h.774v.6a1.615,1.615,0,0,1,1.26-.712c.756,0,1.116.415,1.116,1.18v3.276h-.764Z" transform="translate(0 -2.179)"/>
      <path d="M50.715,30.6V27.85h-.576v-.676h.576V25.985h.765v1.189h.73v.676h-.73v2.6c0,.306.108.494.342.494a.5.5,0,0,0,.369-.152l.2.576a1,1,0,0,1-.739.261C51.012,31.63,50.715,31.279,50.715,30.6Z" transform="translate(0 -2.179)"/>
      <path d="M53.442,25.949a.509.509,0,0,1,.5-.5.5.5,0,0,1,.5.5.494.494,0,0,1-.5.495A.5.5,0,0,1,53.442,25.949Zm.118,1.225h.773v4.347H53.56Z" transform="translate(0 -2.179)"/>
      <path d="M58.23,31.072a1.4,1.4,0,0,1-1.143.558,1.337,1.337,0,0,1-1.323-1.449,1.314,1.314,0,0,1,1.323-1.423,1.363,1.363,0,0,1,1.143.541v-.694a.791.791,0,0,0-.864-.882,1.477,1.477,0,0,0-1.089.513l-.315-.541a2.091,2.091,0,0,1,1.53-.63,1.332,1.332,0,0,1,1.513,1.451v3.005H58.23Zm0-1.242a.991.991,0,0,0-.873-.523.9.9,0,0,0,0,1.783.994.994,0,0,0,.873-.522Z" transform="translate(0 -2.179)"/>
      <path d="M60.66,25.518h.774v6H60.66Z" transform="translate(0 -2.179)"/>
      <path d="M67.977,30.207a1.889,1.889,0,0,0,1.414.658.9.9,0,0,0,1.026-.891c0-.6-.54-.865-1.144-1.144-.729-.333-1.566-.693-1.566-1.782a1.66,1.66,0,0,1,1.8-1.63,2.282,2.282,0,0,1,1.656.639l-.433.648a1.669,1.669,0,0,0-1.251-.521.822.822,0,0,0-.9.818c0,.514.514.748,1.08,1.018.757.351,1.621.756,1.621,1.9A1.685,1.685,0,0,1,69.4,31.63a2.44,2.44,0,0,1-1.863-.757Z" transform="translate(0 -2.179)"/>
      <path d="M74.305,27.065c1.161,0,1.763,1.018,1.763,2.3V29.6h-2.79c.035.792.451,1.394,1.2,1.394a1.323,1.323,0,0,0,1-.5l.4.469a1.923,1.923,0,0,1-1.468.675c-1.179,0-1.918-.945-1.918-2.286C72.485,28.083,73.17,27.065,74.305,27.065Zm-1.036,1.982h2.043c-.008-.6-.279-1.342-1.017-1.342C73.575,27.705,73.3,28.461,73.269,29.047Z" transform="translate(0 -2.179)"/>
      <path d="M77.48,27.174h.774v.666a1.46,1.46,0,0,1,1.216-.766v.783a.972.972,0,0,0-.226-.026,1.254,1.254,0,0,0-.99.657v3.033H77.48Z" transform="translate(0 -2.179)"/>
      <path d="M80.189,27.174h.829l1.017,3.43,1.035-3.43h.82l-1.432,4.347h-.837Z" transform="translate(0 -2.179)"/>
      <path d="M84.905,25.949a.509.509,0,0,1,.5-.5.5.5,0,0,1,.5.5.5.5,0,0,1-.5.495A.5.5,0,0,1,84.905,25.949Zm.117,1.225H85.8v4.347h-.774Z" transform="translate(0 -2.179)"/>
      <path d="M89.091,27.065a1.537,1.537,0,0,1,1.288.585l-.405.523a.96.96,0,0,0-.811-.423c-.729,0-1.125.721-1.125,1.594s.4,1.6,1.125,1.6a.98.98,0,0,0,.811-.423l.405.523a1.511,1.511,0,0,1-1.288.585c-1.134,0-1.855-.982-1.855-2.286S87.957,27.065,89.091,27.065Z" transform="translate(0 -2.179)"/>
      <path d="M93.293,27.065c1.162,0,1.765,1.018,1.765,2.3V29.6h-2.79c.035.792.449,1.394,1.2,1.394a1.323,1.323,0,0,0,1-.5l.4.469a1.921,1.921,0,0,1-1.467.675c-1.18,0-1.918-.945-1.918-2.286C91.475,28.083,92.159,27.065,93.293,27.065Zm-1.035,1.982H94.3c-.009-.6-.28-1.342-1.018-1.342C92.564,27.705,92.285,28.461,92.258,29.047Z" transform="translate(0 -2.179)"/>
      <path d="M2.772,36.418a2.008,2.008,0,0,1,1.846,1.207l-.693.342a1.277,1.277,0,0,0-1.153-.783c-.9,0-1.511.927-1.511,2.339s.612,2.35,1.511,2.35a1.446,1.446,0,0,0,1.072-.467V40.145H2.494v-.756h2.16V41.73a2.342,2.342,0,0,1-1.882.909c-1.43,0-2.385-1.26-2.385-3.116S1.342,36.418,2.772,36.418Z" transform="translate(0 -2.179)"/>
      <path d="M8.461,42.072a1.4,1.4,0,0,1-1.144.558,1.337,1.337,0,0,1-1.323-1.449,1.314,1.314,0,0,1,1.323-1.423,1.365,1.365,0,0,1,1.144.541V39.6a.792.792,0,0,0-.864-.882,1.476,1.476,0,0,0-1.089.513L6.192,38.7a2.093,2.093,0,0,1,1.531-.63,1.332,1.332,0,0,1,1.512,1.451v3.005H8.461Zm0-1.242a.993.993,0,0,0-.873-.523.9.9,0,0,0,0,1.783,1,1,0,0,0,.873-.522Z" transform="translate(0 -2.179)"/>
      <path d="M10.908,41.469a1.6,1.6,0,0,0,1.161.54c.478,0,.775-.234.775-.6,0-.414-.406-.594-.865-.775-.6-.225-1.295-.486-1.295-1.36a1.271,1.271,0,0,1,1.44-1.206,1.881,1.881,0,0,1,1.377.559l-.342.53a1.3,1.3,0,0,0-1.026-.466c-.433,0-.721.224-.721.539,0,.369.388.531.828.711.613.225,1.342.5,1.342,1.423a1.327,1.327,0,0,1-1.5,1.269,1.973,1.973,0,0,1-1.53-.612Z" transform="translate(0 -2.179)"/>
      <path d="M19.144,40.19h-.8v2.331h-.855v-6H19.44a1.676,1.676,0,0,1,1.7,1.827,1.578,1.578,0,0,1-1.162,1.7L21.2,42.521h-.964Zm.179-2.917h-.981v2.161h.981a1.091,1.091,0,0,0,0-2.161Z" transform="translate(0 -2.179)"/>
      <path d="M24.777,42.072a1.4,1.4,0,0,1-1.143.558,1.337,1.337,0,0,1-1.323-1.449,1.314,1.314,0,0,1,1.323-1.423,1.363,1.363,0,0,1,1.143.541V39.6a.791.791,0,0,0-.864-.882,1.477,1.477,0,0,0-1.089.513l-.315-.541a2.091,2.091,0,0,1,1.53-.63,1.332,1.332,0,0,1,1.513,1.451v3.005h-.775Zm0-1.242a.991.991,0,0,0-.873-.523.9.9,0,0,0,0,1.783.994.994,0,0,0,.873-.522Z" transform="translate(0 -2.179)"/>
      <path d="M27.359,41.6V38.85h-.576v-.676h.576V36.985h.766v1.189h.729v.676h-.729v2.6c0,.306.107.494.342.494a.5.5,0,0,0,.369-.152l.2.576a1,1,0,0,1-.738.261C27.656,42.63,27.359,42.279,27.359,41.6Z" transform="translate(0 -2.179)"/>
      <path d="M31.807,38.065c1.161,0,1.763,1.018,1.763,2.3V40.6H30.78c.035.792.45,1.394,1.2,1.394a1.323,1.323,0,0,0,1-.5l.4.469a1.923,1.923,0,0,1-1.468.675c-1.179,0-1.918-.945-1.918-2.286C29.987,39.083,30.672,38.065,31.807,38.065Zm-1.036,1.982h2.043c-.008-.6-.279-1.342-1.017-1.342C31.077,38.705,30.8,39.461,30.771,40.047Z" transform="translate(0 -2.179)"/>
      <path d="M37.277,39.523c0-1.8.919-3.105,2.369-3.105A1.987,1.987,0,0,1,41.5,37.67l-.711.324a1.257,1.257,0,0,0-1.143-.81c-.91,0-1.495.99-1.495,2.339s.585,2.342,1.495,2.342a1.249,1.249,0,0,0,1.143-.883l.72.325a1.991,1.991,0,0,1-1.863,1.323C38.2,42.63,37.277,41.324,37.277,39.523Z" transform="translate(0 -2.179)"/>
      <path d="M42.632,40.344c0-1.225.631-2.279,1.828-2.279s1.827,1.054,1.827,2.279-.63,2.286-1.827,2.286S42.632,41.568,42.632,40.344Zm2.854,0c0-.828-.315-1.594-1.026-1.594s-1.018.766-1.018,1.594.316,1.6,1.018,1.6S45.486,41.181,45.486,40.344Z" transform="translate(0 -2.179)"/>
      <path d="M50.22,41.928a1.371,1.371,0,0,1-1.134.7c-.973,0-1.576-.892-1.576-2.277,0-1.361.594-2.288,1.576-2.288a1.325,1.325,0,0,1,1.134.712V36.518h.765v6H50.22Zm0-2.521a1.112,1.112,0,0,0-.918-.657c-.666,0-.99.711-.99,1.6s.324,1.592.99,1.592a1.1,1.1,0,0,0,.918-.648Z" transform="translate(0 -2.179)"/>
      <path d="M54.252,38.065c1.162,0,1.765,1.018,1.765,2.3V40.6h-2.79c.035.792.449,1.394,1.2,1.394a1.323,1.323,0,0,0,1-.5l.4.469a1.921,1.921,0,0,1-1.467.675c-1.18,0-1.918-.945-1.918-2.286C52.434,39.083,53.118,38.065,54.252,38.065Zm-1.035,1.982h2.044c-.009-.6-.28-1.342-1.018-1.342C53.523,38.705,53.244,39.461,53.217,40.047Z" transform="translate(0 -2.179)"/>
      <path d="M57.933,38.111a.54.54,0,1,1-.55.539A.547.547,0,0,1,57.933,38.111Zm0,3.42a.54.54,0,1,1-.55.541A.548.548,0,0,1,57.933,41.531Z" transform="translate(0 -2.179)"/>
      <path d="M62.441,41.828c2.035-2.223,2.647-2.881,2.647-3.709a.886.886,0,0,0-.918-.927,1.452,1.452,0,0,0-1.27.73l-.54-.523a2.11,2.11,0,0,1,1.819-.971,1.658,1.658,0,0,1,1.782,1.691c0,.973-.72,1.837-2.277,3.647h2.3v.755H62.441Z" transform="translate(0 -2.179)"/>
      <path d="M67.994,41.127a1.4,1.4,0,0,0,1.26.738,1.087,1.087,0,0,0,1.026-1.2c0-.783-.378-1.216-.98-1.216a1.247,1.247,0,0,0-1.054.54l-.63-.2V36.518H70.83v.755H68.471v1.945a1.416,1.416,0,0,1,1.107-.513c.874,0,1.576.684,1.576,1.936a1.853,1.853,0,0,1-1.873,1.989,2.01,2.01,0,0,1-1.836-.972Z" transform="translate(0 -2.179)"/>
      <path d="M74.4,36.428c1.422,0,1.945,1.494,1.945,3.1S75.834,42.63,74.4,42.63s-1.954-1.5-1.954-3.107S72.971,36.428,74.4,36.428Zm0,.764c-.864,0-1.08,1.153-1.08,2.331s.216,2.342,1.08,2.342,1.072-1.171,1.072-2.342S75.258,37.192,74.4,37.192Z" transform="translate(0 -2.179)"/>
    </g>
  </g>
</svg>
