<?xml version="1.0" encoding="UTF-8"?>
<svg id="Layer_2" data-name="Layer 2" xmlns="http://www.w3.org/2000/svg" viewBox="0 0 542.28 102.24">
  <g id="Layer_1-2" data-name="Layer 1">
    <g>
      <rect x="46.28" y="31.24" width="36" height="15" fill="#0072bc" stroke-width="0"/>
      <rect x=".28" y="77.24" width="82" height="25" fill="#e6e7e8" stroke-width="0"/>
      <rect x=".28" y="46.24" width="82" height="28" fill="#e1e8f6" stroke-width="0"/>
      <g>
        <g>
          <path d="m64.04,35.55l-.72.45c-.86-1.28-2.27-2.13-3.83-2.27-2.39-.21-4.64,1.3-5.36,3.58-.05.17.04.35.21.4.03.01.06.01.1.01.14,0,.26-.09.31-.23.63-2,2.6-3.32,4.69-3.13,1.36.12,2.59.85,3.34,1.97l-.74.46c-.14.09-.13.22.02.29l1.98.97c.15.07.27,0,.27-.17v-2.2c0-.16-.11-.23-.25-.14Z" fill="#fff" stroke-width="0"/>
          <path d="m64.24,40c-.17-.05-.35.04-.4.21-.63,2-2.6,3.31-4.69,3.13-1.37-.12-2.6-.86-3.36-1.99l.76-.47c.14-.09.13-.21-.01-.29l-1.98-.97c-.15-.07-.27,0-.27.17v2.2c0,.16.11.23.25.14l.7-.44c.86,1.3,2.27,2.15,3.84,2.29.15.01.3.02.44.02,2.22,0,4.25-1.46,4.92-3.6.05-.17-.04-.35-.21-.4Z" fill="#fff" stroke-width="0"/>
        </g>
        <path d="m59.39,38.45c-.39-.15-.66-.29-.81-.43-.15-.14-.22-.33-.22-.57,0-.25.07-.45.21-.6.14-.15.36-.22.65-.22s.49.09.65.28c.12.15.2.35.22.58,0,0,0,.09.05.13.05.05.13.63.13.63h.37s.11,0,.16-.04c.06-.05.04-.16.04-.18-.03-.47-.17-.86-.42-1.17-.27-.33-.65-.53-1.13-.61v-.82c0-.1-.08-.19-.19-.19h-.08s-.17-.25-.73-.16v.74c.12.06-.24.23-.5.51-.28.29-.42.67-.42,1.13,0,.49.15.87.44,1.15.29.28.73.52,1.31.7.37.13.63.27.78.42.15.15.23.35.23.58,0,.26-.08.46-.25.61-.17.15-.41.22-.72.22-.29,0-.54-.08-.73-.24-.16-.13-.25-.34-.28-.62,0-.06,0-.11-.04-.16-.04-.05-.17-.04-.17.12h-.56c0-.16-.12-.17-.16-.12-.05.05-.05.1-.05.16.02.49.18.88.46,1.14.32.3,1.66.52,1.66.52v.69s-.36.17-.27.6h.47c.09-.43.17-.51-.2-.6v-.72c.8-.07,1.15-.23,1.41-.48.29-.28.43-.66.43-1.14s-.14-.87-.43-1.15c-.29-.28-.72-.51-1.3-.7Z" fill="#fff" stroke-width="0"/>
      </g>
      <rect x="286.28" y="31.24" width="120" height="15" fill="#0072bc" stroke-width="0"/>
      <rect x="259.28" y="77.24" width="147" height="25" fill="#e6e7e8" stroke-width="0"/>
      <rect x="259.28" y="46.24" width="147" height="28" fill="#e1e8f6" stroke-width="0"/>
      <rect x="459.28" y="31.24" width="82" height="15" fill="#0072bc" stroke-width="0"/>
      <rect x="411.28" y="77.24" width="130" height="25" fill="#e6e7e8" stroke-width="0"/>
      <rect x="411.28" y="46.24" width="130" height="28" fill="#e1e8f6" stroke-width="0"/>
      <rect x="82.28" y="31.24" width="1" height="71" fill="#0072bc" stroke-width="0"/>
      <rect x="254.28" y="31.24" width="1" height="71" fill="#0072bc" stroke-width="0"/>
      <rect x="406.28" y="31.24" width="1" height="71" fill="#0072bc" stroke-width="0"/>
      <rect x="541.28" y="31.24" width="1" height="71" fill="#0072bc" stroke-width="0"/>
      <text transform="translate(0 13.14)"><tspan><tspan x="0" y="0" fill="#0072bc" font-family="Boston-Black, Boston" font-size="13" font-weight="800" letter-spacing="-.08em">W</tspan><tspan x="11.69" y="0" fill="#0072bc" font-family="Boston-Black, Boston" font-size="13" font-weight="800" letter-spacing="-.02em">a</tspan><tspan x="19.15" y="0" fill="#0072bc" font-family="Boston-Black, Boston" font-size="13" font-weight="800" letter-spacing="-.03em">y</tspan><tspan x="25.8" y="0" fill="#0072bc" font-family="Boston-Black, Boston" font-size="13" font-weight="800" letter-spacing="-.02em">s </tspan><tspan x="34.5" y="0" fill="#0072bc" font-family="Boston-Black, Boston" font-size="13" font-weight="800" letter-spacing="-.03em">t</tspan><tspan x="40.22" y="0" fill="#0072bc" font-family="Boston-Black, Boston" font-size="13" font-weight="800" letter-spacing="-.02em">o </tspan><tspan x="50.04" y="0" fill="#0072bc" font-family="Boston-Black, Boston" font-size="13" font-weight="800" letter-spacing="-.04em">P</tspan><tspan x="58.01" y="0" fill="#0072bc" font-family="Boston-Black, Boston" font-size="13" font-weight="800" letter-spacing="-.02em">ay</tspan><tspan x="72.3" y="0" fill="#0072bc" font-family="Boston-Black, Boston" font-size="13" font-weight="800" letter-spacing="-.05em"> </tspan><tspan x="74.54" y="0" fill="#0072bc" font-family="Boston-Black, Boston" font-size="13" font-weight="800" letter-spacing="-.15em">Y</tspan><tspan x="81.5" y="0" fill="#0072bc" font-family="Boston-Black, Boston" font-size="13" font-weight="800" letter-spacing="-.02em">ou</tspan><tspan x="96" y="0" fill="#0072bc" font-family="Boston-Black, Boston" font-size="13" font-weight="800" letter-spacing="-.04em">r</tspan><tspan x="100.61" y="0" fill="#0072bc" font-family="Boston-Black, Boston" font-size="13" font-weight="800" letter-spacing="-.02em"> </tspan><tspan x="103.26" y="0" fill="#0072bc" font-family="Boston-Black, Boston" font-size="13" font-weight="800" letter-spacing="-.03em">E</tspan><tspan x="111.04" y="0" fill="#0072bc" font-family="Boston-Black, Boston" font-size="13" font-weight="800" letter-spacing="-.02em">ne</tspan><tspan x="125.32" y="0" fill="#0072bc" font-family="Boston-Black, Boston" font-size="13" font-weight="800" letter-spacing="-.03em">r</tspan><tspan x="130.08" y="0" fill="#0072bc" font-family="Boston-Black, Boston" font-size="13" font-weight="800" letter-spacing="-.02em">gy </tspan><tspan x="146.99" y="0" fill="#0072bc" font-family="Boston-Black, Boston" font-size="13" font-weight="800" letter-spacing="-.03em">B</tspan><tspan x="155.61" y="0" fill="#0072bc" font-family="Boston-Black, Boston" font-size="13" font-weight="800" letter-spacing="-.02em">ill</tspan><tspan x="165.36" y="0" xml:space="preserve" fill="#0072bc" font-family="Boston-Black, Boston" font-size="15.43" font-weight="800" letter-spacing="-.02em">  </tspan><tspan x="171.65" y="0" fill="#231f20" font-family="Boston-Bold, Boston" font-size="9" font-weight="700" letter-spacing="-.04em">F</tspan><tspan x="176.62" y="0" fill="#231f20" font-family="Boston-Bold, Boston" font-size="9" font-weight="700" letter-spacing="-.02em">o</tspan><tspan x="181.57" y="0" fill="#231f20" font-family="Boston-Bold, Boston" font-size="9" font-weight="700" letter-spacing="-.04em">r</tspan><tspan x="184.62" y="0" xml:space="preserve" fill="#231f20" font-family="Boston-Bold, Boston" font-size="9" font-weight="700" letter-spacing="-.02em"> mo</tspan><tspan x="199.34" y="0" fill="#231f20" font-family="Boston-Bold, Boston" font-size="9" font-weight="700" letter-spacing="-.03em">r</tspan><tspan x="202.46" y="0" fill="#231f20" font-family="Boston-Bold, Boston" font-size="9" font-weight="700" letter-spacing="-.02em">e i</tspan><tspan x="211.18" y="0" fill="#231f20" font-family="Boston-Bold, Boston" font-size="9" font-weight="700" letter-spacing="-.03em">n</tspan><tspan x="216.23" y="0" fill="#231f20" font-family="Boston-Bold, Boston" font-size="9" font-weight="700" letter-spacing="-.03em">f</tspan><tspan x="219.51" y="0" fill="#231f20" font-family="Boston-Bold, Boston" font-size="9" font-weight="700" letter-spacing="-.02em">ormation</tspan><tspan x="256.76" y="0" fill="#231f20" font-family="Boston-Bold, Boston" font-size="9" font-weight="700" letter-spacing="-.04em">,</tspan><tspan x="258.75" y="0" fill="#231f20" font-family="Boston-Bold, Boston" font-size="9" font-weight="700" letter-spacing="-.02em"> </tspan><tspan x="260.63" y="0" fill="#231f20" font-family="Boston-Bold, Boston" font-size="9" font-weight="700" letter-spacing="-.02em">visit </tspan><tspan x="279.35" y="0" fill="#231f20" font-family="Boston-Bold, Boston" font-size="9" font-weight="700" letter-spacing="-.04em">C</tspan><tspan x="285.06" y="0" fill="#231f20" font-family="Boston-Bold, Boston" font-size="9" font-weight="700" letter-spacing="-.02em">onsume</tspan><tspan x="316.78" y="0" fill="#231f20" font-family="Boston-Bold, Boston" font-size="9" font-weight="700" letter-spacing="-.03em">r</tspan><tspan x="319.96" y="0" fill="#231f20" font-family="Boston-Bold, Boston" font-size="9" font-weight="700" letter-spacing="-.02em">s</tspan><tspan x="324.03" y="0" fill="#231f20" font-family="Boston-Bold, Boston" font-size="9" font-weight="700" letter-spacing="-.03em">E</tspan><tspan x="329.38" y="0" fill="#231f20" font-family="Boston-Bold, Boston" font-size="9" font-weight="700" letter-spacing="-.02em">ne</tspan><tspan x="339.18" y="0" fill="#231f20" font-family="Boston-Bold, Boston" font-size="9" font-weight="700" letter-spacing="-.03em">r</tspan><tspan x="342.3" y="0" fill="#231f20" font-family="Boston-Bold, Boston" font-size="9" font-weight="700" letter-spacing="-.02em">g</tspan><tspan x="347.43" y="0" fill="#231f20" font-family="Boston-Bold, Boston" font-size="9" font-weight="700" letter-spacing="-.06em">y</tspan><tspan x="351.64" y="0" fill="#231f20" font-family="Boston-Bold, Boston" font-size="9" font-weight="700" letter-spacing="-.02em">.</tspan><tspan x="353.76" y="0" fill="#231f20" font-family="Boston-Bold, Boston" font-size="9" font-weight="700" letter-spacing="-.03em">c</tspan><tspan x="357.85" y="0" fill="#231f20" font-family="Boston-Bold, Boston" font-size="9" font-weight="700" letter-spacing="-.02em">om/</tspan><tspan x="374.13" y="0" fill="#231f20" font-family="Boston-Bold, Boston" font-size="9" font-weight="700" letter-spacing="-.07em">W</tspan><tspan x="382.15" y="0" fill="#231f20" font-family="Boston-Bold, Boston" font-size="9" font-weight="700" letter-spacing="-.02em">a</tspan><tspan x="387.31" y="0" fill="#231f20" font-family="Boston-Bold, Boston" font-size="9" font-weight="700" letter-spacing="-.03em">y</tspan><tspan x="391.81" y="0" fill="#231f20" font-family="Boston-Bold, Boston" font-size="9" font-weight="700" letter-spacing="-.13em">s</tspan><tspan x="394.9" y="0" fill="#231f20" font-family="Boston-Bold, Boston" font-size="9" font-weight="700" letter-spacing="-.14em">T</tspan><tspan x="399.27" y="0" fill="#231f20" font-family="Boston-Bold, Boston" font-size="9" font-weight="700" letter-spacing="-.02em">o</tspan><tspan x="404.22" y="0" fill="#231f20" font-family="Boston-Bold, Boston" font-size="9" font-weight="700" letter-spacing="-.04em">P</tspan><tspan x="409.71" y="0" fill="#231f20" font-family="Boston-Bold, Boston" font-size="9" font-weight="700" letter-spacing="-.02em">a</tspan><tspan x="414.87" y="0" fill="#231f20" font-family="Boston-Bold, Boston" font-size="9" font-weight="700" letter-spacing="-.02em">y</tspan></tspan></text>
      <text transform="translate(264.86 58.29)" fill="#231f20" font-family="MyriadPro-Cond, &apos;Myriad Pro&apos;" font-size="9.64"><tspan letter-spacing=".01em"><tspan x="0" y="0">Consumers Energy Payment Center</tspan></tspan><tspan x="0" y="11.57" letter-spacing="-.09em">P</tspan><tspan x="2.98" y="11.57" letter-spacing=".01em">.O. Box 740309 | Cincinnati, OH 4527</tspan><tspan x="113.77" y="11.57" letter-spacing=".05em">4-</tspan><tspan x="121.14" y="11.57" letter-spacing=".01em">0309</tspan></text>
      <text transform="translate(3.86 43.7)" fill="#0a72ba" font-family="MyriadConceptRoman-SemiboldSemiCn, &apos;Myriad Variable Concept&apos;" font-size="10.29" font-variation-settings="&apos;wght&apos; 600, &apos;wdth&apos; 90" font-weight="600" letter-spacing="-.01em"><tspan x="0" y="0">Auto-Pay</tspan></text>
      <g>
        <path d="m8.26,86.81c-.25.13-.75.25-1.38.25-1.56,0-2.71-1.04-2.71-3.05s1.26-3.18,2.86-3.18c.64,0,1.05.13,1.23.23l-.18.62c-.25-.13-.58-.22-1.04-.22-1.19,0-2.08.83-2.08,2.49s.8,2.45,2.05,2.45c.41,0,.83-.09,1.09-.22l.14.61Z" fill="#0072bc" stroke-width="0"/>
        <path d="m9.04,80.64h.76v2.61h.02c.12-.2.3-.38.5-.5.22-.12.46-.2.75-.2.57,0,1.36.38,1.36,1.76v2.68h-.76v-2.59c0-.66-.23-1.22-.88-1.22-.45,0-.81.32-.95.77-.04.1-.04.23-.04.36v2.68h-.76v-6.35Z" fill="#0072bc" stroke-width="0"/>
        <path d="m14.05,84.92c0,1.15.65,1.55,1.35,1.55.49,0,.81-.09,1.06-.21l.13.55c-.26.13-.71.25-1.3.25-1.25,0-1.98-.87-1.98-2.2s.73-2.32,1.88-2.32c1.26,0,1.62,1.15,1.62,2,0,.17,0,.29-.03.38h-2.74Zm2.03-.55c0-.61-.23-1.27-.96-1.27s-1.01.71-1.06,1.27h2.03Z" fill="#0072bc" stroke-width="0"/>
        <path d="m20.56,86.84c-.19.1-.58.23-1.09.23-1.2,0-2-.86-2-2.21s.84-2.3,2.16-2.3c.4,0,.77.11.96.21l-.17.58c-.16-.08-.42-.18-.79-.18-.91,0-1.38.77-1.38,1.66,0,1.02.57,1.63,1.37,1.63.37,0,.62-.09.83-.18l.12.58Z" fill="#0072bc" stroke-width="0"/>
        <path d="m22.08,84.63h.02c.1-.16.23-.34.33-.5l1.16-1.51h.89l-1.52,1.81,1.72,2.55h-.91l-1.33-2.08-.36.44v1.64h-.76v-6.35h.76v4Z" fill="#0072bc" stroke-width="0"/>
        <path d="m26.14,81.43c0,.27-.18.48-.48.48-.27,0-.46-.21-.46-.48s.2-.49.47-.49.47.21.47.49Zm-.84,5.55v-4.36h.76v4.36h-.76Z" fill="#0072bc" stroke-width="0"/>
        <path d="m27.2,83.79c0-.47-.02-.8-.04-1.16h.67l.04.67h.02c.21-.39.67-.75,1.3-.75.59,0,1.39.39,1.39,1.75v2.69h-.76v-2.59c0-.65-.22-1.22-.88-1.22-.45,0-.82.33-.95.78-.03.1-.04.23-.04.37v2.66h-.76v-3.2Z" fill="#0072bc" stroke-width="0"/>
        <path d="m35.14,86.37c0,1.05-.19,1.6-.56,1.96-.38.36-.93.5-1.46.5-.48,0-.99-.12-1.31-.32l.19-.58c.25.15.66.3,1.13.3.74,0,1.25-.4,1.25-1.46v-.48h-.02c-.21.39-.64.68-1.22.68-.99,0-1.68-.91-1.68-2.13,0-1.51.89-2.3,1.78-2.3.67,0,1.02.36,1.2.68h.02l.04-.6h.67c-.02.31-.04.68-.04,1.24v2.5Zm-.76-2.09c0-.13,0-.24-.04-.34-.13-.41-.44-.78-.97-.78-.67,0-1.13.65-1.13,1.64,0,.94.41,1.58,1.13,1.58.41,0,.79-.24.95-.76.05-.13.05-.28.05-.41v-.93Z" fill="#0072bc" stroke-width="0"/>
        <path d="m41.49,84.78c0,1.63-1.02,2.3-1.95,2.3-1.06,0-1.89-.82-1.89-2.24,0-1.5.88-2.29,1.95-2.29s1.89.86,1.89,2.23Zm-3.07.04c0,.88.42,1.67,1.15,1.67s1.14-.8,1.14-1.69c0-.71-.3-1.67-1.14-1.67s-1.15.91-1.15,1.68Z" fill="#0072bc" stroke-width="0"/>
        <path d="m42.38,83.91c0-.47-.02-.91-.04-1.29h.67l.04.81h.03c.18-.53.63-.89,1.12-.89.08,0,.13,0,.2.02v.74c-.06-.02-.13-.02-.22-.02-.52,0-.9.41-1,.97-.02.12-.03.24-.03.38v2.35h-.76v-3.07Z" fill="#0072bc" stroke-width="0"/>
        <path d="m46.59,86.2c.21.13.58.29.95.29.52,0,.78-.27.78-.64s-.2-.58-.74-.82c-.72-.31-1.07-.72-1.07-1.23,0-.7.56-1.25,1.41-1.25.41,0,.76.12.98.25l-.19.56c-.17-.11-.45-.23-.8-.23-.44,0-.67.27-.67.58,0,.33.22.5.74.74.67.3,1.07.68,1.07,1.31,0,.8-.59,1.31-1.53,1.31-.43,0-.85-.12-1.12-.29l.19-.58Z" fill="#0072bc" stroke-width="0"/>
        <path d="m52.83,85.96c0,.36,0,.73.06,1.03h-.68l-.06-.52h-.03c-.22.33-.64.61-1.2.61-.78,0-1.23-.58-1.23-1.25,0-1.06.91-1.61,2.39-1.6v-.11c0-.42-.12-1-.9-.99-.37,0-.74.11-1.01.29l-.17-.51c.31-.2.79-.35,1.3-.35,1.19,0,1.53.81,1.53,1.71v1.7Zm-.74-1.21c-.71,0-1.65.12-1.65.99,0,.53.32.76.67.76.5,0,.83-.31.94-.7.03-.08.04-.17.04-.25v-.79Z" fill="#0072bc" stroke-width="0"/>
        <path d="m54.17,82.63l.76,2.45c.12.37.22.74.31,1.1h.02c.09-.36.2-.72.32-1.1l.76-2.45h.78l-1.54,4.36h-.71l-1.5-4.36h.81Z" fill="#0072bc" stroke-width="0"/>
        <path d="m58.65,81.43c0,.27-.18.48-.48.48-.27,0-.46-.21-.46-.48s.2-.49.47-.49.47.21.47.49Zm-.84,5.55v-4.36h.76v4.36h-.76Z" fill="#0072bc" stroke-width="0"/>
        <path d="m59.71,83.79c0-.47-.02-.8-.04-1.16h.67l.04.67h.02c.21-.39.67-.75,1.3-.75.59,0,1.39.39,1.39,1.75v2.69h-.76v-2.59c0-.65-.22-1.22-.88-1.22-.45,0-.82.33-.95.78-.03.1-.04.23-.04.37v2.66h-.76v-3.2Z" fill="#0072bc" stroke-width="0"/>
        <path d="m67.65,86.37c0,1.05-.19,1.6-.56,1.96-.38.36-.93.5-1.46.5-.48,0-.99-.12-1.31-.32l.19-.58c.25.15.66.3,1.13.3.74,0,1.25-.4,1.25-1.46v-.48h-.02c-.21.39-.64.68-1.22.68-.99,0-1.68-.91-1.68-2.13,0-1.51.89-2.3,1.78-2.3.67,0,1.02.36,1.2.68h.02l.04-.6h.67c-.02.31-.04.68-.04,1.24v2.5Zm-.76-2.09c0-.13,0-.24-.04-.34-.13-.41-.44-.78-.97-.78-.67,0-1.13.65-1.13,1.64,0,.94.41,1.58,1.13,1.58.41,0,.79-.24.95-.76.05-.13.05-.28.05-.41v-.93Z" fill="#0072bc" stroke-width="0"/>
        <path d="m68.66,86.2c.21.13.58.29.95.29.52,0,.78-.27.78-.64s-.2-.58-.74-.82c-.72-.31-1.07-.72-1.07-1.23,0-.7.56-1.25,1.41-1.25.41,0,.76.12.98.25l-.19.56c-.17-.11-.45-.23-.8-.23-.44,0-.67.27-.67.58,0,.33.22.5.74.74.67.3,1.07.68,1.07,1.31,0,.8-.59,1.31-1.53,1.31-.43,0-.85-.12-1.12-.29l.19-.58Z" fill="#0072bc" stroke-width="0"/>
        <path d="m4.46,90.92h.76v2.64h.02c.26-.47.71-.73,1.31-.73.96,0,1.65.86,1.65,2.21,0,1.56-.88,2.31-1.76,2.31-.59,0-1.01-.25-1.29-.76h-.03l-.04.67h-.66c.02-.29.04-.74.04-1.1v-5.25Zm.76,4.67c0,.09,0,.19.03.28.15.58.58.87,1.04.87.75,0,1.15-.69,1.15-1.67,0-.87-.38-1.63-1.14-1.63-.47,0-.91.39-1.04.92-.02.09-.04.2-.04.32v.92Z" fill="#0072bc" stroke-width="0"/>
        <path d="m11.95,96.24c0,.36,0,.73.06,1.03h-.68l-.06-.52h-.03c-.22.33-.64.61-1.2.61-.78,0-1.23-.58-1.23-1.25,0-1.06.91-1.61,2.39-1.6v-.11c0-.42-.12-1-.9-.99-.37,0-.74.11-1.01.29l-.17-.51c.31-.2.79-.35,1.3-.35,1.19,0,1.53.81,1.53,1.71v1.7Zm-.74-1.21c-.71,0-1.65.12-1.65.99,0,.53.32.76.67.76.5,0,.83-.31.94-.7.03-.08.04-.17.04-.25v-.79Z" fill="#0072bc" stroke-width="0"/>
        <path d="m13.07,94.07c0-.47-.02-.8-.04-1.16h.67l.04.67h.02c.21-.39.67-.75,1.3-.75.59,0,1.39.39,1.39,1.75v2.69h-.76v-2.59c0-.65-.22-1.22-.88-1.22-.45,0-.82.33-.95.78-.03.1-.04.23-.04.37v2.66h-.76v-3.2Z" fill="#0072bc" stroke-width="0"/>
        <path d="m18.35,94.92h.02c.1-.16.23-.34.33-.5l1.16-1.51h.89l-1.52,1.81,1.72,2.55h-.91l-1.33-2.08-.36.44v1.64h-.76v-6.35h.76v4Z" fill="#0072bc" stroke-width="0"/>
        <path d="m25.92,96.24c0,.36,0,.73.06,1.03h-.68l-.06-.52h-.03c-.22.33-.64.61-1.2.61-.78,0-1.23-.58-1.23-1.25,0-1.06.91-1.61,2.39-1.6v-.11c0-.42-.12-1-.9-.99-.37,0-.74.11-1.01.29l-.17-.51c.31-.2.79-.35,1.3-.35,1.19,0,1.53.81,1.53,1.71v1.7Zm-.74-1.21c-.71,0-1.65.12-1.65.99,0,.53.32.76.67.76.5,0,.83-.31.94-.7.03-.08.04-.17.04-.25v-.79Z" fill="#0072bc" stroke-width="0"/>
        <path d="m29.85,97.12c-.19.1-.58.23-1.09.23-1.2,0-2-.86-2-2.21s.84-2.3,2.16-2.3c.4,0,.77.11.96.21l-.17.58c-.16-.08-.42-.18-.79-.18-.91,0-1.38.77-1.38,1.66,0,1.02.57,1.63,1.37,1.63.37,0,.62-.09.83-.18l.12.58Z" fill="#0072bc" stroke-width="0"/>
        <path d="m33.35,97.12c-.19.1-.58.23-1.09.23-1.2,0-2-.86-2-2.21s.84-2.3,2.16-2.3c.4,0,.77.11.96.21l-.17.58c-.16-.08-.42-.18-.79-.18-.91,0-1.38.77-1.38,1.66,0,1.02.57,1.63,1.37,1.63.37,0,.62-.09.83-.18l.12.58Z" fill="#0072bc" stroke-width="0"/>
        <path d="m37.61,95.06c0,1.63-1.02,2.3-1.95,2.3-1.06,0-1.89-.82-1.89-2.24,0-1.5.88-2.29,1.95-2.29s1.89.86,1.89,2.23Zm-3.07.04c0,.88.42,1.67,1.15,1.67s1.14-.8,1.14-1.69c0-.71-.3-1.67-1.14-1.67s-1.15.91-1.15,1.68Z" fill="#0072bc" stroke-width="0"/>
        <path d="m41.82,96.08c0,.46.02.85.04,1.19h-.67l-.04-.63h-.02c-.18.31-.6.72-1.29.72s-1.37-.44-1.37-1.84v-2.61h.76v2.48c0,.78.22,1.33.85,1.33.5,0,.81-.38.92-.68.04-.12.06-.25.06-.41v-2.73h.76v3.17Z" fill="#0072bc" stroke-width="0"/>
        <path d="m42.98,94.07c0-.47-.02-.8-.04-1.16h.67l.04.67h.02c.21-.39.67-.75,1.3-.75.59,0,1.39.39,1.39,1.75v2.69h-.76v-2.59c0-.65-.22-1.22-.88-1.22-.45,0-.82.33-.95.78-.03.1-.04.23-.04.37v2.66h-.76v-3.2Z" fill="#0072bc" stroke-width="0"/>
        <path d="m48.37,91.88v1.04h1.04v.58h-1.04v2.42c0,.55.17.81.56.81.18,0,.3-.02.4-.04l.03.58c-.14.05-.36.1-.65.1-.33,0-.62-.11-.8-.32-.2-.22-.29-.58-.29-1.12v-2.42h-.63v-.58h.63v-.78l.75-.25Z" fill="#0072bc" stroke-width="0"/>
      </g>
      <text transform="translate(416.29 59.58)" fill="#231f20"><tspan font-family="MyriadPro-SemiboldSemiCn, &apos;Myriad Pro&apos;" font-size="10.29" font-weight="600" letter-spacing="-.01em"><tspan x="0" y="0">Authorized Payment Location</tspan></tspan><tspan font-family="MyriadPro-SemiCnIt, &apos;Myriad Pro&apos;" font-size="9" font-style="italic"><tspan x="0" y="10.29" xml:space="preserve" letter-spacing="0em">                                                  </tspan><tspan x="72.44" y="10.29" letter-spacing="-.02em">F</tspan><tspan x="76.12" y="10.29" letter-spacing="0em">e</tspan><tspan x="79.85" y="10.29" letter-spacing="0em">e </tspan><tspan x="84.97" y="10.29" letter-spacing="0em">m</tspan><tspan x="91.61" y="10.29" letter-spacing="0em">a</tspan><tspan x="95.89" y="10.29" letter-spacing="0em">y </tspan><tspan x="100.94" y="10.29" letter-spacing="0em">ap</tspan><tspan x="109.61" y="10.29" letter-spacing="0em">p</tspan><tspan x="113.94" y="10.29" letter-spacing="0em">l</tspan><tspan x="115.82" y="10.29" letter-spacing="0em">y</tspan></tspan></text>
      <text transform="translate(264.85 43.7)" fill="#0072bc" font-family="MyriadConceptRoman-SemiboldSemiCn, &apos;Myriad Variable Concept&apos;" font-size="10.29" font-variation-settings="&apos;wght&apos; 600, &apos;wdth&apos; 90" font-weight="600" letter-spacing="0em"><tspan x="0" y="0" xml:space="preserve">Mail   </tspan></text>
      <text transform="translate(264.85 86.98)" fill="#0072bc" font-family="MyriadPro-SemiCn, &apos;Myriad Pro&apos;" font-size="9"><tspan x="0" y="0" letter-spacing="0em">C</tspan><tspan x="4.57" y="0" letter-spacing="0em">h</tspan><tspan x="9.13" y="0" letter-spacing="0em">e</tspan><tspan x="13.29" y="0" letter-spacing="0em">c</tspan><tspan x="16.87" y="0" letter-spacing="0em">k </tspan><tspan x="22.36" y="0" letter-spacing="0em">o</tspan><tspan x="26.81" y="0" letter-spacing="0em">r </tspan><tspan x="31.12" y="0" letter-spacing="0em">m</tspan><tspan x="38.02" y="0" letter-spacing="0em">on</tspan><tspan x="47.03" y="0" letter-spacing="0em">e</tspan><tspan x="51.09" y="0" letter-spacing="-.01em">y </tspan><tspan x="56.58" y="0" letter-spacing="0em">o</tspan><tspan x="61.04" y="0" letter-spacing="0em">r</tspan><tspan x="63.71" y="0" letter-spacing="0em">d</tspan><tspan x="68.3" y="0" letter-spacing="0em">e</tspan><tspan x="72.4" y="0" letter-spacing="0em">r</tspan></text>
      <text transform="translate(416.57 43.7)" fill="#0072bc" font-family="MyriadConceptRoman-SemiboldSemiCn, &apos;Myriad Variable Concept&apos;" font-size="10.29" font-variation-settings="&apos;wght&apos; 600, &apos;wdth&apos; 90" font-weight="600" letter-spacing="-.01em"><tspan x="0" y="0">In Person</tspan></text>
      <g>
        <path d="m420.97,86.81c-.25.13-.75.25-1.38.25-1.56,0-2.71-1.04-2.71-3.05s1.26-3.18,2.86-3.18c.64,0,1.05.13,1.23.23l-.18.62c-.25-.13-.58-.22-1.04-.22-1.19,0-2.08.83-2.08,2.49s.8,2.45,2.05,2.45c.41,0,.83-.09,1.09-.22l.14.61Z" fill="#0072bc" stroke-width="0"/>
        <path d="m424.65,85.96c0,.36,0,.73.06,1.03h-.68l-.06-.52h-.03c-.22.33-.64.61-1.2.61-.78,0-1.23-.58-1.23-1.25,0-1.06.91-1.61,2.39-1.6v-.11c0-.42-.12-1-.9-.99-.37,0-.74.11-1.01.29l-.17-.51c.31-.2.79-.35,1.3-.35,1.19,0,1.53.81,1.53,1.71v1.7Zm-.74-1.21c-.71,0-1.65.12-1.65.99,0,.53.32.76.67.76.5,0,.83-.31.94-.7.03-.08.04-.17.04-.25v-.79Z" fill="#0072bc" stroke-width="0"/>
        <path d="m425.65,86.2c.21.13.58.29.95.29.52,0,.78-.27.78-.64s-.2-.58-.74-.82c-.72-.31-1.07-.72-1.07-1.23,0-.7.56-1.25,1.41-1.25.41,0,.76.12.98.25l-.19.56c-.17-.11-.45-.23-.8-.23-.44,0-.67.27-.67.58,0,.33.22.5.74.74.67.3,1.07.68,1.07,1.31,0,.8-.59,1.31-1.53,1.31-.43,0-.85-.12-1.12-.29l.19-.58Z" fill="#0072bc" stroke-width="0"/>
        <path d="m428.96,80.64h.76v2.61h.02c.12-.2.3-.38.5-.5.22-.12.46-.2.75-.2.57,0,1.36.38,1.36,1.76v2.68h-.76v-2.59c0-.66-.23-1.22-.88-1.22-.45,0-.81.32-.95.77-.04.1-.04.23-.04.36v2.68h-.76v-6.35Z" fill="#0072bc" stroke-width="0"/>
        <path d="m433.02,88.1c.2-.53.44-1.49.53-2.13l.85-.09c-.21.76-.6,1.75-.85,2.16l-.53.06Z" fill="#0072bc" stroke-width="0"/>
        <path d="m439.69,86.84c-.19.1-.58.23-1.09.23-1.2,0-2-.86-2-2.21s.84-2.3,2.16-2.3c.4,0,.77.11.96.21l-.17.58c-.16-.08-.42-.18-.79-.18-.91,0-1.38.77-1.38,1.66,0,1.02.57,1.63,1.37,1.63.37,0,.62-.09.83-.18l.12.58Z" fill="#0072bc" stroke-width="0"/>
        <path d="m440.46,80.64h.76v2.61h.02c.12-.2.3-.38.5-.5.22-.12.46-.2.75-.2.57,0,1.36.38,1.36,1.76v2.68h-.76v-2.59c0-.66-.23-1.22-.88-1.22-.45,0-.81.32-.95.77-.04.1-.04.23-.04.36v2.68h-.76v-6.35Z" fill="#0072bc" stroke-width="0"/>
        <path d="m445.47,84.92c0,1.15.65,1.55,1.35,1.55.49,0,.81-.09,1.06-.21l.13.55c-.26.13-.71.25-1.3.25-1.25,0-1.98-.87-1.98-2.2s.73-2.32,1.88-2.32c1.26,0,1.62,1.15,1.62,2,0,.17,0,.29-.03.38h-2.74Zm2.03-.55c0-.61-.23-1.27-.96-1.27s-1.01.71-1.06,1.27h2.03Z" fill="#0072bc" stroke-width="0"/>
        <path d="m451.98,86.84c-.19.1-.58.23-1.09.23-1.2,0-2-.86-2-2.21s.84-2.3,2.16-2.3c.4,0,.77.11.96.21l-.17.58c-.16-.08-.42-.18-.79-.18-.91,0-1.38.77-1.38,1.66,0,1.02.57,1.63,1.37,1.63.37,0,.62-.09.83-.18l.12.58Z" fill="#0072bc" stroke-width="0"/>
        <path d="m453.5,84.63h.02c.1-.16.23-.34.33-.5l1.16-1.51h.89l-1.52,1.81,1.72,2.55h-.91l-1.33-2.08-.36.44v1.64h-.76v-6.35h.76v4Z" fill="#0072bc" stroke-width="0"/>
        <path d="m456.33,88.1c.2-.53.44-1.49.53-2.13l.85-.09c-.21.76-.6,1.75-.85,2.16l-.53.06Z" fill="#0072bc" stroke-width="0"/>
        <path d="m463,86.84c-.19.1-.58.23-1.09.23-1.2,0-2-.86-2-2.21s.84-2.3,2.16-2.3c.4,0,.77.11.96.21l-.17.58c-.16-.08-.42-.18-.79-.18-.91,0-1.38.77-1.38,1.66,0,1.02.57,1.63,1.37,1.63.37,0,.62-.09.83-.18l.12.58Z" fill="#0072bc" stroke-width="0"/>
        <path d="m466.67,85.96c0,.36,0,.73.06,1.03h-.68l-.06-.52h-.03c-.22.33-.64.61-1.2.61-.78,0-1.23-.58-1.23-1.25,0-1.06.91-1.61,2.39-1.6v-.11c0-.42-.12-1-.9-.99-.37,0-.74.11-1.01.29l-.17-.51c.31-.2.79-.35,1.3-.35,1.19,0,1.53.81,1.53,1.71v1.7Zm-.74-1.21c-.71,0-1.65.12-1.65.99,0,.53.32.76.67.76.5,0,.83-.31.94-.7.03-.08.04-.17.04-.25v-.79Z" fill="#0072bc" stroke-width="0"/>
        <path d="m467.79,83.91c0-.47-.02-.91-.04-1.29h.67l.04.81h.03c.18-.53.63-.89,1.12-.89.08,0,.13,0,.2.02v.74c-.06-.02-.13-.02-.22-.02-.52,0-.9.41-1,.97-.02.12-.03.24-.03.38v2.35h-.76v-3.07Z" fill="#0072bc" stroke-width="0"/>
        <path d="m473.88,80.64v5.25c0,.36.02.81.04,1.1h-.67l-.04-.69h-.03c-.21.43-.68.78-1.31.78-.96,0-1.69-.86-1.69-2.21,0-1.48.82-2.31,1.76-2.31.57,0,.97.26,1.16.61h.02v-2.52h.76Zm-.76,3.74c0-.1,0-.23-.03-.32-.1-.49-.48-.89-1-.89-.75,0-1.15.74-1.15,1.67s.38,1.62,1.13,1.62c.43,0,.86-.28,1.01-.88.03-.1.04-.21.04-.32v-.87Z" fill="#0072bc" stroke-width="0"/>
        <path d="m480.23,84.78c0,1.63-1.02,2.3-1.95,2.3-1.06,0-1.89-.82-1.89-2.24,0-1.5.88-2.29,1.95-2.29s1.89.86,1.89,2.23Zm-3.07.04c0,.88.42,1.67,1.15,1.67s1.14-.8,1.14-1.69c0-.71-.3-1.67-1.14-1.67s-1.15.91-1.15,1.68Z" fill="#0072bc" stroke-width="0"/>
        <path d="m481.12,83.91c0-.47-.02-.91-.04-1.29h.67l.04.81h.03c.18-.53.63-.89,1.12-.89.08,0,.13,0,.2.02v.74c-.06-.02-.13-.02-.22-.02-.52,0-.9.41-1,.97-.02.12-.03.24-.03.38v2.35h-.76v-3.07Z" fill="#0072bc" stroke-width="0"/>
        <path d="m485.43,83.79c0-.47-.02-.8-.04-1.16h.67l.04.66h.02c.23-.4.61-.74,1.26-.74.53,0,.95.31,1.13.81h.02c.13-.23.3-.42.47-.55.23-.17.5-.26.85-.26.58,0,1.32.39,1.32,1.78v2.66h-.75v-2.54c0-.76-.24-1.27-.85-1.27-.41,0-.72.3-.85.69-.04.11-.05.25-.05.4v2.72h-.75v-2.68c0-.63-.24-1.13-.81-1.13-.43,0-.77.34-.88.77-.04.11-.05.24-.05.38v2.67h-.75v-3.2Z" fill="#0072bc" stroke-width="0"/>
        <path d="m495.9,84.78c0,1.63-1.02,2.3-1.95,2.3-1.06,0-1.89-.82-1.89-2.24,0-1.5.88-2.29,1.95-2.29s1.89.86,1.89,2.23Zm-3.07.04c0,.88.42,1.67,1.15,1.67s1.14-.8,1.14-1.69c0-.71-.3-1.67-1.14-1.67s-1.15.91-1.15,1.68Z" fill="#0072bc" stroke-width="0"/>
        <path d="m496.8,83.79c0-.47-.02-.8-.04-1.16h.67l.04.67h.02c.21-.39.67-.75,1.3-.75.59,0,1.39.39,1.39,1.75v2.69h-.76v-2.59c0-.65-.22-1.22-.88-1.22-.45,0-.82.33-.95.78-.03.1-.04.23-.04.37v2.66h-.76v-3.2Z" fill="#0072bc" stroke-width="0"/>
        <path d="m501.8,84.92c0,1.15.65,1.55,1.35,1.55.49,0,.81-.09,1.06-.21l.13.55c-.26.13-.71.25-1.3.25-1.25,0-1.98-.87-1.98-2.2s.73-2.32,1.88-2.32c1.26,0,1.62,1.15,1.62,2,0,.17,0,.29-.03.38h-2.74Zm2.03-.55c0-.61-.23-1.27-.96-1.27s-1.01.71-1.06,1.27h2.03Z" fill="#0072bc" stroke-width="0"/>
        <path d="m505.71,82.63l.85,2.56c.09.3.18.62.24.89h.03c.06-.26.15-.59.24-.91l.77-2.54h.79l-1.04,3.01c-.48,1.38-.84,2.23-1.37,2.75-.37.36-.74.51-.92.56l-.22-.64c.2-.08.45-.22.67-.43.2-.2.43-.5.58-.85.04-.09.06-.14.06-.2,0-.04-.02-.11-.04-.19l-1.46-4.02h.82Z" fill="#0072bc" stroke-width="0"/>
        <path d="m514.46,84.78c0,1.63-1.02,2.3-1.95,2.3-1.06,0-1.89-.82-1.89-2.24,0-1.5.88-2.29,1.95-2.29s1.89.86,1.89,2.23Zm-3.07.04c0,.88.42,1.67,1.15,1.67s1.14-.8,1.14-1.69c0-.71-.3-1.67-1.14-1.67s-1.15.91-1.15,1.68Z" fill="#0072bc" stroke-width="0"/>
        <path d="m515.35,83.91c0-.47-.02-.91-.04-1.29h.67l.04.81h.03c.18-.53.63-.89,1.12-.89.08,0,.13,0,.2.02v.74c-.06-.02-.13-.02-.22-.02-.52,0-.9.41-1,.97-.02.12-.03.24-.03.38v2.35h-.76v-3.07Z" fill="#0072bc" stroke-width="0"/>
        <path d="m521.44,80.64v5.25c0,.36.02.81.04,1.1h-.67l-.04-.69h-.03c-.21.43-.68.78-1.31.78-.96,0-1.69-.86-1.69-2.21,0-1.48.82-2.31,1.76-2.31.57,0,.97.26,1.16.61h.02v-2.52h.76Zm-.76,3.74c0-.1,0-.23-.03-.32-.1-.49-.48-.89-1-.89-.75,0-1.15.74-1.15,1.67s.38,1.62,1.13,1.62c.43,0,.86-.28,1.01-.88.03-.1.04-.21.04-.32v-.87Z" fill="#0072bc" stroke-width="0"/>
        <path d="m523.07,84.92c0,1.15.65,1.55,1.35,1.55.49,0,.81-.09,1.06-.21l.13.55c-.26.13-.71.25-1.3.25-1.25,0-1.98-.87-1.98-2.2s.73-2.32,1.88-2.32c1.26,0,1.62,1.15,1.62,2,0,.17,0,.29-.03.38h-2.74Zm2.03-.55c0-.61-.23-1.27-.96-1.27s-1.01.71-1.06,1.27h2.03Z" fill="#0072bc" stroke-width="0"/>
        <path d="m526.71,83.91c0-.47-.02-.91-.04-1.29h.67l.04.81h.03c.18-.53.63-.89,1.12-.89.08,0,.13,0,.2.02v.74c-.06-.02-.13-.02-.22-.02-.52,0-.9.41-1,.97-.02.12-.03.24-.03.38v2.35h-.76v-3.07Z" fill="#0072bc" stroke-width="0"/>
        <path d="m528.87,86.52c0-.32.22-.56.51-.56s.51.23.51.56c0,.31-.2.55-.52.55-.29,0-.5-.23-.5-.55Z" fill="#0072bc" stroke-width="0"/>
        <path d="m418.44,97.27l-1.81-6.07h.82l.84,2.95c.22.77.43,1.56.58,2.28h.02c.14-.72.37-1.51.6-2.28l.89-2.95h.81l-1.94,6.07h-.82Z" fill="#0072bc" stroke-width="0"/>
        <path d="m424.4,96.24c0,.36,0,.73.06,1.03h-.68l-.06-.52h-.03c-.22.33-.64.61-1.2.61-.78,0-1.23-.58-1.23-1.25,0-1.06.91-1.61,2.39-1.6v-.11c0-.42-.12-1-.9-.99-.37,0-.74.11-1.01.29l-.17-.51c.31-.2.79-.35,1.3-.35,1.19,0,1.53.81,1.53,1.71v1.7Zm-.74-1.21c-.71,0-1.65.12-1.65.99,0,.53.32.76.67.76.5,0,.83-.31.94-.7.03-.08.04-.17.04-.25v-.79Z" fill="#0072bc" stroke-width="0"/>
        <path d="m425.51,94.2c0-.47-.02-.91-.04-1.29h.67l.04.81h.03c.18-.53.63-.89,1.12-.89.08,0,.13,0,.2.02v.74c-.06-.02-.13-.02-.22-.02-.52,0-.9.41-1,.97-.02.12-.03.24-.03.38v2.35h-.76v-3.07Z" fill="#0072bc" stroke-width="0"/>
        <path d="m429.06,91.71c0,.27-.18.48-.48.48-.27,0-.46-.21-.46-.48s.2-.49.47-.49.47.21.47.49Zm-.84,5.55v-4.36h.76v4.36h-.76Z" fill="#0072bc" stroke-width="0"/>
        <path d="m430.59,95.21c0,1.15.65,1.55,1.35,1.55.49,0,.81-.09,1.06-.21l.13.55c-.26.13-.71.25-1.3.25-1.25,0-1.98-.87-1.98-2.2s.73-2.32,1.88-2.32c1.26,0,1.62,1.15,1.62,2,0,.17,0,.29-.03.38h-2.74Zm2.03-.55c0-.61-.23-1.27-.96-1.27s-1.01.71-1.06,1.27h2.03Z" fill="#0072bc" stroke-width="0"/>
        <path d="m434.12,96.49c.21.13.58.29.95.29.52,0,.78-.27.78-.64s-.2-.58-.74-.82c-.72-.31-1.07-.72-1.07-1.23,0-.7.56-1.25,1.41-1.25.41,0,.76.12.98.25l-.19.56c-.17-.11-.45-.23-.8-.23-.44,0-.67.27-.67.58,0,.33.22.5.74.74.67.3,1.07.68,1.07,1.31,0,.8-.59,1.31-1.53,1.31-.43,0-.85-.12-1.12-.29l.19-.58Z" fill="#0072bc" stroke-width="0"/>
        <path d="m439.09,90.92h.76v2.64h.02c.26-.47.71-.73,1.31-.73.96,0,1.65.86,1.65,2.21,0,1.56-.88,2.31-1.76,2.31-.59,0-1.01-.25-1.29-.76h-.03l-.04.67h-.66c.02-.29.04-.74.04-1.1v-5.25Zm.76,4.67c0,.09,0,.19.03.28.15.58.58.87,1.04.87.75,0,1.15-.69,1.15-1.67,0-.87-.38-1.63-1.14-1.63-.47,0-.91.39-1.04.92-.02.09-.04.2-.04.32v.92Z" fill="#0072bc" stroke-width="0"/>
        <path d="m443.95,92.91l.85,2.56c.09.3.18.62.24.89h.03c.06-.26.15-.59.24-.91l.77-2.54h.79l-1.04,3.01c-.48,1.38-.84,2.23-1.37,2.75-.37.36-.74.51-.92.56l-.22-.64c.2-.08.45-.22.67-.43.2-.2.43-.5.58-.85.04-.09.06-.14.06-.2,0-.04-.02-.11-.04-.19l-1.46-4.02h.82Z" fill="#0072bc" stroke-width="0"/>
        <path d="m449.14,90.92h.76v6.35h-.76v-6.35Z" fill="#0072bc" stroke-width="0"/>
        <path d="m454.66,95.06c0,1.63-1.02,2.3-1.95,2.3-1.06,0-1.89-.82-1.89-2.24,0-1.5.88-2.29,1.95-2.29s1.89.86,1.89,2.23Zm-3.07.04c0,.88.42,1.67,1.15,1.67s1.14-.8,1.14-1.69c0-.71-.3-1.67-1.14-1.67s-1.15.91-1.15,1.68Z" fill="#0072bc" stroke-width="0"/>
        <path d="m458.41,97.12c-.19.1-.58.23-1.09.23-1.2,0-2-.86-2-2.21s.84-2.3,2.16-2.3c.4,0,.77.11.96.21l-.17.58c-.16-.08-.42-.18-.79-.18-.91,0-1.38.77-1.38,1.66,0,1.02.57,1.63,1.37,1.63.37,0,.62-.09.83-.18l.12.58Z" fill="#0072bc" stroke-width="0"/>
        <path d="m462.08,96.24c0,.36,0,.73.06,1.03h-.68l-.06-.52h-.03c-.22.33-.64.61-1.2.61-.78,0-1.23-.58-1.23-1.25,0-1.06.91-1.61,2.39-1.6v-.11c0-.42-.12-1-.9-.99-.37,0-.74.11-1.01.29l-.17-.51c.31-.2.79-.35,1.3-.35,1.19,0,1.53.81,1.53,1.71v1.7Zm-.74-1.21c-.71,0-1.65.12-1.65.99,0,.53.32.76.67.76.5,0,.83-.31.94-.7.03-.08.04-.17.04-.25v-.79Z" fill="#0072bc" stroke-width="0"/>
        <path d="m464.07,91.88v1.04h1.04v.58h-1.04v2.42c0,.55.17.81.56.81.18,0,.3-.02.4-.04l.03.58c-.14.05-.36.1-.65.1-.33,0-.62-.11-.8-.32-.2-.22-.29-.58-.29-1.12v-2.42h-.63v-.58h.63v-.78l.75-.25Z" fill="#0072bc" stroke-width="0"/>
        <path d="m466.7,91.71c0,.27-.18.48-.48.48-.27,0-.46-.21-.46-.48s.2-.49.47-.49.47.21.47.49Zm-.84,5.55v-4.36h.76v4.36h-.76Z" fill="#0072bc" stroke-width="0"/>
        <path d="m471.34,95.06c0,1.63-1.02,2.3-1.95,2.3-1.06,0-1.89-.82-1.89-2.24,0-1.5.88-2.29,1.95-2.29s1.89.86,1.89,2.23Zm-3.07.04c0,.88.42,1.67,1.15,1.67s1.14-.8,1.14-1.69c0-.71-.3-1.67-1.14-1.67s-1.15.91-1.15,1.68Z" fill="#0072bc" stroke-width="0"/>
        <path d="m472.24,94.07c0-.47-.02-.8-.04-1.16h.67l.04.67h.02c.21-.39.67-.75,1.3-.75.59,0,1.39.39,1.39,1.75v2.69h-.76v-2.59c0-.65-.22-1.22-.88-1.22-.45,0-.82.33-.95.78-.03.1-.04.23-.04.37v2.66h-.76v-3.2Z" fill="#0072bc" stroke-width="0"/>
      </g>
      <g>
        <path d="m308.25,38.03c-.04-.24-.15-.47-.31-.66-.11-.14-.25-.26-.42-.35l-4.94-2.73c-.4-.22-.85-.34-1.3-.34s-.89.11-1.3.34l-4.94,2.73c-.16.09-.3.21-.42.35-.16.19-.27.42-.31.66-.02.09-.03.18-.03.28v4.45c0,.82.66,1.48,1.48,1.48h11.05c.81,0,1.47-.66,1.47-1.47v-4.45c0-.1,0-.19-.03-.28Zm-11.03-1.79h8.13c.52,0,.93.42.93.93v.92l-4.07,1.97c-.58.28-1.26.28-1.84,0l-4.09-1.98v-.92c0-.52.42-.93.93-.93Zm9.32,7h-10.51c-.41,0-.74-.33-.74-.74v-4.38l4.76,2.51c.39.2.81.31,1.24.31s.85-.1,1.24-.31l4.76-2.51v4.38c0,.41-.34.75-.75.75Z" fill="#fff" stroke-width="0"/>
        <path d="m298.21,37.24h6.74c.11.26.19.17.19.06s-.09-.19-.19.94h-6.74c-.11-1.13-.19-1.05-.19-.94s.09.19.19-.06Z" fill="#fff" stroke-width="0"/>
        <path d="m301.83,38.19c0-.11-.09-.19-.19-.95h-3.42c-.11.75-.19.84-.19.95s.09.19.19.05h3.42c.11.14.19.06.19-.05Z" fill="#fff" stroke-width="0"/>
      </g>
      <g>
        <path d="m469.7,37.32c0,.53.21,1.01.56,1.35.34.35.82.56,1.35.56s1-.22,1.34-.56c.34-.34.56-.82.56-1.35h0c0-.53-.21-1.01-.56-1.35-.34-.34-.82-.56-1.34-.56h0c-.53,0-1.01.22-1.35.56-.35.34-.56.82-.56,1.35h0Zm.84-3.41c.36-.13.76-.2,1.17-.19h0c.41-.01.81.06,1.17.19.68.25,1.25.71,1.66,1.3.4.59.64,1.3.66,2.04.01.45-.06.9-.22,1.35-.27.74-1.34,2.29-2.14,3.46-.27.4-.51.75-.68,1-.13.2-.24.32-.4.35-.17.03-.32-.06-.49-.31h0s-.02-.03-.02-.03l-.02-.03c-.17-.26-.41-.61-.68-1-.8-1.16-1.86-2.7-2.12-3.43-.16-.45-.23-.9-.22-1.35.02-.74.26-1.45.66-2.04.41-.59.98-1.05,1.66-1.3h0Z" fill="#fff" fill-rule="evenodd" stroke-width="0"/>
        <rect x="466.28" y="43.24" width="10" height="1" fill="#fff" stroke-width="0"/>
      </g>
      <rect x="174.28" y="31.24" width="26" height="15" fill="#0072bc" stroke-width="0"/>
      <rect x="230.28" y="31.24" width="26" height="15" fill="#0072bc" stroke-width="0"/>
      <rect x="87.28" y="77.24" width="167" height="25" fill="#e6e7e8" stroke-width="0"/>
      <rect x="87.28" y="46.24" width="167" height="28" fill="#e1e8f6" stroke-width="0"/>
      <text transform="translate(92.57 43.7)" fill="#0072bc" font-family="MyriadConceptRoman-SemiboldSemiCn, &apos;Myriad Variable Concept&apos;" font-size="10.29" font-variation-settings="&apos;wght&apos; 600, &apos;wdth&apos; 90" font-weight="600" letter-spacing="0em"><tspan x="0" y="0">Same-Day Payment</tspan></text>
      <text transform="translate(90.57 86.98)" fill="#0072bc" font-family="MyriadPro-SemiCn, &apos;Myriad Pro&apos;" font-size="9"><tspan x="0" y="0" letter-spacing="0em">D</tspan><tspan x="5.36" y="0" letter-spacing="-.01em">i</tspan><tspan x="7.22" y="0" letter-spacing="0em">s</tspan><tspan x="10.48" y="0" letter-spacing="-.01em">cov</tspan><tspan x="22.19" y="0" letter-spacing="0em">e</tspan><tspan x="26.28" y="0" letter-spacing=".04em">r</tspan><tspan x="29.36" y="0" letter-spacing="-.55em">速</tspan><tspan x="28.06" y="0" letter-spacing=".05em">,</tspan><tspan x="30.34" y="0" letter-spacing="-.11em"> </tspan><tspan x="31.12" y="0" letter-spacing=".07em"> </tspan><tspan x="33.51" y="0" letter-spacing="0em">M</tspan><tspan x="40.15" y="0" letter-spacing="0em">a</tspan><tspan x="44.1" y="0" letter-spacing="0em">s</tspan><tspan x="47.4" y="0" letter-spacing="-.01em">t</tspan><tspan x="50.04" y="0" letter-spacing="0em">e</tspan><tspan x="54.14" y="0" letter-spacing=".01em">r</tspan><tspan x="56.96" y="0" letter-spacing="0em">C</tspan><tspan x="61.6" y="0" letter-spacing="0em">a</tspan><tspan x="65.55" y="0" letter-spacing="0em">r</tspan><tspan x="68.22" y="0" letter-spacing="-.02em">d</tspan><tspan x="72.66" y="0" letter-spacing="-.41em">速</tspan><tspan x="72.62" y="0" letter-spacing="0em">, </tspan><tspan x="76.04" y="0" letter-spacing=".03em"> </tspan><tspan x="78.07" y="0" letter-spacing="0em">V</tspan><tspan x="82.75" y="0" letter-spacing="-.01em">i</tspan><tspan x="84.6" y="0" letter-spacing="0em">s</tspan><tspan x="87.9" y="0" letter-spacing="-.08em">a</tspan><tspan x="91.21" y="0" letter-spacing="-.07em">速</tspan><tspan x="94.25" y="0" letter-spacing="0em">, </tspan><tspan x="97.67" y="0" letter-spacing="0em">A</tspan><tspan x="102.63" y="0" letter-spacing="0em">m</tspan><tspan x="109.53" y="0" letter-spacing="0em">e</tspan><tspan x="113.62" y="0" letter-spacing="0em">r</tspan><tspan x="116.33" y="0" letter-spacing="0em">i</tspan><tspan x="118.24" y="0" letter-spacing="0em">c</tspan><tspan x="121.88" y="0" letter-spacing="0em">a</tspan><tspan x="125.83" y="0" letter-spacing="-.01em">n </tspan><tspan x="132.01" y="0" letter-spacing=".02em">E</tspan><tspan x="136.19" y="0" letter-spacing="0em">x</tspan><tspan x="140.02" y="0" letter-spacing="0em">p</tspan><tspan x="144.66" y="0" letter-spacing="0em">r</tspan><tspan x="147.32" y="0" letter-spacing="0em">e</tspan><tspan x="151.42" y="0" letter-spacing="0em">s</tspan><tspan x="154.62" y="0" letter-spacing="-.08em">s</tspan><tspan x="157.17" y="0" letter-spacing="0em">速</tspan><tspan x="0" y="10.29" letter-spacing="-.11em"> </tspan><tspan x=".77" y="10.29" letter-spacing="0em">o</tspan><tspan x="5.23" y="10.29" letter-spacing="0em">r </tspan><tspan x="9.54" y="10.29" letter-spacing="0em">e</tspan><tspan x="13.7" y="10.29" letter-spacing="0em">C</tspan><tspan x="18.27" y="10.29" letter-spacing="0em">h</tspan><tspan x="22.83" y="10.29" letter-spacing="0em">e</tspan><tspan x="26.99" y="10.29" letter-spacing="0em">c</tspan><tspan x="30.56" y="10.29" letter-spacing="-.01em">k</tspan></text>
      <text transform="translate(92.57 59.58)" fill="#231f20"><tspan font-family="MyriadPro-SemiboldSemiCn, &apos;Myriad Pro&apos;" font-size="10.29" font-weight="600" letter-spacing="-.01em"><tspan x="0" y="0" xml:space="preserve">ConsumersEnergy.com,  866-329-9593</tspan></tspan><tspan x="0" y="11.57" font-family="MyriadPro-SemiCn, &apos;Myriad Pro&apos;" font-size="10.29" letter-spacing="0em">or</tspan><tspan x="8.04" y="11.57" xml:space="preserve" font-family="MyriadPro-SemiboldSemiCn, &apos;Myriad Pro&apos;" font-size="10.29" font-weight="600" letter-spacing="0em"> App</tspan><tspan x="26.62" y="11.57" font-family="MyriadPro-SemiboldSemiCn, &apos;Myriad Pro&apos;" font-size="10.29" font-weight="600" letter-spacing=".86em">	</tspan><tspan x="37.47" y="11.57" xml:space="preserve" font-family="MyriadPro-SemiboldSemiCn, &apos;Myriad Pro&apos;" font-size="10.29" font-weight="600" letter-spacing="0em">                                      </tspan><tspan x="108.6" y="11.57" font-family="MyriadPro-SemiCnIt, &apos;Myriad Pro&apos;" font-size="9" font-style="italic" letter-spacing="-.02em">F</tspan><tspan x="112.28" y="11.57" font-family="MyriadPro-SemiCnIt, &apos;Myriad Pro&apos;" font-size="9" font-style="italic" letter-spacing="0em">e</tspan><tspan x="116" y="11.57" font-family="MyriadPro-SemiCnIt, &apos;Myriad Pro&apos;" font-size="9" font-style="italic" letter-spacing="-.01em">e </tspan><tspan x="121.12" y="11.57" font-family="MyriadPro-SemiCnIt, &apos;Myriad Pro&apos;" font-size="9" font-style="italic" letter-spacing="0em">m</tspan><tspan x="127.76" y="11.57" font-family="MyriadPro-SemiCnIt, &apos;Myriad Pro&apos;" font-size="9" font-style="italic" letter-spacing="0em">a</tspan><tspan x="132.04" y="11.57" font-family="MyriadPro-SemiCnIt, &apos;Myriad Pro&apos;" font-size="9" font-style="italic" letter-spacing="0em">y </tspan><tspan x="137.09" y="11.57" font-family="MyriadPro-SemiCnIt, &apos;Myriad Pro&apos;" font-size="9" font-style="italic" letter-spacing="0em">ap</tspan><tspan x="145.76" y="11.57" font-family="MyriadPro-SemiCnIt, &apos;Myriad Pro&apos;" font-size="9" font-style="italic" letter-spacing="0em">p</tspan><tspan x="150.09" y="11.57" font-family="MyriadPro-SemiCnIt, &apos;Myriad Pro&apos;" font-size="9" font-style="italic" letter-spacing="0em">l</tspan><tspan x="151.97" y="11.57" font-family="MyriadPro-SemiCnIt, &apos;Myriad Pro&apos;" font-size="9" font-style="italic" letter-spacing="0em">y</tspan><tspan x="155.57" y="11.57" font-family="MyriadPro-SemiCnIt, &apos;Myriad Pro&apos;" font-size="10.29" font-style="italic" letter-spacing="0em"> </tspan></text>
      <g>
        <path d="m190.61,44s-.02,0-.04,0c-.08,0-.15-.05-.2-.11l-1.53-1.97-1.04,1.57c-.06.1-.18.15-.29.13-.11-.02-.21-.1-.24-.21l-1.91-7.06c-.03-.11,0-.24.1-.31.09-.07.22-.08.33-.02l6.38,3.58c.1.06.16.17.15.28,0,.12-.09.21-.2.25l-1.78.63,1.54,1.97c.05.06.07.14.06.22,0,.08-.05.15-.11.2l-1.04.81c-.05.04-.12.06-.18.06Z" fill="#fff" stroke-width="0"/>
        <path d="m187.48,36.37c-.13,0-.25-.09-.28-.22-.04-.16.05-.32.21-.36l.77-.21c.16-.04.32.05.36.21.04.16-.05.32-.21.36l-.77.21s-.05.01-.08.01Z" fill="#fff" stroke-width="0"/>
        <path d="m186.74,35.31s-.1-.01-.15-.04c-.14-.08-.19-.26-.11-.4l.4-.7c.08-.14.26-.19.4-.11.14.08.19.26.11.4l-.4.7c-.05.1-.15.15-.26.15Z" fill="#fff" stroke-width="0"/>
        <path d="m185.47,35.08c-.13,0-.25-.09-.28-.22l-.21-.77c-.04-.16.05-.32.21-.36.16-.04.32.05.36.21l.21.77c.04.16-.05.32-.21.36-.03,0-.05.01-.08.01Z" fill="#fff" stroke-width="0"/>
        <path d="m184.4,35.82s-.1-.01-.15-.04l-.7-.4c-.14-.08-.19-.26-.11-.4.08-.14.26-.19.4-.11l.7.4c.14.08.19.26.11.4-.05.1-.15.15-.26.15Z" fill="#fff" stroke-width="0"/>
        <path d="m183.4,37.3c-.13,0-.25-.09-.28-.22-.04-.16.05-.32.21-.36l.77-.21c.16-.04.32.05.36.21.04.16-.05.32-.21.36l-.77.21s-.05.01-.08.01Z" fill="#fff" stroke-width="0"/>
        <path d="m184.52,38.85s-.1-.01-.15-.04c-.14-.08-.19-.26-.11-.4l.4-.7c.08-.14.26-.19.4-.11.14.08.19.26.11.4l-.4.7c-.05.1-.15.15-.26.15Z" fill="#fff" stroke-width="0"/>
      </g>
      <g>
        <rect x="202.28" y="31.24" width="26" height="15" fill="#0072bc" stroke-width="0"/>
        <g>
          <g>
            <path d="m214.69,36.84c-.12.05-.26.02-.35-.09-.1-.13-.08-.31.04-.42l.62-.5c.13-.1.31-.08.42.04.1.13.08.31-.04.42l-.62.5s-.04.03-.07.04Z" fill="#fff" stroke-width="0"/>
            <path d="m213.59,36.16s-.1.03-.15.02c-.16-.02-.28-.16-.26-.32l.08-.8c.02-.16.16-.28.32-.26.16.02.28.16.26.32l-.08.8c-.01.11-.08.2-.18.24Z" fill="#fff" stroke-width="0"/>
            <path d="m212.33,36.46c-.12.05-.26.02-.35-.09l-.5-.62c-.1-.13-.08-.31.04-.42.13-.1.31-.08.42.04l.5.62c.1.13.08.31-.04.42-.02.02-.04.03-.07.04Z" fill="#fff" stroke-width="0"/>
            <path d="m211.65,37.56s-.1.03-.15.02l-.8-.08c-.16-.02-.28-.16-.26-.32.02-.16.16-.28.32-.26l.8.08c.16.02.28.16.26.32-.01.11-.08.2-.18.24Z" fill="#fff" stroke-width="0"/>
            <path d="m211.33,39.32c-.12.05-.26.02-.35-.09-.1-.13-.08-.31.04-.42l.62-.5c.13-.1.31-.08.42.04.1.13.08.31-.04.42l-.62.5s-.04.03-.07.04Z" fill="#fff" stroke-width="0"/>
            <path d="m212.97,40.3s-.1.03-.15.02c-.16-.02-.28-.16-.26-.32l.08-.8c.02-.16.16-.28.32-.26.16.02.28.16.26.32l-.08.8c-.01.11-.08.2-.18.24Z" fill="#fff" stroke-width="0"/>
          </g>
          <path d="m214.2,41.35c.07.04.13.08.2.11h0c.06.03.12.06.18.08.05.02.1.03.15.03h0s.09,0,.13-.01h0s.09-.03.13-.05h0s.07-.04.1-.07c.04-.03.07-.06.1-.09h0c.07-.07.15-.15.24-.26.09-.11.19-.24.29-.39h0c.1-.14.21-.29.31-.46.11-.16.22-.34.32-.52h0c.1-.18.21-.36.3-.53h0c.09-.17.18-.33.25-.49.08-.16.14-.3.2-.44.05-.13.09-.24.12-.34v-.06h.01s.01-.05.01-.08c0-.04.01-.08,0-.12h0c0-.05,0-.1-.01-.14-.01-.04-.02-.08-.05-.12h0s-.06-.08-.1-.12c-.04-.04-.09-.08-.15-.12h0c-.06-.04-.12-.08-.18-.11-.07-.04-.15-.08-.22-.11h0s-.02-.01-.04-.02h0s-.05-.02-.1-.05h0c-.12-.06-.24-.11-.32-.19-.09-.09-.13-.21-.11-.39h0l.32-2.39h0s0-.04.02-.06h0s.02-.04.03-.05h.01s.04-.04.07-.05c.02,0,.05-.02.08-.02h0c.17-.02.32-.03.47-.02.15,0,.29.03.42.07.21.06.4.15.56.27.17.12.31.28.43.46.12.18.21.38.28.61.07.23.13.48.16.74h0c.05.39.05.8.01,1.22-.04.43-.12.87-.23,1.29h0c-.04.15-.09.31-.15.48-.06.17-.14.35-.22.53-.08.19-.17.38-.27.56-.1.19-.2.38-.31.56h0c-.11.18-.22.36-.35.54-.12.18-.25.35-.37.51-.12.16-.24.3-.36.44-.12.14-.24.26-.35.37h0c-.32.3-.67.58-1.03.82-.35.23-.71.42-1.07.57h0c-.25.1-.49.17-.73.21-.23.04-.45.06-.66.04-.22-.02-.42-.07-.61-.16-.18-.09-.35-.21-.5-.36h0c-.09-.1-.18-.21-.26-.34-.08-.12-.15-.27-.21-.42h0s-.02-.06-.02-.09c0-.03,0-.06,0-.08h0s.02-.05.03-.07c.01-.02.03-.03.05-.04h0l1.95-1.41h0c.3-.22.48-.07.71.1h0l.12.09h0c.06.05.13.09.2.14h0Z" fill="#fff" fill-rule="evenodd" stroke-width="0"/>
        </g>
      </g>
      <g>
        <path d="m236.28,44.24v-9.52c0-.82.66-1.48,1.48-1.48h5.67s1.48.71,1.85,1.53v2.6c-.37.15-.49.27-.64.27s-.36-.27-.36-.27v-2.19c0-.52-.42-.93-.93-.93h-5.13c-.52,0-.93.42-.93.93v9.07" fill="#fff" stroke-width="0"/>
        <path d="m241.28,34.24h-1.48c-.15,1.07-.27.95-.27.8s.12-.27.27.2h1.69c.15-.47.27-.35.27-.2s-.12.27-.27.27" fill="#fff" stroke-width="0"/>
        <path d="m246.11,38.6h0,0Zm-1.82,4.64s0,0,0,0c0,0,0,0,0,0m0,0h0,0m0,0s0,0,0,0c0,0,0,0,0,0m0,0h0,0m.06.02s0,0,0,0c.27.12.55.18.85.19.3,0,.6-.06.88-.18.18-.08.43-.21.57-.32,0,0,0,0,.01-.01.68-.49.95-1.43.64-2.24,0,0,0-.01,0-.02l-.74-1.7c-.03-.06-.08-.11-.14-.14-.06-.03-.14-.02-.2,0,0,0,0,0,0,0h0s-.07.04-.1.07c-.03.04-.05.09-.05.14v.15c-.02.13-.12.23-.24.25-.12.02-.25-.05-.3-.16l-.17-.39c-.03-.06-.08-.11-.14-.14-.06-.03-.14-.02-.2,0h0c-.08.03-.13.1-.15.19,0,.02,0,.04,0,.06v.11c0,.13-.08.25-.21.28-.13.03-.26-.04-.31-.16l-.18-.41c-.03-.06-.08-.11-.14-.14-.06-.03-.14-.02-.2,0h0c-.12.05-.18.18-.15.31.04.14-.04.28-.17.33-.14.05-.28-.02-.34-.15l-.94-2.17c-.04-.09-.11-.15-.2-.19-.09-.03-.19-.03-.27,0h0c-.18.08-.26.29-.18.47l1.66,3.82c.05.11.02.24-.07.32-.09.08-.22.09-.33.02l-.14-.09-1.04-.66c-.08-.05-.18-.07-.27-.05-.09.02-.17.08-.22.16h0c-.1.17-.06.39.11.49,0,0,0,0,.01,0,.08.05.17.12.19.13l2.44,1.51s.02.01.02.02c.1.08.38.24.44.27m.93.97s-.08,0-.09,0c-.37,0-.73-.08-1.06-.23h0s-.1-.05-.23-.12c-.14-.08-.25-.15-.32-.2l-2.42-1.5s-.17-.11-.21-.14c-.42-.27-.54-.82-.27-1.24h0c.13-.21.33-.35.56-.4.24-.05.48-.01.68.12l.43.27-1.3-3c-.2-.46.01-.99.47-1.19h0c.22-.1.47-.1.69-.01.22.09.4.26.5.48l.67,1.53c.06-.06.14-.1.22-.14h0c.2-.09.42-.09.62-.01.13.05.25.14.33.24.07-.07.15-.13.24-.17h0c.2-.09.42-.09.62-.01.13.05.25.14.34.25.07-.07.15-.12.24-.16h0c.2-.09.42-.09.62-.01s.36.23.45.43l.75,1.73s.01.03.02.04c.19.5.2,1.06.05,1.58-.15.51-.47.96-.89,1.26-.23.18-.56.33-.69.39-.34.15-.7.22-1.07.22" fill="#fff" stroke-width="0"/>
      </g>
    </g>
  </g>
</svg>