<svg xmlns="http://www.w3.org/2000/svg" width="7.268" height="13.894" viewBox="0 0 7.268 13.894">
  <path d="M4.514,12.421v1.473H3.073V12.47A4.742,4.742,0,0,1,0,11.108L1.057,9.46A3.488,3.488,0,0,0,3.617,10.6c.945,0,1.473-.529,1.473-1.185,0-.816-.784-1.169-1.744-1.585C2,7.3.32,6.659.32,4.546A3.072,3.072,0,0,1,3.073,1.505V0H4.514V1.489A4.443,4.443,0,0,1,7.075,2.625l-1.024,1.6a3.3,3.3,0,0,0-2.257-.9c-.8,0-1.28.448-1.28,1.089,0,.721.736,1.057,1.7,1.457,1.36.544,3.058,1.248,3.058,3.361A3.081,3.081,0,0,1,4.514,12.421Z" fill="#fff"/>
</svg>
