<?xml version="1.0" encoding="iso-8859-1"?>
<!-- Generator: Adobe Illustrator 16.0.0, SVG Export Plug-In . SVG Version: 6.00 Build 0)  -->
<!DOCTYPE svg PUBLIC "-//W3C//DTD SVG 1.1//EN" "http://www.w3.org/Graphics/SVG/1.1/DTD/svg11.dtd">
<svg version="1.1" id="Capa_1" xmlns="http://www.w3.org/2000/svg" xmlns:xlink="http://www.w3.org/1999/xlink" x="0px" y="0px"
	 width="493.216px" height="493.217px" viewBox="0 0 493.216 493.217" style="enable-background:new 0 0 493.216 493.217;"
	 xml:space="preserve">
<g>
	<g>
		<g id="Icons_20_">
			<g>
				<path d="M341.077,277.746c-4.331-4.996-10.123-8.39-16.45-9.812l-0.348-37.742l17.055-21.771
					c5.729-7.276,4.449-17.799-2.844-23.507c-7.258-5.691-17.792-4.422-23.514,2.854l-17.041,21.766
					c-4.347,5.534-6.737,12.459-6.737,19.498v38.136h-89.181v-38.136c0-7.039-2.385-13.964-6.723-19.491l-2.809-3.581
					l138.043-50.037c8.684-3.146,13.196-12.755,10.025-21.446c-3.145-8.697-12.792-13.178-21.441-10.028
					c0,0-122.767,44.154-162.633,58.836c-11.871,4.371-13.776,12.717-7.683,21.063c4.941,6.768,19.73,24.687,19.73,24.687v38.921
					c-6.313,1.437-12.063,4.813-16.38,9.793c-5.84,6.713-8.475,15.633-7.23,24.438l9.386,66.192
					c1.669,11.773,11.743,20.523,23.611,20.523h137.375c11.891,0,21.957-8.75,23.625-20.523l9.387-66.187
					C349.546,293.379,346.911,284.459,341.077,277.746z"/>
				<path d="M269.438,454.846h-45.659c-2.726,0-4.937,2.207-4.937,4.931v5.7c0.021,7.354,2.927,14.412,8.128,19.62
					c5.2,5.199,12.264,8.12,19.62,8.12c15.357,0,27.77-12.438,27.77-27.766v-5.677C274.36,457.053,272.17,454.846,269.438,454.846z"
					/>
				<path d="M304.875,405.309H188.349c-9.254,0-16.749,7.498-16.749,16.745s7.495,16.742,16.749,16.742h116.524
					c9.233,0,16.743-7.495,16.743-16.742S314.108,405.309,304.875,405.309z"/>
				<path d="M165.065,147.87c1.898,0,3.824-0.326,5.687-1.015L330.53,88.947c8.685-3.15,13.196-12.755,10.025-21.449
					c-3.145-8.697-12.792-13.179-21.441-10.029l-159.771,57.908c-8.684,3.149-13.182,12.755-10.026,21.445
					C151.785,143.635,158.21,147.87,165.065,147.87z"/>
				<path d="M182.085,74.718c1.898,0,3.811-0.327,5.708-1.012L301.502,32.49c8.698-3.149,13.184-12.747,10.04-21.448
					c-3.135-8.69-12.735-13.196-21.455-10.029l-113.71,41.215c-8.697,3.146-13.175,12.744-10.039,21.445
					C168.805,70.484,175.237,74.718,182.085,74.718z"/>
			</g>
		</g>
	</g>
</g>
<g>
</g>
<g>
</g>
<g>
</g>
<g>
</g>
<g>
</g>
<g>
</g>
<g>
</g>
<g>
</g>
<g>
</g>
<g>
</g>
<g>
</g>
<g>
</g>
<g>
</g>
<g>
</g>
<g>
</g>
</svg>
