<svg width="54" height="54" viewBox="0 0 54 54" fill="none" xmlns="http://www.w3.org/2000/svg">
<circle cx="27" cy="27" r="24" fill="#FFC425"/>
<path d="M29.5 18C29.5 16.4087 28.8679 14.8826 27.7426 13.7574C26.6174 12.6321 25.0913 12 23.5 12C21.9087 12 20.3826 12.6321 19.2574 13.7574C18.1321 14.8826 17.5 16.4087 17.5 18" stroke="#232323" stroke-width="2" stroke-linecap="round" stroke-linejoin="round"/>
<path d="M25.477 22.38V18.5475C25.4625 18.0146 25.2407 17.5085 24.8587 17.1367C24.4768 16.7649 23.9648 16.5569 23.4317 16.5569C22.8987 16.5569 22.3867 16.7649 22.0047 17.1367C21.6227 17.5085 21.4009 18.0146 21.3865 18.5475V30.3855L19.177 28.2C18.9468 27.974 18.6721 27.7984 18.3703 27.6845C18.0684 27.5706 17.7462 27.5209 17.4241 27.5386C17.102 27.5562 16.7871 27.6408 16.4996 27.787C16.212 27.9332 15.9581 28.1377 15.754 28.3875C15.4358 28.7789 15.2585 29.2659 15.2503 29.7702C15.2421 30.2745 15.4037 30.767 15.709 31.1685L19.807 36.561C20.737 37.785 21.202 38.397 21.76 38.8725C22.615 39.5985 23.635 40.1025 24.736 40.3425C25.456 40.4985 26.2315 40.4985 27.781 40.4985C30.736 40.4985 32.2135 40.4985 33.3895 40.053C34.2753 39.7195 35.0811 39.2034 35.7546 38.5382C36.428 37.873 36.954 37.0737 37.2985 36.192C37.75 35.031 37.75 33.573 37.75 30.657V27.3375C37.7453 26.6976 37.5135 26.0801 37.0959 25.5952C36.6784 25.1103 36.1021 24.7895 35.47 24.69L35.005 24.615C34.8409 24.5865 34.6725 24.594 34.5116 24.637C34.3507 24.6801 34.2011 24.7575 34.0731 24.8641C33.9451 24.9707 33.8419 25.1038 33.7704 25.2543C33.699 25.4048 33.6611 25.5689 33.6595 25.7355M25.477 22.38L26.2645 21.993C26.644 21.8055 27.067 21.6855 27.4795 21.783C28.0708 21.9191 28.5989 22.2509 28.9781 22.7246C29.3573 23.1983 29.5655 23.7862 29.569 24.393M25.477 22.38V25.7355M33.6595 25.7355C33.6595 24.252 32.4385 23.0505 30.9325 23.0505C30.1795 23.0505 29.569 23.652 29.569 24.393M33.6595 25.7355V27.078M29.569 24.393V25.7355" stroke="#232323" stroke-width="2" stroke-linecap="round" stroke-linejoin="round"/>
</svg>
